<svg viewBox="0 0 1232 563" xmlns="http://www.w3.org/2000/svg" fill-rule="evenodd" clip-rule="evenodd" stroke-linejoin="round" stroke-miterlimit="1.41"><path fill="#bdbec0" fill-rule="nonzero" d="M31.75 97.1h1199.38v20.2H31.75z"/><path d="M187.77 132.17c-.57 0-1.04-.47-1.04-1.04v-11.1c0-.5.36-.93.84-1.03.42-.08 10.37-2.16 10.37-12.8 0-8.14-9.14-10.08-12.27-10.5v.83c0 .57-.47 1.04-1.04 1.04-.57 0-1.03-.47-1.03-1.04v-1.97c0-.57.46-1.04 1.03-1.04.16 0 15.38.95 15.38 12.7 0 10.4-8.4 13.78-11.2 14.6v10.3c0 .58-.4 1.05-1 1.05z" fill="#58595c" fill-rule="nonzero"/><path d="M160.65 136.08h54.24l-27.2 32.06-27.1-32.06z" fill="#0d5166" fill-rule="nonzero"/><path d="M327.7 254.17l-38.4-68.94c-2.87-5.73-7.6-10.32-13.43-13L223.15 148l-30.56 35.42-4.9-15.28-4.8 15.28L152.4 148l-52.73 24.23c-5.83 2.68-10.56 7.27-13.43 13l-38.4 68.94L94.9 280.1l14.47-26.53-13.27 154.4s39.2 13.26 91.67 13.26 91.67-13.27 91.67-13.27l-13.27-154.4 14.48 26.54 47.04-25.93z" fill="#0b5b79" fill-rule="nonzero"/><path d="M86.24 185.23l-38.4 68.94L94.9 280.1l14.46-26.53c5.96-35.8-9.7-81.34-9.7-81.34-5.8 2.68-10.55 7.27-13.42 13zm203.06 0l38.4 68.94-47.05 25.93-14.48-26.53c-5.96-35.8 9.7-81.34 9.7-81.34 5.82 2.68 10.56 7.27 13.43 13zM181.82 421.17c1.97.03 3.94.06 5.95.06 2 0 3.98-.03 5.94-.07V182.12l-5.9-13.96-5.9 13.97V421.2z" fill="#40a4bc" fill-rule="nonzero"/><path d="M193.7 183.42L223.16 148l-8.27-11.92-27.1 32.06 5.9 15.28zm-11.88 0l5.95-15.28-27.12-32.06L152.4 148l29.42 35.42z" fill="#084251" fill-rule="nonzero"/><path d="M209.05 142.97l2.78-3.28-22.8-10.6c-.56-.3-1.2-.3-1.74 0l-23.5 10.6 2.8 3.3 21.5-9.8 20.9 9.6zm137.93-10.8c-.58 0-1.04-.47-1.04-1.04v-11.1c0-.5.35-.94.84-1.03.42-.08 10.37-2.16 10.37-12.8 0-8.15-9.14-10.08-12.27-10.5v.83c0 .57-.47 1.04-1.04 1.04-.57 0-1.04-.47-1.04-1.04v-1.97c0-.57.47-1.04 1.04-1.04.15 0 15.38.95 15.38 12.7 0 10.4-8.47 13.78-11.2 14.6v10.3c0 .58-.47 1.05-1.04 1.05z" fill="#58595c" fill-rule="nonzero"/><path d="M264.9 148.9h164.17l-10.43 25.68-143.32 9-10.43-34.68z" fill="#897e72" fill-rule="nonzero"/><path d="M429.07 148.9l-17.43 3.7c-42.63 9.08-86.7 9.08-129.32 0l-17.43-3.7L229 350.63 316.4 362l30.6-94.34L377.54 362l87.33-11.37-35.8-201.73z" fill="#aa9e93" fill-rule="nonzero"/><path d="M278.15 169.9l1.67-17.82-14.93-3.18-10 56.06s19-17.76 23.2-35.05zm137.65 0l-1.66-17.82 14.93-3.18 9.95 56.06s-19.04-17.76-23.2-35.05z" fill="#776f67" fill-rule="nonzero"/><path d="M278.15 169.9c45.38 9.66 92.28 9.66 137.66 0l16.4-3.48-3.1-17.52-17.4 3.7c-42.6 9.08-86.7 9.08-129.3 0l-17.4-3.7-3.1 17.52 16.4 3.5zm43 177.48l-89.3-12.3-2.77 15.55L316.4 362l5.16-15.88-.42 1.26zm51.65 0l89.3-12.3 2.77 15.55L377.54 362l-5.14-15.88.4 1.26z" fill="#414043" fill-rule="nonzero"/><path d="M358.68 240.65c-.96 0-1.8-.7-1.96-1.68-.22-1.4-5.46-34.83-6.45-46.15-.6-6.93-2.48-13.75-3.8-17.85-2.44 4.46-6.33 13.1-7.6 24.82-1.96 18.1-3.43 25.6-3.5 25.9-.2 1-1.26 1.7-2.3 1.5-1.1-.2-1.78-1.3-1.57-2.4.02-.1 1.5-7.6 3.44-25.6 2-18.6 10.1-29.7 10.45-30.2.4-.6 1.1-.9 1.8-.8.7.1 1.3.5 1.6 1.2.2.4 4.4 11.2 5.4 22.8.9 11.2 6.3 45.5 6.4 45.9.1 1-.6 2.1-1.7 2.2h-.3z" fill="#414043" fill-rule="nonzero"/><path d="M337.74 225.3c0 2.38-1.93 4.3-4.3 4.3s-4.3-1.92-4.3-4.3c0-2.36 1.93-4.3 4.3-4.3s4.3 1.94 4.3 4.3zm25.3 13.43c0 2.37-1.93 4.3-4.3 4.3s-4.3-1.93-4.3-4.3 1.93-4.3 4.3-4.3 4.3 1.93 4.3 4.3z" fill="#414043" fill-rule="nonzero"/><path d="M298.5 155.6l48.74-22.2 48.2 22.2c1.87-.3 3.75-.62 5.63-.96-.12-.64-.5-1.22-1.14-1.52l-51.82-23.87c-.5-.25-1.1-.26-1.7 0L294 153.12c-.64.3-1.03.87-1.14 1.5 1.9.35 3.78.7 5.67.98zm167.42-1.43c-.8 0-1.55-.43-1.92-1.2-.52-1.05-.08-2.33.98-2.84l38.87-19.03c.6-.3 1.3-.3 1.9 0l38.3 19.03c1.06.53 1.5 1.8.97 2.86-.53 1-1.8 1.4-2.86.9l-37.38-18.6-37.93 18.5c-.3.1-.62.2-.93.2z" fill="#58595c" fill-rule="nonzero"/><path d="M504.5 134.08c-.58 0-1.05-.48-1.05-1.07v-11.4c0-.5.36-.9.86-1 .5-.1 10.7-2.2 10.7-13.1 0-8.4-9.4-10.4-12.6-10.8v.9c0 .6-.5 1.1-1 1.1-.6 0-1-.4-1-1v-2.1c0-.6.5-1 1.1-1 .2 0 15.8 1 15.8 13.1 0 10.7-8.7 14.2-11.5 15V133c0 .6-.5 1.08-1.1 1.08z" fill="#58595c" fill-rule="nonzero"/><path d="M609.26 295.22c-4.2-43.82-13.1-82.94-18.78-104.8-3-11.5-10.65-21.26-21.17-26.84l-27.4-14.56c-7 13.45-21.1 22.63-37.3 22.63s-30.3-9.18-37.3-22.63l-27.4 14.56c-10.5 5.58-18.1 15.33-21.1 26.85-5.6 21.85-14.6 60.97-18.8 104.8-6.6 67.07-13 130.47-13 130.47h32.2l15.6-120.37V425.7h139.6V305.33L590 425.7h32.15s-6.43-63.4-12.86-130.48z" fill="#fbc949" fill-rule="nonzero"/><path d="M424.38 177.5c-2.62 3.93-4.62 8.27-5.83 12.93-5.67 21.85-14.58 60.97-18.8 104.8-6.42 67.07-12.85 130.47-12.85 130.47h32.16l15.62-120.37c8.28-63.83-10.1-127.1-10.3-127.82zm160.27 0c2.6 3.93 4.62 8.27 5.83 12.93 5.67 21.85 14.58 60.97 18.78 104.8 6.43 67.07 12.86 130.47 12.86 130.47h-32.16l-15.62-120.37c-8.28-63.83 10.1-127.1 10.3-127.82zm-43.15-28.48l-3.68-15.78s-9.97 27.43-33.3 27.43c-23.34 0-33.3-27.43-33.3-27.43l-3.7 15.78-.08.5c7.13 13.17 21.04 22.13 37.07 22.13 16.1 0 30-8.96 37.1-22.13l-.1-.5zM434.68 406.4h139.66v19.3H434.68z" fill="#ecb23d" fill-rule="nonzero"/><path d="M750.06 147.32H598.43S546.8 432.5 546.8 495.6l75.7 13.87 6.3-48.15c7.8-59.98 21.55-119.03 41-176.28 1.43-4.22 7.47-4.22 8.9 0 19.44 57.25 33.18 116.3 41 176.28l6.28 48.15 75.7-13.88c0-63.1-51.62-348.3-51.62-348.3z" fill="#bc8b32" fill-rule="nonzero"/><path d="M605.08 174.72l-2.8-.5.67-3.72 2.8.5-.67 3.72zm-2.6 14.78l-2.8-.5 1.3-7.4 2.8.5-1.3 7.4zm-2.6 14.8l-2.8-.5 1.3-7.4 2.8.5-1.3 7.4zm-2.57 14.8l-2.8-.5 1.3-7.4 2.8.5-1.3 7.4zm-2.5 14.8l-2.8-.48 1.3-7.4 2.8.48-1.2 7.4zm-2.5 14.8l-2.8-.47 1.3-7.4 2.8.47-1.2 7.4zm-2.5 14.82l-2.8-.48 1.3-7.4 2.8.47-1.2 7.5zm-2.5 14.8l-2.8-.46 1.3-7.4 2.8.46-1.2 7.4zm-2.4 14.82l-2.8-.46 1.3-7.4 2.8.45-1.2 7.4zm-2.4 14.82l-2.8-.46 1.2-7.4 2.8.45-1.2 7.4zm-2.4 14.8l-2.8-.45 1.2-7.4 2.8.5-1.2 7.4zm-2.3 14.84l-2.8-.45 1.2-7.42 2.8.44-1.2 7.43zm-2.3 14.85l-2.8-.44 1.2-7.4 2.8.5-1.1 7.4zM573 367.3l-2.8-.47 1.15-7.42 2.83.5-1.14 7.4zm-2.22 14.8l-2.8-.4 1.1-7.44 2.8.4-1.1 7.43zm-2.2 14.86l-2.8-.42 1.1-7.43 2.8.4-1.1 7.5zm-2.1 14.85l-2.82-.4 1.05-7.4 2.8.4-1 7.4zm-2.06 14.9l-2.8-.4 1-7.4 2.8.4-1 7.5zm-1.96 14.9l-2.8-.4.95-7.4 2.8.4-.9 7.5zm-1.8 14.9l-2.83-.3.9-7.4 2.8.4-.87 7.5zM559 471.4l-2.84-.3c.25-2.4.5-4.9.8-7.48l2.82.3-.8 7.47zm-1.36 14.92l-2.84-.2c.17-2.4.4-4.9.62-7.52l2.83.27c-.24 2.6-.45 5.08-.63 7.45zm-.68 10.9l-2.83-.12c.05-1.2.1-2.46.2-3.77l2.82.16-.2 3.7zm186.45-322.5l2.8-.5-.6-3.73-2.8.5.7 3.7zm1.3 7.37l2.8-.5 1.4 7.4-2.8.5-1.3-7.4zm2.7 14.8l2.8-.5 1.3 7.4-2.8.5-1.3-7.4zm2.6 14.8l2.8-.5 1.3 7.4-2.8.5-1.3-7.4zm2.6 14.8l2.8-.5 1.3 7.4-2.8.5-1.2-7.4zm2.6 14.8l2.8-.5 1.3 7.4-2.8.5-1.2-7.4zm2.6 14.8l2.8-.5 1.3 7.4-2.8.5-1.2-7.4zm2.5 14.8l2.8-.5 1.3 7.4-2.8.5-1.2-7.4zm2.5 14.8l2.8-.5 1.3 7.4-2.8.4-1.22-7.4zm2.5 14.8l2.8-.5 1.2 7.4-2.8.4-1.2-7.4zm2.4 14.8l2.8-.5 1.2 7.4-2.8.4-1.2-7.4zm2.4 14.8l2.8-.5 1.2 7.4-2.8.4-1.2-7.5zm2.3 14.8l2.8-.5 1.2 7.4-2.8.4-1.12-7.4zm2.3 14.8l2.9-.5 1.14 7.4-2.8.4-1.14-7.5zm2.3 14.8l2.8-.4 1.1 7.4-2.8.4-1.1-7.4zm2.2 14.8l2.8-.4 1.1 7.4-2.8.4-1.1-7.5zm2.2 14.8l2.88-.4 1.04 7.4-2.8.4-1.06-7.48zm2.1 14.8l2.8-.4 1.08 7.42-2.8.4-1.03-7.45zm2 14.84l2.8-.37 1 7.43-2.8.35-1-7.43zm1.9 14.9l2.8-.35.9 7.5-2.8.3-.9-7.43zm1.78 14.9l2.8-.3c.3 2.56.56 5.05.8 7.47l-2.82.3c-.2-2.4-.5-4.9-.75-7.5zm1.5 14.93l2.83-.3.64 7.5-2.82.2-.6-7.44zm1.3 18.3l2.83-.1c-.05-1.2-.1-2.5-.2-3.8l-2.82.14.2 3.73z" fill="#5a4117" fill-rule="nonzero"/><path d="M598.43 147.32s21.56 20.5 75.82 20.5c54.26 0 75.8-20.5 75.8-20.5h-151.6z" fill="#cca96f" fill-rule="nonzero"/><path d="M750.06 147.32s-21.55 20.5-75.8 20.5c-54.28 0-75.83-20.5-75.83-20.5s-1.24 6.87-3.34 18.7c17.4 9.82 43.2 18.97 79.1 18.97 35.9 0 61.7-9.2 79.1-19-2.1-11.9-3.4-18.7-3.4-18.7zM672.83 185h2.84v3.78h-2.84zm2.84 20.77h-2.84v-8.5h2.84v8.5zm0 17h-2.84v-8.5h2.84v8.5zm0 17h-2.84v-8.5h2.84v8.5zm2.36 13.7h-5.2v-5.2h2.84v2.36h2.36v2.84zm18.47-48.23h-2.85v-8.2h2.84v8.2zm0 16.4h-2.85v-8.2h2.84v8.2zm-1.9 16.58l-2.77-.6c.5-2.4.95-5.08 1.3-7.96l2.8.34c-.34 2.96-.8 5.72-1.32 8.22zm-7.4 15.25h-.96v-2.84h.18c.47-.4 1.8-1.8 3.2-5.36l2.65 1.05c-2.18 5.48-4.36 6.8-4.77 7l-.3.15zm6.45-68.47h2.84v3.78h-2.9z" fill="#5a4117" fill-rule="nonzero"/><path d="M674.25 132.38c-.57 0-1.04-.47-1.04-1.04v-11.1c0-.5.4-.93.9-1.03.4 0 10.4-2.1 10.4-12.7 0-8.1-9.1-10.1-12.2-10.5v.8c0 .6-.4 1.1-1 1.1-.5 0-1-.4-1-1v-2c0-.6.5-1 1.1-1 .2 0 15.4 1 15.4 12.7 0 10.4-8.5 13.8-11.2 14.6v10.3c0 .6-.4 1.1-1 1.1z" fill="#58595c" fill-rule="nonzero"/><path d="M618.66 158.65l55.85-25.04 55.4 25.1c1.6-.6 3.2-1.2 4.6-1.9-.2-.4-.5-.8-1-1l-58-26.2c-.5-.2-1.1-.2-1.7 0l-58.5 26.3c-.5.2-.8.6-1 1.1 1.5.7 3 1.3 4.6 1.9zm188.04-6.95c-.77 0-1.5-.44-1.86-1.17-.5-1.03-.08-2.27.95-2.77l37.7-18.5c.6-.27 1.2-.27 1.8.02l37.2 18.48c1 .5 1.4 1.75.9 2.78-.5 1.02-1.8 1.44-2.8.93l-36.4-18.03-36.9 18.04c-.3.14-.6.2-.9.2z" fill="#58595c" fill-rule="nonzero"/><path d="M844.2 132.17c-.57 0-1.04-.47-1.04-1.04v-11.1c0-.5.36-.93.84-1.03.42-.08 10.37-2.16 10.37-12.8 0-8.15-9.14-10.08-12.27-10.5v.83c0 .57-.47 1.04-1.04 1.04-.57 0-1.03-.47-1.03-1.04v-1.97c0-.57.46-1.04 1.03-1.04.16 0 15.38.95 15.38 12.7 0 10.4-8.47 13.78-11.2 14.6v10.3c0 .58-.47 1.05-1.04 1.05z" fill="#58595c" fill-rule="nonzero"/><path d="M945.74 180.23c-2.87-5.74-7.6-10.32-13.43-13l-51.8-23.83c-2.1 18.14-17.5 32.23-36.2 32.23-18.7 0-34.1-14.1-36.2-32.23l-51.8 23.83c-5.8 2.68-10.5 7.26-13.4 13l-38.4 68.94 47.1 25.93 14.5-26.54V403h156.8V248.57l14.5 26.54 47-25.9-38.4-68.9z" fill="#25a9e1" fill-rule="nonzero"/><clipPath id="a"><path d="M807.96 143.4l-51.85 23.83s9.7 61.9 9.7 81.33V403h78.4V175.64c-18.7 0-34.1-14.1-36.2-32.23z"/></clipPath><g clip-path="url(#a)" fill="#1675bc" fill-rule="nonzero"><path d="M745.78 151.3h98.43v6.88h-98.4zm0 17.63h98.43v6.87h-98.4zm0 17.6h98.43v6.88h-98.4zm0 17.63h98.43v6.87h-98.4zm0 17.62h98.43v6.87h-98.4zm0 17.62h98.43v6.87h-98.4zm0 17.6h98.43v6.88h-98.4zm0 17.63h98.43v6.87h-98.4zm0 17.62h98.43v6.87h-98.4zm0 17.62h98.43v6.87h-98.4zm0 17.63h98.43v6.86h-98.4zm0 17.6h98.43v6.87h-98.4zm0 17.62h98.43v6.87h-98.4zm0 17.62h98.43v6.87h-98.4zm0 17.6h98.43v6.88h-98.4z"/></g><clipPath id="b"><path d="M880.45 143.4l51.85 23.83s-9.7 61.9-9.7 81.33V403h-78.4V175.64c18.7 0 34.12-14.1 36.25-32.23z"/></clipPath><g clip-path="url(#b)" fill="#1675bc" fill-rule="nonzero"><path d="M844.2 151.3h98.43v6.88H844.2zm0 17.63h98.43v6.87H844.2zm0 17.6h98.43v6.88H844.2zm0 17.63h98.43v6.87H844.2zm0 17.62h98.43v6.87H844.2zm0 17.62h98.43v6.87H844.2zm0 17.6h98.43v6.88H844.2zm0 17.63h98.43v6.87H844.2zm0 17.62h98.43v6.87H844.2zm0 17.62h98.43v6.87H844.2zm0 17.63h98.43v6.86H844.2zm0 17.6h98.43v6.87H844.2zm0 17.62h98.43v6.87H844.2zm0 17.62h98.43v6.87H844.2zm0 17.6h98.43v6.88H844.2z"/></g><clipPath id="c"><path d="M742.68 180.23l-38.4 68.94 47.05 25.93 14.48-26.54c0-19.44-9.7-81.33-9.7-81.33-5.8 2.68-10.5 7.26-13.4 13z"/></clipPath><g clip-path="url(#c)" fill="#1675bc" fill-rule="nonzero"><path d="M726.9 167.23l66.9 36.9-3.32 6.03-66.9-36.92 3.32-6zm11.5-11.5l66.9 36.9-3.3 6-66.9-36.9 3.3-6zm-23.04 23.04l66.9 36.9-3.33 6.03-66.9-36.9 3.33-6.03zm0 17.66l66.9 36.92-3.33 6-66.9-36.9 3.33-6.02zm0 17.85l66.9 36.9-3.33 6.02-66.9-36.9 3.33-6.02zm-5.86 14.2l66.88 36.92-3.32 6-66.9-36.9 3.33-6.02zm-9 12.42l66.9 36.93-3.3 6-66.9-36.9 3.3-6.02z"/></g><clipPath id="d"><path d="M945.74 180.23l38.4 68.94-47.05 25.93-14.5-26.54c0-19.44 9.7-81.33 9.7-81.33 5.8 2.68 10.5 7.26 13.4 13z"/></clipPath><g clip-path="url(#d)" fill="#1675bc" fill-rule="nonzero"><path d="M961.52 167.23l-66.9 36.9 3.32 6.03 66.9-36.92-3.32-6zM950 155.73l-66.9 36.9 3.33 6 66.9-36.9-3.33-6zm23.06 23.04l-66.9 36.9 3.32 6.03 66.9-36.9-3.32-6.03zm0 17.66l-66.9 36.92 3.32 6 66.9-36.9-3.32-6.02zm0 17.85l-66.9 36.9 3.32 6.02 66.9-36.9-3.32-6.02zm5.87 14.2l-66.9 36.92 3.32 6 66.9-36.9-3.32-6.02zm8.97 12.42L921 277.84l3.33 6 66.9-36.9-3.32-6.02z"/></g><path d="M1127.1 285.9c-14.1-61.48-30.08-93.76-38.95-108.2-3.76-6.13-9.65-10.47-16.38-12.24l-16.12-3.6-.36 3.2-64 4.65-63.9-4.6-.4-3.2-16.2 3.6c-6.8 1.8-12.6 6.1-16.4 12.3-8.9 14.5-24.9 46.8-39 108.2-20.8 90.9-24.2 122-24.2 122h39.1s12.5-101.8 43.3-158.6v164.2h154.9V249.2c30.8 56.8 43.3 158.64 43.3 158.64h39.2s-3.38-31.08-24.2-121.94z" fill="#bc3836" fill-rule="nonzero"/><path d="M1047.74 137.62c-8.6-4.67-25.02-9.12-56.36-9.12-31.35 0-47.77 4.45-56.37 9.12-6.1 3.32-9.4 10.4-8.6 17.58l1.1 9.85 64 4.66 63.9-4.6 1.1-9.8c.8-7.1-2.5-14.2-8.6-17.5z" fill="#bc3836" fill-rule="nonzero"/><path d="M900.72 170.73c-2.37 1.94-4.46 4.27-6.12 6.97-8.87 14.44-24.86 46.72-38.95 108.2-20.8 90.86-24.14 121.94-24.14 121.94h39.2S883.2 306 914 249.2c0-49.73-13.23-78.42-13.23-78.42zm181.3 0c2.38 1.94 4.47 4.27 6.13 6.97 8.87 14.44 24.86 46.72 38.95 108.2 20.82 90.86 24.15 121.94 24.15 121.94h-39.14S1099.7 306 1068.8 249.2c0-49.78 13.23-78.47 13.23-78.47z" fill="#e65a4a" fill-rule="nonzero"/><path d="M948.64 343.15h85.47V222.18h-85.4v120.97zm92.16 6.7h-98.85V215.48h98.85v134.34z" fill="#fff" fill-rule="nonzero"/><path d="M926.35 155.2l1.1 9.85 63.93 4.66c-24.86-17.8-49.93-26.7-59.54-29.7-4.04 3.8-6.15 9.5-5.5 15.3zm130.05 0l-1.1 9.85-63.92 4.66c24.85-17.8 49.93-26.7 59.54-29.7 4.03 3.8 6.14 9.5 5.48 15.3z" fill="#e65a4a" fill-rule="nonzero"/><path d="M996.25 169.7c0 2.7-2.18 4.9-4.87 4.9-2.7 0-4.88-2.2-4.88-4.9 0-2.68 2.18-4.86 4.88-4.86 2.7 0 4.87 2.18 4.87 4.87z" fill="#414043" fill-rule="nonzero"/><path d="M997.73 235.48h-.1c-.9-.05-1.62-.83-1.57-1.76 0-.23 1.24-23.6 0-38-.76-8.9-2.98-14.96-4.5-18.2-1.36 3.46-3.37 9.67-4.15 17.58-1.2 12.57-1.2 20.35-1.2 20.43 0 .92-.7 1.67-1.6 1.67-.9 0-1.6-.75-1.6-1.67 0-.08 0-8 1.3-20.76 1.3-13 5.7-21.44 5.8-21.8.3-.5.8-.85 1.4-.9.6-.03 1.2.23 1.5.7.2.3 5.4 7.66 6.7 22.65 1.3 14.66 0 38.25 0 38.48 0 .9-.8 1.58-1.6 1.58z" fill="#414043" fill-rule="nonzero"/><path d="M991.37 132.94c-.57 0-1.03-.46-1.03-1.03v-11.1c0-.5.35-.9.84-1 .42-.1 10.36-2.1 10.36-12.8 0-8.1-9.14-10.1-12.27-10.5v.9c0 .6-.46 1.1-1.03 1.1-.58 0-1.04-.4-1.04-1v-2c0-.6.46-1 1.04-1 .15 0 15.37 1 15.37 12.7 0 10.4-8.4 13.8-11.2 14.6V132c0 .57-.4 1.03-1 1.03z" fill="#58595c" fill-rule="nonzero"/><path d="M1024.32 150.44c1.66-.78 3.28-1.52 4.85-2.2l-36.6-18.2c-.58-.27-1.26-.28-1.84 0l-37.14 18.2c1.5.7 3.2 1.43 4.8 2.22l33.2-16.24 32.7 16.22zm58.4-1.04c-.8 0-1.54-.45-1.9-1.2-.46-1.06 0-2.28 1.04-2.76l42.17-19.1c.55-.25 1.18-.24 1.73 0l41.1 19.1c1.05.5 1.5 1.73 1.02 2.76-.48 1.04-1.7 1.5-2.75 1l-40.26-18.7-41.3 18.72c-.27.13-.56.18-.85.18z" fill="#58595c" fill-rule="nonzero"/><path d="M1124.6 129.27c-.56 0-1.02-.47-1.02-1.04v-11.1c0-.5.35-.94.84-1.03.42-.08 10.36-2.15 10.36-12.8 0-8.14-9.14-10.08-12.27-10.5v.83c0 .57-.4 1.04-1 1.04-.5 0-1-.47-1-1.04v-1.97c0-.57.5-1.04 1.1-1.04.2 0 15.4.95 15.4 12.7 0 10.4-8.4 13.78-11.2 14.6v10.3c0 .58-.4 1.05-1 1.05z" fill="#58595c" fill-rule="nonzero"/><path d="M1198.3 152.57l-35.16-13.4s-6.7 30.15-38.52 55.27c-31.83-25.12-38.53-55.27-38.53-55.27l-35.2 13.4c18.4 56.94-16.8 73.7-16.8 73.7v154.07H1215V226.26s-35.16-16.75-16.73-73.7z" fill="#0d4a69" fill-rule="nonzero"/><path d="M1182.4 258.3l-16.4 9.83-16.4-9.82v-27.5h32.8v27.6z" fill="#4c7f8b" fill-rule="nonzero"/></svg>