<?xml version="1.0" encoding="UTF-8" standalone="no"?>
<svg
   xmlns:dc="http://purl.org/dc/elements/1.1/"
   xmlns:cc="http://creativecommons.org/ns#"
   xmlns:rdf="http://www.w3.org/1999/02/22-rdf-syntax-ns#"
   xmlns:svg="http://www.w3.org/2000/svg"
   xmlns="http://www.w3.org/2000/svg"
   version="1.1"
   id="svg2"
   xml:space="preserve"
   width="1365.3333"
   height="1024"
   viewBox="0 0 1365.3333 1024"><metadata
     id="metadata8"><rdf:RDF><cc:Work
         rdf:about=""><dc:format>image/svg+xml</dc:format><dc:type
           rdf:resource="http://purl.org/dc/dcmitype/StillImage" /></cc:Work></rdf:RDF></metadata><defs
     id="defs6"><clipPath
       clipPathUnits="userSpaceOnUse"
       id="clipPath20"><path
         d="M 0,0 H 1024 V 768 H 0 Z"
         id="path18" /></clipPath><clipPath
       clipPathUnits="userSpaceOnUse"
       id="clipPath32"><path
         d="m 100.0866,609.5659 h 425.3708 v 58 H 100.0866 Z"
         id="path30" /></clipPath><clipPath
       clipPathUnits="userSpaceOnUse"
       id="clipPath46"><path
         d="M 0,0 H 1024 V 768 H 0 Z"
         id="path44" /></clipPath><clipPath
       clipPathUnits="userSpaceOnUse"
       id="clipPath56"><path
         d="m 100.0866,479.7754 h 425.3708 v 58 H 100.0866 Z"
         id="path54" /></clipPath><clipPath
       clipPathUnits="userSpaceOnUse"
       id="clipPath70"><path
         d="M 0,0 H 1024 V 768 H 0 Z"
         id="path68" /></clipPath><clipPath
       clipPathUnits="userSpaceOnUse"
       id="clipPath102"><path
         d="m 100.0866,349.9849 h 425.3708 v 58 H 100.0866 Z"
         id="path100" /></clipPath><clipPath
       clipPathUnits="userSpaceOnUse"
       id="clipPath116"><path
         d="M 0,0 H 1024 V 768 H 0 Z"
         id="path114" /></clipPath><clipPath
       clipPathUnits="userSpaceOnUse"
       id="clipPath148"><path
         d="m 100.0866,220.1943 h 425.3708 v 58 H 100.0866 Z"
         id="path146" /></clipPath><clipPath
       clipPathUnits="userSpaceOnUse"
       id="clipPath162"><path
         d="M 0,0 H 1024 V 768 H 0 Z"
         id="path160" /></clipPath><clipPath
       clipPathUnits="userSpaceOnUse"
       id="clipPath184"><path
         d="m 100.0866,90.40379 h 425.3708 v 58 H 100.0866 Z"
         id="path182" /></clipPath><clipPath
       clipPathUnits="userSpaceOnUse"
       id="clipPath198"><path
         d="M 0,0 H 1024 V 768 H 0 Z"
         id="path196" /></clipPath></defs><g
     id="g10"
     transform="matrix(1.3333333,0,0,-1.3333333,0,1024)"><g
       id="g12" /><g
       id="g14"><g
         id="g16"
         clip-path="url(#clipPath20)"><path
           d="M 0,768 H 1024 V 0 H 0 Z"
           style="fill:#000000;fill-opacity:1;fill-rule:nonzero;stroke:none"
           id="path22" /><path
           d="M 111.1306,671.5659 H 514.4135 V 606.0151 H 111.1306 Z"
           style="fill:#f8ba00;fill-opacity:1;fill-rule:nonzero;stroke:none"
           id="path24" /></g></g><g
       id="g26"><g
         id="g28"
         clip-path="url(#clipPath32)"><g
           id="g34"
           transform="translate(159,620)"><g
             id="text38"
             style="font-variant:normal;font-weight:normal;font-size:52px;font-family:EnvyCodeR;-inkscape-font-specification:EnvyCodeR;writing-mode:lr-tb;fill:#000000;fill-opacity:1;fill-rule:nonzero;stroke:none"
             transform="scale(1,-1)"
             aria-label="RUST SOURCE"><path
               id="path103"
               style=""
               d="M 16.326172,-16.300781 Q 24.248047,-0.07617187 24.248047,0 H 19.652344 Q 11.832031,-15.970703 11.832031,-16.046875 H 8.0234375 V 0 H 4.0117187 V -36.105469 H 14.041016 q 2.082031,0 3.910156,0.78711 1.828125,0.787109 3.173828,2.158203 1.371094,1.345703 2.158203,3.173828 0.787109,1.828125 0.787109,3.910156 0,1.777344 -0.583984,3.376953 -0.583984,1.59961 -1.625,2.894532 -1.041016,1.294921 -2.462891,2.208984 -1.421875,0.914062 -3.072265,1.294922 z m -2.285156,-3.757813 q 1.24414,0 2.335937,-0.457031 1.091797,-0.482422 1.904297,-1.294922 0.837891,-0.83789 1.294922,-1.929687 0.482422,-1.091797 0.482422,-2.335938 0,-1.24414 -0.482422,-2.335937 -0.457031,-1.091797 -1.294922,-1.904297 -0.8125,-0.837891 -1.904297,-1.294922 -1.091797,-0.482422 -2.335937,-0.482422 H 8.0234375 v 12.035156 z" /><path
               id="path105"
               style=""
               d="m 31.940918,-36.105469 h 4.011719 v 26.076172 q 0,1.2441407 0.457031,2.3359376 0.482422,1.0917969 1.294922,1.9296875 0.83789,0.8125 1.929687,1.2949219 1.091797,0.4570313 2.335938,0.4570313 1.24414,0 2.335937,-0.4570313 1.091797,-0.4824219 1.904297,-1.2949219 0.837891,-0.8378906 1.294922,-1.9296875 0.482422,-1.0917969 0.482422,-2.3359376 v -26.076172 h 4.011719 v 26.076172 q 0,2.0820314 -0.78711,3.9101564 -0.787109,1.828125 -2.158203,3.1992187 -1.345703,1.3457032 -3.173828,2.13281253 Q 44.052246,0 41.970215,0 39.888184,0 38.060059,-0.78710937 36.231934,-1.5742187 34.86084,-2.9199219 33.515137,-4.2910156 32.728027,-6.1191406 31.940918,-7.9472656 31.940918,-10.029297 v -10.029297 z" /><path
               id="path107"
               style=""
               d="m 63.881836,-26.076172 q 0,1.244141 0.457031,2.335938 0.482422,1.091797 1.294922,1.929687 0.837891,0.8125 1.929688,1.294922 1.091796,0.457031 2.335937,0.457031 2.082031,0 3.910156,0.78711 1.828125,0.787109 3.173828,2.158203 1.371094,1.345703 2.158204,3.173828 0.787109,1.828125 0.787109,3.910156 0,2.0820314 -0.787109,3.9101564 -0.78711,1.828125 -2.158204,3.1992187 -1.345703,1.3457032 -3.173828,2.13281253 Q 71.981445,0 69.899414,0 H 59.870117 v -4.0117187 h 10.029297 q 1.244141,0 2.335938,-0.4570313 1.091796,-0.4824219 1.904296,-1.2949219 0.837891,-0.8378906 1.294922,-1.9296875 0.482422,-1.0917969 0.482422,-2.3359376 0,-1.244141 -0.482422,-2.335937 -0.457031,-1.091797 -1.294922,-1.904297 -0.8125,-0.837891 -1.904296,-1.294922 -1.091797,-0.482422 -2.335938,-0.482422 -2.082031,0 -3.910156,-0.787109 -1.828125,-0.78711 -3.199219,-2.132813 -1.345703,-1.371094 -2.132812,-3.199219 -0.78711,-1.828125 -0.78711,-3.910156 0,-2.082031 0.78711,-3.910156 0.787109,-1.828125 2.132812,-3.173828 1.371094,-1.371094 3.199219,-2.158203 1.828125,-0.78711 3.910156,-0.78711 h 10.029297 v 4.011719 H 69.899414 q -1.244141,0 -2.335937,0.482422 -1.091797,0.457031 -1.929688,1.294922 -0.8125,0.8125 -1.294922,1.904297 -0.457031,1.091797 -0.457031,2.335937 z" /><path
               id="path109"
               style=""
               d="m 95.822754,-32.09375 h -8.023438 v -4.011719 h 20.058594 v 4.011719 H 99.834473 V 0 h -4.011719 z" /><path
               id="path111"
               style=""
               d="m 147.66943,-26.076172 q 0,1.244141 0.45703,2.335938 0.48243,1.091797 1.29493,1.929687 0.83789,0.8125 1.92968,1.294922 1.0918,0.457031 2.33594,0.457031 2.08203,0 3.91016,0.78711 1.82812,0.787109 3.17383,2.158203 1.37109,1.345703 2.1582,3.173828 0.78711,1.828125 0.78711,3.910156 0,2.0820314 -0.78711,3.9101564 -0.78711,1.828125 -2.1582,3.1992187 -1.34571,1.3457032 -3.17383,2.13281253 Q 155.76904,0 153.68701,0 h -10.0293 v -4.0117187 h 10.0293 q 1.24414,0 2.33594,-0.4570313 1.0918,-0.4824219 1.9043,-1.2949219 0.83789,-0.8378906 1.29492,-1.9296875 0.48242,-1.0917969 0.48242,-2.3359376 0,-1.244141 -0.48242,-2.335937 -0.45703,-1.091797 -1.29492,-1.904297 -0.8125,-0.837891 -1.9043,-1.294922 -1.0918,-0.482422 -2.33594,-0.482422 -2.08203,0 -3.91015,-0.787109 -1.82813,-0.78711 -3.19922,-2.132813 -1.34571,-1.371094 -2.13282,-3.199219 -0.78711,-1.828125 -0.78711,-3.910156 0,-2.082031 0.78711,-3.910156 0.78711,-1.828125 2.13282,-3.173828 1.37109,-1.371094 3.19922,-2.158203 1.82812,-0.78711 3.91015,-0.78711 h 10.0293 v 4.011719 h -10.0293 q -1.24414,0 -2.33594,0.482422 -1.09179,0.457031 -1.92968,1.294922 -0.8125,0.8125 -1.29493,1.904297 -0.45703,1.091797 -0.45703,2.335937 z" /><path
               id="path113"
               style=""
               d="m 171.58691,-26.076172 q 0,-2.082031 0.78711,-3.910156 0.78711,-1.828125 2.13282,-3.173828 1.37109,-1.371094 3.19921,-2.158203 1.82813,-0.78711 3.91016,-0.78711 2.08203,0 3.91016,0.78711 1.82812,0.787109 3.17383,2.158203 1.37109,1.345703 2.1582,3.173828 0.78711,1.828125 0.78711,3.910156 v 16.046875 q 0,2.0820314 -0.78711,3.9101564 -0.78711,1.828125 -2.1582,3.1992187 -1.34571,1.3457032 -3.17383,2.13281253 Q 183.69824,0 181.61621,0 q -2.08203,0 -3.91016,-0.78710937 -1.82812,-0.78710933 -3.19921,-2.13281253 -1.34571,-1.3710937 -2.13282,-3.1992187 -0.78711,-1.828125 -0.78711,-3.9101564 z m 10.0293,-6.017578 q -1.24414,0 -2.33594,0.482422 -1.09179,0.457031 -1.92968,1.294922 -0.8125,0.8125 -1.29493,1.904297 -0.45703,1.091797 -0.45703,2.335937 v 16.046875 q 0,1.2441407 0.45703,2.3359376 0.48243,1.0917969 1.29493,1.9296875 0.83789,0.8125 1.92968,1.2949219 1.0918,0.4570313 2.33594,0.4570313 1.24414,0 2.33594,-0.4570313 1.0918,-0.4824219 1.9043,-1.2949219 0.83789,-0.8378906 1.29492,-1.9296875 0.48242,-1.0917969 0.48242,-2.3359376 v -16.046875 q 0,-1.24414 -0.48242,-2.335937 -0.45703,-1.091797 -1.29492,-1.904297 -0.8125,-0.837891 -1.9043,-1.294922 -1.0918,-0.482422 -2.33594,-0.482422 z" /><path
               id="path115"
               style=""
               d="m 199.51611,-36.105469 h 4.01172 v 26.076172 q 0,1.2441407 0.45703,2.3359376 0.48243,1.0917969 1.29493,1.9296875 0.83789,0.8125 1.92968,1.2949219 1.0918,0.4570313 2.33594,0.4570313 1.24414,0 2.33594,-0.4570313 1.09179,-0.4824219 1.90429,-1.2949219 0.8379,-0.8378906 1.29493,-1.9296875 0.48242,-1.0917969 0.48242,-2.3359376 v -26.076172 h 4.01172 v 26.076172 q 0,2.0820314 -0.78711,3.9101564 -0.78711,1.828125 -2.15821,3.1992187 -1.3457,1.3457032 -3.17382,2.13281253 Q 211.62744,0 209.54541,0 q -2.08203,0 -3.91016,-0.78710937 -1.82812,-0.78710933 -3.19921,-2.13281253 -1.34571,-1.3710937 -2.13282,-3.1992187 -0.78711,-1.828125 -0.78711,-3.9101564 v -10.029297 z" /><path
               id="path117"
               style=""
               d="M 239.75977,-16.300781 Q 247.68164,-0.07617187 247.68164,0 h -4.5957 q -7.82032,-15.970703 -7.82032,-16.046875 h -3.80859 V 0 h -4.01172 v -36.105469 h 10.0293 q 2.08203,0 3.91016,0.78711 1.82812,0.787109 3.17382,2.158203 1.3711,1.345703 2.15821,3.173828 0.78711,1.828125 0.78711,3.910156 0,1.777344 -0.58399,3.376953 -0.58398,1.59961 -1.625,2.894532 -1.04101,1.294921 -2.46289,2.208984 -1.42187,0.914062 -3.07226,1.294922 z m -2.28516,-3.757813 q 1.24414,0 2.33594,-0.457031 1.09179,-0.482422 1.90429,-1.294922 0.83789,-0.83789 1.29493,-1.929687 0.48242,-1.091797 0.48242,-2.335938 0,-1.24414 -0.48242,-2.335937 -0.45704,-1.091797 -1.29493,-1.904297 -0.8125,-0.837891 -1.90429,-1.294922 -1.0918,-0.482422 -2.33594,-0.482422 h -6.01758 v 12.035156 z" /><path
               id="path119"
               style=""
               d="m 265.47998,-32.09375 q -1.29492,0 -2.41211,0.482422 -1.11719,0.457031 -1.92969,1.294922 -0.8125,0.8125 -1.29492,1.904297 -0.45703,1.091797 -0.45703,2.335937 v 16.046875 q 0,1.2441407 0.45703,2.3359376 0.48242,1.0917969 1.29492,1.9296875 0.8125,0.8125 1.92969,1.2949219 1.11719,0.4570313 2.41211,0.4570313 1.06641,0 2.00586,-0.2792969 0.93945,-0.3046875 1.70117,-0.8378906 0.78711,-0.5332032 1.3457,-1.2695313 0.58399,-0.7363281 0.88868,-1.625 h 4.01172 q -0.35547,1.7265625 -1.24415,3.1992188 -0.88867,1.4726562 -2.20898,2.5390624 -1.29492,1.0664063 -2.94531,1.6757813 Q 267.38428,0 265.47998,0 q -2.13281,0 -3.98633,-0.78710937 -1.82812,-0.78710933 -3.19922,-2.13281253 -1.37109,-1.3710937 -2.1582,-3.1992187 -0.76172,-1.828125 -0.76172,-3.9101564 v -16.046875 q 0,-2.082031 0.76172,-3.910156 0.78711,-1.828125 2.1582,-3.173828 1.3711,-1.371094 3.19922,-2.158203 1.85352,-0.78711 3.98633,-0.78711 1.9043,0 3.55469,0.609375 1.67578,0.609375 2.9707,1.701172 1.29492,1.066406 2.18359,2.539063 0.88868,1.472656 1.24415,3.173828 h -4.01172 q -0.30469,-0.863281 -0.88868,-1.59961 -0.55859,-0.736328 -1.32031,-1.269531 -0.76172,-0.533203 -1.72656,-0.83789 -0.93945,-0.304688 -2.00586,-0.304688 z" /><path
               id="path121"
               style=""
               d="m 283.30371,-36.105469 h 20.05859 v 4.011719 h -16.04687 v 12.035156 h 12.03516 v 4.011719 H 287.31543 V -4.0117187 H 303.3623 V 0 h -20.05859 z" /></g></g></g></g><g
       id="g40"><g
         id="g42"
         clip-path="url(#clipPath46)"><path
           d="M 111.1306,541.7754 H 514.4135 V 476.2246 H 111.1306 Z"
           style="fill:#f8ba00;fill-opacity:1;fill-rule:nonzero;stroke:none"
           id="path48" /></g></g><g
       id="g50"><g
         id="g52"
         clip-path="url(#clipPath56)"><g
           id="g58"
           transform="translate(271,490)"><g
             id="text62"
             style="font-variant:normal;font-weight:normal;font-size:52px;font-family:EnvyCodeR;-inkscape-font-specification:EnvyCodeR;writing-mode:lr-tb;fill:#000000;fill-opacity:1;fill-rule:nonzero;stroke:none"
             transform="scale(1,-1)"
             aria-label="HIR"><path
               id="path124"
               style=""
               d="m 4.0117187,-36.105469 h 4.0117188 v 16.046875 H 20.058594 v -16.046875 h 4.011718 V 0 H 20.058594 V -16.046875 H 8.0234375 V 0 H 4.0117187 Z" /><path
               id="path126"
               style=""
               d="m 31.940918,-4.0117187 h 8.023437 V -32.09375 h -8.023437 v -4.011719 h 20.058594 v 4.011719 h -8.023438 v 28.0820313 h 8.023438 V 0 H 31.940918 Z" /><path
               id="path128"
               style=""
               d="M 72.18457,-16.300781 Q 80.106445,-0.07617187 80.106445,0 H 75.510742 Q 67.69043,-15.970703 67.69043,-16.046875 H 63.881836 V 0 h -4.011719 v -36.105469 h 10.029297 q 2.082031,0 3.910156,0.78711 1.828125,0.787109 3.173828,2.158203 1.371094,1.345703 2.158204,3.173828 0.787109,1.828125 0.787109,3.910156 0,1.777344 -0.583984,3.376953 -0.583985,1.59961 -1.625,2.894532 -1.041016,1.294921 -2.462891,2.208984 -1.421875,0.914062 -3.072266,1.294922 z m -2.285156,-3.757813 q 1.244141,0 2.335938,-0.457031 1.091796,-0.482422 1.904296,-1.294922 0.837891,-0.83789 1.294922,-1.929687 0.482422,-1.091797 0.482422,-2.335938 0,-1.24414 -0.482422,-2.335937 -0.457031,-1.091797 -1.294922,-1.904297 -0.8125,-0.837891 -1.904296,-1.294922 -1.091797,-0.482422 -2.335938,-0.482422 h -6.017578 v 12.035156 z" /></g></g></g></g><g
       id="g64"><g
         id="g66"
         clip-path="url(#clipPath70)"><g
           id="g72"
           transform="matrix(0,-1,-1,0,312.772,602.5141)"><path
             d="m 0,0 h 15.23775 5.5"
             style="fill:none;stroke:#ee220c;stroke-width:11;stroke-linecap:butt;stroke-linejoin:miter;stroke-miterlimit:4;stroke-dasharray:none;stroke-opacity:1"
             id="path74" /></g><path
           d="m 291.772,587.2764 21,-42 21,42 z"
           style="fill:#ee220c;fill-opacity:1;fill-rule:nonzero;stroke:none"
           id="path76" /><g
           id="g78"
           transform="translate(562,582)"><g
             id="text82"
             style="font-variant:normal;font-weight:bold;font-size:39px;font-family:HelveticaNeue;-inkscape-font-specification:HelveticaNeue-Bold;writing-mode:lr-tb;fill:#ffffff;fill-opacity:1;fill-rule:nonzero;stroke:none"
             transform="scale(1,-1)"
             aria-label="Parsing"><path
               id="path131"
               style=""
               d="m 8.814,-14.742 v -8.346 h 4.758 q 1.053,0 2.028,0.156 0.975,0.156 1.716,0.624 0.741,0.429 1.17,1.248 0.468,0.819 0.468,2.145 0,1.326 -0.468,2.145 -0.429,0.819 -1.17,1.287 -0.741,0.429 -1.716,0.585 -0.975,0.156 -2.028,0.156 z M 2.691,-27.846 V 0 h 6.123 v -9.984 h 6.435 q 2.613,0 4.446,-0.741 1.833,-0.78 2.964,-2.028 1.17,-1.248 1.677,-2.847 0.546,-1.638 0.546,-3.315 0,-1.716 -0.546,-3.315 -0.507,-1.599 -1.677,-2.847 -1.131,-1.248 -2.964,-1.989 -1.833,-0.78 -4.446,-0.78 z" /><path
               id="path133"
               style=""
               d="m 27.885,-13.962 q 0.117,-1.95 0.975,-3.237 0.858,-1.287 2.184,-2.067 1.326,-0.78 2.964,-1.092 1.677,-0.351 3.354,-0.351 1.521,0 3.081,0.234 1.56,0.195 2.847,0.819 1.287,0.624 2.106,1.755 0.819,1.092 0.819,2.925 v 10.491 q 0,1.365 0.156,2.613 0.156,1.248 0.546,1.872 h -5.616 q -0.156,-0.468 -0.273,-0.936 -0.078,-0.507 -0.117,-1.014 -1.326,1.365 -3.12,1.911 -1.794,0.546 -3.666,0.546 -1.443,0 -2.691,-0.351 -1.248,-0.351 -2.184,-1.092 -0.936,-0.741 -1.482,-1.872 -0.507,-1.131 -0.507,-2.691 0,-1.716 0.585,-2.808 0.624,-1.131 1.56,-1.794 0.975,-0.663 2.184,-0.975 1.248,-0.351 2.496,-0.546 1.248,-0.195 2.457,-0.312 1.209,-0.117 2.145,-0.351 0.936,-0.234 1.482,-0.663 0.546,-0.468 0.507,-1.326 0,-0.897 -0.312,-1.404 -0.273,-0.546 -0.78,-0.819 -0.468,-0.312 -1.131,-0.39 -0.624,-0.117 -1.365,-0.117 -1.638,0 -2.574,0.702 -0.936,0.702 -1.092,2.34 z m 12.792,4.095 q -0.351,0.312 -0.897,0.507 -0.507,0.156 -1.131,0.273 -0.585,0.117 -1.248,0.195 -0.663,0.078 -1.326,0.195 -0.624,0.117 -1.248,0.312 -0.585,0.195 -1.053,0.546 -0.429,0.312 -0.702,0.819 -0.273,0.507 -0.273,1.287 0,0.741 0.273,1.248 0.273,0.507 0.741,0.819 0.468,0.273 1.092,0.39 0.624,0.117 1.287,0.117 1.638,0 2.535,-0.546 0.897,-0.546 1.326,-1.287 0.429,-0.78 0.507,-1.56 0.117,-0.78 0.117,-1.248 z" /><path
               id="path135"
               style=""
               d="M 50.504998,-20.163 V 0 h 5.538 v -9.087 q 0,-1.365 0.273,-2.535 0.273,-1.17 0.897,-2.028 0.663,-0.897 1.716,-1.404 1.053,-0.507 2.574,-0.507 0.507,0 1.053,0.078 0.546,0.039 0.936,0.117 v -5.148 q -0.663,-0.195 -1.209,-0.195 -1.053,0 -2.028,0.312 -0.975,0.312 -1.833,0.897 -0.858,0.546 -1.521,1.365 -0.663,0.78 -1.053,1.716 h -0.078 v -3.744 z" /><path
               id="path137"
               style=""
               d="m 69.966,-6.552 h -5.265 q 0.078,2.028 0.897,3.393 0.858,1.326 2.145,2.145 1.326,0.819 3.003,1.17 1.677,0.351 3.432,0.351 1.716,0 3.354,-0.351 1.677,-0.312 2.964,-1.131 1.287,-0.819 2.067,-2.145 0.819,-1.365 0.819,-3.354 0,-1.404 -0.546,-2.34 -0.546,-0.975 -1.443,-1.599 -0.897,-0.663 -2.067,-1.053 -1.131,-0.39 -2.34,-0.663 -1.17,-0.273 -2.301,-0.507 -1.131,-0.234 -2.028,-0.507 -0.858,-0.312 -1.404,-0.78 -0.546,-0.468 -0.546,-1.209 0,-0.624 0.312,-0.975 0.312,-0.39 0.741,-0.585 0.468,-0.195 1.014,-0.234 0.546,-0.078 1.014,-0.078 1.482,0 2.574,0.585 1.092,0.546 1.209,2.145 h 5.265 q -0.156,-1.872 -0.975,-3.081 -0.78,-1.248 -1.989,-1.989 -1.209,-0.741 -2.769,-1.053 -1.521,-0.312 -3.159,-0.312 -1.638,0 -3.198,0.312 -1.56,0.273 -2.808,1.014 -1.248,0.702 -2.028,1.95 -0.741,1.248 -0.741,3.198 0,1.326 0.546,2.262 0.546,0.897 1.443,1.521 0.897,0.585 2.028,0.975 1.17,0.351 2.379,0.624 2.964,0.624 4.602,1.248 1.677,0.624 1.677,1.872 0,0.741 -0.351,1.248 -0.351,0.468 -0.897,0.78 -0.507,0.273 -1.17,0.429 -0.624,0.117 -1.209,0.117 -0.819,0 -1.599,-0.195 -0.741,-0.195 -1.326,-0.585 -0.585,-0.429 -0.975,-1.053 -0.351,-0.663 -0.351,-1.56 z" /><path
               id="path139"
               style=""
               d="m 92.313,-23.283 v -4.563 h -5.538 v 4.563 z m -5.538,3.12 V 0 h 5.538 v -20.163 z" /><path
               id="path141"
               style=""
               d="M 96.680997,-20.163 V 0 H 102.219 v -10.569 q 0,-3.081 1.014,-4.407 1.014,-1.365 3.276,-1.365 1.989,0 2.769,1.248 0.78,1.209 0.78,3.705 V 0 h 5.538 v -12.402 q 0,-1.872 -0.351,-3.393 -0.312,-1.56 -1.131,-2.613 -0.819,-1.092 -2.262,-1.677 -1.404,-0.624 -3.627,-0.624 -1.755,0 -3.432,0.819 -1.677,0.78 -2.73,2.535 h -0.117 v -2.808 z" /><path
               id="path143"
               style=""
               d="m 129.207,-4.758 q -1.287,0 -2.145,-0.546 -0.858,-0.546 -1.404,-1.404 -0.507,-0.858 -0.741,-1.911 -0.195,-1.092 -0.195,-2.184 0,-1.131 0.234,-2.145 0.273,-1.053 0.819,-1.833 0.585,-0.819 1.404,-1.287 0.858,-0.468 2.028,-0.468 1.365,0 2.262,0.507 0.897,0.507 1.443,1.365 0.546,0.858 0.78,1.989 0.234,1.092 0.234,2.34 0,1.092 -0.312,2.106 -0.273,0.975 -0.858,1.755 -0.585,0.78 -1.482,1.248 -0.897,0.468 -2.067,0.468 z m 9.984,3.471 v -18.876 h -5.265 v 2.691 h -0.078 q -1.014,-1.755 -2.535,-2.496 -1.482,-0.741 -3.471,-0.741 -2.106,0 -3.744,0.819 -1.599,0.819 -2.691,2.223 -1.092,1.365 -1.677,3.198 -0.546,1.794 -0.546,3.744 0,2.067 0.468,3.939 0.507,1.833 1.56,3.237 1.053,1.365 2.691,2.184 1.638,0.78 3.9,0.78 1.833,0 3.471,-0.741 1.677,-0.78 2.574,-2.379 h 0.078 v 2.652 q 0.039,2.145 -1.053,3.549 -1.053,1.404 -3.393,1.404 -1.482,0 -2.613,-0.624 -1.131,-0.585 -1.521,-2.145 h -5.499 q 0.117,1.716 0.936,2.925 0.858,1.248 2.106,2.028 1.287,0.78 2.808,1.131 1.56,0.39 3.042,0.39 3.471,0 5.538,-0.936 2.067,-0.936 3.159,-2.301 1.092,-1.326 1.404,-2.886 0.351,-1.56 0.351,-2.769 z" /></g></g><g
           id="g88"
           transform="translate(562,535)"><g
             id="text92"
             style="font-variant:normal;font-weight:bold;font-size:39px;font-family:HelveticaNeue;-inkscape-font-specification:HelveticaNeue-Bold;writing-mode:lr-tb;fill:#fadd09;fill-opacity:1;fill-rule:nonzero;stroke:none"
             transform="scale(1,-1)"
             aria-label="Desugaring"><path
               id="path147"
               style=""
               d="m 8.814,-5.148 v -17.55 h 4.368 q 2.262,0 3.783,0.663 1.56,0.624 2.496,1.833 0.936,1.209 1.326,2.925 0.429,1.677 0.429,3.783 0,2.301 -0.585,3.9 -0.585,1.599 -1.56,2.613 -0.975,0.975 -2.223,1.404 -1.248,0.429 -2.574,0.429 z M 2.691,-27.846 V 0 h 12.012 q 3.198,0 5.538,-1.053 2.379,-1.092 3.939,-2.964 1.599,-1.872 2.379,-4.446 0.78,-2.574 0.78,-5.616 0,-3.471 -0.975,-6.045 -0.936,-2.574 -2.652,-4.29 -1.677,-1.716 -4.017,-2.574 -2.301,-0.858 -4.992,-0.858 z" /><path
               id="path149"
               style=""
               d="m 44.577,-12.246 h -9.009 q 0.039,-0.585 0.234,-1.326 0.234,-0.741 0.741,-1.404 0.546,-0.663 1.404,-1.092 0.897,-0.468 2.223,-0.468 2.028,0 3.003,1.092 1.014,1.092 1.404,3.198 z m -9.009,3.51 h 14.547 q 0.156,-2.34 -0.39,-4.485 -0.546,-2.145 -1.794,-3.822 -1.209,-1.677 -3.12,-2.652 -1.911,-1.014 -4.485,-1.014 -2.301,0 -4.212,0.819 -1.872,0.819 -3.237,2.262 -1.365,1.404 -2.106,3.354 -0.741,1.95 -0.741,4.212 0,2.34 0.702,4.29 0.741,1.95 2.067,3.354 1.326,1.404 3.237,2.184 1.911,0.741 4.29,0.741 3.432,0 5.85,-1.56 2.418,-1.56 3.588,-5.187 h -4.875 q -0.273,0.936 -1.482,1.794 -1.209,0.819 -2.886,0.819 -2.34,0 -3.588,-1.209 -1.248,-1.209 -1.365,-3.9 z" /><path
               id="path151"
               style=""
               d="m 57.681,-6.552 h -5.265 q 0.078,2.028 0.897,3.393 0.858,1.326 2.145,2.145 1.326,0.819 3.003,1.17 1.677,0.351 3.432,0.351 1.716,0 3.354,-0.351 1.677,-0.312 2.964,-1.131 1.287,-0.819 2.067,-2.145 0.819,-1.365 0.819,-3.354 0,-1.404 -0.546,-2.34 -0.546,-0.975 -1.443,-1.599 -0.897,-0.663 -2.067,-1.053 -1.131,-0.39 -2.34,-0.663 -1.17,-0.273 -2.301,-0.507 -1.131,-0.234 -2.028,-0.507 -0.858,-0.312 -1.404,-0.78 -0.546,-0.468 -0.546,-1.209 0,-0.624 0.312,-0.975 0.312,-0.39 0.741,-0.585 0.468,-0.195 1.014,-0.234 0.546,-0.078 1.014,-0.078 1.482,0 2.574,0.585 1.092,0.546 1.209,2.145 h 5.265 q -0.156,-1.872 -0.975,-3.081 -0.78,-1.248 -1.989,-1.989 -1.209,-0.741 -2.769,-1.053 -1.521,-0.312 -3.159,-0.312 -1.638,0 -3.198,0.312 -1.56,0.273 -2.808,1.014 -1.248,0.702 -2.028,1.95 -0.741,1.248 -0.741,3.198 0,1.326 0.546,2.262 0.546,0.897 1.443,1.521 0.897,0.585 2.028,0.975 1.17,0.351 2.379,0.624 2.964,0.624 4.602,1.248 1.677,0.624 1.677,1.872 0,0.741 -0.351,1.248 -0.351,0.468 -0.897,0.78 -0.507,0.273 -1.17,0.429 -0.624,0.117 -1.209,0.117 -0.819,0 -1.599,-0.195 -0.741,-0.195 -1.326,-0.585 -0.585,-0.429 -0.975,-1.053 -0.351,-0.663 -0.351,-1.56 z" /><path
               id="path153"
               style=""
               d="m 93.248997,0 v -20.163 h -5.538 v 10.569 q 0,3.081 -1.014,4.446 -1.014,1.326 -3.276,1.326 -1.989,0 -2.769,-1.209 -0.78,-1.248 -0.78,-3.744 v -11.388 h -5.538 v 12.402 q 0,1.872 0.312,3.432 0.351,1.521 1.17,2.613 0.819,1.053 2.223,1.638 1.443,0.585 3.666,0.585 1.755,0 3.432,-0.78 1.677,-0.78 2.73,-2.535 h 0.117 V 0 Z" /><path
               id="path155"
               style=""
               d="m 106.86,-4.758 q -1.287,0 -2.145,-0.546 -0.858,-0.546 -1.404,-1.404 -0.507,-0.858 -0.741,-1.911 -0.195,-1.092 -0.195,-2.184 0,-1.131 0.234,-2.145 0.273,-1.053 0.819,-1.833 0.585,-0.819 1.404,-1.287 0.858,-0.468 2.028,-0.468 1.365,0 2.262,0.507 0.897,0.507 1.443,1.365 0.546,0.858 0.78,1.989 0.234,1.092 0.234,2.34 0,1.092 -0.312,2.106 -0.273,0.975 -0.858,1.755 -0.585,0.78 -1.482,1.248 -0.897,0.468 -2.067,0.468 z m 9.984,3.471 v -18.876 h -5.265 v 2.691 h -0.078 q -1.014,-1.755 -2.535,-2.496 -1.482,-0.741 -3.471,-0.741 -2.106,0 -3.744,0.819 -1.599,0.819 -2.690997,2.223 -1.092,1.365 -1.677,3.198 -0.546,1.794 -0.546,3.744 0,2.067 0.468,3.939 0.507,1.833 1.56,3.237 1.053,1.365 2.690997,2.184 1.638,0.78 3.9,0.78 1.833,0 3.471,-0.741 1.677,-0.78 2.574,-2.379 h 0.078 v 2.652 q 0.039,2.145 -1.053,3.549 -1.053,1.404 -3.393,1.404 -1.482,0 -2.613,-0.624 -1.131,-0.585 -1.521,-2.145 h -5.498997 q 0.117,1.716 0.936,2.925 0.858,1.248 2.105997,2.028 1.287,0.78 2.808,1.131 1.56,0.39 3.042,0.39 3.471,0 5.538,-0.936 2.067,-0.936 3.159,-2.301 1.092,-1.326 1.404,-2.886 0.351,-1.56 0.351,-2.769 z" /><path
               id="path157"
               style=""
               d="m 121.056,-13.962 q 0.117,-1.95 0.975,-3.237 0.858,-1.287 2.184,-2.067 1.326,-0.78 2.964,-1.092 1.677,-0.351 3.354,-0.351 1.521,0 3.081,0.234 1.56,0.195 2.847,0.819 1.287,0.624 2.106,1.755 0.819,1.092 0.819,2.925 v 10.491 q 0,1.365 0.156,2.613 0.156,1.248 0.546,1.872 h -5.616 q -0.156,-0.468 -0.273,-0.936 -0.078,-0.507 -0.117,-1.014 -1.326,1.365 -3.12,1.911 -1.794,0.546 -3.666,0.546 -1.443,0 -2.691,-0.351 -1.248,-0.351 -2.184,-1.092 -0.936,-0.741 -1.482,-1.872 -0.507,-1.131 -0.507,-2.691 0,-1.716 0.585,-2.808 0.624,-1.131 1.56,-1.794 0.975,-0.663 2.184,-0.975 1.248,-0.351 2.496,-0.546 1.248,-0.195 2.457,-0.312 1.209,-0.117 2.145,-0.351 0.936,-0.234 1.482,-0.663 0.546,-0.468 0.507,-1.326 0,-0.897 -0.312,-1.404 -0.273,-0.546 -0.78,-0.819 -0.468,-0.312 -1.131,-0.39 -0.624,-0.117 -1.365,-0.117 -1.638,0 -2.574,0.702 -0.936,0.702 -1.092,2.34 z m 12.792,4.095 q -0.351,0.312 -0.897,0.507 -0.507,0.156 -1.131,0.273 -0.585,0.117 -1.248,0.195 -0.663,0.078 -1.326,0.195 -0.624,0.117 -1.248,0.312 -0.585,0.195 -1.053,0.546 -0.429,0.312 -0.702,0.819 -0.273,0.507 -0.273,1.287 0,0.741 0.273,1.248 0.273,0.507 0.741,0.819 0.468,0.273 1.092,0.39 0.624,0.117 1.287,0.117 1.638,0 2.535,-0.546 0.897,-0.546 1.326,-1.287 0.429,-0.78 0.507,-1.56 0.117,-0.78 0.117,-1.248 z" /><path
               id="path159"
               style=""
               d="M 143.67601,-20.163 V 0 h 5.538 v -9.087 q 0,-1.365 0.273,-2.535 0.273,-1.17 0.897,-2.028 0.663,-0.897 1.716,-1.404 1.053,-0.507 2.574,-0.507 0.507,0 1.053,0.078 0.546,0.039 0.936,0.117 v -5.148 q -0.663,-0.195 -1.209,-0.195 -1.053,0 -2.028,0.312 -0.975,0.312 -1.833,0.897 -0.858,0.546 -1.521,1.365 -0.663,0.78 -1.053,1.716 h -0.078 v -3.744 z" /><path
               id="path161"
               style=""
               d="m 164.541,-23.283 v -4.563 h -5.538 v 4.563 z m -5.538,3.12 V 0 h 5.538 v -20.163 z" /><path
               id="path163"
               style=""
               d="M 168.90899,-20.163 V 0 h 5.538 v -10.569 q 0,-3.081 1.014,-4.407 1.014,-1.365 3.276,-1.365 1.989,0 2.769,1.248 0.78,1.209 0.78,3.705 V 0 h 5.538 v -12.402 q 0,-1.872 -0.351,-3.393 -0.312,-1.56 -1.131,-2.613 -0.819,-1.092 -2.262,-1.677 -1.404,-0.624 -3.627,-0.624 -1.755,0 -3.432,0.819 -1.677,0.78 -2.73,2.535 h -0.117 v -2.808 z" /><path
               id="path165"
               style=""
               d="m 201.43499,-4.758 q -1.287,0 -2.145,-0.546 -0.858,-0.546 -1.404,-1.404 -0.507,-0.858 -0.741,-1.911 -0.195,-1.092 -0.195,-2.184 0,-1.131 0.234,-2.145 0.273,-1.053 0.819,-1.833 0.585,-0.819 1.404,-1.287 0.858,-0.468 2.028,-0.468 1.365,0 2.262,0.507 0.897,0.507 1.443,1.365 0.546,0.858 0.78,1.989 0.234,1.092 0.234,2.34 0,1.092 -0.312,2.106 -0.273,0.975 -0.858,1.755 -0.585,0.78 -1.482,1.248 -0.897,0.468 -2.067,0.468 z m 9.984,3.471 v -18.876 h -5.265 v 2.691 h -0.078 q -1.014,-1.755 -2.535,-2.496 -1.482,-0.741 -3.471,-0.741 -2.106,0 -3.744,0.819 -1.599,0.819 -2.691,2.223 -1.092,1.365 -1.677,3.198 -0.546,1.794 -0.546,3.744 0,2.067 0.468,3.939 0.507,1.833 1.56,3.237 1.053,1.365 2.691,2.184 1.638,0.78 3.9,0.78 1.833,0 3.471,-0.741 1.677,-0.78 2.574,-2.379 h 0.078 v 2.652 q 0.039,2.145 -1.053,3.549 -1.053,1.404 -3.393,1.404 -1.482,0 -2.613,-0.624 -1.131,-0.585 -1.521,-2.145 h -5.499 q 0.117,1.716 0.936,2.925 0.858,1.248 2.106,2.028 1.287,0.78 2.808,1.131 1.56,0.39 3.042,0.39 3.471,0 5.538,-0.936 2.067,-0.936 3.159,-2.301 1.092,-1.326 1.404,-2.886 0.351,-1.56 0.351,-2.769 z" /></g></g><path
           d="M 111.1306,411.9849 H 514.4135 V 346.4341 H 111.1306 Z"
           style="fill:#f8ba00;fill-opacity:1;fill-rule:nonzero;stroke:none"
           id="path94" /></g></g><g
       id="g96"><g
         id="g98"
         clip-path="url(#clipPath102)"><g
           id="g104"
           transform="translate(271,360)"><g
             id="text108"
             style="font-variant:normal;font-weight:normal;font-size:52px;font-family:EnvyCodeR;-inkscape-font-specification:EnvyCodeR;writing-mode:lr-tb;fill:#000000;fill-opacity:1;fill-rule:nonzero;stroke:none"
             transform="scale(1,-1)"
             aria-label="MIR"><path
               id="path169"
               style=""
               d="M 20.058594,-28.082031 14.041016,-17.570312 8.0234375,-28.082031 V 0 H 4.0117187 v -36.105469 h 4.0117188 l 6.0175785,12.035157 6.017578,-12.035157 h 4.011718 V 0 h -4.011718 z" /><path
               id="path171"
               style=""
               d="m 31.940918,-4.0117187 h 8.023437 V -32.09375 h -8.023437 v -4.011719 h 20.058594 v 4.011719 h -8.023438 v 28.0820313 h 8.023438 V 0 H 31.940918 Z" /><path
               id="path173"
               style=""
               d="M 72.18457,-16.300781 Q 80.106445,-0.07617187 80.106445,0 H 75.510742 Q 67.69043,-15.970703 67.69043,-16.046875 H 63.881836 V 0 h -4.011719 v -36.105469 h 10.029297 q 2.082031,0 3.910156,0.78711 1.828125,0.787109 3.173828,2.158203 1.371094,1.345703 2.158204,3.173828 0.787109,1.828125 0.787109,3.910156 0,1.777344 -0.583984,3.376953 -0.583985,1.59961 -1.625,2.894532 -1.041016,1.294921 -2.462891,2.208984 -1.421875,0.914062 -3.072266,1.294922 z m -2.285156,-3.757813 q 1.244141,0 2.335938,-0.457031 1.091796,-0.482422 1.904296,-1.294922 0.837891,-0.83789 1.294922,-1.929687 0.482422,-1.091797 0.482422,-2.335938 0,-1.24414 -0.482422,-2.335937 -0.457031,-1.091797 -1.294922,-1.904297 -0.8125,-0.837891 -1.904296,-1.294922 -1.091797,-0.482422 -2.335938,-0.482422 h -6.017578 v 12.035156 z" /></g></g></g></g><g
       id="g110"><g
         id="g112"
         clip-path="url(#clipPath116)"><g
           id="g118"
           transform="matrix(0,-1,-1,0,312.772,472.7236)"><path
             d="m 0,0 h 15.23775 5.5"
             style="fill:none;stroke:#ee220c;stroke-width:11;stroke-linecap:butt;stroke-linejoin:miter;stroke-miterlimit:4;stroke-dasharray:none;stroke-opacity:1"
             id="path120" /></g><path
           d="m 291.772,457.4859 21,-42 21,42 z"
           style="fill:#ee220c;fill-opacity:1;fill-rule:nonzero;stroke:none"
           id="path122" /><g
           id="g124"
           transform="translate(562,453)"><g
             id="text128"
             style="font-variant:normal;font-weight:bold;font-size:39px;font-family:HelveticaNeue;-inkscape-font-specification:HelveticaNeue-Bold;writing-mode:lr-tb;fill:#ffffff;fill-opacity:1;fill-rule:nonzero;stroke:none"
             transform="scale(1,-1)"
             aria-label="Borrow-checking"><path
               id="path177"
               style=""
               d="m 8.814,-16.575 v -6.513 h 5.733 q 0.819,0 1.56,0.156 0.78,0.117 1.365,0.468 0.585,0.351 0.936,0.975 0.351,0.624 0.351,1.599 0,1.755 -1.053,2.535 -1.053,0.78 -2.691,0.78 z M 2.691,-27.846 V 0 h 13.494 q 1.872,0 3.627,-0.468 1.794,-0.468 3.159,-1.443 1.404,-0.975 2.223,-2.496 0.819,-1.56 0.819,-3.666 0,-2.613 -1.287,-4.446 -1.248,-1.872 -3.822,-2.613 1.872,-0.897 2.808,-2.301 0.975,-1.404 0.975,-3.51 0,-1.95 -0.663,-3.276 -0.624,-1.326 -1.794,-2.106 -1.17,-0.819 -2.808,-1.17 -1.638,-0.351 -3.627,-0.351 z m 6.123,23.088 v -7.644 h 6.669 q 1.989,0 3.198,0.936 1.209,0.897 1.209,3.042 0,1.092 -0.39,1.794 -0.351,0.702 -0.975,1.131 -0.624,0.39 -1.443,0.585 -0.819,0.156 -1.716,0.156 z" /><path
               id="path179"
               style=""
               d="m 34.475999,-10.062 q 0,-1.209 0.234,-2.379 0.234,-1.17 0.78,-2.067 0.585,-0.897 1.521,-1.443 0.936,-0.585 2.34,-0.585 1.404,0 2.34,0.585 0.975,0.546 1.521,1.443 0.585,0.897 0.819,2.067 0.234,1.17 0.234,2.379 0,1.209 -0.234,2.379 -0.234,1.131 -0.819,2.067 -0.546,0.897 -1.521,1.443 -0.936,0.546 -2.34,0.546 -1.404,0 -2.34,-0.546 -0.936,-0.546 -1.521,-1.443 -0.546,-0.936 -0.78,-2.067 -0.234,-1.17 -0.234,-2.379 z m -5.538,0 q 0,2.418 0.741,4.368 0.741,1.95 2.106,3.354 1.365,1.365 3.276,2.106 1.911,0.741 4.29,0.741 2.379,0 4.29,-0.741 1.95,-0.741 3.315,-2.106 1.365,-1.404 2.106,-3.354 0.741,-1.95 0.741,-4.368 0,-2.418 -0.741,-4.368 -0.741,-1.989 -2.106,-3.354 -1.365,-1.404 -3.315,-2.145 -1.911,-0.78 -4.29,-0.78 -2.379,0 -4.29,0.78 -1.911,0.741 -3.276,2.145 -1.365,1.365 -2.106,3.354 -0.741,1.95 -0.741,4.368 z" /><path
               id="path181"
               style=""
               d="M 53.391,-20.163 V 0 h 5.538 v -9.087 q 0,-1.365 0.273,-2.535 0.273,-1.17 0.897,-2.028 0.663,-0.897 1.716,-1.404 1.053,-0.507 2.574,-0.507 0.507,0 1.053,0.078 0.546,0.039 0.936,0.117 v -5.148 q -0.663,-0.195 -1.209,-0.195 -1.053,0 -2.028,0.312 -0.975,0.312 -1.833,0.897 -0.858,0.546 -1.521,1.365 -0.663,0.78 -1.053,1.716 h -0.078 v -3.744 z" /><path
               id="path183"
               style=""
               d="M 68.562001,-20.163 V 0 h 5.538 v -9.087 q 0,-1.365 0.273,-2.535 0.273,-1.17 0.897,-2.028 0.663,-0.897 1.716,-1.404 1.053,-0.507 2.574,-0.507 0.507,0 1.053,0.078 0.546,0.039 0.936,0.117 v -5.148 q -0.663,-0.195 -1.209,-0.195 -1.053,0 -2.028,0.312 -0.975,0.312 -1.833,0.897 -0.858,0.546 -1.521,1.365 -0.663,0.78 -1.053,1.716 h -0.078 v -3.744 z" /><path
               id="path185"
               style=""
               d="m 87.945003,-10.062 q 0,-1.209 0.234,-2.379 0.234,-1.17 0.78,-2.067 0.585,-0.897 1.521,-1.443 0.936,-0.585 2.34,-0.585 1.404,0 2.34,0.585 0.975,0.546 1.521,1.443 0.585,0.897 0.819,2.067 0.234,1.17 0.234,2.379 0,1.209 -0.234,2.379 -0.234,1.131 -0.819,2.067 -0.546,0.897 -1.521,1.443 -0.936,0.546 -2.34,0.546 -1.404,0 -2.34,-0.546 -0.936,-0.546 -1.521,-1.443 -0.546,-0.936 -0.78,-2.067 -0.234,-1.17 -0.234,-2.379 z m -5.538,0 q 0,2.418 0.741,4.368 0.741,1.95 2.106,3.354 1.365,1.365 3.276,2.106 1.911,0.741 4.29,0.741 2.379,0 4.29,-0.741 1.95,-0.741 3.314997,-2.106 1.365,-1.404 2.106,-3.354 0.741,-1.95 0.741,-4.368 0,-2.418 -0.741,-4.368 -0.741,-1.989 -2.106,-3.354 -1.364997,-1.404 -3.314997,-2.145 -1.911,-0.78 -4.29,-0.78 -2.379,0 -4.29,0.78 -1.911,0.741 -3.276,2.145 -1.365,1.365 -2.106,3.354 -0.741,1.95 -0.741,4.368 z" /><path
               id="path187"
               style=""
               d="m 129.909,0 6.357,-20.163 h -5.694 l -3.705,13.65 h -0.078 l -3.432,-13.65 h -5.382 l -3.354,13.689 h -0.078 l -3.705,-13.689 h -5.85 L 111.384,0 h 5.733 l 3.432,-13.533 h 0.078 L 124.215,0 Z" /><path
               id="path189"
               style=""
               d="m 138.567,-13.026 v 4.758 h 11.739 v -4.758 z" /><path
               id="path191"
               style=""
               d="m 168.207,-13.065 h 5.421 q -0.117,-1.95 -0.936,-3.354 -0.819,-1.443 -2.145,-2.379 -1.287,-0.975 -2.964,-1.443 -1.638,-0.468 -3.432,-0.468 -2.457,0 -4.368,0.819 -1.911,0.819 -3.237,2.301 -1.326,1.443 -2.028,3.471 -0.663,1.989 -0.663,4.329 0,2.262 0.741,4.173 0.741,1.872 2.067,3.237 1.326,1.365 3.198,2.145 1.911,0.741 4.173,0.741 4.017,0 6.591,-2.106 2.574,-2.106 3.12,-6.123 h -5.343 q -0.273,1.872 -1.365,3.003 -1.053,1.092 -3.042,1.092 -1.287,0 -2.184,-0.585 -0.897,-0.585 -1.443,-1.482 -0.507,-0.936 -0.741,-2.067 -0.234,-1.131 -0.234,-2.223 0,-1.131 0.234,-2.262 0.234,-1.17 0.78,-2.106 0.585,-0.975 1.482,-1.56 0.897,-0.624 2.223,-0.624 3.549,0 4.095,3.471 z" /><path
               id="path193"
               style=""
               d="M 176.865,-27.846 V 0 h 5.538 v -10.569 q 0,-3.081 1.014,-4.407 1.014,-1.365 3.276,-1.365 1.989,0 2.769,1.248 0.78,1.209 0.78,3.705 V 0 h 5.538 v -12.402 q 0,-1.872 -0.351,-3.393 -0.312,-1.56 -1.131,-2.613 -0.819,-1.092 -2.262,-1.677 -1.404,-0.624 -3.627,-0.624 -1.56,0 -3.198,0.819 -1.638,0.78 -2.691,2.535 h -0.117 v -10.491 z" /><path
               id="path195"
               style=""
               d="m 213.564,-12.246 h -9.009 q 0.039,-0.585 0.234,-1.326 0.234,-0.741 0.741,-1.404 0.546,-0.663 1.404,-1.092 0.897,-0.468 2.223,-0.468 2.028,0 3.003,1.092 1.014,1.092 1.404,3.198 z m -9.009,3.51 h 14.547 q 0.156,-2.34 -0.39,-4.485 -0.546,-2.145 -1.794,-3.822 -1.209,-1.677 -3.12,-2.652 -1.911,-1.014 -4.485,-1.014 -2.301,0 -4.212,0.819 -1.872,0.819 -3.237,2.262 -1.365,1.404 -2.106,3.354 -0.741,1.95 -0.741,4.212 0,2.34 0.702,4.29 0.741,1.95 2.067,3.354 1.326,1.404 3.237,2.184 1.911,0.741 4.29,0.741 3.432,0 5.85,-1.56 2.418,-1.56 3.588,-5.187 h -4.875 q -0.273,0.936 -1.482,1.794 -1.209,0.819 -2.886,0.819 -2.34,0 -3.588,-1.209 -1.248,-1.209 -1.365,-3.9 z" /><path
               id="path197"
               style=""
               d="m 236.106,-13.065 h 5.421 q -0.117,-1.95 -0.936,-3.354 -0.819,-1.443 -2.145,-2.379 -1.287,-0.975 -2.964,-1.443 -1.638,-0.468 -3.432,-0.468 -2.457,0 -4.368,0.819 -1.911,0.819 -3.237,2.301 -1.326,1.443 -2.028,3.471 -0.663,1.989 -0.663,4.329 0,2.262 0.741,4.173 0.741,1.872 2.067,3.237 1.326,1.365 3.198,2.145 1.911,0.741 4.173,0.741 4.017,0 6.591,-2.106 2.574,-2.106 3.12,-6.123 h -5.343 q -0.273,1.872 -1.365,3.003 -1.053,1.092 -3.042,1.092 -1.287,0 -2.184,-0.585 -0.897,-0.585 -1.443,-1.482 -0.507,-0.936 -0.741,-2.067 -0.234,-1.131 -0.234,-2.223 0,-1.131 0.234,-2.262 0.234,-1.17 0.78,-2.106 0.585,-0.975 1.482,-1.56 0.897,-0.624 2.223,-0.624 3.549,0 4.095,3.471 z" /><path
               id="path199"
               style=""
               d="M 245.271,-27.846 V 0 h 5.538 v -6.942 l 2.145,-2.067 5.538,9.009 h 6.708 l -8.463,-12.753 7.605,-7.41 h -6.552 l -6.981,7.254 v -14.937 z" /><path
               id="path201"
               style=""
               d="m 272.84401,-23.283 v -4.563 h -5.538 v 4.563 z m -5.538,3.12 V 0 h 5.538 v -20.163 z" /><path
               id="path203"
               style=""
               d="M 277.21199,-20.163 V 0 h 5.538 v -10.569 q 0,-3.081 1.014,-4.407 1.014,-1.365 3.276,-1.365 1.989,0 2.769,1.248 0.78,1.209 0.78,3.705 V 0 h 5.538 v -12.402 q 0,-1.872 -0.351,-3.393 -0.312,-1.56 -1.131,-2.613 -0.819,-1.092 -2.262,-1.677 -1.404,-0.624 -3.627,-0.624 -1.755,0 -3.432,0.819 -1.677,0.78 -2.73,2.535 h -0.117 v -2.808 z" /><path
               id="path205"
               style=""
               d="m 309.738,-4.758 q -1.287,0 -2.145,-0.546 -0.858,-0.546 -1.404,-1.404 -0.507,-0.858 -0.741,-1.911 -0.195,-1.092 -0.195,-2.184 0,-1.131 0.234,-2.145 0.273,-1.053 0.819,-1.833 0.585,-0.819 1.404,-1.287 0.858,-0.468 2.028,-0.468 1.365,0 2.262,0.507 0.897,0.507 1.443,1.365 0.546,0.858 0.78,1.989 0.234,1.092 0.234,2.34 0,1.092 -0.312,2.106 -0.273,0.975 -0.858,1.755 -0.585,0.78 -1.482,1.248 -0.897,0.468 -2.067,0.468 z m 9.984,3.471 v -18.876 h -5.265 v 2.691 h -0.078 q -1.014,-1.755 -2.535,-2.496 -1.482,-0.741 -3.471,-0.741 -2.106,0 -3.744,0.819 -1.599,0.819 -2.691,2.223 -1.092,1.365 -1.677,3.198 -0.546,1.794 -0.546,3.744 0,2.067 0.468,3.939 0.507,1.833 1.56,3.237 1.053,1.365 2.691,2.184 1.638,0.78 3.9,0.78 1.833,0 3.471,-0.741 1.677,-0.78 2.574,-2.379 h 0.078 v 2.652 q 0.039,2.145 -1.053,3.549 -1.053,1.404 -3.393,1.404 -1.482,0 -2.613,-0.624 -1.131,-0.585 -1.521,-2.145 h -5.499 q 0.117,1.716 0.936,2.925 0.858,1.248 2.106,2.028 1.287,0.78 2.808,1.131 1.56,0.39 3.042,0.39 3.471,0 5.538,-0.936 2.067,-0.936 3.159,-2.301 1.092,-1.326 1.404,-2.886 0.351,-1.56 0.351,-2.769 z" /></g></g><g
           id="g134"
           transform="translate(562,406)"><g
             id="text138"
             style="font-variant:normal;font-weight:bold;font-size:39px;font-family:HelveticaNeue;-inkscape-font-specification:HelveticaNeue-Bold;writing-mode:lr-tb;fill:#ffffff;fill-opacity:1;fill-rule:nonzero;stroke:none"
             transform="scale(1,-1)"
             aria-label="Optimization"><path
               id="path208"
               style=""
               d="m 7.605,-13.806 q 0,-1.833 0.39,-3.549 0.429,-1.716 1.326,-3.042 0.897,-1.365 2.34,-2.145 1.443,-0.819 3.51,-0.819 2.067,0 3.51,0.819 1.443,0.78 2.34,2.145 0.897,1.326 1.287,3.042 0.429,1.716 0.429,3.549 0,1.755 -0.429,3.432 -0.39,1.638 -1.287,2.964 -0.897,1.326 -2.34,2.145 -1.443,0.78 -3.51,0.78 -2.067,0 -3.51,-0.78 -1.443,-0.819 -2.34,-2.145 -0.897,-1.326 -1.326,-2.964 -0.39,-1.677 -0.39,-3.432 z m -6.123,0 q 0,3.042 0.936,5.694 0.936,2.613 2.691,4.563 1.755,1.95 4.29,3.081 2.574,1.092 5.772,1.092 3.237,0 5.772,-1.092 2.535,-1.131 4.29,-3.081 1.755,-1.95 2.691,-4.563 0.936,-2.652 0.936,-5.694 0,-3.12 -0.936,-5.772 -0.936,-2.691 -2.691,-4.68 -1.755,-1.989 -4.29,-3.12 -2.535,-1.131 -5.772,-1.131 -3.198,0 -5.772,1.131 -2.535,1.131 -4.29,3.12 -1.755,1.989 -2.691,4.68 -0.936,2.652 -0.936,5.772 z" /><path
               id="path210"
               style=""
               d="m 42.626999,-3.627 q -1.326,0 -2.262,-0.546 -0.936,-0.546 -1.521,-1.404 -0.546,-0.897 -0.819,-2.067 -0.234,-1.17 -0.234,-2.379 0,-1.248 0.234,-2.418 0.234,-1.17 0.78,-2.067 0.585,-0.897 1.482,-1.443 0.936,-0.585 2.301,-0.585 1.326,0 2.223,0.585 0.936,0.546 1.521,1.482 0.585,0.897 0.819,2.067 0.273,1.17 0.273,2.379 0,1.209 -0.234,2.379 -0.234,1.17 -0.819,2.067 -0.546,0.858 -1.482,1.404 -0.897,0.546 -2.262,0.546 z m -10.179,-16.536 V 7.059 h 5.538 v -9.555 h 0.078 q 1.014,1.482 2.574,2.262 1.599,0.741 3.471,0.741 2.223,0 3.861,-0.858 1.677,-0.858 2.769,-2.301 1.131,-1.443 1.677,-3.315 0.546,-1.872 0.546,-3.9 0,-2.145 -0.546,-4.095 -0.546,-1.989 -1.677,-3.471 -1.131,-1.482 -2.847,-2.379 -1.716,-0.897 -4.095,-0.897 -1.872,0 -3.432,0.741 -1.56,0.741 -2.574,2.379 h -0.078 v -2.574 z" /><path
               id="path212"
               style=""
               d="m 63.297001,-20.163 v -6.045 h -5.538 v 6.045 h -3.354 v 3.705 h 3.354 v 11.895 q 0,1.521 0.507,2.457 0.507,0.936 1.365,1.443 0.897,0.507 2.028,0.663 1.17,0.195 2.457,0.195 0.819,0 1.677,-0.039 0.858,-0.039 1.56,-0.156 v -4.29 q -0.39,0.078 -0.819,0.117 -0.429,0.039 -0.897,0.039 -1.404,0 -1.872,-0.468 -0.468,-0.468 -0.468,-1.872 v -9.984 h 4.056 v -3.705 z" /><path
               id="path214"
               style=""
               d="m 75.699002,-23.283 v -4.563 h -5.538 v 4.563 z m -5.538,3.12 V 0 h 5.538 v -20.163 z" /><path
               id="path216"
               style=""
               d="M 80.222999,-20.163 V 0 h 5.538 v -11.7 q 0,-1.482 0.429,-2.379 0.429,-0.936 1.014,-1.404 0.624,-0.507 1.248,-0.663 0.663,-0.195 1.053,-0.195 1.326,0 1.989,0.468 0.702,0.429 0.975,1.17 0.312,0.741 0.351,1.638 0.039,0.858 0.039,1.755 V 0 h 5.538 v -11.232 q 0,-0.936 0.117,-1.833 0.156,-0.936 0.546,-1.638 0.429,-0.741 1.131001,-1.17 0.741,-0.468 1.911,-0.468 1.17,0 1.833,0.39 0.702,0.39 1.053,1.053 0.351,0.663 0.429,1.56 0.078,0.897 0.078,1.911 V 0 h 5.538 v -13.494 q 0,-1.95 -0.546,-3.315 -0.546,-1.404 -1.521,-2.262 -0.975,-0.858 -2.34,-1.248 -1.365,-0.39 -2.964,-0.39 -2.106,0 -3.666001,1.014 -1.521,1.014 -2.418,2.34 -0.819,-1.872 -2.418,-2.613 -1.56,-0.741 -3.471,-0.741 -1.989,0 -3.549,0.858 -1.521,0.858 -2.613,2.418 h -0.078 v -2.73 z" /><path
               id="path218"
               style=""
               d="m 121.095,-23.283 v -4.563 h -5.538 v 4.563 z m -5.538,3.12 V 0 h 5.538 v -20.163 z" /><path
               id="path220"
               style=""
               d="M 124.215,-4.173 V 0 h 18.525 v -4.173 h -11.232 l 10.491,-11.817 v -4.173 h -17.004 v 4.173 h 9.711 z" /><path
               id="path222"
               style=""
               d="m 145.47001,-13.962 q 0.117,-1.95 0.975,-3.237 0.858,-1.287 2.184,-2.067 1.326,-0.78 2.964,-1.092 1.677,-0.351 3.354,-0.351 1.521,0 3.081,0.234 1.56,0.195 2.847,0.819 1.287,0.624 2.106,1.755 0.819,1.092 0.819,2.925 v 10.491 q 0,1.365 0.156,2.613 0.156,1.248 0.546,1.872 h -5.616 q -0.156,-0.468 -0.273,-0.936 -0.078,-0.507 -0.117,-1.014 -1.326,1.365 -3.12,1.911 -1.794,0.546 -3.666,0.546 -1.443,0 -2.691,-0.351 -1.248,-0.351 -2.184,-1.092 -0.936,-0.741 -1.482,-1.872 -0.507,-1.131 -0.507,-2.691 0,-1.716 0.585,-2.808 0.624,-1.131 1.56,-1.794 0.975,-0.663 2.184,-0.975 1.248,-0.351 2.496,-0.546 1.248,-0.195 2.457,-0.312 1.209,-0.117 2.145,-0.351 0.936,-0.234 1.482,-0.663 0.546,-0.468 0.507,-1.326 0,-0.897 -0.312,-1.404 -0.273,-0.546 -0.78,-0.819 -0.468,-0.312 -1.131,-0.39 -0.624,-0.117 -1.365,-0.117 -1.638,0 -2.574,0.702 -0.936,0.702 -1.092,2.34 z m 12.792,4.095 q -0.351,0.312 -0.897,0.507 -0.507,0.156 -1.131,0.273 -0.585,0.117 -1.248,0.195 -0.663,0.078 -1.326,0.195 -0.624,0.117 -1.248,0.312 -0.585,0.195 -1.053,0.546 -0.429,0.312 -0.702,0.819 -0.273,0.507 -0.273,1.287 0,0.741 0.273,1.248 0.273,0.507 0.741,0.819 0.468,0.273 1.092,0.39 0.624,0.117 1.287,0.117 1.638,0 2.535,-0.546 0.897,-0.546 1.326,-1.287 0.429,-0.78 0.507,-1.56 0.117,-0.78 0.117,-1.248 z" /><path
               id="path224"
               style=""
               d="m 175.10999,-20.163 v -6.045 h -5.538 v 6.045 h -3.354 v 3.705 h 3.354 v 11.895 q 0,1.521 0.507,2.457 0.507,0.936 1.365,1.443 0.897,0.507 2.028,0.663 1.17,0.195 2.457,0.195 0.819,0 1.677,-0.039 0.858,-0.039 1.56,-0.156 v -4.29 q -0.39,0.078 -0.819,0.117 -0.429,0.039 -0.897,0.039 -1.404,0 -1.872,-0.468 -0.468,-0.468 -0.468,-1.872 v -9.984 h 4.056 v -3.705 z" /><path
               id="path226"
               style=""
               d="m 187.51201,-23.283 v -4.563 h -5.538 v 4.563 z m -5.538,3.12 V 0 h 5.538 v -20.163 z" /><path
               id="path228"
               style=""
               d="m 196.794,-10.062 q 0,-1.209 0.234,-2.379 0.234,-1.17 0.78,-2.067 0.585,-0.897 1.521,-1.443 0.936,-0.585 2.34,-0.585 1.404,0 2.34,0.585 0.975,0.546 1.521,1.443 0.585,0.897 0.819,2.067 0.234,1.17 0.234,2.379 0,1.209 -0.234,2.379 -0.234,1.131 -0.819,2.067 -0.546,0.897 -1.521,1.443 -0.936,0.546 -2.34,0.546 -1.404,0 -2.34,-0.546 -0.936,-0.546 -1.521,-1.443 -0.546,-0.936 -0.78,-2.067 -0.234,-1.17 -0.234,-2.379 z m -5.538,0 q 0,2.418 0.741,4.368 0.741,1.95 2.106,3.354 1.365,1.365 3.276,2.106 1.911,0.741 4.29,0.741 2.379,0 4.29,-0.741 1.95,-0.741 3.315,-2.106 1.365,-1.404 2.106,-3.354 0.741,-1.95 0.741,-4.368 0,-2.418 -0.741,-4.368 -0.741,-1.989 -2.106,-3.354 -1.365,-1.404 -3.315,-2.145 -1.911,-0.78 -4.29,-0.78 -2.379,0 -4.29,0.78 -1.911,0.741 -3.276,2.145 -1.365,1.365 -2.106,3.354 -0.741,1.95 -0.741,4.368 z" /><path
               id="path230"
               style=""
               d="M 215.709,-20.163 V 0 h 5.538 v -10.569 q 0,-3.081 1.014,-4.407 1.014,-1.365 3.276,-1.365 1.989,0 2.769,1.248 0.78,1.209 0.78,3.705 V 0 h 5.538 v -12.402 q 0,-1.872 -0.351,-3.393 -0.312,-1.56 -1.131,-2.613 -0.819,-1.092 -2.262,-1.677 -1.404,-0.624 -3.627,-0.624 -1.755,0 -3.432,0.819 -1.677,0.78 -2.73,2.535 h -0.117 v -2.808 z" /></g></g><path
           d="M 111.1306,282.1943 H 514.4135 V 216.6436 H 111.1306 Z"
           style="fill:#f8ba00;fill-opacity:1;fill-rule:nonzero;stroke:none"
           id="path140" /></g></g><g
       id="g142"><g
         id="g144"
         clip-path="url(#clipPath148)"><g
           id="g150"
           transform="translate(215,230)"><g
             id="text154"
             style="font-variant:normal;font-weight:normal;font-size:52px;font-family:EnvyCodeR;-inkscape-font-specification:EnvyCodeR;writing-mode:lr-tb;fill:#000000;fill-opacity:1;fill-rule:nonzero;stroke:none"
             transform="scale(1,-1)"
             aria-label="LLVM IR"><path
               id="path233"
               style=""
               d="M 4.0117187,-36.105469 H 8.0234375 V -4.0117187 H 24.070312 V 0 H 4.0117187 Z" /><path
               id="path235"
               style=""
               d="m 31.940918,-36.105469 h 4.011719 V -4.0117187 H 51.999512 V 0 H 31.940918 Z" /><path
               id="path237"
               style=""
               d="m 63.881836,-36.105469 6.017578,26.4062502 6.017578,-26.4062502 h 4.011719 L 71.905273,0 h -4.011718 l -8.023438,-36.105469 z" /><path
               id="path239"
               style=""
               d="m 103.84619,-28.082031 -6.017577,10.511719 -6.017578,-10.511719 V 0 h -4.011719 v -36.105469 h 4.011719 l 6.017578,12.035157 6.017577,-12.035157 h 4.01172 V 0 h -4.01172 z" /><path
               id="path241"
               style=""
               d="m 143.65771,-4.0117187 h 8.02344 V -32.09375 h -8.02344 v -4.011719 h 20.0586 v 4.011719 h -8.02344 v 28.0820313 h 8.02344 V 0 h -20.0586 z" /><path
               id="path243"
               style=""
               d="M 183.90137,-16.300781 Q 191.82324,-0.07617187 191.82324,0 h -4.5957 q -7.82031,-15.970703 -7.82031,-16.046875 h -3.8086 V 0 h -4.01172 v -36.105469 h 10.0293 q 2.08203,0 3.91016,0.78711 1.82812,0.787109 3.17383,2.158203 1.37109,1.345703 2.1582,3.173828 0.78711,1.828125 0.78711,3.910156 0,1.777344 -0.58399,3.376953 -0.58398,1.59961 -1.625,2.894532 -1.04101,1.294921 -2.46289,2.208984 -1.42187,0.914062 -3.07226,1.294922 z m -2.28516,-3.757813 q 1.24414,0 2.33594,-0.457031 1.0918,-0.482422 1.9043,-1.294922 0.83789,-0.83789 1.29492,-1.929687 0.48242,-1.091797 0.48242,-2.335938 0,-1.24414 -0.48242,-2.335937 -0.45703,-1.091797 -1.29492,-1.904297 -0.8125,-0.837891 -1.9043,-1.294922 -1.0918,-0.482422 -2.33594,-0.482422 h -6.01758 v 12.035156 z" /></g></g></g></g><g
       id="g156"><g
         id="g158"
         clip-path="url(#clipPath162)"><g
           id="g164"
           transform="matrix(0,-1,-1,0,312.772,342.9331)"><path
             d="m 0,0 h 15.23775 5.5"
             style="fill:none;stroke:#ee220c;stroke-width:11;stroke-linecap:butt;stroke-linejoin:miter;stroke-miterlimit:4;stroke-dasharray:none;stroke-opacity:1"
             id="path166" /></g><path
           d="m 291.772,327.6953 21,-42 21,42 z"
           style="fill:#ee220c;fill-opacity:1;fill-rule:nonzero;stroke:none"
           id="path168" /><g
           id="g170"
           transform="translate(562,300)"><g
             id="text174"
             style="font-variant:normal;font-weight:bold;font-size:39px;font-family:HelveticaNeue;-inkscape-font-specification:HelveticaNeue-Bold;writing-mode:lr-tb;fill:#ffffff;fill-opacity:1;fill-rule:nonzero;stroke:none"
             transform="scale(1,-1)"
             aria-label="Optimization"><path
               id="path246"
               style=""
               d="m 7.605,-13.806 q 0,-1.833 0.39,-3.549 0.429,-1.716 1.326,-3.042 0.897,-1.365 2.34,-2.145 1.443,-0.819 3.51,-0.819 2.067,0 3.51,0.819 1.443,0.78 2.34,2.145 0.897,1.326 1.287,3.042 0.429,1.716 0.429,3.549 0,1.755 -0.429,3.432 -0.39,1.638 -1.287,2.964 -0.897,1.326 -2.34,2.145 -1.443,0.78 -3.51,0.78 -2.067,0 -3.51,-0.78 -1.443,-0.819 -2.34,-2.145 -0.897,-1.326 -1.326,-2.964 -0.39,-1.677 -0.39,-3.432 z m -6.123,0 q 0,3.042 0.936,5.694 0.936,2.613 2.691,4.563 1.755,1.95 4.29,3.081 2.574,1.092 5.772,1.092 3.237,0 5.772,-1.092 2.535,-1.131 4.29,-3.081 1.755,-1.95 2.691,-4.563 0.936,-2.652 0.936,-5.694 0,-3.12 -0.936,-5.772 -0.936,-2.691 -2.691,-4.68 -1.755,-1.989 -4.29,-3.12 -2.535,-1.131 -5.772,-1.131 -3.198,0 -5.772,1.131 -2.535,1.131 -4.29,3.12 -1.755,1.989 -2.691,4.68 -0.936,2.652 -0.936,5.772 z" /><path
               id="path248"
               style=""
               d="m 42.626999,-3.627 q -1.326,0 -2.262,-0.546 -0.936,-0.546 -1.521,-1.404 -0.546,-0.897 -0.819,-2.067 -0.234,-1.17 -0.234,-2.379 0,-1.248 0.234,-2.418 0.234,-1.17 0.78,-2.067 0.585,-0.897 1.482,-1.443 0.936,-0.585 2.301,-0.585 1.326,0 2.223,0.585 0.936,0.546 1.521,1.482 0.585,0.897 0.819,2.067 0.273,1.17 0.273,2.379 0,1.209 -0.234,2.379 -0.234,1.17 -0.819,2.067 -0.546,0.858 -1.482,1.404 -0.897,0.546 -2.262,0.546 z m -10.179,-16.536 V 7.059 h 5.538 v -9.555 h 0.078 q 1.014,1.482 2.574,2.262 1.599,0.741 3.471,0.741 2.223,0 3.861,-0.858 1.677,-0.858 2.769,-2.301 1.131,-1.443 1.677,-3.315 0.546,-1.872 0.546,-3.9 0,-2.145 -0.546,-4.095 -0.546,-1.989 -1.677,-3.471 -1.131,-1.482 -2.847,-2.379 -1.716,-0.897 -4.095,-0.897 -1.872,0 -3.432,0.741 -1.56,0.741 -2.574,2.379 h -0.078 v -2.574 z" /><path
               id="path250"
               style=""
               d="m 63.297001,-20.163 v -6.045 h -5.538 v 6.045 h -3.354 v 3.705 h 3.354 v 11.895 q 0,1.521 0.507,2.457 0.507,0.936 1.365,1.443 0.897,0.507 2.028,0.663 1.17,0.195 2.457,0.195 0.819,0 1.677,-0.039 0.858,-0.039 1.56,-0.156 v -4.29 q -0.39,0.078 -0.819,0.117 -0.429,0.039 -0.897,0.039 -1.404,0 -1.872,-0.468 -0.468,-0.468 -0.468,-1.872 v -9.984 h 4.056 v -3.705 z" /><path
               id="path252"
               style=""
               d="m 75.699002,-23.283 v -4.563 h -5.538 v 4.563 z m -5.538,3.12 V 0 h 5.538 v -20.163 z" /><path
               id="path254"
               style=""
               d="M 80.222999,-20.163 V 0 h 5.538 v -11.7 q 0,-1.482 0.429,-2.379 0.429,-0.936 1.014,-1.404 0.624,-0.507 1.248,-0.663 0.663,-0.195 1.053,-0.195 1.326,0 1.989,0.468 0.702,0.429 0.975,1.17 0.312,0.741 0.351,1.638 0.039,0.858 0.039,1.755 V 0 h 5.538 v -11.232 q 0,-0.936 0.117,-1.833 0.156,-0.936 0.546,-1.638 0.429,-0.741 1.131001,-1.17 0.741,-0.468 1.911,-0.468 1.17,0 1.833,0.39 0.702,0.39 1.053,1.053 0.351,0.663 0.429,1.56 0.078,0.897 0.078,1.911 V 0 h 5.538 v -13.494 q 0,-1.95 -0.546,-3.315 -0.546,-1.404 -1.521,-2.262 -0.975,-0.858 -2.34,-1.248 -1.365,-0.39 -2.964,-0.39 -2.106,0 -3.666001,1.014 -1.521,1.014 -2.418,2.34 -0.819,-1.872 -2.418,-2.613 -1.56,-0.741 -3.471,-0.741 -1.989,0 -3.549,0.858 -1.521,0.858 -2.613,2.418 h -0.078 v -2.73 z" /><path
               id="path256"
               style=""
               d="m 121.095,-23.283 v -4.563 h -5.538 v 4.563 z m -5.538,3.12 V 0 h 5.538 v -20.163 z" /><path
               id="path258"
               style=""
               d="M 124.215,-4.173 V 0 h 18.525 v -4.173 h -11.232 l 10.491,-11.817 v -4.173 h -17.004 v 4.173 h 9.711 z" /><path
               id="path260"
               style=""
               d="m 145.47001,-13.962 q 0.117,-1.95 0.975,-3.237 0.858,-1.287 2.184,-2.067 1.326,-0.78 2.964,-1.092 1.677,-0.351 3.354,-0.351 1.521,0 3.081,0.234 1.56,0.195 2.847,0.819 1.287,0.624 2.106,1.755 0.819,1.092 0.819,2.925 v 10.491 q 0,1.365 0.156,2.613 0.156,1.248 0.546,1.872 h -5.616 q -0.156,-0.468 -0.273,-0.936 -0.078,-0.507 -0.117,-1.014 -1.326,1.365 -3.12,1.911 -1.794,0.546 -3.666,0.546 -1.443,0 -2.691,-0.351 -1.248,-0.351 -2.184,-1.092 -0.936,-0.741 -1.482,-1.872 -0.507,-1.131 -0.507,-2.691 0,-1.716 0.585,-2.808 0.624,-1.131 1.56,-1.794 0.975,-0.663 2.184,-0.975 1.248,-0.351 2.496,-0.546 1.248,-0.195 2.457,-0.312 1.209,-0.117 2.145,-0.351 0.936,-0.234 1.482,-0.663 0.546,-0.468 0.507,-1.326 0,-0.897 -0.312,-1.404 -0.273,-0.546 -0.78,-0.819 -0.468,-0.312 -1.131,-0.39 -0.624,-0.117 -1.365,-0.117 -1.638,0 -2.574,0.702 -0.936,0.702 -1.092,2.34 z m 12.792,4.095 q -0.351,0.312 -0.897,0.507 -0.507,0.156 -1.131,0.273 -0.585,0.117 -1.248,0.195 -0.663,0.078 -1.326,0.195 -0.624,0.117 -1.248,0.312 -0.585,0.195 -1.053,0.546 -0.429,0.312 -0.702,0.819 -0.273,0.507 -0.273,1.287 0,0.741 0.273,1.248 0.273,0.507 0.741,0.819 0.468,0.273 1.092,0.39 0.624,0.117 1.287,0.117 1.638,0 2.535,-0.546 0.897,-0.546 1.326,-1.287 0.429,-0.78 0.507,-1.56 0.117,-0.78 0.117,-1.248 z" /><path
               id="path262"
               style=""
               d="m 175.10999,-20.163 v -6.045 h -5.538 v 6.045 h -3.354 v 3.705 h 3.354 v 11.895 q 0,1.521 0.507,2.457 0.507,0.936 1.365,1.443 0.897,0.507 2.028,0.663 1.17,0.195 2.457,0.195 0.819,0 1.677,-0.039 0.858,-0.039 1.56,-0.156 v -4.29 q -0.39,0.078 -0.819,0.117 -0.429,0.039 -0.897,0.039 -1.404,0 -1.872,-0.468 -0.468,-0.468 -0.468,-1.872 v -9.984 h 4.056 v -3.705 z" /><path
               id="path264"
               style=""
               d="m 187.51201,-23.283 v -4.563 h -5.538 v 4.563 z m -5.538,3.12 V 0 h 5.538 v -20.163 z" /><path
               id="path266"
               style=""
               d="m 196.794,-10.062 q 0,-1.209 0.234,-2.379 0.234,-1.17 0.78,-2.067 0.585,-0.897 1.521,-1.443 0.936,-0.585 2.34,-0.585 1.404,0 2.34,0.585 0.975,0.546 1.521,1.443 0.585,0.897 0.819,2.067 0.234,1.17 0.234,2.379 0,1.209 -0.234,2.379 -0.234,1.131 -0.819,2.067 -0.546,0.897 -1.521,1.443 -0.936,0.546 -2.34,0.546 -1.404,0 -2.34,-0.546 -0.936,-0.546 -1.521,-1.443 -0.546,-0.936 -0.78,-2.067 -0.234,-1.17 -0.234,-2.379 z m -5.538,0 q 0,2.418 0.741,4.368 0.741,1.95 2.106,3.354 1.365,1.365 3.276,2.106 1.911,0.741 4.29,0.741 2.379,0 4.29,-0.741 1.95,-0.741 3.315,-2.106 1.365,-1.404 2.106,-3.354 0.741,-1.95 0.741,-4.368 0,-2.418 -0.741,-4.368 -0.741,-1.989 -2.106,-3.354 -1.365,-1.404 -3.315,-2.145 -1.911,-0.78 -4.29,-0.78 -2.379,0 -4.29,0.78 -1.911,0.741 -3.276,2.145 -1.365,1.365 -2.106,3.354 -0.741,1.95 -0.741,4.368 z" /><path
               id="path268"
               style=""
               d="M 215.709,-20.163 V 0 h 5.538 v -10.569 q 0,-3.081 1.014,-4.407 1.014,-1.365 3.276,-1.365 1.989,0 2.769,1.248 0.78,1.209 0.78,3.705 V 0 h 5.538 v -12.402 q 0,-1.872 -0.351,-3.393 -0.312,-1.56 -1.131,-2.613 -0.819,-1.092 -2.262,-1.677 -1.404,-0.624 -3.627,-0.624 -1.755,0 -3.432,0.819 -1.677,0.78 -2.73,2.535 h -0.117 v -2.808 z" /></g></g><path
           d="M 111.1306,152.4038 H 514.4135 V 86.85302 H 111.1306 Z"
           style="fill:#f8ba00;fill-opacity:1;fill-rule:nonzero;stroke:none"
           id="path176" /></g></g><g
       id="g178"><g
         id="g180"
         clip-path="url(#clipPath184)"><g
           id="g186"
           transform="translate(145,100)"><g
             id="text190"
             style="font-variant:normal;font-weight:normal;font-size:52px;font-family:EnvyCodeR;-inkscape-font-specification:EnvyCodeR;writing-mode:lr-tb;fill:#000000;fill-opacity:1;fill-rule:nonzero;stroke:none"
             transform="scale(1,-1)"
             aria-label="MACHINE CODE"><path
               id="path271"
               style=""
               d="M 20.058594,-28.082031 14.041016,-17.570312 8.0234375,-28.082031 V 0 H 4.0117187 v -36.105469 h 4.0117188 l 6.0175785,12.035157 6.017578,-12.035157 h 4.011718 V 0 h -4.011718 z" /><path
               id="path273"
               style=""
               d="m 31.940918,-26.076172 q 0,-2.082031 0.787109,-3.910156 0.78711,-1.828125 2.132813,-3.173828 1.371094,-1.371094 3.199219,-2.158203 1.828125,-0.78711 3.910156,-0.78711 2.082031,0 3.910156,0.78711 1.828125,0.787109 3.173828,2.158203 1.371094,1.345703 2.158203,3.173828 0.78711,1.828125 0.78711,3.910156 V 0 H 47.987793 V -16.046875 H 35.952637 V 0 h -4.011719 z m 16.046875,6.017578 v -6.017578 q 0,-1.24414 -0.482422,-2.335937 -0.457031,-1.091797 -1.294922,-1.904297 -0.8125,-0.837891 -1.904297,-1.294922 -1.091797,-0.482422 -2.335937,-0.482422 -1.244141,0 -2.335938,0.482422 -1.091797,0.457031 -1.929687,1.294922 -0.8125,0.8125 -1.294922,1.904297 -0.457031,1.091797 -0.457031,2.335937 v 6.017578 z" /><path
               id="path275"
               style=""
               d="m 69.975586,-32.09375 q -1.294922,0 -2.412109,0.482422 -1.117188,0.457031 -1.929688,1.294922 -0.8125,0.8125 -1.294922,1.904297 -0.457031,1.091797 -0.457031,2.335937 v 16.046875 q 0,1.2441407 0.457031,2.3359376 0.482422,1.0917969 1.294922,1.9296875 0.8125,0.8125 1.929688,1.2949219 1.117187,0.4570313 2.412109,0.4570313 1.066406,0 2.005859,-0.2792969 0.939453,-0.3046875 1.701172,-0.8378906 0.78711,-0.5332032 1.345703,-1.2695313 0.583985,-0.7363281 0.888672,-1.625 h 4.011719 Q 79.573242,-6.296875 78.68457,-4.8242187 77.795898,-3.3515625 76.475586,-2.2851563 75.180664,-1.21875 73.530273,-0.609375 71.879883,0 69.975586,0 67.842773,0 65.989258,-0.78710937 64.161133,-1.5742187 62.790039,-2.9199219 61.418945,-4.2910156 60.631836,-6.1191406 59.870117,-7.9472656 59.870117,-10.029297 v -16.046875 q 0,-2.082031 0.761719,-3.910156 0.787109,-1.828125 2.158203,-3.173828 1.371094,-1.371094 3.199219,-2.158203 1.853515,-0.78711 3.986328,-0.78711 1.904297,0 3.554687,0.609375 1.675782,0.609375 2.970704,1.701172 1.294921,1.066406 2.183593,2.539063 0.888672,1.472656 1.244141,3.173828 h -4.011719 q -0.304687,-0.863281 -0.888672,-1.59961 -0.558593,-0.736328 -1.320312,-1.269531 -0.761719,-0.533203 -1.726563,-0.83789 -0.939453,-0.304688 -2.005859,-0.304688 z" /><path
               id="path277"
               style=""
               d="m 87.799316,-36.105469 h 4.011719 v 16.046875 h 12.035155 v -16.046875 h 4.01172 V 0 h -4.01172 V -16.046875 H 91.811035 V 0 h -4.011719 z" /><path
               id="path279"
               style=""
               d="m 115.72852,-4.0117187 h 8.02343 V -32.09375 h -8.02343 v -4.011719 h 20.05859 v 4.011719 h -8.02344 v 28.0820313 h 8.02344 V 0 h -20.05859 z" /><path
               id="path281"
               style=""
               d="m 143.65771,0 v -36.105469 h 4.01172 l 12.03516,26.7109377 V -36.105469 h 4.01172 V 0 h -4.01172 L 147.66943,-26.710937 V 0 Z" /><path
               id="path283"
               style=""
               d="m 171.58691,-36.105469 h 20.0586 v 4.011719 h -16.04688 v 12.035156 h 12.03516 v 4.011719 h -12.03516 v 12.0351563 h 16.04688 V 0 h -20.0586 z" /><path
               id="path285"
               style=""
               d="m 237.55078,-32.09375 q -1.29492,0 -2.41211,0.482422 -1.11719,0.457031 -1.92969,1.294922 -0.8125,0.8125 -1.29492,1.904297 -0.45703,1.091797 -0.45703,2.335937 v 16.046875 q 0,1.2441407 0.45703,2.3359376 0.48242,1.0917969 1.29492,1.9296875 0.8125,0.8125 1.92969,1.2949219 1.11719,0.4570313 2.41211,0.4570313 1.06641,0 2.00586,-0.2792969 0.93945,-0.3046875 1.70117,-0.8378906 0.78711,-0.5332032 1.34571,-1.2695313 0.58398,-0.7363281 0.88867,-1.625 h 4.01172 q -0.35547,1.7265625 -1.24414,3.1992188 -0.88868,1.4726562 -2.20899,2.5390624 -1.29492,1.0664063 -2.94531,1.6757813 Q 239.45508,0 237.55078,0 q -2.13281,0 -3.98633,-0.78710937 -1.82812,-0.78710933 -3.19922,-2.13281253 -1.37109,-1.3710937 -2.1582,-3.1992187 -0.76172,-1.828125 -0.76172,-3.9101564 v -16.046875 q 0,-2.082031 0.76172,-3.910156 0.78711,-1.828125 2.1582,-3.173828 1.3711,-1.371094 3.19922,-2.158203 1.85352,-0.78711 3.98633,-0.78711 1.9043,0 3.55469,0.609375 1.67578,0.609375 2.9707,1.701172 1.29492,1.066406 2.1836,2.539063 0.88867,1.472656 1.24414,3.173828 h -4.01172 q -0.30469,-0.863281 -0.88867,-1.59961 -0.5586,-0.736328 -1.32032,-1.269531 -0.76172,-0.533203 -1.72656,-0.83789 -0.93945,-0.304688 -2.00586,-0.304688 z" /><path
               id="path287"
               style=""
               d="m 255.37451,-26.076172 q 0,-2.082031 0.78711,-3.910156 0.78711,-1.828125 2.13281,-3.173828 1.3711,-1.371094 3.19922,-2.158203 1.82813,-0.78711 3.91016,-0.78711 2.08203,0 3.91015,0.78711 1.82813,0.787109 3.17383,2.158203 1.3711,1.345703 2.15821,3.173828 0.78711,1.828125 0.78711,3.910156 v 16.046875 q 0,2.0820314 -0.78711,3.9101564 -0.78711,1.828125 -2.15821,3.1992187 -1.3457,1.3457032 -3.17383,2.13281253 Q 267.48584,0 265.40381,0 q -2.08203,0 -3.91016,-0.78710937 -1.82812,-0.78710933 -3.19922,-2.13281253 -1.3457,-1.3710937 -2.13281,-3.1992187 -0.78711,-1.828125 -0.78711,-3.9101564 z m 10.0293,-6.017578 q -1.24414,0 -2.33594,0.482422 -1.0918,0.457031 -1.92969,1.294922 -0.8125,0.8125 -1.29492,1.904297 -0.45703,1.091797 -0.45703,2.335937 v 16.046875 q 0,1.2441407 0.45703,2.3359376 0.48242,1.0917969 1.29492,1.9296875 0.83789,0.8125 1.92969,1.2949219 1.0918,0.4570313 2.33594,0.4570313 1.24414,0 2.33594,-0.4570313 1.09179,-0.4824219 1.90429,-1.2949219 0.83789,-0.8378906 1.29492,-1.9296875 0.48243,-1.0917969 0.48243,-2.3359376 v -16.046875 q 0,-1.24414 -0.48243,-2.335937 -0.45703,-1.091797 -1.29492,-1.904297 -0.8125,-0.837891 -1.90429,-1.294922 -1.0918,-0.482422 -2.33594,-0.482422 z" /><path
               id="path289"
               style=""
               d="m 283.30371,-36.105469 h 10.0293 q 2.08203,0 3.91015,0.78711 1.82813,0.787109 3.17383,2.158203 1.3711,1.345703 2.15821,3.173828 0.7871,1.828125 0.7871,3.910156 v 16.046875 q 0,2.0820314 -0.7871,3.9101564 -0.78711,1.828125 -2.15821,3.1992187 -1.3457,1.3457032 -3.17383,2.13281253 Q 295.41504,0 293.33301,0 h -10.0293 z m 10.0293,32.0937503 q 1.24414,0 2.33594,-0.4570313 1.09179,-0.4824219 1.90429,-1.2949219 0.83789,-0.8378906 1.29492,-1.9296875 0.48243,-1.0917969 0.48243,-2.3359376 v -16.046875 q 0,-1.24414 -0.48243,-2.335937 -0.45703,-1.091797 -1.29492,-1.904297 -0.8125,-0.837891 -1.90429,-1.294922 -1.0918,-0.482422 -2.33594,-0.482422 h -6.01758 v 28.0820313 z" /><path
               id="path291"
               style=""
               d="m 311.23291,-36.105469 h 20.05859 v 4.011719 h -16.04687 v 12.035156 h 12.03516 v 4.011719 H 315.24463 V -4.0117187 H 331.2915 V 0 h -20.05859 z" /></g></g></g></g><g
       id="g192"><g
         id="g194"
         clip-path="url(#clipPath198)"><g
           id="g200"
           transform="matrix(0,-1,-1,0,312.772,213.1425)"><path
             d="m 0,0 h 15.23775 5.5"
             style="fill:none;stroke:#ee220c;stroke-width:11;stroke-linecap:butt;stroke-linejoin:miter;stroke-miterlimit:4;stroke-dasharray:none;stroke-opacity:1"
             id="path202" /></g><path
           d="m 291.772,197.9048 21,-42 21,42 z"
           style="fill:#ee220c;fill-opacity:1;fill-rule:nonzero;stroke:none"
           id="path204" /><g
           id="g206"
           transform="translate(562,170)"><g
             id="text210"
             style="font-variant:normal;font-weight:bold;font-size:39px;font-family:HelveticaNeue;-inkscape-font-specification:HelveticaNeue-Bold;writing-mode:lr-tb;fill:#ffffff;fill-opacity:1;fill-rule:nonzero;stroke:none"
             transform="scale(1,-1)"
             aria-label="Optimization"><path
               id="path294"
               style=""
               d="m 7.605,-13.806 q 0,-1.833 0.39,-3.549 0.429,-1.716 1.326,-3.042 0.897,-1.365 2.34,-2.145 1.443,-0.819 3.51,-0.819 2.067,0 3.51,0.819 1.443,0.78 2.34,2.145 0.897,1.326 1.287,3.042 0.429,1.716 0.429,3.549 0,1.755 -0.429,3.432 -0.39,1.638 -1.287,2.964 -0.897,1.326 -2.34,2.145 -1.443,0.78 -3.51,0.78 -2.067,0 -3.51,-0.78 -1.443,-0.819 -2.34,-2.145 -0.897,-1.326 -1.326,-2.964 -0.39,-1.677 -0.39,-3.432 z m -6.123,0 q 0,3.042 0.936,5.694 0.936,2.613 2.691,4.563 1.755,1.95 4.29,3.081 2.574,1.092 5.772,1.092 3.237,0 5.772,-1.092 2.535,-1.131 4.29,-3.081 1.755,-1.95 2.691,-4.563 0.936,-2.652 0.936,-5.694 0,-3.12 -0.936,-5.772 -0.936,-2.691 -2.691,-4.68 -1.755,-1.989 -4.29,-3.12 -2.535,-1.131 -5.772,-1.131 -3.198,0 -5.772,1.131 -2.535,1.131 -4.29,3.12 -1.755,1.989 -2.691,4.68 -0.936,2.652 -0.936,5.772 z" /><path
               id="path296"
               style=""
               d="m 42.626999,-3.627 q -1.326,0 -2.262,-0.546 -0.936,-0.546 -1.521,-1.404 -0.546,-0.897 -0.819,-2.067 -0.234,-1.17 -0.234,-2.379 0,-1.248 0.234,-2.418 0.234,-1.17 0.78,-2.067 0.585,-0.897 1.482,-1.443 0.936,-0.585 2.301,-0.585 1.326,0 2.223,0.585 0.936,0.546 1.521,1.482 0.585,0.897 0.819,2.067 0.273,1.17 0.273,2.379 0,1.209 -0.234,2.379 -0.234,1.17 -0.819,2.067 -0.546,0.858 -1.482,1.404 -0.897,0.546 -2.262,0.546 z m -10.179,-16.536 V 7.059 h 5.538 v -9.555 h 0.078 q 1.014,1.482 2.574,2.262 1.599,0.741 3.471,0.741 2.223,0 3.861,-0.858 1.677,-0.858 2.769,-2.301 1.131,-1.443 1.677,-3.315 0.546,-1.872 0.546,-3.9 0,-2.145 -0.546,-4.095 -0.546,-1.989 -1.677,-3.471 -1.131,-1.482 -2.847,-2.379 -1.716,-0.897 -4.095,-0.897 -1.872,0 -3.432,0.741 -1.56,0.741 -2.574,2.379 h -0.078 v -2.574 z" /><path
               id="path298"
               style=""
               d="m 63.297001,-20.163 v -6.045 h -5.538 v 6.045 h -3.354 v 3.705 h 3.354 v 11.895 q 0,1.521 0.507,2.457 0.507,0.936 1.365,1.443 0.897,0.507 2.028,0.663 1.17,0.195 2.457,0.195 0.819,0 1.677,-0.039 0.858,-0.039 1.56,-0.156 v -4.29 q -0.39,0.078 -0.819,0.117 -0.429,0.039 -0.897,0.039 -1.404,0 -1.872,-0.468 -0.468,-0.468 -0.468,-1.872 v -9.984 h 4.056 v -3.705 z" /><path
               id="path300"
               style=""
               d="m 75.699002,-23.283 v -4.563 h -5.538 v 4.563 z m -5.538,3.12 V 0 h 5.538 v -20.163 z" /><path
               id="path302"
               style=""
               d="M 80.222999,-20.163 V 0 h 5.538 v -11.7 q 0,-1.482 0.429,-2.379 0.429,-0.936 1.014,-1.404 0.624,-0.507 1.248,-0.663 0.663,-0.195 1.053,-0.195 1.326,0 1.989,0.468 0.702,0.429 0.975,1.17 0.312,0.741 0.351,1.638 0.039,0.858 0.039,1.755 V 0 h 5.538 v -11.232 q 0,-0.936 0.117,-1.833 0.156,-0.936 0.546,-1.638 0.429,-0.741 1.131001,-1.17 0.741,-0.468 1.911,-0.468 1.17,0 1.833,0.39 0.702,0.39 1.053,1.053 0.351,0.663 0.429,1.56 0.078,0.897 0.078,1.911 V 0 h 5.538 v -13.494 q 0,-1.95 -0.546,-3.315 -0.546,-1.404 -1.521,-2.262 -0.975,-0.858 -2.34,-1.248 -1.365,-0.39 -2.964,-0.39 -2.106,0 -3.666001,1.014 -1.521,1.014 -2.418,2.34 -0.819,-1.872 -2.418,-2.613 -1.56,-0.741 -3.471,-0.741 -1.989,0 -3.549,0.858 -1.521,0.858 -2.613,2.418 h -0.078 v -2.73 z" /><path
               id="path304"
               style=""
               d="m 121.095,-23.283 v -4.563 h -5.538 v 4.563 z m -5.538,3.12 V 0 h 5.538 v -20.163 z" /><path
               id="path306"
               style=""
               d="M 124.215,-4.173 V 0 h 18.525 v -4.173 h -11.232 l 10.491,-11.817 v -4.173 h -17.004 v 4.173 h 9.711 z" /><path
               id="path308"
               style=""
               d="m 145.47001,-13.962 q 0.117,-1.95 0.975,-3.237 0.858,-1.287 2.184,-2.067 1.326,-0.78 2.964,-1.092 1.677,-0.351 3.354,-0.351 1.521,0 3.081,0.234 1.56,0.195 2.847,0.819 1.287,0.624 2.106,1.755 0.819,1.092 0.819,2.925 v 10.491 q 0,1.365 0.156,2.613 0.156,1.248 0.546,1.872 h -5.616 q -0.156,-0.468 -0.273,-0.936 -0.078,-0.507 -0.117,-1.014 -1.326,1.365 -3.12,1.911 -1.794,0.546 -3.666,0.546 -1.443,0 -2.691,-0.351 -1.248,-0.351 -2.184,-1.092 -0.936,-0.741 -1.482,-1.872 -0.507,-1.131 -0.507,-2.691 0,-1.716 0.585,-2.808 0.624,-1.131 1.56,-1.794 0.975,-0.663 2.184,-0.975 1.248,-0.351 2.496,-0.546 1.248,-0.195 2.457,-0.312 1.209,-0.117 2.145,-0.351 0.936,-0.234 1.482,-0.663 0.546,-0.468 0.507,-1.326 0,-0.897 -0.312,-1.404 -0.273,-0.546 -0.78,-0.819 -0.468,-0.312 -1.131,-0.39 -0.624,-0.117 -1.365,-0.117 -1.638,0 -2.574,0.702 -0.936,0.702 -1.092,2.34 z m 12.792,4.095 q -0.351,0.312 -0.897,0.507 -0.507,0.156 -1.131,0.273 -0.585,0.117 -1.248,0.195 -0.663,0.078 -1.326,0.195 -0.624,0.117 -1.248,0.312 -0.585,0.195 -1.053,0.546 -0.429,0.312 -0.702,0.819 -0.273,0.507 -0.273,1.287 0,0.741 0.273,1.248 0.273,0.507 0.741,0.819 0.468,0.273 1.092,0.39 0.624,0.117 1.287,0.117 1.638,0 2.535,-0.546 0.897,-0.546 1.326,-1.287 0.429,-0.78 0.507,-1.56 0.117,-0.78 0.117,-1.248 z" /><path
               id="path310"
               style=""
               d="m 175.10999,-20.163 v -6.045 h -5.538 v 6.045 h -3.354 v 3.705 h 3.354 v 11.895 q 0,1.521 0.507,2.457 0.507,0.936 1.365,1.443 0.897,0.507 2.028,0.663 1.17,0.195 2.457,0.195 0.819,0 1.677,-0.039 0.858,-0.039 1.56,-0.156 v -4.29 q -0.39,0.078 -0.819,0.117 -0.429,0.039 -0.897,0.039 -1.404,0 -1.872,-0.468 -0.468,-0.468 -0.468,-1.872 v -9.984 h 4.056 v -3.705 z" /><path
               id="path312"
               style=""
               d="m 187.51201,-23.283 v -4.563 h -5.538 v 4.563 z m -5.538,3.12 V 0 h 5.538 v -20.163 z" /><path
               id="path314"
               style=""
               d="m 196.794,-10.062 q 0,-1.209 0.234,-2.379 0.234,-1.17 0.78,-2.067 0.585,-0.897 1.521,-1.443 0.936,-0.585 2.34,-0.585 1.404,0 2.34,0.585 0.975,0.546 1.521,1.443 0.585,0.897 0.819,2.067 0.234,1.17 0.234,2.379 0,1.209 -0.234,2.379 -0.234,1.131 -0.819,2.067 -0.546,0.897 -1.521,1.443 -0.936,0.546 -2.34,0.546 -1.404,0 -2.34,-0.546 -0.936,-0.546 -1.521,-1.443 -0.546,-0.936 -0.78,-2.067 -0.234,-1.17 -0.234,-2.379 z m -5.538,0 q 0,2.418 0.741,4.368 0.741,1.95 2.106,3.354 1.365,1.365 3.276,2.106 1.911,0.741 4.29,0.741 2.379,0 4.29,-0.741 1.95,-0.741 3.315,-2.106 1.365,-1.404 2.106,-3.354 0.741,-1.95 0.741,-4.368 0,-2.418 -0.741,-4.368 -0.741,-1.989 -2.106,-3.354 -1.365,-1.404 -3.315,-2.145 -1.911,-0.78 -4.29,-0.78 -2.379,0 -4.29,0.78 -1.911,0.741 -3.276,2.145 -1.365,1.365 -2.106,3.354 -0.741,1.95 -0.741,4.368 z" /><path
               id="path316"
               style=""
               d="M 215.709,-20.163 V 0 h 5.538 v -10.569 q 0,-3.081 1.014,-4.407 1.014,-1.365 3.276,-1.365 1.989,0 2.769,1.248 0.78,1.209 0.78,3.705 V 0 h 5.538 v -12.402 q 0,-1.872 -0.351,-3.393 -0.312,-1.56 -1.131,-2.613 -0.819,-1.092 -2.262,-1.677 -1.404,-0.624 -3.627,-0.624 -1.755,0 -3.432,0.819 -1.677,0.78 -2.73,2.535 h -0.117 v -2.808 z" /></g></g></g></g></g></svg>