<?xml version="1.0" encoding="UTF-8" standalone="no"?>
<svg
   xmlns:dc="http://purl.org/dc/elements/1.1/"
   xmlns:cc="http://creativecommons.org/ns#"
   xmlns:rdf="http://www.w3.org/1999/02/22-rdf-syntax-ns#"
   xmlns:svg="http://www.w3.org/2000/svg"
   xmlns="http://www.w3.org/2000/svg"
   xmlns:sodipodi="http://sodipodi.sourceforge.net/DTD/sodipodi-0.dtd"
   xmlns:inkscape="http://www.inkscape.org/namespaces/inkscape"
   inkscape:version="1.0 (4035a4f, 2020-05-01)"
   height="156"
   sodipodi:docname="own_stats.svg"
   id="svg162"
   version="1.1"
   class="block w-full"
   fill="none"
   viewBox="0 0 768 156"
   width="768">
  <metadata
     id="metadata168">
    <rdf:RDF>
      <cc:Work
         rdf:about="">
        <dc:format>image/svg+xml</dc:format>
        <dc:type
           rdf:resource="http://purl.org/dc/dcmitype/StillImage" />
        <dc:title></dc:title>
      </cc:Work>
    </rdf:RDF>
  </metadata>
  <defs
     id="defs166" />
  <sodipodi:namedview
     inkscape:current-layer="svg162"
     inkscape:window-maximized="1"
     inkscape:window-y="23"
     inkscape:window-x="0"
     inkscape:cy="108"
     inkscape:cx="348.171"
     inkscape:zoom="1.3815161"
     showgrid="false"
     id="namedview164"
     inkscape:window-height="855"
     inkscape:window-width="1440"
     inkscape:pageshadow="2"
     inkscape:pageopacity="0"
     guidetolerance="10"
     gridtolerance="10"
     objecttolerance="10"
     borderopacity="1"
     bordercolor="#666666"
     pagecolor="#ffffff" />
  <path
     sodipodi:nodetypes="csssscccsssscc"
     id="path140"
     fill="#3b5ee2"
     d="m 0,16 h 340 c 2.20914,0 4,1.790861 4,4 v 44 c 0,2.209139 -1.79086,4 -4,4 H 0 Z m 0,68 h 764 c 2.20914,0 4,1.79086 4,4 v 44 c 0,2.20914 -1.79162,3.94219 -4,4 H 0 Z" />
  <g
     style="font-weight:300;font-size:20px;letter-spacing:0em;white-space:pre;fill:#ffffff"
     id="text148"
     aria-label="With avif: 163KB (60% smaller)">
    <path
       id="path674"
       style="font-style:normal;font-variant:normal;font-weight:bold;font-stretch:normal;font-family:sans-serif;-inkscape-font-specification:'sans-serif Bold'"
       d="m 25.923828,34.568985 -3.916016,14.541016 h -4.15039 L 15.25,39.637344 12.710938,49.110001 H 8.5605469 L 4.6445312,34.568985 h 3.9160157 l 2.2363281,10.009766 2.675781,-10.009766 h 3.740235 l 2.548828,10.009766 2.34375,-10.009766 z" />
    <path
       id="path676"
       style="font-style:normal;font-variant:normal;font-weight:bold;font-stretch:normal;font-family:sans-serif;-inkscape-font-specification:'sans-serif Bold'"
       d="M 31.753906,49.110001 H 28.238281 V 38.143204 h 3.515625 z m 0.09766,-12.529297 h -3.710937 v -2.666016 h 3.710937 z" />
    <path
       id="path678"
       style="font-style:normal;font-variant:normal;font-weight:bold;font-stretch:normal;font-family:sans-serif;-inkscape-font-specification:'sans-serif Bold'"
       d="m 42.085937,49.012344 q -0.566406,0.146485 -1.201171,0.22461 -0.634766,0.08789 -1.552735,0.08789 -2.050781,0 -3.05664,-0.830078 -0.996094,-0.830078 -0.996094,-2.841797 v -5.126953 h -1.445313 v -2.382812 h 1.445313 v -3.134766 h 3.515625 v 3.134766 h 3.291015 v 2.382812 h -3.291015 v 3.886719 q 0,0.576172 0.0098,1.005859 0.0098,0.429688 0.15625,0.771485 0.136719,0.341797 0.478516,0.546875 0.351563,0.195312 1.015625,0.195312 0.273438,0 0.712891,-0.117187 0.449218,-0.117188 0.625,-0.214844 h 0.292968 z" />
    <path
       id="path680"
       style="font-style:normal;font-variant:normal;font-weight:bold;font-stretch:normal;font-family:sans-serif;-inkscape-font-specification:'sans-serif Bold'"
       d="M 55.191406,49.110001 H 51.65625 v -5.439454 q 0,-0.664062 -0.06836,-1.318359 -0.06836,-0.664062 -0.234375,-0.976562 -0.195313,-0.361329 -0.576172,-0.527344 -0.371094,-0.166016 -1.044922,-0.166016 -0.478516,0 -0.976563,0.15625 -0.488281,0.15625 -1.064453,0.498047 v 7.773438 H 44.175781 V 33.914688 h 3.515625 v 5.439453 q 0.9375,-0.732422 1.796875,-1.123047 0.869141,-0.390625 1.923828,-0.390625 1.777344,0 2.773438,1.035157 1.005859,1.035156 1.005859,3.095703 z" />
    <path
       id="path682"
       style="font-style:normal;font-variant:normal;font-weight:bold;font-stretch:normal;font-family:sans-serif;-inkscape-font-specification:'sans-serif Bold'"
       d="m 72.105469,46.248672 v -2.285156 q -0.712891,0.05859 -1.542969,0.166016 -0.830078,0.09766 -1.259766,0.234375 -0.527343,0.166015 -0.810547,0.488281 -0.273437,0.3125 -0.273437,0.830078 0,0.341797 0.05859,0.556641 0.05859,0.214844 0.292968,0.410156 0.22461,0.195313 0.53711,0.292969 0.3125,0.08789 0.976562,0.08789 0.527344,0 1.064453,-0.214843 0.546875,-0.214844 0.957032,-0.566407 z m 0,1.699219 q -0.283203,0.214844 -0.703125,0.517578 -0.419922,0.302735 -0.791016,0.478516 -0.517578,0.234375 -1.074219,0.341797 -0.55664,0.117187 -1.220703,0.117187 -1.5625,0 -2.617187,-0.966797 -1.054688,-0.966796 -1.054688,-2.470703 0,-1.201172 0.53711,-1.96289 0.537109,-0.761719 1.523437,-1.201172 0.976563,-0.439453 2.421875,-0.625 1.445313,-0.185547 2.998047,-0.273438 v -0.05859 q 0,-0.908204 -0.742188,-1.25 -0.742187,-0.351563 -2.1875,-0.351563 -0.86914,0 -1.855468,0.3125 -0.986328,0.302734 -1.416016,0.46875 h -0.322266 v -2.646484 q 0.556641,-0.146485 1.806641,-0.341797 1.259766,-0.205078 2.519531,-0.205078 2.998047,0 4.326172,0.927734 1.337891,0.917969 1.337891,2.890625 v 7.460938 h -3.486328 z" />
    <path
       id="path684"
       style="font-style:normal;font-variant:normal;font-weight:bold;font-stretch:normal;font-family:sans-serif;-inkscape-font-specification:'sans-serif Bold'"
       d="M 89.869141,38.143204 85.640625,49.110001 H 81.65625 L 77.457031,38.143204 h 3.720703 l 2.539063,7.539062 2.509765,-7.539062 z" />
    <path
       id="path686"
       style="font-style:normal;font-variant:normal;font-weight:bold;font-stretch:normal;font-family:sans-serif;-inkscape-font-specification:'sans-serif Bold'"
       d="M 95.347656,49.110001 H 91.832031 V 38.143204 h 3.515625 z m 0.09766,-12.529297 h -3.710937 v -2.666016 h 3.710937 z" />
    <path
       id="path688"
       style="font-style:normal;font-variant:normal;font-weight:bold;font-stretch:normal;font-family:sans-serif;-inkscape-font-specification:'sans-serif Bold'"
       d="m 105.77734,36.492813 h -0.26367 q -0.23437,-0.06836 -0.61523,-0.15625 -0.3711,-0.08789 -0.80078,-0.08789 -1.03516,0 -1.40625,0.371094 -0.36133,0.371094 -0.36133,1.435547 v 0.08789 h 2.71484 v 2.382812 h -2.59765 v 8.583985 h -3.515629 v -8.583985 h -1.503907 v -2.382812 h 1.503907 v -0.302735 q 0,-2.011718 1.064453,-3.017578 1.074216,-1.005859 3.242186,-1.005859 0.78125,0 1.41602,0.05859 0.63476,0.04883 1.12304,0.136718 z" />
    <path
       id="path690"
       d="m 111.1582,40.985001 h -2.33398 v -2.783204 h 2.33398 z m 0,8.125 h -2.33398 v -2.783204 h 2.33398 z" />
    <path
       id="path692"
       d="m 132.16406,49.110001 h -7.87109 v -1.484375 h 3.02734 v -9.746094 h -3.02734 v -1.328125 q 0.61523,0 1.31836,-0.09766 0.70312,-0.107422 1.06445,-0.302735 0.44922,-0.24414 0.70313,-0.615234 0.26367,-0.38086 0.30273,-1.015625 h 1.51367 v 13.105469 h 2.96875 z" />
    <path
       id="path694"
       d="m 145.94336,44.393204 q 0,2.216797 -1.46484,3.623047 -1.45508,1.396484 -3.57422,1.396484 -1.07422,0 -1.95313,-0.332031 -0.8789,-0.332032 -1.55273,-0.986328 -0.83985,-0.810547 -1.29883,-2.148438 -0.44922,-1.337891 -0.44922,-3.222656 0,-1.933594 0.41016,-3.427735 0.41992,-1.49414 1.32812,-2.65625 0.85938,-1.103515 2.2168,-1.71875 1.35742,-0.625 3.16406,-0.625 0.57617,0 0.9668,0.04883 0.39062,0.04883 0.79101,0.175781 v 1.865234 h -0.0977 q -0.27344,-0.146484 -0.83008,-0.273437 -0.54688,-0.136719 -1.12305,-0.136719 -2.09961,0 -3.34961,1.318359 -1.25,1.308594 -1.45508,3.544922 0.82032,-0.498047 1.61133,-0.751953 0.80078,-0.263672 1.84571,-0.263672 0.92773,0 1.63086,0.175781 0.71289,0.166016 1.45507,0.683594 0.85938,0.595703 1.28907,1.503906 0.43945,0.908204 0.43945,2.207032 z m -1.98242,0.07813 q 0,-0.908203 -0.27344,-1.503907 -0.26367,-0.595703 -0.87891,-1.035156 -0.44922,-0.3125 -0.99609,-0.410156 -0.54688,-0.09766 -1.14258,-0.09766 -0.83008,0 -1.54297,0.195312 -0.71289,0.195313 -1.46484,0.605469 -0.0195,0.214844 -0.0293,0.419922 -0.01,0.195312 -0.01,0.498047 0,1.542968 0.3125,2.441406 0.32226,0.888672 0.8789,1.40625 0.44922,0.429687 0.9668,0.634766 0.52734,0.195312 1.14258,0.195312 1.41601,0 2.22656,-0.859375 0.81055,-0.869141 0.81055,-2.490234 z" />
    <path
       id="path696"
       d="m 157.18359,42.108047 q 0.46875,0.419922 0.77149,1.054688 0.30273,0.634766 0.30273,1.640625 0,0.996094 -0.36133,1.826172 -0.36132,0.830078 -1.01562,1.445312 -0.73242,0.683594 -1.72852,1.015625 -0.98632,0.322266 -2.16797,0.322266 -1.21093,0 -2.38281,-0.292969 -1.17187,-0.283203 -1.92383,-0.625 v -2.041015 h 0.14649 q 0.83008,0.546875 1.95312,0.908203 1.12305,0.361328 2.16797,0.361328 0.61524,0 1.3086,-0.205078 0.69336,-0.205078 1.12304,-0.605469 0.44922,-0.429688 0.66407,-0.947266 0.2246,-0.517578 0.2246,-1.308593 0,-0.78125 -0.2539,-1.289063 -0.24414,-0.517578 -0.6836,-0.810547 -0.43945,-0.302734 -1.06445,-0.410156 -0.625,-0.117188 -1.34765,-0.117188 h -0.87891 v -1.621093 h 0.68359 q 1.48438,0 2.36328,-0.615235 0.88868,-0.625 0.88868,-1.816406 0,-0.527344 -0.22461,-0.917969 -0.22461,-0.40039 -0.625,-0.654297 -0.41993,-0.253906 -0.89844,-0.351562 -0.47852,-0.09766 -1.08399,-0.09766 -0.92773,0 -1.97265,0.332031 -1.04492,0.332031 -1.97266,0.9375 h -0.0977 v -2.041016 q 0.69336,-0.341797 1.8457,-0.625 1.16211,-0.292968 2.24609,-0.292968 1.06446,0 1.875,0.195312 0.81055,0.195313 1.46485,0.625 0.70312,0.46875 1.06445,1.132813 0.36133,0.664062 0.36133,1.552734 0,1.210937 -0.85938,2.119141 -0.84961,0.898437 -2.01172,1.132812 v 0.136719 q 0.46875,0.07813 1.07422,0.332031 0.60547,0.244141 1.02539,0.615234 z" />
    <path
       id="path698"
       d="m 173.42383,49.110001 h -2.50977 l -5.75195,-6.47461 -1.44531,1.542969 v 4.931641 h -1.9336 V 34.568985 h 1.9336 v 7.587891 l 7.06054,-7.587891 h 2.34375 l -6.49414,6.835937 z" />
    <path
       id="path700"
       d="m 186.56836,44.637344 q 0,1.083985 -0.41016,1.914063 -0.41015,0.830078 -1.10351,1.367187 -0.82032,0.644532 -1.80664,0.917969 -0.97657,0.273438 -2.49024,0.273438 h -5.15625 V 34.568985 h 4.30664 q 1.5918,0 2.38282,0.117187 0.79101,0.117188 1.51367,0.488282 0.80078,0.419922 1.16211,1.083984 0.36132,0.654297 0.36132,1.572266 0,1.035156 -0.52734,1.767578 -0.52734,0.722656 -1.40625,1.162109 v 0.07813 q 1.47461,0.302735 2.32422,1.298828 0.84961,0.986328 0.84961,2.5 z m -3.25195,-6.552734 q 0,-0.527344 -0.17579,-0.888672 -0.17578,-0.361328 -0.5664,-0.585937 -0.45899,-0.263672 -1.11328,-0.322266 -0.6543,-0.06836 -1.6211,-0.06836 h -2.30468 v 4.199218 h 2.5 q 0.9082,0 1.44531,-0.08789 0.53711,-0.09766 0.99609,-0.390625 0.45899,-0.292969 0.64453,-0.751953 0.19532,-0.46875 0.19532,-1.103516 z m 1.24023,6.630859 q 0,-0.878906 -0.26367,-1.396484 -0.26367,-0.517578 -0.95703,-0.878906 -0.46875,-0.244141 -1.14258,-0.3125 -0.66406,-0.07813 -1.62109,-0.07813 h -3.03711 v 5.410156 h 2.55859 q 1.26953,0 2.08008,-0.126953 0.81054,-0.136719 1.32812,-0.488281 0.54688,-0.38086 0.80078,-0.869141 0.25391,-0.488281 0.25391,-1.259766 z" />
    <path
       id="path702"
       d="m 202.03711,53.133438 h -2.23633 q -1.72851,-1.982422 -2.68555,-4.326172 -0.95703,-2.34375 -0.95703,-5.283203 0,-2.939453 0.95703,-5.283203 0.95704,-2.34375 2.68555,-4.326172 h 2.23633 v 0.09766 q -0.79102,0.712891 -1.51367,1.650391 -0.71289,0.927734 -1.32813,2.167969 -0.58594,1.201172 -0.95703,2.646484 -0.36133,1.445313 -0.36133,3.046875 0,1.669922 0.35157,3.056641 0.36132,1.386718 0.96679,2.636718 0.58594,1.201172 1.33789,2.167969 0.75196,0.976563 1.50391,1.650391 z" />
    <path
       id="path704"
       d="m 216.57072,44.393204 q 0,2.216797 -1.46484,3.623047 -1.45508,1.396484 -3.57422,1.396484 -1.07422,0 -1.95312,-0.332031 -0.87891,-0.332032 -1.55274,-0.986328 -0.83984,-0.810547 -1.29883,-2.148438 -0.44921,-1.337891 -0.44921,-3.222656 0,-1.933594 0.41015,-3.427735 0.41992,-1.49414 1.32813,-2.65625 0.85937,-1.103515 2.21679,-1.71875 1.35743,-0.625 3.16407,-0.625 0.57617,0 0.96679,0.04883 0.39063,0.04883 0.79102,0.175781 v 1.865234 h -0.0977 q -0.27343,-0.146484 -0.83008,-0.273437 -0.54687,-0.136719 -1.12304,-0.136719 -2.09961,0 -3.34961,1.318359 -1.25,1.308594 -1.45508,3.544922 0.82031,-0.498047 1.61133,-0.751953 0.80078,-0.263672 1.8457,-0.263672 0.92774,0 1.63086,0.175781 0.71289,0.166016 1.45508,0.683594 0.85937,0.595703 1.28906,1.503906 0.43945,0.908204 0.43945,2.207032 z m -1.98242,0.07813 q 0,-0.908203 -0.27343,-1.503907 -0.26368,-0.595703 -0.87891,-1.035156 -0.44922,-0.3125 -0.99609,-0.410156 -0.54688,-0.09766 -1.14258,-0.09766 -0.83008,0 -1.54297,0.195312 -0.71289,0.195313 -1.46485,0.605469 -0.0195,0.214844 -0.0293,0.419922 -0.01,0.195312 -0.01,0.498047 0,1.542968 0.3125,2.441406 0.32227,0.888672 0.87891,1.40625 0.44922,0.429687 0.9668,0.634766 0.52734,0.195312 1.14257,0.195312 1.41602,0 2.22657,-0.859375 0.81054,-0.869141 0.81054,-2.490234 z" />
    <path
       id="path706"
       d="m 229.07072,41.83461 q 0,3.916016 -1.23046,5.751953 -1.22071,1.826172 -3.79883,1.826172 -2.61719,0 -3.82813,-1.855469 -1.20117,-1.855469 -1.20117,-5.703125 0,-3.876953 1.2207,-5.722656 1.22071,-1.855469 3.8086,-1.855469 2.61719,0 3.81836,1.884766 1.21093,1.875 1.21093,5.673828 z m -2.56835,4.433594 q 0.34179,-0.791016 0.45898,-1.855469 0.12695,-1.074219 0.12695,-2.578125 0,-1.484375 -0.12695,-2.578125 -0.11719,-1.09375 -0.46875,-1.855469 -0.3418,-0.751953 -0.9375,-1.132812 -0.58594,-0.38086 -1.51367,-0.38086 -0.91797,0 -1.52344,0.38086 -0.5957,0.380859 -0.94727,1.152343 -0.33203,0.722657 -0.45898,1.884766 -0.11719,1.162109 -0.11719,2.548828 0,1.523438 0.10742,2.548828 0.10743,1.025391 0.45899,1.835938 0.32226,0.761719 0.9082,1.162109 0.59571,0.400391 1.57227,0.400391 0.91797,0 1.52344,-0.38086 0.60546,-0.380859 0.9375,-1.152343 z" />
    <path
       id="path708"
       d="m 239.04143,38.602188 q 0,2.1875 -0.92774,3.251953 -0.91797,1.064453 -2.65625,1.064453 -1.77734,0 -2.68554,-1.064453 -0.90821,-1.064453 -0.90821,-3.242187 0,-2.1875 0.92774,-3.251953 0.92773,-1.064454 2.66601,-1.064454 1.76758,0 2.67578,1.074219 0.90821,1.074219 0.90821,3.232422 z m 6.74804,-4.033203 -7.61718,14.541016 h -1.61133 l 7.61719,-14.541016 z m 4.6875,10.507812 q 0,2.1875 -0.92773,3.251954 -0.92773,1.064453 -2.66602,1.064453 -1.76757,0 -2.67578,-1.074219 -0.9082,-1.074219 -0.9082,-3.232422 0,-2.1875 0.91797,-3.251953 0.92773,-1.064453 2.66601,-1.064453 1.77735,0 2.68555,1.064453 0.9082,1.064453 0.9082,3.242187 z m -13.17382,-6.474609 q 0,-1.679687 -0.43946,-2.34375 -0.42968,-0.664062 -1.40625,-0.664062 -0.99609,0 -1.42578,0.664062 -0.42969,0.664063 -0.42969,2.353516 0,1.689453 0.42969,2.353515 0.42969,0.654297 1.42578,0.654297 0.97657,0 1.40625,-0.654297 0.43946,-0.664062 0.43946,-2.363281 z m 11.43554,6.474609 q 0,-1.679687 -0.43945,-2.34375 -0.42969,-0.664062 -1.40625,-0.664062 -0.99609,0 -1.42578,0.664062 -0.42969,0.664063 -0.42969,2.353516 0,1.689453 0.42969,2.353516 0.42969,0.654297 1.42578,0.654297 0.97656,0 1.40625,-0.654297 0.43945,-0.664063 0.43945,-2.363282 z" />
    <path
       id="path710"
       d="m 268.56291,45.965469 q 0,1.494141 -1.24023,2.451172 -1.23047,0.957031 -3.36914,0.957031 -1.21094,0 -2.22657,-0.283203 -1.00585,-0.292968 -1.68945,-0.634765 v -2.060547 h 0.0977 q 0.86914,0.654297 1.93359,1.044922 1.06445,0.380859 2.04102,0.380859 1.21093,0 1.89453,-0.390625 0.68359,-0.390625 0.68359,-1.230469 0,-0.644531 -0.37109,-0.976562 -0.3711,-0.332031 -1.42578,-0.566406 -0.39063,-0.08789 -1.02539,-0.205079 -0.625,-0.117187 -1.14258,-0.253906 -1.43555,-0.380859 -2.04102,-1.113281 -0.5957,-0.742188 -0.5957,-1.816406 0,-0.673828 0.27344,-1.269532 0.2832,-0.595703 0.84961,-1.064453 0.54687,-0.458984 1.38672,-0.722656 0.8496,-0.273437 1.89453,-0.273437 0.97656,0 1.97265,0.24414 1.00586,0.234375 1.66992,0.576172 v 1.962891 h -0.0976 q -0.70313,-0.517578 -1.70899,-0.869141 -1.00586,-0.361328 -1.97265,-0.361328 -1.00586,0 -1.69922,0.390625 -0.69336,0.380859 -0.69336,1.142578 0,0.673828 0.41992,1.015625 0.41016,0.341797 1.32813,0.556641 0.50781,0.117187 1.13281,0.234375 0.63476,0.117187 1.05469,0.214843 1.27929,0.292969 1.97265,1.00586 0.69336,0.722656 0.69336,1.914062 z" />
    <path
       id="path712"
       d="m 287.11761,49.110001 h -1.83593 v -6.210938 q 0,-0.703125 -0.0684,-1.357422 -0.0586,-0.654297 -0.26367,-1.044922 -0.22461,-0.419922 -0.64454,-0.634765 -0.41992,-0.214844 -1.21093,-0.214844 -0.77149,0 -1.54297,0.390625 -0.77149,0.380859 -1.54297,0.976562 0.0293,0.22461 0.0488,0.527344 0.0195,0.292969 0.0195,0.585938 v 6.982422 h -1.83594 v -6.210938 q 0,-0.722656 -0.0684,-1.367187 -0.0586,-0.654297 -0.26367,-1.044922 -0.22461,-0.419922 -0.64453,-0.625 -0.41992,-0.214844 -1.21094,-0.214844 -0.75195,0 -1.51367,0.371094 -0.75195,0.371093 -1.50391,0.947265 v 8.144532 h -1.83593 V 38.201797 h 1.83593 v 1.210938 q 0.85938,-0.712891 1.70899,-1.113281 0.85937,-0.400391 1.82617,-0.400391 1.11328,0 1.88477,0.46875 0.78125,0.46875 1.1621,1.298828 1.11329,-0.9375 2.03125,-1.347656 0.91797,-0.419922 1.9629,-0.419922 1.79687,0 2.64648,1.09375 0.85937,1.083984 0.85937,3.037109 z" />
    <path
       id="path714"
       d="m 299.12933,49.110001 h -1.82617 v -1.16211 q -0.24414,0.166016 -0.66406,0.46875 -0.41016,0.292969 -0.80078,0.46875 -0.45899,0.22461 -1.05469,0.371094 -0.5957,0.15625 -1.39648,0.15625 -1.47461,0 -2.5,-0.976563 -1.02539,-0.976562 -1.02539,-2.490234 0,-1.240234 0.52734,-2.001953 0.53711,-0.771484 1.52344,-1.210938 0.99609,-0.439453 2.39257,-0.595703 1.39649,-0.15625 2.99805,-0.234375 v -0.283203 q 0,-0.625 -0.22461,-1.035156 -0.21484,-0.410156 -0.625,-0.644531 -0.39062,-0.22461 -0.9375,-0.302735 -0.54687,-0.07813 -1.14258,-0.07813 -0.72265,0 -1.61132,0.195313 -0.88868,0.185547 -1.83594,0.546875 h -0.0977 v -1.865235 q 0.53711,-0.146484 1.55274,-0.322265 1.01562,-0.175781 2.00195,-0.175781 1.15234,0 2.00195,0.195312 0.85938,0.185547 1.48438,0.644531 0.61523,0.449219 0.9375,1.16211 0.32226,0.71289 0.32226,1.767578 z m -1.82617,-2.685547 v -3.03711 q -0.83984,0.04883 -1.98242,0.146485 -1.13281,0.09766 -1.79688,0.283203 -0.79101,0.224609 -1.27929,0.703125 -0.48828,0.46875 -0.48828,1.298828 0,0.9375 0.5664,1.416016 0.56641,0.46875 1.72852,0.46875 0.9668,0 1.76758,-0.371094 0.80078,-0.38086 1.48437,-0.908203 z" />
    <path
       id="path716"
       d="m 304.53949,49.110001 h -1.83594 V 33.914688 h 1.83594 z" />
    <path
       id="path718"
       d="m 310.0473,49.110001 h -1.83594 V 33.914688 h 1.83594 z" />
    <path
       id="path720"
       d="m 322.83051,43.846329 h -8.03711 q 0,1.005859 0.30273,1.757812 0.30273,0.742188 0.83008,1.220703 0.50781,0.46875 1.20117,0.703125 0.70313,0.234375 1.54297,0.234375 1.11328,0 2.23633,-0.439453 1.13281,-0.449219 1.61133,-0.878906 h 0.0976 v 2.001953 q -0.92773,0.390625 -1.89453,0.654297 -0.9668,0.263672 -2.03125,0.263672 -2.71484,0 -4.23828,-1.464844 -1.52344,-1.474609 -1.52344,-4.179687 0,-2.675782 1.45508,-4.248047 1.46484,-1.572266 3.84766,-1.572266 2.20703,0 3.39843,1.289063 1.20118,1.289062 1.20118,3.662109 z m -1.78711,-1.40625 q -0.01,-1.445313 -0.73243,-2.236328 -0.71289,-0.791016 -2.17773,-0.791016 -1.47461,0 -2.35352,0.869141 -0.86914,0.86914 -0.98632,2.158203 z" />
    <path
       id="path722"
       d="m 332.42035,40.203751 h -0.0977 q -0.41015,-0.09766 -0.80078,-0.136719 -0.38086,-0.04883 -0.9082,-0.04883 -0.84961,0 -1.64063,0.380859 -0.79101,0.371094 -1.52343,0.966797 v 7.744141 h -1.83594 V 38.201797 h 1.83594 v 1.611329 q 1.09375,-0.878907 1.92382,-1.240235 0.83985,-0.371094 1.70899,-0.371094 0.47851,0 0.69336,0.0293 0.21484,0.01953 0.64453,0.08789 z" />
    <path
       id="path724"
       d="m 339.67621,43.524063 q 0,2.939453 -0.95703,5.283203 -0.95703,2.34375 -2.68555,4.326172 h -2.23633 v -0.09766 q 0.75196,-0.673828 1.50391,-1.650391 0.76172,-0.966797 1.33789,-2.167969 0.60547,-1.25 0.95703,-2.636718 0.36133,-1.386719 0.36133,-3.056641 0,-1.601562 -0.36133,-3.046875 -0.36133,-1.445312 -0.95703,-2.646484 -0.61524,-1.240235 -1.33789,-2.167969 -0.71289,-0.9375 -1.50391,-1.650391 v -0.09766 h 2.23633 q 1.72852,1.982422 2.68555,4.326172 0.95703,2.34375 0.95703,5.283203 z" />
  </g>
  <g
     style="font-weight:300;font-size:20px;letter-spacing:0em;white-space:pre;fill:#ffffff"
     id="text666"
     aria-label="With jpeg: 374KB">
    <path
       id="path727"
       style="font-style:normal;font-variant:normal;font-weight:bold;font-stretch:normal;font-family:sans-serif;-inkscape-font-specification:'sans-serif Bold'"
       d="m 25.923828,102.61018 -3.916016,14.54101 h -4.15039 L 15.25,107.67854 12.710938,117.15119 H 8.5605469 L 4.6445312,102.61018 h 3.9160157 l 2.2363281,10.00976 2.675781,-10.00976 h 3.740235 l 2.548828,10.00976 2.34375,-10.00976 z" />
    <path
       id="path729"
       style="font-style:normal;font-variant:normal;font-weight:bold;font-stretch:normal;font-family:sans-serif;-inkscape-font-specification:'sans-serif Bold'"
       d="m 31.753906,117.15119 h -3.515625 v -10.9668 h 3.515625 z m 0.09766,-12.5293 h -3.710937 v -2.66601 h 3.710937 z" />
    <path
       id="path731"
       style="font-style:normal;font-variant:normal;font-weight:bold;font-stretch:normal;font-family:sans-serif;-inkscape-font-specification:'sans-serif Bold'"
       d="m 42.085937,117.05354 q -0.566406,0.14648 -1.201171,0.2246 -0.634766,0.0879 -1.552735,0.0879 -2.050781,0 -3.05664,-0.83008 -0.996094,-0.83008 -0.996094,-2.8418 v -5.12695 h -1.445313 v -2.38282 h 1.445313 v -3.13476 h 3.515625 v 3.13476 h 3.291015 v 2.38282 h -3.291015 v 3.88672 q 0,0.57617 0.0098,1.00586 0.0098,0.42968 0.15625,0.77148 0.136719,0.3418 0.478516,0.54687 0.351563,0.19532 1.015625,0.19532 0.273438,0 0.712891,-0.11719 0.449218,-0.11719 0.625,-0.21484 h 0.292968 z" />
    <path
       id="path733"
       style="font-style:normal;font-variant:normal;font-weight:bold;font-stretch:normal;font-family:sans-serif;-inkscape-font-specification:'sans-serif Bold'"
       d="M 55.191406,117.15119 H 51.65625 v -5.43945 q 0,-0.66406 -0.06836,-1.31836 -0.06836,-0.66406 -0.234375,-0.97656 -0.195313,-0.36133 -0.576172,-0.52735 -0.371094,-0.16601 -1.044922,-0.16601 -0.478516,0 -0.976563,0.15625 -0.488281,0.15625 -1.064453,0.49804 v 7.77344 h -3.515625 v -15.19531 h 3.515625 v 5.43945 q 0.9375,-0.73242 1.796875,-1.12304 0.869141,-0.39063 1.923828,-0.39063 1.777344,0 2.773438,1.03516 1.005859,1.03515 1.005859,3.0957 z" />
    <path
       id="path735"
       style="font-style:normal;font-variant:normal;font-weight:bold;font-stretch:normal;font-family:sans-serif;-inkscape-font-specification:'sans-serif Bold'"
       d="m 70.015625,117.3465 q 0,1.85547 -1.142578,2.89063 -1.142578,1.04492 -2.939453,1.04492 -0.957032,0 -1.748047,-0.0879 -0.78125,-0.0781 -1.142578,-0.16602 v -2.51953 h 0.273437 q 0.292969,0.0977 0.732422,0.16602 0.439453,0.0684 0.693359,0.0684 1.015625,0 1.386719,-0.60547 Q 66.5,117.53205 66.5,116.14533 v -7.57812 h -2.080078 v -2.38282 h 5.595703 z m 0,-12.72461 h -3.740234 v -2.66601 h 3.740234 z" />
    <path
       id="path737"
       style="font-style:normal;font-variant:normal;font-weight:bold;font-stretch:normal;font-family:sans-serif;-inkscape-font-specification:'sans-serif Bold'"
       d="m 84.761719,111.51643 q 0,1.35742 -0.419922,2.4707 -0.410156,1.11328 -1.083985,1.83594 -0.703125,0.76172 -1.591796,1.15234 -0.888672,0.39063 -1.904297,0.39063 -0.9375,0 -1.591797,-0.20508 -0.654297,-0.19532 -1.337891,-0.55664 v 4.57031 h -3.515625 v -14.99024 h 3.515625 v 1.14258 q 0.810547,-0.64453 1.650391,-1.04492 0.849609,-0.40039 1.953125,-0.40039 2.050781,0 3.183594,1.50391 1.142578,1.5039 1.142578,4.13086 z m -3.623047,0.0684 q 0,-1.60157 -0.546875,-2.32422 -0.546875,-0.72266 -1.728516,-0.72266 -0.498047,0 -1.02539,0.15625 -0.527344,0.14648 -1.00586,0.42969 v 5.51758 q 0.351563,0.13671 0.751953,0.17578 0.400391,0.0391 0.791016,0.0391 1.396484,0 2.080078,-0.81055 0.683594,-0.82031 0.683594,-2.46093 z" />
    <path
       id="path739"
       style="font-style:normal;font-variant:normal;font-weight:bold;font-stretch:normal;font-family:sans-serif;-inkscape-font-specification:'sans-serif Bold'"
       d="m 98.101562,112.31721 h -8.046875 q 0.07813,1.28906 0.976563,1.97265 0.908203,0.6836 2.666016,0.6836 1.113281,0 2.158203,-0.40039 1.044922,-0.40039 1.65039,-0.85938 h 0.390625 v 2.82227 q -1.191406,0.47851 -2.246093,0.69336 -1.054688,0.21484 -2.333985,0.21484 -3.300781,0 -5.058594,-1.48437 Q 86.5,114.47541 86.5,111.73127 q 0,-2.71484 1.660156,-4.29688 1.669922,-1.59179 4.570313,-1.59179 2.675781,0 4.023437,1.35742 1.347656,1.34766 1.347656,3.88672 z m -3.496093,-2.06055 q -0.0293,-1.10352 -0.546875,-1.66016 -0.517578,-0.55664 -1.611328,-0.55664 -1.015625,0 -1.669922,0.52735 -0.654297,0.52734 -0.732422,1.68945 z" />
    <path
       id="path741"
       style="font-style:normal;font-variant:normal;font-weight:bold;font-stretch:normal;font-family:sans-serif;-inkscape-font-specification:'sans-serif Bold'"
       d="m 111.24609,115.89143 q 0,1.54296 -0.43945,2.59765 -0.43945,1.05469 -1.23047,1.65039 -0.79101,0.60547 -1.91406,0.86914 -1.11328,0.27344 -2.51953,0.27344 -1.14258,0 -2.25586,-0.13672 -1.10352,-0.13672 -1.91406,-0.33203 v -2.74414 h 0.42968 q 0.64454,0.25391 1.57227,0.45898 0.92773,0.21485 1.66016,0.21485 0.97656,0 1.58203,-0.18555 0.61523,-0.17578 0.9375,-0.50781 0.30273,-0.3125 0.43945,-0.80078 0.13672,-0.48828 0.13672,-1.17188 v -0.20508 q -0.63477,0.51758 -1.40625,0.82032 -0.77149,0.30273 -1.71875,0.30273 -2.30469,0 -3.55469,-1.38672 -1.249999,-1.38672 -1.249999,-4.21875 0,-1.35742 0.380859,-2.34375 0.38086,-0.98633 1.07422,-1.71875 0.64453,-0.68359 1.58203,-1.06445 0.94727,-0.38086 1.93359,-0.38086 0.88868,0 1.61133,0.21484 0.73242,0.20508 1.32813,0.57618 l 0.12695,-0.48829 h 3.4082 z m -3.51562,-2.19727 v -4.9707 q -0.30274,-0.12696 -0.74219,-0.19532 -0.43945,-0.0781 -0.79101,-0.0781 -1.38672,0 -2.08008,0.80078 -0.69336,0.79102 -0.69336,2.2168 0,1.58203 0.58594,2.20703 0.5957,0.625 1.75781,0.625 0.52734,0 1.03515,-0.16602 0.50782,-0.16601 0.92774,-0.43945 z" />
    <path
       id="path743"
       d="m 118.61914,109.02619 h -2.33398 v -2.7832 h 2.33398 z m 0,8.125 h -2.33398 v -2.7832 h 2.33398 z" />
    <path
       id="path745"
       d="m 139.17578,110.14924 q 0.46875,0.41992 0.77149,1.05469 0.30273,0.63476 0.30273,1.64062 0,0.99609 -0.36133,1.82617 -0.36133,0.83008 -1.01562,1.44532 -0.73243,0.68359 -1.72852,1.01562 -0.98633,0.32227 -2.16797,0.32227 -1.21094,0 -2.38281,-0.29297 -1.17188,-0.28321 -1.92383,-0.625 v -2.04102 h 0.14649 q 0.83007,0.54688 1.95312,0.9082 1.12305,0.36133 2.16797,0.36133 0.61523,0 1.30859,-0.20508 0.69336,-0.20507 1.12305,-0.60546 0.44922,-0.42969 0.66406,-0.94727 0.22461,-0.51758 0.22461,-1.30859 0,-0.78125 -0.2539,-1.28907 -0.24414,-0.51757 -0.6836,-0.81054 -0.43945,-0.30274 -1.06445,-0.41016 -0.625,-0.11719 -1.34766,-0.11719 h -0.8789 v -1.62109 h 0.68359 q 1.48438,0 2.36328,-0.61523 0.88867,-0.625 0.88867,-1.81641 0,-0.52734 -0.22461,-0.91797 -0.22461,-0.40039 -0.625,-0.6543 -0.41992,-0.2539 -0.89843,-0.35156 -0.47852,-0.0977 -1.08399,-0.0977 -0.92773,0 -1.97265,0.33204 -1.04493,0.33203 -1.97266,0.9375 h -0.0977 v -2.04102 q 0.69336,-0.3418 1.84571,-0.625 1.16211,-0.29297 2.24609,-0.29297 1.06445,0 1.875,0.19531 0.81055,0.19532 1.46484,0.625 0.70313,0.46875 1.06446,1.13282 0.36133,0.66406 0.36133,1.55273 0,1.21094 -0.85938,2.11914 -0.84961,0.89844 -2.01172,1.13281 v 0.13672 q 0.46875,0.0781 1.07422,0.33203 0.60547,0.24414 1.02539,0.61524 z" />
    <path
       id="path747"
       d="m 153.22852,104.78791 -6.58204,12.36328 h -2.08984 l 7.00195,-12.83203 h -8.28125 v -1.70898 h 9.95118 z" />
    <path
       id="path749"
       d="m 166.25586,113.05939 h -2.1582 v 4.0918 h -1.875 v -4.0918 h -6.96289 v -2.24609 l 7.04101,-8.20312 h 1.79688 v 8.88671 h 2.1582 z m -4.0332,-1.5625 v -6.5625 l -5.63477,6.5625 z" />
    <path
       id="path751"
       d="M 180.88477,117.15119 H 178.375 l -5.75195,-6.47461 -1.44532,1.54297 v 4.93164 h -1.93359 v -14.54101 h 1.93359 v 7.58789 l 7.06055,-7.58789 h 2.34375 l -6.49414,6.83593 z" />
    <path
       id="path753"
       d="m 194.0293,112.67854 q 0,1.08398 -0.41016,1.91406 -0.41016,0.83008 -1.10352,1.36719 -0.82031,0.64453 -1.80664,0.91796 -0.97656,0.27344 -2.49023,0.27344 h -5.15625 v -14.54101 h 4.30664 q 1.5918,0 2.38281,0.11718 0.79102,0.11719 1.51367,0.48828 0.80079,0.41993 1.16211,1.08399 0.36133,0.6543 0.36133,1.57226 0,1.03516 -0.52734,1.76758 -0.52735,0.72266 -1.40625,1.16211 v 0.0781 q 1.47461,0.30273 2.32422,1.29883 0.84961,0.98632 0.84961,2.5 z m -3.25196,-6.55274 q 0,-0.52734 -0.17578,-0.88867 -0.17578,-0.36133 -0.5664,-0.58594 -0.45899,-0.26367 -1.11329,-0.32226 -0.65429,-0.0684 -1.62109,-0.0684 h -2.30469 v 4.19922 h 2.5 q 0.90821,0 1.44532,-0.0879 0.53711,-0.0976 0.99609,-0.39062 0.45898,-0.29297 0.64453,-0.75195 0.19531,-0.46875 0.19531,-1.10352 z m 1.24024,6.63086 q 0,-0.87891 -0.26367,-1.39648 -0.26368,-0.51758 -0.95704,-0.87891 -0.46875,-0.24414 -1.14257,-0.3125 -0.66407,-0.0781 -1.6211,-0.0781 h -3.03711 v 5.41016 h 2.5586 q 1.26953,0 2.08008,-0.12695 0.81054,-0.13672 1.32812,-0.48828 0.54688,-0.38086 0.80078,-0.86914 0.25391,-0.48829 0.25391,-1.25977 z" />
  </g>
</svg>
