<?xml version="1.0" encoding="UTF-8"?>
<svg width="650" height="217" version="1" xmlns="http://www.w3.org/2000/svg"><g transform="matrix(.72 0 0 .72 .36 .36)"><g fill-rule="evenodd" stroke="#000"><path d="m0 0h60v60h-60zm60 0h60v60h-60zm60 0h60v60h-60zm60 0h60v60h-60zm60 0h60v60h-60zm60 0h60v60h-60zm60 0h60v60h-60zm60 0h60v60h-60zm60 0h60v60h-60zm60 0h60v60h-60zm60 0h60v60h-60zm60 0h60v60h-60zm60 0h60v60h-60z" fill="#fff"/><path d="m780 0h120v60h-120zm-780 60h90v60h-90z" fill="#dfdfdf"/><path d="m90 60h60v60h-60zm60 0h60v60h-60zm60 0h60v60h-60zm60 0h60v60h-60zm60 0h60v60h-60zm60 0h60v60h-60zm60 0h60v60h-60zm60 0h60v60h-60zm60 0h60v60h-60zm60 0h60v60h-60zm60 0h60v60h-60zm60 0h60v60h-60z" fill="#fff"/><path d="m0 120h105v60h-105z" fill="#dfdfdf"/><path d="m105 120h60v60h-60zm60 0h60v60h-60zm60 0h60v60h-60zm60 0h60v60h-60zm60 0h60v60h-60zm60 0h60v60h-60zm60 0h60v60h-60zm60 0h60v60h-60zm60 0h60v60h-60zm60 0h60v60h-60zm60 0h60v60h-60z" fill="#fff"/><path d="m825 120h-15v-60h90v120h-75zm-825 60h75v60h-75z" fill="#dfdfdf"/><path d="m135 180h60v60h-60zm60 0h60v60h-60zm60 0h60v60h-60zm60 0h60v60h-60zm60 0h60v60h-60zm60 0h60v60h-60zm60 0h60v60h-60zm60 0h60v60h-60zm60 0h60v60h-60zm60 0h60v60h-60z" fill="#fff"/><path d="m735 180h165v60h-165zm-735 60h90v60h-90zm810 0h90v60h-90zm-660 0h90v60h-90zm450 0h90v60h-90z" fill="#dfdfdf"/><path d="m240 240h360v60h-360z" fill="#fff"/><path d="m90 240h60v60h-60zm600 0h60v60h-60zm60 0h60v60h-60z" fill="#efefef"/></g><path d="m75 19-1-7.7v-4.7h3.6v4.6l-0.9 7.7h-1.7m-1 4.8v-3.4h3.6v3.4h-3.5m0.9 30v-11h-4v-2.4h0.2c1.5 0 2.5-0.2 3.2-0.7 0.7-0.4 1-1.2 1.2-2.3h2.7v17h-3.3m60-47h2.2v6.5h-2.2v-6.5m-3.8 0h2.2v6.5h-2.2v-6.5m-3.2 47c0-1.5 0.3-2.7 1-3.8 0.6-1 1.7-2 3.3-3.2l1-0.6c2.1-1.4 3.2-2.7 3.2-4 0-0.7-0.2-1.3-0.7-1.7-0.4-0.4-1-0.6-1.8-0.6-0.9 0-1.5 0.2-2 0.8-0.4 0.5-0.7 1.2-0.7 2.2v0.1h-3c0-1.9 0.5-3.4 1.5-4.4s2.5-1.6 4.4-1.6c1.7 0 3.1 0.5 4.1 1.5s1.6 2.2 1.6 3.7c0 1.1-0.3 2.1-0.8 3-0.6 0.7-1.6 1.7-3.2 2.7l-1.3 1c-1.5 0.9-2.3 1.6-2.5 2h7.6v3h-12m61-5.2h3.3c0 1 0.2 1.7 0.7 2.1 0.4 0.5 1 0.7 2 0.7 0.8 0 1.5-0.2 2-0.6 0.4-0.5 0.6-1 0.6-2 0-0.7-0.3-1.4-0.8-1.8s-1.3-0.6-2.4-0.6a4.3 4.3 0 0 0-0.5 0v-2.3h0.4c1 0 1.7-0.2 2.1-0.6 0.5-0.4 0.7-1 0.7-1.7a2 2 0 0 0-0.6-1.6c-0.4-0.4-1-0.6-1.6-0.6-0.7 0-1.3 0.3-1.7 0.7s-0.6 1-0.6 1.9v0.1h-3.2c0-1.7 0.6-3 1.5-4 1-0.9 2.4-1.3 4.2-1.3a6 6 0 0 1 4 1.2 4 4 0 0 1 1.4 3.3c0 0.8-0.1 1.4-0.5 2-0.3 0.5-0.8 1-1.5 1.3 0.9 0.4 1.5 1 2 1.6 0.4 0.6 0.6 1.4 0.6 2.3a5 5 0 0 1-1.6 4 6.5 6.5 0 0 1-4.5 1.5c-2 0-3.4-0.5-4.4-1.4-1-1-1.5-2.3-1.5-4.1m64-27c0.6-0.1 1-0.4 1.4-0.7 0.4-0.4 0.5-1 0.5-1.5 0-0.6-0.1-1-0.5-1.4a3 3 0 0 0-1.4-0.9v4.5m-1.4-8v-4c-0.6 0-1.1 0.2-1.4 0.6-0.3 0.3-0.5 0.8-0.5 1.3s0.1 1 0.4 1.2c0.3 0.4 0.8 0.6 1.5 0.8m0 13v-2.3c-1.8 0-3.1-0.6-4-1.5-0.9-1-1.3-2.3-1.3-4h3.1c0 0.9 0.3 1.5 0.6 2 0.4 0.5 0.9 0.8 1.6 1v-4.9c-1.8-0.5-3.1-1-3.9-1.8a4 4 0 0 1-1.1-3c0-1.5 0.4-2.6 1.3-3.5 1-0.9 2.1-1.3 3.7-1.4v-1.5h1.4v1.6c1.5 0.1 2.7 0.6 3.5 1.4 0.9 0.8 1.3 2 1.4 3.5h-3.2a3 3 0 0 0-0.5-1.6c-0.3-0.4-0.7-0.6-1.2-0.7v4.3c1.9 0.6 3.2 1.3 4 2a4 4 0 0 1 1.2 3.1c0 1.5-0.4 2.7-1.4 3.6-0.9 0.9-2.2 1.4-3.8 1.5v2.3h-1.5m1.5 21v-7.2l-4.5 7.2h4.5m0 6.2v-3.7h-7.1v-3l6.2-9.7h4.1v10h2v2.7h-2v3.6h-3.2m66-34c0 0.6 0.2 1 0.6 1.4 0.3 0.3 0.7 0.5 1.3 0.5 0.5 0 0.9-0.2 1.2-0.5 0.4-0.4 0.6-0.9 0.6-1.4s-0.2-0.9-0.6-1.2c-0.3-0.4-0.7-0.6-1.2-0.6-0.6 0-1 0.2-1.3 0.6-0.4 0.3-0.6 0.7-0.6 1.2m-2.5 0c0-1.2 0.4-2.2 1.2-3 0.9-0.9 2-1.3 3.2-1.3s2.2 0.4 3 1.3c0.9 0.8 1.3 1.8 1.3 3s-0.4 2.3-1.3 3.1c-0.8 0.9-1.9 1.3-3 1.3-1.3 0-2.3-0.4-3.2-1.3a4.2 4.2 0 0 1-1.2-3m-6.9 4.2 10-17h1.9l-10 17h-2m-1-13a1.8 1.8 0 0 0 2.1 1.9c0.5 0 0.9-0.1 1.2-0.5 0.4-0.3 0.6-0.8 0.6-1.3s-0.2-1-0.6-1.3c-0.3-0.3-0.7-0.5-1.2-0.5a1.8 1.8 0 0 0-1.9 1.8m-2.5 0c0-1.2 0.4-2.2 1.3-3 0.8-1 1.8-1.4 3-1.4 1.3 0 2.3 0.5 3.1 1.3 0.9 0.9 1.3 2 1.3 3.1 0 1.2-0.4 2.3-1.3 3.1-0.8 0.8-1.8 1.3-3 1.3-1.3 0-2.3-0.4-3.1-1.3a4.2 4.2 0 0 1-1.3-3m3.4 38h3.2c0 0.8 0.3 1.3 0.8 1.7 0.4 0.4 1 0.6 1.7 0.6 1 0 1.6-0.2 2.1-0.8 0.5-0.5 0.7-1.3 0.7-2.3 0-0.9-0.2-1.6-0.7-2.1-0.5-0.6-1.2-0.9-2-0.9-0.5 0-1 0.1-1.3 0.3-0.4 0.2-0.7 0.5-1 1l-3-0.3 1.1-9h9.6v2.9h-7.2l-0.5 3.3c0.4-0.3 0.8-0.5 1.3-0.6 0.5-0.2 1-0.2 1.6-0.2 1.7 0 3 0.5 4 1.5s1.6 2.3 1.6 4c0 1.8-0.6 3.2-1.7 4.3a6.4 6.4 0 0 1-4.6 1.6c-1.7 0-3-0.4-4.1-1.3-1-0.9-1.6-2.1-1.6-3.7m62-33-1 0.6a2.5 2.5 0 0 0-0.3 3.8c0.4 0.5 1 0.7 1.7 0.7 0.5 0 1-0.1 1.4-0.3 0.5-0.2 0.9-0.5 1.3-1l-3.1-3.8m0.9-3.7 0.4-0.3c0.4-0.2 0.7-0.5 0.8-0.9 0.2-0.3 0.3-0.6 0.3-1 0-0.5-0.1-0.8-0.4-1-0.2-0.2-0.5-0.4-1-0.4-0.4 0-0.7 0.2-1 0.4-0.2 0.2-0.4 0.6-0.4 1l0.2 0.7 0.5 0.8 0.6 0.7m-2.6 1.6-0.7-1c-0.4-0.4-0.6-0.8-0.8-1.2l-0.2-1.3c0-1.3 0.4-2.3 1.2-3 0.8-0.8 1.9-1.1 3.3-1.1 1.3 0 2.3 0.3 3 1 0.9 0.7 1.2 1.6 1.2 2.7 0 1-0.2 1.7-0.6 2.4-0.5 0.7-1.2 1.3-2.2 2l2.5 3c0.3-0.4 0.4-0.8 0.6-1.3l0.3-1.6h3a8.7 8.7 0 0 1-2 5.2l3.1 3.8h-4l-1.1-1.4c-0.7 0.6-1.5 1.1-2.3 1.4a7 7 0 0 1-2.6 0.5c-1.6 0-2.9-0.5-3.9-1.4-1-1-1.5-2.2-1.5-3.6 0-1.1 0.3-2 0.8-2.9 0.6-0.7 1.5-1.5 2.9-2.2m64 40h-3.5c0-2.3 0.6-4.5 1.6-6.8 1-2.2 2.4-4.4 4.2-6.6h-8.2v-2.9h12v2.5a22 22 0 0 0-6 14m329 20-2 3-2-1.5 2.2-2.8-3.3-1 0.8-2.3 3.1 1.1v-3.3h2.3v3.3l3.2-1 0.8 2.3-3.3 0.9 2.2 2.8-2 1.5-2-3m-273-24c0 0.8 0.2 1.4 0.7 1.9 0.4 0.4 1 0.6 2 0.6 0.7 0 1.4-0.2 1.8-0.7 0.5-0.4 0.7-1 0.7-1.8s-0.2-1.4-0.7-2c-0.5-0.4-1-0.6-1.9-0.6-0.8 0-1.4 0.2-1.9 0.7s-0.7 1.1-0.7 1.9m0.2-7.2c0 0.6 0.2 1.1 0.7 1.5 0.4 0.3 1 0.5 1.7 0.5 0.8 0 1.3-0.2 1.7-0.6 0.5-0.3 0.7-0.8 0.7-1.4 0-0.7-0.2-1.2-0.7-1.5-0.4-0.4-1-0.6-1.7-0.6s-1.3 0.2-1.7 0.6-0.7 0.9-0.7 1.5m-1.2 3.2a4 4 0 0 1-1.5-1.4c-0.3-0.5-0.5-1.1-0.5-2 0-1.4 0.5-2.5 1.5-3.3 1-0.9 2.4-1.3 4.1-1.3s3.1 0.4 4.1 1.3c1 0.8 1.5 1.9 1.5 3.3 0 0.8-0.2 1.5-0.5 2-0.4 0.6-0.9 1-1.5 1.4 0.8 0.4 1.4 1 1.8 1.6 0.4 0.7 0.6 1.5 0.6 2.5 0 1.6-0.5 2.9-1.6 3.8-1 1-2.5 1.4-4.4 1.4-2 0-3.4-0.4-4.4-1.4-1.1-0.9-1.6-2.2-1.6-3.8 0-1 0.2-1.8 0.6-2.4 0.4-0.7 1-1.2 1.8-1.7m8-38a22 22 0 0 0-3.2 11 21 21 0 0 0 3.2 11h-2.5a24 24 0 0 1-3.1-5.6 16 16 0 0 1 0-11c0.7-1.9 1.7-3.8 3-5.6h2.6m58 36c0-1-0.2-1.7-0.7-2.3-0.4-0.6-1-0.8-2-0.8-0.7 0-1.3 0.2-1.7 0.8-0.5 0.5-0.7 1.3-0.7 2.2 0 1 0.2 1.7 0.7 2.2 0.4 0.5 1 0.7 1.9 0.7 0.8 0 1.4-0.2 1.9-0.7a3 3 0 0 0 0.7-2.1m0 4.4c-0.4 0.3-0.8 0.6-1.4 0.8-0.5 0.2-1 0.3-1.8 0.3-1.6 0-3-0.5-4-1.5-0.9-1-1.4-2.3-1.4-4s0.5-3.1 1.6-4.2 2.5-1.7 4.3-1.7c2 0 3.6 0.8 4.6 2.2a10 10 0 0 1 1.7 6.1c0 3-0.6 5.2-1.8 6.7a5.7 5.7 0 0 1-4.9 2.3c-1.5 0-2.6-0.3-3.6-1.1-0.9-0.8-1.4-1.8-1.4-3.2h3.3c0.1 0.6 0.3 1 0.7 1.3 0.3 0.2 0.8 0.4 1.4 0.4 0.9 0 1.5-0.4 2-1.2a7 7 0 0 0 0.7-3.2m-6.7-41h2.5c1.3 1.8 2.4 3.7 3 5.6 0.8 1.9 1.1 3.7 1.1 5.5s-0.3 3.6-1 5.5c-0.7 2-1.8 3.8-3.1 5.6h-2.5a22 22 0 0 0 3.2-11 20 20 0 0 0-3.2-11m62 39c0 2 0.2 3.5 0.6 4.4 0.4 1 1 1.4 2 1.4 0.9 0 1.5-0.5 2-1.4 0.3-1 0.5-2.4 0.5-4.4s-0.2-3.5-0.6-4.5c-0.4-0.9-1-1.3-2-1.3-0.8 0-1.5 0.4-2 1.3-0.3 1-0.5 2.4-0.5 4.5m-3.5 0c0-3 0.5-5 1.5-6.5 1-1.4 2.5-2.2 4.6-2.2 2 0 3.5 0.8 4.5 2.2 1 1.5 1.5 3.6 1.5 6.5s-0.5 5-1.5 6.5c-1 1.4-2.5 2-4.5 2s-3.6-0.6-4.6-2c-1-1.5-1.5-3.6-1.5-6.5m75 161h12v2.4h-12v-2.4m2.7 22v-3.3h6.6v3.2h-6.6m78-130h2.4v6h5.8v2.3h-5.8v6h-2.4v-6h-5.8v-2.3h5.8v-6m-156-82h14v2.4h-14v-2.4m0-5h14v2.2h-14v-2.3" font-family="'Swis721 BT'" font-size="24px" font-weight="700" text-anchor="middle"/><path d="m840 30h-43" fill="none" stroke="#000" stroke-width="3"/><path d="m802 38v-15l-15 7.5z" fill-rule="evenodd"/><path d="m54 82h-28" fill="none" stroke="#000" stroke-width="3"/><path d="m32 90v-15l-15 7.5z" fill-rule="evenodd"/><path d="m16 75v15m0 7.5h28" fill="none" stroke="#000" stroke-width="3"/><path d="m39 90v15l15-7.5z" fill-rule="evenodd"/><path d="m54 105v-15" fill="none" stroke="#000" stroke-width="3"/><g font-family="'Swis721 BT'" font-size="24px" font-weight="700" text-anchor="middle"><path d="m107 81-1.8-1.8 2-2 1.9 1.8 0.5-1.6c0.2-0.6 0.2-1.3 0.2-2 0-1.9-0.4-3.4-1.2-4.4-0.9-1-2-1.6-3.6-1.6-1.5 0-2.7 0.5-3.6 1.6-0.8 1-1.2 2.5-1.2 4.4a7 7 0 0 0 1.2 4.4c0.9 1 2 1.6 3.6 1.6a5 5 0 0 0 2-0.4m2.6 2.3-2 1-2.6 0.2a8 8 0 0 1-6.2-2.4 9.4 9.4 0 0 1-2.2-6.7c0-2.8 0.7-5 2.2-6.6a8 8 0 0 1 6.2-2.5 8 8 0 0 1 6.1 2.5 9.3 9.3 0 0 1 2.3 6.6c0 1.2-0.1 2.4-0.4 3.4a8 8 0 0 1-1.4 2.6l1.8 1.8-1.9 2-2-1.9m50 0.7-5-17h3.7l3 12 2.4-12h3.8l2.5 12 3-12h3.6l-5 17h-3.3l-2.7-13-2.7 13h-3.3m60 0v-17h13v3h-9v3.6h8.2v3h-8.3v4.4h9.5v3.2h-13m63-9.6h4.2c1 0 1.6-0.3 2-0.6 0.4-0.4 0.6-1 0.6-1.8 0-0.7-0.2-1.3-0.6-1.7s-1-0.6-1.8-0.6h-4.4v4.7m-3.5 9.7v-17h8.4c1.8 0 3.2 0.4 4.1 1.2 1 0.8 1.4 2 1.4 3.7 0 1-0.2 1.9-0.7 2.6-0.4 0.7-1 1.2-1.9 1.4 0.8 0.3 1.3 0.7 1.6 1.3 0.3 0.5 0.5 1.4 0.6 2.5v2.1c0 1 0.3 1.7 0.7 1.9v0.5h-3.9l-0.3-0.9v-1.2l-0.1-1.9c0-1-0.3-1.7-0.6-2.1-0.4-0.4-1-0.6-2-0.6h-3.8v6.7h-3.4m65 0v-14h-5v-3.1h14v3h-5.1v14h-3.6m-191 120h-3.5v-6.4l-6.3-11h4.4l3.7 7.4 3.4-7.4h4l-5.6 11v6.4m306-138h3.7v11c0 1.4 0.2 2.3 0.8 3 0.5 0.6 1.3 0.9 2.5 0.9s2-0.3 2.6-1c0.5-0.5 0.8-1.5 0.8-2.9v-11h3.5v11c0 2.1-0.6 3.8-1.8 4.9-1.1 1.1-2.9 1.7-5 1.7-2.3 0-4-0.6-5.2-1.7s-1.8-2.8-1.8-4.9v-11m65 18v-17h3.6v17h-3.6m57-8.6a7 7 0 0 0 1.2 4.4c0.9 1 2 1.6 3.6 1.6 1.5 0 2.7-0.5 3.6-1.6 0.8-1 1.2-2.5 1.2-4.4s-0.4-3.4-1.2-4.4c-0.9-1-2-1.6-3.6-1.6-1.5 0-2.7 0.5-3.6 1.6-0.8 1-1.2 2.5-1.2 4.4m-3.6 0c0-2.8 0.7-5 2.2-6.6a8 8 0 0 1 6.2-2.5 8 8 0 0 1 6.1 2.5 9.3 9.3 0 0 1 2.3 6.6c0 2.8-0.7 5-2.3 6.6a8 8 0 0 1-6.1 2.5 8 8 0 0 1-6.2-2.5 9.4 9.4 0 0 1-2.2-6.6m65-0.6h3.4c1 0 1.6-0.2 2-0.6 0.5-0.4 0.7-1 0.7-2 0-0.8-0.2-1.4-0.7-1.8-0.4-0.4-1-0.6-1.8-0.6h-3.6v5m0 3v6.2h-3.6v-17h7.7c1.8 0 3.2 0.4 4 1.4 1 1 1.5 2.3 1.5 4.1s-0.5 3.2-1.4 4.1c-0.9 1-2.2 1.5-3.9 1.5h-4.3"/><path d="m469 34v2.4a5 5 0 0 1-0.5 0c-0.8 0-1.3 0.1-1.6 0.4s-0.4 1-0.4 1.9v2.8c0 1.2-0.2 2-0.5 2.5-0.4 0.5-1 0.8-2 1 1 0.2 1.6 0.6 2 1 0.3 0.5 0.5 1.3 0.5 2.5v2.8c0 1 0.1 1.6 0.4 2 0.3 0.2 0.8 0.4 1.6 0.4a5 5 0 0 0 0.5 0v2.3a12 12 0 0 0-0.8 0l-2-0.1-1.3-0.5c-0.5-0.2-0.8-0.6-1-1a7 7 0 0 1-0.3-2.4v-3c0-1-0.2-1.8-0.6-2.2-0.4-0.5-1-0.7-2-0.7a3.8 3.8 0 0 0-0.4 0v-2.4a3.8 3.8 0 0 1 0.4 0c1 0 1.6-0.2 2-0.7 0.4-0.4 0.6-1.2 0.6-2.3v-2.7c0-1.1 0.1-1.9 0.3-2.4 0.2-0.4 0.5-0.8 1-1l1.3-0.5a11 11 0 0 1 2.8 0m54-0.1h6v2.5h-2.8v17h2.7v2.5h-5.9v-22m118 0h2.8l1.3 0.5c0.5 0.2 0.8 0.6 1 1 0.2 0.5 0.3 1.3 0.3 2.4v3c0 1 0.2 1.8 0.6 2.2 0.4 0.5 1 0.7 2 0.7a3.8 3.8 0 0 0 0.4 0v2.4h-0.4c-1 0-1.6 0.2-2 0.7-0.4 0.4-0.6 1.2-0.6 2.3v3c0 1-0.1 1.8-0.3 2.3a2 2 0 0 1-1 1l-1.3 0.5a11 11 0 0 1-2.8 0v-2.4a5 5 0 0 1 0.5 0c0.8 0 1.3-0.1 1.6-0.4s0.4-1 0.4-1.9v-2.8c0-1.2 0.2-2 0.5-2.5 0.4-0.4 1-0.8 2-1-1-0.2-1.6-0.6-2-1-0.3-0.5-0.5-1.3-0.5-2.5v-2.8c0-1-0.1-1.6-0.4-2-0.3-0.2-0.8-0.4-1.6-0.4a5 5 0 0 0-0.5 0v-2.3m-54 0v22h-6v-2.5h2.8v-17h-2.7v-2.5h6" fill="#00f"/><path d="m120 130-2.4 7.4h4.8l-2.4-7.4m-2-3.4h4l6.2 17h-3.7l-1.2-3.5h-6.7l-1 3.5h-3.8l6.1-17m55 12h3.5a3 3 0 0 0 1.1 2.1c0.7 0.5 1.6 0.7 2.8 0.7a4 4 0 0 0 2.4-0.6c0.5-0.3 0.7-0.9 0.7-1.6 0-1-1.5-2-4.5-2.6l-0.4-0.1c-1.7-0.4-2.8-0.8-3.5-1.2-0.6-0.4-1-0.9-1.4-1.6-0.3-0.6-0.5-1.4-0.5-2.3 0-1.7 0.6-3 1.7-3.9a7.8 7.8 0 0 1 5-1.3c2 0 3.6 0.5 4.7 1.4 1.2 1 1.8 2.3 1.8 4h-3.4c0-0.8-0.4-1.4-1-1.9a4 4 0 0 0-2.4-0.6c-1 0-1.7 0.2-2.2 0.5-0.5 0.4-0.7 1-0.7 1.6 0 0.9 1 1.6 3 2a970 970 0 0 1 3.8 1l1.4 0.7c0.7 0.4 1.2 0.9 1.6 1.5 0.3 0.7 0.5 1.4 0.5 2.3 0 1.8-0.6 3.2-1.8 4.2a8 8 0 0 1-5.1 1.5c-2.2 0-3.9-0.5-5.1-1.5a5.6 5.6 0 0 1-2-4.3m63 2.2h2.8c1.7 0 2.8-0.4 3.6-1.3 0.7-0.8 1.1-2.2 1.1-4.2s-0.3-3.3-1-4.2c-0.7-1-1.8-1.4-3.3-1.4h-3.2v11m-3.5 3.1v-17h6.7c2.7 0 4.7 0.7 6 2.1s2 3.6 2 6.5c0 1.6-0.3 3-0.8 4.2a6.5 6.5 0 0 1-4.4 4c-1 0.3-2.1 0.4-3.7 0.4h-5.8m61 0v-17h12v3h-8.5v3.9h7.5v3h-7.5v7.3h-3.5m71-2c-0.7 0.8-1.4 1.5-2.2 1.9s-1.8 0.6-2.9 0.6c-2.4 0-4.4-0.8-5.9-2.5a9.6 9.6 0 0 1-2.2-6.6c0-2.8 0.8-5 2.2-6.6a7.7 7.7 0 0 1 6-2.5c2.2 0 4 0.5 5.3 1.6 1.4 1 2.2 2.4 2.4 4.2h-3.6c-0.2-0.9-0.6-1.6-1.3-2-0.7-0.5-1.6-0.7-2.7-0.7a4 4 0 0 0-3.4 1.6 7 7 0 0 0-1.2 4.4c0 1.8 0.4 3.3 1.3 4.4 0.8 1 2 1.6 3.5 1.6 1.2 0 2-0.4 2.9-1 0.7-0.7 1.2-1.6 1.4-2.8h-4v-3h7.2v9.4h-2.4l-0.4-2m48 2v-17h3.5v6.4h7.2v-6.4h3.5v17h-3.5v-7.6h-7.2v7.6h-3.4m62-6.6h3.4v2c0 0.6 0.2 1.1 0.6 1.4 0.3 0.3 0.8 0.5 1.5 0.5s1.2-0.2 1.5-0.6 0.5-1 0.5-2.1v-12h3.5v12c0 1.1 0 2-0.2 2.4-0.1 0.6-0.3 1-0.6 1.4-0.5 0.6-1 1-1.9 1.3-0.8 0.3-1.7 0.5-2.8 0.5-1 0-1.8-0.2-2.5-0.4-0.8-0.3-1.4-0.7-2-1.2l-0.8-1.4-0.2-2.6v-1.3m58 6.6v-17h3.6v7l6.7-7h4.5l-7 7 7.6 10h-4.4l-5.6-7.9-1.8 1.9v6h-3.6m62 0v-17h3.6v14h8.4v3.2h-12m-196-60v-3l9.3-11h-9.2v-3.1h14v3l-9.4 11h9.2v3.1h-13m-196 120 5.4-8.8-5.4-8.4h4l3.6 6 3.5-6h4.1l-5.4 8.4 5.4 8.8h-4l-3.6-6-3.5 6h-4.1m76-5.9c-0.2 2-1 3.5-2.3 4.7a8 8 0 0 1-5.4 1.7c-2.5 0-4.5-0.8-6-2.4a9.8 9.8 0 0 1-2-6.7c0-3 0.6-5.2 2-6.8 1.5-1.5 3.6-2.3 6.3-2.3 2.2 0 4 0.5 5.2 1.6 1.3 1 2 2.6 2.2 4.6h-3.6c-0.1-1-0.5-1.7-1.1-2.3-0.7-0.5-1.6-0.7-2.7-0.7-1.5 0-2.7 0.5-3.5 1.5s-1.3 2.5-1.3 4.4 0.4 3.3 1.3 4.3c0.8 1 2 1.6 3.4 1.6 1 0 2-0.3 2.7-0.8 0.6-0.6 1-1.4 1.3-2.4h3.5m50 5.9-6-17h4l3.7 13 3.7-13h4l-6 17h-3.4m58-3.1h4.2c1 0 1.7-0.2 2.2-0.5 0.4-0.4 0.7-1 0.7-1.7 0-0.8-0.2-1.4-0.7-1.8-0.4-0.3-1.2-0.5-2.2-0.5h-4.2v4.5m0-7.5h4c1 0 1.6-0.1 2-0.4s0.6-0.8 0.6-1.4c0-0.7-0.2-1.1-0.6-1.4s-1-0.4-2-0.4h-4v3.6m-3.4 11v-17h8.2c1.7 0 3 0.3 4 1 1 0.8 1.4 2 1.4 3.3 0 1-0.2 1.6-0.5 2.2-0.4 0.6-0.9 1-1.6 1.4 1 0.4 1.6 0.9 2 1.5 0.5 0.7 0.7 1.6 0.7 2.6 0 1.6-0.6 3-1.7 3.9a7 7 0 0 1-4.6 1.3h-7.9m60 0v-17h3.7l7 12v-12h3.5v17h-3.7l-7-12v12h-3.5m58 0v-17h5.3l3.4 13 3.4-13h5.3v17h-3.4v-14l-3.5 14h-3.6l-3.5-14v14h-3.4"/></g><path d="m861 128v-15l-15 7.5z" fill-rule="evenodd"/><path d="m884 106v15h-30" fill="none" stroke="#000" stroke-width="3"/><path d="m27 196-11 15h7.5v7.5h7.5v-7.5h7.5l-11-15zm728 0-11 15h7.5v7.5h7.5v-7.5h7.5l-11-15z" fill="none" stroke="#000" stroke-width="2"/><g font-family="'Swis721 BT'" font-weight="700" text-anchor="middle"><path d="m673 19a6.4 6.4 0 0 0 0-0.7l0.2-1.7c0.2-0.4 0.4-0.9 0.8-1.3l1-1 1-0.8 0.7-1 0.2-0.9c0-0.7-0.2-1.3-0.7-1.7-0.4-0.4-1-0.6-1.7-0.6s-1.3 0.2-1.7 0.7c-0.5 0.5-0.7 1.2-0.7 2.1h-3.3v-0.4c0-1.6 0.5-3 1.5-3.9a6 6 0 0 1 4.2-1.5c1.8 0 3.3 0.5 4.3 1.4 1.1 1 1.6 2.2 1.6 3.7l-0.1 1.5-0.6 1.2c-0.3 0.4-0.8 1-1.5 1.5l-1.2 1c-0.3 0.2-0.5 0.5-0.6 0.9a3.2 3.2 0 0 0-0.2 1.5h-3.2m-0.1 5v-3.4h3.4v3.4h-3.4m-242 2.3 5.8-20h1.6l-5.7 20h-1.6" font-size="24px"/><path d="m263 108c-0.2 2-1 3.5-2.3 4.7a8 8 0 0 1-5.4 1.7c-2.5 0-4.5-0.8-6-2.4a9.8 9.8 0 0 1-2-6.7c0-3 0.7-5.2 2.1-6.7 1.4-1.6 3.5-2.4 6.2-2.4 2.2 0 4 0.6 5.2 1.6 1.3 1.1 2 2.6 2.2 4.6h-3.5c-0.2-1-0.6-1.7-1.2-2.2-0.7-0.6-1.6-0.8-2.7-0.8-1.5 0-2.7 0.5-3.5 1.5s-1.2 2.5-1.2 4.4 0.4 3.3 1.2 4.4c0.8 1 2 1.5 3.4 1.5 1 0 2-0.3 2.7-0.8 0.7-0.6 1.1-1.4 1.3-2.4h3.5" fill="#00f" font-size="24px"/><path d="m244 106h11l-0.7 1.4h-11l0.8-1.4m1.5-3h11l-0.7 1.4h-11l0.7-1.4" fill="#00f" font-size="17px"/><path d="m372 48c0 1 0.2 1.7 0.7 2.3 0.5 0.5 1.1 0.8 2 0.8 0.7 0 1.3-0.2 1.8-0.8 0.4-0.5 0.6-1.3 0.6-2.3a3 3 0 0 0-0.7-2c-0.4-0.6-1-0.8-1.9-0.8-0.8 0-1.4 0.2-1.9 0.7a3 3 0 0 0-0.6 2.1m0-4.4c0.3-0.4 0.7-0.7 1.3-0.9a5 5 0 0 1 1.8-0.3c1.6 0 3 0.5 4 1.5s1.4 2.4 1.4 4c0 1.8-0.5 3.2-1.6 4.3-1 1-2.5 1.6-4.3 1.6-2 0-3.6-0.7-4.6-2-1-1.5-1.6-3.5-1.6-6.3 0-2.9 0.6-5 1.7-6.6a5.7 5.7 0 0 1 4.9-2.4c1.5 0 2.7 0.4 3.6 1.2s1.4 1.8 1.5 3.2h-3.4c0-0.6-0.3-1-0.6-1.3-0.4-0.2-0.9-0.4-1.5-0.4-0.8 0-1.5 0.4-2 1.1-0.4 0.7-0.6 1.8-0.7 3.3" font-size="24px"/></g><path d="m765 120h60v60h-60z" fill="#fff" fill-rule="evenodd" stroke="#000"/><path d="m803 104v2.6c-0.9 0.6-1.6 1-2.4 1.2a6.3 6.3 0 0 1-4.3 0l-0.8-0.2c-1.7-0.6-3-1-3.9-1-0.7 0-1.4 0.2-2 0.5-0.8 0.3-1.6 0.8-2.5 1.4v-2.6c0.8-0.5 1.6-1 2.4-1.2 0.7-0.3 1.5-0.4 2.1-0.4a11 11 0 0 1 4.1 0.9c1.2 0.4 2.2 0.6 2.8 0.6 0.7 0 1.4-0.1 2-0.4 0.8-0.3 1.6-0.8 2.4-1.4" fill="#00f" font-family="'Swis721 BT'" font-size="24px" font-weight="700" text-anchor="middle"/><path d="m779 164-1 2.9h3l1-3h-3m0-7.1h2.7l-1.7 4.8h2.8l1.7-4.8h2.6l-1.7 4.8h3.3l-0.9 2.4h-3.2l-1 2.8h3.4l-0.9 2.4h-3.4l-1.7 4.8h-2.6l1.7-4.8h-2.8l-1.8 4.8h-2.5l1.7-4.8h-3.4l0.9-2.4h3.3l1-2.8h-3.5l0.9-2.4h3.5l1.7-4.8" font-family="'Swis721 BT'" font-size="24px" font-weight="700" text-anchor="middle"/><path d="m75 180h60v60h-60z" fill="#fff" fill-rule="evenodd" stroke="#000"/><g font-family="'Swis721 BT'" font-size="24px" font-weight="700" text-anchor="middle"><path d="m161 47c0-0.9 0.2-1.7 0.6-2.3a7 7 0 0 1 2.2-1.9l0.6-0.4c1.4-0.8 2.2-1.6 2.2-2.3 0-0.5-0.2-0.8-0.5-1-0.3-0.3-0.7-0.5-1.2-0.5s-1 0.2-1.3 0.5-0.4 0.8-0.4 1.4h-2c0-1.1 0.3-2 1-2.6 0.6-0.6 1.6-1 2.9-1 1.1 0 2 0.4 2.7 1 0.7 0.5 1 1.2 1 2.1 0 0.7-0.2 1.3-0.5 1.8-0.4 0.5-1 1-2 1.7l-1 0.5c-1 0.6-1.5 1-1.6 1.3h5v1.7h-7.6m60-3.1h2c0 0.6 0.2 1 0.5 1.3s0.7 0.4 1.3 0.4 1-0.1 1.3-0.4c0.3-0.2 0.5-0.6 0.5-1.1s-0.2-0.9-0.6-1.1c-0.3-0.3-0.8-0.4-1.6-0.4h-0.3v-1.4h0.3c0.6 0 1-0.1 1.4-0.3 0.3-0.3 0.5-0.6 0.5-1 0-0.5-0.2-0.8-0.4-1-0.3-0.2-0.7-0.3-1.1-0.3-0.5 0-0.9 0-1.1 0.4-0.3 0.2-0.4 0.6-0.4 1v0.1h-2.1c0-1 0.3-1.8 1-2.3a4 4 0 0 1 2.7-0.8c1 0 2 0.2 2.6 0.7 0.7 0.5 1 1.1 1 2 0 0.4-0.1 0.8-0.4 1.1-0.2 0.4-0.5 0.6-1 0.8 0.6 0.3 1 0.6 1.3 1s0.5 0.9 0.5 1.4a3 3 0 0 1-1.1 2.4c-0.7 0.6-1.7 0.9-3 0.9-1.2 0-2.2-0.3-2.9-0.9a3 3 0 0 1-1-2.4" fill="#00f"/><path d="m196 18 0.7-0.7c0.2-0.2 0.2-0.4 0.2-0.7s0-0.5-0.2-0.8l-1.1-0.7-3.1-1.6-0.7 0.6c-0.2 0.2-0.3 0.5-0.3 0.7 0 0.3 0.1 0.6 0.4 0.8 0.2 0.2 0.7 0.6 1.5 1l2.6 1.3m-6.4 3.9h3c0 0.6 0.2 1 0.5 1.3s0.7 0.5 1.3 0.5c0.5 0 0.9-0.2 1.2-0.4 0.3-0.3 0.4-0.6 0.4-1s0-0.7-0.3-1l-1.3-0.8-2.8-1.4c-1-0.4-1.6-1-2-1.5-0.5-0.6-0.7-1.3-0.7-2s0.2-1.3 0.5-1.8c0.4-0.5 0.9-1 1.5-1.3-0.4-0.4-0.7-0.8-0.8-1.2-0.2-0.4-0.3-0.9-0.3-1.4 0-1.2 0.4-2 1.2-2.8 0.8-0.7 1.9-1 3.2-1 1.4 0 2.4 0.3 3.2 1s1.2 1.6 1.2 2.9h-2.7c0-0.5-0.2-1-0.5-1.2-0.3-0.3-0.7-0.4-1.3-0.4-0.4 0-0.8 0-1 0.3a1 1 0 0 0-0.5 0.9c0 0.3 0.2 0.6 0.5 0.9l1.7 1 2 0.8c1 0.5 1.7 1 2.1 1.6 0.5 0.6 0.8 1.3 0.8 2a3.4 3.4 0 0 1-2 3l1 1.4c0.1 0.5 0.3 1 0.3 1.6 0 1.2-0.5 2.2-1.3 3-0.9 0.8-2 1.2-3.3 1.2-1.5 0-2.7-0.4-3.5-1-0.8-0.8-1.2-1.9-1.3-3.3m479 32v-13c0-1.3 0.5-2.3 1.5-3.1 1-0.9 2.3-1.3 4-1.3s3 0.4 4 1.2a4 4 0 0 1 1.5 3.2c0 0.9-0.2 1.6-0.4 2.1-0.3 0.6-0.8 1-1.4 1.3 1 0.3 1.7 0.9 2.1 1.6 0.5 0.7 0.7 1.6 0.7 2.6a6 6 0 0 1-1.5 4.2c-1 1.1-2.3 1.7-4 1.7a9.3 9.3 0 0 1-1.6-0.2v-2.7a4 4 0 0 0 0.8 0c1 0 1.6-0.2 2.1-0.7 0.5-0.6 0.8-1.3 0.8-2.2 0-1-0.3-1.6-0.9-2.1-0.5-0.5-1.3-0.7-2.3-0.7h-0.3v-2.5a6.5 6.5 0 0 0 0.4 0c0.7 0 1.2-0.2 1.6-0.5 0.3-0.4 0.5-0.9 0.5-1.5 0-0.7-0.2-1.2-0.6-1.6-0.3-0.3-0.9-0.5-1.6-0.5s-1.2 0.2-1.6 0.6c-0.3 0.4-0.5 1-0.5 1.7v12h-3.3m-41 141v-3.7h3.6v3.6h-3.6m0 9v-3.6h3.6v3.5h-3.6m-60-8.8v-3.7h3.6v3.6h-3.6m0 13v-1.4c0.7-0.2 1.2-0.5 1.5-0.9 0.3-0.3 0.5-0.9 0.5-1.5v-0.3h-2v-3.5h3.6v3.4c0 1.2-0.3 2.1-1 2.8-0.5 0.7-1.4 1.2-2.6 1.4m0 30v-1.4c0.7-0.2 1.2-0.5 1.5-0.9 0.3-0.3 0.4-0.9 0.4-1.5v-0.3h-1.9v-3.5h3.6v3.4c0 1.2-0.3 2-1 2.8-0.5 0.7-1.4 1.2-2.6 1.4m60-4.1v-3.5h3.5v3.5h-3.5m-531-14v2.6l-10 4.3 10 4.2v2.6l-14-5.7v-2.3l14-5.7m-14-30 14 5.7v2.3l-14 5.7v-2.6l10-4.2-10-4.3v-2.6m637-60-2.4 7.4h4.8l-2.4-7.4m-2-3.4h4l6.2 17h-3.7l-1.2-3.5h-6.7l-1 3.5h-3.8l6.1-17m2.8-2.2v-3h2.7v3h-2.7m-4 0v-3h2.6v3h-2.7m-19-58h3.7v11c0 1.3 0.2 2.3 0.8 2.9 0.5 0.6 1.3 0.9 2.5 0.9s2-0.3 2.6-1c0.5-0.5 0.8-1.5 0.8-2.8v-11h3.5v11c0 2.2-0.6 3.8-1.8 5-1.1 1-2.9 1.6-5 1.6-2.3 0-4-0.6-5.2-1.7s-1.8-2.7-1.8-4.9v-11m7.6-2.1v-3h2.7v3h-2.7m-4 0v-3h2.6v3h-2.6m-46 71a7 7 0 0 0 1.2 4.4c0.9 1 2 1.6 3.6 1.6 1.5 0 2.7-0.5 3.6-1.6 0.8-1 1.2-2.5 1.2-4.4s-0.4-3.4-1.2-4.4c-0.9-1-2-1.6-3.6-1.6-1.5 0-2.7 0.5-3.6 1.6-0.8 1-1.2 2.5-1.2 4.4m-3.6 0c0-2.8 0.7-5 2.2-6.6a8 8 0 0 1 6.2-2.5 8 8 0 0 1 6.1 2.5 9.3 9.3 0 0 1 2.3 6.6c0 2.8-0.7 5-2.3 6.7a8 8 0 0 1-6.1 2.4 8 8 0 0 1-6.2-2.4 9.4 9.4 0 0 1-2.2-6.7m9.1-11v-3h2.7v3h-2.7m-4 0v-3h2.6v3h-2.7"/><path d="m136 110c-0.5 0.7-1 1.2-1.5 1.5-0.6 0.3-1.2 0.5-2 0.5-1.2 0-2.2-0.4-2.8-1-0.7-0.7-1-1.7-1-3a7 7 0 0 1 1.6-4.7c1.1-1.3 2.5-2 4-2 0.7 0 1.2 0.2 1.7 0.5 0.5 0.2 0.8 0.6 1.1 1.1l0.7-1.1h2l-1.7 7a2.7 2.7 0 0 0 0 0.4c0 0.3 0 0.5 0.2 0.7l0.9 0.2 0.9-0.3 1-0.6c0.6-0.6 1.1-1.4 1.5-2.2a7 7 0 0 0 0.5-2.8c0-1.8-0.7-3.4-2.2-4.6a8.4 8.4 0 0 0-5.6-1.8c-1 0-2.1 0.1-3 0.4a9.3 9.3 0 0 0-5.6 4.5c-0.8 1.4-1.2 2.8-1.2 4.4 0 2.4 0.8 4.3 2.4 5.8a9.4 9.4 0 0 0 6.5 2.1 12 12 0 0 0 7.1-2.2l1 1.3a14 14 0 0 1-12 2.2c-1.2-0.4-2.3-1-3.3-1.7-1.2-1-2.1-2-2.7-3.3a9.5 9.5 0 0 1-1-4.2c0-1.3 0.3-2.5 0.7-3.7a11 11 0 0 1 6-6.4 13 13 0 0 1 12 1 7.8 7.8 0 0 1 3.1 6.4c0 1.2-0.2 2.4-0.7 3.5-0.5 1-1.2 2-2.2 2.7a6 6 0 0 1-3.8 1.3c-0.8 0-1.5 0-1.9-0.4-0.4-0.3-0.6-0.8-0.6-1.5m0.6-5c-0.1-0.6-0.4-1-0.7-1.4-0.4-0.3-0.8-0.5-1.4-0.5-0.9 0-1.7 0.5-2.3 1.4a6 6 0 0 0-1 3.5c0 0.7 0.2 1.3 0.5 1.7 0.3 0.3 0.8 0.5 1.4 0.5s1.2-0.2 1.7-0.7c0.6-0.5 1-1.1 1.1-2l0.7-2.5m570-50-5.8-20h1.6l5.9 20h-1.7" fill="#00f"/><path d="m779 127h2.2v6.5h-2.1v-6.5"/><path d="m738 35-3.7 4.4h-1.6l2.3-4.4h3m-6.4-30h3l2.3 4.4h-1.6l-3.7-4.4" fill="#f00"/><path d="m536 221h3.4l-0.9 5.1a24 24 0 0 0-0.3 3.2c0 0.7 0.1 1.2 0.5 1.6 0.3 0.4 0.8 0.5 1.5 0.5a2 2 0 0 0 1.8-1c0.4-0.6 0.8-1.7 1-3.3l1.1-6h3.4l-2.3 13h-3l0.2-1.3c-0.3 0.6-0.7 1-1 1.3-0.5 0.3-1 0.4-1.5 0.4s-1-0.1-1.4-0.3c-0.4-0.3-0.8-0.6-1.1-1.1l-1 6.2h-3.4l3.1-18m-417-7.8h2.4v24h-2.4v-24" fill="#00f"/><path d="m15 8a2 2 0 0 0-1.5 0.6 2 2 0 0 0-0.5 1.4c0 0.6 0.2 1 0.6 1.5 0.4 0.4 1 0.6 1.5 0.6 0.6 0 1-0.2 1.4-0.6s0.6-1 0.6-1.5-0.2-1-0.6-1.4a2 2 0 0 0-1.5-0.6m0-1.5c1 0 1.8 0.3 2.5 1s1 1.6 1 2.5c0 1-0.3 1.9-1 2.6s-1.5 1-2.5 1-1.8-0.3-2.5-1-1-1.6-1-2.6 0.3-1.8 1-2.5 1.5-1 2.5-1"/><path d="m13 36h3l5.6 6.6h-2.7l-4.4-4.4-4.3 4.4h-2.8l5.6-6.6" fill="#f00"/></g><path d="m27 166 11-15h-7.5v-7.6h-7.5v7.6h-7.5z" fill="none" stroke="#000" stroke-width="2"/><g font-family="'Swis721 BT'" font-size="16px" font-weight="700" text-anchor="middle"><text x="30.200001" y="276" text-align="center" style="line-height:125%"><tspan x="30.200001" y="276">Strg</tspan></text><text x="832.70001" y="276" text-align="center" style="line-height:125%"><tspan x="832.70001" y="276">Strg</tspan></text><text x="167.7" y="275.70001" text-align="center" style="line-height:125%"><tspan x="167.7" y="275.70001">Alt</tspan></text><text x="629.29999" y="276" fill="#0000ff" text-align="center" style="line-height:125%"><tspan x="629.29999" y="276">Alt Gr</tspan></text><text x="120" y="275.70001" text-align="center" style="line-height:125%"><tspan x="120" y="275.70001">(Win)</tspan></text><text x="720" y="275.70001" text-align="center" style="line-height:125%"><tspan x="720" y="275.70001">(Win)</tspan></text><text x="779.90002" y="275.70001" text-align="center" style="line-height:125%"><tspan x="779.90002" y="275.70001">(Menu)</tspan></text></g></g></svg>
