<svg xmlns="http://www.w3.org/2000/svg" width="900" height="300" version="1"><path fill="#fff" fill-rule="evenodd" stroke="#000" d="M0 0h60v60H0V0zM60 0h60v60H60V0zM120 0h60v60h-60V0zM180 0h60v60h-60V0zM240 0h60v60h-60V0zM300 0h60v60h-60V0zM360 0h60v60h-60V0zM420 0h60v60h-60V0zM480 0h60v60h-60V0zM540 0h60v60h-60V0zM600 0h60v60h-60V0zM660 0h60v60h-60V0zM720 0h60v60h-60V0z"/><path fill="#dfdfdf" fill-rule="evenodd" stroke="#000" d="M780 0h120v60H780V0zM0 60h90v60H0V60z"/><path fill="#fff" fill-rule="evenodd" stroke="#000" d="M90 60h60v60H90V60zM150 60h60v60h-60V60zM210 60h60v60h-60V60zM270 60h60v60h-60V60zM330 60h60v60h-60V60zM390 60h60v60h-60V60zM450 60h60v60h-60V60zM510 60h60v60h-60V60zM570 60h60v60h-60V60zM630 60h60v60h-60V60zM690 60h60v60h-60V60zM750 60h60v60h-60V60zM810 60h90v60h-90V60z"/><path fill="#dfdfdf" fill-rule="evenodd" stroke="#000" d="M0 120h105v60H0v-60z"/><path fill="#fff" fill-rule="evenodd" stroke="#000" d="M105 120h60v60h-60v-60zM165 120h60v60h-60v-60zM225 120h60v60h-60v-60zM285 120h60v60h-60v-60zM345 120h60v60h-60v-60zM405 120h60v60h-60v-60zM465 120h60v60h-60v-60zM525 120h60v60h-60v-60zM585 120h60v60h-60v-60zM645 120h60v60h-60v-60zM705 120h60v60h-60v-60z"/><path fill="#dfdfdf" fill-rule="evenodd" stroke="#000" d="M765 120h135v60H765v-60zM0 180h135v60H0v-60z"/><path fill="#fff" fill-rule="evenodd" stroke="#000" d="M135 180h60v60h-60v-60zM195 180h60v60h-60v-60zM255 180h60v60h-60v-60zM315 180h60v60h-60v-60zM375 180h60v60h-60v-60zM435 180h60v60h-60v-60zM495 180h60v60h-60v-60zM555 180h60v60h-60v-60zM615 180h60v60h-60v-60zM675 180h60v60h-60v-60z"/><path fill="#dfdfdf" fill-rule="evenodd" stroke="#000" d="M735 180h165v60H735v-60zM0 240h90v60H0v-60zM810 240h90v60h-90v-60zM150 240h90v60h-90v-60zM600 240h90v60h-90v-60z"/><path fill="#fff" fill-rule="evenodd" stroke="#000" d="M240 240h360v60H240v-60z"/><path fill="#efefef" fill-rule="evenodd" stroke="#000" d="M90 240h60v60H90v-60zM690 240h60v60h-60v-60zM750 240h60v60h-60v-60z"/><path d="M75.4 18.8l-1-7.7V6.4H78V11l-.9 7.7h-1.7m-1 4.8v-3.4H78v3.4h-3.5m.9 30V42.2h-4v-2.4h.2c1.5 0 2.5-.2 3.2-.7.7-.4 1-1.2 1.2-2.3h2.7v16.8h-3.3M23.3 14.2v2.6c-.8.6-1.5 1-2.3 1.2a6.3 6.3 0 0 1-4.3 0l-.8-.2c-1.7-.6-3-1-3.9-1-.7 0-1.3.2-2 .5-.8.3-1.6.8-2.5 1.4v-2.6c.8-.5 1.6-1 2.4-1.2.7-.3 1.5-.4 2.1-.4a11.2 11.2 0 0 1 4.1.9c1.2.4 2.2.6 2.8.6.7 0 1.4-.1 2.1-.4.7-.3 1.5-.8 2.3-1.4M12 35h3l2.3 4.4h-1.6L12 35M136.5 20.4c-.5.7-1 1.2-1.5 1.5-.6.3-1.2.5-2 .5-1.2 0-2.2-.4-2.8-1-.7-.7-1-1.7-1-3a7 7 0 0 1 1.6-4.7c1.1-1.3 2.5-2 4-2 .7 0 1.2.2 1.7.5.5.2.8.6 1.1 1.1l.7-1.1h2l-1.7 7a2.7 2.7 0 0 0 0 .4c0 .3 0 .5.2.7l.9.2.9-.3 1-.6c.6-.6 1.1-1.4 1.5-2.2a7 7 0 0 0 .5-2.8c0-1.8-.7-3.4-2.2-4.6a8.4 8.4 0 0 0-5.6-1.8c-1 0-2.1.1-3 .4a9.3 9.3 0 0 0-5.6 4.5c-.8 1.4-1.2 2.8-1.2 4.4 0 2.4.8 4.3 2.4 5.8a9.4 9.4 0 0 0 6.5 2.1 12.1 12.1 0 0 0 7.1-2.2l1 1.3a13.5 13.5 0 0 1-12.2 2.2c-1.2-.4-2.3-1-3.3-1.7-1.2-1-2.1-2-2.7-3.3a9.5 9.5 0 0 1-1-4.2c0-1.3.3-2.5.7-3.7a11.3 11.3 0 0 1 6-6.4 13.1 13.1 0 0 1 12.1 1 7.8 7.8 0 0 1 3.1 6.4c0 1.2-.2 2.4-.7 3.5-.5 1-1.2 2-2.2 2.7a6 6 0 0 1-3.8 1.3c-.8 0-1.5 0-1.9-.4-.4-.3-.6-.8-.6-1.5m.6-5c-.1-.6-.4-1-.7-1.4-.4-.3-.8-.5-1.4-.5-.9 0-1.7.5-2.3 1.4a6 6 0 0 0-1 3.5c0 .7.2 1.3.5 1.7.3.3.8.5 1.4.5.6 0 1.2-.2 1.7-.7.6-.5 1-1.1 1.1-2l.7-2.5m-8.5 38.2c0-1.5.3-2.7 1-3.8.6-1 1.7-2 3.3-3.2l1-.6c2.1-1.4 3.2-2.7 3.2-4 0-.7-.2-1.3-.7-1.7-.4-.4-1-.6-1.8-.6-.9 0-1.5.2-2 .8-.4.5-.7 1.2-.7 2.2v.1h-3c0-1.9.5-3.4 1.5-4.4 1-1 2.5-1.6 4.4-1.6 1.7 0 3.1.5 4.1 1.5 1 1 1.6 2.2 1.6 3.7 0 1.1-.3 2.1-.8 3-.6.7-1.6 1.7-3.2 2.7l-1.3 1c-1.5.9-2.3 1.6-2.5 2h7.6v3h-11.7M195.3 13.7l-1 2.9h2.9l1-3h-3m0-7.1h2.7l-1.7 4.8h2.8l1.7-4.8h2.6l-1.7 4.8h3.3l-.9 2.4h-3.2l-1 2.8h3.4l-.9 2.4H199l-1.7 4.8h-2.6l1.7-4.8h-2.8l-1.8 4.8h-2.5l1.7-4.8h-3.4l.9-2.4h3.3l1-2.8h-3.5l.9-2.4h3.4l1.8-4.8m-5.2 42h3.2c0 1 .2 1.7.7 2.1.4.5 1 .7 2 .7.8 0 1.5-.2 2-.6.4-.5.6-1 .6-2 0-.7-.3-1.4-.8-1.8-.5-.4-1.3-.6-2.4-.6a4.3 4.3 0 0 0-.5 0V44h.4c1 0 1.7-.2 2.1-.6.5-.4.7-1 .7-1.7a2 2 0 0 0-.6-1.6c-.4-.4-1-.6-1.6-.6-.7 0-1.3.3-1.7.7-.4.4-.6 1-.6 1.9v.1h-3.2c0-1.7.6-3 1.5-4 1-.9 2.4-1.3 4.2-1.3a6 6 0 0 1 4 1.2 4 4 0 0 1 1.4 3.3c0 .8-.1 1.4-.5 2-.3.5-.8 1-1.5 1.3.9.4 1.5 1 2 1.6.4.6.6 1.4.6 2.3a5 5 0 0 1-1.6 4 6.5 6.5 0 0 1-4.5 1.5c-2 0-3.4-.5-4.4-1.4-1-1-1.5-2.3-1.5-4.1M254.5 21.5c.6-.1 1-.4 1.4-.7.4-.4.5-1 .5-1.5 0-.6-.1-1-.5-1.4a3 3 0 0 0-1.4-.9v4.5m-1.4-8v-4c-.6 0-1.1.2-1.4.6-.3.3-.5.8-.5 1.3s.1 1 .4 1.2c.3.4.8.6 1.5.8m0 12.9V24c-1.8 0-3.1-.6-4-1.5-.9-1-1.3-2.3-1.3-4h3.1c0 .9.3 1.5.6 2 .4.5.9.8 1.6 1v-4.9c-1.8-.5-3.1-1-3.9-1.8a4 4 0 0 1-1.1-3c0-1.5.4-2.6 1.3-3.5 1-.9 2.1-1.3 3.7-1.4V5.4h1.4V7c1.5.1 2.7.6 3.5 1.4.9.8 1.3 2 1.4 3.5h-3.2a3 3 0 0 0-.5-1.6c-.3-.4-.7-.6-1.2-.7v4.3c1.9.6 3.2 1.3 4 2a4 4 0 0 1 1.2 3.1c0 1.5-.4 2.7-1.4 3.6-.9.9-2.2 1.4-3.8 1.5v2.3H253m1.5 21.1v-7.2l-4.5 7.2h4.5m0 6.2V50h-7.1v-3l6.2-9.7h4.1v10h2V50h-2v3.6h-3.2M320.4 19.7c0 .6.2 1 .6 1.4.3.3.7.5 1.3.5.5 0 .9-.2 1.2-.5.4-.4.6-.9.6-1.4 0-.5-.2-.9-.6-1.2-.3-.4-.7-.6-1.2-.6-.6 0-1 .2-1.3.6-.4.3-.6.7-.6 1.2m-2.5 0c0-1.2.4-2.2 1.2-3 .9-.9 2-1.3 3.2-1.3 1.2 0 2.2.4 3 1.3.9.8 1.3 1.8 1.3 3s-.4 2.3-1.3 3.1c-.8.9-1.9 1.3-3 1.3-1.3 0-2.3-.4-3.2-1.3a4.2 4.2 0 0 1-1.2-3M311 24l10-17.3h1.9l-10 17.3h-2m-1-12.9A1.8 1.8 0 0 0 312 13c.5 0 .9-.1 1.2-.5.4-.3.6-.8.6-1.3s-.2-1-.6-1.3c-.3-.3-.7-.5-1.2-.5a1.8 1.8 0 0 0-1.9 1.8m-2.5 0c0-1.2.4-2.2 1.3-3 .8-1 1.8-1.4 3-1.4 1.3 0 2.3.5 3.1 1.3.9.9 1.3 2 1.3 3.1 0 1.2-.4 2.3-1.3 3.1-.8.8-1.8 1.3-3 1.3-1.3 0-2.3-.4-3.1-1.3a4.2 4.2 0 0 1-1.3-3m3.4 37.8h3.2c0 .8.3 1.3.8 1.7.4.4 1 .6 1.7.6 1 0 1.6-.2 2.1-.8.5-.5.7-1.3.7-2.3 0-.9-.2-1.6-.7-2.1-.5-.6-1.2-.9-2-.9-.5 0-1 .1-1.3.3-.4.2-.7.5-1 1l-3-.3 1.1-9h9.6v2.9H315l-.5 3.3c.4-.3.8-.5 1.3-.6.5-.2 1-.2 1.6-.2 1.7 0 3 .5 4 1.5s1.6 2.3 1.6 4c0 1.8-.6 3.2-1.7 4.3a6.4 6.4 0 0 1-4.6 1.6c-1.7 0-3-.4-4.1-1.3-1-.9-1.6-2.1-1.6-3.7M373.1 6.5h3l5.6 6.6H379l-4.4-4.4-4.3 4.4h-2.8l5.6-6.6m-1 41.8c0 1 .3 1.7.8 2.3.5.5 1.1.8 2 .8.7 0 1.3-.2 1.8-.8.4-.5.6-1.3.6-2.3a3 3 0 0 0-.7-2c-.4-.6-1-.8-1.9-.8-.8 0-1.4.2-1.9.7a3 3 0 0 0-.6 2.1m0-4.4c.3-.4.7-.7 1.3-.9a5 5 0 0 1 1.8-.3c1.6 0 3 .5 4 1.5s1.4 2.4 1.4 4c0 1.8-.5 3.2-1.6 4.3-1 1-2.5 1.6-4.3 1.6-2 0-3.6-.7-4.6-2-1-1.5-1.6-3.5-1.6-6.3 0-2.9.6-5 1.7-6.6a5.7 5.7 0 0 1 4.9-2.4c1.5 0 2.7.4 3.6 1.2.9.8 1.4 1.8 1.5 3.2h-3.4c0-.6-.3-1-.6-1.3-.4-.2-.9-.4-1.5-.4-.8 0-1.5.4-2 1.1-.4.7-.6 1.8-.7 3.3M432.9 16.1l-1 .6a2.5 2.5 0 0 0-.3 3.8c.4.5 1 .7 1.7.7.5 0 1-.1 1.4-.3.5-.2.9-.5 1.3-1l-3.1-3.8m.9-3.7l.4-.3c.4-.2.7-.5.8-.9.2-.3.3-.6.3-1 0-.5-.1-.8-.4-1-.2-.2-.5-.4-1-.4-.4 0-.7.2-1 .4-.2.2-.4.6-.4 1l.2.7.5.8.6.7m-2.6 1.6l-.7-1c-.4-.4-.6-.8-.8-1.2l-.2-1.3c0-1.3.4-2.3 1.2-3 .8-.8 1.9-1.1 3.3-1.1 1.3 0 2.3.3 3 1 .9.7 1.2 1.6 1.2 2.7 0 1-.2 1.7-.6 2.4-.5.7-1.2 1.3-2.2 2l2.5 3c.3-.4.4-.8.6-1.3l.3-1.6h3a8.7 8.7 0 0 1-2 5.2l3.1 3.8h-4l-1.1-1.4c-.7.6-1.5 1.1-2.3 1.4a7 7 0 0 1-2.6.5c-1.6 0-2.9-.5-3.9-1.4-1-1-1.5-2.2-1.5-3.6 0-1.1.3-2 .8-2.9.6-.7 1.5-1.5 2.9-2.2m3.5 39.6h-3.5c0-2.3.6-4.5 1.6-6.8 1-2.2 2.4-4.4 4.2-6.6h-8.2v-2.9h11.9v2.5a22 22 0 0 0-6 13.8M493.5 13.2l-2 3-2-1.5 2.2-2.8-3.3-1 .8-2.3 3.1 1.1V6.4h2.3v3.3l3.2-1 .8 2.3-3.3.9 2.2 2.8-2 1.5-2-3m-2.6 35.6c0 .8.2 1.4.7 1.9.4.4 1 .6 2 .6.7 0 1.4-.2 1.8-.7.5-.4.7-1 .7-1.8s-.2-1.4-.7-2c-.5-.4-1-.6-1.9-.6-.8 0-1.4.2-1.9.7-.5.5-.7 1.1-.7 1.9m.2-7.2c0 .6.2 1.1.7 1.5.4.3 1 .5 1.7.5.8 0 1.3-.2 1.7-.6.5-.3.7-.8.7-1.4 0-.7-.2-1.2-.7-1.5-.4-.4-1-.6-1.7-.6s-1.3.2-1.7.6c-.4.4-.7.9-.7 1.5m-1.2 3.2a4 4 0 0 1-1.5-1.4c-.3-.5-.5-1.1-.5-2 0-1.4.5-2.5 1.5-3.3 1-.9 2.4-1.3 4.1-1.3 1.7 0 3.1.4 4.1 1.3 1 .8 1.5 1.9 1.5 3.3 0 .8-.2 1.5-.5 2-.4.6-.9 1-1.5 1.4.8.4 1.4 1 1.8 1.6.4.7.6 1.5.6 2.5 0 1.6-.5 2.9-1.6 3.8-1 1-2.5 1.4-4.4 1.4-2 0-3.4-.4-4.4-1.4-1.1-.9-1.6-2.2-1.6-3.8 0-1 .2-1.8.6-2.4.4-.7 1-1.2 1.8-1.7M557.9 6.4a22 22 0 0 0-3.2 11.1 20.8 20.8 0 0 0 3.2 11.1h-2.5a23.8 23.8 0 0 1-3.1-5.6 15.8 15.8 0 0 1 0-11c.7-1.9 1.7-3.8 3-5.6h2.6M556 42.7c0-1-.3-1.7-.8-2.3-.4-.6-1-.8-2-.8-.7 0-1.3.2-1.7.8-.5.5-.7 1.3-.7 2.2 0 1 .2 1.7.7 2.2.4.5 1 .7 1.9.7.8 0 1.4-.2 1.9-.7a3 3 0 0 0 .7-2.1m0 4.4c-.4.3-.8.6-1.4.8-.5.2-1 .3-1.8.3-1.6 0-3-.5-4-1.5-.9-1-1.4-2.3-1.4-4 0-1.7.5-3.1 1.6-4.2s2.5-1.7 4.3-1.7c2 0 3.6.8 4.6 2.2a10 10 0 0 1 1.7 6.1c0 3-.6 5.2-1.8 6.7a5.7 5.7 0 0 1-4.9 2.3c-1.5 0-2.6-.3-3.6-1.1-.9-.8-1.4-1.8-1.4-3.2h3.3c.1.6.3 1 .7 1.3.3.2.8.4 1.4.4.9 0 1.5-.4 2-1.2a7 7 0 0 0 .7-3.2M609.4 6.4h2.5c1.3 1.8 2.4 3.7 3 5.6.8 1.9 1.1 3.7 1.1 5.5 0 1.8-.3 3.6-1 5.5-.7 2-1.8 3.8-3.1 5.6h-2.5a21.9 21.9 0 0 0 3.2-11 20.4 20.4 0 0 0-3.2-11.2m1.6 39c0 2.1.2 3.6.6 4.5.4 1 1 1.4 2 1.4.9 0 1.5-.5 2-1.4.3-1 .5-2.4.5-4.4 0-2-.2-3.5-.6-4.5-.4-.9-1-1.3-2-1.3-.8 0-1.5.4-2 1.3-.3 1-.5 2.4-.5 4.5m-3.5 0c0-3 .5-5 1.5-6.5 1-1.4 2.5-2.2 4.6-2.2 2 0 3.5.8 4.5 2.2 1 1.5 1.5 3.6 1.5 6.5s-.5 5-1.5 6.5c-1 1.4-2.5 2-4.5 2s-3.6-.6-4.6-2c-1-1.5-1.5-3.6-1.5-6.5M667.5 26.9h12v2.4h-12v-2.4m2.7 22v-3.3h6.6v3.2h-6.6M733.3 9.3h2.4v6h5.8v2.3h-5.8v6h-2.4v-6h-5.8v-2.3h5.8v-6m-5.8 38.5h14v2.4h-14v-2.4m0-5h14V45h-14v-2.3" font-family="Swis721 BT" font-size="24" font-weight="700" style="text-align:center;line-height:125%" text-anchor="middle"/><path d="M11 95.6v-9.5H7.8v-2h9.1v2h-3.4v9.5h-2.3m11.8-1c-.3.4-.7.7-1.2 1-.4.2-1 .3-1.6.3-.8 0-1.4-.2-1.9-.7-.4-.5-.7-1.1-.7-2 0-.8.3-1.4.7-1.8.5-.5 1.2-.7 2.2-.9l1-.1c1-.1 1.4-.4 1.4-.9 0-.3-.1-.5-.3-.7l-1.1-.2c-.5 0-.8 0-1 .3a1 1 0 0 0-.4.7v.2h-2.1v-.2c0-.9.3-1.6.9-2a4 4 0 0 1 2.5-.8 5 5 0 0 1 2.7.6c.7.4 1 1 1 1.8V94l.1.8c0 .2.2.3.4.4v.4H23a2 2 0 0 1-.2-.5v-.6m0-3a44 44 0 0 0-2.9 1 1 1 0 0 0-.3.6c0 .4.1.6.3.8.2.2.5.3.8.3a2 2 0 0 0 1.5-.6c.3-.3.5-.8.5-1.4v-.8m4.2-7.3h2.3v4a2.8 2.8 0 0 1 2.5-1.3c1 0 1.8.4 2.5 1.3.6.8 1 2 1 3.3 0 1.3-.4 2.4-1 3.2a3 3 0 0 1-2.6 1.3c-.5 0-1-.1-1.4-.4-.4-.2-.8-.5-1.1-1v1.1H27V84.1m6 7.2a3 3 0 0 0-.5-1.8c-.3-.5-.8-.7-1.4-.7-.6 0-1 .2-1.4.6a3 3 0 0 0-.4 1.9c0 .9.1 1.5.4 2 .3.4.8.6 1.4.6.6 0 1-.2 1.4-.6.3-.5.5-1.1.5-2M789.8 44.4h2.8c.6 0 1.1-.2 1.4-.4.3-.2.5-.6.5-1.1 0-.6-.2-1-.5-1.2-.3-.2-.8-.3-1.4-.3h-2.8v3m0-5h2.7c.6 0 1-.1 1.3-.3.2-.2.4-.5.4-1 0-.4-.2-.7-.4-.9-.3-.2-.7-.3-1.3-.3h-2.7v2.5m-2.3 7V35h5.4c1.2 0 2 .3 2.7.8.6.5 1 1.2 1 2.2 0 .5-.2 1-.4 1.4-.2.4-.6.7-1 1 .6.2 1 .5 1.3 1 .3.4.4 1 .4 1.6 0 1.2-.3 2-1 2.6-.8.6-1.8 1-3.2 1h-5.2m16-1.1c-.3.4-.7.8-1.2 1-.4.2-1 .4-1.6.4-.8 0-1.4-.3-1.9-.8-.4-.4-.7-1-.7-2 0-.8.3-1.4.7-1.8.5-.4 1.2-.7 2.2-.9h1c.9-.2 1.4-.5 1.4-1 0-.3-.1-.5-.3-.6-.3-.2-.6-.3-1.1-.3-.5 0-.8.1-1 .3a1 1 0 0 0-.4.8v.1h-2.2v-.2c0-.8.4-1.5 1-2a4 4 0 0 1 2.5-.7 5 5 0 0 1 2.7.6c.7.4 1 1 1 1.7V45l.1.8.4.4v.3h-2.4a2 2 0 0 1-.2-.4v-.6m0-3.1a44 44 0 0 0-2 .6c-.5 0-.8.2-1 .4a1 1 0 0 0-.2.7c0 .3.1.5.3.7.2.2.5.3.8.3a2 2 0 0 0 1.5-.5c.3-.4.5-.8.5-1.4v-.8m9.3 1h2.3c-.1 1-.5 1.9-1.2 2.5-.7.6-1.6 1-2.7 1-1.2 0-2.2-.5-2.9-1.3a5 5 0 0 1-1-3.3c0-1.4.3-2.5 1-3.3.7-.8 1.7-1.2 3-1.2 1 0 2 .2 2.6.8.7.6 1 1.4 1.1 2.5h-2.2c0-.5-.2-.8-.5-1-.2-.3-.6-.4-1-.4-.6 0-1 .2-1.3.6-.2.5-.4 1.1-.4 2 0 .8.2 1.5.5 2 .2.3.7.6 1.2.6.4 0 .8-.2 1-.4.3-.3.4-.7.5-1.2m3.7 3.2V35h2.3v6l2.7-3h2.7l-3 3.2 3.2 5.3h-2.8l-2-3.6-.8 1v2.6h-2.3m8.4-2.7h2.3c0 .4.1.7.4 1 .3.2.8.3 1.3.3s.8-.1 1-.3c.3-.1.4-.3.4-.6 0-.4-.4-.7-1.3-.9l-1-.2a5.7 5.7 0 0 1-2.2-1 2 2 0 0 1-.7-1.5c0-.9.4-1.6 1-2a4 4 0 0 1 2.5-.8c1.2 0 2 .2 2.7.7.7.5 1 1.2 1 2.1H830a1 1 0 0 0-.4-.8c-.2-.2-.6-.3-1-.3-.5 0-.8 0-1 .2-.2.1-.3.3-.3.6s.5.6 1.7.9l.6.1c1.1.3 1.9.6 2.3 1 .4.4.6.9.6 1.6 0 1-.3 1.7-1 2.2-.7.5-1.7.7-3 .7-1.1 0-2-.2-2.7-.8-.7-.5-1-1.2-1-2.1v-.1m15.2-1.4c0-.9-.1-1.6-.5-2-.3-.5-.8-.7-1.4-.7-.6 0-1 .2-1.4.7-.3.4-.4 1-.4 2 0 .8.1 1.4.5 1.8.3.4.8.7 1.4.7.6 0 1-.3 1.3-.7.4-.5.5-1 .5-1.8m-6 7.6v-12h2.2v1.2c.4-.5.7-.9 1.1-1 .4-.3 1-.4 1.5-.4 1 0 1.9.4 2.5 1.2.7.8 1 2 1 3.3 0 1.3-.3 2.4-1 3.3a3 3 0 0 1-2.5 1.2 3 3 0 0 1-1.5-.3c-.4-.2-.7-.6-1-1v4.5H834m14.6-4.5c-.3.4-.7.8-1.1 1-.5.2-1 .4-1.6.4-.9 0-1.5-.3-2-.8-.4-.4-.6-1-.6-2 0-.8.2-1.4.7-1.8.4-.4 1.1-.7 2.2-.9h.9c1-.2 1.4-.5 1.4-1 0-.3 0-.5-.3-.6-.2-.2-.6-.3-1-.3-.5 0-.9.1-1.1.3a1 1 0 0 0-.4.8v.1h-2.1v-.2c0-.8.3-1.5 1-2a4 4 0 0 1 2.5-.7 5 5 0 0 1 2.7.6c.6.4 1 1 1 1.7v5.7l.4.4v.3H849a2 2 0 0 1-.2-.4l-.1-.6m0-3.1a44 44 0 0 0-2 .6c-.5 0-.7.2-.9.4a1 1 0 0 0-.2.7c0 .3 0 .5.3.7.2.2.4.3.8.3a2 2 0 0 0 1.4-.5c.4-.4.6-.8.6-1.4v-.8m9.3 1h2.2c0 1-.5 1.9-1.2 2.5-.7.6-1.6 1-2.6 1-1.3 0-2.2-.5-3-1.3a5 5 0 0 1-1-3.3c0-1.4.4-2.5 1-3.3.8-.8 1.8-1.2 3-1.2 1.1 0 2 .2 2.7.8.6.6 1 1.4 1.1 2.5h-2.3c0-.5-.2-.8-.4-1-.3-.3-.6-.4-1-.4-.6 0-1 .2-1.3.6-.3.5-.4 1.1-.4 2 0 .8.1 1.5.4 2 .3.3.7.6 1.3.6.4 0 .7-.2 1-.4l.5-1.2m8.9.7h2.2c-.2.9-.6 1.6-1.3 2-.7.6-1.6.8-2.6.8-1.2 0-2.2-.4-2.9-1.2a5 5 0 0 1-1-3.4c0-1.3.3-2.4 1-3.2.7-.8 1.7-1.2 2.9-1.2 1.3 0 2.3.3 3 1.1.7.8 1 2 1 3.4a6.4 6.4 0 0 1 0 .6h-5.6c0 .7.2 1.2.5 1.5.3.3.7.5 1.2.5.4 0 .7 0 1-.2l.6-.7m-3.3-2.6h3.3c0-.6-.2-1-.4-1.3-.3-.3-.7-.5-1.3-.5-.5 0-.9.2-1.1.5-.3.3-.5.7-.5 1.3" font-family="Swis721 BT" font-size="16" font-weight="700" style="text-align:center;line-height:125%" text-anchor="middle"/><path fill="none" stroke="#000" stroke-width="3" d="M840 17.6h-43"/><path fill-rule="evenodd" d="M802.5 25.1v-15l-15 7.5 15 7.5z"/><path fill="none" stroke="#000" stroke-width="3" d="M82.5 82.5H54"/><path fill-rule="evenodd" d="M60 90V75l-15 7.5L60 90z"/><path fill="none" stroke="#000" stroke-width="3" d="M45 75v15M45 97.5h28.5"/><path fill-rule="evenodd" d="M67.5 90v15l15-7.5-15-7.5z"/><path fill="none" stroke="#000" stroke-width="3" d="M82.5 105V90"/><path d="M107 80.6l-1.8-1.8 2-2 1.9 1.8.5-1.6c.2-.6.2-1.3.2-2 0-1.9-.4-3.4-1.2-4.4-.9-1-2-1.6-3.6-1.6-1.5 0-2.7.5-3.6 1.6-.8 1-1.2 2.5-1.2 4.4a7 7 0 0 0 1.2 4.4c.9 1 2 1.6 3.6 1.6a5 5 0 0 0 2-.4m2.6 2.3l-2 1-2.6.2a8 8 0 0 1-6.2-2.4 9.4 9.4 0 0 1-2.2-6.7c0-2.8.7-5 2.2-6.6a8 8 0 0 1 6.2-2.5 8 8 0 0 1 6.1 2.5 9.3 9.3 0 0 1 2.3 6.6c0 1.2-.1 2.4-.4 3.4a8 8 0 0 1-1.4 2.6l1.8 1.8-1.9 2-2-1.9M159 83.6l-5-17.2h3.7l3 12.1 2.4-12.1h3.8l2.5 12.1 3-12.1h3.6l-5 17.2h-3.3L165 70.4l-2.7 13.2H159M218.5 83.6V66.4h12.6v3h-9V73h8.2v3H222v4.4h9.5v3.2h-13M281.4 74h4.2c1 0 1.6-.3 2-.6.4-.4.6-1 .6-1.8 0-.7-.2-1.3-.6-1.7-.4-.4-1-.6-1.8-.6h-4.4V74m-3.5 9.7V66.4h8.4c1.8 0 3.2.4 4.1 1.2 1 .8 1.4 2 1.4 3.7 0 1-.2 1.9-.7 2.6-.4.7-1 1.2-1.9 1.4.8.3 1.3.7 1.6 1.3.3.5.5 1.4.6 2.5v2.1c0 1 .3 1.7.7 1.9v.5h-3.9l-.3-.9v-1.2l-.1-1.9c0-1-.3-1.7-.6-2.1-.4-.4-1-.6-2-.6h-3.8v6.7H278M343.2 83.6V69.5h-5v-3.1h13.7v3h-5.1v14.2h-3.6M407 83.6h-3.5v-6.4l-6.3-10.8h4.4l3.7 7.4 3.4-7.4h4l-5.6 10.8v6.4M458 66.1h3.7V77c0 1.4.2 2.3.8 3 .5.6 1.3.9 2.5.9s2-.3 2.6-1c.5-.5.8-1.5.8-2.9V66.1h3.5v11.2c0 2.1-.6 3.8-1.8 4.9-1.1 1.1-2.9 1.7-5 1.7-2.3 0-4-.6-5.2-1.7-1.2-1.1-1.8-2.8-1.8-4.9V66.1M523.2 83.6V66.4h3.6v17.2h-3.6M580.2 75a7 7 0 0 0 1.2 4.4c.9 1 2 1.6 3.6 1.6 1.5 0 2.7-.5 3.6-1.6.8-1 1.2-2.5 1.2-4.4 0-1.9-.4-3.4-1.2-4.4-.9-1-2-1.6-3.6-1.6-1.5 0-2.7.5-3.6 1.6-.8 1-1.2 2.5-1.2 4.4m-3.6 0c0-2.8.7-5 2.2-6.6a8 8 0 0 1 6.2-2.5 8 8 0 0 1 6.1 2.5 9.3 9.3 0 0 1 2.3 6.6c0 2.8-.7 5-2.3 6.6a8 8 0 0 1-6.1 2.5 8 8 0 0 1-6.2-2.5 9.4 9.4 0 0 1-2.2-6.6M642 74.4h3.4c1 0 1.6-.2 2-.6.5-.4.7-1 .7-2 0-.8-.2-1.4-.7-1.8-.4-.4-1-.6-1.8-.6H642v5m0 3v6.2h-3.6V66.4h7.7c1.8 0 3.2.4 4 1.4 1 1 1.5 2.3 1.5 4.1 0 1.8-.5 3.2-1.4 4.1-.9 1-2.2 1.5-3.9 1.5H642M709.2 64v2.4a5 5 0 0 1-.5 0c-.8 0-1.3.1-1.6.4-.3.3-.4 1-.4 1.9v2.8c0 1.2-.2 2-.5 2.5-.4.5-1 .8-2 1 1 .2 1.6.6 2 1 .3.5.5 1.3.5 2.5v2.8c0 1 .1 1.6.4 2 .3.2.8.4 1.6.4a5 5 0 0 0 .5 0V86a12.2 12.2 0 0 0-.8 0l-2-.1-1.3-.5c-.5-.2-.8-.6-1-1a7 7 0 0 1-.3-2.4v-3c0-1-.2-1.8-.6-2.2-.4-.5-1-.7-2-.7a3.8 3.8 0 0 0-.4 0v-2.4a3.8 3.8 0 0 1 .4 0c1 0 1.6-.2 2-.7.4-.4.6-1.2.6-2.3V68c0-1.1.1-1.9.3-2.4.2-.4.5-.8 1-1l1.3-.5a11.4 11.4 0 0 1 2.8 0m-6.1 30h6v2.5h-2.8v17.3h2.7v2.5h-5.9V94M760.8 64h2.8l1.3.5c.5.2.8.6 1 1 .2.5.3 1.3.3 2.4v3c0 1 .2 1.8.6 2.2.4.5 1 .7 2 .7a3.8 3.8 0 0 0 .4 0v2.4h-.4c-1 0-1.6.2-2 .7-.4.4-.6 1.2-.6 2.3v3c0 1-.1 1.8-.3 2.3a2 2 0 0 1-1 1l-1.3.5a11.4 11.4 0 0 1-2.8 0v-2.4a5 5 0 0 1 .5 0c.8 0 1.3-.1 1.6-.4.3-.3.4-1 .4-1.9v-2.8c0-1.2.2-2 .5-2.5.4-.4 1-.8 2-1-1-.2-1.6-.6-2-1-.3-.5-.5-1.3-.5-2.5v-2.8c0-1-.1-1.6-.4-2-.3-.2-.8-.4-1.6-.4a5 5 0 0 0-.5 0V64m6.2 30v22.4h-6v-2.5h2.8V96.5h-2.7V94h6M823.8 62.9h2.4v24h-2.4v-24m3.3 50.5l-5.8-19.9h1.6l5.8 20h-1.6" font-family="Swis721 BT" font-size="24" font-weight="700" style="text-align:center;line-height:125%" text-anchor="middle"/><text x="52.2" y="139.3" font-family="Swis721 BT" font-size="16" font-weight="700" style="text-align:center;line-height:125%" text-anchor="middle" transform="translate(0 3.8)"><tspan x="52.2" y="139.3">Caps Lock</tspan></text><path fill-rule="evenodd" d="M26.3 146.3l-11.3 15h7.5v7.4H30v-7.4h7.5l-11.3-15zm-1 4.2h2l3 8.6h-1.8l-.6-1.8h-3.3l-.6 1.8h-1.9l3.1-8.6zm1 1.7l-1.3 3.6h2.4l-1.1-3.6z"/><path d="M120 129.8l-2.4 7.4h4.8l-2.4-7.4m-2-3.4h4l6.2 17.2h-3.7l-1.2-3.5h-6.7l-1 3.5h-3.8l6.1-17.2M173 138.3h3.5a3 3 0 0 0 1.1 2.1c.7.5 1.6.7 2.8.7a4 4 0 0 0 2.4-.6c.5-.3.7-.9.7-1.6 0-1-1.5-2-4.5-2.6l-.4-.1c-1.7-.4-2.8-.8-3.5-1.2-.6-.4-1-.9-1.4-1.6-.3-.6-.5-1.4-.5-2.3 0-1.7.6-3 1.7-3.9a7.8 7.8 0 0 1 5-1.3c2 0 3.6.5 4.7 1.4 1.2 1 1.8 2.3 1.8 4H183c0-.8-.4-1.4-1-1.9a4 4 0 0 0-2.4-.6c-1 0-1.7.2-2.2.5-.5.4-.7 1-.7 1.6 0 .9 1 1.6 3 2a969.8 969.8 0 0 1 3.8 1l1.4.7c.7.4 1.2.9 1.6 1.5.3.7.5 1.4.5 2.3 0 1.8-.6 3.2-1.8 4.2a8 8 0 0 1-5.1 1.5c-2.2 0-3.9-.5-5.1-1.5a5.6 5.6 0 0 1-2-4.3M236.2 140.5h2.8c1.7 0 2.8-.4 3.6-1.3.7-.8 1.1-2.2 1.1-4.2s-.3-3.3-1-4.2c-.7-1-1.8-1.4-3.3-1.4h-3.2v11.1m-3.5 3.1v-17.2h6.7c2.7 0 4.7.7 6 2.1 1.3 1.4 2 3.6 2 6.5 0 1.6-.3 3-.8 4.2a6.5 6.5 0 0 1-4.4 4c-1 .3-2.1.4-3.7.4h-5.8M294 143.6v-17.2h12v3h-8.5v3.9h7.5v3h-7.5v7.3H294M365.2 141.6c-.7.8-1.4 1.5-2.2 1.9-.8.4-1.8.6-2.9.6-2.4 0-4.4-.8-5.9-2.5a9.6 9.6 0 0 1-2.2-6.6c0-2.8.8-5 2.2-6.6a7.7 7.7 0 0 1 6-2.5c2.2 0 4 .5 5.3 1.6 1.4 1 2.2 2.4 2.4 4.2h-3.6c-.2-.9-.6-1.6-1.3-2-.7-.5-1.6-.7-2.7-.7a4 4 0 0 0-3.4 1.6 7 7 0 0 0-1.2 4.4c0 1.8.4 3.3 1.3 4.4.8 1 2 1.6 3.5 1.6 1.2 0 2-.4 2.9-1 .7-.7 1.2-1.6 1.4-2.8h-4v-3h7.2v9.4h-2.4l-.4-2M412.9 143.6v-17.2h3.5v6.4h7.2v-6.4h3.5v17.2h-3.5V136h-7.2v7.6H413M474.5 137h3.4v2c0 .6.2 1.1.6 1.4.3.3.8.5 1.5.5s1.2-.2 1.5-.6c.3-.4.5-1 .5-2.1v-12h3.5v12.1c0 1.1 0 2-.2 2.4-.1.6-.3 1-.6 1.4-.5.6-1 1-1.9 1.3-.8.3-1.7.5-2.8.5-1 0-1.8-.2-2.5-.4-.8-.3-1.4-.7-2-1.2l-.8-1.4-.2-2.6V137M532.3 143.6v-17.2h3.6v7l6.7-7h4.5l-7 7 7.6 10.2h-4.4l-5.6-7.9-1.8 1.9v6h-3.6M594 143.6v-17.2h3.6v14h8.4v3.2h-12M143.2 203.6v-3l9.3-11.1h-9.2v-3.1h13.5v3l-9.4 11.1h9.2v3.1h-13.4M202.4 203.6l5.4-8.8-5.4-8.4h4l3.6 6 3.5-6h4.1l-5.4 8.4 5.4 8.8h-4l-3.6-6-3.5 6h-4.1M277.9 197.7c-.2 2-1 3.5-2.3 4.7a8 8 0 0 1-5.4 1.7c-2.5 0-4.5-.8-6-2.4a9.8 9.8 0 0 1-2-6.7c0-3 .6-5.2 2-6.8 1.5-1.5 3.6-2.3 6.3-2.3 2.2 0 4 .5 5.2 1.6 1.3 1 2 2.6 2.2 4.6h-3.6c-.1-1-.5-1.7-1.1-2.3-.7-.5-1.6-.7-2.7-.7-1.5 0-2.7.5-3.5 1.5-.8 1-1.3 2.5-1.3 4.4 0 1.9.4 3.3 1.3 4.3.8 1 2 1.6 3.4 1.6 1 0 2-.3 2.7-.8.6-.6 1-1.4 1.3-2.4h3.5M328.3 203.6l-6-17.2h4l3.7 12.9 3.7-13h4l-6 17.3h-3.4M386.3 200.5h4.2c1 0 1.7-.2 2.2-.5.4-.4.7-1 .7-1.7 0-.8-.2-1.4-.7-1.8-.4-.3-1.2-.5-2.2-.5h-4.2v4.5m0-7.5h4c1 0 1.6-.1 2-.4.4-.3.6-.8.6-1.4 0-.7-.2-1.1-.6-1.4-.4-.3-1-.4-2-.4h-4v3.6m-3.4 10.6v-17.2h8.2c1.7 0 3 .3 4 1 1 .8 1.4 2 1.4 3.3 0 1-.2 1.6-.5 2.2-.4.6-.9 1-1.6 1.4 1 .4 1.6.9 2 1.5.5.7.7 1.6.7 2.6 0 1.6-.6 3-1.7 3.9a7 7 0 0 1-4.6 1.3h-7.9M442.9 203.6v-17.2h3.7l7 11.8v-11.8h3.5v17.2h-3.7l-7-11.8v11.8h-3.5M501.3 203.6v-17.2h5.3l3.4 13.1 3.4-13.1h5.3v17.2h-3.4v-13.9l-3.5 14h-3.6l-3.5-14v14h-3.4M658.2 134.7V131h3.6v3.6h-3.6m0 9V140h3.6v3.5h-3.6m0 21v-3.5h3.6v3.6h-3.6m0 13v-1.4c.7-.2 1.2-.5 1.5-.9.3-.3.5-.9.5-1.5v-.3h-2v-3.5h3.6v3.4c0 1.2-.3 2.1-1 2.8-.5.7-1.4 1.2-2.6 1.4M720.8 126.8h2.2v6.5h-2.2v-6.5m-3.8 0h2.2v6.5H717v-6.5m1.9 30h2.2v6.5H719v-6.5" font-family="Swis721 BT" font-size="24" font-weight="700" style="text-align:center;line-height:125%" text-anchor="middle"/><path d="M772.5 140.6v-11.5h8.4v2h-6v2.5h5.4v2h-5.5v2.9h6.3v2.1h-8.6m10.2 0v-8.5h2.3v1a3 3 0 0 1 2.5-1.2c1 0 1.7.2 2.1.7.5.5.7 1.2.7 2.2v5.8h-2.2v-5.1c0-.6-.1-1-.3-1.3-.2-.3-.6-.4-1-.4-.6 0-1 .1-1.3.5-.3.3-.5.7-.5 1.3v5h-2.3m13.4 0a71.5 71.5 0 0 0-1.3.1c-.9 0-1.5-.1-1.8-.5-.3-.3-.5-1-.5-1.9v-4.6h-1.1v-1.6h1.1v-2.3h2.3v2.3h1.3v1.6h-1.3v4.7l.1.5h1.2v1.8m6.5-2.7h2.3c-.2 1-.7 1.6-1.4 2.1s-1.5.8-2.5.8c-1.3 0-2.2-.4-3-1.2a5 5 0 0 1-1-3.4c0-1.4.3-2.5 1-3.3.7-.8 1.7-1.2 3-1.2 1.2 0 2.2.4 3 1.2.7.8 1 2 1 3.4a6.4 6.4 0 0 1 0 .6h-5.7c0 .6.2 1.1.5 1.5.3.3.7.5 1.3.5.4 0 .7-.1 1-.3.2-.1.4-.3.5-.7m-3.3-2.5h3.4c0-.6-.2-1-.5-1.3-.3-.3-.7-.5-1.2-.5s-.9.2-1.2.5c-.3.3-.4.7-.5 1.3m7.2 5.1v-8.5h2.1v1.5c.3-.6.7-1 1-1.3a2.4 2.4 0 0 1 1.7-.4h.1v2.3h-.7c-.7 0-1.1.2-1.4.5-.3.3-.5.8-.5 1.4v4.5h-2.3" font-family="Swis721 BT" font-size="16" font-weight="700" style="text-align:center;line-height:125%" text-anchor="middle"/><path fill-rule="evenodd" d="M787.5 172.5v-15l-15 7.5 15 7.5z"/><path fill="none" stroke="#000" stroke-width="3" d="M810 150v15h-30"/><text x="31.8" y="201.2" font-family="Swis721 BT" font-size="16" font-weight="700" style="text-align:center;line-height:125%" text-anchor="middle"><tspan x="31.8" y="201.2">Shift</tspan></text><path fill="none" stroke="#000" stroke-width="2" d="M27.3 207.1l-11.3 15h7.5v7.5H31v-7.5h7.5l-11.3-15z"/><text x="31.8" y="201.2" font-family="Swis721 BT" font-size="16" font-weight="700" style="text-align:center;line-height:125%" text-anchor="middle" transform="translate(727.5)"><tspan x="31.8" y="201.2">Shift</tspan></text><path fill="none" stroke="#000" stroke-width="2" d="M754.8 207.1l-11.3 15h7.5v7.5h7.5v-7.5h7.5l-11.3-15z"/><path d="M576.9 189.6v2.6l-10.5 4.3 10.5 4.2v2.6l-13.8-5.7v-2.3l13.8-5.7m-8.7 48v-1.3c.7-.2 1.2-.5 1.5-.9.3-.3.4-.9.4-1.5v-.3h-1.9v-3.5h3.6v3.4c0 1.2-.3 2-1 2.8-.5.7-1.4 1.2-2.6 1.4M623.1 189.6l13.8 5.7v2.3l-13.8 5.7v-2.6l10.5-4.2-10.5-4.3v-2.6m5.1 44v-3.5h3.5v3.5h-3.5M688.4 198.6a6.4 6.4 0 0 0 0-.7l.2-1.7c.2-.4.4-.9.8-1.3l1-1 1-.8.7-1 .2-.9c0-.7-.2-1.3-.7-1.7-.4-.4-1-.6-1.7-.6s-1.3.2-1.7.7c-.5.5-.7 1.2-.7 2.1h-3.3v-.4c0-1.6.5-3 1.5-3.9a6 6 0 0 1 4.2-1.5c1.8 0 3.3.5 4.3 1.4 1.1 1 1.6 2.2 1.6 3.7l-.1 1.5-.6 1.2c-.3.4-.8 1-1.5 1.5l-1.2 1c-.3.2-.5.5-.6.9a3.2 3.2 0 0 0-.2 1.5h-3.2m-.1 5v-3.4h3.4v3.4h-3.4m-2 32.3l5.8-20h1.6l-5.8 20h-1.6" font-family="Swis721 BT" font-size="24" font-weight="700" style="text-align:center;line-height:125%" text-anchor="middle"/><path d="M18 271.8c0 1.3-.6 2.3-1.5 3.1-1 .8-2.1 1.2-3.6 1.2a5 5 0 0 1-4-1.6c-1-1-1.4-2.6-1.4-4.5 0-2 .5-3.5 1.4-4.5 1-1 2.4-1.6 4.2-1.6 1.5 0 2.6.4 3.5 1.1a4 4 0 0 1 1.4 3h-2.4c0-.6-.3-1.1-.7-1.4-.5-.4-1-.6-1.8-.6-1 0-1.8.4-2.4 1-.5.7-.8 1.7-.8 3s.3 2.2.8 2.9c.6.7 1.3 1 2.3 1 .7 0 1.3-.2 1.8-.5.4-.4.7-1 .9-1.6H18m5.5 4a71.6 71.6 0 0 0-1.3 0c-.9 0-1.5-.1-1.8-.4-.3-.4-.5-1-.5-2v-4.6h-1.1v-1.6h1.1V265h2.3v2.4h1.3v1.5h-1.3v4.7l.1.5h1.2v1.8m1.3 0v-8.6h2.1v1.5c.3-.6.6-1 1-1.3a2.4 2.4 0 0 1 1.7-.4v2.3H29c-.6 0-1 .2-1.4.5-.3.3-.4.8-.4 1.4v4.5h-2.3m6.2 0v-11.5h2.3v11.5H31M163 266.5l-1.6 4.9h3.2l-1.6-4.9m-1.4-2.3h2.7l4.2 11.5H166l-.8-2.4h-4.4l-.8 2.4h-2.5l4-11.5m8 11.5v-11.5h2.3v11.5h-2.3m8.1 0a71.6 71.6 0 0 0-1.3.1c-.8 0-1.4-.2-1.7-.5-.4-.3-.5-1-.5-2v-4.5H173v-1.6h1V265h2.3v2.3h1.3v1.6h-1.3v4.7c0 .2 0 .4.2.4l.6.2h.5v1.7M828 271.8c0 1.3-.6 2.3-1.5 3.1-1 .8-2.1 1.2-3.6 1.2a5 5 0 0 1-4-1.6c-1-1-1.4-2.6-1.4-4.5 0-2 .5-3.5 1.4-4.5 1-1 2.4-1.6 4.2-1.6 1.5 0 2.6.4 3.5 1.1a4 4 0 0 1 1.4 3h-2.4c0-.6-.3-1.1-.7-1.4-.5-.4-1-.6-1.8-.6-1 0-1.8.4-2.4 1-.5.7-.8 1.7-.8 3s.3 2.2.8 2.9c.6.7 1.3 1 2.3 1 .7 0 1.3-.2 1.8-.5.4-.4.7-1 .9-1.6h2.3m5.5 4a71.6 71.6 0 0 0-1.3 0c-.9 0-1.5-.1-1.8-.4-.3-.4-.5-1-.5-2v-4.6h-1.1v-1.6h1.1V265h2.3v2.4h1.3v1.5h-1.3v4.7l.1.5h1.2v1.8m1.3 0v-8.6h2.1v1.5c.3-.6.6-1 1-1.3a2.4 2.4 0 0 1 1.7-.4v2.3h-.7c-.6 0-1 .2-1.4.5-.3.3-.4.8-.4 1.4v4.5h-2.3m6.2 0v-11.5h2.3v11.5H841M109 264l-3.4-11.5h2.5l2 8.1 1.6-8h2.6l1.6 8 2-8h2.4L117 264h-2.2l-1.8-8.8-1.8 8.8h-2.3m12.6-9.4v-2h2.3v2h-2.3m0 9.4v-8.5h2.3v8.5h-2.3m4.3 0v-8.5h2.2v1a3 3 0 0 1 2.6-1.2c1 0 1.6.2 2.1.7.5.5.7 1.3.7 2.2v5.8h-2.3V259c0-.6 0-1-.3-1.3-.2-.3-.5-.4-1-.4s-1 .2-1.3.5c-.3.3-.4.7-.4 1.3v5h-2.3m-19.2 20v-11.5h2.4v4.7l4.5-4.7h3l-4.6 4.7 5 6.8h-3l-3.7-5.2-1.2 1.2v4h-2.4m16.3-2.6h2.3c-.2 1-.7 1.6-1.4 2.2-.7.5-1.5.7-2.5.7-1.3 0-2.2-.4-3-1.2a5 5 0 0 1-1-3.4c0-1.4.3-2.5 1-3.3.7-.8 1.7-1.2 3-1.2 1.2 0 2.2.4 3 1.2.7.8 1 2 1 3.4a6.4 6.4 0 0 1 0 .6h-5.7c0 .6.2 1.1.5 1.5.3.3.7.5 1.3.5.4 0 .7 0 1-.2.2-.2.4-.4.5-.8m-3.3-2.5h3.4c0-.6-.2-1-.5-1.3-.3-.3-.7-.5-1.2-.5s-.9.2-1.2.5c-.3.3-.4.7-.5 1.3m7.6 8.5v-1.8a3 3 0 0 0 .5 0c.4 0 .8 0 1-.3.2-.2.3-.5.3-1v-.2l-3-8.6h2.4l1.8 6.2 1.8-6.2h2.4l-3.5 10c-.3.8-.6 1.3-1 1.6a3 3 0 0 1-1.8.4 7 7 0 0 1-1 0M709 264l-3.4-11.5h2.5l2 8.1 1.6-8h2.6l1.6 8 2-8h2.4L717 264h-2.2l-1.8-8.8-1.8 8.8h-2.3m12.6-9.4v-2h2.3v2h-2.3m0 9.4v-8.5h2.3v8.5h-2.3m4.3 0v-8.5h2.2v1a3 3 0 0 1 2.6-1.2c1 0 1.6.2 2.1.7.5.5.7 1.3.7 2.2v5.8h-2.3V259c0-.6 0-1-.3-1.3-.2-.3-.5-.4-1-.4s-1 .2-1.3.5c-.3.3-.4.7-.4 1.3v5h-2.3m-19.2 20v-11.5h2.4v4.7l4.5-4.7h3l-4.6 4.7 5 6.8h-3l-3.7-5.2-1.2 1.2v4h-2.4m16.3-2.6h2.3c-.2 1-.7 1.6-1.4 2.2-.7.5-1.5.7-2.5.7-1.3 0-2.2-.4-3-1.2a5 5 0 0 1-1-3.4c0-1.4.3-2.5 1-3.3.7-.8 1.7-1.2 3-1.2 1.2 0 2.2.4 3 1.2.7.8 1 2 1 3.4a6.4 6.4 0 0 1 0 .6h-5.7c0 .6.2 1.1.5 1.5.3.3.7.5 1.3.5.4 0 .7 0 1-.2.2-.2.4-.4.5-.8m-3.3-2.5h3.4c0-.6-.2-1-.5-1.3-.3-.3-.7-.5-1.2-.5s-.9.2-1.2.5c-.3.3-.4.7-.5 1.3m7.6 8.5v-1.8a3 3 0 0 0 .5 0c.4 0 .8 0 1-.3.2-.2.3-.5.3-1v-.2l-3-8.6h2.4l1.8 6.2 1.8-6.2h2.4l-3.5 10c-.3.8-.6 1.3-1 1.6a3 3 0 0 1-1.8.4 7 7 0 0 1-1 0M760 275.6v-11.5h3.5l2.3 8.8 2.2-8.8h3.5v11.5h-2.2v-9.3l-2.3 9.3h-2.4l-2.4-9.3v9.3H760m19-2.6h2.3c-.3 1-.7 1.6-1.4 2.1s-1.6.8-2.6.8c-1.2 0-2.2-.4-2.9-1.2a5 5 0 0 1-1-3.4c0-1.4.3-2.5 1-3.3.7-.8 1.7-1.2 2.9-1.2 1.3 0 2.3.4 3 1.2.7.8 1 2 1 3.4a6.4 6.4 0 0 1 0 .6h-5.6c0 .6.2 1.1.5 1.5.3.3.7.5 1.2.5.4 0 .7-.1 1-.3.2-.1.4-.3.6-.7m-3.3-2.5h3.3c0-.6-.2-1-.4-1.3-.3-.3-.7-.5-1.3-.5-.5 0-.8.2-1.1.5-.3.3-.5.7-.5 1.3m7.2 5.1v-8.5h2.2v1a3 3 0 0 1 2.6-1.2c1 0 1.6.2 2 .7.5.5.8 1.2.8 2.2v5.8h-2.3v-5.1c0-.6 0-1-.3-1.3-.2-.3-.5-.4-1-.4s-1 .1-1.3.5c-.3.3-.4.7-.4 1.3v5h-2.3m17.1-8.5v8.5h-2.2v-1l-1.1 1-1.5.2c-1 0-1.6-.2-2-.7-.6-.5-.8-1.2-.8-2.2v-5.8h2.3v5.1c0 .7 0 1 .3 1.3.2.3.5.4 1 .4s1-.1 1.3-.4c.3-.4.4-.8.4-1.4v-5h2.3M613 266.5l-1.6 4.9h3.2l-1.6-4.9m-1.4-2.3h2.7l4.2 11.5H616l-.8-2.4h-4.5l-.7 2.4h-2.5l4-11.5m8 11.5v-11.5h2.3v11.5h-2.3m8.1 0a66.6 66.6 0 0 0-1.3.1c-.8 0-1.4-.2-1.7-.5-.4-.3-.5-1-.5-2v-4.5H623v-1.6h1V265h2.3v2.3h1.3v1.6h-1.3v4.7c0 .2 0 .4.2.4l.6.2h.5v1.7" font-family="Swis721 BT" font-size="16" font-weight="700" style="text-align:center;line-height:125%" text-anchor="middle"/></svg>