<svg xmlns="http://www.w3.org/2000/svg" height="400" width="809.9" stroke-miterlimit="10" clip-rule="evenodd" fill-rule="evenodd" stroke-linecap="round" stroke-linejoin="round"><path fill="#fff0bf" stroke="#fff" stroke-width="3.1" stroke-linecap="square" stroke-linejoin="miter" stroke-miterlimit="4" d="M0-.2h809.9v397.9H0z"/><path d="M280.8 79.7H279a2 2 0 0 0-2 2.3l.2 1c.2 1.5-.6 3-2.1 3.5-2 .7-3.9-.6-4.2-2.5v-1a2 2 0 0 0-2.6-1.6l-1.7.5c-1.1.3-1.7 1.6-1.2 2.7l.4 1c.7 1.4.2 3-1 4a3.2 3.2 0 0 1-4.7-1.4l-.4-.9a2 2 0 0 0-2.9-.9l-1.5 1a2 2 0 0 0-.3 3l.6.7c1.1 1.3 1 3.4-.3 4.5 0 1.6-2.2 2.4-3.3 1.1l-1.8-2.1a2 2 0 0 0-3 0l-1.2 1.3a2 2 0 0 0 .4 2.9l1 .6a3.2 3.2 0 0 1-3.6 5.3l-.7-.5a2 2 0 0 0-3 .9l-.7 1.6a2 2 0 0 0 1.3 2.7l1 .3c1.7.5 2.7 2.3 2.1 4a3.2 3.2 0 0 1-4 2.1l-.8-.3c-1.1-.3-2.3.5-2.5 1.7l-.2 1.7a2 2 0 0 0 2 2.2h1a3.2 3.2 0 0 1 0 6.3h-.8a2 2 0 0 0-2 2.3l.3 1.8a2 2 0 0 0 2.5 1.5l1-.3c1.4-.4 3.1.2 3.8 1.7.9 1.8-.2 3.8-2 4.4l-.8.3a2 2 0 0 0-1.3 2.7l.8 1.6a2 2 0 0 0 2.9.8l.9-.6c1.5-.9 3.4-.5 4.4 1 1 1.5.5 3.4-1 4.4l-.7.4a2 2 0 0 0-.5 3l1.2 1.3a2 2 0 0 0 3 0l.7-.9a3.2 3.2 0 0 1 4.4-.3 3.3 3.3 0 0 1 .4 4.5l-.6.6a2 2 0 0 0 .4 3l1.5 1a2 2 0 0 0 2.8-1l.5-.9a3.2 3.2 0 0 1 4.2-1.5c1.6.7 2.3 2.6 1.6 4.2l-.4.8a2 2 0 0 0 .8 2.6l.3-.1c1.7-1 2.4-1.3 2.8-1.3l.2.2.9 1.1c-.6-1-1.1-1.6-1.3-1.7-.4-.5-.7-1.2-.8-1.7-.3-1.8.3-2.8 3.1-5.6 1.4-1.4 2.3-2.4 3.2-3l-12.6-4.8c-1.5-1-1.7-2.8-.5-4l3-2.8a4.5 4.5 0 0 1 5.2-.8l5 2c.6 0 1.2.3 1.6.6a23.5 23.5 0 0 1-.1-16.1 5.5 5.5 0 0 1 3.2-10c1.6 0 3 .7 4.1 1.7 4.4-2 10.9-2.1 16-.6l-.4-.7-1.7-4.4c-.9-1.6-.6-3.9.7-5.2l.4-.4c-.3-1.3-.3-2.8-.3-5.7l-.1.2-2.9 2.9a4.2 4.2 0 0 1-5 .5l-4.6-2a4.6 4.6 0 0 1-3.1-4.2v-4c0-1.8 1.4-2.9 3.1-2.4l12.1 5.2.6.5c0-2 .3-2.9.7-4.6.9-3.2 2-6.1 3.6-9-.2 0-.3-.2-.5-.3a2 2 0 0 0-2.8 1l-.5.9c-.7 1.6-2.6 2.3-4.2 1.6a2.2 2.2 0 0 1-2-3.2l.8-1.8a2 2 0 0 0-1.2-2.8c-.6 0-1.2-.3-1.8-.4-1.1-.3-2.3.4-2.4 1.7l-.2 1c-.3 2-2.2 3.3-4.2 2.6-1.5-.4-2.4-2-2.1-3.5v-.8a2 2 0 0 0-1.9-2.3zm-4 14c1.5 0 2.6 1 2.6 2.6v4c0 1.8-1.4 3.6-3.2 4l-5.1 1.9c-1.6.9-3.9.6-5.2-.7l-2.8-2.9c-1.3-1.2-1-3 .5-4l12.6-4.8h.7zm-18.6 11c.6 0 1.3.2 1.9.8l2.8 2.8a4.3 4.3 0 0 1 .5 5l-2.2 5.4a4.6 4.6 0 0 1-4.2 3.1h-4c-1.8 0-2.9-1.4-2.5-3.1l5.4-12.8c.5-.9 1.4-1.3 2.2-1.3zM253 126h4c1.8 0 3.7 1.5 4.2 3.2l2.2 5.3c1 1.6.7 3.8-.6 5.1l-2.8 2.8c-1.3 1.3-3.1 1-4.1-.4l-5.4-12.8c-.4-1.7.7-3.2 2.5-3.1zm26.3 22.4v3.3c0 .8-.3 1.5-.8 2a39.3 39.3 0 0 1 7.8 5.2l2.4 2 .3-.2-2.5-2c.2-.1-.8-1.3-2-2.8a27 27 0 0 1-5.2-7.5zm255.5 133.5l.3 14.4.5 22.8.2 23.4c.5.3.9.7 1 1.3l.3.7c.3.9 1.4 1.2 2.2.8l1.2-.7c.8-.5 1-1.6.5-2.3l-.5-.8c-.9-1.1-.6-2.7.5-3.5 1-.8 2.6-.5 3.5.6l.4.5c.5.8 1.6.8 2.3.2l1-1c.6-.8.5-1.8-.2-2.4l-.7-.5a2.6 2.6 0 0 1-.6-3.6 2.5 2.5 0 0 1 3.5-.4l.6.4c.7.6 1.8.4 2.3-.5l.6-1.2c.4-.8 0-1.9-.8-2.2l-.9-.3c-1.2-.5-1.9-2-1.4-3.3.4-1.3 1.9-1.8 3.2-1.4l.6.3c1 .4 2-.2 2.1-1.1l.3-1.4c.1-.9-.5-1.8-1.5-1.9h-.8a2.6 2.6 0 0 1-2.3-2.7c-1-1-.2-2.6 1-2.5l2.3.2c1 0 1.8-.7 1.7-1.7l-.1-1.4c-.1-1-1-1.6-1.9-1.4h-.8c-1.2.3-2.4-.3-2.9-1.5-.6-1.4.4-3 1.8-3.3l.7-.2c.9-.1 1.5-1.1 1.2-2l-.6-1.4a1.6 1.6 0 0 0-2.2-.8l-.7.4c-1 .6-2.4.3-3.1-.7-1-1.3-.6-3 .7-3.8l.6-.3c.9-.5 1.1-1.6.5-2.3l-.8-1.2c-.6-.7-1.7-.8-2.3-.1l-.6.5c-1 1-2.6 1-3.6 0s-1-2.5 0-3.5l.5-.5c.6-.7.6-1.8-.2-2.4l-1.1-.9c-.8-.5-1.8-.3-2.3.6l-.4.6c-.6 1-1.8 1.6-3 1.2a2.5 2.5 0 0 1-1.4-3.7l.4-.6c.4-.8 0-1.9-.8-2.2l-.6-.2zm-5.2 3.6v.1l.3 21.9.2 6c0-1.3 0-2 .1-1.2v3.2c.3 11 .4 20.7.5 28l-.1-17.4V325.2v-1.4l-.1-8.6-.4-16.8V297.1 295l-.1-6v-3.8z" fill="#eedbc4" fill-rule="nonzero"/><path d="M602.5 262.2l-15-15c1.5-2.3 2.7-4.8 3.2-7.5h21.4a40.8 40.8 0 0 1-9.6 22.5M575 276.4v-21.2a20 20 0 0 0 7.4-3l15 15c-6.2 5.1-14 8.4-22.4 9.1m-29.8-9.1l15-15.1c2.2 1.4 4.7 2.4 7.4 3v21.2a41 41 0 0 1-22.4-9.1m-14.9-27.6h21.5a19 19 0 0 0 3.1 7.4L540 262.1c-5.4-6.2-8.8-14-9.7-22.4m9.1-30.3l15.2 15.3c-1.5 2.3-2.6 4.9-3 7.7h-21.4c.6-8.7 4-16.6 9.2-23m28-14.8v21.6a20 20 0 0 0-7.8 3.3l-15.2-15.2a40.7 40.7 0 0 1 23-9.7m30.2 9.7l-15.2 15.2c-2.2-1.6-4.9-2.8-7.7-3.3v-21.6c8.7.8 16.7 4.3 23 9.6m14.3 28.2h-21.3c-.6-2.9-1.6-5.5-3.1-7.8l15.2-15.3a40.6 40.6 0 0 1 9.2 23m10.1 3.7c1.6-.5 7.5-2.4 9-3.6l-.1-1.8-.2-1.9c-1.6-1-8-2.1-9.4-2.4l-.5-2.7c1.8-1 6.5-4 7.6-5.2l-.5-1.8-.5-1.8c-1.8-.6-8-.4-9.6-.3l-1.2-2.4a54 54 0 0 0 6.5-7l-1-1.6-.8-1.7c-2-.1-9.3 1.8-9.8 2l-.9-1.1c.9-1.4 4.2-6.8 4.6-8.6l-1.3-1.3-1.3-1.4c-1.9.3-7.7 3.6-8.8 4.3l-1.9-1.4a48 48 0 0 0 2.2-9.3l-1.6-1-1.6-1c-1.6.8-5.7 4.8-7.2 6.2l-2.2-1c.2-2.3.6-7.4.2-9l-1.8-.7-1.8-.6c-1.3 1-4.2 5.3-5.4 7.2l-3.5-.7c-.4-2.3-1.2-7-2-8.5l-1.8-.2-2-.2c-1 1.3-2.8 6-3.5 8.2l-3.1.1a43 43 0 0 0-4.6-7.8l-1.8.3-2 .4c-.5 1.5-.8 6.3-.9 8.7l-3.2 1a38.5 38.5 0 0 0-6-6.6l-1.8.7-1.7.8c-.2 1.6.6 6.8 1 9l-2.5 1.5a48.2 48.2 0 0 0-8-5l-1.3 1.1-1.5 1.2a49 49 0 0 0 3.4 8.5l-2.1 2.2c-1.6-.7-7.3-3-9.1-3l-1.1 1.4-1.1 1.5a47 47 0 0 0 5.4 7.6l-1.5 2.5c-1.7-.3-7.7-1.3-9.4-1l-.8 1.6-.8 1.7c1 1.6 5.8 5.4 7.2 6.5l-.7 2.1c-1.1.1-8 1-9.7 1.9l-.2 1.9-.2 1.8c1.3 1.1 6.4 3.1 8.4 4l-.2 3.3c-1.3.4-7.6 2.4-9 3.5v2l.1 1.8a53 53 0 0 0 9.6 2.4l.5 2.6c-1.7 1-6.6 4-7.7 5.3l.5 1.8.5 1.8c1.7.5 8 .3 9.6.3l1.1 2.3a50.6 50.6 0 0 0-6.5 7l1 1.6.8 1.6c2.1.2 9.8-2 9.8-2l.9 1.1c-.8 1.3-4.2 6.7-4.6 8.6l1.3 1.4 1.3 1.3c2-.3 7.8-3.7 8.8-4.3l1.8 1.4c-.6 1.8-2.3 7.5-2.3 9.3l1.6 1 1.7 1c1.6-.8 5.7-4.7 7.1-6.1l2.2 1a42 42 0 0 0 0 9l1.7.7 1.8.6c1.3-1 4.2-5.3 5.4-7.2 1.2.3 2.3.6 3.4.7.3 2.2 1.2 7.4 2 9l2 .1 1.8.2c1-1.4 3-6.6 3.7-8.5l3-.2c1 2 3.4 6.7 4.5 7.8l1.9-.4 1.8-.3c.6-1.5.8-6.2 1-8.6l3.3-1c1.4 1.8 4.6 5.7 6 6.6l1.7-.7 1.8-.8c.2-1.6-.5-6.6-1-8.8l2.5-1.5c1.7 1.2 6.3 4.4 8 5l1.4-1.3 1.4-1.1c-.2-1.7-2.3-6.5-3.3-8.5.9-.7 1.6-1.6 2.4-2.4 2 1 6.8 3.2 8.5 3.4l1.2-1.4 1.2-1.5c-.5-1.7-4-6.6-5-8l1.1-2c1.4.3 7.9 1.4 9.7 1l.8-1.6.8-1.8c-1-1.5-6.1-5.5-7.3-6.4l.8-2.5c1.4-.2 7.8-1 9.5-1.9l.3-1.9.2-1.8c-1.3-1.1-6.2-3-8.3-3.8.2-1.2.2-2.3.2-3.5" fill="#faae5f" fill-rule="nonzero"/><path d="M593.5 84.1c12.8 7.4 21.5 20.8 17.6 27.5-3.9 6.7-18.4 3.4-31.2-4-12.8-7.3-23-18.3-19-25 3.9-6.8 19.8-5.9 32.6 1.5m19.2 38.5a4 4 0 1 1-8 0 4 4 0 0 1 8 0m-1.6 11c3.8 6.8-4.8 20.2-17.7 27.6-12.8 7.4-28.7 8.2-32.6 1.5-3.9-6.7 6.2-17.7 19-25.1 12.8-7.4 27.4-10.7 31.2-4M551 158.3a4 4 0 1 1 4-7 4 4 0 0 1-4 7m-24.3-35.7c0-14.9 7.2-29 15-29 7.7 0 12.1 14.1 12.1 28.9 0 14.7-4.5 29-12.2 29-7.8 0-15-14.3-15-29m22.8-30.1a4 4 0 0 1 1.4-5.5 4 4 0 0 1 5.5 1.4 4 4 0 1 1-7 4M571 71.9c-1.6 0-3-2.2-3-4.7l-2.8.2c.4 2.5-.6 4.6-2.2 4.9-1.5.2-3.1-1.6-3.6-4l-2.7.6c.7 2.4 0 4.6-1.4 5.1-1.5.5-3.3-1-4.2-3.3l-2.5 1c1 2.2.7 4.4-.7 5.2-1.4.6-3.4-.5-4.5-2.6l-2.3 1.5c1.2 2 1.2 4.1 0 5-1.2.8-3.3.1-4.8-1.7L534 81c1.5 1.7 1.8 3.9.8 4.9-1 1-3.2.6-5-.9l-1.7 2.1c1.7 1.5 2.3 3.4 1.5 4.7-1 1.1-3 1-5 0l-1.4 2.3c1.8 1.2 2.7 3 2 4.3-.6 1.3-2.7 1.6-4.8.8l-1 2.5c2 1 3.1 2.6 2.7 4-.5 1.3-2.4 2-4.6 1.5l-.7 2.7c2 .6 3.5 2 3.3 3.4-.2 1.4-2 2.3-4.2 2.3l-.3 2.7c2.1.3 3.7 1.5 3.7 2.8 0 1.5-1.7 2.7-3.8 3l.1 2.7c2.1-.1 4 .8 4.1 2.2.2 1.5-1.2 2.9-3.3 3.5.1.9.3 1.8.6 2.6 2-.4 4 .2 4.4 1.6.5 1.4-.8 3-2.8 4l1 2.5c2-.7 4-.4 4.7.8.6 1.3-.4 3.2-2.2 4.4l1.3 2.4c1.9-1 4-1 4.8 0 .8 1.3.1 3.3-1.5 4.8a14 14 0 0 0 1.7 2.1c1.7-1.3 3.8-1.7 4.9-.7 1 1.1.6 3.3-.9 5l2 1.8c1.6-1.7 3.6-2.4 4.8-1.5 1.2.9 1.1 3-.1 5l2.2 1.6c1.3-2 3.2-3 4.5-2.4 1.4.8 1.7 3 .6 5.3l2.6 1.1c.9-2.2 2.6-3.6 4.1-3.1 1.5.4 2 2.7 1.4 5l2.7.8c.5-2.4 2-4.1 3.6-3.9 1.6.3 2.5 2.5 2.2 5l2.7.3c0-2.6 1.4-4.6 3-4.6s3 2.1 3 4.8l2.7-.2c-.4-2.6.6-4.8 2.2-5 1.6-.3 3.2 1.5 3.6 4.1v.1l2.8-.5v-.1c-.8-2.5-.2-5 1.4-5.4 1.5-.5 3.4 1 4.2 3.5v.3l2.7-1v-.2c-1.3-2.3-1-4.8.4-5.6 1.5-.7 3.6.6 4.8 3l.1.3 2.5-1.4-.3-.3c-1.5-2-1.6-4.6-.3-5.5 1.3-1 3.6 0 5.1 2l.3.5 2.3-1.8a.8.8 0 0 1-.4-.3c-1.8-1.8-2.4-4.3-1.3-5.5 1.2-1 3.6-.5 5.5 1.3l.4.5 2-2.1-.5-.4c-2.2-1.5-3.1-3.8-2.2-5.1 1-1.3 3.5-1.1 5.6.4l.5.5 1.6-2.5-.6-.3c-2.3-1.1-3.6-3.3-2.9-4.7.7-1.5 3.3-1.7 5.6-.5l.7.4 1.2-2.7-.7-.2c-2.5-.8-4-2.7-3.6-4.3.5-1.5 3-2.1 5.4-1.3.3 0 .5.1.8.3l.8-2.9h-.7c-2.6-.4-4.5-2-4.2-3.7.2-1.6 2.5-2.5 5.1-2.2l.9.2.3-3h-.6c-2.7 0-4.8-1.3-4.8-3 0-1.6 2-3 4.7-2.9h.8l-.2-2.9-.7.1c-2.6.4-5-.5-5.1-2.2-.3-1.6 1.6-3.2 4.2-3.6h.8l-.6-3-.7.3c-2.4.8-4.9.2-5.4-1.4-.5-1.5 1.1-3.4 3.6-4.2l.8-.2-1.1-2.8-.6.3c-2.3 1.3-4.8 1-5.6-.4-.7-1.5.6-3.6 3-4.8l.7-.3-1.6-2.6-.5.4c-2.1 1.6-4.6 1.8-5.5.5-1-1.3 0-3.6 2-5.2l.7-.3-1.9-2.3-.3.4c-1.9 1.9-4.3 2.4-5.5 1.3-1.1-1.2-.5-3.6 1.3-5.5l.5-.4-2.2-1.8-.3.4c-1.5 2.1-3.8 3-5.2 2.1-1.3-1-1-3.4.5-5.6l.3-.3a31 31 0 0 0-2.5-1.5l-.1.3c-1.2 2.4-3.3 3.7-4.8 3-1.4-.8-1.6-3.3-.5-5.6l.2-.3-2.6-1.1v.2c-1 2.4-2.8 4-4.4 3.5-1.5-.4-2.1-2.9-1.3-5.4v-.2l-2.7-.6c-.4 2.6-2 4.6-3.6 4.3-1.6-.3-2.6-2.6-2.2-5.2l-2.8-.2c0 2.6-1.3 4.7-3 4.7" fill="#4f5c5d" fill-rule="nonzero"/><path d="M518.3 110.7l.7-2.9-1-.1-.6 2.7 1 .3m102.6-9.6l1 2.5h.2l.8-.2-1.1-2.8-.6.4h-.3m4.3 25.4l-.2 2.8c.4 0 .6 0 .9.2l.3-3h-1m-104.6-23.8l1.2-2.7-1-.3-1 2.5.8.5m104.4 15l.2 2.9h1l-.2-3-.7.1h-.3m-108.9 9.7h1l-.2-3a2 2 0 0 1-.9.2l.2 2.8m8.3-32.1l1.5-2.5-.9-.4-1.4 2.3.8.6m-8.3 23.7l1 .2.3-3-1 .1-.2 2.8m107.6-9.7l.6 2.7h1l-.7-3-.7.2h-.2M617 93.6l1.4 2.3.2-.1.7-.3-1.5-2.6-.5.4-.3.2M549.3 73l2.6-1-.4-1-2.5 1c0 .4.2.7.3 1m27.6-4.3l.1-1-2.8-.2v1c1 0 1.9.2 2.8.3m13.9 3.4l2.5 1 .3-.6.1-.3-2.5-1-.1.1c0 .3-.2.6-.3.8m-8.3-2.6l2.7.7.2-.8v-.2l-2.7-.6-.1 1m15.9 6.1l2.3 1.5.3-.5.3-.4-2.4-1.5v.3l-.4.6m-69.4 12.5c.6-.8 1.2-1.6 2-2.3l-.9-.6a35 35 0 0 0-1.8 2.1l.7.7M541.8 77l2.5-1.4-.6-.9-2.4 1.4.5 1m63.7 3.5l2 1.8.3-.4.4-.3-2.2-2-.3.5-.4.4m6.3 6l1.7 2.1.3-.2.5-.3a67 67 0 0 0-2-2.2l-.4.4-.3.3m-76.6-4.4l2.2-1.9-.7-.7-2 1.8.5.8m37.2 94.6l.1 1 2.8-.2-.1-1-2.8.2m17-2.4v.2l2.7-1v-.1l-.4-.7-2.6 1 .2.6m-39.5-1l.4-1-2.6-1-.3.8 2.4 1m5.5 2l2.7.8.2-1-2.7-.7-.2 1m42-4.7v.3l2.6-1.4-.2-.3c-.1-.2-.3-.3-.3-.5-.9.5-1.6 1-2.4 1.3l.2.6M568.2 68.5v-1l-2.8.1v1l2.8-.3m-26.2 101l.5-.8-2.3-1.5-.4.8 2.2 1.5m21.7 6.8v1c.8.1 1.7.3 2.6.3l.1-.9-2.8-.2m-4-107.6l-2.6.7.2 1 2.7-.7-.3-1M581 177v.1c1-.1 1.8-.3 2.7-.6l-.2-.9-2.7.6.2.7m42.5-39c.3 0 .5.2.8.3l.8-3h-1l-.7 2.7h.2m-19 28.3l.2.5 2.3-1.8-.4-.3-.3-.4-2.2 1.7.3.3M517.6 136l1-.1-.7-3-1 .5.7 2.7m2.6 8.1l1-.2-1.2-2.8-.8.5 1 2.6m3.8 7.6a6 6 0 0 1 1-.4l-1.5-2.5-.8.5 1.3 2.4m96.3-5.5l.6.4 1.2-2.8-.7-.1-.3-.1-1.1 2.5h.2m-4 7.3c.2 0 .4.2.6.4l1.6-2.5-.6-.3h-.2l-1.6 2.2.2.2m-5.4 6.8l.4.4 2-2.2-.5-.3-.3-.2-1.9 2 .3.2m-75.6 4.3l.7-.7-2.2-2-.5.8c.6.7 1.3 1.3 2 1.8m-7.9-8.2l1.8 2.2.8-.6c-.7-.7-1.3-1.5-1.8-2.3l-.8.7" fill="#4f5c5d" fill-rule="nonzero"/><path d="M264.4 188.7a6.7 6.7 0 1 1-9.8 9 6.6 6.6 0 0 1 .4-9.2c2.7-2.5 7-2.4 9.4.3M238 171.4c-.5.6-.5 1.5.2 2l.5.5c.9.7 1.1 1.9.6 2.8a2.2 2.2 0 0 1-3.3.7l-.4-.4c-.7-.5-1.6-.4-2.1.4l-.6 1c-.4.8 0 1.7.7 2l.7.4c1 .4 1.6 1.4 1.3 2.5-.2 1.4-1.7 2.1-3 1.6l-.5-.2c-.7-.3-1.6.1-1.8.9l-.3 1.2c-.1.9.4 1.7 1.2 1.7l.8.1c1.2.2 2 1.3 2 2.5.8 1 0 2.3-1 2.1l-2-.2c-.9 0-1.6.6-1.5 1.5v1.2c.1.8.9 1.4 1.7 1.3l.7-.1c1.3-.2 2.4.6 2.6 1.8.2 1.2-.5 2.3-1.7 2.5l-.6.1c-.8.2-1.4 1-1.1 1.8l.4 1.2c.3.8 1.2 1.2 2 .8l.6-.3c1-.6 2.4-.1 3 1 .5 1 0 2.4-1 3l-.5.2c-.7.4-1 1.4-.6 2l.8 1c.5.7 1.4.8 2.1.3l.6-.5c.9-.8 2.3-.8 3 .1 1 1 .9 2.4 0 3.1l-.5.5c-.6.5-.6 1.5 0 2l1 .8c.7.5 1.7.4 2.1-.4l.3-.5c.5-1 1.7-1.5 2.7-1 1.3.5 1.8 2 1.1 3.2l-.3.5c-.4.7-.1 1.6.7 2l1.1.4c.8.4 1.6 0 1.8-.9l.2-.7a2.2 2.2 0 0 1 2.7-1.5c1.2.2 1.9 1.5 1.6 2.6l-.1.6c-.2.8.4 1.6 1.2 1.7l1.2.2c.9 0 1.5-.6 1.5-1.4v-.8c0-1.1 1-2.2 2.2-2.2 1.2 0 2.2 1 2.2 2.2v.6c0 .8.8 1.4 1.6 1.3l1.3-.2c.7-.1 1.2-1 1-1.7l-.3-.7c-.3-1.2.3-2.5 1.5-2.8 1.1-.4 2.4.2 2.7 1.4l.2.6c.3.8 1.3 1.2 2 .8l1-.6c.8-.4 1-1.4.5-2l-.4-.7c-.7-1-.4-2.4.6-3 1-.8 2.4-.5 3.1.5l.4.5c.5.7 1.4.7 2 .2l1-.9c.6-.6.5-1.5-.1-2l-.6-.5c-1-.8-1.1-2.2-.3-3.1.7-1 2.1-1.1 3-.3l.5.4c.7.5 1.6.3 2-.4l.7-1c.4-.8.1-1.7-.7-2l-.7-.3a2.3 2.3 0 0 1-1.2-3 2.3 2.3 0 0 1 3-1.1l.5.3c.8.3 1.7-.2 2-1l.2-1.2c.2-.8-.4-1.6-1.2-1.7h-.7c-1.2-.2-2-1.3-2-2.5-.7-.8 0-2.3 1.1-2.1l2 .2c.9 0 1.6-.6 1.6-1.5v-1.2c-.1-.8-.9-1.4-1.7-1.3l-.6.2c-1 .2-2.2-.4-2.6-1.5-.4-1.3.4-2.7 1.7-2.9l.6-.1c.9-.2 1.4-1 1.1-1.8l-.3-1.2c-.3-.8-1.2-1.1-2-.8l-.6.4c-1 .4-2.1.2-2.8-.7-.8-1-.4-2.7.8-3.3l.6-.2c.8-.4 1-1.4.5-2.1l-.7-1c-.5-.6-1.4-.8-2-.2l-.6.5c-.9.8-2.3.8-3.2-.1-.7-.9-.7-2.3.2-3.1l.4-.4c.7-.5.6-1.5 0-2l-1-.8c-.7-.6-1.6-.4-2 .4l-.4.5c-.6 1-1.7 1.4-2.7 1-1.3-.5-1.8-2-1-3.2l.2-.5c.4-.8.1-1.7-.6-2l-1.2-.5c-.8-.3-1.6.1-1.8 1l-.2.6c-.3 1-1.3 1.8-2.3 1.7a2.3 2.3 0 0 1-2-2.8l.1-.6c.2-.8-.4-1.6-1.2-1.7l-1.3-.1c-.8 0-1.5.6-1.4 1.4v.7c0 1-.7 2-1.8 2.3-1.4.2-2.6-.8-2.6-2.2v-.6c0-.9-.8-1.5-1.7-1.3-.4 0 .3 1.7 0 1.8-1 .2-.4.5-.2 1.3l-.5 1.3c.3 1.2-1.5.8-2.7 1.1-.8.8-1.8 3-2.2 2l-.7-.9c-.3-.8-.9-.7-1.6-.3-.4.1-3.4-2.8-3.8-2.6-.7.4 1.3.9 1.8 1.6l.4.6c.8 1 .4 2.6-1 3.2-.9.5-2 0-2.7-.8l-.3-.5c-.5-.7-1.4-.8-2-.2l-1 .8" fill="#72afcc" fill-rule="nonzero"/><path d="M239.2 216.6l-.2.3c-2 1.8-1.8 4.9.2 6.6l1.7 1.5.3.3a37.7 37.7 0 0 1-2-8.6zm4.4 14.1a7.2 7.2 0 0 1-11.8 5.3l-1.5-1.3a4.5 4.5 0 0 0-6.7 1l-2.1 3.5a4.5 4.5 0 0 0 2 6.4l2.3 1a7.3 7.3 0 0 1 3.7 9.5 5 5 0 0 1-7.1 4.7l-4.2-1.8a4.5 4.5 0 0 0-6.1 3l-1 3.8a4.5 4.5 0 0 0 3.8 5.5l2.5.3c4.3.6 7.2 5 5.9 9.3a7.3 7.3 0 0 1-8 4.9l-1.7-.2a4.5 4.5 0 0 0-5.1 4.5v4.1a4.5 4.5 0 0 0 5.3 4.2l2.2-.3c3.5-.5 7 1.4 8 4.8a7.2 7.2 0 0 1-5.6 9.4l-2 .3a4.5 4.5 0 0 0-3.6 5.7l1.3 4c.9 2.4 3.7 3.7 6.1 2.5l2.1-1a7.4 7.4 0 0 1 9.1 2.3 7.2 7.2 0 0 1-2.8 10.6l-1.8.8a4.5 4.5 0 0 0-1.8 6.6 61 61 0 0 0 2.2 3.3 4.6 4.6 0 0 0 6.7.8l1.8-1.6c3-2.6 7.5-2.3 10.2.6 3.8 0 5.6 4.7 2.7 7.2l-4.8 4.3c-2 1.8-2 5 0 6.8l3.2 2.6a4.5 4.5 0 0 0 6.5-1.2l1.3-2a7.3 7.3 0 0 1 10-2.3 7.2 7.2 0 0 1 2.2 10l-1 1.6a4.5 4.5 0 0 0 2 6.5l1.6.7v-3c-.2-21 0-90.7.2-93.7l.6-10.7.6-10.4.2-1.5 2.5 2.5.8.9v-.1l-.9-1-2.4-2.4 2.5 2.4a27.6 27.6 0 0 1-3.5-4c-.3-1.1.2-3 .9-3.4l3.7-4.8v-.2l-3.6 4.8-3.2-1.7a56 56 0 0 1-23.8-23.8zm30.6 73.6zm0 40.1v0zm0 11v1.5l.2 15 .2 9.8v-3.2-2.4-1.6l-.2-18.2v-1zM224 173.5a12.3 12.3 0 1 1 0-24.5 12.3 12.3 0 0 1 0 24.5m18.3-8.8c-1.8-1-1.7-2.2.4-2.6 2-.5 2-1.3 0-1.8-2.1-.5-2.2-1.7-.3-2.6 2-.9 1.7-1.7-.4-1.6-2.1 0-2.5-1.1-.8-2.5 1.6-1.4 1.3-2-.8-1.5-2 .5-2.7-.5-1.4-2.2 1.3-1.8.8-2.4-1.1-1.4-2 1-2.8.1-2-1.8 1-2 .3-2.5-1.3-1-1.6 1.3-2.6.7-2.2-1.3.4-2.2-.4-2.5-1.6-.8-1.3 1.7-2.4 1.4-2.5-.7 0-2.2-.8-2.3-1.7-.4-.8 2-2 2-2.6-.2-.6-2-1.3-2-1.7.1-.3 2-1.5 2.3-2.5.5-1-2-1.9-1.7-1.7.5.2 2.1-.9 2.6-2.4 1-1.4-1.6-2-1.2-1.4.9.6 2-.4 2.7-2.1 1.5-1.8-1.2-2.3-.6-1.3 1.2 1 1.8.3 2.7-1.7 2-2-.8-2.4-.1-1 1.4 1.5 1.6 1 2.6-1.1 2.3-2.2-.2-2.4.5-.6 1.6 1.8 1.2 1.5 2.3-.6 2.6-2 .2-2.2 1-.2 1.7s2 1.8 0 2.5c-2 .8-1.9 1.5.2 1.8 2.1.2 2.5 1.3.7 2.5-1.9 1.2-1.6 1.9.5 1.6 2.2-.2 2.7.8 1.2 2.4-1.5 1.4-1 2.2 1 1.4 2-.8 2.8.1 1.7 2-1.1 1.8-.6 2.3 1.2 1.1 1.8-1.2 2.7-.5 2 1.6-.6 2 .1 2.4 1.5.8 1.5-1.5 2.6-1 2.4 1 0 2.2.7 2.4 1.7.6 1.1-1.9 2.3-1.7 2.6.4.4 2.1 1.2 2.2 1.8.1.5-2 1.7-2.1 2.5-.1.9 2 1.7 1.8 1.8-.3.1-2.2 1.2-2.5 2.5-.8s2 1.4 1.6-.7c-.4-2.2.7-2.7 2.3-1.4 1.6 1.4 2.3 1 1.4-1-.8-2 0-2.7 1.9-1.8 2 1 2.4.4 1-1.3-1.2-1.7-.6-2.7 1.5-2.2 2 .5 2.5-.2.8-1.6-1.6-1.3-1.2-2.4.9-2.4s2.3-.7.4-1.7M224 168.4" fill="#faae5f" fill-rule="nonzero"/><path d="M209.8 159.3h28.3v4h-28.3z" fill="#faae5f" fill-rule="nonzero"/><path d="M221.8 147.2h4.2v28.2h-4.2z" fill="#faae5f" fill-rule="nonzero"/><path d="M577 235.4a5.8 5.8 0 0 1-11.6 0v-113a5.8 5.8 0 1 1 11.7 0z" fill="#7aa8bc" fill-rule="nonzero"/><path d="M248.8 168.2a4.8 4.8 0 1 1 0-9.5 4.8 4.8 0 0 1 0 9.5m19-4.7a4 4 0 0 1 4.1-4h.7c-.6-3.6-2-7-4.1-10a4 4 0 0 1-6.2.6 4 4 0 0 1 0-5.6l.6-.5c-3-2-6.3-3.5-10-4.1v.8a4 4 0 0 1-4 4v.2a4 4 0 0 1-4-5 24 24 0 0 0-10 4.2l.7.6a4 4 0 0 1 0 5.7 4 4 0 0 1-5.7 0 2 2 0 0 1-.6-.7c-2.2 3-3.6 6.5-4.2 10.2l.9-.1a4 4 0 0 1 4 4 4 4 0 0 1-4 4.1h-1c.6 3.7 2 7.2 4.2 10l.5-.6a4 4 0 0 1 5.8 0 4 4 0 0 1-.7 6.2c3 2 6.4 3.5 10 4v-.7a4 4 0 0 1 4-4 4 4 0 0 1 4 4v.7c3.6-.6 7-2 9.9-4.2-.2 0-.4-.2-.6-.4a4.1 4.1 0 0 1 0-5.8 4 4 0 0 1 5.7 0l.4.5c2-2.9 3.4-6.2 4-9.8h-.6a4 4 0 0 1-4-4" fill="#505b5f" fill-rule="nonzero"/><path d="M514.4 234.7c0-30.7 26.1-55.8 56.9-55.8" fill="none" stroke="#4f5c5d" stroke-width="14.87709"/><path d="M521.9 238.6c0 2.1-1.8 3.9-3.9 3.9H280.4a3.9 3.9 0 0 1-3.9-3.9v-6.5c0-2.1 1.8-3.8 4-3.8H518c2.1 0 3.9 1.7 3.9 3.8z" fill="#4f5c5d" fill-rule="nonzero"/><path d="M242.5 184c0 .4-.3.7-.7.7h-7.2a.6.6 0 0 1-.7-.6v-1.6c0-.4.3-.7.7-.7h7.2c.4 0 .7.3.7.7v1.5zm-8.8-14.9a.6.6 0 0 0-.9.3l-3.6 6.3c-.1.3 0 .6.3.8l1.4.8c.3.2.7 0 .8-.2l3.6-6.4c.2-.3 0-.7-.2-.9l-1.4-.8zm6.7 6.5c.2.3.1.7-.2.8l-6 4c-.4.1-.8 0-1-.3l-.8-1.3a.6.6 0 0 1 .2-.9l6-3.9c.4-.2.8 0 1 .2zm-30.2 8.5c0 .3.3.6.6.6h7.3c.3 0 .6-.3.6-.6v-1.6c0-.4-.3-.7-.6-.7h-7.3c-.3 0-.6.3-.6.7v1.5zm8.8-15c.3-.1.7 0 .9.3l3.5 6.3c.2.3 0 .6-.2.8l-1.4.8c-.3.2-.7 0-.9-.2l-3.6-6.4c-.1-.3 0-.7.3-.9l1.4-.8zm-6.8 6.5c-.2.3 0 .7.2.8l6.1 4c.3.1.7 0 1-.3l.8-1.3c.2-.3 0-.7-.2-.9L214 174a.6.6 0 0 0-1 .2zm14.9-8.4c.3 0 .6.3.6.7v7.2c0 .4-.3.7-.6.7h-1.6a.6.6 0 0 1-.7-.7V168c0-.4.3-.7.7-.7h1.6z" fill="#d16a4b" fill-rule="nonzero"/><path d="M245.4 250.5a10.1 10.1 0 1 1 0-20.2 10.1 10.1 0 0 1 0 20.2m-12.8-32.8V210a7.9 7.9 0 0 1 15.8 0v7.8a8 8 0 0 1-15.8 0m-13.2 0a7.9 7.9 0 0 1-15.8 0v-7.9c0-4.4 3.5-7.8 7.9-7.8 4.3 0 7.9 3.4 7.9 7.8v7.9zM206.9 250a9.9 9.9 0 1 1 0-19.8 9.9 9.9 0 0 1 0 19.8m64.7-16.1s-4.4-.6-5.7-1c-7.7-2.6-11.3-13.3-11.3-22.5a27 27 0 0 1 .3-4.3c0-4-2.8-7.4-6.6-8.2a12.7 12.7 0 0 1-10-12.4l.1-.8v-1.1a12.1 12.1 0 1 0-24.2 0v2.1c0 6-4.1 11.2-9.7 12.5a8.5 8.5 0 0 0-6.6 8.2v.9c.2 1 .3 2.2.3 3.5 0 9.2-4 20-11.3 22.5-1.3.5-5.7 1-5.7 1a2.9 2.9 0 0 0-2.3 3.4 3 3 0 0 0 3.4 2.4l5.7-1a2.8 2.8 0 0 1 1.7 5.2l-5.1 2.5c-1.4.6-2 2.4-1.3 3.9a3 3 0 0 0 3.9 1.3l5.2-2.6h.8a2.8 2.8 0 0 1 2.2 4.4l-4.2 4a3 3 0 0 0-.2 4c1.1 1.3 3 1.4 4.1.3l4.3-4v.1a3 3 0 0 1 1.6-.4c1.5 0 2.7 1.2 2.7 2.8 0 .4 0 .7-.2 1l-3.4 5.6a3 3 0 0 0 5 3l3.4-5.4c.6-.6 1.4-1 2.2-1 1.6 0 2.8 1.2 2.8 2.8v.4l-1.7 6.3a3 3 0 0 0 2.1 3.5 3 3 0 0 0 3.6-2l1.7-6.3.4-.7c1.3.6 3.1 1 5.1 1.2v.1h4.6v-.1c2-.2 3.7-.6 5.2-1.3l.3.7 1.7 6.3c.5 1.5 2 2.4 3.6 2a3 3 0 0 0 2-3.6l-1.7-6.3v-.3a2.8 2.8 0 0 1 5-1.7l3.5 5.5a3 3 0 0 0 5-3.1l-3.5-5.5h.1a2.8 2.8 0 0 1 2.6-3.8c.6 0 1 0 1.5.3l4.4 3.9c1.1 1 3 1 4-.2s1-3-.1-4.1l-4.4-4c-.3-.4-.5-1-.5-1.6 0-1.6 1.2-2.8 2.8-2.8l.7.1 5.2 2.5c1.5.7 3.2.1 4-1.4.6-1.4 0-3.1-1.4-3.8l-5.2-2.6a2.8 2.8 0 0 1-1.2-2.2c0-1.6 1.3-2.8 2.8-2.8l5.8 1a3 3 0 0 0 3.3-2.4 3 3 0 0 0-2.4-3.4" fill="#d16a4b" fill-rule="nonzero"/><path d="M574.5 179.3a3.3 3.3 0 1 1-3.2-3.3c1.8 0 3.3 1.4 3.3 3.2m-352.8 2.7a4.8 4.8 0 1 1 9.5 0v109.6c0 2.6-2.1 4.8-4.7 4.8a4.7 4.7 0 0 1-4.7-4.8V182z" fill="#7aa8bc" fill-rule="nonzero"/><path d="M284.1 235.7c0 30.8-24.9 55.7-55.7 55.7" fill="none" stroke="#4f5c5d" stroke-width="14.87709"/><path d="M229.1 182.2a2.6 2.6 0 0 1-5.2 0c0-1.5 1.2-2.7 2.6-2.7 1.4 0 2.6 1.2 2.6 2.6" fill="#d16a4b" fill-rule="nonzero"/><path d="M229 291.5a2.4 2.4 0 1 1-2.5-2.4c1.3 0 2.4 1.1 2.4 2.5" fill="#7aa8bc" fill-rule="nonzero"/><g transform="translate(440.2 -214.5) scale(.28036)"><path d="M-496.3 1144.7c44 94.3 44 96.4 44 96.4l230.3 33.5 150.8-77.5H44l67 35.6 31.4 29.3 16.7 12.5 33.5 8.4 27.3-21 8.4-41.8-96.4-88-324.6-46.1-228.2 10.4z" fill="#3c2d28" fill-opacity=".4" stroke="#000" stroke-linecap="butt" stroke-linejoin="miter"/><circle r="138.7" cy="1508.9" cx="149.5" fill="#5bc7d9"/><circle r="138.7" cy="1515.1" cx="-401.3" fill="#5bc7d9"/><path d="M-596 1706.2l-8.6-8.8 8.8 8.5c8.1 8 9.2 9 8.4 9l-8.7-8.7zm131.7-75.9a19.8 19.8 0 0 1-4.8-2.9c0-.5 10 4.2 11 5.1 1.2 1.1-2 0-6.2-2.2zm664.3 2.2c1-.9 11-5.6 11-5a50 50 0 0 1-10.7 5.4c-.4 0-.5-.2-.3-.4zm-697-26.3l-6.6-6.8 6.8 6.5c3.7 3.5 6.7 6.6 6.7 6.7 0 .8-1-.2-7-6.4zm181 .2c3.4-3.6 6.6-6.5 6.8-6.5.3 0-2.4 3-5.9 6.5a71.4 71.4 0 0 1-6.9 6.5c-.3 0 2.4-2.9 6-6.5zm373-.2l-6.6-6.8 6.8 6.5c6.2 6 7.2 7 6.4 7 0 0-3.2-3-6.7-6.7zm181 .2c3.4-3.6 6.6-6.5 6.8-6.5.3 0-2.4 3-5.9 6.5a71.4 71.4 0 0 1-6.9 6.5c-.3 0 2.4-2.9 6-6.5zm-758.7-32.6a19.4 19.4 0 0 1-2.2-5.5c.2-.2 1.6 2.1 3.1 5.1 1.5 3 2.5 5.5 2.2 5.5-.3 0-1.6-2.3-3-5zm-154-57.9c0-8 .2-11.2.3-7.2.2 4 .2 10.5 0 14.5 0 4-.3.7-.3-7.3zm1091 0c0-8 .2-11.2.3-7.2.2 4 .2 10.5 0 14.5 0 4-.3.7-.3-7.3zm-980.5-5c-1-9 2.4-29.5 7.3-44.5 18-55 65.5-96.4 123.3-107 15-2.9 42.1-2.7 57.2.3a159.1 159.1 0 0 1 125.7 124.5 95.4 95.4 0 0 1 2.6 26.7c0 3.3-.2 3.3-1 1l-2.5-11.5A159.2 159.2 0 0 0-355.9 1382a128.2 128.2 0 0 0-50.2-7.5c-17.5 0-22 .3-30.7 2.2a156.9 156.9 0 0 0-41.3 14.8 156.6 156.6 0 0 0-82.6 109.6c-2 12-3 14.6-3.5 9.8zm554.1 0c-.5-7.6.2-15 2.6-26.7a159.1 159.1 0 0 1 125.7-124.5c15.1-3 42.3-3.2 57.2-.4a159.6 159.6 0 0 1 130.3 140.1c.8 8.7.1 17.2-1 12.5-.4-1.4-1.4-6.5-2.3-11.4a159 159 0 0 0-123.8-123.8 120 120 0 0 0-30.7-2.2c-22.7 0-31.7 1.3-50.2 7.5A159.2 159.2 0 0 0-6.6 1500.4c-1 5-2 10.1-2.5 11.5-.8 2.3-.9 2.3-1-1z" fill="#e5b83f"/><path d="M-504 1432.6s3.4-3.6 7.7-7.7l7.7-7.5-7.5 7.8c-6.9 7.1-8 8.2-8 7.4zm187.4-7.9l-8-8.3 8.3 8 8.2 8.2c0 .8-1-.3-8.5-7.9zm374 .2c4.4-4.4 8.2-8 8.5-8a94 94 0 0 1-7.5 8c-4.4 4.4-8.2 8-8.5 8a94 94 0 0 1 7.5-8zm180.5.5a60.4 60.4 0 0 1-6.9-7.5c.2 0 3.8 3.4 8 7.5 4 4.1 7.1 7.5 6.8 7.5-.2 0-3.8-3.4-7.9-7.5zm-373-87.8c-7.3-2.3-18.6-17.2-20.5-27.2l-.6-3 1.5 3.1A28.6 28.6 0 0 0-129 1327c10.8 0 21.1-6.6 25.6-16.4l1.5-3-.6 3c-2 10.4-13.2 25-21 27.2a15.5 15.5 0 0 1-11.5 0zm-86.7-38.2c0-2.7.2-3.8.4-2.2.2 1.5.2 3.7 0 5-.2 1.2-.4 0-.4-2.8zm185 0c0-2.7.2-3.8.4-2.2.2 1.5.2 3.7 0 5-.2 1.2-.4 0-.4-2.8zm-146.7-6.2a55.5 55.5 0 0 1 41.6-46.8 55 55 0 0 1 67.2 46.8c.4 2.7.3 4.7-.2 4.7s-1.2-1.9-1.5-4.2c-.3-2.3-2.4-7.9-4.6-12.4a53.9 53.9 0 0 0-55.8-29.6A56 56 0 0 0-167 1267a60.2 60.2 0 0 0-14.8 26.7c-.3 2.3-1 4.2-1.5 4.2s-.6-2-.2-4.7z" fill="#e5b83f"/><path d="M321.2 2135.4c0-2.7.2-3.8.4-2.2.2 1.5.2 3.7 0 5-.2 1.2-.4 0-.4-2.8zm-912.9-28.5c0-8 .2-11.2.3-7.2.2 4 .2 10.5 0 14.5 0 4-.3.7-.3-7.3zm914-6c0-5.8.1-8 .3-5.2a92 92 0 0 1 0 10.5c-.2 2.8-.3.5-.3-5.3zm-915-73c0-9.6.2-13.6.3-8.7.2 4.8.2 12.6 0 17.5 0 4.8-.3.8-.3-8.8zm915-45.5c0-7.7.2-10.7.3-6.7.2 4 .2 10.3 0 14-.2 3.7-.3.4-.3-7.3zm-1-56.5c0-5.2.1-7.4.3-4.7.2 2.6.2 6.8 0 9.5-.2 2.6-.3.4-.3-4.8zm-1-42c0-5.2.1-7.4.3-4.7.2 2.6.2 6.8 0 9.5-.2 2.6-.3.4-.3-4.8zm-913-19c0-7.4.1-10.5.3-6.7.2 3.7.2 9.7 0 13.5-.2 3.7-.3.6-.3-6.8zm912-39c0-7.4.1-10.5.3-6.7.2 3.7.2 9.7 0 13.5-.2 3.7-.3.6-.3-6.8zm-911-10c0-4 .1-5.8.3-3.7.2 2 .2 5.4 0 7.5-.2 2-.4.3-.4-3.8zm1-31c0-3.6.1-5 .3-3.2.2 1.7.2 4.7 0 6.5-.2 1.7-.4.3-.4-3.3zm909-11c0-4 .1-5.8.3-3.7.2 2 .2 5.4 0 7.5-.2 2-.4.3-.4-3.8zm-456-3.7c1.4-.2 3.8-.2 5.4 0 1.5.2.2.4-2.8.4s-4.3-.2-2.7-.4zm-452-9.8c0-2.7.1-3.8.3-2.2.2 1.5.2 3.7 0 5-.2 1.2-.4 0-.4-2.8zm907-16.5c0-3.6.1-5 .3-3.2.2 1.7.2 4.7 0 6.5-.2 1.7-.4.3-.4-3.3zm-442-4c0-4 .1-5.8.3-3.7.2 2 .2 5.4 0 7.5-.2 2-.4.3-.4-3.8zm304.6-17.7c0-.5 3.3-.7 7.2-.5 12.5.4 13.7 1 3.1 1-5.7.1-10.3 0-10.3-.5zm-258.7-14.8c0-3.3.2-4.5.4-2.7a30 30 0 0 1 0 6c-.2 1.5-.4 0-.4-3.3zm-46-16.2c1.5-.2 4-.2 5.5 0s.2.4-2.8.4-4.3-.2-2.7-.4zm-77.5-2c-.9-.2-1.8-1.4-2-2.6-.3-1.9 1-2.7 9.1-6 5.2-2 13.1-5.5 17.6-7.6 5.4-2.5 8.7-3.6 9.6-3 .8.5 9.5 1 19.4 1 10.8 0 20.6.6 24.5 1.4l6.5 1.3-7.8.1c-4.4.1-12.4 1-17.8 2.1a42.4 42.4 0 0 1-11 1.4c-.8-.5-.9-.2-.4.6.6 1 .3 1.2-1.3.8-1.4-.4-2-.2-1.5.5.4.6-.2.8-1.5.5-1.4-.4-2-.2-1.5.5.4.6-.2.8-1.5.5-1.2-.4-2-.3-1.8.1.3.4-5 2.6-11.8 5a51 51 0 0 1-26.8 3.4zm70.5-297c1.5-.2 4-.2 5.5 0s.2.4-2.8.4-4.3-.2-2.7-.4zm-81.3-63.8a23.2 23.2 0 0 1-3.9-4.5c.3 0 2.5 2 5 4.5 2.3 2.5 4.1 4.5 3.8 4.5-.3 0-2.5-2-4.9-4.5zm167 .3c4.1-4.5 5-5.3 5-4.5 0 .2-2 2.3-4.7 4.7l-4.8 4.5zm-311-30.4l-15-1.6-3.5-.3-2.3-14.9a166 166 0 0 1-1.9-15.2 468 468 0 0 0 98.2-2.9l20-2.5c3.2 0-48.7 26.6-66.3 34-13 5.4-12.5 5.4-29.2 3.4zm-90.6-16.8c-21.6-7-37.5-17-42.6-27a26.5 26.5 0 0 1-.9-18.6c.8-1.9 2.8-5.6 4.5-8.2l3-4.7 6.7 6.3c3.7 3.5 10.4 8.7 15 11.5 9.7 6 29.4 14.5 31.5 13.7 1-.4 1.2-.2.8.5-.3.6-1.6 7.5-2.8 15.2-1.6 10.5-2.6 14.2-3.6 14.4-.8.1-6-1.3-11.6-3zm700-1.3c2.5-.2 6.7-.2 9.4 0 2.6.2.4.3-4.8.3s-7.4 0-4.7-.3zm-819-30.3c0-4.7.1-6.6.3-4.2.2 2.3.2 6.1 0 8.5-.2 2.3-.4.4-.4-4.3zm692-1a121.3 121.3 0 0 0-25.8-17.5c-17-8.3-32.6-12.3-65-17-19.7-2.8-21.5-3.6-23.6-10-1.3-4-.5-6 4.5-10.4 4.4-3.8 7.8-4 23.2-1 39.5 7.5 71.6 22.7 94.6 45l9.2 8.8-5 .1c-2.7 0-6 .7-7.5 1.5-3 1.7-3.7 1.8-4.6.4zm49.7-1.4c1-.9 9-4.6 9-4a33 33 0 0 1-8.7 4.4c-.4 0-.5-.2-.3-.4zm31.2-4c0-2.8.2-3.9.4-2.3.2 1.5.2 3.7 0 5-.2 1.2-.4 0-.4-2.8zm-619 2.7c3.7-.2 9.7-.2 13.5 0 3.7.2.6.3-6.8.3-7.4 0-10.5 0-6.7-.3zm41.5-9c4-.2 10.5-.2 14.5 0 4 .1.7.3-7.3.3s-11.2-.2-7.2-.3zm311.7-7c-19.7-7.6-37.5-10-50.9-6.9-3.8 1-7.3 1.3-7.6 1-.4-.6-1-2.9-1.3-5.4-.3-2.5-.3-3.8.1-2.8.6 1.4 3.1.6 18.7-6.2 41.3-17.8 60-23 82-23 13.1 0 16.5.7 16.5 3.2 0 6-15.4 20.6-40.8 38.6a73.4 73.4 0 0 1-7.5 5.1 251 251 0 0 0-9.2-3.6zm241-31.5l-5-5.3 5.3 5c4.8 4.6 5.7 5.5 5 5.5-.2 0-2.6-2.4-5.3-5.2zm37.6 1.2a9 9 0 0 1 1-4c.7-1.2 1-1.2.8.5 0 1.1-.4 3-.9 4-.8 1.8-.9 1.8-.9-.5zm-620.3-2.7c3.4-.2 8.8-.2 12 0 3.1.2.3.3-6.3.3s-9.2 0-5.7-.3zm571.5-35.8c0-3.8.2-5.3.4-3.2.2 2 .2 5.2 0 7-.2 1.7-.4.1-.4-3.8zm-103-1c0-2.7.2-3.8.4-2.2.2 1.5.2 3.7 0 5-.2 1.2-.4 0-.4-2.8zm-273-11c0-4.4.2-6 .4-3.7s.2 6 0 8-.4.1-.4-4.3zm-187-20c0-3.3.2-4.5.4-2.7a30 30 0 0 1 0 6c-.2 1.5-.4 0-.4-3.3zm-11-.7l-.3-5.7-13.7-.4-13.8-.3 13.8-.2c15.5-.2 15.1-.5 14.4 7.4l-.3 5zm-72-3.8c0-4.7.2-6.6.4-4.2.2 2.3.2 6.1 0 8.5-.2 2.3-.4.4-.4-4.3zm164.7-2.4c0-7.2-.3-8.5-1.7-8.9-1.4-.4-1.2-.5.5-.6 2.1 0 2.2.2 2.2 9 0 5-.2 9-.5 9s-.5-3.9-.5-8.5zm298-3a23.2 23.2 0 0 1-3.9-4.6c.3 0 2.5 2 5 4.5 2.3 2.5 4.1 4.5 3.8 4.5-.3 0-2.5-2-4.9-4.5zm-370.7 1.7c1.5-.2 4-.2 5.5 0s.2.4-2.8.4-4.3-.2-2.7-.4zm-54-9c2-.2 5.4-.2 7.5 0 2 .2.3.4-3.8.4-4 0-5.8-.2-3.7-.4zm28.4 0c5.1-.4 5.2-.5 5.6-3.9.4-3.4.4-3.4.3.3v3.8l-5.6.1-5.5.1zm440.7-6c.3-.4-1.9-3.4-5-6.7l-5.9-6 6.8 6.4c3.7 3.5 6.7 6.6 6.7 6.7 0 .2-.7.3-1.7.3-.9 0-1.3-.3-.9-.7zm-46-6c2.5-.2 6.7-.2 9.4 0 2.6.2.4.3-4.8.3s-7.4 0-4.7-.3zm91.1-12.5l-5-5.3 5.3 5c4.8 4.6 5.7 5.5 5 5.5-.2 0-2.6-2.4-5.3-5.2zm-211.7-9.5a92 92 0 0 1 10.5 0c2.8.2.5.3-5.3.3s-8 0-5.2-.3zM9 1070c-.6-1.3-1.6-1.9-2.3-1.5-.7.4-.9.3-.4 0 .4-.6-.3-2-1.5-3.5-1.2-1.4-.2-.7 2.2 1.6 2.4 2.3 4.1 4.5 3.8 5-.4.2-1-.5-1.8-1.6zm94.3.7c-1.3-.6-2.3-1.5-2.3-2s1.4-.2 3 .7c4.5 2.3 3.8 3.5-.7 1.3zm-237.5-4.5c3-.2 7.4-.2 10 0 2.6.2.2.3-5.3.3s-7.6 0-4.7-.3zm-43.3-13.3a76 76 0 0 1 6.4-6 37 37 0 0 1-5.4 6 76 76 0 0 1-6.4 6 37 37 0 0 1 5.4-6zM0 1048.2c0-.5 2.6-.7 5.7-.5 10.1.5 11.1 1 2.6 1.1-4.6 0-8.3-.2-8.3-.6zm-18.6-17.6a232.6 232.6 0 0 0-25.4-22.8c0-1 7.7-2.9 12.6-2.9 12.3.1 25.3 11.8 27 24.4.7 4.7-.3 13.6-1.4 13.6-.4 0-6-5.6-12.8-12.3zm-83.6 2.6c2.3-.2 6.1-.2 8.5 0 2.3.2.4.4-4.3.4s-6.6-.2-4.2-.4zm-156.3-17.3c3.8-3.8 7.2-7 7.4-7 .3 0-2.6 3.2-6.4 7-3.8 4-7.2 7-7.4 7a61 61 0 0 1 6.4-7zm-7-10c3.8-3.8 7.2-7 7.4-7 .3 0-2.6 3.2-6.4 7-3.8 4-7.2 7-7.4 7a61 61 0 0 1 6.4-7zm43.8-44.7c3.7-.2 9.6-.2 13 0 3.4.2.4.3-6.8.3-7 0-9.9 0-6.2-.3z" fill="#897757"/><path d="M-423.8 1783c-1.8-1-3.9-3-4.8-4.5-1.4-2-6.4-31.8-11.7-69.5l-1.3-9.5-8.5-2a187.7 187.7 0 0 1-50.9-20.9 32.3 32.3 0 0 0-10.5-5l-49.4 36.4c-10 7.5-13 9.2-16.6 9.6-2.4.3-5 .1-6-.4a155.2 155.2 0 0 1-24.7-25.6c-1-3.8.5-10 3-11.9 1.4-1 41-54 43.4-58.5.4-.6-.8-3.7-2.8-6.7a197.4 197.4 0 0 1-22.3-52.3l-2.8-10.8-37.4-5.7a630.1 630.1 0 0 1-40.4-7c-5.6-2.3-6.6-5.6-6.6-22.6s.8-20 6-22.7c1.7-.9 19.1-4 38.8-7l38-6c1.6-.4 2.3-1.7 3.2-6.3a196.6 196.6 0 0 1 21.5-53.7l5.6-9.3-20.8-28.4a754.1 754.1 0 0 0-23.4-31 12 12 0 0 1-3-6c-1-6.3 1-9.8 11-20 15.6-16 18.3-16.3 35.5-3.5 6.1 4.4 11.8 9 12.6 9.8 1.3 1.5 11.2 9 33.5 25.1l5 3.6 6.5-3.9a191.3 191.3 0 0 1 51.3-21.9l11.2-2.8 5.7-37.7c3.2-20.7 6.3-38.8 7-40.2.7-1.4 2.6-3.6 4.1-4.7 2.5-1.9 4.5-2 17.5-2.4 12.5-.2 15.2 0 18.1 1.5 6.4 3.3 6.6 4.1 12.6 43.3 3 20.1 5.7 37.4 6 38.5.3 1.6 1.8 2.4 6.6 3.4a203.8 203.8 0 0 1 56 23l6.4 4 3-2.2 31.3-22.9a392.5 392.5 0 0 1 30.8-21.4c5.6-1.4 9.1.4 19 9.7 10.3 10 14 16 13 21.2-.4 2-9.3 15-23.6 34.5l-23 31.3 5.6 9.4c9.4 16.1 17 34.7 21 51.8 1.4 6.2 2.2 8 3.8 8.2 1.2.3 18.5 3 38.5 6.1 22 3.3 37.3 6.1 38.7 7 5.3 3.5 6 5.8 6 22 0 16.8-1 20.3-6.9 23-1.8.8-20 4-40.6 7.2l-37.5 5.7-2 8.5a186.4 186.4 0 0 1-20.9 51 32.3 32.3 0 0 0-5 10.4l22.6 31a617 617 0 0 1 22.8 32.4c2 5.2.2 9-9.3 19.4-11.3 12.4-13.7 14-19.9 13.5-5-.4-2.3 1.4-42.9-28.8l-21-15.5-3.8-2.5-6.3 4.1a184.4 184.4 0 0 1-51.9 22l-10.5 2.7-1.4 10c-4.8 35.5-10 66.6-11.6 69-3.6 5.4-6.7 6.3-22.5 6.3-12.6 0-14.9-.3-17.7-2zm38.8-140.7a127.7 127.7 0 0 0 105.8-108.9c3.4-24.3-1.2-53.2-12-74.7a130.6 130.6 0 0 0-58.4-58A121.5 121.5 0 0 0-406 1388a127.5 127.5 0 0 0-120.8 85 106.6 106.6 0 0 0-6.6 44c.1 17.3.3 19.3 3.1 30a128.8 128.8 0 0 0 105.8 96 164 164 0 0 0 39.6-.6zm-175.7-141.2a159 159 0 0 1 123.9-124.4 120 120 0 0 1 30.7-2.2c22.7 0 31.7 1.3 50.2 7.5a159.2 159.2 0 0 1 104.3 118.4l2.5 11.5c.8 2.3 1 2.3 1-1 .5-7.6-.2-15-2.6-26.7a159.1 159.1 0 0 0-125.7-124.5c-15-3-42.3-3.2-57.2-.4a160.3 160.3 0 0 0-123.3 107.1c-4.9 15-8.3 35.4-7.3 44.5.5 4.8 1.4 2.2 3.5-9.8zm691 281.8c-1.9-1-4-3-5-4.4-1.4-2.3-6.3-31.2-11.5-69l-1.4-9.9-10.5-2.8c-19.3-5-38.4-13-51.9-21.9l-6.3-4-3.7 2.4-21 15.5c-39.8 29.5-38 28.3-42.5 28.8-5.9.7-8.5-.9-19.2-11.9-10-10.2-12.6-15-10.6-20.5.5-1.7 10.8-16.4 23-32.9l22.5-31c.4-.6-1.9-5.4-5-10.5-9.2-15.3-16-32-20.8-50.9l-2-8.5-37.6-5.7a543.4 543.4 0 0 1-40.6-7.2c-5.8-2.7-6.8-6.2-6.8-23 0-16.2.6-18.5 6-22 1.3-.9 16.6-3.7 38.6-7 20-3 37.3-5.8 38.5-6 1.6-.4 2.4-2 3.8-8.3 4-17 11.6-35.7 21-51.8l5.6-9.4-23-31.3a307.7 307.7 0 0 1-23.6-34.5c-1-5.3 2.7-11.2 13.1-21.2 9.8-9.3 13.3-11 19-9.7 1.2.3 15.1 10 30.7 21.4 15.5 11.4 29.7 21.7 31.3 23l3 2 6.5-4a203.2 203.2 0 0 1 55.8-22.9c4-.8 6.4-1.9 6.6-2.8.3-.9 1.4-8 2.6-16 9.1-63 9-62.2 15.3-66.2 3-1.8 4.7-1.9 19-1.7 14.8.3 15.7.4 18.1 2.7 4.5 4.3 5 6.1 14 67l2.1 15.3 11.2 2.8a191.3 191.3 0 0 1 51.3 22l6.5 3.8 5-3.6a557.2 557.2 0 0 0 33.5-25c.8-1 6.5-5.5 12.6-9.9 17.2-12.8 20-12.5 35.6 3.5 10 10.2 12 13.7 11 20a12 12 0 0 1-3 6c-1.6 1.5-12 15.4-23.5 31l-20.8 28.4 5.6 9.3a196.6 196.6 0 0 1 21.5 53.7c1 4.6 1.6 6 3.3 6.3 1.2.3 18.3 3 38 6 19.6 3 37 6.1 38.7 7 5.2 2.7 6 5.7 6 22.7s-1 20.3-6.6 22.6c-1.6.7-19.8 3.8-40.4 7l-37.4 5.7-2.8 10.8a197.4 197.4 0 0 1-22.3 52.3c-2 3-3.2 6.1-2.8 6.7 2.5 4.4 42 57.5 43.4 58.5 2.7 2 4.1 8 2.8 12.5-1 4-13 17.7-15.3 17.7-.7 0-2.3 1.2-3.7 2.6a18.5 18.5 0 0 1-5.8 4.1c-5.9 2.5-9.5 1.1-24-9.9a3482 3482 0 0 0-47.7-35c-.6-.5-5.4 1.8-10.5 5-15.3 9.1-32 16-50.9 20.7l-8.5 2.1-1.8 12.5c-10 69-9.7 67.1-16 71-2.8 1.6-5 2-17.7 2-12.6 0-14.9-.4-17.7-2zm35.1-140a131.4 131.4 0 0 0 76.5-39.7 130.7 130.7 0 0 0 26.5-131.3 128.7 128.7 0 0 0-98.9-82.5 164.4 164.4 0 0 0-43.2 0c-40.2 7-75 33-93.3 69.3a134.6 134.6 0 0 0-12 74.7 128.2 128.2 0 0 0 108.4 109.4c8.4 1.2 27.7 1.2 36 .1zm-172-142.5A159.2 159.2 0 0 1 97.7 1382c18.5-6.2 27.5-7.5 50.2-7.5 17.5 0 22 .3 30.7 2.2 15.3 3.3 27.3 7.6 41.3 14.8a156.9 156.9 0 0 1 82.5 109l2.2 11.4c1.2 4.7 2-3.8 1.1-12.5a159.6 159.6 0 0 0-130.3-140 189.2 189.2 0 0 0-57.2.3A159.1 159.1 0 0 0-7.5 1484.2 95.4 95.4 0 0 0-10 1511c.1 3.3.2 3.3 1 1l2.5-11.5z" fill="#ffd54e"/><path d="M-135.9 1390.6c-.6-.7-2-7-3-14.2-1.2-7-2.5-13-2.9-13.5-.4-.3-3.5-1.4-6.8-2.4s-8.4-3-11.3-4.7l-5.3-3-11 8.1c-6 4.4-11.7 8-12.7 8-2.4 0-9.2-7-9.2-9.6 0-1 3.6-6.8 8-12.8l8-10.8-3.5-6a77.9 77.9 0 0 1-5-12c-1-3.5-2.3-5.9-3.3-6.2-.9-.3-6.9-1.2-13.2-2.2a56.5 56.5 0 0 1-12.7-2.7c-1.6-1.2-1.8-13.3-.3-14.2.6-.4 7-1.6 14.3-2.7a59.8 59.8 0 0 0 14-3 61.6 61.6 0 0 1 5.7-15.9l3.7-7.5-7.8-10.7a56.3 56.3 0 0 1-7.9-12.6c0-1 2-3.7 4.5-6 5.3-4.9 4.5-5 18.3 5.1 5 3.7 9.6 6.8 10 6.8.5 0 3.3-1.3 6.3-2.9 3-1.6 8.1-3.7 11.4-4.7l6.2-1.9c.1 0 1.2-6.2 2.3-13.6 1.5-9.2 2.7-13.8 3.8-14.6a13 13 0 0 1 6.2-1.3c7.2 0 7.7.8 10 16 1.1 7.3 2.1 13.4 2.3 13.5l6.2 2c3.3 1 8.4 3 11.4 4.6 3 1.6 5.8 3 6.3 3 .4 0 5-3.2 10-6.9 13.8-10.2 13-10 18.3-5 2.5 2.2 4.5 5 4.5 6s-3.5 6.6-7.9 12.5l-7.8 10.7 3.8 7.4a61.6 61.6 0 0 1 5.7 16c.4.5 6.7 2 14 3a112 112 0 0 1 14.2 2.7c1.5 1 1.3 13-.2 14.2-.7.6-6.5 1.8-12.8 2.7l-13.2 2.2c-1 .3-2.3 2.7-3.3 6.2-.9 3.1-3.2 8.5-5 12l-3.4 6 8 10.8c4.3 6 8 11.8 8 13 0 2.4-7 9.4-9.4 9.4-.9 0-6.6-3.6-12.6-8l-11-8-5.3 3c-2.9 1.5-8 3.6-11.3 4.6-3.3 1-6.4 2.1-6.8 2.4-.4.4-1.7 6.5-2.8 13.5a71.9 71.9 0 0 1-3 14.2c-.7.8-3.4 1.3-6.9 1.3-3.5 0-6.2-.5-6.8-1.3zm12.2-52.9c8-2.3 19.1-16.8 21.1-27.3l.6-3-1.5 3.1A28.6 28.6 0 0 1-129 1327a28.6 28.6 0 0 1-25.6-16.4l-1.5-3 .6 3c1.1 5.8 7 16 12 21 6.8 6.8 12.2 8.5 20 6.2zm-58-44a54 54 0 0 1 60.5-42 56.1 56.1 0 0 1 30 15.3 60.2 60.2 0 0 1 14.8 26.7c.3 2.3 1 4.2 1.5 4.2 1.2 0 0-7.8-2.3-15.6a56 56 0 0 0-39-35.9 55 55 0 0 0-67.3 46.8c-.4 2.7-.3 4.7.2 4.7s1.2-1.9 1.5-4.2z" fill="#ffd54e"/><path d="M-417.8 2163c4.7-113.8 53.4-204 138.3-256.3 54.2-33.4 128.6-46.5 195-34.3A215 215 0 0 1-2 1904.8c22.1 15 35.2 28.7 53.8 56.6a247.8 247.8 0 0 1 41.2 101c2.1 11 7.1 31.7 11 46 8.7 32 11.8 46.1 12.6 58.6l.6 9.6-109.4.6-267.8 1.4-158.4.6zm268.3-413c-11.7-4.7-15.8-14-16-36.4v-11.9l6.1-2.2a94.4 94.4 0 0 1 18.8-5.4 360 360 0 0 1 4.5 46.1v11.7h-4.2c-2.4 0-6.5-1-9.2-2zm25.1-5.3c.3-4-.4-17-1.6-29.5-1.2-12.2-2-22.5-2-22.9 0-1 19.5.3 26.2 1.8l6 1.2-.8 10.6c-1.4 21.8-4.5 35.2-9.7 40.7-1.9 2-6 3.3-15 4.8l-3.7.6zm43.8-64.7a296.8 296.8 0 0 0-67.2-9c-19.6-.6-23.8-1.2-19.2-2.6 3.3-1 23.2-12 31.2-17l6.7-4.5 6.8 4.4c9.7 6.2 25.1 14.4 40.4 21.5l16.3 7.6 3 1.4h-5c-2.7 0-8.6-.8-13-1.8zM180 1268.6c1.6-1.3 10-5.7 10-5.3a35 35 0 0 1-9.6 5.6c-.5 0-.6 0-.4-.3zm17.7-12.4c7-6.9 7.2-7.4 7.2-12v-4.7l-3.7 3.6a78.4 78.4 0 0 1-16.6 11.8c-.6 0 1.8-1.8 5.3-4 3.4-2.3 8.4-6.4 11.1-9l5-5v5.6c0 5-.5 6.2-3.6 10a60.6 60.6 0 0 1-7.7 7.5c-2.8 2.1-1.7.7 3-3.8zm-24.7-8.7c1-.9 13-6.6 13-6 0 .4-11.7 6.4-12.7 6.4-.4 0-.5-.2-.3-.4z" fill="#cacdc7"/><path d="M144.1 1238.6l-7.3-7.3 7.7-6c9-6.8 18.8-17.9 24.7-27.7l4-6.8 7.4 7.3a125 125 0 0 1 19.2 23.8l2.1 3.8-3.8 5c-3.5 4.2-12.6 12.3-10.8 9.4.5-.8-.2-1.2-2-1.2-7 0-14.9-6.6-23.6-19.7l-3.5-5.3-3.4 3.6c-1.9 2-6.4 6-10 8.7l-6.9 5.2 7.2 7.2c4 4 7 7.3 6.7 7.3-.2 0-3.7-3.3-7.7-7.3zm-509.9-2.7l14.8-.5-5.8-4.8a140.2 140.2 0 0 1-20.5-22.2c-.5-1 .3-.4 1.8 1.5 3.8 4.8 21.2 22.2 25 24.8l3 2.1h-16.6l-16.5-.3zm25.7-4.3l-3.4-4.2 4 3.7c3.8 3.6 4.1 3.7 13 4.1l9 .3-9.6.1-9.5.1zm56.5-1.3c3.3-.7 6.7-1.3 7.5-1.2 2.3.1-8.2 2.6-11 2.6-1.4 0 .2-.6 3.5-1.4zm497.6-1.9c-1-3.5-1-4.6.8-8.7 1.1-2.6 2.7-8.2 3.6-12.5 1-4.3 1.8-7.9 2.1-8.2.7-.8.4 8.1-.6 14.8-.7 5.2-1.4 7-3.6 8.6-2 1.7-2.5 2.6-1.9 4.4.6 1.8 1 2.1 1.6 1 1.1-1.7 1 0 0 2.6-.7 1.7-1 1.4-2-2zm-566.9-8.5c-9.9-9.8-13-14-10.7-14 1 0 1.3.5 1 1-.4.6 3.7 5.6 9.1 11 5.4 5.5 9.5 10 9.3 10-.3 0-4.2-3.6-8.7-8zm81.7.1c-8.9-8.8-22-25.2-20.2-25 .4 0 3 3 5.5 6.7 5.4 7.6 12 14.8 19.2 21 2.7 2.3 4.3 4.1 3.5 4-.8 0-4.4-3-8-6.7zm-157.3 4.3c-4.9-1.8-6-2.8-2.2-1.8 2.2.5 2.7.4 2.1-.6-.4-.7.6-.2 2.4 1.1 4.6 3.4 4.1 3.7-2.3 1.3zm15-3c-9.4-7.4-21.5-19.4-18.9-18.7 1.3.3 2.1 1 1.8 1.3-.6 1 10.7 11.5 18.3 17.2 4.5 3.3 6 4.8 5 4.8-.2 0-3-2-6.2-4.7zm536.4-1.5a99.3 99.3 0 0 1-7.5-6.2c-1.3-1.4.1-.5 8.3 5.7l6.3 4.8 5.2-4c3-2.3 6.5-5.4 8-7l2.8-2.9-5-2c-6.9-2.9-20.8-12-30.5-20-6-5.2-8-6.3-8.8-5.2-.7 1-.8 1-.4-.6l3.1-11.5a113 113 0 0 0 3.1-16.2c.4-3.8.8-6.8 1-6.8a381 381 0 0 1 53.4 33.9l3.5 3-2.3 4.6c-3.4 7-9.7 15-17.6 22.6a82.3 82.3 0 0 1-15.5 12.8c-.3 0-3.5-2.3-7-5zm-386.8-7.4c-10.3-10.9-17-19.5-15.5-19.5.4.1 2.1 2.2 3.8 4.8 4 6.5 21.2 24 23.8 24.4 2.1.3 2.1.4.2 1-1.6.3-4.3-2-12.3-10.7zm-174.8.3c-7-7.5-15.8-17.3-10.8-12.3 5.8 5.7 19.7 20.5 19.3 20.5-.2 0-4-3.7-8.5-8.2zm641.6-4.5c-1.9-3-8.6-10.9-14.7-17.3a101 101 0 0 1-10.8-12 87.2 87.2 0 0 0-8.2-57.1l-3-6c-.3-.4.5-.5 1.6-.2 3.1.8 20.1 18 25.1 25.3 2.4 3.6 6.2 8.8 8.5 11.5 7.3 8.8 8.3 11.1 9.5 22.8.6 6 .8 13.6.5 17a98.7 98.7 0 0 1-4.4 21.7c-.3 0-2.2-2.6-4-5.7zm-422.5 1.7c3.3-1.6 6.5-2.9 7-2.9 1.3.1-10.7 5.7-12 5.7-.5 0 1.7-1.3 5-2.8zm-178.7-1.7c3.4-.2 9-.2 12.5 0 3.4.2.6.3-6.3.3-6.9 0-9.7 0-6.2-.3zm192-4l5.1-2.8-2-3.2c-1.2-1.8-1.9-3.3-1.6-3.3.7 0 5 7 4.6 7.3a86 86 0 0 1-10.7 4.7c-.4 0 1.6-1.3 4.5-2.8zm-125.3-2.4c5.1-1 9.2-1 5 .1-1.6.4-4.3.8-6 .8-2.5 0-2.4-.2 1-.9zm-120.9-4.8c-.4-.5-4-2.8-8.4-5a74.3 74.3 0 0 1-9.2-5.7c-2-2 13.8 6.8 17 9.5 1.4 1.1 2.2 2 1.8 2.1-.4 0-.9-.4-1.2-.9zm152-.2c5-1 9.1-1 5 .1-1.7.4-4.4.8-6 .8-2.6 0-2.5-.2 1-.9zm382.4-2c-1.9-1-2.6-1.7-1.5-1.3 5 1.6 5.3 1.6 6-.6.4-1.2 1-1.9 1.2-1.7.2.3 0 1.6-.9 3l-1.3 2.5zm-507-.9c-1.7-.6-.9-.7 2.5-.3 2.8.3 5.2.7 5.4 1 .8.6-5.4.1-7.9-.7zm228.4-4a19.4 19.4 0 0 1-2.2-5.6c.2-.2 1.6 2.1 3.1 5.1 1.5 3 2.5 5.5 2.2 5.5-.3 0-1.6-2.3-3-5zm27.5-1c2.4-1 5.5-2.3 7-2.6 1.4-.2.4.4-2.4 1.6-6.8 2.8-10 3.5-4.6 1zm-40.8-4.5a27.2 27.2 0 0 1-2-6.8c0-.7 1.1 1.7 2.4 5.3 1.3 3.5 2.2 6.6 2 6.8 0 .2-1.2-2.2-2.4-5.3zm298.5 3.5c.4-1.4 1.3-3.8 2-5.5 1.1-2.4 1.3-2.5.8-.5-.4 1.4-1.3 4-2 5.5-1 2.4-1.3 2.5-.8.5zm-533.5-.7a89.7 89.7 0 0 1-13-24.8 117.9 117.9 0 0 1-6-35.3v-8.4l3.2.6c9 1.7 20 2.6 37.2 3.2l19.1.7 1.2 12.1c.6 6.7 2.3 16.8 3.7 22.5l2.5 10.4-2.6 3.4a32 32 0 0 1-28.8 10.8 84.5 84.5 0 0 1-21-6c-3-1.3 3.1 9.3 6.3 11 1.5.8 2.1 1.4 1.5 1.5-.7 0-2-.8-3.3-1.7zm127.4-.4c5.1-1 9.2-1 5 .1-1.6.4-4.3.8-6 .8-2.5 0-2.4-.2 1-.9zm367.5-3.4c-1.9-.7-3-1.4-2.3-1.4.6 0 2.3.3 3.7 1 2 .6 2.6.5 3-.9.2-1.2.4-1 .5.6.1 2.5 0 2.5-4.9.7zm-337-2.2c0-.5 1-.8 2.3-.9 1.2 0 4.5-.3 7.2-.7 4.8-.6 4.8-.6-1 .8-7 1.6-8.5 1.8-8.5.8zm322.5-1.3c-2.7-.7-2.7-.8-.5-.8 1.4 0 3.6.4 5 .8 2 .6 2.1.8.5.8-1 0-3.3-.4-5-.8zm-397.5-1a54.1 54.1 0 0 1-17.7-7.3c-5.9-3.5-6.9-5.6-9.8-19.8-1.6-7.6-3.4-28.6-2.6-29.5a652.5 652.5 0 0 0 61.8-5.9l18.6-2.5c.2 0 .7 5.3 1 11.8.3 6.4 1.3 15.6 2.2 20.4 1.7 10 2.2 8.6-6.8 18.4a51 51 0 0 1-35.2 14.8c-3.9.3-9 .1-11.5-.4zm454-.7c0-.8-1.5-1.3-3.8-1.3-4 0-13.6-4.3-18-7.9-1.9-1.7-2.3-3-2.7-11.3a90.4 90.4 0 0 0-7-30.8c1.3 0 18.8 7.1 28.4 11.6l10.4 4.8-.6 8.1c-.4 4.4-1.6 11.8-2.8 16.5-2 8.3-3.8 12.8-3.9 10.3zm-68.9-6c.1-6.2.6-5.6 1.1 1.5.2 2.3 0 4.2-.4 4.2-.5 0-.7-2.6-.7-5.7zm-225 3.6c0-1 1.5-1.9 5-2.7 6.6-1.6 7.6-.9 1.2.7-2.6.7-5 1.8-5.5 2.4-.5.8-.8.7-.8-.4zm-271.6-4c-10-7-11.3-8.4-13-16.7a67 67 0 0 1-1.2-19.6c.5-11.2 2.8-22.7 4.5-22.5.4 0 2.2.6 4 1.2l3.2 1.2.4 12c.4 12.2 2.2 23 5.7 34l2 6-2.3 1.8-2.2 1.8 3 2.4c4.5 3.7 2.5 3-4-1.6zm476 2.1c-2.7-.7-2.7-.8-.5-.8 1.4 0 4 .4 5.5.8 2.7.7 2.7.8.5.8-1.4 0-3.8-.4-5.5-.8zm-109.4-1.4c1.1-.9 7-1.4 7-.6 0 .6-1.7 1-3.8 1-2 0-3.4-.2-3.2-.4zm267.4-5.7a443 443 0 0 0-42.7-26.8c-8.6-4.6-9.8-5.6-9.8-7.9 0-4.3-3.7-18.5-6.4-24.6a98.1 98.1 0 0 0-19.9-27.3c-3.9-3.7-6.3-6.3-5.2-5.9l11 4.1a342 342 0 0 1 57.2 27.7c7.6 4.7 8.6 5.6 13 13.1 2.6 4.4 6.2 12.6 8.2 18.1 3 8.7 3.5 11.7 4 22 .1 6.4 0 12.1-.5 12.6s-4.5-1.8-8.9-5zm-184 1c-1.4-3-1.4-3.2 0-1.5a8.4 8.4 0 0 1 1.5 2.7c0 .4 1 1 2.3 1.2l2.2.4-2.2.2c-1.6.1-2.7-.8-3.8-3zm-53.2 1.4c1.5-.2 4-.2 5.5 0s.2.4-2.8.4-4.3-.2-2.7-.4zm40.5-.2c0-.5-2.3-2-4.8-3.5-2.5-1.4-4-2.6-3.4-2.6 1.2 0 10.4 5.7 10.4 6.5 0 1-1.8.5-2.2-.4zm-22.5-.8c2.6-.2 6.8-.2 9.5 0 2.6.2.4.3-4.8.3s-7.4 0-4.7-.3zm-161.6-2c3-.9 5.4-2.3 5.6-3.2.3-1 .5-1 .6.5.1 2.2-.2 2.3-8.5 3.8-1.6.3-.6-.2 2.3-1zm51.8.1a47 47 0 0 1 6.5-1.3c.8 0-.7.7-3.5 1.5-2.7.7-5.7 1.3-6.5 1.3-.8 0 .8-.7 3.5-1.5zm-107.4-3.9a72.3 72.3 0 0 1-18.9-9.3c-1.9-1.5-2.5-3.5-3.8-13.4-.8-6.4-1.4-15.4-1.2-19.9l.3-8.2 17.2-3.3c19.2-3.6 41-8.5 64.1-14.3 12.8-3.2 15.2-3.6 14.7-2.2a160.4 160.4 0 0 0-11.7 57.1l-.2 10.5-.3-9.8-.4-9.7-5.2 5.4a66.4 66.4 0 0 1-23.5 15.3 60.1 60.1 0 0 1-31 1.8zm245.4-3.2c-2.7-2.5-3.6-3.7-2-2.5 2.8 2 8.4 7.3 7.4 7.2-.2 0-2.6-2.2-5.4-4.7zM-140 1161c2-.5 6.4-1 10-1.4l6.5-.5-8 1.4c-8.8 1.5-14 1.8-8.5.5zm49.4-3c.1-1.2 1.6-1.5 6.6-1.6h6.5l-6.2.3c-3.6.2-6.3 1-6.6 1.6-.2.7-.3.5-.3-.3zm129.3 1c-3-.6-8.4-2-11.7-3.3-3.8-1.6-6-2-6-1.3 0 .6-1.7-2.9-3.7-7.8a100.6 100.6 0 0 0-16.3-28c-3.5-4.4-5.4-7.6-4.6-7.6 3.8 0 26.4 4.4 37 7.2 11.6 3.1 11.7 3.1 14.2 7.3a93.5 93.5 0 0 1 9.2 26.8l.8 6.5-4.4.6c-5.2.7-6.7.7-14.5-.5zm-243.3-9.5c0-5.5.1-7.6.3-4.7.2 3 .2 7.4 0 10-.2 2.6-.3.2-.3-5.3zm163.6 3c-2.5-1.3-4-2.4-3.7-2.5a31 31 0 0 1 8.7 4.5c0 .7 0 .7-5-2zm49 1c0-.6-3.7-1-8.2-1-8 0-8.8-.3-20.4-5.7a164.4 164.4 0 0 0-49-14.3c-4-.6-4.3-.5-8.3 4.2a31 31 0 0 0-4 5.5c0 .4 1.6 1 3.7 1.1 3.3.3 3.2.4-1 .5l-4.9.2 1.8-3a72 72 0 0 1 9-10 80 80 0 0 1 45.1-19.6l6-.6 7 6.7c4 3.7 9.4 9.7 12.2 13.4 5.2 7.1 12.7 21.7 11.6 22.8-.3.4-.6.2-.6-.3zm-119.2-9.2c2.3-.2 6.1-.2 8.5 0 2.3.2.4.4-4.3.4s-6.6-.2-4.2-.4zm-18.8-5.9c-8-1.9-15.2-2.6-31-3.3-21.6-.9-23.8-1.4-34-6.7l-6.2-3.2c-.3-.2-.9.5-1 1.5-1.4 4.2.4-6.7 1.8-12a150 150 0 0 1 9.4-24.6c2-3.8 2.1-3.9 12.3-6 47-9.9 93.6-5.4 132 12.6 9.7 4.6 11.7 6.3 7.5 6.3-4 0-18.6 5.6-25.9 10-8.4 5-19.3 15-24.5 22.5-3.8 5.6-5.4 7.2-3.3 3.3 1-1.9 1-2-.7-1.4a66.6 66.6 0 0 1-19.9 3.5c-3.3 0-10.7-1.2-16.5-2.5zm217-13.2c-5.8-2.5-16.2-6.6-23.2-9.2-12.6-4.6-12.7-4.6-17-10.6-2.6-3.2-9.5-10.6-15.4-16.4a91.4 91.4 0 0 1-12.5-14c-.9-1.9-3.2-5.6-5.2-8.2L10 1062h2.8c3.6 0 18 1.7 26.2 3.1 18.4 3.1 44.4 25.1 53.5 45.2 2.7 6 6.7 19.7 5.7 19.6-.4 0-5.4-2-11.2-4.7zm-520.5-12.9c-3.8 0-12-.8-18.2-1.4l-11.3-1 .6-2.8c6.1-26.7 17-48 35.1-68.2 10.8-12 26.6-26 33.2-29.4 4.6-2.3 22.1-8.9 36-13.5l11.3-3.8-8.5 8.6a156.6 156.6 0 0 0-32.8 46.6 186.2 186.2 0 0 0-15.4 57.2l-.7 7.1-7.5.7c-4.2.3-9.2.5-11.2.4l-10.6-.5z" fill="#cacdc7"/><path d="M-391.7 1104.7A157.7 157.7 0 0 1-329 994.3c12.1-8.8 17-11 27.5-12.7 23.2-3.8 50.8-4.5 67.5-1.8 4 .6 4.2.8 2.2 1.5a149 149 0 0 0-33.7 25 159 159 0 0 0-43.5 88.2l-1 7.2-13.9 2.1a770.9 770.9 0 0 1-66 7.7l-2.4.5zm-86.6 1c-2-.6-3.8-1.6-3.8-2.3 0-3.2 4.6-15.8 8.8-24 4.6-9 14-22.2 18.3-26l2.3-2-2 3c-6.8 9.7-15 30.2-18.2 44.5l-1.7 7.6zm499.2-1.9a172 172 0 0 0-32.7-3.9c-6.9 0-7.5-.2-13.5-4.3-30.8-21.2-75.7-32-119.2-28.8-8.4.6-19.2 1.8-24 2.6-5 .8-9.2 1.2-9.4 1-.8-.8 11.3-12.7 17.8-17.4 17.5-13 37.7-19 62.8-19h12.5l15.1 6.5c30 13.1 56.1 27.6 75.8 42 9.4 6.8 27.1 23.4 24.8 23.2-.8 0-5.3-.9-10-1.9z" fill="#cacdc7"/><path d="M-298 1097.5a142.1 142.1 0 0 1 42.1-83.1 116.9 116.9 0 0 1 46.2-28.5l7-2.2 13.5 3.2c7.5 1.8 18.1 4.8 23.6 6.7a339 339 0 0 1 47.2 22.5l9.1 5.4-9.8 1.7c-16 2.7-29.3 8-43 17a132.8 132.8 0 0 0-28.5 28.4c-3.6 5.6-4.5 6.4-9 7.8-11.5 3.4-58.5 14.8-77.7 18.8-20.3 4.2-20.8 4.3-20.8 2.3zm301.3-31.4l-7-5c-1.7-1-1.7-1 .3-.2 1.2.5 3 1 4 1.1 1 0 3.3 1.8 5.2 4 1.8 2.1 3.2 4 3 4a152 152 0 0 1-5.5-3.9zm87.6-.9a265 265 0 0 0-89.7-17.7c-.2-.2.2-1.7.8-3.4 1-3 1.2-3 5.7-2.6 30.1 3.4 53.4 9.6 81.5 21.6 10.4 4.5 13.3 6 11 5.7-.5 0-4.6-1.7-9.3-3.6zm-118.7-29.9a229.9 229.9 0 0 0-43.3-12.5c-13.5-2.3-16.7-3.7-42-18.2a247.9 247.9 0 0 0-45.5-21.9l-11.5-4.4c-.8-.9 19 .7 29 2.2 25.6 4 48 12 81.5 28.7 11.3 5.7 17.6 9.6 25.5 16 9.1 7.3 16.3 14 15 13.6-.3 0-4.2-1.6-8.7-3.5zm-187.9-65.9c-9.7-1.5-30-3.5-38-3.6-5.2 0-4.5-.4 6.1-1.9 15.7-2.4 46.4-2.6 63.5-.5 6.8 1 12.5 1.7 12.7 2 .2.1-4.3.5-9.9.8a142 142 0 0 0-16.8 2.2l-8 2a63 63 0 0 1-9.6-1z" fill="#cacdc7"/><path d="M-607.4 2189l-2.5-3-.7-73.3c-.7-74.8 0-323.4 1-334.3l2.1-38 2.2-37.3.7-5.3 8.6 8.8 8.6 8.8-1.3 23.5c-.7 13-1.8 36.1-2.4 51.5-1.5 34.2-2 238.3-1 301 .7 37.7 1.3 91.1 1.1 95.1 0 .5-1 2-2 3.2-1.7 1.7-3.3 2.2-7 2.2-4.2 0-5.3-.4-7.4-2.9zm927.3.2c-1.5-2-2-3.6-1.6-5.8.8-4.7 2.6-31 3.6-52.5 1.1-25 .5-184.5-.9-240.5l-2-93.5c-.7-27.8-1.4-56.9-1.8-64.7l-.6-14.3h3.7c4.4 0 7-1.2 11.2-5.2l3.1-2.9.7 10.3c1 16.4 2.5 64.4 3.1 101.8l1.6 81.5c1.6 69.1.7 246.1-1.4 266.7-.8 8.6-2 16.6-2.7 17.7-1.5 3-4.2 4.1-9.4 4.1-3.7 0-4.8-.5-6.6-2.7zm-469-420.4a50.4 50.4 0 0 1-22.5-12c-7.6-9-11.3-20.3-12.2-38l-.6-11.8-6 .6c-6.2.5-14.7-.6-20-2.6l-2.9-1 4.1-4.6c2.3-2.5 4.4-5.8 4.7-7.3l.6-2.9 7.6.5c7.4.4 8.5.1 27.2-6 25.2-8.6 33.6-10.2 50.5-9.5a123 123 0 0 1 28.3 4.1 77.2 77.2 0 0 0 22.4 3.4l7.1-.3-8.4-3.4a482.5 482.5 0 0 1-59.9-31c-.4 0-4.8 2.4-9.6 5.5-18.7 11.8-65.3 33.3-66.2 30.6-.2-.6-10.5-15-22.8-31.8a1334.4 1334.4 0 0 1-22.4-31c0-.2 1.8-3.3 4-6.9a192 192 0 0 0 21.5-51 229 229 0 0 1 2.8-10.2c.2 0 17-2.8 37.2-5.9 20.4-3 38.5-6.3 40.2-7 6.3-3 7.3-6.2 7.3-23.5 0-17-.9-20.3-6.7-23.2-1.5-.8-19.7-4-40.3-7.2l-37.8-6c-.2 0-1-3.8-2.2-8a200.7 200.7 0 0 0-26-60c0-.4 9.3-13.4 20.7-28.8 27.1-36.9 25.3-34 25.3-39.6 0-5.8-2-8.7-13.3-19.5-9-8.7-13.3-11-18.3-10.2-2 .4-14.6 9-34.5 23.6l-31.3 23-3.5-2.2a248.6 248.6 0 0 0-26.2-13.9c-8.9-3.9-27.9-10-35-11.3l-3.6-.6-2.6-16.8-2.7-17.7c0-.7 6-.4 17.4.8l17.4 2 12.2-5.3c16.6-6.9 69.6-33.9 67-34l-20 2.5c-34.7 4.3-73.2 5.5-94.2 3l-4.6-.7-.7-4.8a17.9 17.9 0 0 0-7.2-12.7c-2-1.4-5.3-1.9-14.6-2.2-16.9-.5-20.4.2-25 5.1l-3.8 4-4.7-1.7a129 129 0 0 1-42.6-25.4l-4.9-5-1.8 2.3c-7.2 9.2-9.3 21.1-5 29.2 5.1 10.2 22.1 20.7 44.1 27.4l10.8 3.5c.2.2-.9 7.1-5.4 35.7l-1.7 10.7-5.6 1.2c-15.8 3.2-42.2 14-56 23-3.8 2.4-6.7 3.6-7.5 3.2a451 451 0 0 1-36.7-28c.6-.3-2.7-4.7-7.4-9.9a98 98 0 0 1-20.6-31.6 88.2 88.2 0 0 1-9.3-39.8 64.4 64.4 0 0 1 28-55.2c18.2-9.9 49.6-9.6 69 .6l6.1 3.2-2.8-4a104.4 104.4 0 0 1-17.3-62.6c0-15.7.3-18.5 2.7-27.3a145 145 0 0 1 42.8-69.2 250 250 0 0 1 60-41.8c43-22.3 88.8-36 142-42.2 16.8-2 58-2 71.4 0 46 7 82.7 19.7 117 40.8 4.4 2.7 9.6 6 11.5 7a51 51 0 0 1 4.6 2.8c.7.6 3 .1 6-1.2 7-3 18-2.4 25.4 1.7 12.2 6.6 23 20.3 23 29.2v3.2h6.8c22.8.1 62.2 9.4 90.7 21.5 6.1 2.6 12.8 5.4 15 6.2 2.2.8 4.7 2 5.5 2.8.8.7 6 4 11.4 7a302.5 302.5 0 0 1 56.5 42.3c27.8 25.8 42.3 50.3 43.8 73.7l.6 9.1 7.6-1.4c9.1-1.6 24.2-1 32.1 1.4a60.4 60.4 0 0 1 43.8 55.5c.5 11.3-.8 20.1-4.9 32.1-3.7 11-12.2 28-18.8 37.8-3 4.4-4.6 7.7-4 8.1.8.5-30 24.1-36.7 28.2-.8.4-3.7-.8-7.5-3.3a203.4 203.4 0 0 0-56-22.9l-5.6-1.2-2.2-14.2a308 308 0 0 0-2.8-16c-.5-1.8 0-1.9 6.3-1.2 3.8.4 10.5 1.3 14.8 2.1 4.4.7 8.1 1.2 8.4 1 .7-.7-23-19-32.6-25.2a13 13 0 0 1-.9-3.8c-.4-2.7-.2-3.6.8-3.6 2.8 0 13.5-5.9 18.8-10.4 10.7-8.9 13.6-14.5 11.5-22.2-.5-1.8-1.2-1.4-6.7 4a63.1 63.1 0 0 1-22.6 14l-4 1.5-1.9-3.9-1.9-3.9 4.8-1.6a59.8 59.8 0 0 0 27-21c1.1-2.2 1-3-2.2-8-6.9-11.4-25.6-30.8-26.7-27.7-.2.7-2.6 4.7-5.4 9a123.3 123.3 0 0 1-26.2 27.1l-4.8 3.3 7.8 8 8 7.8H147c-4 0-4.9-.5-13.7-8.9-23.5-22.5-55.2-37.6-94.7-45-15.4-3-18.8-2.8-23.2 1-5 4.4-5.8 6.3-4.5 10.3 2.1 6.5 4 7.3 23.5 10.1 41.8 6 63 13 82.1 27.3 10.2 7.6 10.6 8 8.5 11.3l-1.6 2.7-8.3-6.3c-24.9-18.7-57-28.8-105.2-32.9l-15.5-1.3-6.5 5.7c-3.6 3.1-10 8.5-14.5 12l-8.8 7c-.5.4 3.3 3 8.4 5.5l33.7 18.2c38.8 21.3 59.8 31.3 80.5 38.3l9.8 3.4 9-1.9c5-1 9.2-1.5 9.5-1.2.4.3-.4 7.1-1.6 15.1l-2.3 14.6-3.6.6c-7 1.3-26 7.4-35 11.3-8 3.6-15.7 7.7-26.2 14l-3.5 2.1-31.3-23a301 301 0 0 0-34.5-23.6c-5-.9-9.2 1.5-18.3 10.2C-52 1334.3-54 1337.2-54 1343c0 5.5-1.8 2.7 25.3 39.6A848.6 848.6 0 0 1-8 1411.3a200.7 200.7 0 0 0-26 60c-1 4.3-2 8-2.2 8.1l-37.8 6a447.2 447.2 0 0 0-40.3 7.2c-5.8 3-6.7 6.2-6.7 23.2 0 17.3 1 20.5 7.3 23.4 1.7.8 19.8 4 40.2 7.1 20.3 3.1 37 5.8 37.2 6 .1.1 1.4 4.6 2.8 10a192 192 0 0 0 21.5 51.1c2.2 3.6 4 6.7 4 7 0 .2-10 14.2-22.5 31.1a457.8 457.8 0 0 0-23 33c-.8 2.6-.2 8 1 10.6 1.1 2.8-3.7 4.1-15.3 4.2l-10.2.1-.4 3c-.3 1.7-.7 7.3-1 12.6a166 166 0 0 1-2 17.4c-4.3 20-10.9 29.5-23.9 34-9.4 3.1-33.2 4.4-43.7 2.4zm13.4-19.6c1-6.5.7-15.2-1.4-32.3-1-9-2-18.2-2-20.3 0-4.4.5-4.5-16.2 1l-10.8 3.5v11.2c0 16.6 2.4 26.8 8 33 3.1 3.6 12.2 7.1 19.6 7.5 1.7.1 2.3-.6 2.8-3.6zm27-.4c7-3.7 11.1-17.2 12.3-41l.6-12.7-3.9-1a119 119 0 0 0-27-2.8c-1.5.6-1.6 1.7-1 11 .3 5.5.8 11.2 1.2 12.6.3 1.4.8 10.3 1.1 20l.6 17.2 6-.7a34 34 0 0 0 10-2.6zm-13.6-357.7c1.4-1.4 2.4-5.2 3.6-13.8l2.1-13c.2-.7 2-1.5 3.7-1.9a91 91 0 0 0 11.7-4.6c4.6-2 8.8-3.6 9.5-3.2l11 8a66 66 0 0 0 11.3 7.3c2 0 9.3-7 10-9.6.4-1.9-1.2-4.7-7.6-13.4l-8-11 3.1-6.3c1.7-3.4 4-8.7 4.8-11.7l1.8-5.5 11.8-1.8c16.3-2.5 16.8-2.8 17.2-10.4.4-7.6-.7-8.7-9-10a948 948 0 0 0-13.4-2.3l-7-1-1.3-5.3c-.6-2.9-2.7-8-4.6-11.6-1.9-3.5-3-6.9-2.8-7.5l8-10.9c4-5.4 7.3-10.6 7.3-11.5 0-2.4-8-10.2-10.5-10.2-1 0-6.7 3.4-12.2 7.5a73.2 73.2 0 0 1-11.5 7.5 9 9 0 0 1-3.7-1.7c-1.4-.9-6-2.9-10.4-4.4a43.8 43.8 0 0 1-8.7-3.6c-.4-.4-1-2.9-1.3-5.5l-.6-4.7 7.6-1.7c14-3 30.5-.9 51.2 7l9.4 3.4 7.1-5c25.2-18 40.6-32.6 40.6-38.6 0-2.5-3.4-3.2-16.5-3.2-24.2 0-40.5 5-97.2 29.6l-3.3 1.4-.6-4c-.4-2.3-1.3-4.8-2-5.6-1.6-1.4-10.7-2-13.8-.8-1.9.7-3 5-4.7 17.4-.6 5.2-1.5 10-1.9 10.3-.4.5-4.3 2.1-8.7 3.6-4.4 1.5-9 3.5-10.4 4.4a9 9 0 0 1-3.7 1.7c-.7 0-5.9-3.4-11.5-7.5a52.3 52.3 0 0 0-12.2-7.5c-2.4 0-10.5 7.8-10.5 10.2 0 1 3.3 6.1 7.3 11.5l8 11c.3.5-.9 4-2.8 7.4-1.9 3.5-4 8.7-4.6 11.6l-1.2 5.1-6 1-13.5 2.2c-9.4 1.5-10.4 2.6-10 10.3.4 7.6 1 8 17.2 10.4l11.8 1.8 1.8 5.5c1 3 3.1 8.3 4.8 11.7l3.2 6.2-8 11.1c-6.5 8.7-8 11.5-7.6 13.4.6 2.6 8 9.6 10 9.6a66 66 0 0 0 11.2-7.3l11-8c.7-.4 5 1.1 9.5 3.2a91 91 0 0 0 11.7 4.6c1.8.4 3.5 1.2 3.7 1.8l2.1 13.1c2 14.2 3 15.6 10.4 15.6 3.5 0 5.5-.5 6.8-1.8zm399-75.8a125.3 125.3 0 0 0 22-51.6c3-24-10-44-32-48.8a77.2 77.2 0 0 0-30.7 1.6c-5.4 2-5.5 2-10 11-2.5 5-6.2 11.2-8.2 14-1.9 2.7-4 6.1-4.7 7.7-.6 1.5-1.7 2.7-2.4 2.7s-4.2 2.5-7.8 5.6a122 122 0 0 1-12 9.4c.1.3 2.6 2.3 5.8 4.4 3.1 2.2 9.7 7.1 14.5 11 4.8 3.7 9 6.7 9.1 6.5l5-7.3c6.5-9.5 10.8-18.4 15.2-31 3-8.7 4.1-10.7 6-11.2 2.8-.7 6 1 6.7 3.5.7 2.8-5.5 21-10.6 30.5l-4.2 8.1 18.8-.4c17-.3 19 0 20.8 1.4 2.4 2.2 2.5 5.7.2 7.8-1.5 1.2-5.3 1.6-20.3 2-16.4.2-19 .5-23.2 2.4a20.8 20.8 0 0 0-4.8 2.6c0 .3 4 4.4 9 9.2A53.8 53.8 0 0 0 258 1320a75.3 75.3 0 0 0 11.3 4.6c.6 0 3.8-4.2 7.2-9.2zm-797.3 5.2c2.4-1.3 8.6-7.7 15.3-15.7l11.3-13.4-2.8-2.3c-5.9-5-17-11.7-27.9-16.8-9.3-4.4-11.5-5.8-12-7.9-.8-3 2-6.5 5-6.5 2.3 0 25.1 10.8 29.7 14.1 3.2 2.3 3.5 1.7 2-4-.6-2-1.7-7.6-2.6-12.5-1.3-8-1.3-9.2 0-11.2a9.8 9.8 0 0 0 1.5-3.6 73 73 0 0 1 9.5-18.8c4-5.3 4-5-3.5-9.2a61 61 0 0 0-50-3.2c-18.4 8.2-26.6 34-19 60a118.4 118.4 0 0 0 18.4 35c6.2 7.7 18 18.3 20.1 18.3.6 0 2.8-1 5-2.3zm62.5-20l9.7-2c.2 0-4.2-2-9.8-4l-10-3.9-7 7a60.4 60.4 0 0 0-6.9 7.4c0 .4 3.3 0 7.3-1 4-1.2 11.5-2.7 16.7-3.6zm109.2-63.4c1.4-.6.3-1.8-5.3-6.2a131.7 131.7 0 0 1-21.2-22.2c-1-1.6-2.7-1.8-15.6-1.8-14.4 0-31-1.9-39.6-4.4-2.5-.8-4.5-1-4.5-.6 0 1.1 12.2 12.4 20.8 19.4 5.1 4.1 7.2 6.5 7.2 8.1 0 2 1 2.5 5.8 3.8 5.6 1.6 14.8 3.3 20.7 4 5.5.7 30 .6 31.7 0zm47.8-2.3c10.2-1 30.5-5 36.4-7.2l3.6-1.2-5.6-4.5c-6.2-4.9-15-14.7-20.4-22.8-2.2-3.2-4-5-5-4.7-3.4 1-44.6 7.4-58.7 9.1a73.5 73.5 0 0 0-15.3 2.8c0 1.4 28 28.6 30.4 29.6 2.5 1 21.1.4 34.6-1zm519.1-8.7c2.4-7.4 4.1-33.2 2-30.2-.6.8-1 3.1-1 5 0 4-3.5 17-5.5 21-1 2-1 3.5-.3 7.2.6 2.6 1.5 4.4 2 4.2a34 34 0 0 0 2.8-7.2zm-641.6-1.5a219.4 219.4 0 0 1-24.7-24.4 37.3 37.3 0 0 0-11.8-9.5c-4-2.2-9.7-5.6-12.3-7.5a19.4 19.4 0 0 0-5.3-3c-.8.8 5.6 12.6 10.1 18.5a79.3 79.3 0 0 0 37.8 25.8l9.7 3.3c.3 0-1.3-1.4-3.5-3.2zm560.4-4a106.5 106.5 0 0 0 26.8-31c2.1-4.2 2.3-5.2 1.1-6a379 379 0 0 0-25.4-18.3 350.3 350.3 0 0 0-30.5-17.4c-.4 0-1.2 3.7-1.9 8.1a165.1 165.1 0 0 1-13.6 43.6c-.3.6 3.5 3.5 8.8 6.6 5.1 3 13.4 8.6 18.3 12.5 5 4 9.2 7.1 9.4 7.1a52 52 0 0 0 7-5.3zm-376.6-1a520.4 520.4 0 0 0 40.4-17c.3-.4-.4-1.8-1.5-3.4-2.8-4-6.7-12-8.6-17.8l-1.6-5-16.3 4c-8.9 2.3-24.4 6-34.4 8a109 109 0 0 0-18.3 4.8c0 2.8 24.7 30.7 27.2 30.7.5 0 6.3-2 13.1-4.4zm449.3-11.9c1.5-5.7 2-11 2-23.8 0-15.5-.3-16.8-2.6-21.3-1.3-2.6-4.3-7-6.6-9.7-2.3-2.7-6.2-8-8.7-11.7-5.4-8-23.6-26.3-26.3-26.3-1.8 0-1.5 1 2.3 8.8 2.3 4.8 5.1 12.1 6.3 16.2a86.5 86.5 0 0 1 2 33.3l-1.2 6.6 10.3 10.4a152.6 152.6 0 0 1 20 24.6c.4.1 1.5-3.2 2.5-7zm-385-14.7a376.4 376.4 0 0 1 72.4-19.5l3.5-.6v-17.3l-10 .7a472.7 472.7 0 0 0-74 12.7c-21.4 5.4-19.6 4.6-18.8 7.7 2.4 9.8 9.6 22.7 12.2 21.8 1-.3 7.5-2.7 14.6-5.5zm-208.6 4.2c0-.4-2-4.8-4.4-9.8-8-16.5-13.2-36-14.4-54.8l-.7-10.2-21.5-.7a389 389 0 0 1-30.2-2l-8.7-1.4-.7 4.3c-.7 5 1 21 3.3 30.3 2.6 11 9 25.1 14.5 33.2 2.7 4 19 8.7 37.3 11.1 5.5.7 25.5.7 25.5 0zm38-4.3c19.5-2.8 49.1-7.7 49.7-8.4.2 0-1.3-3.9-3-8.3a145.8 145.8 0 0 1-10.7-53.2v-10.3l-3.2.6a1016.3 1016.3 0 0 1-72.2 8.2l-7.9.6.7 10.1c1.3 19.6 6.8 39.4 15.8 57 3.6 7 4.2 7.6 6.6 7.2l24.2-3.5zm435.8-4.2a156 156 0 0 0 8.7-31.2c2.4-14.7 2.8-13.7-7.2-18.4a277.3 277.3 0 0 0-31-12.7c-.3.2.7 3.4 2 7.2a82.7 82.7 0 0 1 2 47.8c-1.3 3.3-1.9 6.1-1.5 6.3 12.3 5.2 22 9 23 9.1.5.1 2.4-3.6 4-8zm-32.8-13a78 78 0 0 0-8.3-49c-3-5.5-3.2-5.7-10-7.7-16-4.7-44.7-9.9-44.7-8a99.8 99.8 0 0 1 28.4 60.3l.5 7 11.3 2.3c6.2 1.2 13.3 2.8 15.8 3.6 3.1 1 4.7 1 5.1.3.4-.6 1.3-4.6 2-8.9zm-326.2 3.6c14-3 37.7-8.6 52.2-12.4l3.5-.9-.3-14.7c-.5-20.6 2.5-38.9 9.2-55.3 1.3-3.3 2.1-6 1.6-6l-24.9 5.8c-13.2 3.3-34.9 8.1-48 10.7l-24 4.8v12.1a133 133 0 0 0 13.6 59.5l17.1-3.6zm-195-5a120.3 120.3 0 0 1-10.8-49V1115l-4-1c-2.7-.8-4.6-.9-5.2-.3-2.4 2.4-4.2 13.1-4.2 25.2 0 15.7 1.8 23.2 6.6 27.3 4.3 3.6 19.2 13.7 19.6 13.2.2-.2-.8-2.5-2-5.2zm478.7-2.6a92.2 92.2 0 0 0-28.1-53.4l-8.3-8.2-4.8.5a88.6 88.6 0 0 0-43.5 16.8 64.8 64.8 0 0 0-14.8 16.8c0 .4 2.6.7 5.8.7 7.6 0 22.2 2.4 30.2 5 12 4 21.2 10.6 25 18.1 2 3.6 2.1 3.7 9.2 4.4 4 .3 11.6 1.5 16.8 2.5 14.3 2.6 13.3 3 12.5-3.2zm156-4.3c1.7-15.7-5-39-15.6-53.4-5.8-8-40.9-26.6-71.3-37.6l-9.8-3.5 8 7.7a84.5 84.5 0 0 1 25.1 47.3c.7 4.1 1.5 7.6 2 7.8a453.3 453.3 0 0 1 60.3 38.2c.3 0 1-2.9 1.3-6.5zm-223.2 3c10.8 0 19.7-.3 19.7-.8 0-1.2-9-6.6-14.8-8.7a130 130 0 0 0-32.4-5.5c-9.3-.6-9.7-.5-10.9 1.6-.6 1.3-1.4 5.1-1.7 8.6l-.5 6.3 10.4-.7c5.7-.5 19.3-.8 30.2-.8zm-134.5-11.4a450 450 0 0 1 77.2-13l14.6-1c.6 0 1.7-1.6 2.6-3.3a75.6 75.6 0 0 1 18.5-21.9 86 86 0 0 1 30.2-15.2c8.3-2.4 8.4-2.5 6-4a177.2 177.2 0 0 0-50.3-18.2 221.5 221.5 0 0 0-81.6-.6c-16.5 3-18.8 3.8-21 7.4-6 9.7-12.4 32-14 49.1-1.3 11.5-.6 24.6 1.1 24.6.6 0 8.1-1.8 16.7-3.9zm284.7-36.3a80.8 80.8 0 0 0-27.2-41c-15-12-22.8-16-34.5-17.8-9-1.3-25.8-2.7-25.8-2.2 0 .3 1.5 2.5 3.4 5.1a67.7 67.7 0 0 0 16 20.4c4.7 4.3 11.7 11.7 15.5 16.5l7 8.7 9.8 3.3a360 360 0 0 1 23.3 9.1 58.5 58.5 0 0 0 13.8 5c.2-.4-.4-3.6-1.3-7zm-500.3-18.8A171.2 171.2 0 0 1-352 997.5c3.4-3 5.7-5.6 5.3-5.6-1.6 0-26.5 8.6-37.7 13-9 3.5-12.5 5.5-20.5 12-29.3 23.6-49.3 53.5-56.6 84.5a66 66 0 0 0-1.5 7.2c0 2.5 16.3 4.1 41 4l18.5-.2zm32 6.5c17-1.7 33.6-3.8 47.3-6 15-2.5 14.5-2.4 14.5-5.2 0-4.7 4.1-22.8 7.6-33.2a146.6 146.6 0 0 1 65.1-81.7c4.3-2.5 7-4.5 6.2-4.8A262.1 262.1 0 0 0-307 982c-14.8 3-42.7 26.5-57.9 48.6a168 168 0 0 0-27.6 75.6l-.6 5.7h3.4c1.8 0 10.2-.7 18.7-1.5zm-102.8-5.7a151 151 0 0 1 19.3-50c7.2-10.8-3.6.2-12 12.3-8.5 12.2-16.3 30.5-15.5 36.1.2 1.4 1.3 2.5 2.8 3 4.2 1.1 5 1 5.4-1.4zm500.6-5c-22.9-22.2-57.2-43-101-61.7a63.9 63.9 0 0 0-36.3-4.2 99.9 99.9 0 0 0-56.4 23.8 58 58 0 0 0-12.2 13.7c.2.2 5.4-.5 11.4-1.5 14.7-2.5 44.7-3.5 59-2 32.6 3.6 60.6 13 82.6 27.7l7.5 5.1 14 .6c9 .4 17.8 1.4 25 3 6 1.3 11.6 2.5 12.4 2.5.8.1-1.9-3-6-7zm-302.7-4.3a1232 1232 0 0 0 69.5-16.7l11.3-3 4.1-6c5-7.5 17-20.2 24.2-25.8a108.5 108.5 0 0 1 48-20.3c4.8-.8 9-1.7 9.2-1.9.5-.6-20.5-12.8-31.6-18.3-17.8-8.9-51.4-19.5-61.9-19.5-4.2 0-19.4 6-28.6 11.3a138 138 0 0 0-63.8 87.7c-3.8 15.4-4 17-2.7 17 .6 0 10.6-2 22.3-4.5zM6.4 1066c-2.7-2.8-5.4-4.9-6-4.6-.5.2-2.7-.5-4.8-1.6-2.2-1-4-1.8-4.2-1.6-.5.5 19 13.5 19.4 13.1.3-.2-1.7-2.6-4.4-5.3zm100.1 5.1c-.8-1.2-23-11-35-15.6-18-6.7-53.4-14.5-65.9-14.5-3 0-3.5.4-4.5 3.7-.6 2-1 3.8-.9 4l15.2.6c25 .8 61.1 9.3 84.6 20.1 6 2.7 7.3 3 6.5 1.7zm-111-32.7a27.1 27.1 0 0 0-8.8-25 27.2 27.2 0 0 0-18.2-8.4c-4.9 0-12.6 1.8-12.6 3a232.6 232.6 0 0 1 25.4 22.8c6.7 6.6 12.4 12.1 12.8 12.2.4 0 1-2 1.4-4.6zm-19-4.7a140 140 0 0 0-37.6-25.6 282 282 0 0 0-77.2-27.7c-8.5-1.5-33.8-3-33.8-2a30 30 0 0 0 7.1 2.6 260.6 260.6 0 0 1 55.3 26.3c21 12.1 24.4 13.5 38.8 16.2a222 222 0 0 1 43 12.3 60 60 0 0 0 9.7 3.5c.3-.2-2.2-2.7-5.4-5.6zM-202.2 970a191 191 0 0 1 29-4c4.4-.2 5-.3 2.8-1-12.5-3.8-56.2-4.6-78.3-1.5l-14 2 16 1.2c8.8.7 20.5 2 26 2.7 13.1 1.7 14.4 1.8 18.5.6zM181 1721c0-1.6 3.1-20.5 3.4-20.8.1-.2 4.5-1.4 9.7-2.7a190.3 190.3 0 0 0 51.5-21.7c3.6-2.2 7-3.9 7.3-3.7 2 .8 37.1 27.1 37.1 27.7 0 .4-5 2-11.2 3.6-6.2 1.6-14.8 4.3-19 6.2-9.2 3.8-22.6 7.6-35.3 9.8-11.6 2.1-43.5 3.3-43.5 1.6zm-646.5-2.2a198 198 0 0 1-38-7.4c-4.4-1.3-11.4-3-15.5-4-14.3-3-29-6.9-29-7.6 0-.6 35.2-26.9 37.1-27.7.4-.2 3.7 1.5 7.3 3.7 15.2 9.4 34 17.3 51.5 21.7 5.2 1.3 9.6 2.5 9.7 2.7.2.1.8 3.4 1.4 7.2l1.6 9.8.6 2.7h-8.4l-18.3-1zm93.5-2.9c0-1 .5-5.2 1.1-9 1.1-6.4 1.5-7 3.8-7.6a195.8 195.8 0 0 0 58.7-23.5c3.6-2.2 7-3.9 7.3-3.7 2 .8 40 29.2 39.7 29.6-.9 1-18 4.3-38 7.7a858.2 858.2 0 0 1-63.8 8c-8.5.7-8.8.6-8.8-1.5zm474 1.3c-27-2-95.9-12.9-98.6-15.5-.3-.4 37.8-28.8 39.7-29.6.4-.2 3.7 1.5 7.3 3.7 17.2 10.6 38.3 19 58.7 23.5 2.3.5 2.7 1.2 3.8 7.5.6 4 1.1 8 1.1 9 0 2.2-.5 2.3-12 1.4zm-718.2-44.2c-53.5-29.8-87.6-72.3-98.9-123.3-3-13.6-3.8-44.4-1.4-59.2 8.5-54.5 45.5-102.5 102.1-132.7 8.2-4.5 10-5 10.8-3.8 9.6 12.8 41.6 56.8 41.6 57.3 0 .3-1.9 3.6-4.2 7.3a204.4 204.4 0 0 0-22.2 54.2c-.8 3.4-1.6 6.4-1.8 6.6l-37.8 6a447.2 447.2 0 0 0-40.3 7.2c-5.7 3-6.7 6.2-6.7 22.6 0 16.3 1 20.1 5.8 23.3 1.7 1.1 14.7 3.6 40.6 7.6a1766 1766 0 0 1 38.4 6.2l3.2 11.5c4.8 18.2 11.7 34 23.5 53.7l1.8 3.1-7 9.4-21.2 29a719 719 0 0 1-14.9 19.7c-.4.1-5.5-2.5-11.4-5.7zm951.2-9.9a6540 6540 0 0 0-21.4-29l-9.9-13.5 1.8-3a197.6 197.6 0 0 0 23.5-53.8 297 297 0 0 1 3.2-11.5c.2 0 17.5-3 38.4-6.2 26-4 39-6.5 40.6-7.6 5-3.2 5.8-7 5.8-23.3 0-16.4-1-19.7-6.7-22.6-1.5-.8-19.7-4-40.3-7.2l-37.8-6c-.2-.2-1-3.2-1.8-6.6a204.4 204.4 0 0 0-22.2-54.2c-2.3-3.7-4.2-7-4.2-7.3 0-.5 32-44.5 41.6-57.3 1-1.2 2.6-.7 10.8 3.8 56.2 30 93.5 78.1 102 131.7a221 221 0 0 1 .1 51.4c-8.3 54.1-43.5 100.5-100.3 132.1-5.8 3.2-10.9 6-11.2 6-.3 0-5.7-7.2-12-15.9z" fill="#3c2d28"/><path d="M-589.8 2183.2c-1-.3-1.3-5.2-1.3-19.6 0-10.6-.5-67.8-1.2-127.2-1.4-131.5.1-238.8 4.2-299.5.5-7.4 1-15 1-17v-3.8l4 1.4c6.1 2.1 9.8.6 22.4-8.9l11-8.2 16 4c9 2 20.6 5.1 26.1 6.6 21.6 6.2 39 9 58 9 5.8 0 10.5.3 10.5.8 0 4.2 8.4 54.4 9.5 57 2.8 6.1 6 7.1 23.5 7.1s20.6-1 23.5-7.2c.8-1.8 3.4-15.9 5.8-31.3l4.2-28 14.5-1a696.3 696.3 0 0 0 96.3-15c.7-.3 6 3 11.6 7.1a84 84 0 0 0 13.5 8.5c5.2 1.5 9.6-.5 16.4-7.4l6.4-6.4 4.1 1.5c2.4 1 9 1.7 15 2 5.8.2 10.5.7 10.2 1.2a144 144 0 0 0 5.5 38c.4 0 1.6 1.7 2.8 3.7 8.4 15 26.5 21.7 52 19.3a58 58 0 0 0 23.7-5.2c3.8-2 11-7.5 11.1-8.7 0-.3 1.3-3 2.8-6.2a130 130 0 0 0 8.6-45.6v-4.8l8.5.3c5.4.2 10.3-.2 13.4-1l5-1.5 9.8 10c14.5 14.5 16.5 14.7 33.4 2.3a49.3 49.3 0 0 1 11.6-7.2 695 695 0 0 0 98.8 15.2l12 .7 4.3 28.6c2.4 15.7 5 29.8 5.8 31.4 3 5.8 6.2 6.7 23.4 6.7 13.6 0 16-.2 18.7-2 1.7-1 3.7-2.9 4.5-4.2a271 271 0 0 0 5.3-28.8l4.1-26.5 5.5-.2c16.5-.8 35.1-2.6 44.2-4.3 11-2 26.6-6.9 33-10 2-1 7.7-3 13-4.5l12.2-3.3c2.7-.8 4 0 15 8.1 14 10.3 13.5 9.4 13.3 27.8 0 6.4.1 12 .4 12.5.4.5 1 16 1.3 34.4l1.5 78c3 142.1 3.4 192 2.2 238.6-1.3 50-2.6 73.6-4.2 79.7l-1 3.7H-136c-249 0-453.3-.4-453.9-.7zm597.6-6l109.4-.6-.6-9.6c-.8-12.5-3.9-26.7-12.6-58.6-3.9-14.3-8.9-35-11-46a247.8 247.8 0 0 0-41.2-101c-18.6-27.9-31.7-41.7-53.8-56.6-37.9-25.6-87.7-38.4-142-36.6-76.6 2.6-140 30.2-190.8 83.1-50.7 52.7-79.4 126.1-83 211.6l-.6 16.3 158.4-.6 267.8-1.4zm129-533.9c-3-.4-9.8-6.8-59.9-56.7l-56.4-56.2v-15.7c0-8.7.3-16 .7-16.5.4-.4 33.3 31.8 73 71.5a3411 3411 0 0 1 71.6 72.6c-.7.7-24.6 1.5-29 1zm27.7-144.3l-88.8-88.8 5.8-3.5c3.3-2 8.2-4.7 11-6l5-2.7 84 84 84 84-3.9 7.6c-2 4.2-4.8 9.1-6 11l-2.3 3.2zm-581.7 144.3c-3-.4-9.8-6.8-59.9-56.7l-56.3-56.2v-15.7a92 92 0 0 1 .7-16.5c.4-.4 33.2 31.8 72.8 71.5a3411 3411 0 0 1 71.7 72.6c-.7.7-24.6 1.5-29 1zm27.7-144.3l-88.8-88.8 5.8-3.5c7.7-4.7 14-7.8 15.6-7.8.7 0 39 37.6 84.8 83.5l83.5 83.5-1.7 4c-1.4 3.3-9.7 18-10.2 18l-89-88.9zm34.4-34.5l-74.5-74.5 3.5-.5c14.7-2.4 35-1.6 49.5 2.1l7 1.8 43.3 43.5 43.3 43.6 2.1 10a102 102 0 0 1 2 26c0 8.7-.4 17.4-.9 19.1l-.8 3.3zm554 0l-74.5-74.5 3.5-.5c14.3-2.4 35.6-1.5 49.5 2l6 1.5 42.5 42.5c23.4 23.4 42.8 42.3 43 42.2.3-.2.4 0 .3.1a91.2 91.2 0 0 1 5.8 27c1 8.5 1 13.8 0 22.3a293 293 0 0 1-1.4 11.5c-.2.1-33.8-33.3-74.7-74.2zm64-143c-3.6-2-8.5-4.2-11-5-3.3-1.2-6.9-4-13.3-10.4l-8.8-8.8 3.8-1.7c6.2-2.8 13.7-3.7 29.4-3.7h15l1.6-2.6c1.5-2.4 1.5-2.9.2-5.3-1.4-2.5-2-2.6-13.3-3.5-7-.5-15-.5-19.7.1-4.4.5-7.8.6-7.7.3l4.2-8c4-7.5 10.6-25.9 10.6-29 0-2.4-3.3-5-6.3-5s-4.9 2.4-6.7 9.3c-.7 2.6-1.6 4.7-2 4.7-.6 0-.7.6-.4 1.4.3.7-.2 2-1 3-.8.7-1.3 1.6-1 2 .8.7-6.3 14.3-11.7 22.3l-4.9 7.2-7.9-6.3a315 315 0 0 0-14-10.7 37 37 0 0 1-6-4.8 29 29 0 0 1 5.4-4.5 72 72 0 0 0 8.1-6.7c1.5-1.6 3.6-2.9 4.6-2.9 1.2 0 2.5-1.4 3.6-3.8 1-2 3.4-6 5.5-8.9 2.1-2.8 5.5-9 7.7-13.6l4-8.5 7.2-1.8c15.6-4 34.1-1.8 43.7 5.3 4.2 3.1 9.8 9.3 8.4 9.3-.4 0 0 .5 1 1.1 1 .6 1.5 1.4 1.2 2-.4.5 0 1 .5 1 .6 0 .8.4.5 1-.3.5 0 1 .6 1 .7 0 1 .2.6.5-.3.4 0 1.3.8 2 4 4 4.5 20.2 1 34a130 130 0 0 1-16.7 36.4c.4 0-.2.7-1.2 1.5s-1.6 1.5-1.2 1.5c.6 0-4.8 8.3-7.3 11.2a21 21 0 0 1-7-2.7zm-792.6-1.8a96.3 96.3 0 0 1-27.8-34.9 74.8 74.8 0 0 1-8.6-34.8 48 48 0 0 1 5.3-24.6c2.3-4.5 10.8-15 9.2-11.5-.4.8.2.5 1.2-.7 5-6 25.5-9 39.7-5.8 8.3 1.8 21.5 8 21.2 10 0 .5-2 3.8-4.4 7.3a68.8 68.8 0 0 0-5.7 11 69 69 0 0 1-3.2 7.8c-1.6 3.3-.9 10.6 2.1 23.7.7 3.1 1.1 5.7 1 5.7a189.9 189.9 0 0 0-19-10.1c-10.7-5-13.2-5.9-15-5-2.7 1.2-4.2 5.7-2.7 8 .5 1 7.3 4.8 15 8.6a99.3 99.3 0 0 1 25.3 16c1 1.2 0 3-6.2 10.2l-10.7 13a22.4 22.4 0 0 1-7.8 6.3c-5.6 2.5-5.4 2.5-8.9-.2zm50-16.6c.4-2.3 11-12.3 12.6-11.8l9.6 3.8 8 3.3-15.2 3c-11.2 2.2-15 2.7-15 1.7zm565.6-2c-22-8-40-16.6-74.3-35.4l-33.6-18.2-13.4-7 3.8-3a565 565 0 0 0 12.8-10.6l11.1-9.3c2.1-1.7 3-1.8 20.3-.3 44.8 4 73.3 12.6 98.4 29.7 13.5 9.2 12.6 6.2 8.8 31.1a210.4 210.4 0 0 1-3.9 22.1c-.6.7-17.3 4.8-18.9 4.6-.4 0-5.3-1.7-11-3.8zm121 1.7c0-.5-.4-.8-.9-.5-.6.4-24.7-2.7-26.7-3.4l-1.4-8.2c-.6-4.6-1.4-9.2-1.6-10.3-.2-1 0-1.4.2-.7.3.6 1 1 1.5.6.5-.3 1.2.2 1.5 1 .3 1 1 1.4 1.4 1.1.5-.3 1.6.5 2.4 1.7 1 1.2 1.6 1.8 1.6 1.3 0-.6 1 .1 2.1 1.5s1.7 1.8 1.3 1c-.4-.8 3 1.5 7.5 5 4.6 3.5 8.5 7 8.8 7.7.3.7 1 1.1 1.3.8.4-.3 1.3.2 2 1 1 1 1 1.5.1 1.5-.6 0-1-.5-1-1z" fill="#a8c5d7"/></g></svg>