<?xml version="1.0" encoding="UTF-8" standalone="no"?>
<svg
   xmlns:dc="http://purl.org/dc/elements/1.1/"
   xmlns:cc="http://creativecommons.org/ns#"
   xmlns:rdf="http://www.w3.org/1999/02/22-rdf-syntax-ns#"
   xmlns:svg="http://www.w3.org/2000/svg"
   xmlns="http://www.w3.org/2000/svg"
   style="clip-rule:evenodd;fill-rule:evenodd;stroke-linecap:round;stroke-linejoin:round;stroke-miterlimit:10"
   id="svg70"
   version="1.1"
   stroke-miterlimit="10"
   viewBox="0 0 809.93829 442.03705">
  <metadata
     id="metadata76">
    <rdf:RDF>
      <cc:Work
         rdf:about="">
        <dc:format>image/svg+xml</dc:format>
        <dc:type
           rdf:resource="http://purl.org/dc/dcmitype/StillImage" />
        <dc:title></dc:title>
      </cc:Work>
    </rdf:RDF>
  </metadata>
  <defs
     id="defs74" />
  <g
     transform="matrix(0.64682893,0,0,0.64682893,145.32799,90.054863)"
     id="g920">
    <path
       style="fill:#eedbc4;fill-rule:nonzero"
       d="m 209.38,49 c -0.93,0 -1.85,0.02 -2.76,0.05 -1.82,0.07 -3.17,1.7 -2.92,3.5 l 0.2,1.52 c 0.35,2.4 -1,4.77 -3.3,5.5 -3,0.96 -5.98,-1.03 -6.4,-3.98 l -0.2,-1.4 c -0.25,-1.9 -2.1,-3.1 -3.9,-2.6 -0.9,0.2 -1.77,0.5 -2.64,0.8 -1.73,0.5 -2.58,2.5 -1.83,4.2 l 0.64,1.4 c 1,2.2 0.36,4.8 -1.64,6.2 -2.58,1.7 -6.02,0.6 -7.25,-2.1 l -0.56,-1.3 c -0.78,-1.7 -2.9,-2.4 -4.47,-1.4 l -2.3,1.5 c -1.5,1 -1.75,3.2 -0.56,4.5 l 1,1.2 c 1.7,2 1.5,5.2 -0.5,6.9 0,2.6 -3.3,3.8 -5,1.8 l -2.9,-3.3 c -1.2,-1.5 -3.4,-1.5 -4.7,-0.1 l -1.8,2.1 c -1.2,1.4 -0.8,3.5 0.7,4.5 l 1.4,0.9 c 2.2,1.5 2.9,4.5 1.4,6.8 -1.5,2.3 -4.5,2.9 -6.8,1.5 l -1.2,-0.8 c -1.6,-1 -3.7,-0.4 -4.5,1.3 l -1.1,2.6 c -0.7,1.7 0.2,3.6 1.9,4.1 l 1.6,0.5 c 2.6,0.8 4.1,3.5 3.3,6.1 -0.8,2.6 -3.5,4.1 -6.1,3.3 l -1.3,-0.4 c -1.8,-0.5 -3.7,0.7 -3.9,2.5 -0.2,0.9 -0.3,1.8 -0.4,2.7 -0.2,1.8 1.2,3.4 3,3.4 h 1.6 c 2.7,0 4.9,2.2 4.9,4.9 0,2.7 -2.2,4.9 -4.9,4.9 H 144 c -1.9,0 -3.33,1.6 -3.1,3.5 l 0.48,2.7 c 0.3,1.8 2.15,2.9 3.9,2.4 l 1.48,-0.4 c 2.3,-0.7 4.9,0.3 5.9,2.5 1.4,2.8 -0.2,6 -3,6.9 l -1.3,0.4 c -1.8,0.5 -2.7,2.5 -1.94,4.2 l 1.2,2.5 c 0.8,1.6 2.88,2.2 4.4,1.2 l 1.4,-0.9 c 2.3,-1.4 5.36,-0.8 6.8,1.5 1.5,2.3 0.8,5.3 -1.5,6.8 l -1.1,0.7 c -1.6,1 -1.9,3.2 -0.7,4.6 0.6,0.7 1.2,1.4 1.86,2 1.2,1.3 3.33,1.3 4.53,-0.1 l 1.1,-1.3 c 1.8,-2 4.9,-2.3 6.9,-0.5 2,1.8 2.2,4.9 0.5,7 l -0.9,1 c -1.2,1.4 -0.9,3.6 0.6,4.6 0.8,0.5 1.5,1 2.3,1.5 1.6,0.9 3.6,0.3 4.4,-1.4 l 0.7,-1.5 c 1.2,-2.5 4.1,-3.6 6.6,-2.4 2.4,1.1 3.5,4.1 2.4,6.5 l -0.6,1.3 c -0.7,1.5 0,3.3 1.3,4 l 0.4,-0.2 c 2.7,-1.5 3.8,-2 4.3,-1.9 0.2,0 0.3,0.1 0.4,0.2 l 1.3,1.8 c 0.1,0 0.1,-0.1 0.1,-0.1 -1,-1.4 -1.8,-2.4 -2,-2.6 -0.6,-0.7 -1.2,-1.9 -1.3,-2.6 -0.4,-2.8 0.4,-4.3 4.8,-8.7 2.1,-2.2 3.6,-3.7 5,-4.5 l -19.5,-7.6 c -2.4,-1.5 -2.7,-4.2 -0.8,-6.2 l 4.6,-4.3 c 2,-2 5.6,-2.5 8,-1.1 l 7.9,2.9 c 0.9,0.2 1.7,0.6 2.4,1.1 -1.7,-4.7 -2.4,-8.5 -2.4,-13.3 0,-5 0.5,-8 2.2,-11.7 -2.2,-1.6 -3.6,-4.1 -3.6,-7 0,-4.7 3.8,-8.5 8.6,-8.5 2.5,0 4.7,1.1 6.3,2.7 6.8,-3.1 16.8,-3.3 24.6,-0.9 -0.2,-0.4 -0.4,-0.8 -0.5,-1.1 l -2.6,-6.8 c -1.4,-2.4 -0.9,-6 1.1,-8 l 0.6,-0.6 c -0.4,-2.1 -0.4,-4.4 -0.5,-8.8 l -0.2,0.3 -4.4,4.4 c -1.9,2 -5.5,2.4 -7.8,0.86 l -7.1,-3.2 c -2.7,-0.8 -4.8,-3.7 -4.8,-6.5 V 74 c 0.1,-2.7 2.2,-4.4 4.9,-3.7 l 18.7,8 c 0.4,0.3 0.7,0.5 0.9,0.8 0.1,-3 0.4,-4.4 1.1,-7.1 1.3,-4.9 3.2,-9.43 5.6,-13.8 -0.3,-0.2 -0.6,-0.4 -0.9,-0.54 -1.5,-0.9 -3.6,-0.3 -4.3,1.4 l -0.7,1.5 c -1.2,2.5 -4.1,3.6 -6.5,2.5 -2.6,0 -4.3,-2.6 -3.2,-4.9 l 1.3,-2.9 c 0.8,-1.7 -0.1,-3.7 -1.9,-4.2 -0.9,-0.2 -1.8,-0.5 -2.7,-0.7 -1.8,-0.4 -3.6,0.7 -3.8,2.6 l -0.3,1.64 c -0.4,3 -3.4,5 -6.4,4 -2.3,-0.7 -3.7,-3.1 -3.3,-5.5 l 0.1,-1.2 c 0.3,-1.8 -1.1,-3.5 -3,-3.5 z m -6,21.54 c 2.25,-0.02 3.95,1.66 3.94,4.1 v 6.17 c -0.02,2.8 -2.24,5.6 -4.95,6.2 l -7.92,2.9 c -2.43,1.4 -6,0.9 -7.97,-1.1 l -4.4,-4.4 c -1.96,-1.9 -1.62,-4.7 0.76,-6.1 l 19.56,-7.5 c 0.34,0 0.67,-0.1 1,-0.1 z m -28.9,16.98 c 1,0 2.03,0.44 2.9,1.3 l 4.36,4.4 c 1.96,1.96 2.34,5.48 0.85,7.82 l -3.5,8.2 c -0.8,2.7 -3.6,4.88 -6.4,4.88 l -6.2,-0.02 c -2.8,0 -4.5,-2.2 -3.9,-4.9 l 8.4,-19.73 c 0.8,-1.3 2.1,-1.97 3.4,-1.95 z m -7.96,33.1 h 6.2 c 2.78,0.02 5.63,2.22 6.35,4.9 l 3.45,8.23 c 1.48,2.35 1.07,5.87 -0.9,7.83 l -4.38,4.37 c -1.97,1.96 -4.8,1.65 -6.3,-0.68 l -8.27,-19.76 c -0.66,-2.6 1.07,-4.9 3.85,-4.8 z m 40.6,34.55 v 5.1 c 0,1.3 -0.5,2.38 -1.28,3.1 1.72,0.34 3.7,1.63 6.65,3.83 2.6,1.9 5.1,3.86 5.4,4.25 0.3,0.32 1.5,1.28 3.8,3.02 l 0.4,-0.24 c -2.2,-1.7 -4,-3.12 -3.8,-3.17 0.2,-0.1 -1.2,-2 -3.2,-4.25 -4,-4.4 -5.8,-7 -8,-11.6 z M 602.1,361.55 c 0.22,7.3 0.4,15.17 0.52,22.24 0.13,8.2 0.44,24.1 0.7,35.3 0.2,8.9 0.3,22.1 0.33,36.2 0.75,0.4 1.36,1.1 1.67,2 l 0.37,1 c 0.5,1.4 2.1,2 3.4,1.3 l 1.9,-1.1 c 1.2,-0.8 1.5,-2.4 0.7,-3.6 l -0.8,-1.1 c -1.3,-1.8 -0.9,-4.2 0.8,-5.4 1.7,-1.3 4.1,-0.9 5.4,0.8 l 0.6,0.8 c 0.8,1.2 2.6,1.3 3.6,0.3 l 1.5,-1.6 c 1,-1.1 0.8,-2.7 -0.3,-3.6 l -1.1,-0.8 c -1.7,-1.3 -2,-3.8 -0.8,-5.5 1.3,-1.7 3.7,-2 5.4,-0.7 l 0.9,0.6 c 1.1,0.9 2.8,0.6 3.5,-0.7 0.3,-0.6 0.7,-1.3 1,-1.9 0.6,-1.3 0,-2.9 -1.3,-3.4 l -1.3,-0.5 c -2,-0.8 -3,-3.1 -2.3,-5 0.7,-2 3,-2.9 5,-2.2 l 1,0.4 c 1.4,0.6 2.9,-0.3 3.2,-1.7 0.2,-0.7 0.3,-1.4 0.4,-2.1 0.2,-1.4 -0.8,-2.8 -2.2,-2.9 l -1.3,-0.1 c -2.2,-0.2 -3.7,-2.1 -3.6,-4.2 -1.5,-1.5 -0.3,-3.9 1.7,-3.8 l 3.5,0.3 c 1.4,0.1 2.7,-1.1 2.6,-2.6 -0.1,-0.8 -0.1,-1.5 -0.2,-2.2 -0.2,-1.4 -1.5,-2.4 -2.9,-2.2 l -1.2,0.2 c -1.9,0.3 -3.8,-0.6 -4.5,-2.4 -0.9,-2.3 0.5,-4.8 2.8,-5.2 l 1,-0.2 c 1.4,-0.3 2.3,-1.8 1.8,-3.2 l -0.8,-2.1 c -0.6,-1.3 -2.1,-1.9 -3.4,-1.2 l -1.1,0.5 c -1.7,0.9 -3.7,0.5 -4.9,-1 -1.6,-2 -0.9,-4.8 1.2,-5.9 l 0.9,-0.5 c 1.3,-0.7 1.7,-2.4 0.8,-3.6 -0.4,-0.6 -0.8,-1.2 -1.3,-1.8 -0.9,-1.1 -2.6,-1.2 -3.6,-0.2 l -0.9,0.9 c -1.5,1.5 -4,1.5 -5.5,0 -1.5,-1.5 -1.5,-4 0,-5.5 l 0.7,-0.8 c 1,-1 0.9,-2.8 -0.2,-3.7 l -1.8,-1.3 c -1.2,-0.8 -2.8,-0.5 -3.5,0.8 l -0.6,1 c -0.9,1.6 -2.9,2.5 -4.7,1.8 -2.3,-0.9 -3.3,-3.5 -2.1,-5.6 l 0.5,-1 c 0.7,-1.28 0.1,-2.9 -1.2,-3.4 l -0.9,-0.3 z m -8.06,5.58 h -0.1 l 0.02,0.2 c 0.13,7.97 0.43,23.18 0.65,33.8 l 0.2,9.26 c 0,-2 0.1,-2.9 0.2,-1.8 0.1,1 0.1,2.5 0,3.7 v 1.2 c 0.4,17.1 0.6,32 0.8,43.2 0,-9.5 -0.1,-18.6 -0.2,-26.7 v 0.7 c 0,1.1 -0.1,0.1 -0.1,-2.1 0,-2 0.1,-2.9 0.2,-2.3 l -0.3,-13.2 -0.5,-26 v 1 c -0.1,1.6 -0.1,0.2 -0.1,-3 0,-1.7 0,-2.8 0.1,-3.3 l -0.2,-9.3 -0.1,-5.8 z"
       id="path2" />
    <path
       style="fill:#faae5f;fill-rule:nonzero"
       d="m 706.82,331.06 -23.24,-23.24 c 2.4,-3.4 4.12,-7.28 4.98,-11.5 h 33.1 c -1.32,13.2 -6.7,25.2 -14.84,34.74 m -42.7,22.07 v -32.8 c 4.16,-0.78 8,-2.38 11.4,-4.64 l 23.27,23.2 c -9.6,7.9 -21.6,13 -34.7,14.1 m -46,-14.2 23.2,-23.3 c 3.4,2.2 7.2,3.8 11.4,4.6 V 353 c -13.1,-1.15 -25.1,-6.27 -34.7,-14.17 m -22.9,-42.63 h 33.1 c 0.8,4.2 2.5,8.1 4.9,11.5 l -23,23.3 c -8.2,-9.55 -13.6,-21.54 -14.9,-34.73 m 14.1,-46.72 23.5,23.53 c -2.4,3.55 -4,7.6 -4.8,11.95 h -33 c 1,-13.42 6.1,-25.67 14.2,-35.47 m 43.4,-22.96 V 260 c -4.4,0.8 -8.5,2.58 -12.1,5.07 l -23.5,-23.5 c 9.7,-8.33 22,-13.74 35.5,-14.93 m 46.8,14.92 -23.5,23.5 c -3.5,-2.48 -7.6,-4.25 -12,-5.07 v -33.4 c 13.5,1.2 25.8,6.6 35.5,14.9 m 22.2,43.5 h -33 c -0.8,-4.4 -2.4,-8.4 -4.8,-12 l 23.5,-23.6 c 8.1,9.8 13.3,22 14.3,35.4 m 15.6,5.8 c 2.4,-0.7 11.6,-3.7 13.9,-5.5 l -0.2,-2.8 -0.2,-2.9 c -2.5,-1.5 -12.5,-3.3 -14.6,-3.7 -0.2,-1.4 -0.5,-2.8 -0.8,-4.2 2.8,-1.6 10.1,-6.1 11.8,-8.1 l -0.8,-2.8 -0.8,-2.8 c -2.7,-0.9 -12.2,-0.5 -14.8,-0.4 -0.6,-1.3 -1.2,-2.5 -1.8,-3.7 2.1,-2 8.7,-8.3 10,-10.7 l -1.4,-2.6 -1.4,-2.6 c -3.2,-0.2 -14.4,2.8 -15.2,3 l -1.3,-1.7 c 1.3,-2.1 6.5,-10.4 7.1,-13.2 l -2,-2.1 -2,-2.1 c -2.9,0.5 -11.9,5.6 -13.7,6.6 -0.9,-0.8 -1.9,-1.5 -2.8,-2.2 0.9,-2.8 3.5,-11.5 3.4,-14.3 l -2.5,-1.5 -2.5,-1.5 c -2.5,1.2 -8.9,7.3 -11.1,9.5 -1.1,-0.6 -2.3,-1.1 -3.4,-1.6 0.3,-3.5 0.8,-11.4 0.2,-13.9 l -2.7,-1 -2.8,-1 c -2,1.6 -6.5,8.2 -8.4,11.1 -1.8,-0.4 -3.6,-0.7 -5.4,-1 -0.6,-3.6 -1.8,-11 -3,-13.2 l -2.9,-0.3 -2.9,-0.3 c -1.6,2 -4.4,9.4 -5.6,12.7 -1.6,0 -3.2,0.1 -4.8,0.2 -1.5,-3.1 -5.1,-10.4 -7,-12.2 l -2.9,0.6 -2.9,0.6 c -0.9,2.3 -1.3,9.7 -1.5,13.4 -1.7,0.5 -3.4,1 -5,1.6 -2.1,-2.8 -7.1,-9 -9.3,-10.3 l -2.7,1.2 -2.6,1.2 c -0.4,2.5 0.9,10.5 1.4,13.9 -1.2,0.7 -2.5,1.5 -3.7,2.3 -2.4,-1.8 -9.7,-7 -12.3,-7.8 l -2.2,1.8 -2.2,1.9 c 0.3,2.6 3.8,10.1 5.2,13.1 l -3.3,3.3 c -2.4,-1 -11.2,-4.6 -14.1,-4.7 l -1.7,2.3 -1.7,2.3 c 0.9,2.5 6.4,9.3 8.4,11.7 -0.8,1.3 -1.6,2.6 -2.3,3.9 -2.7,-0.5 -11.9,-2 -14.6,-1.6 l -1.2,2.6 -1.2,2.6 c 1.6,2.4 9,8.3 11.1,10 -0.4,1.1 -0.7,2.2 -1,3.3 -1.8,0.2 -12.3,1.6 -15,2.9 l -0.3,2.9 -0.4,2.9 c 2,1.7 10,4.8 13,6 l -0.3,5.2 c -2,0.6 -11.7,3.8 -14,5.5 l 0.2,2.9 0.1,2.9 c 2.6,1.5 13.1,3.4 14.8,3.7 0.2,1.4 0.5,2.7 0.8,4.1 -2.7,1.6 -10.2,6.1 -12,8.2 l 0.8,2.7 0.8,2.8 c 2.7,0.84 12.4,0.5 14.9,0.4 0.5,1.22 1.1,2.43 1.7,3.62 -2.1,1.9 -8.8,8.3 -10.1,10.7 l 1.4,2.6 1.4,2.5 c 3.3,0.3 15.2,-3 15.2,-3 l -0.1,-0.2 1.4,1.8 c -1.2,2 -6.5,10.4 -7.1,13.3 l 2,2.1 2,2.1 c 3,-0.5 12.1,-5.7 13.7,-6.7 0.9,0.7 1.8,1.5 2.7,2.2 -0.9,2.7 -3.6,11.53 -3.5,14.3 l 2.4,1.5 2.6,1.6 c 2.5,-1.16 8.9,-7.3 11.1,-9.4 1.1,0.6 2.3,1.1 3.4,1.64 -0.3,3.5 -0.8,11.4 -0.1,13.9 l 2.7,1 2.7,0.95 c 2,-1.5 6.5,-8.2 8.4,-11.1 1.8,0.4 3.5,0.8 5.3,1.1 0.5,3.4 1.8,11.4 3.1,13.7 l 2.9,0.3 2.9,0.3 c 1.7,-2.1 4.7,-10.2 5.8,-13.2 1.6,0 3.1,-0.1 4.7,-0.2 1.5,3.16 5.1,10.3 6.9,12.07 l 2.84,-0.6 2.8,-0.6 c 0.9,-2.2 1.32,-9.5 1.5,-13.2 1.72,-0.43 3.44,-1 5.14,-1.53 2.2,2.72 7.1,8.8 9.3,10.12 l 2.7,-1.1 2.7,-1.14 c 0.4,-2.5 -0.8,-10.24 -1.4,-13.7 1.3,-0.7 2.6,-1.5 3.8,-2.3 2.6,1.84 9.6,6.9 12.2,7.7 l 2.3,-1.87 2.2,-1.85 c -0.3,-2.6 -3.7,-9.9 -5.15,-13 1.3,-1.2 2.5,-2.5 3.7,-3.8 3,1.46 10.5,5 13.1,5.3 l 1.85,-2.24 1.9,-2.2 c -0.8,-2.7 -6.2,-10.3 -7.8,-12.5 l 1.8,-3 c 2.2,0.4 12.1,2.1 14.98,1.6 l 1.2,-2.6 1.2,-2.7 c -1.6,-2.4 -9.4,-8.6 -11.2,-10 0.4,-1.3 0.8,-2.5 1.2,-3.8 2.2,-0.3 12.1,-1.6 14.7,-2.9 l 0.4,-2.9 0.4,-2.9 c -2,-1.7 -9.6,-4.7 -12.8,-5.9 0.2,-1.8 0.3,-3.5 0.3,-5.3"
       id="path4" />
    <path
       style="fill:#4f5c5d;fill-rule:nonzero"
       d="m 692.87,55.78 c 19.78,11.43 33.25,32.14 27.26,42.5 -6,10.38 -28.52,5.35 -48.3,-6.08 -19.8,-11.43 -35.4,-28.43 -29.4,-38.8 6,-10.38 30.66,-9.05 50.44,2.38 m 29.68,59.57 c 0,3.43 -2.8,6.2 -6.2,6.2 -3.44,0 -6.22,-2.78 -6.22,-6.2 0,-3.44 2.78,-6.2 6.2,-6.2 3.44,0 6.22,2.77 6.22,6.2 m -2.46,17.1 c 5.9,10.38 -7.5,31.07 -27.3,42.5 -19.8,11.4 -44.5,12.72 -50.5,2.34 -6,-10.4 9.6,-27.4 29.4,-38.8 19.8,-11.4 42.3,-16.5 48.3,-6.1 m -93,37.9 c -3,-1.7 -4,-5.5 -2.3,-8.5 1.7,-3 5.5,-4 8.5,-2.3 2.9,1.7 3.9,5.5 2.2,8.4 -1.7,3 -5.5,4 -8.5,2.3 m -37.5,-55.1 c 0,-22.9 11.2,-44.9 23.2,-44.9 11.9,0 18.8,22 18.8,44.8 0,22.8 -7,44.9 -18.9,44.9 -12,0 -23.2,-22.1 -23.2,-44.9 m 35.2,-46.6 c -1.7,-3 -0.7,-6.8 2.2,-8.5 3,-1.7 6.8,-0.7 8.5,2.2 1.7,2.9 0.7,6.7 -2.3,8.5 -3,1.7 -6.8,0.7 -8.5,-2.3 m 33.7,-31.4 c -2.5,0 -4.5,-3.3 -4.6,-7.3 l -4.3,0.3 c 0.5,3.9 -1,7.2 -3.4,7.6 -2.4,0.4 -4.9,-2.4 -5.6,-6.2 -1.4,0.3 -2.8,0.6 -4.2,1 1,3.7 0.1,7.1 -2.2,7.9 -2.3,0.8 -5.1,-1.5 -6.4,-5.1 -1.3,0.5 -2.7,1 -3.9,1.6 1.4,3.4 1,6.8 -1.1,7.9 -2.1,1 -5.2,-0.7 -7,-3.9 -1.3,0.7 -2.5,1.4 -3.6,2.2 1.9,3.1 1.9,6.4 0.1,7.8 -1.9,1.3 -5.1,0.2 -7.5,-2.6 l -3.3,2.7 c 2.2,2.7 2.8,6 1.2,7.6 -1.6,1.6 -4.9,1 -7.6,-1.3 -1,1 -1.9,2.1 -2.8,3.2 2.6,2.3 3.6,5.3 2.3,7.2 -1.4,1.8 -4.6,1.7 -7.6,0 -0.8,1.2 -1.6,2.4 -2.3,3.6 2.8,1.9 4.3,4.7 3.2,6.7 -1,2 -4.2,2.4 -7.4,1.2 -0.6,1.3 -1.2,2.6 -1.7,3.9 3.1,1.5 4.9,4 4.2,6.1 -0.7,2.1 -3.7,3.1 -7,2.4 -0.4,1.4 -0.8,2.7 -1.1,4.1 3.2,0.9 5.4,3.1 5,5.3 -0.3,2.2 -3.1,3.6 -6.5,3.5 -0.2,1.4 -0.3,2.8 -0.4,4.2 3.3,0.4 5.7,2.3 5.7,4.4 0,2.2 -2.6,4.1 -5.9,4.5 0,1.4 0.1,2.8 0.2,4.2 3.3,-0.1 6.1,1.3 6.4,3.5 0.3,2.2 -1.9,4.4 -5.2,5.3 0.2,1.4 0.5,2.8 0.9,4.1 3.3,-0.6 6.2,0.3 6.9,2.4 0.7,2.2 -1.2,4.7 -4.4,6.1 0.5,1.4 1,2.7 1.5,4 3.2,-1.1 6.3,-0.6 7.3,1.3 1,2 -0.5,4.9 -3.4,6.8 0.7,1.2 1.4,2.5 2.1,3.7 2.9,-1.7 6.1,-1.7 7.4,0.1 1.3,1.8 0.2,4.9 -2.4,7.3 0.8,1.2 1.7,2.3 2.7,3.3 2.7,-2.1 5.9,-2.7 7.5,-1.1 1.6,1.7 1,5 -1.3,7.7 1,1 2.1,1.9 3.2,2.8 2.3,-2.7 5.4,-3.7 7.3,-2.4 1.9,1.4 1.7,4.8 -0.2,7.9 l 3.5,2.4 c 1.9,-3.1 4.9,-4.7 6.9,-3.7 2.2,1.1 2.6,4.6 1,8.1 l 3.9,1.8 c 1.4,-3.5 4.1,-5.7 6.4,-4.9 2.3,0.7 3.2,4.2 2.2,7.9 1.4,0.4 2.8,0.7 4.1,1.1 0.8,-3.7 3.2,-6.4 5.6,-6 2.4,0.4 3.9,3.8 3.4,7.7 1.4,0.2 2.8,0.3 4.2,0.5 0.1,-4 2.1,-7.1 4.5,-7.1 2.5,0 4.6,3.2 4.6,7.3 1.4,-0.1 2.9,-0.1 4.3,-0.2 -0.6,-4 0.9,-7.5 3.4,-7.9 2.5,-0.4 5,2.5 5.6,6.5 v 0.2 c 1.5,-0.3 2.9,-0.6 4.3,-0.9 v -0.1 c -1.3,-3.9 -0.3,-7.6 2.1,-8.4 2.4,-0.8 5.3,1.7 6.6,5.5 l 0.1,0.4 c 1.4,-0.5 2.8,-1 4.1,-1.54 l -0.2,-0.3 c -1.8,-3.6 -1.5,-7.4 0.8,-8.6 2.2,-1.1 5.5,0.9 7.4,4.5 0.1,0.2 0.2,0.4 0.2,0.6 1.3,-0.7 2.6,-1.5 3.8,-2.2 l -0.4,-0.4 c -2.37,-3.3 -2.6,-7.2 -0.6,-8.6 2.02,-1.5 5.6,-0.1 8,3.2 l 0.42,0.7 c 1.2,-0.9 2.3,-1.8 3.5,-2.8 -0.2,-0.1 -0.4,-0.3 -0.5,-0.5 -2.9,-2.8 -3.8,-6.6 -2,-8.4 1.8,-1.7 5.5,-0.9 8.4,2 0.2,0.2 0.4,0.5 0.6,0.7 l 3,-3.3 -0.7,-0.5 c -3.3,-2.3 -4.8,-5.9 -3.3,-8 1.5,-2 5.3,-1.7 8.6,0.7 0.3,0.2 0.6,0.5 0.8,0.7 0.87,-1.2 1.7,-2.5 2.5,-3.8 -0.3,-0.1 -0.6,-0.2 -0.9,-0.4 -3.6,-1.8 -5.6,-5.1 -4.5,-7.4 1.1,-2.3 5,-2.5 8.6,-0.7 l 1.07,0.6 c 0.7,-1.4 1.3,-2.8 1.9,-4.2 l -1.1,-0.3 c -3.87,-1.2 -6.3,-4.2 -5.58,-6.6 0.8,-2.4 4.6,-3.3 8.4,-2.1 0.4,0.2 0.8,0.3 1.2,0.5 0.43,-1.4 0.8,-2.9 1.2,-4.4 -0.4,0 -0.77,-0.03 -1.1,-0.1 -4,-0.6 -6.9,-3.13 -6.5,-5.6 0.4,-2.5 4,-4 8,-3.4 0.5,0 0.9,0.1 1.3,0.3 0.2,-1.6 0.3,-3.1 0.5,-4.7 h -1 c -4.1,0 -7.4,-2.07 -7.4,-4.58 0,-2.5 3.2,-4.6 7.3,-4.5 0.4,0 0.9,0 1.3,0.1 l -0.3,-4.6 c -0.4,0.1 -0.78,0.1 -1.18,0.2 -4,0.6 -7.54,-0.9 -7.9,-3.4 -0.4,-2.5 2.5,-5 6.5,-5.6 0.5,0 0.9,-0.1 1.3,-0.1 -0.3,-1.5 -0.6,-3 -1,-4.5 -0.3,0.1 -0.7,0.3 -1,0.4 -3.8,1.2 -7.6,0.3 -8.4,-2.1 -0.7,-2.4 1.75,-5.4 5.6,-6.6 l 1.2,-0.3 c -0.5,-1.5 -1.1,-2.9 -1.7,-4.3 -0.3,0.2 -0.6,0.4 -0.9,0.5 -3.6,1.9 -7.46,1.5 -8.6,-0.7 -1.1,-2.25 0.9,-5.56 4.5,-7.4 l 1.1,-0.5 c -0.8,-1.3 -1.58,-2.6 -2.4,-3.9 l -0.75,0.6 c -3.3,2.4 -7.1,2.7 -8.6,0.7 -1.5,-2 0,-5.6 3.3,-8 l 0.9,-0.55 c -0.9,-1.2 -1.9,-2.3 -2.9,-3.5 l -0.5,0.6 c -2.85,2.9 -6.6,3.8 -8.4,2 -1.8,-1.8 -0.9,-5.5 2,-8.4 l 0.65,-0.6 c -1.1,-1 -2.2,-2 -3.4,-2.9 l -0.4,0.6 c -2.3,3.3 -5.9,4.8 -8,3.3 -2,-1.5 -1.7,-5.3 0.7,-8.6 l 0.44,-0.5 c -1.2,-0.8 -2.5,-1.6 -3.8,-2.3 l -0.2,0.5 c -1.8,3.6 -5.1,5.6 -7.4,4.5 -2.2,-1.2 -2.5,-5 -0.7,-8.6 l 0.3,-0.5 c -1.4,-0.6 -2.7,-1.2 -4.1,-1.7 l -0.1,0.3 c -1.3,3.8 -4.2,6.3 -6.6,5.53 -2.4,-0.7 -3.33,-4.5 -2.1,-8.4 l 0.1,-0.3 c -1.4,-0.3 -2.8,-0.7 -4.2,-1 v 0.1 c -0.6,4 -3.13,7 -5.6,6.6 -2.5,-0.4 -4,-4 -3.38,-8 l -4.3,-0.3 c -0.1,4 -2.1,7.2 -4.6,7.2"
       id="path6" />
    <path
       style="fill:#4f5c5d;fill-rule:nonzero"
       d="m 576.64,96.92 c 0.34,-1.5 0.72,-3 1.13,-4.48 -0.5,-0.03 -1,-0.1 -1.5,-0.2 -0.4,1.37 -0.74,2.75 -1.05,4.14 0.5,0.15 0.98,0.34 1.42,0.54 M 735.4,82.04 c 0.56,1.3 1.1,2.62 1.6,3.96 l 0.24,-0.1 c 0.4,-0.12 0.8,-0.22 1.22,-0.3 -0.54,-1.45 -1.12,-2.88 -1.73,-4.3 -0.3,0.2 -0.6,0.38 -0.93,0.55 -0.14,0.07 -0.27,0.12 -0.4,0.2 m 6.66,39.17 c -0.1,1.43 -0.23,2.86 -0.4,4.27 h 0.18 c 0.44,0 0.86,0.1 1.28,0.3 0.2,-1.6 0.33,-3.1 0.44,-4.7 H 742 M 580.4,84.4 c 0.5,-1.42 1.1,-2.83 1.8,-4.22 -0.5,-0.1 -1,-0.26 -1.5,-0.44 -0.6,1.3 -1.2,2.6 -1.7,3.9 0.44,0.24 0.9,0.5 1.3,0.76 m 161.47,23.3 c 0.14,1.43 0.23,2.86 0.3,4.3 h 0.2 c 0.43,0 0.9,0 1.3,0.06 -0.06,-1.58 -0.16,-3.1 -0.3,-4.66 -0.37,0.1 -0.74,0.16 -1.14,0.22 -0.1,0.03 -0.23,0.04 -0.35,0.05 m -168.4,14.9 c 0.52,0 1.02,0 1.5,0.07 -0.13,-1.53 -0.2,-3.08 -0.27,-4.63 -0.4,0.2 -0.9,0.3 -1.4,0.3 l 0.3,4.3 m 12.8,-49.7 2.4,-3.8 c -0.4,-0.2 -0.9,-0.4 -1.4,-0.7 -0.8,1.2 -1.5,2.4 -2.2,3.6 0.5,0.3 0.9,0.7 1.2,1 m -12.8,36.6 1.5,0.3 c 0.1,-1.5 0.3,-3.1 0.5,-4.6 -0.5,0.1 -1,0.1 -1.5,0.1 l -0.3,4.3 M 740,94.8 c 0.3,1.37 0.63,2.76 0.9,4.16 l 0.2,-0.03 c 0.45,-0.1 0.88,-0.1 1.3,-0.14 -0.3,-1.6 -0.63,-3.1 -1,-4.6 -0.33,0.1 -0.7,0.3 -1.05,0.4 l -0.35,0.1 m -10.6,-24.4 c 0.7,1.2 1.5,2.4 2.2,3.6 l 0.3,-0.2 c 0.3,-0.2 0.7,-0.3 1,-0.4 -0.75,-1.4 -1.53,-2.7 -2.35,-4 l -0.8,0.6 -0.44,0.3 M 624.5,38.6 c 1.33,-0.57 2.7,-1.13 4.05,-1.65 -0.24,-0.45 -0.46,-0.9 -0.64,-1.4 -1.3,0.5 -2.6,1.03 -3.9,1.6 0.2,0.5 0.4,0.98 0.5,1.46 m 42.7,-6.7 0.2,-1.4 v -0.1 l -4.3,-0.3 c 0,0.6 0,1.1 -0.1,1.6 1.5,0.1 2.9,0.2 4.3,0.4 m 21.5,5.2 c 1.3,0.5 2.7,1.1 3.9,1.6 l 0.4,-0.9 0.3,-0.4 c -1.3,-0.6 -2.7,-1.2 -4,-1.7 l -0.1,0.3 c -0.1,0.4 -0.3,0.8 -0.4,1.2 m -12.9,-4 c 1.4,0.3 2.8,0.7 4.2,1 l 0.3,-1.2 0.1,-0.3 c -1.4,-0.3 -2.8,-0.7 -4.2,-1 v 0.1 c 0,0.5 -0.2,1 -0.3,1.4 m 24.6,9.6 c 1.3,0.7 2.5,1.4 3.6,2.2 0.2,-0.3 0.3,-0.5 0.5,-0.7 l 0.5,-0.6 c -1.2,-0.8 -2.5,-1.6 -3.7,-2.4 l -0.2,0.5 -0.5,0.9 M 593.6,62.2 c 0.96,-1.17 1.95,-2.32 2.97,-3.43 l -1.25,-0.9 c -0.96,1 -1.88,2.1 -2.78,3.2 0.4,0.3 0.74,0.7 1.06,1.1 m 19.38,-17.3 c 1.24,-0.8 2.5,-1.6 3.78,-2.3 -0.3,-0.4 -0.6,-0.9 -0.87,-1.3 -1.3,0.7 -2.5,1.4 -3.7,2.2 0.3,0.42 0.5,0.9 0.7,1.4 m 98.5,5.5 c 1.1,0.9 2.1,1.8 3.2,2.74 l 0.4,-0.5 0.6,-0.6 c -1.1,-1 -2.3,-1.9 -3.4,-2.9 l -0.4,0.6 -0.6,0.7 m 9.6,9.2 2.7,3.3 0.4,-0.3 0.8,-0.5 c -1,-1.2 -2,-2.3 -3,-3.4 l -0.6,0.6 -0.5,0.5 M 602.2,53 c 1.1,-1 2.23,-2 3.4,-2.9 -0.37,-0.35 -0.73,-0.7 -1.1,-1.1 -1.1,0.9 -2.16,1.8 -3.2,2.72 0.3,0.4 0.6,0.84 0.9,1.27 m 57.5,146.3 c 0.02,0.4 0.1,0.9 0.1,1.4 1.4,-0.1 2.83,-0.1 4.3,-0.2 -0.1,-0.5 -0.16,-1 -0.17,-1.5 -1.44,0.1 -2.86,0.2 -4.3,0.2 m 26.3,-3.7 0.1,0.4 c 1.4,-0.5 2.77,-1 4.1,-1.5 l -0.14,-0.3 c -0.2,-0.3 -0.3,-0.7 -0.5,-1 -1.3,0.5 -2.6,1 -4,1.5 l 0.3,0.9 m -61.1,-1.6 c 0.2,-0.5 0.4,-0.9 0.6,-1.3 l -4,-1.8 c -0.2,0.4 -0.3,0.9 -0.5,1.3 1.2,0.6 2.5,1.2 3.8,1.7 m 8.5,3.1 c 1.3,0.4 2.7,0.7 4.1,1.1 0.1,-0.5 0.2,-1 0.4,-1.4 -1.4,-0.4 -2.8,-0.7 -4.2,-1.2 -0.1,0.5 -0.2,1 -0.3,1.4 m 64.8,-7.2 0.2,0.5 c 1.3,-0.7 2.6,-1.4 3.9,-2.2 l -0.3,-0.4 c -0.2,-0.3 -0.4,-0.5 -0.5,-0.8 -1.3,0.8 -2.5,1.5 -3.7,2.1 l 0.4,0.8 m -44.1,-158 c -0.1,-0.5 -0.1,-1 -0.1,-1.6 l -4.3,0.3 c 0,0.5 0.1,1 0.1,1.5 1.4,-0.2 2.8,-0.3 4.3,-0.4 m -40.5,156.1 0.8,-1.2 c -1.2,-0.7 -2.4,-1.5 -3.6,-2.4 -0.2,0.5 -0.5,0.9 -0.7,1.3 1.1,0.8 2.3,1.6 3.5,2.3 m 33.5,10.6 c 0,0.5 -0.1,1 -0.1,1.5 1.4,0.2 2.8,0.4 4.2,0.5 0,-0.5 0,-1 0.1,-1.4 -1.5,-0.1 -2.9,-0.3 -4.3,-0.4 M 640.6,32 c -1.4,0.3 -2.8,0.64 -4.2,1 l 0.3,1.5 c 1.4,-0.36 2.8,-0.7 4.2,-1 -0.2,-0.47 -0.3,-0.97 -0.4,-1.5 m 32.9,167.25 v 0.2 c 1.4,-0.27 2.8,-0.56 4.2,-0.9 v -0.15 l -0.3,-1.28 c -1.4,0.3 -2.8,0.6 -4.2,0.85 l 0.3,1.2 m 65.7,-60.4 c 0.4,0.16 0.8,0.3 1.2,0.5 l 1.2,-4.5 -1.14,-0.16 h -0.33 c -0.3,1.4 -0.7,2.8 -1.05,4.2 h 0.2 m -29.43,43.8 0.44,0.7 c 1.2,-0.9 2.3,-1.8 3.5,-2.8 -0.2,-0.2 -0.4,-0.3 -0.5,-0.5 l -0.6,-0.6 -3.3,2.7 c 0.1,0.2 0.3,0.3 0.4,0.5 m -134.2,-46.8 c 0.5,-0.1 1,-0.1 1.5,-0.1 -0.4,-1.5 -0.7,-3 -1,-4.5 -0.4,0.2 -0.9,0.4 -1.4,0.6 l 0.9,4.2 m 4.1,12.6 c 0.5,-0.2 0.9,-0.3 1.4,-0.4 -0.6,-1.4 -1.2,-2.8 -1.7,-4.3 -0.4,0.3 -0.9,0.5 -1.3,0.8 0.5,1.4 1,2.7 1.5,4 m 6,11.8 c 0.5,-0.3 0.9,-0.5 1.4,-0.7 -0.8,-1.3 -1.6,-2.6 -2.3,-3.9 l -1.2,0.9 c 0.6,1.2 1.4,2.5 2.1,3.7 m 148.8,-8.6 1,0.6 c 0.6,-1.3 1.2,-2.8 1.8,-4.2 l -1.1,-0.3 c -0.1,0 -0.2,-0.1 -0.4,-0.1 -0.6,1.3 -1.1,2.6 -1.8,3.9 l 0.3,0.1 M 728,163 c 0.3,0.2 0.6,0.43 0.9,0.7 0.85,-1.3 1.7,-2.57 2.47,-3.87 l -0.9,-0.4 c -0.13,-0.1 -0.27,-0.13 -0.4,-0.2 -0.76,1.2 -1.54,2.4 -2.34,3.6 l 0.3,0.22 m -8.34,10.5 c 0.2,0.2 0.4,0.43 0.6,0.7 1,-1.1 2,-2.25 3,-3.4 l -0.7,-0.46 -0.5,-0.4 c -0.9,1.1 -1.9,2.1 -2.9,3.2 l 0.4,0.3 m -116.8,6.6 c 0.3,-0.4 0.7,-0.7 1,-1.1 -1.2,-1 -2.3,-2 -3.3,-3 l -0.9,1.2 c 1,1 2,1.9 3.1,2.8 m -12.1,-12.7 2.7,3.3 1.2,-0.9 c -1,-1.1 -1.9,-2.3 -2.8,-3.5 -0.3,0.4 -0.7,0.8 -1.1,1.1"
       id="path8" />
    <path
       style="fill:#72afcc;fill-rule:nonzero"
       d="m 184.15,217.57 c 3.85,4.18 3.58,10.7 -0.6,14.54 -4.18,3.9 -10.68,3.6 -14.53,-0.5 -3.85,-4.2 -3.6,-10.7 0.6,-14.5 4.17,-3.8 10.68,-3.6 14.53,0.6 m -40.84,-27 c -0.8,0.9 -0.8,2.4 0.2,3.2 l 0.8,0.7 c 1.4,1.1 1.8,2.9 1,4.4 -1,1.9 -3.5,2.3 -5.1,1 l -0.7,-0.6 c -1,-0.8 -2.5,-0.6 -3.2,0.6 l -0.9,1.7 c -0.6,1.1 -0.1,2.5 1.1,3 l 1,0.5 c 1.6,0.7 2.5,2.3 2.1,4 -0.4,2.1 -2.7,3.2 -4.6,2.4 l -0.8,-0.3 c -1.2,-0.5 -2.6,0.2 -2.9,1.4 -0.1,0.6 -0.3,1.3 -0.4,1.9 -0.2,1.3 0.6,2.5 1.9,2.6 l 1.2,0.2 c 1.9,0.2 3.2,2 3,3.8 1.3,1.4 0.2,3.5 -1.6,3.3 l -3,-0.3 c -1.3,-0.1 -2.4,0.9 -2.3,2.2 0,0.7 0.1,1.3 0.1,1.9 0.1,1.3 1.3,2.2 2.5,2 l 1.2,-0.2 c 1.9,-0.3 3.6,1 4,2.8 0.3,1.9 -0.9,3.6 -2.7,3.9 l -0.9,0.2 c -1.3,0.3 -2.1,1.6 -1.7,2.8 l 0.6,1.8 c 0.5,1.2 1.9,1.8 3,1.2 l 1,-0.5 c 1.7,-0.8 3.8,-0.1 4.6,1.6 0.8,1.7 0.2,3.8 -1.5,4.6 l -0.8,0.4 c -1.1,0.6 -1.5,2.1 -0.8,3.2 l 1.2,1.5 c 0.8,1 2.2,1.2 3.2,0.3 l 0.9,-0.7 c 1.4,-1.3 3.6,-1.2 4.8,0.2 1.3,1.4 1.2,3.6 -0.2,4.8 l -0.7,0.7 c -0.9,0.8 -0.9,2.4 0.1,3.2 l 1.5,1.2 c 1.1,0.7 2.5,0.5 3.2,-0.6 l 0.5,-0.9 c 0.8,-1.5 2.6,-2.2 4.2,-1.5 2,0.8 2.7,3.1 1.7,4.9 l -0.5,0.8 c -0.7,1.1 -0.2,2.5 1,3.1 0.6,0.3 1.2,0.5 1.8,0.7 1.2,0.5 2.5,-0.2 2.8,-1.4 l 0.3,-1.1 c 0.5,-1.8 2.3,-2.9 4.1,-2.4 1.8,0.4 2.9,2.3 2.5,4.1 l -0.2,0.9 c -0.3,1.3 0.6,2.5 1.9,2.7 0.6,0.1 1.3,0.2 1.9,0.2 1.3,0.1 2.3,-0.9 2.3,-2.2 v -1.1 c -0.1,-1.8 1.4,-3.4 3.3,-3.5 1.9,0 3.5,1.5 3.5,3.4 v 0.9 c 0,1.3 1.2,2.3 2.5,2.1 l 1.9,-0.3 c 1.2,-0.2 1.9,-1.5 1.5,-2.7 l -0.3,-1.1 c -0.6,-1.8 0.4,-3.8 2.2,-4.3 1.8,-0.6 3.7,0.4 4.3,2.2 l 0.3,0.9 c 0.4,1.2 1.9,1.8 3,1.2 l 1.7,-0.9 c 1.1,-0.6 1.5,-2.1 0.7,-3.1 l -0.6,-1 c -1.1,-1.6 -0.7,-3.7 0.9,-4.8 1.5,-1.1 3.7,-0.7 4.8,0.9 l 0.6,0.7 c 0.7,1.1 2.2,1.2 3.2,0.4 v -0.1 c 0.5,-0.4 0.9,-0.9 1.4,-1.3 0.9,-0.9 0.8,-2.4 -0.2,-3.2 l -0.9,-0.7 c -1.5,-1.2 -1.7,-3.4 -0.5,-4.8 1.2,-1.5 3.3,-1.7 4.8,-0.5 l 0.7,0.6 c 1,0.8 2.5,0.6 3.2,-0.5 l 1,-1.7 c 0.6,-1.1 0.1,-2.5 -1.1,-3 l -1.1,-0.5 c -1.7,-0.8 -2.5,-2.8 -1.8,-4.5 0.8,-1.7 2.8,-2.5 4.5,-1.8 l 0.9,0.4 c 1.2,0.5 2.6,-0.2 2.9,-1.4 l 0.4,-1.9 c 0.3,-1.3 -0.6,-2.5 -1.8,-2.6 l -1.1,-0.1 c -1.9,-0.2 -3.23,-1.9 -3.03,-3.8 -1.2,-1.3 -0.1,-3.5 1.68,-3.3 l 3.1,0.3 c 1.3,0.1 2.4,-0.9 2.4,-2.2 0,-0.7 0,-1.3 -0.1,-1.9 -0.1,-1.3 -1.23,-2.2 -2.5,-2 l -1,0.2 c -1.6,0.3 -3.3,-0.6 -3.9,-2.2 -0.7,-2.1 0.6,-4.2 2.6,-4.5 l 0.97,-0.2 c 1.3,-0.3 2.1,-1.6 1.7,-2.8 l -0.6,-1.8 c -0.4,-1.2 -1.8,-1.8 -2.92,-1.2 l -1,0.5 c -1.5,0.7 -3.3,0.3 -4.3,-1 -1.3,-1.7 -0.7,-4.2 1.2,-5.1 l 0.9,-0.4 c 1.2,-0.6 1.6,-2.1 0.8,-3.2 -0.3,-0.5 -0.7,-1 -1.1,-1.5 -0.8,-1 -2.2,-1.2 -3.2,-0.3 l -0.8,0.8 c -1.4,1.2 -3.6,1.1 -4.9,-0.22 -1.2,-1.4 -1.14,-3.5 0.2,-4.8 l 0.7,-0.6 c 1,-0.85 0.9,-2.4 -0.1,-3.2 -0.5,-0.44 -1,-0.84 -1.5,-1.2 -1,-0.8 -2.45,-0.5 -3.1,0.6 l -0.55,0.9 c -0.9,1.4 -2.63,2.1 -4.2,1.5 -2,-0.8 -2.8,-3.2 -1.7,-5 l 0.47,-0.8 c 0.63,-1.1 0.2,-2.6 -1,-3.1 -0.6,-0.2 -1.2,-0.5 -1.8,-0.7 -1.2,-0.42 -2.5,0.2 -2.8,1.5 l -0.3,1 c -0.5,1.6 -2,2.74 -3.6,2.6 -2.2,-0.2 -3.6,-2.3 -3.1,-4.3 l 0.2,-0.9 c 0.3,-1.23 -0.6,-2.5 -1.9,-2.7 l -1.9,-0.13 c -1.3,-0.1 -2.4,0.9 -2.3,2.2 v 1 c 0.1,1.7 -1,3.2 -2.7,3.53 -2.1,0.4 -4,-1.2 -4.1,-3.27 v -1 c -0.07,-1.3 -1.2,-2.25 -2.5,-2.03 -0.6,0.1 0.4,2.7 -0.2,2.8 -1.3,0.3 -0.5,0.8 -0.1,2 l -0.9,2.1 c 0.6,1.8 -2.3,1.1 -4.1,1.7 -1.3,1.2 -2.87,4.65 -3.4,3 l -1.1,-1.3 c -0.4,-1.3 -1.35,-1.17 -2.5,-0.6 -0.6,0.3 -5.26,-4.25 -5.8,-3.9 -1.1,0.6 2.03,1.34 2.75,2.4 l 0.6,0.94 c 1.2,1.7 0.6,4.1 -1.4,5 -1.5,0.7 -3.33,0.1 -4.3,-1.3 l -0.5,-0.7 c -0.7,-1.1 -2.2,-1.3 -3.2,-0.4 -0.44,0.4 -0.9,0.87 -1.4,1.3"
       id="path10" />
    <path
       style="fill:#faae5f;fill-rule:nonzero"
       d="m 145.2,260.67 c -0.1,0.12 -0.24,0.23 -0.36,0.35 -2.97,2.85 -2.83,7.65 0.3,10.32 l 2.63,2.2 0.52,0.5 c -1,-2.68 -1.8,-5.42 -2.4,-8.23 -0.3,-1.3 -0.6,-3.1 -0.8,-5.1 z m 6.67,21.83 c -0.02,1.83 -0.5,3.66 -1.47,5.3 -3.6,6.06 -11.6,7.2 -16.74,2.85 l -2.3,-1.97 c -3.23,-2.73 -8.14,-2 -10.4,1.6 -1.1,1.74 -2.16,3.5 -3.2,5.3 -2.05,3.58 -0.56,8.15 3.2,9.83 l 3.45,1.6 c 5.6,2.5 8.1,9.1 5.7,14.7 0.1,5.7 -5.8,9.6 -11,7.3 l -6.4,-2.8 c -3.8,-1.7 -8.3,0.4 -9.5,4.5 -0.5,2 -1.1,4 -1.5,6 -0.9,4 1.8,8 5.9,8.5 l 3.8,0.5 c 6.7,0.9 11.2,7.6 9.1,14.3 -1.6,5.2 -6.9,8.3 -12.3,7.6 l -2.7,-0.3 c -4.2,-0.6 -7.9,2.7 -7.9,6.9 v 0.1 c 0,2.1 0.1,4.2 0.2,6.3 0.2,4.1 4,7.1 8,6.5 l 3.4,-0.5 c 5.4,-0.8 10.8,2.2 12.5,7.4 2.2,6.7 -2.1,13.5 -8.8,14.5 l -3,0.5 c -4.1,0.6 -6.8,4.8 -5.6,8.9 0.6,2 1.3,4 2,6 1.4,3.9 5.8,5.8 9.5,4 l 3.2,-1.5 c 5,-2.3 11,-0.9 14.1,3.5 4,5.8 1.7,13.6 -4.4,16.4 l -2.8,1.3 c -3.8,1.8 -5.1,6.6 -2.8,10.1 1.1,1.8 2.3,3.5 3.5,5.2 2.4,3.3 7.2,3.9 10.3,1.2 l 2.8,-2.5 c 4.6,-4 11.6,-3.6 15.7,1 5.9,0 8.7,7.2 4.3,11.1 l -7.5,6.6 c -3.2,2.8 -3.1,7.8 0.1,10.5 1.6,1.4 3.2,2.7 4.8,4 3.3,2.5 8,1.7 10.2,-1.8 l 2,-3.1 c 3.3,-5.1 10.2,-6.7 15.3,-3.5 5.2,3.3 6.7,10.1 3.5,15.3 l -1.6,2.6 c -2.2,3.6 -0.8,8.3 3.1,10 l 2.5,1.1 v -4.6 c -0.3,-32.4 -0.1,-140.2 0.3,-144.9 0.2,-1.4 0.6,-8.8 1,-16.5 0.4,-7.6 0.8,-14.9 0.9,-16.1 l 0.3,-2.3 3.8,3.8 1.3,1.4 v -0.2 c -0.5,-0.5 -0.9,-0.8 -1.4,-1.4 l -3.7,-3.8 3.8,3.7 c 0.1,0.1 0.1,0.1 0.2,0.1 -2.6,-2.7 -5.3,-5.7 -5.5,-6.4 -0.5,-1.6 0.2,-4.4 1.3,-5.2 0.2,-0.1 2.7,-3.4 5.7,-7.3 v -0.4 c -2.9,4 -5.4,7.3 -5.5,7.4 -0.2,0.1 -2.4,-1.1 -4.9,-2.5 -17.1,-9.5 -29.6,-22 -36.9,-36.8 z m 47.44,113.77 z m -0.2,61.96 v 11.86 c 0.1,-1.2 0.1,-1.9 0.1,-1.3 0,-3.6 -0.1,-7.1 -0.1,-10.6 z m 0.2,16.9 v 2.36 c 0.1,9.3 0.1,17.6 0.2,23.1 l 0.3,15.3 c 0.1,0 0.1,0 0.1,-0.1 v -4.9 c 0,0.4 -0.1,-1 -0.1,-3.7 0,-1.3 0.1,-1.9 0.1,-2.5 l -0.3,-28.1 V 475 Z M 121.5,194.2 c -10.5,0 -19,-8.52 -19,-19.03 0,-10.5 8.5,-19.02 19,-19.02 10.52,0 19.03,8.52 19.03,19.02 0,10.5 -8.5,19.02 -19.02,19.02 m 28.3,-13.7 c -2.9,-1.5 -2.7,-3.3 0.5,-4 3.2,-0.8 3.2,-2 0,-2.7 -3.2,-0.8 -3.4,-2.6 -0.4,-4 3,-1.4 2.7,-2.7 -0.6,-2.6 -3.3,0 -3.9,-1.7 -1.3,-3.8 2.6,-2.1 2,-3.2 -1.2,-2.4 -3.2,0.8 -4.2,-0.7 -2.2,-3.4 2,-2.7 1.3,-3.6 -1.7,-2.1 -2.9,1.5 -4.2,0.2 -2.9,-2.8 1.4,-3 0.4,-3.8 -2.1,-1.6 -2.5,2.1 -4.1,1.2 -3.5,-2 0.6,-3.3 -0.5,-3.8 -2.5,-1.1 -1.9,2.6 -3.7,2.1 -3.8,-1.2 -0.1,-3.3 -1.3,-3.5 -2.6,-0.5 -1.3,3 -3.1,2.9 -4,-0.3 -0.9,-3.2 -2.1,-3.1 -2.7,0.1 -0.5,3.2 -2.3,3.6 -3.9,0.7 -1.6,-2.9 -2.8,-2.5 -2.5,0.8 0.2,3.3 -1.4,4 -3.7,1.6 -2.2,-2.5 -3.3,-1.9 -2.3,1.3 1,3.1 -0.5,4.2 -3.2,2.4 -2.7,-1.9 -3.6,-1 -2,1.8 1.7,2.8 0.5,4.2 -2.6,3.1 -3.1,-1.2 -3.8,-0.2 -1.5,2.2 2.3,2.4 1.5,4 -1.8,3.6 -3.3,-0.4 -3.7,0.7 -0.9,2.5 2.8,1.8 2.4,3.5 -0.9,3.9 -3.2,0.3 -3.4,1.5 -0.3,2.6 3.2,1.1 3.2,2.9 0,4 -3.1,1.1 -2.9,2.3 0.3,2.7 3.3,0.3 3.8,2.1 1,3.9 -2.8,1.8 -2.4,2.9 0.9,2.5 3.3,-0.4 4.1,1.2 1.8,3.6 -2.3,2.3 -1.6,3.4 1.5,2.2 3.1,-1.2 4.3,0.2 2.6,3 -1.7,2.9 -0.8,3.7 1.9,1.9 2.8,-1.9 4.2,-0.8 3.2,2.4 -1,3.2 0.1,3.7 2.3,1.3 2.3,-2.4 4,-1.7 3.7,1.6 -0.2,3.3 1,3.6 2.6,0.8 1.7,-2.9 3.5,-2.6 4,0.7 0.6,3.2 1.8,3.3 2.7,0.1 0.9,-3.2 2.7,-3.3 4,-0.2 1.3,3.1 2.5,2.8 2.7,-0.5 0.2,-3.3 1.9,-3.8 3.9,-1.2 2,2.6 3.1,2.2 2.5,-1.1 -0.6,-3.3 1,-4.2 3.5,-2.1 2.5,2.2 3.5,1.5 2.2,-1.6 -1.3,-3 0,-4.2 2.9,-2.7 3,1.5 3.7,0.6 1.7,-2.1 -2,-2.6 -1,-4.2 2.2,-3.4 3.2,0.8 3.8,-0.3 1.2,-2.4 -2.5,-2.1 -1.9,-3.8 1.4,-3.7 3.3,0 3.6,-1.2 0.6,-2.6"
       id="path12" />
    <path
       style="fill:#faae5f;fill-rule:nonzero"
       d="m 121.5,186.12 c -6.03,0 -10.94,-4.9 -10.94,-10.95 0,-6.05 4.9,-10.95 10.95,-10.95 6.1,0 11,4.9 11,10.95 0,6.05 -4.9,10.95 -10.9,10.95"
       id="path14" />
    <path
       style="fill:#faae5f;fill-rule:nonzero"
       d="m 99.67,171.97 h 43.68 v 6.4 H 99.67 Z"
       id="path16" />
    <path
       style="fill:#faae5f;fill-rule:nonzero"
       d="m 118.3,153.33 h 6.4 V 197 h -6.4 z"
       id="path18" />
    <path
       style="fill:#7aa8bc;fill-rule:nonzero"
       d="m 667.5,289.62 c 0,4.97 -4.04,9 -9,9 -4.98,0 -9,-4.03 -9,-9 v -174.5 c 0,-4.98 4.02,-9 9,-9 4.96,0 9,4.02 9,9 z"
       id="path20" />
    <path
       style="fill:#505b5f;fill-rule:nonzero"
       d="m 160,185.85 c -4.07,0 -7.37,-3.3 -7.37,-7.38 0,-4.07 3.3,-7.37 7.37,-7.37 4.07,0 7.38,3.3 7.38,7.37 0,4.07 -3.3,7.38 -7.38,7.38 m 29.43,-7.38 c 0,-3.46 2.8,-6.26 6.27,-6.26 0.34,0 0.68,0.1 1,0.1 -0.93,-5.6 -3.13,-10.8 -6.3,-15.3 -0.2,0.3 -0.43,0.6 -0.7,0.9 -2.44,2.5 -6.4,2.5 -8.85,0 -2.45,-2.4 -2.45,-6.4 0,-8.8 0.27,-0.2 0.57,-0.5 0.88,-0.7 -4.5,-3.2 -9.73,-5.5 -15.4,-6.4 0.07,0.4 0.12,0.9 0.12,1.3 0,3.5 -2.78,6.3 -6.22,6.3 l -0.05,0.1 c -3.46,0 -6.26,-2.8 -6.26,-6.3 0,-0.4 0.05,-0.9 0.14,-1.3 -5.76,0.9 -11.08,3.2 -15.63,6.4 0.4,0.3 0.77,0.6 1.12,0.9 2.44,2.5 2.44,6.4 0,8.9 -2.45,2.5 -6.42,2.5 -8.86,0 -0.4,-0.3 -0.7,-0.7 -0.9,-1.1 -3.3,4.6 -5.6,10 -6.5,15.8 0.4,-0.1 0.9,-0.2 1.4,-0.2 3.4,0 6.2,2.8 6.2,6.2 v 0.1 c 0,3.5 -2.8,6.3 -6.3,6.3 -0.5,0 -1,0 -1.5,-0.1 1,5.7 3.3,11.1 6.6,15.6 0.2,-0.4 0.5,-0.8 0.8,-1.1 2.4,-2.5 6.4,-2.5 8.9,0 2.4,2.4 2.4,6.4 0,8.8 -0.3,0.3 -0.7,0.6 -1,0.8 4.5,3.2 9.8,5.4 15.5,6.3 -0.1,-0.4 -0.2,-0.8 -0.2,-1.2 0,-3.4 2.8,-6.2 6.2,-6.2 h 0.1 c 3.4,0 6.2,2.8 6.2,6.3 0,0.3 -0.1,0.7 -0.1,1.1 5.6,-1 10.8,-3.3 15.3,-6.5 -0.3,-0.2 -0.6,-0.4 -0.9,-0.7 -2.4,-2.4 -2.4,-6.4 0,-8.9 2.5,-2.5 6.4,-2.5 8.9,0 0.2,0.2 0.4,0.5 0.6,0.7 3.2,-4.4 5.3,-9.6 6.3,-15.2 -0.3,0.1 -0.7,0.1 -1,0.1 -3.5,0 -6.3,-2.8 -6.3,-6.3"
       id="path22" />
    <path
       style="fill:none;stroke:#4f5c5d;stroke-width:23"
       d="m 570.66,288.65 c 0,-47.54 40.3,-86.28 87.83,-86.28"
       id="path24" />
    <path
       style="fill:#4f5c5d;fill-rule:nonzero"
       d="m 582.16,294.65 c 0,3.3 -2.7,6 -6,6 H 208.83 c -3.32,0 -6,-2.7 -6,-6 v -10 c 0,-3.32 2.68,-6 6,-6 h 367.33 c 3.3,0 6,2.68 6,6 z"
       id="path26" />
    <path
       style="fill:#d16a4b;fill-rule:nonzero"
       d="m 150.2,210.35 c 0,0.55 -0.45,1 -1,1 H 138 c -0.56,0 -1,-0.45 -1,-1 v -2.46 c 0,-0.6 0.44,-1 1,-1 h 11.2 c 0.55,0 1,0.4 1,1 v 2.4 z m -13.6,-23.1 c -0.47,-0.27 -1.08,-0.1 -1.36,0.38 l -5.52,9.76 c -0.27,0.4 -0.1,1 0.38,1.3 l 2.14,1.2 c 0.48,0.3 1.1,0.1 1.36,-0.4 l 5.52,-9.8 c 0.28,-0.5 0.1,-1.1 -0.37,-1.4 l -2.14,-1.2 z m 10.44,9.92 c 0.3,0.46 0.16,1.08 -0.3,1.38 l -9.46,6 c -0.47,0.3 -1.08,0.17 -1.38,-0.3 l -1.32,-2.07 c -0.3,-0.47 -0.16,-1.08 0.3,-1.38 l 9.46,-6 c 0.47,-0.3 1.1,-0.17 1.4,0.3 z m -46.78,13.18 c 0,0.55 0.45,1 1,1 h 11.2 c 0.56,0 1,-0.45 1,-1 v -2.46 c 0,-0.6 -0.44,-1 -1,-1 h -11.2 c -0.55,0 -1,0.4 -1,1 v 2.4 z m 13.6,-23.1 c 0.5,-0.27 1.1,-0.1 1.36,0.38 l 5.52,9.76 c 0.27,0.4 0.1,1 -0.38,1.3 l -2.14,1.2 c -0.48,0.3 -1.1,0.1 -1.36,-0.4 l -5.52,-9.8 c -0.28,-0.5 -0.1,-1.1 0.37,-1.4 l 2.2,-1.2 z m -10.44,9.92 c -0.3,0.46 -0.16,1.08 0.3,1.38 l 9.46,6 c 0.47,0.3 1.1,0.17 1.38,-0.3 l 1.32,-2.07 c 0.3,-0.47 0.16,-1.08 -0.3,-1.38 l -9.46,-6 c -0.47,-0.3 -1.1,-0.17 -1.38,0.3 z m 22.98,-12.84 c 0.54,0 1,0.45 1,1 v 11.2 c 0,0.56 -0.46,1 -1,1 h -2.47 c -0.55,0 -1,-0.44 -1,-1 v -11.2 c 0,-0.55 0.45,-1 1,-1 h 2.46 z"
       id="path28" />
    <path
       style="fill:#d16a4b;fill-rule:nonzero"
       d="m 154.73,313 c -8.65,0 -15.65,-7 -15.65,-15.65 0,-8.64 7,-15.65 15.65,-15.65 8.64,0 15.64,7 15.64,15.65 0,8.64 -7,15.64 -15.64,15.64 M 135,262.4 v -12.14 c 0,-6.73 5.47,-12.18 12.2,-12.18 6.73,0 12.2,5.45 12.2,12.18 v 12.13 c 0,6.7 -5.47,12.1 -12.2,12.1 -6.73,0 -12.2,-5.5 -12.2,-12.2 m -20.53,0 c 0,6.7 -5.46,12.2 -12.2,12.2 -6.72,0 -12.17,-5.5 -12.17,-12.2 v -12.1 c 0,-6.8 5.45,-12.2 12.18,-12.2 6.73,0 12.2,5.4 12.2,12.2 v 12.1 z M 95.2,312.2 c -8.44,0 -15.27,-6.83 -15.27,-15.27 0,-8.43 6.83,-15.27 15.27,-15.27 8.43,0 15.27,6.85 15.27,15.3 0,8.42 -6.84,15.25 -15.27,15.25 m 99.95,-24.9 c 0,0 -6.67,-0.8 -8.78,-1.5 -11.88,-4 -17.4,-20.6 -17.4,-34.8 0,-1.8 0.13,-3.6 0.35,-5.3 0.03,-0.4 0.05,-0.8 0.05,-1.3 0,-6.2 -4.37,-11.4 -10.22,-12.7 -8.8,-2 -15.28,-9.8 -15.28,-19.2 l 0.04,-1.2 c 0.1,-0.6 0.1,-1.1 0.1,-1.7 0,-10.4 -8.4,-18.8 -18.8,-18.8 -10.4,0 -18.8,8.5 -18.8,18.9 0,0.6 0.1,1.2 0.1,1.8 l 0.1,1.3 c 0,9.4 -6.5,17.3 -15.2,19.3 -5.8,1.3 -10.2,6.5 -10.2,12.8 0,0.5 0.1,0.9 0.1,1.3 0.2,1.7 0.4,3.5 0.4,5.4 0,14.3 -6.1,30.9 -17.4,34.9 -2.1,0.7 -8.8,1.5 -8.8,1.5 -2.4,0.4 -4.1,2.8 -3.6,5.2 0.4,2.5 2.8,4.1 5.2,3.7 l 8.8,-1.5 v 0.1 h 0.1 c 2.4,0 4.4,1.9 4.4,4.3 0,1.5 -0.7,2.8 -1.8,3.6 h 0.1 l -8,3.9 c -2.2,1 -3.1,3.7 -2,6 1.1,2.2 3.8,3.1 6,2.1 l 8,-4 h 0.1 c 0.4,-0.1 0.7,-0.1 1.2,-0.1 2.4,0 4.3,1.9 4.3,4.3 0,0.9 -0.3,1.8 -0.9,2.6 h 0.1 l -6.6,6 c -1.8,1.7 -2,4.5 -0.3,6.4 1.7,1.9 4.5,2 6.4,0.3 l 6.6,-6 0.1,0.1 c 0.7,-0.4 1.5,-0.7 2.3,-0.7 2.4,0 4.3,1.9 4.3,4.3 0,0.6 -0.1,1.1 -0.3,1.6 l -5.3,8.6 c -1.3,2.1 -0.6,4.9 1.5,6.2 2.1,1.3 4.9,0.7 6.2,-1.4 l 5.3,-8.5 0.1,0.1 c 0.8,-1 2,-1.6 3.3,-1.6 2.4,0 4.3,1.9 4.3,4.3 v 0.6 h 0.1 l -2.7,9.7 c -0.6,2.4 0.8,4.8 3.2,5.5 2.4,0.6 4.9,-0.8 5.5,-3.2 l 2.7,-9.7 h 0.1 c 0.1,-0.4 0.3,-0.8 0.5,-1.1 2.1,1 4.8,1.7 7.9,2 v 0.1 c 1.2,0.1 2.4,0.1 3.5,0.1 h 0.1 c 1.2,0 2.3,0 3.5,-0.1 v -0.2 c 3.1,-0.3 5.8,-0.9 8,-2 0.2,0.3 0.4,0.7 0.5,1.1 l 2.7,9.7 c 0.7,2.4 3.1,3.8 5.5,3.1 2.4,-0.6 3.8,-3.1 3.2,-5.5 l -2.7,-9.7 h 0.1 v -0.5 c 0,-2.4 1.9,-4.3 4.3,-4.3 1.3,0 2.5,0.67 3.3,1.6 h 0.1 l 5.3,8.58 c 1.3,2.1 4.1,2.7 6.2,1.4 2.1,-1.3 2.8,-4.1 1.5,-6.2 l -5.3,-8.6 c 0.1,0 0.1,0 0.1,-0.03 -0.2,-0.5 -0.3,-1.1 -0.3,-1.6 0,-2.4 2,-4.3 4.3,-4.3 0.9,0 1.6,0.2 2.3,0.6 h 0.1 l 6.7,6 c 1.8,1.7 4.6,1.5 6.3,-0.3 1.6,-1.9 1.5,-4.7 -0.3,-6.4 l -6.7,-6 h 0.06 c -0.6,-0.7 -0.9,-1.6 -0.9,-2.6 0,-2.4 1.9,-4.3 4.3,-4.3 0.4,0 0.8,0.1 1.2,0.2 l 0.04,-0.1 8,3.9 c 2.2,1.1 4.9,0.16 6,-2.1 1.1,-2.2 0.2,-4.9 -2.1,-6 l -8,-3.9 c -1.1,-0.8 -1.9,-2 -1.9,-3.5 0,-2.4 2,-4.35 4.4,-4.35 h 0.1 l 8.8,1.56 c 2.4,0.4 4.76,-1.2 5.2,-3.7 0.4,-2.4 -1.2,-4.7 -3.7,-5.2"
       id="path30" />
    <path
       style="fill:#7aa8bc;fill-rule:nonzero"
       d="m 663.43,202.9 c 0,2.77 -2.25,5.02 -5.02,5.02 -2.7,0 -5,-2.25 -5,-5.03 0,-2.8 2.3,-5.1 5.1,-5.1 2.8,0 5.1,2.2 5.1,5 M 118.2,207 c 0,-4.1 3.3,-7.4 7.37,-7.4 4.07,0 7.38,3.3 7.38,7.4 v 169.4 c 0,4.1 -3.3,7.4 -7.34,7.4 -4.04,0 -7.3,-3.3 -7.3,-7.34 V 207 Z"
       id="path32" />
    <path
       style="fill:none;stroke:#4f5c5d;stroke-width:23"
       d="m 214.6,290.16 c 0,47.55 -38.54,86.1 -86.1,86.1"
       id="path34" />
    <path
       style="fill:#d16a4b;fill-rule:nonzero"
       d="m 129.52,207.4 c 0,2.2 -1.8,4.02 -4.02,4.02 -2.23,0 -4.03,-1.8 -4.03,-4.03 0,-2.3 1.8,-4.1 4.03,-4.1 2.22,0 4.02,1.8 4.02,4"
       id="path36" />
    <path
       style="fill:#7aa8bc;fill-rule:nonzero"
       d="m 129.24,376.45 c 0,2.07 -1.67,3.75 -3.74,3.75 -2.07,0 -3.74,-1.68 -3.74,-3.75 0,-2.06 1.67,-3.74 3.74,-3.74 2.07,0 3.74,1.7 3.74,3.8"
       id="path38" />
    <g
       transform="matrix(0.43344,0,0,0.43344,455.938,-405.9)"
       id="g68">
      <path
         style="fill:#3c2d28;fill-opacity:0.41000001;stroke:#000000;stroke-linecap:butt;stroke-linejoin:miter"
         d="m -496.3,1144.74 c 43.97,94.23 43.97,96.33 43.97,96.33 l 230.35,33.5 150.78,-77.48 H 43.98 l 67,35.6 31.42,29.3 16.75,12.5 33.5,8.4 27.25,-20.9 8.38,-41.9 -96.33,-88 -324.6,-46.1 -228.25,10.4 z"
         id="path40" />
      <circle
         style="fill:#5bc7d9"
         cx="149.46001"
         cy="1508.86"
         r="138.66"
         id="circle42" />
      <circle
         style="fill:#5bc7d9"
         cx="-401.29999"
         cy="1515.14"
         r="138.66"
         id="circle44" />
      <path
         style="fill:#e5b83f"
         d="m -596.08,1706.22 -8.5,-8.8 8.8,8.5 c 8.1,7.9 9.2,9 8.4,9 -0.1,0 -4.1,-3.9 -8.7,-8.7 z m 131.8,-75.9 c -2.7,-1.3 -4.8,-2.7 -4.8,-2.9 0,-0.5 9.9,4.2 10.9,5.1 1.3,1.1 -2,0 -6.1,-2.2 z m 664.3,2.2 c 1,-0.9 10.9,-5.6 10.9,-5.1 0,0.5 -9.5,5.5 -10.6,5.5 -0.4,0 -0.5,-0.2 -0.3,-0.4 z m -697.1,-26.3 -6.5,-6.8 6.8,6.5 c 3.7,3.5 6.7,6.6 6.7,6.7 0,0.8 -1,-0.2 -7,-6.4 z m 181,0.2 c 3.5,-3.6 6.7,-6.5 6.9,-6.5 0.3,0 -2.4,2.9 -5.9,6.5 -3.5,3.6 -6.7,6.5 -6.9,6.5 -0.3,0 2.4,-2.9 5.9,-6.5 z m 373,-0.2 -6.5,-6.8 6.8,6.5 c 6.2,6 7.2,7 6.4,7 -0.1,0 -3.2,-3 -6.7,-6.7 z m 181,0.2 c 3.5,-3.6 6.7,-6.5 6.9,-6.5 0.3,0 -2.4,2.9 -5.9,6.5 -3.5,3.6 -6.7,6.5 -6.9,6.5 -0.3,0 2.4,-2.9 5.9,-6.5 z m -758.6,-32.6 c -1.4,-2.8 -2.4,-5.3 -2.2,-5.5 0.2,-0.2 1.6,2.1 3.1,5.1 1.5,3 2.5,5.5 2.2,5.5 -0.3,0 -1.6,-2.3 -3.1,-5.1 z m -154,-57.9 c 0,-8 0.2,-11.2 0.3,-7.2 0.2,3.9 0.2,10.5 0,14.5 -0.1,3.9 -0.3,0.7 -0.3,-7.3 z m 1091,0 c 0,-8 0.2,-11.2 0.3,-7.2 0.2,3.9 0.2,10.5 0,14.5 -0.1,3.9 -0.3,0.7 -0.3,-7.3 z m -980.5,-5 c -1,-9.1 2.4,-29.5 7.3,-44.5 17.9,-55 65.5,-96.4 123.3,-107.1 14.9,-2.8 42.1,-2.6 57.2,0.4 63.8,12.8 113.3,61.8 125.7,124.5 2.4,11.7 3.1,19.1 2.6,26.7 -0.1,3.3 -0.2,3.3 -1,1 -0.4,-1.4 -1.5,-6.5 -2.5,-11.5 -9.8,-53.3 -51.6,-100.8 -104.3,-118.4 -18.5,-6.2 -27.5,-7.5 -50.2,-7.5 -17.5,0 -22,0.3 -30.7,2.2 -15.3,3.3 -27.3,7.6 -41.3,14.8 -15.4,7.9 -27.6,16.8 -40,29.4 -21.9,22.1 -37.5,51.5 -42.6,80.2 -2.1,12 -3,14.6 -3.5,9.8 z m 554.1,0 c -0.5,-7.6 0.2,-15 2.6,-26.7 12.4,-62.7 61.9,-111.7 125.7,-124.5 15.1,-3 42.3,-3.2 57.2,-0.4 70.1,13 123.8,70.8 130.3,140.1 0.8,8.7 0.1,17.2 -1.1,12.5 -0.3,-1.4 -1.3,-6.5 -2.2,-11.4 -2.4,-13 -6.7,-25.5 -13.5,-39.1 -21.8,-43.6 -61.4,-74.1 -110.3,-84.7 -8.7,-1.9 -13.2,-2.2 -30.7,-2.2 -22.7,0 -31.7,1.3 -50.2,7.5 -52.7,17.6 -94.5,65.1 -104.3,118.4 -1,5 -2.1,10.1 -2.5,11.5 -0.8,2.3 -0.9,2.3 -1,-1 z"
         id="path46" />
      <path
         style="fill:#e5b83f"
         d="m -504.08,1432.62 c 0,-0.1 3.5,-3.6 7.8,-7.7 l 7.7,-7.5 -7.5,7.8 c -6.9,7.1 -8,8.2 -8,7.4 z m 187.5,-7.9 -8,-8.3 8.3,8 c 4.5,4.4 8.2,8.1 8.2,8.2 0,0.8 -1.1,-0.3 -8.5,-7.9 z m 374,0.2 c 4.4,-4.4 8.2,-8 8.5,-8 0.2,0 -3.1,3.6 -7.5,8 -4.4,4.4 -8.2,8 -8.5,8 -0.2,0 3.1,-3.6 7.5,-8 z m 180.5,0.5 c -4.1,-4.1 -7.2,-7.5 -6.9,-7.5 0.2,0 3.8,3.4 7.9,7.5 4.1,4.1 7.2,7.5 6.9,7.5 -0.2,0 -3.8,-3.4 -7.9,-7.5 z m -373,-87.8 c -7.3,-2.3 -18.6,-17.2 -20.5,-27.2 l -0.6,-3 1.5,3.1 c 4.5,9.8 14.8,16.4 25.6,16.4 10.8,0 21.1,-6.6 25.6,-16.4 l 1.5,-3.1 -0.6,3 c -2,10.5 -13.2,25 -21.1,27.3 -4.8,1.4 -6.6,1.4 -11.4,-0.1 z m -86.7,-38.2 c 0,-2.7 0.2,-3.8 0.4,-2.2 0.2,1.5 0.2,3.7 0,5 -0.2,1.2 -0.4,0 -0.4,-2.8 z m 185,0 c 0,-2.7 0.2,-3.8 0.4,-2.2 0.2,1.5 0.2,3.7 0,5 -0.2,1.2 -0.4,0 -0.4,-2.8 z m -146.7,-6.2 c 3.3,-23.2 19.8,-41.6 41.6,-46.8 31.8,-7.5 62.4,13.8 67.2,46.8 0.4,2.7 0.3,4.7 -0.2,4.7 -0.5,0 -1.2,-1.9 -1.5,-4.2 -0.3,-2.3 -2.4,-7.9 -4.6,-12.4 -10.5,-21 -33.1,-33 -55.8,-29.6 -11,1.7 -22.4,7.4 -30.2,15.3 -6.7,6.7 -13.8,19.5 -14.8,26.7 -0.3,2.3 -1,4.2 -1.5,4.2 -0.5,0 -0.6,-2 -0.2,-4.7 z"
         id="path48" />
      <path
         style="fill:#897757"
         d="m 321.22,2135.42 c 0,-2.7 0.2,-3.8 0.4,-2.2 0.2,1.5 0.2,3.7 0,5 -0.2,1.2 -0.4,0 -0.4,-2.8 z m -912.9,-28.5 c 0,-8 0.2,-11.2 0.3,-7.2 0.2,3.9 0.2,10.5 0,14.5 -0.1,3.9 -0.3,0.7 -0.3,-7.3 z m 914,-6 c 0,-5.8 0.1,-8.1 0.3,-5.2 0.2,2.8 0.2,7.6 0,10.5 -0.2,2.8 -0.3,0.5 -0.3,-5.3 z m -915,-73 c 0,-9.6 0.2,-13.6 0.3,-8.7 0.2,4.8 0.2,12.6 0,17.5 -0.1,4.8 -0.3,0.8 -0.3,-8.8 z m 915,-45.5 c 0,-7.7 0.2,-10.7 0.3,-6.7 0.2,4 0.2,10.3 0,14 -0.2,3.7 -0.3,0.4 -0.3,-7.3 z m -1,-56.5 c 0,-5.2 0.1,-7.4 0.3,-4.7 0.2,2.6 0.2,6.8 0,9.5 -0.2,2.6 -0.3,0.4 -0.3,-4.8 z m -1,-42 c 0,-5.2 0.1,-7.4 0.3,-4.7 0.2,2.6 0.2,6.8 0,9.5 -0.2,2.6 -0.3,0.4 -0.3,-4.8 z m -913,-19 c 0,-7.4 0.1,-10.5 0.3,-6.7 0.2,3.7 0.2,9.7 0,13.5 -0.2,3.7 -0.3,0.6 -0.3,-6.8 z m 912,-39 c 0,-7.4 0.1,-10.5 0.3,-6.7 0.2,3.7 0.2,9.7 0,13.5 -0.2,3.7 -0.3,0.6 -0.3,-6.8 z m -911.1,-10 c 0,-4.1 0.2,-5.8 0.4,-3.7 0.2,2 0.2,5.4 0,7.5 -0.2,2 -0.4,0.3 -0.4,-3.8 z m 1,-31 c 0,-3.6 0.2,-5 0.4,-3.2 0.2,1.7 0.2,4.7 0,6.5 -0.2,1.7 -0.4,0.3 -0.4,-3.3 z m 909,-11 c 0,-4.1 0.2,-5.8 0.4,-3.7 0.2,2 0.2,5.4 0,7.5 -0.2,2 -0.4,0.3 -0.4,-3.8 z m -456,-3.7 c 1.5,-0.2 3.9,-0.2 5.5,0 1.5,0.2 0.2,0.4 -2.8,0.4 -3,0 -4.3,-0.2 -2.7,-0.4 z m -452,-9.8 c 0,-2.7 0.2,-3.8 0.4,-2.2 0.2,1.5 0.2,3.7 0,5 -0.2,1.2 -0.4,0 -0.4,-2.8 z m 907,-16.5 c 0,-3.6 0.2,-5 0.4,-3.2 0.2,1.7 0.2,4.7 0,6.5 -0.2,1.7 -0.4,0.3 -0.4,-3.3 z m -442,-4 c 0,-4.1 0.2,-5.8 0.4,-3.7 0.2,2 0.2,5.4 0,7.5 -0.2,2 -0.4,0.3 -0.4,-3.8 z m 304.7,-17.7 c 0,-0.5 3.3,-0.7 7.2,-0.5 12.5,0.4 13.7,0.9 3.1,1 -5.7,0.1 -10.3,-0.1 -10.3,-0.5 z m -258.7,-14.8 c 0,-3.3 0.2,-4.5 0.4,-2.7 0.2,1.8 0.2,4.5 0,6 -0.2,1.5 -0.4,0 -0.4,-3.3 z m -46,-16.2 c 1.5,-0.2 3.9,-0.2 5.5,0 1.5,0.2 0.2,0.4 -2.8,0.4 -3,0 -4.3,-0.2 -2.7,-0.4 z m -77.5,-2 c -0.9,-0.2 -1.8,-1.4 -2,-2.6 -0.3,-1.9 0.9,-2.7 9.1,-6 5.2,-2 13.1,-5.5 17.6,-7.6 5.4,-2.5 8.7,-3.6 9.6,-3 0.8,0.5 9.5,0.9 19.4,0.9 10.8,0.1 20.6,0.7 24.5,1.5 l 6.5,1.3 -7.8,0.1 c -4.4,0.1 -12.4,1 -17.8,2.1 -5.5,1.1 -10.5,1.8 -11.1,1.4 -0.7,-0.5 -0.8,-0.2 -0.3,0.6 0.6,1 0.3,1.2 -1.3,0.8 -1.4,-0.4 -2,-0.2 -1.5,0.5 0.4,0.6 -0.2,0.8 -1.5,0.5 -1.4,-0.4 -2,-0.2 -1.5,0.5 0.4,0.6 -0.2,0.8 -1.5,0.5 -1.2,-0.4 -2,-0.3 -1.8,0.1 0.3,0.4 -5,2.6 -11.8,4.9 -9.8,3.3 -13.6,4.2 -18.7,4.1 -3.5,-0.1 -7.2,-0.3 -8.1,-0.6 z m 70.5,-297 c 1.5,-0.2 3.9,-0.2 5.5,0 1.5,0.2 0.2,0.4 -2.8,0.4 -3,0 -4.3,-0.2 -2.7,-0.4 z m -81.3,-63.8 c -2.4,-2.5 -4.2,-4.5 -3.9,-4.5 0.3,0 2.5,2 4.9,4.5 2.4,2.5 4.2,4.5 3.9,4.5 -0.3,0 -2.5,-2 -4.9,-4.5 z m 167,0.3 c 4.1,-4.5 5,-5.3 5,-4.5 0,0.2 -2.1,2.3 -4.7,4.7 l -4.8,4.5 z m -311,-30.4 c -6.3,-0.7 -13.1,-1.4 -15,-1.6 l -3.5,-0.3 -2.3,-14.9 c -1.2,-8.2 -2.1,-15 -1.9,-15.2 0.1,-0.2 7.9,0.2 17.2,0.8 20.9,1.4 53,-0.1 81,-3.7 10.5,-1.3 19.5,-2.5 20,-2.5 3.2,0 -48.7,26.6 -66.3,33.9 -13,5.5 -12.5,5.5 -29.2,3.5 z m -90.6,-16.8 c -21.6,-7 -37.5,-17.1 -42.6,-27 -2.5,-4.9 -2.9,-13.5 -0.9,-18.6 0.8,-1.9 2.8,-5.6 4.5,-8.2 l 3,-4.7 6.7,6.3 c 3.7,3.5 10.4,8.7 15,11.5 9.7,5.9 29.4,14.5 31.5,13.7 0.9,-0.4 1.2,-0.2 0.8,0.5 -0.3,0.6 -1.6,7.5 -2.8,15.2 -1.6,10.5 -2.6,14.2 -3.6,14.4 -0.8,0.1 -6.1,-1.3 -11.6,-3.1 z m 699.9,-1.3 c 2.6,-0.2 6.8,-0.2 9.5,0 2.6,0.2 0.4,0.3 -4.8,0.3 -5.2,0 -7.4,-0.1 -4.7,-0.3 z m -819,-30.3 c 0,-4.7 0.2,-6.6 0.4,-4.2 0.2,2.3 0.2,6.1 0,8.5 -0.2,2.3 -0.4,0.4 -0.4,-4.3 z m 692.1,-1.1 c -1.6,-2.7 -17.6,-13.4 -25.8,-17.4 -17.1,-8.3 -32.6,-12.3 -65.1,-17 -19.6,-2.8 -21.4,-3.6 -23.5,-10.1 -1.3,-4 -0.5,-5.9 4.5,-10.3 4.4,-3.8 7.8,-4 23.2,-1.1 39.5,7.6 71.6,22.8 94.6,45.1 l 9.2,8.8 -5,0.1 c -2.7,0 -6.1,0.7 -7.5,1.5 -3.1,1.7 -3.7,1.8 -4.6,0.4 z m 49.7,-1.3 c 1,-0.9 8.9,-4.6 8.9,-4.1 0,0.5 -7.5,4.5 -8.6,4.5 -0.4,0 -0.5,-0.2 -0.3,-0.4 z m 31.2,-4.1 c 0,-2.7 0.2,-3.8 0.4,-2.2 0.2,1.5 0.2,3.7 0,5 -0.2,1.2 -0.4,0 -0.4,-2.8 z m -619,2.8 c 3.7,-0.2 9.7,-0.2 13.5,0 3.7,0.2 0.6,0.3 -6.8,0.3 -7.4,0 -10.5,-0.1 -6.7,-0.3 z m 41.5,-9 c 3.9,-0.2 10.5,-0.2 14.5,0 3.9,0.1 0.7,0.3 -7.3,0.3 -8,0 -11.2,-0.2 -7.2,-0.3 z m 311.7,-7 c -19.7,-7.6 -37.5,-10 -50.9,-6.9 -3.8,0.9 -7.3,1.3 -7.6,0.9 -0.4,-0.5 -1,-2.8 -1.3,-5.3 -0.3,-2.5 -0.3,-3.8 0.1,-2.8 0.6,1.4 3.1,0.6 18.7,-6.2 41.3,-17.8 59.9,-23 82,-23 13.1,0 16.5,0.7 16.5,3.2 0,6 -15.4,20.6 -40.8,38.6 -3.9,2.9 -7.3,5.1 -7.5,5.1 -0.1,-0.1 -4.2,-1.7 -9.2,-3.6 z m 241,-31.5 -5,-5.3 5.3,5 c 4.8,4.6 5.7,5.5 4.9,5.5 -0.1,0 -2.5,-2.4 -5.2,-5.2 z m 37.6,1.2 c 0,-1.4 0.4,-3.2 0.9,-4 0.8,-1.2 1,-1.2 0.9,0.5 0,1.1 -0.4,2.9 -0.9,4 -0.8,1.8 -0.9,1.8 -0.9,-0.5 z m -620.3,-2.7 c 3.4,-0.2 8.8,-0.2 12,0 3.1,0.2 0.3,0.3 -6.3,0.3 -6.6,0 -9.2,-0.1 -5.7,-0.3 z m 571.5,-35.8 c 0,-3.8 0.2,-5.3 0.4,-3.2 0.2,2 0.2,5.2 0,7 -0.2,1.7 -0.4,0.1 -0.4,-3.8 z m -103,-1 c 0,-2.7 0.2,-3.8 0.4,-2.2 0.2,1.5 0.2,3.7 0,5 -0.2,1.2 -0.4,0 -0.4,-2.8 z m -273,-11 c 0,-4.4 0.2,-6.1 0.4,-3.7 0.2,2.3 0.2,5.9 0,8 -0.2,2 -0.4,0.1 -0.4,-4.3 z m -187,-20 c 0,-3.3 0.2,-4.5 0.4,-2.7 0.2,1.8 0.2,4.5 0,6 -0.2,1.5 -0.4,0 -0.4,-3.3 z m -11.1,-0.7 -0.2,-5.7 -13.7,-0.4 -13.8,-0.3 13.8,-0.2 c 15.5,-0.2 15.1,-0.5 14.4,7.4 l -0.3,4.9 z m -71.9,-3.8 c 0,-4.7 0.2,-6.6 0.4,-4.2 0.2,2.3 0.2,6.1 0,8.5 -0.2,2.3 -0.4,0.4 -0.4,-4.3 z m 164.7,-2.4 c 0,-7.2 -0.3,-8.5 -1.7,-8.9 -1.4,-0.4 -1.2,-0.5 0.5,-0.6 2.1,-0.1 2.2,0.2 2.2,8.9 0,5 -0.2,9 -0.5,9 -0.3,0 -0.5,-3.8 -0.5,-8.4 z m 298,-3.1 c -2.4,-2.5 -4.2,-4.5 -3.9,-4.5 0.3,0 2.5,2 4.9,4.5 2.4,2.5 4.2,4.5 3.9,4.5 -0.3,0 -2.5,-2 -4.9,-4.5 z m -370.7,1.8 c 1.5,-0.2 3.9,-0.2 5.5,0 1.5,0.2 0.2,0.4 -2.8,0.4 -3,0 -4.3,-0.2 -2.7,-0.4 z m -54,-9 c 2,-0.2 5.4,-0.2 7.5,0 2,0.2 0.3,0.4 -3.8,0.4 -4.1,0 -5.8,-0.2 -3.7,-0.4 z m 28.4,0 c 5.1,-0.4 5.2,-0.5 5.6,-3.9 0.4,-3.4 0.4,-3.4 0.3,0.3 l -0.1,3.8 -5.5,0.1 -5.5,0.1 z m 440.7,-6 c 0.3,-0.4 -1.9,-3.4 -5.1,-6.7 l -5.8,-6.1 6.8,6.5 c 3.7,3.5 6.7,6.6 6.7,6.7 0,0.2 -0.7,0.3 -1.7,0.3 -0.9,0 -1.3,-0.3 -0.9,-0.7 z m -46.1,-6 c 2.6,-0.2 6.8,-0.2 9.5,0 2.6,0.2 0.4,0.3 -4.8,0.3 -5.2,0 -7.4,-0.1 -4.7,-0.3 z m 91.2,-12.5 -5,-5.3 5.3,5 c 4.8,4.6 5.7,5.5 4.9,5.5 -0.1,0 -2.5,-2.4 -5.2,-5.2 z m -211.7,-9.5 c 2.8,-0.2 7.6,-0.2 10.5,0 2.8,0.2 0.5,0.3 -5.3,0.3 -5.8,0 -8.1,-0.1 -5.2,-0.3 z m 144.2,-8.2 c -0.6,-1.3 -1.6,-1.9 -2.3,-1.5 -0.7,0.4 -0.9,0.3 -0.4,-0.1 0.4,-0.5 -0.3,-2 -1.5,-3.4 -1.2,-1.4 -0.2,-0.7 2.2,1.6 2.4,2.3 4.1,4.5 3.8,4.9 -0.4,0.3 -1.1,-0.4 -1.8,-1.5 z m 94.3,0.7 c -1.3,-0.6 -2.3,-1.5 -2.3,-2 0,-0.5 1.4,-0.2 3,0.7 4.5,2.3 3.8,3.5 -0.7,1.3 z m -237.5,-4.5 c 2.9,-0.2 7.4,-0.2 10,0 2.6,0.2 0.2,0.3 -5.3,0.3 -5.5,0 -7.6,-0.1 -4.7,-0.3 z m -43.3,-13.3 c 3.3,-3.3 6.2,-6 6.4,-6 0.3,0 -2.1,2.7 -5.4,6 -3.3,3.3 -6.2,6 -6.4,6 -0.3,0 2.1,-2.7 5.4,-6 z m 177.5,-4.7 c 0,-0.5 2.6,-0.7 5.7,-0.5 10.1,0.5 11.1,0.9 2.6,1.1 -4.6,0 -8.3,-0.2 -8.3,-0.6 z m -18.6,-17.6 c -6.6,-6.7 -15,-14.4 -18.7,-17.2 -3.6,-2.7 -6.6,-5.3 -6.7,-5.6 0,-1.1 7.7,-2.9 12.6,-2.9 12.3,0.1 25.3,11.8 27,24.4 0.7,4.7 -0.3,13.6 -1.4,13.6 -0.4,-0.1 -6.1,-5.6 -12.8,-12.3 z m -83.6,2.6 c 2.3,-0.2 6.1,-0.2 8.5,0 2.3,0.2 0.4,0.4 -4.3,0.4 -4.7,0 -6.6,-0.2 -4.2,-0.4 z m -156.3,-17.3 c 3.8,-3.8 7.2,-7 7.4,-7 0.3,0 -2.6,3.2 -6.4,7 -3.8,3.9 -7.2,7 -7.4,7 -0.3,0 2.6,-3.1 6.4,-7 z m -7,-10 c 3.8,-3.8 7.2,-7 7.4,-7 0.3,0 -2.6,3.2 -6.4,7 -3.8,3.9 -7.2,7 -7.4,7 -0.3,0 2.6,-3.1 6.4,-7 z m 43.8,-44.7 c 3.7,-0.2 9.6,-0.2 13,0 3.4,0.2 0.4,0.3 -6.8,0.3 -7.1,0 -9.9,-0.1 -6.2,-0.3 z"
         id="path50" />
      <path
         style="fill:#ffd54e"
         d="m -423.78,1782.92 c -1.8,-1 -3.9,-3 -4.8,-4.4 -1.4,-2.1 -6.4,-31.8 -11.7,-69.5 l -1.3,-9.5 -8.5,-2.1 c -18.8,-4.8 -35.6,-11.6 -50.9,-20.8 -5.1,-3.1 -9.9,-5.4 -10.5,-5 -1.1,0.7 -25.7,18.9 -49.4,36.4 -10,7.5 -13.1,9.2 -16.6,9.6 -2.4,0.3 -5.1,0.1 -6,-0.4 -4.1,-2.3 -23.9,-22.8 -24.7,-25.6 -1.1,-3.8 0.5,-10.1 3,-11.9 1.4,-1 40.9,-54.1 43.4,-58.5 0.4,-0.6 -0.8,-3.7 -2.8,-6.7 -8.9,-13.9 -17.7,-34.5 -22.3,-52.3 l -2.8,-10.8 -37.4,-5.7 c -20.6,-3.2 -38.8,-6.3 -40.4,-7 -5.6,-2.3 -6.6,-5.6 -6.6,-22.6 0,-17 0.8,-20 6,-22.7 1.7,-0.9 19.1,-4 38.8,-7 19.6,-3 36.7,-5.7 37.9,-6 1.7,-0.4 2.4,-1.7 3.3,-6.3 3.3,-15.9 12.1,-37.9 21.5,-53.7 l 5.6,-9.3 -20.8,-28.4 c -11.4,-15.6 -21.9,-29.5 -23.4,-31 -1.5,-1.5 -2.9,-4.2 -3.1,-6 -1,-6.3 1,-9.8 11,-20 15.7,-16 18.4,-16.3 35.6,-3.5 6.1,4.4 11.8,8.9 12.6,9.8 1.3,1.5 11.2,8.9 33.5,25.1 l 5,3.6 6.5,-3.9 c 15.9,-9.8 33.7,-17.3 51.3,-21.9 l 11.2,-2.8 5.7,-37.7 c 3.2,-20.7 6.3,-38.8 7,-40.2 0.7,-1.4 2.6,-3.6 4.1,-4.7 2.5,-1.9 4.5,-2.1 17.5,-2.4 12.5,-0.2 15.2,0 18.1,1.5 6.4,3.3 6.6,4.1 12.6,43.3 3,20.1 5.7,37.4 6,38.5 0.3,1.6 1.8,2.4 6.6,3.4 15.8,3.2 40.3,13.3 55.9,22.9 l 6.5,4 3,-2.1 c 1.7,-1.2 15.8,-11.5 31.3,-22.9 15.6,-11.5 29.5,-21.1 30.8,-21.4 5.6,-1.4 9.1,0.4 18.9,9.7 10.4,10 14.1,15.9 13.1,21.2 -0.4,2 -9.3,15 -23.6,34.5 l -23,31.3 5.6,9.4 c 9.4,16.1 17,34.7 21,51.8 1.4,6.2 2.2,7.9 3.8,8.2 1.2,0.3 18.5,3 38.5,6.1 22,3.3 37.3,6.1 38.7,7 5.3,3.5 5.9,5.8 5.9,21.9 0,16.9 -1,20.4 -6.8,23.1 -1.8,0.8 -20,4 -40.6,7.2 l -37.5,5.7 -2.1,8.5 c -4.8,18.9 -11.6,35.6 -20.8,50.9 -3.1,5.1 -5.4,9.9 -5,10.5 0.4,0.6 10.5,14.5 22.6,30.9 12,16.5 22.3,31.1 22.8,32.5 2,5.2 0.2,8.9 -9.3,19.4 -11.3,12.4 -13.7,14 -19.9,13.5 -5,-0.4 -2.3,1.4 -42.9,-28.8 -9.6,-7.1 -19.1,-14.1 -21.1,-15.5 l -3.7,-2.5 -6.3,4.1 c -13.5,8.8 -32.6,16.9 -51.9,21.9 l -10.5,2.8 -1.4,9.9 c -4.8,35.6 -10.1,66.7 -11.6,69 -3.6,5.5 -6.7,6.4 -22.5,6.4 -12.6,0 -14.9,-0.3 -17.7,-2 z m 38.8,-140.6 c 55.7,-9.5 98.1,-53.1 105.8,-108.9 3.4,-24.3 -1.2,-53.2 -12,-74.7 -12.4,-24.8 -33.4,-45.7 -58.4,-58 -18.1,-8.9 -35.4,-12.8 -56.5,-12.8 -21.6,0 -39,4.1 -57.7,13.5 -29.6,14.9 -52.1,40.4 -63.1,71.5 -5.5,15.7 -6.7,23.6 -6.6,44 0.1,17.3 0.3,19.3 3.1,30 7.6,28.5 23.1,52.6 44.7,69.4 18.2,14.2 39.2,23.3 61.1,26.5 10.1,1.5 29.5,1.2 39.6,-0.5 z m -175.7,-141.2 c 2.4,-13.1 6.7,-25.9 13.6,-39.7 21.8,-43.6 61.4,-74.1 110.3,-84.7 8.7,-1.9 13.2,-2.2 30.7,-2.2 22.7,0 31.7,1.3 50.2,7.5 52.7,17.6 94.5,65.1 104.3,118.4 1,5 2.1,10.1 2.5,11.5 0.8,2.3 0.9,2.3 1,-1 0.5,-7.6 -0.2,-15 -2.6,-26.7 -12.4,-62.7 -61.9,-111.7 -125.7,-124.5 -15.1,-3 -42.3,-3.2 -57.2,-0.4 -57.8,10.7 -105.4,52.1 -123.3,107.1 -4.9,15 -8.3,35.4 -7.3,44.5 0.5,4.8 1.4,2.2 3.5,-9.8 z m 690.9,281.8 c -1.8,-1 -3.9,-3 -4.9,-4.4 -1.4,-2.3 -6.3,-31.2 -11.5,-69 l -1.4,-9.9 -10.5,-2.8 c -19.3,-5 -38.4,-13.1 -51.9,-21.9 l -6.3,-4.1 -3.7,2.5 c -2,1.4 -11.5,8.4 -21.1,15.5 -39.7,29.5 -37.9,28.3 -42.4,28.8 -5.9,0.7 -8.5,-0.9 -19.2,-11.9 -10.1,-10.2 -12.6,-15 -10.6,-20.5 0.5,-1.7 10.8,-16.4 22.9,-32.9 12.1,-16.4 22.2,-30.4 22.6,-31 0.4,-0.6 -1.9,-5.4 -5,-10.5 -9.2,-15.3 -16,-32 -20.8,-50.9 l -2.1,-8.5 -37.5,-5.7 c -20.6,-3.2 -38.8,-6.4 -40.6,-7.2 -5.8,-2.7 -6.8,-6.2 -6.8,-23.1 0,-16.1 0.6,-18.4 5.9,-21.9 1.4,-0.9 16.7,-3.7 38.7,-7 20,-3.1 37.3,-5.8 38.5,-6.1 1.6,-0.3 2.4,-2 3.8,-8.2 4,-17.1 11.6,-35.7 21,-51.8 l 5.6,-9.4 -23,-31.3 c -14.3,-19.5 -23.2,-32.5 -23.6,-34.5 -1,-5.3 2.7,-11.2 13.1,-21.2 9.8,-9.3 13.3,-11.1 18.9,-9.7 1.3,0.3 15.2,9.9 30.8,21.4 15.5,11.4 29.7,21.7 31.3,22.9 l 3,2.1 6.5,-4 c 15.5,-9.6 40.1,-19.7 55.8,-22.9 3.9,-0.8 6.4,-1.9 6.6,-2.8 0.3,-0.9 1.4,-8.1 2.6,-16.1 9.1,-62.9 9,-62.1 15.3,-66.1 2.9,-1.8 4.7,-1.9 18.9,-1.7 14.9,0.3 15.8,0.4 18.2,2.7 4.5,4.3 4.9,6.1 13.9,66.9 l 2.2,15.4 11.2,2.8 c 17.6,4.6 35.4,12.1 51.3,21.9 l 6.5,3.9 5,-3.6 c 22.3,-16.2 32.2,-23.6 33.5,-25.1 0.8,-0.9 6.5,-5.4 12.6,-9.8 17.2,-12.8 19.9,-12.5 35.6,3.5 10,10.2 12,13.7 11,20 -0.2,1.8 -1.6,4.5 -3.1,6 -1.5,1.5 -12,15.4 -23.4,31 l -20.8,28.4 5.6,9.3 c 9.4,15.8 18.2,37.8 21.5,53.7 0.9,4.6 1.6,5.9 3.3,6.3 1.2,0.3 18.3,3 37.9,6 19.7,3 37.1,6.1 38.8,7 5.2,2.7 6,5.7 6,22.7 0,17 -1,20.3 -6.6,22.6 -1.6,0.7 -19.8,3.8 -40.4,7 l -37.4,5.7 -2.8,10.8 c -4.6,17.8 -13.4,38.4 -22.3,52.3 -2,3 -3.2,6.1 -2.8,6.7 2.5,4.4 42,57.5 43.4,58.5 2.7,1.9 4.1,8 2.8,12.5 -1.1,3.9 -13,17.7 -15.3,17.7 -0.7,0 -2.3,1.2 -3.7,2.6 -1.3,1.5 -3.9,3.3 -5.8,4.1 -5.9,2.5 -9.5,1.1 -24.1,-9.9 -16.7,-12.5 -46.1,-34.2 -47.6,-35.1 -0.6,-0.4 -5.4,1.9 -10.5,5 -15.3,9.2 -32,16 -50.9,20.8 l -8.5,2.1 -1.8,12.5 c -10.1,68.9 -9.7,67.1 -16,70.9 -2.8,1.7 -5.1,2 -17.7,2 -12.6,0 -14.9,-0.3 -17.7,-2 z m 35.2,-140 c 29.1,-4.2 57.3,-18.8 76.5,-39.7 32.2,-35.1 42.6,-86.6 26.5,-131.3 -15.6,-43 -53.5,-74.6 -98.9,-82.5 -11.4,-1.9 -31.8,-1.9 -43.2,0 -40.2,7 -75.1,32.9 -93.3,69.3 -10.8,21.5 -15.4,50.4 -12,74.7 7.8,56.6 52.1,101.2 108.4,109.4 8.4,1.2 27.7,1.2 36,0.1 z m -172,-142.5 c 9.8,-53.3 51.6,-100.8 104.3,-118.4 18.5,-6.2 27.5,-7.5 50.2,-7.5 17.5,0 22,0.3 30.7,2.2 15.3,3.3 27.3,7.6 41.3,14.8 15.4,7.9 27.6,16.8 40,29.4 21.7,21.9 37.2,50.9 42.5,79.6 0.9,4.9 1.9,10 2.2,11.4 1.2,4.7 1.9,-3.8 1.1,-12.5 -6.5,-69.3 -60.2,-127.1 -130.3,-140.1 -14.9,-2.8 -42.1,-2.6 -57.2,0.4 -63.8,12.8 -113.3,61.8 -125.7,124.5 -2.4,11.7 -3.1,19.1 -2.6,26.7 0.1,3.3 0.2,3.3 1,1 0.4,-1.4 1.5,-6.5 2.5,-11.5 z"
         id="path52" />
      <path
         style="fill:#ffd54e"
         d="m -135.88,1390.62 c -0.6,-0.7 -2,-7.1 -3.1,-14.2 -1.1,-7 -2.4,-13.1 -2.8,-13.5 -0.4,-0.3 -3.5,-1.4 -6.8,-2.4 -3.3,-1 -8.4,-3.1 -11.3,-4.7 l -5.3,-3 -11,8.1 c -6,4.4 -11.7,8 -12.7,8 -2.4,0 -9.2,-7.1 -9.2,-9.6 0,-1.1 3.6,-6.8 7.9,-12.8 l 8,-10.8 -3.4,-6.1 c -1.8,-3.4 -4.1,-8.8 -5,-11.9 -1,-3.5 -2.3,-5.9 -3.3,-6.2 -0.9,-0.3 -6.9,-1.2 -13.2,-2.2 -6.3,-0.9 -12.1,-2.1 -12.7,-2.7 -1.6,-1.2 -1.8,-13.3 -0.3,-14.2 0.6,-0.4 7,-1.6 14.3,-2.7 7.2,-1.1 13.5,-2.5 13.9,-3.1 0.4,-0.7 1,-2.8 1.3,-4.9 0.4,-2 2.4,-7 4.4,-11 l 3.8,-7.4 -7.8,-10.7 c -4.4,-5.9 -7.9,-11.5 -7.9,-12.6 0,-1 2,-3.7 4.5,-6 5.3,-4.9 4.5,-5.1 18.3,5.1 5,3.7 9.6,6.8 10,6.8 0.5,0 3.3,-1.3 6.3,-2.9 3,-1.6 8.1,-3.7 11.4,-4.7 3.3,-1 6.1,-1.8 6.2,-1.9 0.1,-0.1 1.2,-6.2 2.3,-13.6 1.5,-9.2 2.7,-13.8 3.8,-14.6 0.9,-0.7 3.7,-1.3 6.2,-1.3 7.2,0 7.7,0.8 10,15.9 1.1,7.4 2.1,13.5 2.3,13.6 0.1,0 2.9,0.9 6.2,1.9 3.3,1 8.4,3.1 11.4,4.7 3,1.6 5.8,2.9 6.3,2.9 0.4,0 5,-3.1 10,-6.8 13.8,-10.2 13,-10 18.3,-5.1 2.5,2.3 4.5,5 4.5,6 0,1.1 -3.5,6.7 -7.9,12.6 l -7.8,10.7 3.8,7.4 c 2,4 4,9 4.4,11 0.3,2.1 0.9,4.2 1.3,4.9 0.4,0.6 6.7,2 13.9,3.1 7.3,1.1 13.7,2.3 14.3,2.7 1.5,0.9 1.3,13 -0.2,14.2 -0.7,0.6 -6.5,1.8 -12.8,2.7 -6.3,1 -12.3,1.9 -13.2,2.2 -1,0.3 -2.3,2.7 -3.3,6.2 -0.9,3.1 -3.2,8.5 -5,11.9 l -3.4,6.1 8,10.8 c 4.3,6 7.9,11.8 7.9,12.9 0,2.5 -6.9,9.5 -9.3,9.5 -0.9,0 -6.6,-3.6 -12.6,-8 l -11,-8.1 -5.3,3 c -2.9,1.6 -8,3.7 -11.3,4.7 -3.3,1 -6.4,2.1 -6.8,2.4 -0.4,0.4 -1.7,6.5 -2.8,13.5 -1.1,7.1 -2.5,13.5 -3.1,14.2 -0.6,0.8 -3.3,1.3 -6.8,1.3 -3.5,0 -6.2,-0.5 -6.8,-1.3 z m 12.2,-52.9 c 7.9,-2.3 19.1,-16.8 21.1,-27.3 l 0.6,-3 -1.5,3.1 c -4.5,9.8 -14.8,16.4 -25.6,16.4 -10.8,0 -21.1,-6.6 -25.6,-16.4 l -1.5,-3.1 0.6,3 c 1.1,5.9 6.9,16 11.9,21 6.9,6.9 12.3,8.6 20,6.3 z m -58.1,-44 c 0.3,-2.3 2.4,-7.9 4.6,-12.4 10.5,-21 33.1,-33 55.9,-29.6 10.9,1.7 22.3,7.4 30.1,15.3 6.7,6.7 13.8,19.5 14.8,26.7 0.3,2.3 1,4.2 1.5,4.2 1.2,0 0,-7.8 -2.3,-15.6 -5.2,-16.8 -21.3,-31.7 -39.1,-35.9 -31.8,-7.5 -62.4,13.8 -67.2,46.8 -0.4,2.7 -0.3,4.7 0.2,4.7 0.5,0 1.2,-1.9 1.5,-4.2 z"
         id="path54" />
      <path
         style="fill:#cacdc7"
         d="m -417.78,2162.92 c 4.7,-113.7 53.4,-204 138.3,-256.2 54.2,-33.4 128.6,-46.5 194.9,-34.3 32.1,6 59,16.5 82.6,32.4 22.1,14.9 35.2,28.7 53.8,56.6 22.7,34.1 32.9,59.3 41.2,101 2.1,11 7.1,31.7 11,46 8.7,31.9 11.8,46.1 12.6,58.6 l 0.6,9.6 -109.4,0.6 c -60.2,0.4 -180.7,1 -267.8,1.4 l -158.4,0.6 z m 268.3,-413 c -11.7,-4.6 -15.8,-13.9 -16,-36.3 l -0.1,-11.9 6.2,-2.2 c 7.4,-2.8 18.4,-5.9 18.8,-5.4 1.1,1.1 4.5,36.2 4.5,46.1 v 11.7 h -4.2 c -2.4,-0.1 -6.5,-1 -9.2,-2 z m 25.1,-5.2 c 0.3,-4.1 -0.4,-17 -1.6,-29.5 -1.2,-12.2 -2.1,-22.5 -2.1,-22.9 0,-1 19.6,0.3 26.3,1.8 l 5.9,1.2 -0.7,10.6 c -1.4,21.8 -4.5,35.2 -9.7,40.7 -1.9,2 -6,3.3 -15,4.8 l -3.7,0.6 z m 43.8,-64.7 c -29.8,-6.6 -42.6,-8.3 -67.2,-9 -19.6,-0.6 -23.8,-1.2 -19.2,-2.6 3.3,-1.1 23.2,-12 31.2,-17.1 l 6.7,-4.4 6.8,4.4 c 9.7,6.2 25.1,14.4 40.4,21.5 7.3,3.4 14.7,6.8 16.3,7.6 l 3,1.4 h -5 c -2.7,0 -8.6,-0.8 -13,-1.8 z m 260.6,-411.4 c 1.6,-1.3 9.9,-5.7 9.9,-5.3 0,0.7 -8.4,5.6 -9.5,5.6 -0.5,0 -0.6,-0.1 -0.4,-0.3 z m 17.7,-12.4 c 6.9,-6.9 7.2,-7.4 7.2,-12 v -4.7 l -3.7,3.6 c -4.3,4.1 -15.1,11.8 -16.6,11.8 -0.6,0 1.8,-1.8 5.3,-4.1 3.4,-2.2 8.4,-6.3 11.1,-9 l 4.9,-5 v 5.7 c 0,5 -0.4,6.2 -3.5,10 -1.9,2.3 -5.4,5.7 -7.7,7.5 -2.8,2.1 -1.7,0.7 3,-3.8 z m -24.7,-8.7 c 1,-0.9 12.9,-6.6 12.9,-6.1 0,0.5 -11.6,6.5 -12.6,6.5 -0.4,0 -0.5,-0.2 -0.3,-0.4 z"
         id="path56" />
      <path
         style="fill:#cacdc7"
         d="m 144.12,1238.62 -7.3,-7.3 7.7,-6 c 8.9,-6.8 18.8,-17.9 24.7,-27.7 l 4,-6.8 7.4,7.3 c 7.7,7.5 15.5,17.3 19.2,23.8 l 2.1,3.8 -3.8,4.9 c -3.5,4.3 -12.6,12.4 -10.8,9.5 0.5,-0.8 -0.2,-1.2 -2,-1.2 -7,0 -14.9,-6.6 -23.6,-19.7 l -3.5,-5.3 -3.4,3.6 c -1.9,2 -6.4,5.9 -10.1,8.7 l -6.8,5.2 7.2,7.2 c 4,4 7,7.3 6.7,7.3 -0.2,0 -3.7,-3.3 -7.7,-7.3 z m -509.9,-2.7 14.8,-0.5 -5.8,-4.8 c -6.2,-5.1 -18.8,-18.8 -20.5,-22.2 -0.5,-1.1 0.3,-0.4 1.8,1.5 3.8,4.8 21.2,22.2 24.9,24.8 l 3,2.1 -16.5,-0.1 -16.5,-0.2 z m 25.7,-4.3 -3.4,-4.2 3.9,3.7 c 3.9,3.6 4.2,3.7 13,4.1 l 9,0.3 -9.5,0.1 -9.5,0.1 z m 56.5,-1.3 c 3.3,-0.7 6.7,-1.3 7.5,-1.2 2.3,0.1 -8.2,2.6 -11,2.6 -1.4,0 0.2,-0.6 3.5,-1.4 z m 497.6,-1.9 c -1.1,-3.5 -1,-4.6 0.8,-8.7 1.1,-2.6 2.7,-8.2 3.6,-12.5 0.9,-4.3 1.8,-7.9 2.1,-8.2 0.7,-0.8 0.4,8.1 -0.6,14.8 -0.7,5.2 -1.4,6.9 -3.6,8.6 -2.1,1.7 -2.5,2.6 -1.9,4.4 0.6,1.8 0.9,2.1 1.6,1 1.1,-1.7 1,-0.1 0,2.6 -0.7,1.7 -1,1.4 -2,-2 z m -566.9,-8.5 c -9.9,-9.8 -13.1,-14 -10.7,-14 0.9,0 1.3,0.5 1,1 -0.4,0.6 3.7,5.6 9.1,11 5.4,5.5 9.5,10 9.3,10 -0.3,0 -4.2,-3.6 -8.7,-8 z m 81.7,0.1 c -8.9,-8.8 -22,-25.2 -20.2,-25.1 0.4,0.1 2.9,3.1 5.5,6.8 5.4,7.6 12,14.8 19.2,21 2.7,2.3 4.3,4.1 3.5,4 -0.8,-0.1 -4.4,-3.1 -8,-6.7 z m -157.3,4.3 c -4.9,-1.8 -6.1,-2.8 -2.2,-1.8 2.2,0.5 2.7,0.4 2.1,-0.6 -0.4,-0.7 0.6,-0.2 2.4,1.1 4.6,3.4 4.1,3.7 -2.3,1.3 z m 15,-3.1 c -9.4,-7.3 -21.5,-19.3 -18.9,-18.6 1.3,0.3 2.1,0.9 1.8,1.3 -0.6,1 10.7,11.5 18.3,17.2 4.5,3.3 6,4.8 5,4.8 -0.2,0 -3,-2.1 -6.2,-4.7 z m 536.4,-1.4 c -3.6,-2.8 -6.9,-5.5 -7.5,-6.2 -1.3,-1.4 0.1,-0.5 8.3,5.7 l 6.3,4.8 5.2,-4 c 2.9,-2.3 6.5,-5.4 8,-7 l 2.8,-2.9 -5.1,-2.1 c -6.8,-2.8 -20.7,-12 -30.4,-20 -6.1,-5.1 -8,-6.2 -8.8,-5.1 -0.7,1 -0.8,0.9 -0.4,-0.6 l 3.1,-11.5 c 1.4,-5.2 2.8,-12.5 3.1,-16.2 0.4,-3.8 0.8,-6.8 1,-6.8 0.2,0 6.3,3.4 13.6,7.6 13.4,7.7 33.3,20.8 39.8,26.3 l 3.5,2.9 -2.3,4.7 c -3.4,6.9 -9.7,15 -17.6,22.6 -7.6,7.2 -14.5,12.9 -15.5,12.8 -0.3,0 -3.5,-2.3 -7.1,-5 z m -386.8,-7.4 c -10.3,-10.9 -17.1,-19.5 -15.5,-19.5 0.4,0.1 2.1,2.2 3.8,4.8 4,6.5 21.2,24 23.8,24.4 2.1,0.3 2.1,0.4 0.2,0.9 -1.6,0.4 -4.3,-2 -12.3,-10.6 z m -174.8,0.3 c -7.1,-7.5 -15.8,-17.3 -10.8,-12.3 5.8,5.7 19.7,20.5 19.3,20.5 -0.2,0 -4,-3.7 -8.5,-8.2 z m 641.6,-4.5 c -1.9,-3.1 -8.6,-10.9 -14.7,-17.3 -6.2,-6.4 -11.1,-11.9 -10.8,-12.1 0.2,-0.3 0.9,-4.4 1.5,-9.3 1.8,-14.4 -2,-33.2 -9.7,-47.8 l -3.1,-6 c -0.2,-0.3 0.6,-0.4 1.7,-0.1 3.1,0.8 20.1,18 25.1,25.3 2.4,3.6 6.2,8.8 8.5,11.5 7.3,8.8 8.3,11.1 9.5,22.8 0.6,6 0.8,13.6 0.5,17 -0.8,7.8 -3.6,21.7 -4.4,21.7 -0.3,-0.1 -2.2,-2.6 -4.1,-5.7 z m -422.5,1.7 c 3.3,-1.6 6.5,-2.9 7,-2.9 1.3,0.1 -10.7,5.7 -12,5.7 -0.5,0 1.7,-1.3 5,-2.8 z m -178.7,-1.7 c 3.4,-0.2 9,-0.2 12.5,0 3.4,0.2 0.6,0.3 -6.3,0.3 -6.9,0 -9.7,-0.1 -6.2,-0.3 z m 191.9,-4.1 5.2,-2.7 -2,-3.2 c -1.2,-1.8 -1.9,-3.3 -1.6,-3.3 0.7,0 5,7 4.6,7.3 -1.8,1.1 -10.1,4.7 -10.7,4.7 -0.4,-0.1 1.6,-1.3 4.5,-2.8 z m -125.2,-2.3 c 5.1,-1 9.2,-1 5,0.1 -1.6,0.4 -4.3,0.8 -6,0.8 -2.5,0 -2.4,-0.2 1,-0.9 z m -120.9,-4.8 c -0.4,-0.5 -4.1,-2.8 -8.4,-5.1 -4.2,-2.3 -8.4,-4.8 -9.2,-5.6 -2,-2 13.8,6.8 17,9.5 1.4,1.1 2.2,2 1.8,2.1 -0.4,0 -0.9,-0.4 -1.2,-0.9 z m 151.9,-0.2 c 5.1,-1 9.2,-1 5,0.1 -1.6,0.4 -4.3,0.8 -6,0.8 -2.5,0 -2.4,-0.2 1,-0.9 z m 382.5,-2 c -1.9,-1.1 -2.6,-1.7 -1.5,-1.3 4.9,1.6 5.3,1.6 6,-0.6 0.4,-1.2 0.9,-1.9 1.2,-1.7 0.2,0.3 -0.1,1.6 -0.9,3 l -1.3,2.5 z m -507,-0.9 c -1.7,-0.6 -0.9,-0.7 2.5,-0.3 2.8,0.3 5.2,0.7 5.4,0.9 0.8,0.7 -5.4,0.2 -7.9,-0.6 z m 228.4,-4.1 c -1.4,-2.8 -2.4,-5.3 -2.2,-5.5 0.2,-0.2 1.6,2.1 3.1,5.1 1.5,3 2.5,5.5 2.2,5.5 -0.3,0 -1.6,-2.3 -3.1,-5.1 z m 27.5,-0.9 c 2.4,-1.1 5.5,-2.3 7,-2.6 1.4,-0.2 0.4,0.4 -2.4,1.6 -6.8,2.8 -10,3.5 -4.6,1 z m -40.8,-4.5 c -1.2,-3.1 -2.1,-6.1 -2,-6.8 0,-0.7 1.1,1.7 2.4,5.3 1.3,3.5 2.2,6.6 2,6.8 -0.1,0.2 -1.2,-2.2 -2.4,-5.3 z m 298.5,3.5 c 0.4,-1.4 1.3,-3.8 2,-5.5 1.1,-2.4 1.3,-2.5 0.8,-0.5 -0.4,1.4 -1.3,3.9 -2,5.5 -1.1,2.4 -1.3,2.5 -0.8,0.5 z m -533.5,-0.7 c -2.9,-2.5 -9.7,-15.4 -13,-24.8 -3.6,-10.2 -6.1,-24.5 -6.1,-35.3 v -8.4 l 3.3,0.6 c 9,1.7 20,2.6 37.2,3.2 l 19.1,0.7 1.2,12.1 c 0.6,6.7 2.3,16.8 3.7,22.5 l 2.5,10.4 -2.6,3.4 c -6,7.8 -17.3,12.1 -28.8,10.8 -5.3,-0.5 -14.5,-3.2 -21,-6 -3,-1.3 3.1,9.3 6.3,11 1.5,0.8 2.1,1.4 1.5,1.5 -0.7,0 -2.1,-0.8 -3.3,-1.7 z m 127.4,-0.4 c 5.1,-1 9.2,-1 5,0.1 -1.6,0.4 -4.3,0.8 -6,0.8 -2.5,0 -2.4,-0.2 1,-0.9 z m 367.5,-3.4 c -1.9,-0.7 -3,-1.4 -2.3,-1.4 0.6,-0.1 2.3,0.3 3.7,0.9 2,0.7 2.6,0.6 2.9,-0.8 0.3,-1.2 0.5,-1.1 0.6,0.6 0.1,2.5 -0.1,2.5 -4.9,0.7 z m -337,-2.2 c 0,-0.5 1,-0.8 2.3,-0.9 1.2,0 4.5,-0.3 7.2,-0.7 4.8,-0.6 4.8,-0.6 -1,0.8 -7,1.6 -8.5,1.8 -8.5,0.8 z m 322.5,-1.3 c -2.7,-0.7 -2.7,-0.8 -0.5,-0.8 1.4,0 3.6,0.4 5,0.8 2,0.6 2.1,0.8 0.5,0.8 -1.1,0 -3.3,-0.4 -5,-0.8 z m -397.5,-1 c -6.1,-1.3 -11.5,-3.5 -17.7,-7.3 -5.9,-3.5 -6.9,-5.6 -9.8,-19.8 -1.6,-7.6 -3.4,-28.6 -2.6,-29.5 0.2,-0.2 2.9,-0.4 6,-0.4 7.9,0 34.3,-2.6 55.8,-5.5 10,-1.4 18.3,-2.5 18.6,-2.5 0.2,0 0.7,5.3 1,11.8 0.3,6.4 1.3,15.6 2.2,20.4 1.7,9.9 2.2,8.6 -6.8,18.4 -8,8.7 -20.1,13.8 -35.2,14.8 -3.9,0.3 -9,0.1 -11.5,-0.4 z m 454,-0.7 c 0,-0.8 -1.5,-1.3 -3.8,-1.3 -4,0 -13.6,-4.3 -18,-7.9 -1.9,-1.7 -2.3,-3.1 -2.7,-11.3 -0.5,-9.4 -3.4,-22.7 -6.1,-28 -0.8,-1.5 -1.2,-2.8 -0.9,-2.8 1.3,0 18.8,7.1 28.4,11.6 l 10.4,4.8 -0.6,8.1 c -0.4,4.4 -1.6,11.8 -2.8,16.5 -2.1,8.3 -3.8,12.8 -3.9,10.3 z m -68.9,-6 c 0.1,-6.2 0.6,-5.6 1.1,1.5 0.2,2.3 0,4.2 -0.4,4.2 -0.5,0 -0.7,-2.6 -0.7,-5.7 z m -225.1,3.6 c 0,-1.1 1.6,-1.9 5.1,-2.7 6.6,-1.6 7.6,-0.9 1.2,0.7 -2.6,0.7 -5.1,1.8 -5.5,2.4 -0.5,0.8 -0.8,0.7 -0.8,-0.4 z m -271.5,-4 c -10.1,-7 -11.3,-8.4 -13.1,-16.7 -1.3,-5.7 -1.5,-10.4 -1.1,-19.6 0.5,-11.2 2.8,-22.7 4.5,-22.5 0.4,0 2.2,0.6 3.9,1.2 l 3.3,1.2 0.4,12 c 0.4,12.2 2.2,22.9 5.7,33.9 l 1.9,6.1 -2.2,1.8 -2.2,1.8 3,2.4 c 4.5,3.7 2.5,2.9 -4.1,-1.6 z m 476,2.1 c -2.7,-0.7 -2.7,-0.8 -0.5,-0.8 1.4,0 3.9,0.4 5.5,0.8 2.7,0.7 2.7,0.8 0.5,0.8 -1.4,0 -3.8,-0.4 -5.5,-0.8 z m -109.4,-1.4 c 1.1,-0.9 6.9,-1.4 6.9,-0.6 0,0.6 -1.6,1 -3.7,1 -2,0 -3.4,-0.2 -3.2,-0.4 z m 267.4,-5.7 c -10,-7.4 -29.9,-19.9 -42.7,-26.8 -8.6,-4.6 -9.8,-5.6 -9.8,-7.9 0,-4.3 -3.7,-18.5 -6.4,-24.6 -3.8,-8.5 -12,-19.8 -19.9,-27.3 -3.9,-3.7 -6.3,-6.3 -5.2,-5.9 1.1,0.4 6.1,2.3 11,4.1 18.5,6.8 39.7,17 57.2,27.7 7.6,4.7 8.6,5.6 13,13.1 2.6,4.4 6.2,12.6 8.2,18.1 3,8.7 3.5,11.7 3.9,21.9 0.2,6.5 0.1,12.2 -0.4,12.7 -0.5,0.5 -4.5,-1.8 -8.9,-5.1 z m -184,0.9 c -1.4,-2.9 -1.4,-3.1 0,-1.4 0.8,1.1 1.5,2.3 1.5,2.7 0,0.4 1,1 2.3,1.2 l 2.2,0.4 -2.2,0.2 c -1.6,0.1 -2.7,-0.8 -3.8,-3.1 z m -53.2,1.5 c 1.5,-0.2 3.9,-0.2 5.5,0 1.5,0.2 0.2,0.4 -2.8,0.4 -3,0 -4.3,-0.2 -2.7,-0.4 z m 40.5,-0.2 c -0.1,-0.5 -2.3,-2.1 -4.8,-3.5 -2.5,-1.4 -4,-2.6 -3.4,-2.6 1.2,0 10.4,5.7 10.4,6.5 0,0.9 -1.8,0.5 -2.2,-0.4 z m -22.5,-0.8 c 2.6,-0.2 6.8,-0.2 9.5,0 2.6,0.2 0.4,0.3 -4.8,0.3 -5.2,0 -7.4,-0.1 -4.7,-0.3 z m -161.6,-2 c 3,-0.9 5.4,-2.3 5.6,-3.2 0.3,-1.1 0.5,-1 0.6,0.5 0.1,2.2 -0.2,2.3 -8.5,3.8 -1.6,0.3 -0.6,-0.2 2.3,-1.1 z m 51.8,0.1 c 2.8,-0.7 5.7,-1.3 6.5,-1.3 0.8,0 -0.7,0.7 -3.5,1.5 -2.7,0.7 -5.7,1.3 -6.5,1.3 -0.8,0 0.8,-0.7 3.5,-1.5 z m -107.4,-3.9 c -5.4,-1.5 -14.7,-6.1 -18.9,-9.3 -1.9,-1.5 -2.5,-3.5 -3.8,-13.4 -0.8,-6.4 -1.4,-15.4 -1.2,-19.9 l 0.3,-8.2 17.2,-3.3 c 19.2,-3.6 41,-8.5 64.1,-14.3 12.8,-3.2 15.2,-3.6 14.7,-2.2 -7.2,17.5 -11.5,38.3 -11.7,57.1 l -0.2,10.5 -0.3,-9.8 -0.4,-9.7 -5.2,5.4 c -6.5,6.6 -14.6,11.9 -23.5,15.3 -8.5,3.2 -22.9,4.1 -31.1,1.8 z m 245.4,-3.2 c -2.7,-2.5 -3.6,-3.7 -2,-2.5 2.8,1.9 8.4,7.3 7.4,7.2 -0.2,-0.1 -2.6,-2.2 -5.4,-4.7 z m -109.5,1.7 c 1.9,-0.5 6.4,-1.1 10,-1.4 l 6.5,-0.5 -8,1.4 c -8.8,1.5 -14.1,1.8 -8.5,0.5 z m 49.4,-3 c 0.1,-1.2 1.6,-1.5 6.6,-1.6 l 6.5,-0.1 -6.2,0.4 c -3.6,0.2 -6.3,0.9 -6.6,1.6 -0.2,0.7 -0.3,0.5 -0.3,-0.3 z m 129.3,0.9 c -3.1,-0.5 -8.4,-1.9 -11.7,-3.2 -3.8,-1.6 -6,-2 -6,-1.3 -0.1,0.6 -1.7,-2.9 -3.7,-7.8 -4.4,-11.1 -8.7,-18.5 -16.3,-28.1 -3.5,-4.3 -5.4,-7.5 -4.6,-7.5 3.8,0 26.4,4.4 36.9,7.2 11.7,3.1 11.8,3.1 14.3,7.3 3.7,6.4 8.2,19.4 9.2,26.8 l 0.8,6.5 -4.4,0.6 c -5.2,0.7 -6.7,0.7 -14.5,-0.5 z m -243.3,-9.4 c 0,-5.5 0.1,-7.6 0.3,-4.7 0.2,2.9 0.2,7.4 0,10 -0.2,2.6 -0.3,0.2 -0.3,-5.3 z m 163.6,3 c -2.5,-1.3 -4.1,-2.4 -3.7,-2.5 1.1,0 8.7,3.9 8.7,4.5 0,0.7 0,0.7 -5,-2 z m 49,0.9 c 0,-0.5 -3.7,-0.9 -8.2,-0.9 -8,0 -8.8,-0.3 -20.4,-5.7 -15.4,-7.3 -29.4,-11.3 -49,-14.3 -4,-0.6 -4.3,-0.5 -8.3,4.2 -2.2,2.6 -4.1,5.1 -4.1,5.5 0,0.4 1.7,0.9 3.8,1.1 3.3,0.3 3.2,0.4 -1.1,0.5 l -4.8,0.2 1.8,-3.1 c 1,-1.7 5.1,-6.2 9,-9.9 11.3,-10.5 27.5,-17.6 45.1,-19.6 l 5.9,-0.6 7.1,6.7 c 4,3.7 9.4,9.7 12.2,13.4 5.2,7.1 12.7,21.7 11.6,22.8 -0.3,0.4 -0.6,0.2 -0.6,-0.3 z m -119.2,-9.1 c 2.3,-0.2 6.1,-0.2 8.5,0 2.3,0.2 0.4,0.4 -4.3,0.4 -4.7,0 -6.6,-0.2 -4.2,-0.4 z m -18.8,-5.9 c -8.1,-1.9 -15.2,-2.6 -31,-3.3 -21.6,-0.9 -23.8,-1.4 -34.1,-6.7 -3,-1.6 -5.7,-3 -6.1,-3.2 -0.3,-0.2 -0.9,0.5 -1.1,1.5 -1.3,4.2 0.5,-6.7 1.9,-12 1.6,-6.4 6.3,-18.6 9.4,-24.6 1.9,-3.8 2.1,-3.9 12.3,-6 46.9,-9.9 93.6,-5.4 131.9,12.6 9.8,4.6 11.8,6.3 7.6,6.3 -4,0 -18.6,5.6 -25.9,10 -8.4,5 -19.3,15 -24.5,22.5 -3.8,5.6 -5.4,7.2 -3.3,3.3 1,-1.9 0.9,-2 -0.7,-1.4 -4.9,1.9 -14.5,3.6 -19.9,3.5 -3.3,0 -10.7,-1.2 -16.5,-2.5 z m 217,-13.2 c -5.8,-2.5 -16.2,-6.6 -23.2,-9.2 -12.6,-4.6 -12.7,-4.6 -17.1,-10.6 -2.5,-3.2 -9.4,-10.6 -15.3,-16.4 -6,-5.8 -11.6,-12.1 -12.5,-14 -0.9,-1.9 -3.2,-5.6 -5.2,-8.2 l -3.7,-4.8 h 2.8 c 3.6,0 18,1.7 26.2,3.1 18.4,3.1 44.4,25.1 53.5,45.2 2.7,6 6.7,19.7 5.7,19.6 -0.4,0 -5.4,-2.1 -11.2,-4.7 z m -520.5,-12.9 c -3.8,-0.1 -12.1,-0.8 -18.2,-1.4 l -11.3,-1.1 0.6,-2.7 c 6.1,-26.7 17,-48 35.1,-68.2 10.8,-12.1 26.6,-26 33.2,-29.4 4.6,-2.3 22.1,-8.9 36,-13.5 l 11.3,-3.8 -8.5,8.6 c -14.8,15 -24.2,28.3 -32.8,46.6 -7.7,16.4 -13.6,38.4 -15.4,57.2 l -0.7,7.1 -7.5,0.7 c -4.2,0.3 -9.2,0.5 -11.2,0.4 -2,-0.1 -6.7,-0.3 -10.6,-0.5 z"
         id="path58" />
      <path
         style="fill:#cacdc7"
         d="m -391.68,1104.72 c 4.2,-43.4 27.9,-85.3 62.6,-110.4 12.1,-8.8 16.9,-11 27.5,-12.7 23.2,-3.8 50.8,-4.5 67.5,-1.8 3.9,0.6 4.2,0.8 2.2,1.5 -6.1,2.1 -24.3,15.6 -33.7,25 -22.9,23 -37.9,53.3 -43.5,88.2 l -1.1,7.2 -13.8,2.1 c -18.4,2.9 -42.4,5.8 -54.1,6.6 -5.2,0.3 -10.6,0.8 -11.9,1.1 l -2.4,0.5 z m -86.6,0.9 c -2.1,-0.5 -3.8,-1.5 -3.8,-2.2 0,-3.2 4.6,-15.8 8.8,-24 4.6,-9 14,-22.2 18.3,-26 l 2.3,-2 -2.1,3 c -6.7,9.7 -15,30.2 -18.1,44.5 l -1.7,7.6 z m 499.2,-1.8 c -11.3,-2.4 -23.8,-3.9 -32.7,-3.9 -6.9,0 -7.5,-0.2 -13.5,-4.3 -30.8,-21.2 -75.7,-32.1 -119.2,-28.8 -8.4,0.6 -19.2,1.8 -24.1,2.6 -4.9,0.8 -9.1,1.2 -9.3,1 -0.8,-0.8 11.3,-12.7 17.8,-17.4 17.5,-13 37.7,-19.1 62.8,-19.1 h 12.5 l 15.1,6.6 c 30,13.1 56.1,27.6 75.8,41.9 9.4,6.9 27.1,23.5 24.8,23.3 -0.8,0 -5.3,-0.9 -10,-1.9 z"
         id="path60" />
      <path
         style="fill:#cacdc7"
         d="m -298.08,1097.52 c 0,-1.2 1.1,-6.6 2.4,-12.1 7,-28.7 19.8,-51.7 39.7,-71 14.1,-13.7 28.9,-22.8 46.3,-28.5 l 6.9,-2.2 13.6,3.2 c 7.5,1.8 18.1,4.8 23.6,6.7 11.1,3.8 33.1,14.3 47.2,22.5 l 9.1,5.4 -9.8,1.7 c -16,2.7 -29.3,7.9 -43,16.9 -8.3,5.4 -23.3,20.4 -28.5,28.5 -3.6,5.6 -4.5,6.4 -9,7.8 -11.5,3.4 -58.5,14.8 -77.7,18.8 -20.3,4.2 -20.8,4.3 -20.8,2.3 z m 301.4,-31.4 c -2.9,-2 -6,-4.3 -7,-5 -1.7,-1.1 -1.7,-1.1 0.3,-0.2 1.2,0.5 3,1 4,1.1 1,0 3.3,1.8 5.2,4 1.8,2.1 3.2,3.9 3,3.9 -0.2,-0.1 -2.7,-1.8 -5.5,-3.8 z m 87.6,-0.9 c -20.7,-8.5 -54.1,-16 -75.5,-16.9 -7.7,-0.3 -14.1,-0.7 -14.2,-0.8 -0.2,-0.2 0.2,-1.7 0.8,-3.4 1,-3 1.2,-3.1 5.7,-2.6 30.1,3.4 53.4,9.6 81.5,21.6 10.4,4.5 13.3,6 11,5.7 -0.5,0 -4.6,-1.7 -9.3,-3.6 z m -118.7,-29.9 c -12.3,-5.1 -30.4,-10.3 -43.3,-12.5 -13.5,-2.3 -16.7,-3.7 -42.1,-18.2 -21.3,-12.1 -29.8,-16.3 -45.4,-21.9 -6,-2.2 -11.2,-4.2 -11.5,-4.4 -0.8,-0.9 18.9,0.7 29,2.2 25.6,4 48,11.9 81.5,28.7 11.3,5.7 17.6,9.6 25.5,16 9.1,7.3 16.3,13.9 14.9,13.6 -0.2,0 -4.1,-1.6 -8.6,-3.5 z m -187.9,-65.9 c -9.7,-1.5 -30,-3.5 -38.1,-3.6 -5.1,-0.1 -4.4,-0.4 6.2,-1.9 15.7,-2.4 46.4,-2.6 63.5,-0.5 6.8,0.9 12.5,1.7 12.7,1.9 0.2,0.2 -4.3,0.6 -9.9,0.9 -5.7,0.4 -13.2,1.4 -16.8,2.2 -3.6,0.9 -7.2,1.7 -8,1.9 -0.8,0.2 -5.1,-0.3 -9.6,-0.9 z"
         id="path62" />
      <path
         style="fill:#3c2d28"
         d="m -607.38,2189.02 -2.5,-3 -0.7,-73.3 c -0.7,-74.8 -0.1,-323.4 0.9,-334.3 0.3,-3.3 1.3,-20.4 2.2,-38 0.9,-17.6 1.9,-34.4 2.2,-37.3 l 0.7,-5.3 8.6,8.8 8.6,8.8 -1.3,23.5 c -0.7,12.9 -1.8,36.1 -2.4,51.5 -1.5,34.2 -2.1,238.3 -1,301 0.7,37.7 1.3,91.1 1.1,95.1 -0.1,0.5 -1,2 -2.1,3.2 -1.6,1.7 -3.2,2.2 -7,2.2 -4.1,0 -5.2,-0.4 -7.3,-2.9 z m 927.3,0.2 c -1.5,-2 -2,-3.6 -1.6,-5.8 0.8,-4.7 2.6,-31 3.6,-52.5 1.1,-25.1 0.5,-184.5 -0.9,-240.5 -0.6,-23.6 -1.5,-65.7 -2.1,-93.5 -0.6,-27.8 -1.3,-56.9 -1.7,-64.7 l -0.6,-14.3 h 3.7 c 4.4,0 7,-1.2 11.2,-5.2 l 3.1,-2.9 0.7,10.3 c 1,16.4 2.5,64.4 3.1,101.8 0.3,19 1,55.7 1.6,81.5 1.6,69.1 0.7,246.1 -1.4,266.7 -0.8,8.6 -2.1,16.6 -2.7,17.7 -1.5,2.9 -4.2,4.1 -9.4,4.1 -3.7,0 -4.8,-0.5 -6.6,-2.7 z m -469,-420.4 c -7.3,-1.4 -18.5,-7.5 -22.5,-12.1 -7.6,-9 -11.3,-20.2 -12.2,-38 l -0.6,-11.7 -6.1,0.6 c -6.1,0.5 -14.6,-0.6 -20,-2.6 l -2.8,-1.1 4.1,-4.5 c 2.3,-2.5 4.4,-5.8 4.7,-7.3 l 0.6,-2.9 7.6,0.5 c 7.4,0.4 8.5,0.1 27.2,-6.1 25.2,-8.5 33.6,-10.1 50.5,-9.4 10.3,0.4 16.2,1.2 28.3,4.1 11.8,2.9 16.9,3.6 22.4,3.4 l 7.1,-0.3 -8.4,-3.4 c -12.3,-5 -40.1,-19.1 -50.3,-25.5 -4.8,-3.1 -9.2,-5.6 -9.6,-5.6 -0.4,0 -4.8,2.5 -9.6,5.6 -18.7,11.8 -65.3,33.3 -66.2,30.6 -0.2,-0.6 -10.5,-15 -22.8,-31.8 -12.3,-16.8 -22.4,-30.7 -22.4,-31 0,-0.2 1.8,-3.3 4,-6.9 9.3,-15.1 16.8,-33.1 21.5,-51.1 1.4,-5.4 2.7,-9.9 2.8,-10.1 0.2,-0.1 16.9,-2.8 37.2,-5.9 20.4,-3.1 38.5,-6.3 40.2,-7.1 6.3,-2.9 7.3,-6.1 7.3,-23.4 0,-17 -0.9,-20.3 -6.7,-23.2 -1.5,-0.8 -19.7,-4.1 -40.3,-7.2 -20.6,-3.2 -37.6,-5.9 -37.8,-6 -0.2,-0.1 -1.1,-3.8 -2.2,-8.1 -4.2,-17.4 -13.6,-40.1 -22.4,-53.8 -2,-3.1 -3.6,-5.9 -3.6,-6.2 0,-0.3 9.3,-13.3 20.7,-28.7 27.1,-36.9 25.3,-34.1 25.3,-39.6 0,-5.8 -2,-8.7 -13.3,-19.5 -9.1,-8.7 -13.3,-11.1 -18.3,-10.2 -2,0.4 -14.6,9 -34.5,23.6 l -31.3,23 -3.5,-2.2 c -10.5,-6.2 -18.1,-10.3 -26.2,-13.9 -8.9,-3.9 -27.9,-10 -35,-11.3 l -3.6,-0.6 -2.6,-16.8 c -1.5,-9.2 -2.7,-17.2 -2.7,-17.7 0,-0.7 5.9,-0.4 17.4,0.8 l 17.4,1.9 12.2,-5.2 c 16.6,-6.9 69.6,-33.9 66.9,-34 -0.4,0 -9.4,1.1 -20,2.5 -34.6,4.3 -73.1,5.5 -94.1,2.9 l -4.6,-0.6 -0.7,-4.8 c -0.8,-5.6 -3.4,-10.2 -7.2,-12.7 -2.1,-1.4 -5.3,-1.9 -14.6,-2.2 -16.9,-0.5 -20.4,0.2 -25,5.1 l -3.8,4 -4.7,-1.7 c -17.1,-6.5 -33.9,-16.5 -42.6,-25.4 l -4.9,-5 -1.8,2.3 c -7.2,9.2 -9.3,21.1 -5.1,29.2 5.2,10.2 22.2,20.7 44.2,27.4 5.8,1.8 10.6,3.4 10.8,3.5 0.2,0.2 -0.9,7.1 -5.4,35.7 l -1.7,10.7 -5.6,1.2 c -15.8,3.2 -42.2,14 -56,22.9 -3.8,2.5 -6.7,3.7 -7.5,3.3 -6.1,-3.7 -37.6,-27.8 -36.7,-28.1 0.6,-0.2 -2.7,-4.6 -7.4,-9.8 -10.5,-11.6 -14.5,-17.8 -20.6,-31.6 -6.9,-15.5 -9.3,-25.8 -9.3,-39.8 0,-13.4 1.6,-20.5 7.1,-31.5 4.4,-9 14.2,-20 20.9,-23.7 18.2,-9.9 49.6,-9.6 69,0.6 l 6.1,3.2 -2.8,-4.1 c -7.2,-10.7 -11.6,-21.2 -15.2,-36 -1.8,-7.5 -2.1,-11.9 -2.1,-26.5 0,-15.7 0.3,-18.5 2.7,-27.3 6.9,-25.9 20.2,-47.4 42.8,-69.2 16.4,-15.8 35.4,-29 60,-41.8 43,-22.3 88.8,-36 141.9,-42.2 16.9,-2 58,-2 71.5,0 46,6.9 82.7,19.7 117,40.8 4.4,2.7 9.6,5.9 11.5,6.9 1.9,1.1 4,2.4 4.6,2.9 0.7,0.6 2.9,0.1 5.9,-1.2 7,-3.1 18,-2.4 25.5,1.7 12.2,6.6 23,20.3 23,29.2 v 3.2 h 6.8 c 22.8,0.1 62.2,9.4 90.7,21.5 6.1,2.6 12.8,5.4 15,6.2 2.2,0.8 4.7,2 5.5,2.8 0.8,0.7 5.9,3.9 11.4,7 19.7,11.3 37.7,24.8 56.5,42.3 27.8,25.8 42.3,50.3 43.8,73.7 l 0.6,9.1 7.6,-1.4 c 9.1,-1.6 24.2,-1 32.1,1.4 25.4,7.5 42.4,29.2 43.8,55.5 0.5,11.3 -0.8,20.1 -4.9,32.1 -3.7,11 -12.2,28 -18.8,37.8 -3,4.4 -4.6,7.7 -4,8.1 0.8,0.5 -30,24.1 -36.7,28.2 -0.8,0.4 -3.7,-0.8 -7.5,-3.3 -13.8,-8.9 -40.2,-19.7 -56,-22.9 l -5.6,-1.2 -2.2,-14.2 c -1.2,-7.8 -2.5,-15 -2.8,-16.1 -0.5,-1.7 -0.1,-1.8 6.3,-1.1 3.8,0.4 10.5,1.3 14.8,2.1 4.4,0.7 8.1,1.2 8.4,1 0.7,-0.7 -23,-19 -32.6,-25.2 -0.2,-0.1 -0.6,-1.8 -0.9,-3.8 -0.4,-2.7 -0.2,-3.6 0.8,-3.6 2.8,0 13.5,-5.9 18.8,-10.4 10.7,-8.9 13.6,-14.5 11.5,-22.2 -0.5,-1.8 -1.2,-1.4 -6.7,4 -6.1,6 -14.5,11.2 -22.6,14 l -4,1.5 -1.9,-3.9 -1.9,-3.9 4.8,-1.6 c 9.3,-3.1 23.1,-13.8 26.9,-21 1.2,-2.2 1,-3 -2.1,-8 -6.9,-11.4 -25.6,-30.8 -26.7,-27.7 -0.2,0.7 -2.6,4.7 -5.4,8.9 -5.5,8.5 -18.4,21.9 -26.2,27.2 l -4.8,3.3 7.8,7.9 7.9,7.9 h -4.4 c -4.1,0 -4.9,-0.5 -13.7,-8.9 -23.5,-22.5 -55.2,-37.6 -94.7,-45.1 -15.4,-2.9 -18.8,-2.7 -23.2,1.1 -5,4.4 -5.8,6.3 -4.5,10.3 2.1,6.5 3.9,7.3 23.5,10.1 41.8,6 62.9,13 82.1,27.3 10.2,7.6 10.6,8 8.5,11.3 l -1.6,2.7 -8.3,-6.3 c -24.9,-18.7 -57.1,-28.8 -105.2,-32.9 l -15.5,-1.3 -6.5,5.7 c -3.6,3.1 -10.1,8.5 -14.5,11.9 -4.4,3.5 -8.4,6.7 -8.8,7.1 -0.5,0.4 3.3,2.9 8.4,5.5 5,2.6 20.2,10.8 33.7,18.2 38.8,21.3 59.8,31.3 80.5,38.3 l 9.8,3.4 9,-1.9 c 4.9,-1 9.2,-1.5 9.5,-1.2 0.4,0.3 -0.4,7.1 -1.6,15.1 l -2.3,14.6 -3.6,0.6 c -7.1,1.3 -26,7.4 -35,11.3 -8.1,3.6 -15.7,7.7 -26.2,13.9 l -3.5,2.2 -31.3,-23 c -19.9,-14.6 -32.5,-23.2 -34.5,-23.6 -5,-0.9 -9.2,1.5 -18.3,10.2 -11.3,10.8 -13.3,13.7 -13.3,19.5 0,5.5 -1.8,2.7 25.3,39.6 11.4,15.4 20.7,28.4 20.7,28.7 0,0.3 -1.6,3.1 -3.6,6.2 -8.8,13.7 -18.2,36.4 -22.4,53.8 -1.1,4.3 -2,8 -2.2,8.1 -0.2,0.1 -17.2,2.8 -37.8,6 -20.6,3.1 -38.8,6.4 -40.3,7.2 -5.8,2.9 -6.7,6.2 -6.7,23.2 0,17.3 1,20.5 7.3,23.4 1.7,0.8 19.8,4 40.2,7.1 20.3,3.1 37,5.8 37.2,5.9 0.1,0.2 1.4,4.7 2.8,10.1 4.7,18 12.2,36 21.5,51.1 2.2,3.6 4,6.7 4,6.9 0,0.3 -10.1,14.3 -22.5,31.2 -12.4,16.8 -22.8,31.7 -23.1,33 -0.7,2.6 -0.1,7.9 1,10.6 1.2,2.8 -3.6,4.1 -15.2,4.2 l -10.2,0.1 -0.4,3 c -0.3,1.7 -0.7,7.3 -1,12.6 -0.3,5.3 -1.3,13.1 -2.1,17.4 -4.2,20 -10.8,29.5 -23.8,33.9 -9.4,3.2 -33.2,4.5 -43.7,2.5 z m 13.4,-19.6 c 1,-6.5 0.7,-15.2 -1.4,-32.3 -1.1,-9.1 -2,-18.2 -2,-20.3 0,-4.4 0.5,-4.5 -16.2,1 l -10.8,3.5 v 11.2 c 0,16.6 2.4,26.8 7.9,33 3.2,3.6 12.3,7.1 19.7,7.5 1.7,0.1 2.3,-0.6 2.8,-3.6 z m 26.9,-0.4 c 7.1,-3.7 11.2,-17.2 12.4,-41.1 l 0.6,-12.6 -3.9,-1.1 c -5.5,-1.6 -24.9,-3.5 -27,-2.7 -1.5,0.6 -1.6,1.7 -1.1,10.9 0.4,5.6 0.9,11.3 1.3,12.7 0.3,1.4 0.8,10.3 1.1,19.9 l 0.6,17.3 6,-0.7 c 3.3,-0.3 7.8,-1.5 10,-2.6 z m -13.5,-357.7 c 1.4,-1.4 2.4,-5.2 3.6,-13.8 1,-6.5 1.9,-12.4 2.1,-13.1 0.2,-0.6 1.9,-1.4 3.7,-1.8 1.8,-0.4 7.1,-2.5 11.7,-4.6 4.6,-2.1 8.8,-3.6 9.5,-3.2 0.6,0.4 5.6,4 11,8 5.5,4 10.5,7.3 11.3,7.3 2,0 9.3,-7 9.9,-9.6 0.5,-1.9 -1.1,-4.7 -7.5,-13.4 l -8.1,-11.1 3.2,-6.2 c 1.7,-3.4 3.9,-8.7 4.8,-11.7 l 1.8,-5.5 11.8,-1.8 c 16.3,-2.5 16.8,-2.8 17.2,-10.4 0.4,-7.6 -0.7,-8.7 -9,-10.1 -3.5,-0.6 -9.5,-1.6 -13.4,-2.2 l -7.1,-1.1 -1.2,-5.2 c -0.6,-2.9 -2.7,-8.1 -4.6,-11.6 -1.9,-3.5 -3.1,-6.9 -2.8,-7.5 0.4,-0.6 4,-5.5 8,-10.9 4,-5.4 7.3,-10.6 7.3,-11.5 0,-2.4 -8.1,-10.2 -10.5,-10.2 -1.1,0 -6.7,3.4 -12.2,7.5 -5.6,4.1 -10.8,7.5 -11.5,7.5 -0.8,0 -2.4,-0.8 -3.7,-1.7 -1.4,-0.9 -6,-2.9 -10.4,-4.4 -4.4,-1.5 -8.3,-3.1 -8.7,-3.6 -0.4,-0.4 -1,-2.9 -1.3,-5.5 l -0.6,-4.7 7.6,-1.7 c 14,-3.1 30.5,-0.9 51.2,6.9 l 9.4,3.5 7.1,-5 c 25.2,-18 40.6,-32.6 40.6,-38.6 0,-2.5 -3.4,-3.2 -16.5,-3.2 -24.2,0 -40.5,5 -97.2,29.6 l -3.3,1.4 -0.6,-4.1 c -0.4,-2.2 -1.3,-4.7 -2.1,-5.5 -1.5,-1.4 -10.6,-2 -13.7,-0.8 -1.9,0.7 -3.1,5 -4.7,17.4 -0.6,5.2 -1.5,9.9 -1.9,10.3 -0.4,0.5 -4.3,2.1 -8.7,3.6 -4.4,1.5 -9,3.5 -10.4,4.4 -1.3,0.9 -2.9,1.7 -3.7,1.7 -0.7,0 -5.9,-3.4 -11.5,-7.5 -5.5,-4.1 -11.1,-7.5 -12.2,-7.5 -2.4,0 -10.5,7.8 -10.5,10.2 0,0.9 3.3,6.1 7.3,11.5 4,5.4 7.6,10.3 8,10.9 0.3,0.6 -0.9,4 -2.8,7.5 -1.9,3.5 -4,8.7 -4.6,11.6 l -1.2,5.1 -6.1,1 c -3.4,0.6 -9.4,1.6 -13.4,2.2 -9.4,1.5 -10.4,2.6 -10,10.3 0.4,7.6 0.9,7.9 17.2,10.4 l 11.8,1.8 1.8,5.5 c 0.9,3 3.1,8.3 4.8,11.7 l 3.2,6.2 -8.1,11.1 c -6.4,8.7 -8,11.5 -7.5,13.4 0.6,2.6 7.9,9.6 9.9,9.6 0.8,0 5.8,-3.3 11.3,-7.3 5.4,-4 10.4,-7.6 11,-8 0.7,-0.4 4.9,1.1 9.5,3.2 4.6,2.1 9.9,4.2 11.7,4.6 1.8,0.4 3.5,1.2 3.7,1.8 0.2,0.7 1.1,6.6 2.1,13.1 2,14.2 3,15.6 10.4,15.6 3.5,0 5.5,-0.5 6.8,-1.8 z m 398.9,-75.8 c 11.9,-17.1 20.4,-36.9 22.1,-51.6 2.9,-24.1 -10.1,-44 -32,-48.8 -7.5,-1.7 -23.7,-0.8 -30.7,1.6 -5.4,1.9 -5.5,2 -10,11 -2.5,4.9 -6.2,11.2 -8.2,14 -1.9,2.7 -4,6.1 -4.7,7.7 -0.6,1.5 -1.7,2.7 -2.4,2.7 -0.7,0 -4.2,2.5 -7.8,5.6 -3.6,3 -7.7,6.3 -9.2,7.2 -1.6,0.9 -2.8,1.9 -2.8,2.2 0.1,0.3 2.6,2.3 5.8,4.4 3.1,2.2 9.7,7.1 14.5,10.9 4.8,3.8 8.9,6.8 9.1,6.6 0.2,-0.2 2.5,-3.5 5,-7.3 6.5,-9.5 10.8,-18.4 15.2,-31 3,-8.7 4.1,-10.7 5.9,-11.2 2.9,-0.7 6.1,0.9 6.8,3.5 0.7,2.8 -5.5,20.9 -10.6,30.5 l -4.2,8.1 18.8,-0.4 c 16.9,-0.3 19,-0.1 20.8,1.4 2.4,2.2 2.5,5.7 0.2,7.8 -1.5,1.2 -5.3,1.6 -20.3,1.9 -16.4,0.3 -19,0.6 -23.2,2.5 -2.7,1.2 -4.8,2.4 -4.8,2.6 0,0.3 4,4.4 8.9,9.2 7.8,7.6 10.3,9.3 19.3,13.5 5.6,2.6 10.8,4.7 11.3,4.6 0.6,-0.1 3.8,-4.2 7.2,-9.2 z m -797.2,5.2 c 2.4,-1.3 8.6,-7.7 15.3,-15.7 l 11.3,-13.4 -2.8,-2.3 c -5.9,-5 -17,-11.7 -27.9,-16.8 -9.3,-4.4 -11.5,-5.8 -12,-7.9 -0.8,-3.1 1.9,-6.5 5,-6.5 2.3,0 25.1,10.8 29.7,14.1 3.2,2.3 3.5,1.7 1.9,-4.1 -0.5,-1.9 -1.6,-7.5 -2.5,-12.4 -1.3,-8 -1.3,-9.2 0,-11.2 0.8,-1.3 1.5,-2.9 1.5,-3.6 0,-2.2 5.9,-13.9 9.5,-18.8 3.9,-5.3 4,-5 -3.5,-9.2 -14.3,-8.1 -36.1,-9.5 -50,-3.2 -18.4,8.2 -26.6,34 -19.1,59.9 3.1,10.6 11.2,26.1 18.5,35.1 6.2,7.7 17.9,18.3 20.1,18.3 0.6,0 2.8,-1 5,-2.3 z m 62.5,-20.1 c 5.2,-0.9 9.6,-1.8 9.7,-1.9 0.2,-0.1 -4.2,-2 -9.8,-4.1 l -10.1,-3.8 -6.9,6.9 c -3.8,3.8 -6.9,7.1 -6.9,7.5 0,0.4 3.3,-0.1 7.3,-1.1 3.9,-1.1 11.5,-2.6 16.7,-3.5 z m 109.2,-63.3 c 1.4,-0.6 0.3,-1.8 -5.3,-6.2 -6.3,-4.9 -18.2,-17.3 -21.2,-22.2 -1.1,-1.6 -2.7,-1.8 -15.6,-1.8 -14.4,0 -31,-1.9 -39.6,-4.4 -2.5,-0.8 -4.5,-1.1 -4.5,-0.6 0,1.1 12.2,12.4 20.8,19.4 5.1,4.1 7.2,6.5 7.2,8.1 0,1.9 0.9,2.5 5.8,3.8 5.6,1.6 14.8,3.3 20.7,4 5.5,0.7 30,0.6 31.7,-0.1 z m 47.8,-2.3 c 10.2,-1.1 30.5,-5.1 36.4,-7.2 l 3.6,-1.2 -5.6,-4.5 c -6.2,-4.9 -15,-14.7 -20.4,-22.8 -2.2,-3.2 -4,-5 -5,-4.7 -3.4,1 -44.6,7.4 -58.7,9.1 -8.4,1.1 -15.3,2.3 -15.3,2.8 0,1.4 28,28.6 30.4,29.6 2.5,1 21.1,0.4 34.6,-1.1 z m 519.1,-8.7 c 2.4,-7.4 4.1,-33.2 2,-30.2 -0.6,0.8 -1.1,3.1 -1.1,5 0,4 -3.4,16.9 -5.4,20.9 -1.1,2 -1.1,3.6 -0.3,7.3 0.6,2.6 1.5,4.4 1.9,4.2 0.4,-0.3 1.7,-3.5 2.9,-7.2 z m -641.6,-1.5 c -6.5,-5.1 -20.1,-18.6 -24.7,-24.4 -3.1,-3.8 -6.4,-6.5 -11.8,-9.5 -4.1,-2.2 -9.7,-5.6 -12.3,-7.5 -2.7,-1.9 -5.1,-3.3 -5.3,-3.1 -0.8,0.9 5.6,12.7 10.1,18.6 8.5,11.2 20.6,19.5 37.8,25.8 5,1.8 9.4,3.3 9.7,3.3 0.3,0 -1.3,-1.4 -3.5,-3.2 z m 560.4,-4.1 c 12.2,-10.1 21.8,-21.1 26.8,-30.9 2.1,-4.2 2.3,-5.2 1.1,-6.1 -7.6,-6 -18,-13.4 -25.4,-18.2 -9.1,-5.8 -29.3,-17.4 -30.5,-17.4 -0.4,0 -1.2,3.7 -1.9,8.1 -1.9,13.1 -5.7,25.3 -13.6,43.6 -0.3,0.6 3.5,3.5 8.8,6.6 5.1,3 13.4,8.6 18.3,12.5 5,3.9 9.2,7.1 9.4,7.1 0.2,0.1 3.4,-2.3 7,-5.3 z m -376.6,-1 c 11.2,-4.1 39.4,-15.9 40.4,-17 0.3,-0.3 -0.4,-1.7 -1.5,-3.3 -2.8,-4 -6.7,-12 -8.6,-17.8 l -1.6,-5.1 -16.3,4.1 c -8.9,2.3 -24.4,5.9 -34.4,8 -10.1,2.2 -18.3,4.3 -18.3,4.8 0,2.8 24.7,30.7 27.2,30.7 0.5,0 6.3,-2 13.1,-4.4 z m 449.3,-11.8 c 1.5,-5.7 1.9,-11 1.9,-23.8 0,-15.5 -0.2,-16.8 -2.5,-21.3 -1.3,-2.6 -4.3,-7 -6.6,-9.7 -2.3,-2.7 -6.2,-8 -8.7,-11.7 -5.4,-8.1 -23.6,-26.3 -26.3,-26.3 -1.8,0 -1.5,0.9 2.3,8.8 2.3,4.8 5.1,12.1 6.3,16.2 2.7,9.7 3.7,24.7 2,33.3 l -1.2,6.6 10.3,10.4 c 5.7,5.8 12.4,13.7 14.9,17.5 2.5,3.9 4.8,7.1 5.1,7.1 0.4,0.1 1.5,-3.2 2.5,-7.1 z m -385.1,-14.7 c 22.7,-8.7 46.9,-15.2 72.5,-19.5 l 3.5,-0.6 v -17.3 l -10,0.7 c -18.6,1.2 -48.5,6.3 -74,12.7 -21.4,5.4 -19.6,4.6 -18.8,7.7 2.4,9.8 9.6,22.7 12.2,21.8 0.9,-0.3 7.5,-2.7 14.6,-5.5 z m -208.5,4.2 c 0,-0.4 -2,-4.8 -4.4,-9.8 -8,-16.5 -13.2,-36.1 -14.4,-54.8 l -0.7,-10.2 -21.5,-0.7 c -11.8,-0.4 -25.4,-1.3 -30.2,-2 l -8.7,-1.4 -0.7,4.3 c -0.7,5 1,21 3.3,30.3 2.6,10.9 8.9,25.1 14.5,33.2 2.7,3.9 19,8.7 37.3,11.1 5.5,0.7 25.5,0.7 25.5,0 z m 38,-4.3 c 19.5,-2.8 49.1,-7.7 49.7,-8.4 0.2,-0.1 -1.3,-3.9 -3.1,-8.3 -6.6,-15.5 -10.5,-35.6 -10.6,-53.2 v -10.3 l -3.2,0.6 c -1.8,0.3 -11.4,1.7 -21.3,3 -16.2,2.2 -24.4,3 -50.9,5.2 l -7.9,0.6 0.7,10.1 c 1.3,19.6 6.8,39.4 15.8,56.9 3.6,7.1 4.2,7.7 6.6,7.3 1.5,-0.3 12.4,-1.8 24.2,-3.5 z m 435.8,-4.2 c 5,-13.8 7.2,-21.7 8.7,-31.2 2.4,-14.7 2.8,-13.7 -7.2,-18.4 -10.1,-4.8 -30.6,-13.2 -31.1,-12.7 -0.2,0.2 0.8,3.4 2.1,7.2 5.3,14.7 6.1,35.3 1.9,47.8 -1.2,3.3 -1.8,6.1 -1.4,6.3 12.3,5.2 22,9 22.9,9.1 0.6,0.1 2.5,-3.6 4.1,-8.1 z m -32.8,-13.1 c 2.7,-16.5 -0.4,-34.5 -8.3,-48.9 -3,-5.5 -3.2,-5.7 -10.1,-7.7 -15.9,-4.7 -44.6,-9.9 -44.6,-8.1 0,0.4 1.2,1.7 2.6,3.1 12.8,11.9 24.6,38.2 25.8,57.2 l 0.5,7.1 11.3,2.3 c 6.2,1.2 13.3,2.8 15.8,3.6 3.1,0.9 4.7,1 5.1,0.3 0.4,-0.6 1.3,-4.6 1.9,-8.9 z m -326.2,3.7 c 14,-3 37.7,-8.6 52.2,-12.4 l 3.5,-0.9 -0.3,-14.7 c -0.5,-20.6 2.5,-38.9 9.2,-55.3 1.3,-3.3 2.1,-6.1 1.6,-6.1 -0.4,0 -11.6,2.7 -24.9,5.9 -13.2,3.3 -34.9,8.1 -48.1,10.7 l -24,4.8 v 12.1 c 0,18.4 3.4,36.1 10.2,52.1 1.7,4.1 3.3,7.4 3.5,7.4 0.3,0 8,-1.6 17.1,-3.6 z m -195.1,-5.1 c -6.3,-12.4 -10.7,-32.5 -10.7,-48.9 v -10.3 l -4.1,-1.1 c -2.6,-0.7 -4.5,-0.8 -5.1,-0.2 -2.4,2.4 -4.2,13.1 -4.2,25.2 0,15.7 1.8,23.2 6.6,27.3 4.3,3.6 19.2,13.7 19.6,13.2 0.2,-0.2 -0.8,-2.5 -2.1,-5.2 z m 478.8,-2.5 c -0.4,-2.9 -1.9,-8.9 -3.2,-13.3 -5,-15.8 -12.5,-27.9 -24.9,-40.1 l -8.3,-8.2 -4.8,0.5 c -15.6,1.6 -32.6,8.1 -43.5,16.8 -5.3,4.1 -14.8,14.9 -14.8,16.8 0,0.4 2.6,0.7 5.8,0.7 7.6,0 22.2,2.4 30.2,5 11.9,3.9 21.2,10.6 25,18.1 1.9,3.6 2.1,3.7 9.2,4.4 4,0.3 11.6,1.5 16.8,2.5 14.3,2.6 13.3,2.9 12.5,-3.2 z m 156,-4.3 c 1.7,-15.7 -5.1,-39 -15.6,-53.4 -5.8,-8.1 -40.9,-26.6 -71.3,-37.6 l -9.8,-3.5 7.9,7.7 c 13.9,13.7 22.6,30.1 25.2,47.3 0.7,4.1 1.5,7.6 2,7.8 6.9,2.4 48.4,28.4 56.1,35.1 1.9,1.6 3.8,3 4.2,3.1 0.3,0 1,-2.9 1.3,-6.5 z m -223.2,3 c 10.8,0 19.7,-0.3 19.7,-0.8 0,-1.2 -9,-6.6 -14.8,-8.7 -6.6,-2.5 -19.5,-4.7 -32.4,-5.5 -9.3,-0.6 -9.7,-0.5 -10.9,1.6 -0.6,1.3 -1.4,5.1 -1.7,8.6 l -0.5,6.3 10.4,-0.7 c 5.7,-0.5 19.3,-0.8 30.2,-0.8 z m -134.5,-11.4 c 28.1,-7.1 53.2,-11.3 77.2,-13.1 7.4,-0.5 14,-1 14.6,-1 0.6,0 1.7,-1.5 2.6,-3.2 3.1,-6.5 11.3,-16.2 18.5,-21.9 8.7,-6.9 18.5,-11.8 30.2,-15.2 8.3,-2.4 8.4,-2.5 6,-4 -9.8,-6.4 -32.2,-14.5 -50.3,-18.2 -25.9,-5.2 -54.9,-5.5 -81.6,-0.6 -16.5,3 -18.8,3.8 -21.1,7.4 -5.9,9.7 -12.3,32 -14,49.1 -1.2,11.5 -0.5,24.6 1.2,24.6 0.6,0 8.1,-1.8 16.7,-3.9 z m 284.7,-36.3 c -3.9,-15.2 -14.1,-30.6 -27.2,-41.1 -15.1,-12 -22.8,-16 -34.5,-17.7 -9,-1.3 -25.8,-2.7 -25.8,-2.2 0,0.3 1.5,2.5 3.4,5.1 1.8,2.5 4.3,6.4 5.4,8.6 1.2,2.2 5.9,7.5 10.6,11.8 4.7,4.3 11.7,11.7 15.5,16.5 l 7,8.7 9.8,3.3 c 5.4,1.8 15.9,5.9 23.3,9.1 7.4,3.2 13.6,5.5 13.8,5 0.2,-0.4 -0.4,-3.6 -1.3,-7.1 z m -500.3,-18.8 c 3.5,-39.8 23.1,-80.7 50.8,-106.4 3.4,-3.1 5.7,-5.6 5.3,-5.6 -1.6,0 -26.5,8.6 -37.7,13 -9,3.5 -12.5,5.5 -20.5,12 -29.3,23.6 -49.3,53.5 -56.6,84.5 -0.8,3.3 -1.5,6.5 -1.5,7.2 0,2.5 16.3,4.1 41,3.9 l 18.5,-0.1 z m 31.9,6.5 c 17,-1.7 33.7,-3.8 47.4,-6.1 14.9,-2.4 14.5,-2.3 14.5,-5.1 0,-4.7 4.1,-22.8 7.6,-33.2 11.7,-35.3 35.1,-64.6 65.1,-81.7 4.3,-2.5 7,-4.5 6.2,-4.8 -2.8,-0.9 -19,-1.7 -33.2,-1.7 -13.6,0.1 -31.6,1.8 -43.6,4.2 -14.8,3 -42.7,26.5 -57.9,48.6 -14.9,21.8 -24.8,48.9 -27.6,75.6 l -0.6,5.7 h 3.4 c 1.8,0 10.2,-0.7 18.7,-1.5 z m -102.7,-5.7 c 2,-9.7 3.3,-14.4 5.9,-21.8 3.1,-9.1 9.2,-21.8 13.4,-28.2 7.2,-10.8 -3.6,0.2 -12,12.3 -8.5,12.2 -16.3,30.5 -15.5,36.1 0.2,1.4 1.3,2.5 2.8,2.9 4.2,1.2 4.9,1 5.4,-1.3 z m 500.6,-5.1 c -22.9,-22.1 -57.2,-43 -101.1,-61.6 -11.7,-4.9 -20.3,-5.9 -36.2,-4.2 -22.2,2.4 -39.9,9.9 -56.4,23.8 -5.1,4.4 -12.9,13.1 -12.2,13.7 0.2,0.2 5.4,-0.5 11.4,-1.5 14.7,-2.5 44.7,-3.5 59,-2 32.6,3.6 60.6,13 82.6,27.7 l 7.5,5.1 14,0.6 c 9,0.4 17.8,1.4 24.9,3 6.1,1.3 11.7,2.5 12.5,2.5 0.8,0.1 -1.9,-3.1 -6,-7.1 z m -302.7,-4.2 c 22.2,-4.6 50.3,-11.4 69.5,-16.7 l 11.3,-3.1 4.1,-6 c 5,-7.4 17,-20.1 24.2,-25.7 13.3,-10.2 30.7,-17.6 48,-20.3 4.8,-0.8 8.9,-1.7 9.2,-1.9 0.5,-0.6 -20.5,-12.8 -31.6,-18.3 -17.8,-8.9 -51.4,-19.5 -61.9,-19.5 -4.2,0 -19.4,6 -28.6,11.3 -31.6,18.3 -54.6,49.9 -63.8,87.7 -3.8,15.4 -4,17 -2.7,17 0.6,0 10.6,-2 22.3,-4.5 z m 282.2,-29.5 c -2.7,-2.8 -5.4,-4.9 -6,-4.6 -0.5,0.2 -2.7,-0.5 -4.8,-1.6 -2.2,-1.1 -4.1,-1.8 -4.2,-1.6 -0.5,0.5 18.9,13.5 19.4,13.1 0.3,-0.2 -1.7,-2.6 -4.4,-5.3 z m 100.1,5.1 c -0.8,-1.2 -23,-11.1 -35,-15.6 -18.1,-6.7 -53.4,-14.5 -65.9,-14.5 -3,0 -3.5,0.4 -4.5,3.7 -0.6,2 -1,3.8 -0.9,3.9 0.1,0.1 7,0.4 15.2,0.7 24.9,0.8 61.1,9.3 84.6,20.1 5.9,2.7 7.3,3 6.5,1.7 z m -111,-32.7 c 1.4,-9.9 -1.3,-17.9 -8.8,-25.1 -5.5,-5.3 -11.9,-8.2 -18.2,-8.3 -4.9,0 -12.6,1.8 -12.6,2.9 0.1,0.3 3.1,2.9 6.7,5.6 3.7,2.8 12.1,10.5 18.7,17.2 6.7,6.7 12.4,12.2 12.8,12.3 0.4,0 1,-2.1 1.4,-4.6 z m -19.1,-4.7 c -14.3,-12.7 -20.3,-16.9 -37.5,-25.6 -28.6,-14.5 -53.2,-23.3 -77.2,-27.7 -8.5,-1.5 -33.8,-3.1 -33.8,-2.1 0,0.3 3.2,1.5 7.1,2.7 15.1,4.6 30.3,11.8 55.3,26.3 21,12.1 24.4,13.5 38.8,16.2 15.4,2.8 29.8,7 43,12.3 5.1,2.1 9.5,3.7 9.7,3.5 0.3,-0.2 -2.2,-2.7 -5.4,-5.6 z m -178.5,-63.7 c 5,-1.5 22.5,-3.9 29,-4.1 4.4,-0.1 5,-0.2 2.8,-0.9 -12.5,-3.8 -56.2,-4.6 -78.3,-1.5 l -14,1.9 16,1.3 c 8.8,0.7 20.5,1.9 26,2.7 13.1,1.7 14.4,1.8 18.5,0.6 z m 383,751.1 c 0,-1.6 3.1,-20.5 3.4,-20.8 0.1,-0.2 4.5,-1.4 9.7,-2.7 17.5,-4.4 36.3,-12.3 51.5,-21.7 3.6,-2.2 6.9,-3.9 7.3,-3.7 1.9,0.8 37.1,27.1 37.1,27.7 0,0.4 -5.1,2 -11.2,3.6 -6.2,1.6 -14.8,4.3 -19.1,6.2 -9.1,3.8 -22.5,7.6 -35.2,9.8 -11.6,2.1 -43.5,3.3 -43.5,1.6 z m -646.5,-2.2 c -11.7,-1 -26.7,-3.9 -38,-7.4 -4.4,-1.3 -11.4,-3.1 -15.5,-4 -14.3,-3 -29,-6.9 -29,-7.6 0,-0.6 35.2,-26.9 37.1,-27.7 0.4,-0.2 3.7,1.5 7.3,3.7 15.2,9.4 34,17.3 51.5,21.7 5.2,1.3 9.6,2.5 9.7,2.7 0.2,0.1 0.8,3.4 1.4,7.2 0.6,3.9 1.3,8.2 1.6,9.8 l 0.6,2.7 -8.4,-0.1 c -4.6,-0.1 -12.8,-0.6 -18.3,-1 z m 93.5,-2.9 c 0,-1.1 0.5,-5.2 1.1,-9.1 1.1,-6.3 1.5,-7 3.8,-7.5 20.4,-4.5 41.5,-12.9 58.7,-23.5 3.6,-2.2 6.9,-3.9 7.3,-3.7 1.9,0.8 40,29.2 39.7,29.6 -0.9,0.9 -18,4.3 -38.1,7.7 -20.8,3.4 -46.8,6.7 -63.7,8 -8.5,0.7 -8.8,0.6 -8.8,-1.5 z m 474,1.3 c -27,-2 -95.9,-12.9 -98.6,-15.5 -0.3,-0.4 37.8,-28.8 39.7,-29.6 0.4,-0.2 3.7,1.5 7.3,3.7 17.2,10.6 38.3,19 58.7,23.5 2.3,0.5 2.7,1.2 3.8,7.5 0.6,3.9 1.1,7.9 1.1,9 0,2.2 -0.5,2.3 -12,1.4 z m -718.2,-44.2 c -53.5,-29.8 -87.6,-72.3 -98.9,-123.3 -3,-13.6 -3.8,-44.4 -1.4,-59.2 8.5,-54.5 45.5,-102.5 102.1,-132.7 8.2,-4.5 9.9,-5 10.8,-3.8 9.6,12.8 41.6,56.8 41.6,57.3 0,0.3 -1.9,3.6 -4.2,7.3 -9.1,14.9 -18.4,37.4 -22.2,54.2 -0.8,3.4 -1.6,6.4 -1.8,6.6 -0.2,0.1 -17.2,2.8 -37.8,6 -20.6,3.1 -38.8,6.4 -40.3,7.2 -5.7,2.9 -6.7,6.2 -6.7,22.6 0,16.3 0.9,20.1 5.8,23.3 1.7,1.1 14.7,3.6 40.6,7.6 20.9,3.2 38.2,6.1 38.4,6.2 0.1,0.2 1.6,5.4 3.2,11.5 4.8,18.2 11.7,34 23.5,53.7 l 1.8,3.1 -7,9.4 c -3.8,5.2 -13.4,18.2 -21.2,28.9 -7.9,10.7 -14.6,19.6 -14.9,19.8 -0.4,0.1 -5.5,-2.5 -11.4,-5.7 z m 951.2,-9.9 c -6.3,-8.6 -15.9,-21.7 -21.4,-29.1 l -9.9,-13.4 1.8,-3.1 c 11.8,-19.7 18.7,-35.5 23.5,-53.7 1.6,-6.1 3.1,-11.3 3.2,-11.5 0.2,-0.1 17.5,-3 38.4,-6.2 25.9,-4 38.9,-6.5 40.6,-7.6 4.9,-3.2 5.8,-7 5.8,-23.3 0,-16.4 -1,-19.7 -6.7,-22.6 -1.5,-0.8 -19.7,-4.1 -40.3,-7.2 -20.6,-3.2 -37.6,-5.9 -37.8,-6 -0.2,-0.2 -1,-3.2 -1.8,-6.6 -3.8,-16.8 -13.1,-39.3 -22.2,-54.2 -2.3,-3.7 -4.2,-7 -4.2,-7.3 0,-0.5 32,-44.5 41.6,-57.3 0.9,-1.2 2.6,-0.7 10.8,3.8 56.2,30 93.5,78.1 102,131.7 2,12.9 2.1,38.6 0.1,51.4 -8.3,54.1 -43.5,100.5 -100.3,132.1 -5.8,3.2 -10.9,5.9 -11.2,5.9 -0.3,0 -5.7,-7.1 -12,-15.8 z"
         id="path64" />
      <path
         style="fill:#a8c5d7"
         d="m -589.78,2183.22 c -1,-0.3 -1.3,-5.2 -1.3,-19.6 0,-10.6 -0.5,-67.8 -1.2,-127.2 -1.4,-131.5 0.1,-238.8 4.2,-299.5 0.5,-7.4 0.9,-15.1 0.9,-17.1 v -3.7 l 4.1,1.4 c 6.1,2.1 9.8,0.6 22.4,-8.9 l 11,-8.2 16,3.9 c 8.9,2.1 20.6,5.2 26.1,6.7 21.6,6.2 39,8.9 58,8.9 5.8,0 10.5,0.4 10.5,0.9 0,4.2 8.4,54.4 9.5,56.9 2.8,6.2 6,7.2 23.5,7.2 17.5,0 20.6,-1 23.5,-7.2 0.8,-1.8 3.4,-15.9 5.8,-31.3 l 4.2,-28 14.5,-1.1 c 18.2,-1.5 37.2,-3.8 56.5,-7 14.4,-2.4 37.2,-7 39.8,-8 0.7,-0.2 5.9,3 11.6,7.2 5.8,4.2 11.8,8 13.5,8.5 5.2,1.5 9.6,-0.5 16.4,-7.4 l 6.4,-6.4 4.1,1.5 c 2.4,0.9 9,1.7 14.9,2 5.9,0.2 10.6,0.7 10.3,1.2 -0.8,1.4 1.5,23.5 3.1,29 0.9,3 1.6,6.3 1.7,7.3 0.1,0.9 0.4,1.7 0.7,1.7 0.4,0 1.6,1.7 2.8,3.7 8.4,15 26.5,21.7 52,19.3 13,-1.2 17.8,-2.2 23.7,-5.2 3.8,-2 10.9,-7.5 11.1,-8.7 0,-0.3 1.3,-3.1 2.8,-6.2 4.7,-9.9 8.6,-30.7 8.6,-45.6 v -4.8 l 8.5,0.3 c 5.4,0.2 10.3,-0.2 13.4,-1.1 l 4.9,-1.4 9.9,9.9 c 14.5,14.6 16.5,14.8 33.4,2.4 5.7,-4.2 10.9,-7.4 11.6,-7.2 0.7,0.3 6.5,1.6 13,3 26.7,5.6 64.5,11 85.8,12.2 l 12,0.7 4.3,28.6 c 2.4,15.7 5,29.8 5.8,31.4 3,5.8 6.2,6.7 23.4,6.7 13.6,0 15.9,-0.2 18.7,-2 1.7,-1 3.7,-2.9 4.5,-4.2 0.7,-1.3 3.1,-14.2 5.3,-28.8 l 4.1,-26.5 5.5,-0.2 c 16.5,-0.8 35.1,-2.6 44.2,-4.3 10.9,-2.1 26.6,-6.9 32.9,-10.1 2,-1 7.8,-3 13,-4.4 5.1,-1.3 10.6,-2.9 12.3,-3.3 2.7,-0.8 4,0 15,8.1 13.9,10.3 13.5,9.4 13.3,27.8 0,6.4 0.1,12 0.4,12.5 0.4,0.5 0.9,16 1.3,34.4 0.3,18.4 1,53.5 1.5,78 2.9,142.1 3.4,191.9 2.2,238.6 -1.3,50 -2.6,73.6 -4.2,79.7 l -1.1,3.7 -452.7,-0.1 c -249,0 -453.3,-0.3 -453.9,-0.6 z m 597.6,-6 109.4,-0.6 -0.6,-9.6 c -0.8,-12.5 -3.9,-26.7 -12.6,-58.6 -3.9,-14.3 -8.9,-35 -11,-46 -8.3,-41.7 -18.5,-66.9 -41.2,-101 -18.6,-27.9 -31.7,-41.7 -53.8,-56.6 -37.9,-25.6 -87.7,-38.4 -142.1,-36.6 -76.5,2.6 -139.9,30.2 -190.7,83.1 -50.7,52.7 -79.4,126.1 -83,211.6 l -0.6,16.3 158.4,-0.6 c 87.1,-0.4 207.6,-1 267.8,-1.4 z m 129,-533.9 c -3.1,-0.4 -9.8,-6.8 -59.9,-56.7 l -56.4,-56.2 v -15.7 c 0,-8.7 0.3,-16.1 0.7,-16.5 0.4,-0.4 33.3,31.8 72.9,71.5 39.7,39.6 72,72.3 71.7,72.6 -0.7,0.7 -24.6,1.5 -29,1 z m 27.7,-144.3 -88.8,-88.8 5.8,-3.5 c 3.3,-2 8.2,-4.7 11,-6.1 l 5,-2.6 84,84 84,84 -3.9,7.6 c -2.1,4.2 -4.8,9.1 -6.1,10.9 l -2.2,3.3 z m -581.7,144.3 c -3.1,-0.4 -9.8,-6.8 -59.9,-56.7 l -56.3,-56.2 v -15.7 c -0.1,-8.7 0.3,-16.1 0.7,-16.5 0.4,-0.4 33.2,31.8 72.8,71.5 39.7,39.6 72,72.3 71.7,72.6 -0.7,0.7 -24.6,1.5 -29,1 z m 27.7,-144.3 -88.8,-88.8 5.8,-3.5 c 7.7,-4.7 14,-7.8 15.6,-7.8 0.7,0 38.9,37.6 84.8,83.5 l 83.5,83.5 -1.7,4 c -1.4,3.3 -9.7,18 -10.2,18 0,0 -40.1,-40 -89,-88.9 z m 34.4,-34.5 -74.5,-74.5 3.5,-0.5 c 14.7,-2.4 34.9,-1.6 49.5,2.1 l 7,1.8 43.3,43.5 43.3,43.6 2.1,10 c 1.7,7.9 2.1,13.1 2,25.9 0,8.8 -0.4,17.5 -0.9,19.2 l -0.8,3.3 z m 554,-0.1 -74.5,-74.4 3.5,-0.5 c 14.3,-2.4 35.6,-1.5 49.5,2 l 6,1.5 42.5,42.5 c 23.4,23.4 42.8,42.3 43,42.2 0.3,-0.2 0.4,-0.1 0.3,0.1 -0.2,0.2 0.1,0.9 0.6,1.5 1.6,1.8 3.9,13.7 5.2,25.5 0.9,8.5 0.9,13.8 0,22.3 -0.7,6.2 -1.3,11.3 -1.4,11.5 -0.2,0.1 -33.8,-33.3 -74.7,-74.2 z m 64,-143 c -3.6,-1.9 -8.5,-4.1 -11,-5 -3.3,-1.1 -6.9,-3.9 -13.3,-10.3 l -8.8,-8.8 3.8,-1.7 c 6.2,-2.8 13.7,-3.7 29.4,-3.7 h 14.9 l 1.7,-2.6 c 1.5,-2.4 1.5,-2.9 0.2,-5.3 -1.4,-2.5 -2,-2.6 -13.3,-3.5 -7,-0.5 -15,-0.5 -19.7,0.1 -4.4,0.5 -7.8,0.6 -7.7,0.3 0.2,-0.3 2.1,-3.9 4.2,-8 3.9,-7.5 10.6,-25.9 10.6,-29 0,-2.4 -3.3,-5 -6.3,-5 -3.1,0 -4.9,2.4 -6.7,9.3 -0.7,2.6 -1.6,4.7 -2.1,4.7 -0.5,0 -0.6,0.6 -0.3,1.4 0.3,0.7 -0.2,2 -1,2.9 -0.8,0.8 -1.3,1.7 -1,2 0.8,0.8 -6.3,14.4 -11.7,22.4 l -4.9,7.2 -7.9,-6.3 c -4.3,-3.5 -10.6,-8.3 -14,-10.7 -3.3,-2.3 -6.1,-4.5 -6.1,-4.8 0,-0.4 2.5,-2.3 5.5,-4.5 2.9,-2.1 6.6,-5.1 8.1,-6.7 1.5,-1.6 3.6,-2.9 4.6,-2.9 1.2,0 2.5,-1.4 3.6,-3.8 0.9,-2.1 3.4,-6.1 5.5,-8.9 2.1,-2.8 5.5,-9 7.7,-13.6 l 4,-8.5 7.2,-1.8 c 15.6,-4 34.1,-1.8 43.7,5.3 4.2,3.1 9.8,9.3 8.4,9.3 -0.4,0 0,0.5 1,1.1 0.9,0.6 1.5,1.4 1.2,2 -0.4,0.5 -0.1,0.9 0.5,0.9 0.6,0 0.8,0.5 0.5,1 -0.3,0.6 -0.1,1 0.6,1 0.7,0 1,0.3 0.6,0.6 -0.3,0.4 0,1.3 0.8,2 4,4 4.5,20.2 1,34 -2.6,10.2 -11.9,30.8 -15.5,34.4 -1.1,1.1 -1.7,2 -1.2,2 0.4,0 -0.2,0.7 -1.2,1.5 -1.1,0.8 -1.6,1.5 -1.2,1.5 0.6,0 -4.8,8.3 -7.3,11.2 -0.3,0.3 -3.5,-0.9 -7.1,-2.7 z m -792.6,-1.7 c -10.9,-8.1 -21.2,-21 -27.8,-34.9 -6.1,-12.6 -8.6,-22.7 -8.6,-34.8 0,-10.6 1.4,-17.1 5.3,-24.6 2.3,-4.5 10.8,-15.1 9.2,-11.5 -0.4,0.8 0.2,0.5 1.2,-0.7 4.9,-6 25.5,-9 39.7,-5.8 8.3,1.8 21.5,8 21.2,9.9 -0.1,0.6 -2.1,3.9 -4.4,7.4 -2.2,3.5 -4.8,8.4 -5.7,11 -0.9,2.6 -2.3,6.1 -3.2,7.8 -1.6,3.3 -0.9,10.6 2.1,23.7 0.7,3.1 1.1,5.7 0.9,5.7 -0.3,0 -1.8,-0.9 -3.4,-2.1 -1.6,-1.1 -8.6,-4.7 -15.6,-8 -10.6,-5.1 -13.1,-5.9 -15,-5 -2.6,1.2 -4.1,5.7 -2.6,8 0.5,0.9 7.3,4.8 15,8.6 12.9,6.5 22.3,12.4 25.3,16 1,1.2 -0.1,2.9 -6.2,10.2 -4,4.8 -8.8,10.7 -10.7,13 -1.9,2.5 -5.1,5.1 -7.8,6.3 -5.6,2.5 -5.4,2.5 -8.9,-0.2 z m 50,-16.6 c 0.4,-2.3 11,-12.3 12.6,-11.8 0.8,0.3 5.1,2 9.6,3.8 l 8,3.3 -15.2,3 c -11.2,2.2 -15.1,2.7 -15,1.7 z m 565.6,-2.1 c -22,-7.9 -40.1,-16.5 -74.3,-35.3 -11.1,-6.1 -26.2,-14.3 -33.6,-18.2 l -13.4,-7 3.8,-3.1 c 2.1,-1.6 7.9,-6.4 12.8,-10.5 l 11.1,-9.3 c 2.1,-1.7 3,-1.8 20.3,-0.3 44.8,3.9 73.3,12.6 98.4,29.7 13.5,9.2 12.6,6.2 8.8,31.1 -1.7,11.7 -3.5,21.7 -3.9,22.1 -0.6,0.7 -17.3,4.8 -18.9,4.6 -0.4,0 -5.3,-1.7 -11.1,-3.8 z m 121,1.8 c 0,-0.5 -0.4,-0.8 -0.9,-0.5 -0.6,0.4 -24.7,-2.7 -26.7,-3.4 -0.1,0 -0.7,-3.7 -1.4,-8.2 -0.6,-4.6 -1.4,-9.2 -1.6,-10.3 -0.2,-1.1 -0.1,-1.4 0.2,-0.7 0.3,0.6 1,1 1.5,0.6 0.5,-0.3 1.2,0.2 1.5,1 0.3,0.9 1,1.4 1.4,1.1 0.5,-0.3 1.6,0.5 2.4,1.7 0.9,1.2 1.6,1.8 1.6,1.3 0,-0.6 1,0.1 2.1,1.5 1.1,1.4 1.7,1.8 1.3,1 -0.4,-0.8 3,1.5 7.5,5 4.6,3.5 8.5,7 8.8,7.7 0.3,0.7 0.9,1.1 1.3,0.8 0.4,-0.3 1.3,0.2 2,1 0.9,1 0.9,1.5 0.1,1.5 -0.6,0 -1.1,-0.5 -1.1,-1.1 z"
         id="path66" />
    </g>
  </g>
</svg>
