<?xml version="1.0" encoding="UTF-8"?>
<svg width="639mm" height="429mm" version="1.1" viewBox="0 0 2417 1621" xmlns="http://www.w3.org/2000/svg"><defs><clipPath id="g"><path d="m0 400h550v-400h-550z"/></clipPath><clipPath id="f"><path d="m0 400h550v-400h-550z"/></clipPath><clipPath id="e"><path d="m0 400h550v-400h-550z"/></clipPath><clipPath id="d"><path d="m0 400h550v-400h-550z"/></clipPath><clipPath id="c"><path d="m0 400h550v-400h-550z"/></clipPath><clipPath id="b"><path d="m0 400h550v-400h-550z"/></clipPath><clipPath id="a"><path d="m0 400h550v-400h-550z"/></clipPath></defs><g transform="translate(-127 -56)"><g transform="matrix(4.7 0 0 4.7 -400 -160)"><ellipse cx="368" cy="344" rx="185" ry="33" fill-opacity=".13"/><g transform="matrix(1.2 0 0 -1.2 -38 468)"><g clip-path="url(#g)"><g transform="translate(424 320)"><path d="m0 0-6.6 5.2c46 8.8 76-2.7 91-34 6.3-21 2.3-36-12-45-2.1-1.2-4.3-2.2-6.7-3.2 0.045-0.13 0.086-0.27 0.12-0.4 11-33-1.7-51-38-56l-6.2 5.2c21 3.3 34 12 37 26 0.015 0.079 0.032 0.16 0.049 0.25 1.3 6.4 0.8 14-1.5 22-11 2.1-21 5.6-30 10-12 7.2-21 17-25 28-4 10-4.9 22-2.9 36l27-21h16l-5.5-19 16 9v-22l14 6.5 7.5-6.5-5.5 10-14-6.5v22l-16-9 5.5 19h-16z" fill="#b70f37" fill-rule="evenodd"/></g><g transform="translate(150 268)"><path d="m0 0-3-6zm30-80c-3.8 1.1-7.2 2.4-10 4-17 8.9-22 26-14 50-21 8.5-28 25-21 50 7.6 17 19 28 35 33 20 2.2 37 0.58 50-4.9l-28-23h-15l5.4-19-16 9v-22l-14 6.5-2.3-4.5 15-10 7.5 14 9.5-14 6 15 9.5-7 5.5 9 18 5.8c2.3-13-4.4-26-20-39-9.7-3.7-22-4.3-37-2-5.1-19-1.2-33 12-41 2.7-1.7 5.8-3.2 9.4-4.5z" fill="#99203d" fill-rule="evenodd"/></g><g transform="translate(166 269)"><path d="m0 0c0.68-1.3 1.6-2.3 2.8-3.1l-4.1-8-15 10 2.3 4.5 14-6.5zm12-4.8c2.1 0.14 4.5 0.56 7.1 1.2l-3-7.5z" fill="#6e2335" fill-rule="evenodd"/></g><g transform="translate(201 242)"><path d="m0 0c16 12 22 25 20 39l6.8 2.2c-2.3-21-11-35-27-41m19 79c-13 5.5-29 7.1-50 4.9 14 5 32 5.3 54 1 0.92-0.18 1.8-0.37 2.8-0.58z" fill="#ba3b59" fill-rule="evenodd"/></g><g transform="translate(418 325)"><path d="m0 0-1 0.8c48 10 79-1.2 94-34 6.7-22 1.8-38-15-47 14 9.3 18 24 12 45-15 32-45 43-91 34" fill="#ea5b7d" fill-rule="evenodd"/></g><g transform="translate(424 315)"><path d="m0 0c0.23 1.6 0.5 3.2 0.82 4.9l28-22h16l-5.5-19 16 9v-22l14 6.5 5.5-10-7.5 6.5-14-6.5v22l-16-9 5.5 19h-16z" fill="#83243a" fill-rule="evenodd"/></g><g transform="translate(180 188)"><path d="m0 0 4.9 6c3.9-1.4 8.3-2.5 13-3.2l-6-5.2c-4.4 0.6-8.4 1.4-12 2.5" fill="#83253b" fill-rule="evenodd"/></g><g transform="translate(166 266)"><path d="m0 0-14 6.5-2.3-4.5m0 0-3-6" fill="none" stroke="#762337" stroke-linecap="round" stroke-linejoin="round" stroke-miterlimit="3"/></g></g></g><g transform="matrix(1.2 0 0 -1.2 -38 468)"><g clip-path="url(#f)"><g transform="translate(423 119)"><path d="m0 0c-2.6-1.4-4.7-3.2-6.2-5.6 1.5 2.3 3.6 4.2 6.2 5.6m-6.1 8c3-2 5-4.6 6.1-8 1.3-4.2 1.2-9.4-0.45-16-1.7 2-3.5 3.8-5.2 5.3-0.018 1.8-0.21 3.4-0.57 4.9-0.093 0.36-0.19 0.71-0.3 1.1-1 3.1-2.8 5.6-5.4 7.6 1.5 1.9 3.5 3.5 5.8 5-2.4-1.4-4.3-3.1-5.8-5-0.21 0.15-0.42 0.3-0.65 0.45-1.1 0.73-2.3 1.4-3.8 1.9-1-0.088-2-0.24-2.8-0.45 1.7 2.9 4.8 4.6 9.3 5 1.4-0.53 2.7-1.2 3.8-1.9m-183-14c-0.33-1.5-0.52-3.1-0.55-4.9-1.6-1.5-3.2-3.3-4.8-5.3-1.5 6.4-1.6 12-0.4 16 2.4-1.4 4.3-3.2 5.7-5.6m-0.1 14c1 0.73 2.2 1.4 3.5 1.9 4.2-0.4 7-2 8.5-5-0.77 0.2-1.6 0.35-2.6 0.45-1.3-0.53-2.4-1.2-3.4-1.9-0.2-0.13-0.4-0.28-0.6-0.45-1.4 1.9-3.1 3.6-5.4 5 2.2-1.4 4-3.1 5.4-5-2.4-1.9-4.1-4.4-5-7.6-0.066-0.33-0.15-0.68-0.25-1.1-1.4 2.3-3.3 4.2-5.7 5.6 1 3.4 2.9 6 5.6 8" fill="#841e36" fill-rule="evenodd"/></g><g transform="translate(423 119)"><path d="m0 0c-2.6-1.4-4.7-3.2-6.2-5.6m-5.8 8.6c1.5 1.9 3.5 3.5 5.8 5m-189-8c2.4-1.4 4.3-3.2 5.7-5.6m5.2 8.6c-1.4 1.9-3.1 3.6-5.4 5" fill="none" stroke="#57202d" stroke-linecap="round" stroke-linejoin="round" stroke-miterlimit="3"/></g></g></g><g transform="matrix(1.2 0 0 -1.2 -38 468)"><g clip-path="url(#e)"><g transform="translate(410 122)"><path d="m0 0c0.23-0.15 0.44-0.3 0.65-0.45 2.6-1.9 4.4-4.4 5.4-7.6-1.3-0.69-2.5-1.5-3.6-2.4-1.8-1.7-3.3-3.7-4.2-6.2-2.6 2-5.1 3.5-7.5 4.6 0.48 2.1 1.3 4 2.4 5.8 1.6 2.4 3.9 4.5 6.8 6.2-2.9-1.7-5.1-3.8-6.8-6.2-1.1-1.7-2-3.7-2.4-5.8-1.8 0.73-3.5 1.2-5.3 1.5-0.35 6.6 2.3 11 7.9 12 0.87 0.21 1.8 0.36 2.8 0.45 1.4-0.53 2.6-1.2 3.8-1.9m-1.7-17c1 2.4 2.4 4.5 4.2 6.2 1 0.94 2.2 1.8 3.6 2.4 0.11-0.34 0.21-0.7 0.3-1.1 0.37-1.5 0.56-3.1 0.58-4.9 0.03-2.9-0.41-6.2-1.3-9.8-2.5 2.8-4.9 5.2-7.4 7.2m-162 4.6c-0.43 2.1-1.1 4-2 5.8-1.3 2.5-3.2 4.6-5.6 6.2 2.4-1.7 4.3-3.8 5.6-6.2 0.93-1.7 1.6-3.6 2-5.8m-6.3-4.6c-0.83 2.4-2 4.5-3.6 6.2-0.83 0.93-1.8 1.8-3 2.4 1.1-0.7 2.1-1.5 3-2.4 1.5-1.7 2.7-3.7 3.6-6.2m1.8 18c0.83-0.099 1.6-0.25 2.3-0.45 4.7-1.4 7-5.4 6.6-12-1.5-0.27-2.9-0.77-4.4-1.5-2-1.1-4.1-2.6-6.3-4.6-2-2-4-4.4-6.1-7.2-0.77 3.6-1.2 6.9-1.2 9.8 0.033 1.8 0.2 3.4 0.5 4.9 0.1 0.37 0.18 0.72 0.25 1.1 0.83 3.1 2.4 5.6 4.6 7.6 0.17 0.17 0.35 0.32 0.55 0.45 0.93 0.73 2 1.4 3.2 1.9" fill="#a5183a" fill-rule="evenodd"/></g><g transform="translate(416 114)"><path d="m0 0c-1.3-0.69-2.5-1.5-3.6-2.4-1.8-1.7-3.3-3.7-4.2-6.2m-7.5 4.6c0.49 2.1 1.3 4 2.4 5.8 1.6 2.4 3.9 4.5 6.8 6.2m-164-12c-0.43 2.1-1.1 4-2 5.8-1.3 2.5-3.2 4.6-5.7 6.2m1.4-17c-0.83 2.4-2 4.5-3.6 6.2-0.83 0.93-1.8 1.8-2.9 2.4" fill="none" stroke="#802138" stroke-linecap="round" stroke-linejoin="round" stroke-miterlimit="3"/></g></g></g><g transform="matrix(1.2 0 0 -1.2 -38 468)"><g clip-path="url(#d)"><g transform="translate(373 103)"><path d="m0 0c-67-4-111 21-133 74 65-8.6 135-5.7 211 8.7 0.45 0.08 0.9 0.16 1.4 0.25-18-43-44-70-78-83-0.35-0.13-0.7-0.25-1-0.38" fill="#b70f37" fill-rule="evenodd"/></g><g transform="translate(449 187)"><path d="m0 0c-76-14-146-17-210-8.3-23 5.7-35 12-37 20 23 18 50 30 82 38 11 1.4 25 2.4 42 3 51 1.7 92-16 124-53" fill="#bd2146" fill-rule="evenodd"/></g><g transform="translate(451 188)"><path d="m0 0c-0.46-0.088-0.93-0.18-1.4-0.27-31 37-73 55-124 53-17-0.57-31-1.6-42-3-1.3-0.17-2.5-0.35-3.6-0.53 14 3.5 29 5.5 45 6 52 1.7 94-17 126-55" fill="#f8688b" fill-rule="evenodd"/></g><g transform="translate(239 179)"><path d="m0 0c64-8.7 134-6 210 8.3 0.47 0.095 0.94 0.19 1.4 0.28 0.47-0.57 0.94-1.1 1.4-1.7-0.45-0.086-0.9-0.17-1.4-0.25-76-14-146-17-211-8.7h-0.025c-0.24 0.68-0.49 1.4-0.72 2-0.36 0.066-0.71 0.13-1 0.2 0.3-0.042 0.6-0.083 0.9-0.12" fill="#c33f5f" fill-rule="evenodd"/></g><g transform="translate(238 179)"><path d="m0 0c-17 2.3-33 5.4-49 9.3 4.3 3.8 8.6 7.4 13 11 2e-3 -0.01 2e-3 -0.018 0-0.024 1.6-7.8 14-15 37-20-0.3 0.042-0.6 0.083-0.9 0.12" fill="#a92847" fill-rule="evenodd"/></g><g transform="translate(240 177)"><path d="m0 0c22-53 66-78 133-74-19-6.7-41-8.7-65-5.9-57 8.9-97 39-121 90 17-4.2 35-7.5 53-10z" fill="#9d213f" fill-rule="evenodd"/></g><g transform="translate(240 177)"><path d="m0 0c-18 2.4-36 5.7-53 10 0.58 0.53 1.2 1.1 1.8 1.6 16-3.9 32-7 49-9.3 0.34-0.067 0.69-0.13 1-0.2 0.24-0.68 0.48-1.4 0.72-2" fill="#a93852" fill-rule="evenodd"/></g></g></g><g transform="matrix(1.2 0 0 -1.2 -38 478)"><g clip-path="url(#c)"><g transform="translate(294 216)"><path d="m0 0c21-5.8 44-5.8 70 0-27-7.8-50-7.8-70 0" fill="#83243a" fill-rule="evenodd"/></g><g transform="translate(294 216)"><path d="m0 0c21-5.8 44-5.8 70 0-27-7.8-50-7.8-70 0z" fill="none" stroke="#83243a" stroke-linecap="round" stroke-linejoin="round" stroke-miterlimit="3"/></g></g></g><g transform="matrix(1.2 0 0 -1.2 -38 468)"><g clip-path="url(#b)"><g transform="translate(263 104)"><path d="m0 0c-3.4 5.1-8.5 8.3-15 9.6 6.7-1.3 12-4.4 15-9.6m-6.6-8c-3.3 3.6-7.4 5.7-12 6.4 4.9-0.63 9-2.8 12-6.4m146 17c2.5-3.3 3.7-7.1 3.6-11-4.7-0.64-8.7-2.8-12-6.4 3.2 3.6 7.2 5.7 12 6.4-0.18-5.1-2.4-11-6.7-17-1.6 4.1-3.4 7.7-5.3 11-2 3.2-4.1 5.8-6.4 8 3.3 5.1 8.3 8.3 15 9.6-6.6-1.3-12-4.5-15-9.6-1.6 1.5-3.4 2.7-5.2 3.7 2.5 8.5 8.1 12 17 9.4 1.3-1.1 2.4-2.3 3.3-3.5m-152 4.5c8.8 2.3 14-0.87 17-9.4-1.9-0.97-3.6-2.2-5.3-3.7-2.4-2.1-4.6-4.8-6.6-8-1.9-3.1-3.7-6.7-5.4-11-4.4 6.3-6.7 12-6.9 17-0.13 4.1 1.1 7.9 3.6 11 0.97 1.2 2.1 2.4 3.4 3.6" fill="#851a34" fill-rule="evenodd"/></g><g transform="translate(263 104)"><path d="m0 0c-3.4 5.1-8.5 8.3-15 9.6m8.6-18c-3.3 3.6-7.4 5.7-12 6.4m162-0.98c-4.7-0.64-8.7-2.8-12-6.4m-6.4 8c3.3 5.1 8.3 8.3 15 9.6" fill="none" stroke="#6d192d" stroke-linecap="round" stroke-linejoin="round" stroke-miterlimit="3"/></g></g></g><g transform="matrix(1.2 0 0 -1.2 -38 478)"><g clip-path="url(#a)"><g transform="translate(376 225)"><path d="m0 0c-1.1-1.1-2.4-1.6-3.9-1.6-1.5 0-2.8 0.55-4 1.6-1.1 1.1-1.6 2.4-1.6 3.9 0 1.5 0.53 2.8 1.6 4 1.1 1.1 2.4 1.6 4 1.6 1.5 0 2.8-0.53 3.9-1.6 1.1-1.1 1.6-2.4 1.6-4 0-1.5-0.55-2.8-1.6-3.9m-93 7.9c1.1 1.1 2.4 1.6 4 1.6 1.5 0 2.8-0.53 3.9-1.6 1.1-1.1 1.6-2.4 1.6-4 0-1.5-0.55-2.8-1.6-3.9-1.1-1.1-2.4-1.6-3.9-1.6-1.5 0-2.8 0.55-4 1.6-1.1 1.1-1.6 2.4-1.6 3.9 0 1.5 0.53 2.8 1.6 4" fill-rule="evenodd"/></g></g></g></g></g></svg>
