<svg height="347.9" width="617.2" xmlns="http://www.w3.org/2000/svg" xmlns:xlink="http://www.w3.org/1999/xlink"><clipPath id="a"><path d="m75.8 98h348.4v-14h-348.4z"/></clipPath><clipPath id="b"><path d="m125.7 247.6h123.8v-29h-123.8z"/></clipPath><clipPath id="c"><path d="m313.3 354.8h5.7v-22h-5.7z"/></clipPath><clipPath id="d"><path d="m317 348.2h3.8v-7.2h-3.8z"/></clipPath><clipPath id="e"><path d="m319.7 344.4h13.6v-39.4h-13.6z"/></clipPath><clipPath id="f"><path d="m329.4 192.2h93.1v-61h-93.1z"/></clipPath><clipPath id="g"><path d="m329.4 192h43.2v-55.9h-43.2z"/></clipPath><clipPath id="h"><path d="m75.6 275.5h258.6v-146.7h-258.6z"/></clipPath><clipPath id="i"><path d="m314.2 275.5h15v-6h-15z"/></clipPath><clipPath id="j"><path d="m314.2 275.5h55.4v-141h-55.4z"/></clipPath><clipPath id="k"><path d="m307.1 299.5h15.7v-14.9h-15.8z"/></clipPath><clipPath id="l"><path d="m187 223h94.6v-94.2h-94.7z"/></clipPath><clipPath id="m"><path d="m82.8 214h90.3v-74.6h-90.3z"/></clipPath><clipPath id="n"><path d="m85.6 214h129.3v-74.6h-129.3z"/></clipPath><clipPath id="o"><path d="m82.7 210.3h129.3v-71h-129.3z"/></clipPath><clipPath id="p"><path d="m90 209.7h88v-57.7h-88z"/></clipPath><clipPath id="q"><path d="m82.6 214h90.2v-74.6h-90.2z"/></clipPath><clipPath id="r"><path d="m157.9 208.3h54v-69h-54z"/></clipPath><clipPath id="s"><path d="m127.9 247.6h120.5v-17h-120.5z"/></clipPath><clipPath id="t"><path d="m371.7 189h44.3v-18.2h-44.3z"/></clipPath><clipPath id="u"><path d="m274.6 354h17.3v-24.3h-17.3z"/></clipPath><clipPath id="v"><path d="m286 343.3h34v-41h-34z"/></clipPath><clipPath id="w"><path d="m271.6 353.8h12.7v-18h-12.7z"/></clipPath><clipPath id="x"><path d="m311.5 349.7h2.5v-12.3h-2.5z"/></clipPath><clipPath id="y"><path d="m314 309.4h29.4v-38.3h-29.4z"/></clipPath><clipPath id="z"><path d="m299.8 300.8h22v-16h-22z"/></clipPath><clipPath id="A"><path d="m299 297.8h13.8v-9.5h-13.8z"/></clipPath><clipPath id="B"><path d="m271.5 240.8h13.2v-61h-13.2z"/></clipPath><clipPath id="C"><path d="m238 257h24.9v-24.2h-25z"/></clipPath><clipPath id="D"><path d="m132.4 311.8h67.7v-55.8h-67.7z"/></clipPath><clipPath id="E"><path d="m182.8 310.8h17.2v-27.6h-17.3z"/></clipPath><clipPath id="F"><path d="m162.5 361.7h102.2v-129h-102.2z"/></clipPath><clipPath id="G"><path d="m215 306.8h21.5v-59.3h-21.6z"/></clipPath><clipPath id="H"><path d="m210 306.8h3.9v-19.4h-3.9z"/></clipPath><clipPath id="I"><path d="m176.5 389.1h60v-48.6h-60z"/></clipPath><clipPath id="J"><path d="m209.4 425.1h55.2v-51h-55.2z"/></clipPath><clipPath id="K"><path d="m218 420h46.6v-45.9h-46.7z"/></clipPath><clipPath id="L"><path d="m206 426.8h33.9v-34.7h-34z"/></clipPath><clipPath id="M"><path d="m263.2 240.8h13.2v-61h-13.2z"/></clipPath><g transform="matrix(1.33333 0 0 -1.33333 0 348)"><path d="m0 0h463v261h-463z" fill="#fff5cc" stroke-width=".7"/><g clip-path="url(#a)" opacity=".8" transform="matrix(.52191 0 0 .52191 101 0)"><path d="m0 0c0-3.9 78-7 174.2-7s174.1 3.1 174.1 7-78 7-174.1 7c-96.2 0-174.2-3.1-174.2-7" fill="#fcc340" transform="translate(75.8 91)"/></g><path d="m0 0s1.5 21.8-12.3 23.8c-13.7 2-90.8 0-97.8 0s-17.5-.8-17.5-23.8l2.4-4.4h117.2z" fill="#5b321c" transform="matrix(.52191 0 0 .52191 231.2 116.4)"/><g clip-path="url(#b)" opacity=".2" transform="matrix(.52191 0 0 .52191 101 0)"><path d="m0 0c7 0 84 2 97.8 0s12.3-23.8 12.3-23.8l-8-4.4h-24.7c-1.8 5.7-7.7 8.5-13 11-6.1 3-12.6 1.5-19.1.9-7-.7-14.3-1.7-21.3-1.7-6.9 0-14.4-.1-21.2 1.3a28.2 28.2 0 0 0 -16.4 10.8c3.6 5.6 9.3 5.9 13.6 5.9" fill="#5b321c" transform="translate(139.4 246.7)"/></g><path d="m0 0s0 11.4 11.9 15.7c0 0 24.4-11.3 25.7-15.7 1.9-6.8.1-36.3-1.3-61.6h-15.2a677.2 677.2 0 0 0 -4 28.9c-1 8.1 2.5 20.1 4 24-11.3 1.7-21.1 8.7-21.1 8.7" fill="#ffae68" transform="matrix(.52191 0 0 .52191 229.5 126)"/><path d="m0 0-2.2-30s11.4-8.4 16.5-9.8 4.9-5 2.9-6.3c-1-.6-9.3-.8-17.3-.6l-2.3.3a8.7 8.7 0 0 0 -6.6 4.7s0-2.7-.9-4c-.1-.3-.3-.5-.6-.7-2.2.2-4 .3-4.6.5-3.5.7-1.3 13.5.6 16.5l-4.1 29.4h16.9z" fill="#754c29" transform="matrix(.52191 0 0 .52191 249.4 93.8)"/><path d="m0 0c-11.5 1.7-21.2 8.6-21.2 8.6s0 9.6 9.2 14.6c6.3-3 22-11 23.1-14.5 2-6.8.2-36.4-1.2-61.6h-10a677.6 677.6 0 0 0 -4 28.8c-1 8.1 2.5 20.1 4.1 24.1" fill="#f4824e" transform="matrix(.52191 0 0 .52191 240.6 121.4)"/><path d="m0 0c5.1-1.4 4.9-5 2.9-6.2-.7-.5-4.5-.7-9.3-.7h-2.7l-2.4.3a8.7 8.7 0 0 0 -6.5 4.7s0-2.7-.8-4a8.3 8.3 0 0 0 -4.5 4s0-2.7-.8-4l-.1-.2c-3.3 1-1 13.6.7 16.5l-4 29.4h13.2l-2.2-30s11.5-8.5 16.5-9.8" fill="#5c3c20" transform="matrix(.52191 0 0 .52191 254.1 73)"/><path d="m0 0c0-4.5 1.6-8.2 3.6-8.2s3.4 3.7 3.4 8.2-1.6 8.2-3.5 8.2-3.5-3.7-3.5-8.2" fill="#414042" transform="matrix(.52191 0 0 .52191 234.9 203.3)"/><path d="m0 0c0-4.5 1.6-8.2 3.6-8.2s3.4 3.7 3.4 8.2-1.6 8.2-3.5 8.2-3.5-3.7-3.5-8.2" fill="#58595b" transform="matrix(.52191 0 0 .52191 235 203.3)"/><path d="m0 0 7-2c-1.2 3 1.8 7 1.8 7s.6 1.5 1.7 2.6c4.9 5 7.1 5.6 7.1 5.6s-3.5 5.4-7.4 5.6-12.2-14.5-12.2-14.5l2.3-4.3" fill="#e88631" transform="matrix(.52191 0 0 .52191 218 186.5)"/><path d="m0 0-2.5 15.1 5.1 12.2h12.2l7.6-6.2s5-18.8-4.1-24.9c-9.3-6-18.3 3.8-18.3 3.8" fill="#ffae68" transform="matrix(.52191 0 0 .52191 224.6 195.4)"/><path d="m0 0c0-6 1.9-11 4.1-11 2.3 0 4.2 5 4.2 11s-1.9 11-4.3 11c-2 0-4-5-4-11" fill="#a7a9ac" transform="matrix(.52191 0 0 .52191 263 179.4)"/><path d="m0 0c0-6 1.9-11 4.1-11 2.3 0 4.2 5 4.2 11s-1.9 11-4.3 11c-2 0-4-5-4-11" fill="#d1d3d4" transform="matrix(.52191 0 0 .52191 263.2 179.4)"/><g clip-path="url(#c)" opacity=".3" transform="matrix(.52191 0 0 .52191 101 0)"><path d="m0 0c0 4.6-1 8.5-2.5 10.1.5.6 1 1 1.6 1 2.3-.1 4.1-5.1 4.1-11.1s-1.8-11-4.1-11c-.6 0-1.1.3-1.6.9 1.5 1.6 2.5 5.5 2.5 10.1" fill="#d1d3d4" transform="translate(315.8 343.8)"/></g><path d="m0 0c2.4-2 6.4-5 0-9.9 0 0-1 2.4-1 5 0 3.6 1 4.9 1 4.9" fill="#a7a9ac" transform="matrix(.52191 0 0 .52191 266.6 181.7)"/><g clip-path="url(#d)" opacity=".2" transform="matrix(.52191 0 0 .52191 101 0)"><path d="m0 0 .3.7c2-1.6 5-3.9 2.7-7.3 1.5 3-1.1 5-3 6.6" fill="#a7a9ac" transform="translate(317 347.5)"/></g><path d="m0 0c.4 0 .7.2 1 .5.4.9 12 21 8.1 30.2-4 9.3-13.4 9-13.5 9a1 1 0 0 1 -1-1c0-.6.5-1 1-1 .4 0 8.2.1 11.6-7.8 3.5-8.2-8-28.1-8.2-28.3a1 1 0 0 1 1-1.6" fill="#e1e2e3" transform="matrix(.52191 0 0 .52191 270.7 159.1)"/><g clip-path="url(#e)" transform="matrix(.52191 0 0 .52191 101 0)"><path d="m0 0v-.3c0-.6.5-1 1-1 .4 0 8.1.1 11.5-7.8 3.5-8.2-8-28-8-28.3a1 1 0 1 1 1.8-1l-.3-.6a1 1 0 0 0 -1.5-.3 1 1 0 0 0 -.3 1.4c0 .2 11.5 20 8 28.3-3.4 8-11.1 7.8-11.5 7.8a1 1 0 0 0 -1 1c0 .3 0 .6.3.8" fill="#e1e2e3" transform="translate(320 344.4)"/></g><path d="m0 0c7.5 1.7 6.5-6.6 7.4-5.9 1 .8 6.3 1.6 6 4.7-.1 3.2-1.2 6.8-5.7 7.3-4.6.5-9.2-1.7-9.2-1.7a462.6 462.6 0 0 1 -41.5 13.1c-27.6 24.5-43.2 34.8-42.9 24.6.4-13.1 27.5-28.4 39.4-34 9.5-4.8 43.3-8.1 43.3-8.1.8-2.4 1.5-2.4 1.5-2.4s.5 2.1 1.7 2.4" fill="#ffae68" transform="matrix(.52191 0 0 .52191 260.2 160.4)"/><path d="m0 0c0-7.2 5-13 11-13 6.2 0 11.1 5.8 11.1 13s-5 13-11 13c-6.3 0-11.1-5.8-11.1-13" fill="#d1d3d4" transform="matrix(.52191 0 0 .52191 241.8 178.8)"/><path d="m0 0c0-2.7 1.6-5 3.6-5s3.7 2.3 3.7 5-1.6 5-3.7 5c-2 0-3.6-2.4-3.6-5" fill="#a7a9ac" transform="matrix(.52191 0 0 .52191 248 178.8)"/><path d="m0 0c-7.5-2.6.6 15.7 3.5 15.7h9.3s-2.1-12-12.8-15.7" fill="#bd161d" transform="matrix(.52191 0 0 .52191 149.3 105.2)"/><path d="m0 0c-3.8 9.9 4.2 18.3 12 25 8 6.8 16.2 4 16.2 4s-1.2-13.7-14.6-22.8c-13.5-9.2-13.6-6.2-13.6-6.2" fill="#f1f2f2" transform="matrix(.52191 0 0 .52191 149.4 100.1)"/><path d="m0 0a41.6 41.6 0 1 1 83.3 0 41.6 41.6 0 0 1 -83.3 0" fill="#372f3a" transform="matrix(.52191 0 0 .52191 279 68.5)"/><path d="m0 0a25.9 25.9 0 1 1 51.7 0 25.9 25.9 0 0 1 -51.7 0" fill="#ebecee" transform="matrix(.52191 0 0 .52191 287.3 68.5)"/><path d="m0 0a22.7 22.7 0 1 1 45.4 0 22.7 22.7 0 0 1 -45.4 0" fill="#77787d" transform="matrix(.52191 0 0 .52191 289 68.5)"/><path d="m0 0a14.1 14.1 0 1 1 28.2 0 14.1 14.1 0 0 1 -28.2 0" fill="#f1f2f4" transform="matrix(.52191 0 0 .52191 293.4 68.5)"/><path d="m0 0a80 80 0 0 0 28.2-1.8c18-5 29.1-17.4 27-24.1-2.1-6.8-27.2-.1-42.8-10.4-15.7-10.3-24.2-26.4-40.3-24-7.5 1-11.7 5.5-11.3 12.5 0 0 4.5 45.1 39.2 47.8" fill="#638f8c" transform="matrix(.52191 0 0 .52191 293.4 100)"/><g clip-path="url(#f)" opacity=".1" transform="matrix(.52191 0 0 .52191 101 0)"><path d="m0 0 8.4.5c-1.2-1.5-3.5-9.7-15.6-21.5-7-6.8-3.4-10.5.4-10.7 3-.2 13.6 7.6 26.2 8.6 18.4 1.6 28.6.6 34.5-4.5-5.9-3.9-27.5.5-41.5-8.7-15.7-10.3-24.2-26.4-40.3-24-7.5 1-11.7 5.5-11.3 12.5 0 0 4.5 45.1 39.2 47.8" fill="#638f8c" transform="translate(368.7 191.8)"/></g><g clip-path="url(#g)" opacity=".1" transform="matrix(.52191 0 0 .52191 101 0)"><path d="m0 0c-8.5-9.3-15.1-3.5-21.7-17.5-4.3-8.8-8.7-21.5-15.3-30.4-.4.5-.8 1-1 1.6h-.1l-.7 1.8-.1.5a12 12 0 0 0 -.4 3.9s4.6 45.1 39.3 47.8l3.9.3a14 14 0 0 0 -3.9-8" fill="#71a29f" transform="translate(368.7 184)"/></g><path d="m0 0s2.5-12 9.3-30.3c4.3-11.6 7.5-28 21.8-35.3 7.3-3.7 14.2-12.8 5.7-22.1-8.6-9.3-15.2-3.5-21.8-17.5s-13.9-37.7-29.2-40.2c-9.5-1.5-94 0-100.3 0s-11 2.9-13.3 10c-5.7 18-117.3 6.8-117.3 6.8s-8.5-1.3-8.2 4.7c.6 15.4 9.5 37.3 25 47.8s21.2 24.3 21.2 24.3h127.6c1-13-5.8-15.8-7.8-18.5-2-2.8-20-18.3-13.2-38.8 6.7-20.5 20.5-23.5 40.8-24.2 20.2-.8 45.5-1.6 51.5 12.7s13.7 44 12.2 55.5-18.7 61.6-18.7 61.6 10.7 6.4 14.7 3.5" fill="#6d9c99" transform="matrix(.52191 0 0 .52191 272.7 143.4)"/><g clip-path="url(#h)" fill="#71a29f" opacity=".7" transform="matrix(.52191 0 0 .52191 101 0)"><path d="m0 0s17.3-50 18.8-61.5-6.3-41.3-12.3-55.6c-4.7-11.2-21.4-13.1-38.2-13 16.4 0 32.5 2 37.1 13 6 14.3 13.8 44 12.3 55.6-1.5 11.5-18.8 61.5-18.8 61.5s7.7 4.6 12.5 4.3a33 33 0 0 1 -11.4-4.3" transform="translate(315.3 271.3)"/><path d="m0 0c15.5 10.5 21.3 24.3 21.3 24.3h1s-5.7-13.8-21.2-24.3-24.5-32.4-25-47.8c-.2-4 3.4-4.7 6-4.8-2.4-.1-7.3.2-7.1 4.8.6 15.4 9.5 37.3 25 47.8" transform="translate(100.6 198.7)"/><path d="m0 0c2.3-7.1 7-10 13.3-10 4.1 0 42.9-.6 71.2-.6-28.4 0-68 .6-72.3.6-6.3 0-11 3-13.3 10-2.5 8-26.3 10.2-51.7 10.2 25.8.1 50.2-2 52.8-10.2" transform="translate(202.2 139.4)"/></g><g clip-path="url(#i)" opacity=".3" transform="matrix(.52191 0 0 .52191 101 0)"><path d="m0 0c-1.5-2-11.1-4.5-14.4-4l-.6 1.8s10.7 6.4 14.7 3.6c0 0 0-.5.3-1.4" fill="#71a29f" transform="translate(329.3 273.4)"/></g><path d="m0 0c-11 7-13 26.5-13.6 29l.4-1.2c6.8-20.5 20.5-23.5 40.8-24.3 20.2-.7 45.4-1.5 51.4 12.8l.3.7s-4.6-20.4-21.7-20.4c-17 0-46.6-3.5-57.6 3.4" fill="#82bab7" transform="matrix(.52191 0 0 .52191 227.1 72)"/><path d="m0 0s1.6-4.4-4-6.4c-5.4-2-12.3 2.8-18.2-3.3-3.1-3.2-3.8 3.3-3.8 3.3l4.2 7.6 10 2.5s9.8-1.2 11.8-3.7" fill="#603913" transform="matrix(.52191 0 0 .52191 238.8 209)"/><path d="m0 0s2.8-4.1 2.4-4.9-3.2-.6-3.6-.3c-.4.4.7 3.8 1.2 5.2" fill="#ff8f52" transform="matrix(.52191 0 0 .52191 236.7 202)"/><g clip-path="url(#j)" opacity=".2" transform="matrix(.52191 0 0 .52191 101 0)"><path d="m0 0c-5 30.6-18.9 45.3-24.5 50.1l-2.4 7.1s10.7 6.4 14.7 3.5c0 0 2.5-12 9.3-30.2 4.3-11.6 7.5-28 21.9-35.3 7.3-3.7 14.2-12.8 5.7-22.2-8.7-9.3-15.3-3.4-21.9-17.4-5-10.6-10.4-27-19.4-35.2 8.6 14.7 22 46.2 16.6 79.6" fill="#71a29f" transform="translate(341.1 214)"/></g><path d="m0 0s-4.8 0-5.4 3.1c-.7 3.2 4.8 4.1 4.8 4.1 3.1.1 9.6-1.4 7.1-5.2-1.5-2.3-6.5-2-6.5-2" fill="#372f3a" transform="matrix(.52191 0 0 .52191 262.1 157.3)"/><path d="m0 0c-2.7 1.2-8.6 24.9-7 30.5 2.8 10 26.7 7.6 28.3 7.3 10.5-1.8 9.7-24.2 2-25.8-5.5-1-9.2 0-8-7.7.3-2.1-12.6-5.5-15.3-4.3" fill="#71a29f" transform="matrix(.52191 0 0 .52191 265 141.6)"/><g clip-path="url(#k)" opacity=".5" transform="matrix(.52191 0 0 .52191 101 0)"><path d="m0 0c3.1-1.5 3.1-2.9 3.4-5.6.2-2.8-2-5.8-11.5-8.4l-2.1-.6c-1 4.2-1.8 8.5-2 12 4.5 1.6 9.9 3.6 12.2 2.6" fill="#71a29f" transform="translate(319.4 299.2)"/></g><path d="m0 0c0-4.5 1.6-8.2 3.6-8.2s3.4 3.7 3.4 8.2-1.6 8.2-3.5 8.2-3.5-3.7-3.5-8.2" fill="#414042" transform="matrix(.52191 0 0 .52191 232.1 202.4)"/><path d="m0 0c0-4.5 1.6-8.2 3.6-8.2s3.4 3.7 3.4 8.2-1.6 8.2-3.5 8.2-3.5-3.7-3.5-8.2" fill="#58595b" transform="matrix(.52191 0 0 .52191 232.3 202.4)"/><path d="m0 0-13.5 1" fill="none" stroke="#808285" stroke-linecap="round" stroke-miterlimit="10" stroke-width=".3" transform="matrix(.52191 0 0 .52191 232.3 202)"/><path d="m0 0c2.3 0 2.8.2 2.8.3 0 0 0 .2-.9.7v.5c0 .2.3.2.4.1.7-.4 1.4-.9 1.3-1.5-.2-.7-1.6-.8-3.6-.8a.4.4 0 1 0 0 .7" fill="#808285" transform="matrix(.52191 0 0 .52191 235.9 202.2)"/><path d="m0 0s-2.5-1-4.2 1" style="fill:none;stroke:#ff2d21;stroke-width:.3;stroke-linecap:round;stroke-linejoin:round;stroke-miterlimit:10" transform="matrix(.52191 0 0 .52191 234.5 194.8)"/><g clip-path="url(#l)" opacity=".2" transform="matrix(.52191 0 0 .52191 101 0)"><path d="m0 0c1-13-5.8-15.8-7.8-18.5-2-2.8-20-18.3-13.2-38.8 6.3-19.1 18.7-23 36.7-24 5.1-6.2 11-10.3 16.4-13-27.8.1-63.2.8-67.1.8-6.3 0-11 2.8-13.3 10-1.1 3.5-6.4 5.9-14.2 7.5l2.2 44.4c15.5 10.8 18.7 23.1 18.7 31.6z" fill="#71a29f" transform="translate(249.4 223)"/></g><path d="m0 0a41.6 41.6 0 1 1 83.3 0 41.6 41.6 0 0 1 -83.3 0" fill="#372f3a" transform="matrix(.52191 0 0 .52191 157.8 68.5)"/><path d="m0 0a25.9 25.9 0 1 1 51.7 0 25.9 25.9 0 0 1 -51.7 0" fill="#ebecee" transform="matrix(.52191 0 0 .52191 166 68.5)"/><path d="m0 0a22.7 22.7 0 1 1 45.4 0 22.7 22.7 0 0 1 -45.4 0" fill="#77787d" transform="matrix(.52191 0 0 .52191 167.7 68.5)"/><path d="m0 0a14.1 14.1 0 1 1 28.2 0 14.1 14.1 0 0 1 -28.2 0" fill="#f1f2f4" transform="matrix(.52191 0 0 .52191 172.2 68.5)"/><path d="m0 0s-4.5-11.5-19-11.5h-23c-9.4 0-13.4 7-14.7 12.2l13.5 6.3 36.2-1.6z" fill="#58595b" transform="matrix(.52191 0 0 .52191 194.4 73.2)"/><g clip-path="url(#m)" opacity=".7" transform="matrix(.52191 0 0 .52191 101 0)"><path d="m0 0a90.8 90.8 0 0 0 75 48.5 90.8 90.8 0 0 1 -74-48.5c-4.6-12-3-25.5 3-25.5 2 0 50.2-.6 83.4-.6-33.2 0-82.4.6-84.4.6-6.2 0-7.8 13.5-3 25.5" fill="#71a29f" transform="translate(85.6 165.4)"/></g><g clip-path="url(#n)" opacity=".5" transform="matrix(.52191 0 0 .52191 101 0)"><path d="m0 0c-6.2 0-7.8 13.5-3 25.5a90.8 90.8 0 0 0 74 48.5c41.3 1.8 48.6-29.5 51.8-45.7 3.3-16.3-4.2-27-8.5-28.3-4.2-1.3-111.3 0-114.3 0" fill="#71a29f" transform="translate(91.3 140)"/></g><path d="m0 0c-6.2 0-7.8 13.5-3 25.5a90.8 90.8 0 0 0 74 48.5c41.3 1.8 48.6-29.5 51.8-45.7 3.3-16.3-4.2-27-8.5-28.3-4.2-1.3-111.3 0-114.3 0" fill="#71a29f" transform="matrix(.52191 0 0 .52191 147.1 73)"/><g clip-path="url(#o)" opacity=".1" transform="matrix(.52191 0 0 .52191 101 0)"><path d="m0 0c40.7 0 73.7 26 73.7 58.2 0 2.8-.3 5.5-.7 8.2 20.5-8.6 25.3-29.7 27.8-42.1 3.2-16.3-4.3-27-8.5-28.3-4.3-1.3-111.3 0-114.3 0-3.1 0-5 3.4-5.6 8.2a90.8 90.8 0 0 1 27.6-4.2" fill="#71a29f" transform="translate(110.4 144)"/></g><g clip-path="url(#p)" opacity=".1" transform="matrix(.52191 0 0 .52191 101 0)"><path d="m0 0c7.6-2.9-7.6-54.8-67-54.8-6.6 0-19.8-2.8-19.1 2.2 4 28.5 57.1 63.6 86.1 52.6" fill="#71a29f" transform="translate(176.2 207.6)"/></g><g clip-path="url(#q)" opacity=".7" transform="matrix(.52191 0 0 .52191 101 0)"><path d="m0 0a90.8 90.8 0 0 0 75 48.5 90.8 90.8 0 0 1 -74-48.5c-4.6-12-3-25.5 3-25.5 2 0 50.2-.6 83.4-.6-33.2 0-82.4.6-84.4.6-6.2 0-7.8 13.5-3 25.5" fill="#71a29f" transform="translate(85.3 165.4)"/></g><g clip-path="url(#r)" opacity=".2" transform="matrix(.52191 0 0 .52191 101 0)"><path d="m0 0c0 7-1.6 13.6-4.4 19.8 17-9.5 21.4-28.5 23.7-40 3.2-16.3-4.3-27-8.5-28.3-1.8-.5-22-.6-44.8-.5 20.4 10.3 34 28.4 34 49" fill="#71a29f" transform="translate(191.9 188.4)"/></g><g clip-path="url(#s)" opacity=".2" transform="matrix(.52191 0 0 .52191 101 0)"><path d="m0 0c-21.3 0-11-11-45.4-7.1a49.6 49.6 0 0 0 -27.9 11.3c3.5 3.2 8 3.4 11.5 3.4 7 0 84 2 97.8 0 6.7-1 9.8-6.7 11.2-12.2-20.4-11.3-35.9 4.6-47.2 4.6" fill="#5b321c" transform="translate(201.2 239.2)"/></g><g clip-path="url(#t)" opacity=".2" transform="matrix(.52191 0 0 .52191 101 0)"><path d="m0 0c7 2.4 34-10.6 30.2-14.6-4-4.1-17.3.3-30.9-2.6-20-4.3-14.8 12 .7 17.2" fill="#638f8c" transform="translate(385.4 188.8)"/></g><g clip-path="url(#u)" opacity=".5" transform="matrix(.52191 0 0 .52191 101 0)"><path d="m0 0c7 0 12.7 6.7 12.7 14.9 0 2.6-.6 5-1.6 7.2 3.4-2.2 5.8-6.5 5.8-11.4 0-7.2-5-13-11-13a10 10 0 0 0 -6.3 2.3z" fill="#d1d3d4" transform="translate(275 332)"/></g><path d="m0 0a1 1 0 0 1 1 1.3c-.2 1-5 24.3-16.3 35-4.4 4-16.1 5.1-16.6 5.1a1 1 0 0 1 -.2-2.1c.1 0 11.5-1 15.4-4.6 10.7-10.2 15.6-33.7 15.7-33.8a1 1 0 0 1 1-.9" fill="#e1e2e3" transform="matrix(.52191 0 0 .52191 267.5 157.7)"/><g clip-path="url(#v)" transform="matrix(.52191 0 0 .52191 101 0)"><path d="m0 0c0-.6.4-1 1-1 0 0 11.5-1 15.3-4.7 10.9-10.3 15.7-33.6 15.7-33.9a1 1 0 0 1 1.3-.8c.2 0 .4.2.6.4a1 1 0 0 0 -1-1 1 1 0 0 0 -1.1.8c0 .3-4.8 23.7-15.7 33.9-3.9 3.6-15.3 4.6-15.4 4.6a1 1 0 0 0 -1 1.1c0 .3.2.4.3.6" fill="#e1e2e3" transform="translate(286.2 343.3)"/></g><g clip-path="url(#w)" opacity=".3" transform="matrix(.52191 0 0 .52191 101 0)"><path d="m0 0c-1.6-4.9-.5-9.7 2.6-10.7s7 2 8.6 7c1.8 4.7.5 9.5-2.6 10.5s-7-1.8-8.6-6.8" fill="#d1d3d4" transform="translate(272.4 346.6)"/></g><g clip-path="url(#x)" opacity=".3" transform="matrix(.52191 0 0 .52191 101 0)"><path d="m0 0c0-3.4.5-6.2 1.2-6.2s1.2 2.8 1.2 6.2-.5 6.2-1.2 6.2-1.2-2.8-1.2-6.2" fill="#d1d3d4" transform="translate(311.5 343.6)"/></g><g clip-path="url(#y)" opacity=".2" transform="matrix(.52191 0 0 .52191 101 0)"><path d="m0 0c8 3 10.5 11.7 11.1 14.4a37 37 0 0 0 4.7-.4c10.5-1.8 9.7-24.2 1.9-25.7-5.4-1-9.1 0-8-7.7.3-1.7-7.6-4.2-12.3-4.6-3.3 7.6-5.9 20.7 2.6 24" fill="#71a29f" transform="translate(319.7 295)"/></g><path d="m0 0-4.3-.6a52 52 0 0 0 -.7 26.6l3.2-.3c10.4-1.8 9.6-24.2 1.8-25.7" fill="#f1f2f2" transform="matrix(.52191 0 0 .52191 277.1 147.9)"/><path d="m0 0s3.6.6 4.9-3.4c1.2-4-2.2-5.4-4.9-6s-10.4-2.9-10.4-2.9-3.4-.5-4.1 5c-.8 5.3 14.5 7.3 14.5 7.3" fill="#372f3a" transform="matrix(.52191 0 0 .52191 256 153.3)"/><path d="m0 0s-.8 1.5 3.6 2.4 14.7 5.9 17.8 4.4 3.1-3 3.4-5.7c.2-2.7-2-5.7-11.5-8.4-9.5-2.6-9.4-1.6-10.3-1" fill="#6d9c99" transform="matrix(.52191 0 0 .52191 256 153.3)"/><path d="m0 0c-.2 1.2.5 2.2 1.6 3.1 0 0 7.1-1.9 2.6-8 0 0-3.5-.5-4.2 4.9" fill="#493e4d" transform="matrix(.52191 0 0 .52191 248.5 149.5)"/><path d="m0 0c2.7.9 8.5-2 17-8.3 4.6-6.4 10-15 16.2-24.8l9.3-6.5c-2 .6-3.7 1.2-5 1.8-8.8 4.2-26.2 13.8-34.5 23.8-3.2 5.6-4.9 10.7-3 14" fill="#f4824e" transform="matrix(.52191 0 0 .52191 216.3 184.3)"/><g clip-path="url(#z)" opacity=".1" transform="matrix(.52191 0 0 .52191 101 0)"><path d="m0 0c1.3 1.8 1.5 5 .2 7 1.8.4 3.3.5 4.2 0 3-1.4 3-2.8 3.3-5.6.3-2.7-2-5.7-11.5-8.3-9.5-2.7-9.3-1.7-10.1-1l-.4.9a27 27 0 0 1 8.1 2.2 14 14 0 0 1 6.2 4.8" fill="#6d9c99" transform="translate(314 293.5)"/></g><g clip-path="url(#A)" opacity=".2" transform="matrix(.52191 0 0 .52191 101 0)"><path d="m0 0c.6-1.2-.8-5.8-4-7.3-3.3-1.4-6.7-2.7-7.7-1.4-1 1.2-2.5 4-1.5 5s12.5 5 13.2 3.7" fill="#6d9c99" transform="translate(312.6 297.5)"/></g><g clip-path="url(#B)" opacity=".2" transform="matrix(.52191 0 0 .52191 101 0)"><path d="m0 0h-8.3a179 179 0 0 0 -2.7 30 43 43 0 0 0 12.3 31c1.8-7.5 0-36.3-1.3-61" fill="#ffae68" transform="translate(282.6 179.7)"/></g><path d="m0 0s0 11.4 11.9 15.7c0 0 24.4-11.3 25.7-15.7 1.9-6.8.1-36.3-1.3-61.6h-13c-1.7 10.1-3.2 21-4.1 29.1-1 8.2.4 20 2 23.9a53.8 53.8 0 0 0 -21.2 8.6" fill="#ffae68" transform="matrix(.52191 0 0 .52191 225.2 126)"/><g clip-path="url(#C)" opacity=".2" transform="matrix(.52191 0 0 .52191 101 0)"><path d="m0 0s6.5-3 13-6.6c-1-2.4-4.9-10.7-4.8-17.6-11 2-20 8.5-20 8.5s-.2 11.4 11.8 15.7" fill="#ffae68" transform="translate(249.8 257)"/></g><path d="m0 0-2.1-31.2s11.3-8.4 16.5-9.7c5-1.4 4.8-5 2.8-6.3-1-.7-9.3-.8-17.2-.6l-2.4.3a8.7 8.7 0 0 0 -6.6 4.7s0-2.7-.8-4l-.6-.7-4.7.4c-3.5.8-1.2 13.6.6 16.5l-4.1 30.6h16.9z" fill="#754c29" transform="matrix(.52191 0 0 .52191 245 94.4)"/><path d="m0 0c2-1.5 2.4-3.8 2.4-3.8 1.3-3 2.7-20.6.9-25.7 0 0-3.5-12-11-23.3 0 0 14.5-34.4 43.1-36.4 0 0 4.5-20.4-13.5-32-21.5-13.9-37.7 3.2-49.5 3.2-21.2 0-11-11-45.3-7.1-34.3 3.8-36.3 28.5-51.9 32.1 0 0 56 63.9 94.4 48.2 0 0 2.2 16.6 2.8 23.5s4.4 19.7 4.4 19.7 12.5 9.5 23.2 1.6" fill="#f1e5cf" transform="matrix(.52191 0 0 .52191 220.4 187.5)"/><g clip-path="url(#D)" opacity=".4" transform="matrix(.52191 0 0 .52191 101 0)"><path d="m0 0s-70.6-27-67.6-52.5c2-17.6 46 38.5 67.6 52.5" fill="#f1e5cf" transform="translate(200.1 311.8)"/></g><g clip-path="url(#E)" opacity=".4" transform="matrix(.52191 0 0 .52191 101 0)"><path d="m0 0s-18-17.8-17.3-26 15.3 18.3 17.3 26" fill="#f1e5cf" transform="translate(200.1 310.8)"/></g><g clip-path="url(#F)" opacity=".4" transform="matrix(.52191 0 0 .52191 101 0)"><path d="m0 0c24.7 4.6 23.3 15.9 36.7 17 13.4 1 23.4 3 18.9 18.4s.5 26.9-2.9 32.4-7.9 9.4-7.9 9.4c3.9-2.8 10.8-2.2 10.8-2.2 4.6 9-2 29.2-2 29.2 8.7 1 4.9 23.2 4.9 23.2 1 .3 2 .6 3 .7 1.5-.4 3.2-1.2 4.7-2.4 2-1.5 2.4-3.8 2.4-3.8a71.8 71.8 0 0 0 1-25.7s-3.6-12-11-23.3c0 0 14.4-34.4 43-36.3 0 0 4.5-20.5-13.5-32.1-21.5-13.8-37.7 3.3-49.4 3.2-19.8 0-12.4-9.4-38.7-7.7" fill="#f1e5cf" transform="translate(162.5 233.6)"/></g><path d="m0 0s-2.4-2.8-4.3-.4c-2 2.5.7 13.5.7 13.5.6.9 6.6-4.1 3.6-13.1" fill="#eda261" transform="matrix(.52191 0 0 .52191 217.4 177.1)"/><path d="m0 0s3.3-6-2.5-11.9c-5.9-5.8-15.2-7-21.6-6.4s-13.2 7.3-24.9.8c-11.6-6.5-4-17-.7-15.7 0 0-14.5-4.3-13.8 11.3 0 0-1.8-1.2-1.7-3.5 0 0-4.7 6.8.7 10.4 0 0-11.9-4-16.9 6-4.9 9.9 4.7 11.8 5.5 11.9 0 0-1.8-7.5 4.4-8 0 0 .3 2.8-2.6 3.6 0 0 1 3 8 1 0 0-5 5.3 2.4 10.7 0 0 1.6-6.4 8.3-6.3 6.8.1 7.6 11.2 24.5 11.3 0 0 25.3-1.3 30.9-15.2" fill="#603913" transform="matrix(.52191 0 0 .52191 224 195.3)"/><g clip-path="url(#G)" opacity=".4" transform="matrix(.52191 0 0 .52191 101 0)"><path d="m0 0s5.3-18.7 11.6-29.9c6.4-11 16.4-26.1 3.6-29.3-13-3.1-16 48.5-15.2 59.2" fill="#f1e5cf" transform="translate(215 306.8)"/></g><g clip-path="url(#H)" opacity=".4" transform="matrix(.52191 0 0 .52191 101 0)"><path d="m0 0s-.7-17.2-2.6-19.2c-2-2-1.8 11.2 2.6 19.2" fill="#f1e5cf" transform="translate(213.9 306.8)"/></g><path d="m0 0c6.4 0 3.1-7.6 4.5-8 1.1-.5 7-.5 7.9 2.6.8 3 1 6.8-3.2 8.7-4.1 2-9.2 1.3-9.2 1.3-10 9.1-32.8 24.8-32.8 24.8-14.5 22.6-24.4 39.2-31 35.3-11.2-6.6 11.5-31.5 20.8-40.7 7.7-7.5 40-23 40-23 0-2.5.6-2.7.6-2.7s2 1.7 2.4 1.7" fill="#ffae68" transform="matrix(.52191 0 0 .52191 250.2 151.7)"/><g clip-path="url(#I)" opacity=".3" transform="matrix(.52191 0 0 .52191 101 0)"><path d="m0 0c11.8 5 26.7-2.6 31.7 3.8 5 6.5-13.1 19-13.1 19l2 .5c7-1 23.1-4.1 27.5-14.8 0 0 3.3-6-2.5-11.9-5.9-5.8-15.2-7-21.6-6.4s-13.2 7.3-24.9.8c-11.1-6.3-4.5-16.3-1.1-15.8a17 17 0 0 0 -3.3-.5c-10.2 4.3-5.4 20.7 5.3 25.3" fill="#603913" transform="translate(187.4 365.8)"/></g><path d="m0 0s.5-5.5 5.2-7.2c-5 1.4-8.7 5.3-8.7 5.3l-.2 1.5z" fill="#603913" transform="matrix(.52191 0 0 .52191 226.4 196.3)"/><path d="m0 0c-.8-2.8-17.9.6-21.6-8.1s-.2-15.6-3-16.7c-2.6-1.2-8-3.4-22.6 2.5-14.8 5.9-15.8 20.7-13.2 29.5s13 23 33.2 21.5c20.2-1.7 30-19.1 27.2-28.7" fill="#db3333" transform="matrix(.52191 0 0 .52191 238.8 209)"/><g clip-path="url(#J)" opacity=".4" transform="matrix(.52191 0 0 .52191 101 0)"><path d="m0 0c4-.3 7.5-1.2 10.6-2.6 8.2-6.3 11.7-15.9 9.8-22.1-.8-2.8-17.8.6-21.6-8.1-3.7-8.7-.2-15.6-2.9-16.7-2.7-1.2-8-3.4-22.5 2.4-8.4 7-8.7 18.3-6.6 25.6 2.6 8.8 13 23 33.2 21.5" fill="#db3333" transform="translate(243.7 425)"/></g><g clip-path="url(#K)" opacity=".4" transform="matrix(.52191 0 0 .52191 101 0)"><path d="m0 0c2-.2 4-.5 5.7-1 5.5-6 7.7-13.5 6.1-18.6-.8-2.8-17.8.6-21.5-8.1-3.7-8.8-.2-15.6-3-16.8-2.3-1-6.5-2.7-16.9.5a26 26 0 0 0 -3.6 22.5c2.6 8.8 13 23 33.2 21.5" fill="#db3333" transform="translate(252.2 420)"/></g><path d="m0 0c.6 0 1.2.4 1.4 1 .8 2.2.7 3.9.6 5.6-.1 2.3-.3 4.9 1.8 9.8 2.2 5 9.4 5.7 14.7 6.1 3 .3 5.1.4 6.4 1.3a1.5 1.5 0 0 1 -1.8 2.5c-.5-.4-3-.6-4.9-.8-5.7-.5-14.3-1.2-17.1-8-2.4-5.5-2.2-8.5-2.1-11 0-1.7 0-2.9-.5-4.5a1.5 1.5 0 0 1 1.5-2" fill="#f1f2f2" transform="matrix(.52191 0 0 .52191 226.3 195.9)"/><g clip-path="url(#L)" opacity=".6" transform="matrix(.52191 0 0 .52191 101 0)"><path d="m0 0c5.6-2.4 1.1-8.2-6.6-13a46.4 46.4 0 0 1 -17.2-18.7c-1.6-5-9.3-1.1-7.2 11.9 2 13 21.7 23.8 31 19.8" fill="#db3333" transform="translate(237.4 426)"/></g><g clip-path="url(#M)" opacity=".2" transform="matrix(.52191 0 0 .52191 101 0)"><path d="m0 0h-8.3a179 179 0 0 0 -2.7 30 43 43 0 0 0 12.3 31c1.8-7.5 0-36.3-1.3-61" fill="#ffae68" transform="translate(274.3 179.7)"/></g></g><g transform="matrix(.86644 0 0 .86644 85.7 -227.7)"><path d="m178.7 501-18.8 11v21.6l19 10.9 19-10.9v-21.6z" fill="#1f9967" stroke="#fff" stroke-width="3.1"/><g transform="matrix(.72354 0 0 .72354 8.6 187.9)"><path d="m221.5 443.1h29.1v38.1h-29.1z" fill="#fff" stroke-linecap="square" stroke-width="25.6"/><g transform="translate(209 432.7)"><path d="m52.5 45v-29.9l-.5-.1-14 8.1v9.9l-6.9 4-4.8-3v26h.1z" fill="#1f9967"/><path d="m17.6 25.4 3.5-2.2 8.7 4.8v-10l8.2-4.9v10l14.5-8v-.1l-26.5-15-26 15.1z" fill="#25ba81"/><path d="m14.9 47v-20l3-1.8-17.8-10.1h-.1v29.9l26.3 15v-26l-3.5-2v10z" fill="#25ba81"/></g></g></g></svg>