<svg xmlns="http://www.w3.org/2000/svg" height="347.9" width="617.2" id="svg2"><defs id="defs6"><clipPath id="clipPath20"><path id="path18" d="M0 500h500V0H0z"/></clipPath><clipPath id="clipPath28"><path id="path26" d="M75.8 98h348.4V84H75.8z"/></clipPath><clipPath id="clipPath48"><path id="path46" d="M125.7 247.6h123.8v-29H125.7z"/></clipPath><clipPath id="clipPath104"><path id="path102" d="M313.3 354.8h5.7v-22h-5.7z"/></clipPath><clipPath id="clipPath124"><path id="path122" d="M317 348.2h3.8V341H317z"/></clipPath><clipPath id="clipPath144"><path id="path142" d="M319.7 344.4h13.6V305h-13.6z"/></clipPath><clipPath id="clipPath200"><path id="path198" d="M329.4 192.2h93.1v-61h-93.1z"/></clipPath><clipPath id="clipPath216"><path id="path214" d="M329.4 192h43.2v-55.9h-43.2z"/></clipPath><clipPath id="clipPath236"><path id="path234" d="M75.6 275.5h258.6V128.8H75.6z"/></clipPath><clipPath id="clipPath260"><path id="path258" d="M314.2 275.5h15v-6h-15z"/></clipPath><clipPath id="clipPath288"><path id="path286" d="M314.2 275.5h55.4v-141h-55.4z"/></clipPath><clipPath id="clipPath312"><path id="path310" d="M307.1 299.5h15.7v-14.9H307z"/></clipPath><clipPath id="clipPath348"><path id="path346" d="M187 223h94.6v-94.2h-94.7z"/></clipPath><clipPath id="clipPath384"><path id="path382" d="M82.8 214h90.3v-74.6H82.8z"/></clipPath><clipPath id="clipPath400"><path id="path398" d="M85.6 214h129.3v-74.6H85.6z"/></clipPath><clipPath id="clipPath420"><path id="path418" d="M82.7 210.3H212v-71H82.7z"/></clipPath><clipPath id="clipPath436"><path id="path434" d="M90 209.7h88V152H90z"/></clipPath><clipPath id="clipPath452"><path id="path450" d="M82.6 214h90.2v-74.6H82.6z"/></clipPath><clipPath id="clipPath468"><path id="path466" d="M157.9 208.3h54v-69h-54z"/></clipPath><clipPath id="clipPath484"><path id="path482" d="M127.9 247.6h120.5v-17H127.9z"/></clipPath><clipPath id="clipPath500"><path id="path498" d="M371.7 189H416v-18.2h-44.3z"/></clipPath><clipPath id="clipPath516"><path id="path514" d="M274.6 354h17.3v-24.3h-17.3z"/></clipPath><clipPath id="clipPath536"><path id="path534" d="M286 343.3h34v-41h-34z"/></clipPath><clipPath id="clipPath552"><path id="path550" d="M271.6 353.8h12.7v-18h-12.7z"/></clipPath><clipPath id="clipPath568"><path id="path566" d="M311.5 349.7h2.5v-12.3h-2.5z"/></clipPath><clipPath id="clipPath584"><path id="path582" d="M314 309.4h29.4v-38.3H314z"/></clipPath><clipPath id="clipPath620"><path id="path618" d="M299.8 300.8h22v-16h-22z"/></clipPath><clipPath id="clipPath636"><path id="path634" d="M299 297.8h13.8v-9.5H299z"/></clipPath><clipPath id="clipPath652"><path id="path650" d="M271.5 240.8h13.2v-61h-13.2z"/></clipPath><clipPath id="clipPath672"><path id="path670" d="M238 257h24.9v-24.2h-25z"/></clipPath><clipPath id="clipPath696"><path id="path694" d="M132.4 311.8h67.7V256h-67.7z"/></clipPath><clipPath id="clipPath712"><path id="path710" d="M182.8 310.8H200v-27.6h-17.3z"/></clipPath><clipPath id="clipPath728"><path id="path726" d="M162.5 361.7h102.2v-129H162.5z"/></clipPath><clipPath id="clipPath752"><path id="path750" d="M215 306.8h21.5v-59.3h-21.6z"/></clipPath><clipPath id="clipPath768"><path id="path766" d="M210 306.8h3.9v-19.4H210z"/></clipPath><clipPath id="clipPath788"><path id="path786" d="M176.5 389.1h60v-48.6h-60z"/></clipPath><clipPath id="clipPath816"><path id="path814" d="M209.4 425.1h55.2v-51h-55.2z"/></clipPath><clipPath id="clipPath832"><path id="path830" d="M218 420h46.6v-45.9h-46.7z"/></clipPath><clipPath id="clipPath852"><path id="path850" d="M206 426.8h33.9v-34.7h-34z"/></clipPath><clipPath id="clipPath868"><path id="path866" d="M263.2 240.8h13.2v-61h-13.2z"/></clipPath><clipPath id="clipPath884"><path id="path882" d="M0 0h500v500H0z"/></clipPath><style id="style2613"/><style id="style589">.cls-2{fill:#25ba81}</style></defs><g transform="matrix(1.33333 0 0 -1.33333 0 348)" id="g10"><path fill="#fff5cc" stroke-width=".7" id="path12" d="M0 0h463v261H0z"/><g transform="translate(101)" id="g3711"><g id="g22" transform="scale(.52191)"><g id="g36"><g opacity=".8" clip-path="url(#clipPath28)" id="g34"><g transform="translate(75.8 91)" id="g32"><path fill="#fcc340" d="M0 0c0-3.9 78-7 174.2-7 96.2 0 174.1 3.1 174.1 7s-78 7-174.1 7C78 7 0 3.9 0 0" id="path30"/></g></g></g></g><g id="g38" transform="translate(130.2 116.4) scale(.52191)"><path fill="#5b321c" d="M0 0s1.5 21.8-12.3 23.8c-13.7 2-90.8 0-97.8 0S-127.6 23-127.6 0l2.4-4.4H-8z" id="path40"/></g><g id="g42" transform="scale(.52191)"><g id="g56"><g opacity=".2" clip-path="url(#clipPath48)" id="g54"><g transform="translate(139.4 246.7)" id="g52"><path fill="#5b321c" d="M0 0c7 0 84 2 97.8 0 13.8-2 12.3-23.8 12.3-23.8l-8-4.4H77.4c-1.8 5.7-7.7 8.5-13 11-6.1 3-12.6 1.5-19.1.9C38.3-17 31-18 24-18c-6.9 0-14.4-.1-21.2 1.3A28.2 28.2 0 0 0-13.6-5.9C-10-.3-4.3 0 0 0" id="path50"/></g></g></g></g><g id="g58" transform="translate(128.5 126) scale(.52191)"><path fill="#ffae68" d="M0 0s0 11.4 11.9 15.7c0 0 24.4-11.3 25.7-15.7 1.9-6.8.1-36.3-1.3-61.6H21.1a677.2 677.2 0 0 0-4 28.9c-1 8.1 2.5 20.1 4 24C9.8-7 0 0 0 0" id="path60"/></g><g id="g62" transform="translate(148.4 93.8) scale(.52191)"><path fill="#754c29" d="M0 0l-2.2-30s11.4-8.4 16.5-9.8c5.1-1.4 4.9-5 2.9-6.3-1-.6-9.3-.8-17.3-.6l-2.3.3A8.7 8.7 0 0 0-9-41.7s0-2.7-.9-4c-.1-.3-.3-.5-.6-.7-2.2.2-4 .3-4.6.5-3.5.7-1.3 13.5.6 16.5L-18.6 0h16.9z" id="path64"/></g><g id="g66" transform="translate(139.6 121.4) scale(.52191)"><path fill="#f4824e" d="M0 0c-11.5 1.7-21.2 8.6-21.2 8.6s0 9.6 9.2 14.6c6.3-3 22-11 23.1-14.5 2-6.8.2-36.4-1.2-61.6h-10a677.6 677.6 0 0 0-4 28.8C-5.1-16-1.6-4 0 0" id="path68"/></g><g id="g70" transform="translate(153.1 73) scale(.52191)"><path fill="#5c3c20" d="M0 0c5.1-1.4 4.9-5 2.9-6.2-.7-.5-4.5-.7-9.3-.7h-2.7l-2.4.3A8.7 8.7 0 0 0-18-1.9s0-2.7-.8-4a8.3 8.3 0 0 0-4.5 4s0-2.7-.8-4l-.1-.2c-3.3 1-1 13.6.7 16.5l-4 29.4h13.2l-2.2-30S-5 1.3 0 0" id="path72"/></g><g id="g74" transform="translate(133.9 203.3) scale(.52191)"><path fill="#414042" d="M0 0c0-4.5 1.6-8.2 3.6-8.2S7-4.5 7 0c0 4.5-1.6 8.2-3.5 8.2S0 4.5 0 0" id="path76"/></g><g id="g78" transform="translate(134 203.3) scale(.52191)"><path fill="#58595b" d="M0 0c0-4.5 1.6-8.2 3.6-8.2S7-4.5 7 0c0 4.5-1.6 8.2-3.5 8.2S0 4.5 0 0" id="path80"/></g><g id="g82" transform="translate(117 186.5) scale(.52191)"><path fill="#e88631" d="M0 0l7-2C5.8 1 8.8 5 8.8 5s.6 1.5 1.7 2.6c4.9 5 7.1 5.6 7.1 5.6s-3.5 5.4-7.4 5.6C6.3 19-2 4.3-2 4.3L.3 0" id="path84"/></g><g id="g86" transform="translate(123.6 195.4) scale(.52191)"><path fill="#ffae68" d="M0 0l-2.5 15.1 5.1 12.2h12.2l7.6-6.2s5-18.8-4.1-24.9C9-9.8 0 0 0 0" id="path88"/></g><g id="g90" transform="translate(162 179.4) scale(.52191)"><path fill="#a7a9ac" d="M0 0c0-6 1.9-11 4.1-11 2.3 0 4.2 5 4.2 11S6.4 11 4 11C2 11 0 6 0 0" id="path92"/></g><g id="g94" transform="translate(162.2 179.4) scale(.52191)"><path fill="#d1d3d4" d="M0 0c0-6 1.9-11 4.1-11 2.3 0 4.2 5 4.2 11S6.4 11 4 11C2 11 0 6 0 0" id="path96"/></g><g id="g98" transform="scale(.52191)"><g id="g112"><g opacity=".3" clip-path="url(#clipPath104)" id="g110"><g transform="translate(315.8 343.8)" id="g108"><path fill="#d1d3d4" d="M0 0c0 4.6-1 8.5-2.5 10.1.5.6 1 1 1.6 1C1.4 11 3.2 6 3.2 0S1.4-11-.9-11c-.6 0-1.1.3-1.6.9C-1-8.5 0-4.6 0 0" id="path106"/></g></g></g></g><g id="g114" transform="translate(165.6 181.7) scale(.52191)"><path fill="#a7a9ac" d="M0 0c2.4-2 6.4-5 0-9.9 0 0-1 2.4-1 5C-1-1.3 0 0 0 0" id="path116"/></g><g id="g118" transform="scale(.52191)"><g id="g132"><g opacity=".2" clip-path="url(#clipPath124)" id="g130"><g transform="translate(317 347.5)" id="g128"><path fill="#a7a9ac" d="M0 0l.3.7c2-1.6 5-3.9 2.7-7.3 1.5 3-1.1 5-3 6.6" id="path126"/></g></g></g></g><g id="g134" transform="translate(169.7 159.1) scale(.52191)"><path fill="#e1e2e3" d="M0 0c.4 0 .7.2 1 .5.4.9 12 21 8.1 30.2-4 9.3-13.4 9-13.5 9a1 1 0 0 1-1-1c0-.6.5-1 1-1 .4 0 8.2.1 11.6-7.8C10.7 21.7-.8 1.8-1 1.6A1 1 0 0 1 0 0" id="path136"/></g><g id="g138" transform="scale(.52191)"><g id="g152"><g clip-path="url(#clipPath144)" id="g150"><g transform="translate(320 344.4)" id="g148"><path fill="#e1e2e3" d="M0 0v-.3c0-.6.5-1 1-1 .4 0 8.1.1 11.5-7.8 3.5-8.2-8-28-8-28.3a1 1 0 1 1 1.8-1L6-39a1 1 0 0 0-1.5-.3 1 1 0 0 0-.3 1.4c0 .2 11.5 20 8 28.3C8.8-1.6 1.1-1.8.7-1.8a1 1 0 0 0-1 1c0 .3 0 .6.3.8" id="path146"/></g></g></g></g><g id="g154" transform="translate(159.2 160.4) scale(.52191)"><path fill="#ffae68" d="M0 0c7.5 1.7 6.5-6.6 7.4-5.9 1 .8 6.3 1.6 6 4.7-.1 3.2-1.2 6.8-5.7 7.3-4.6.5-9.2-1.7-9.2-1.7A462.6 462.6 0 0 1-43 17.5C-70.6 42-86.2 52.3-85.9 42.1c.4-13.1 27.5-28.4 39.4-34C-37 3.3-3.2 0-3.2 0c.8-2.4 1.5-2.4 1.5-2.4S-1.2-.3 0 0" id="path156"/></g><g id="g158" transform="translate(140.8 178.8) scale(.52191)"><path fill="#d1d3d4" d="M0 0c0-7.2 5-13 11-13 6.2 0 11.1 5.8 11.1 13s-5 13-11 13C4.8 13 0 7.2 0 0" id="path160"/></g><g id="g162" transform="translate(147 178.8) scale(.52191)"><path fill="#a7a9ac" d="M0 0c0-2.7 1.6-5 3.6-5s3.7 2.3 3.7 5-1.6 5-3.7 5C1.6 5 0 2.6 0 0" id="path164"/></g><g id="g166" transform="translate(48.3 105.2) scale(.52191)"><path fill="#bd161d" d="M0 0c-7.5-2.6.6 15.7 3.5 15.7h9.3S10.7 3.7 0 0" id="path168"/></g><g id="g170" transform="translate(48.4 100.1) scale(.52191)"><path fill="#f1f2f2" d="M0 0c-3.8 9.9 4.2 18.3 12 25 8 6.8 16.2 4 16.2 4S27 15.3 13.6 6.2C.1-3 0 0 0 0" id="path172"/></g><g id="g174" transform="translate(178 68.5) scale(.52191)"><path fill="#372f3a" d="M0 0a41.6 41.6 0 1 1 83.3 0A41.6 41.6 0 0 1 0 0" id="path176"/></g><g id="g178" transform="translate(186.3 68.5) scale(.52191)"><path fill="#ebecee" d="M0 0a25.9 25.9 0 1 1 51.7 0A25.9 25.9 0 0 1 0 0" id="path180"/></g><g id="g182" transform="translate(188 68.5) scale(.52191)"><path fill="#77787d" d="M0 0a22.7 22.7 0 1 1 45.4 0A22.7 22.7 0 0 1 0 0" id="path184"/></g><g id="g186" transform="translate(192.4 68.5) scale(.52191)"><path fill="#f1f2f4" d="M0 0a14.1 14.1 0 1 1 28.2 0A14.1 14.1 0 0 1 0 0" id="path188"/></g><g id="g190" transform="translate(192.4 100) scale(.52191)"><path fill="#638f8c" d="M0 0a80 80 0 0 0 28.2-1.8c18-5 29.1-17.4 27-24.1-2.1-6.8-27.2-.1-42.8-10.4-15.7-10.3-24.2-26.4-40.3-24-7.5 1-11.7 5.5-11.3 12.5 0 0 4.5 45.1 39.2 47.8" id="path192"/></g><g id="g194" transform="scale(.52191)"><g id="g208"><g opacity=".1" clip-path="url(#clipPath200)" id="g206"><g transform="translate(368.7 191.8)" id="g204"><path fill="#638f8c" d="M0 0l8.4.5C7.2-1 4.9-9.2-7.2-21c-7-6.8-3.4-10.5.4-10.7 3-.2 13.6 7.6 26.2 8.6 18.4 1.6 28.6.6 34.5-4.5-5.9-3.9-27.5.5-41.5-8.7-15.7-10.3-24.2-26.4-40.3-24-7.5 1-11.7 5.5-11.3 12.5 0 0 4.5 45.1 39.2 47.8" id="path202"/></g></g></g></g><g id="g210" transform="scale(.52191)"><g id="g224"><g opacity=".1" clip-path="url(#clipPath216)" id="g222"><g transform="translate(368.7 184)" id="g220"><path fill="#71a29f" d="M0 0c-8.5-9.3-15.1-3.5-21.7-17.5C-26-26.3-30.4-39-37-47.9c-.4.5-.8 1-1 1.6h-.1l-.7 1.8-.1.5a12 12 0 0 0-.4 3.9S-34.7 5 0 7.7l3.9.3A14 14 0 0 0 0 0" id="path218"/></g></g></g></g><g id="g226" transform="translate(171.7 143.4) scale(.52191)"><path fill="#6d9c99" d="M0 0s2.5-12 9.3-30.3c4.3-11.6 7.5-28 21.8-35.3 7.3-3.7 14.2-12.8 5.7-22.1-8.6-9.3-15.2-3.5-21.8-17.5-6.6-14-13.9-37.7-29.2-40.2-9.5-1.5-94 0-100.3 0-6.3 0-11 2.9-13.3 10-5.7 18-117.3 6.8-117.3 6.8s-8.5-1.3-8.2 4.7c.6 15.4 9.5 37.3 25 47.8s21.2 24.3 21.2 24.3h127.6c1-13-5.8-15.8-7.8-18.5-2-2.8-20-18.3-13.2-38.8 6.7-20.5 20.5-23.5 40.8-24.2 20.2-.8 45.5-1.6 51.5 12.7 6 14.3 13.7 44 12.2 55.5S-14.7-3.5-14.7-3.5-4 2.9 0 0" id="path228"/></g><g id="g230" transform="scale(.52191)"><g id="g252"><g opacity=".7" clip-path="url(#clipPath236)" id="g250"><g transform="translate(315.3 271.3)" id="g240"><path fill="#71a29f" d="M0 0s17.3-50 18.8-61.5-6.3-41.3-12.3-55.6c-4.7-11.2-21.4-13.1-38.2-13 16.4 0 32.5 2 37.1 13 6 14.3 13.8 44 12.3 55.6C16.2-50-1.1 0-1.1 0s7.7 4.6 12.5 4.3A33 33 0 0 1 0 0" id="path238"/></g><g transform="translate(100.6 198.7)" id="g244"><path fill="#71a29f" d="M0 0c15.5 10.5 21.3 24.3 21.3 24.3h1S16.6 10.5 1.1 0s-24.5-32.4-25-47.8c-.2-4 3.4-4.7 6-4.8-2.4-.1-7.3.2-7.1 4.8.6 15.4 9.5 37.3 25 47.8" id="path242"/></g><g transform="translate(202.2 139.4)" id="g248"><path fill="#71a29f" d="M0 0c2.3-7.1 7-10 13.3-10 4.1 0 42.9-.6 71.2-.6-28.4 0-68 .6-72.3.6-6.3 0-11 3-13.3 10-2.5 8-26.3 10.2-51.7 10.2C-27 10.3-2.6 8.2 0 0" id="path246"/></g></g></g></g><g id="g254" transform="scale(.52191)"><g id="g268"><g opacity=".3" clip-path="url(#clipPath260)" id="g266"><g transform="translate(329.3 273.4)" id="g264"><path fill="#71a29f" d="M0 0c-1.5-2-11.1-4.5-14.4-4l-.6 1.8S-4.3 4.2-.3 1.4c0 0 0-.5.3-1.4" id="path262"/></g></g></g></g><g id="g270" transform="translate(126.1 72) scale(.52191)"><path fill="#82bab7" d="M0 0c-11 7-13 26.5-13.6 29l.4-1.2C-6.4 7.3 7.3 4.3 27.6 3.5 47.8 2.8 73 2 79 16.3l.3.7S74.7-3.4 57.6-3.4C40.6-3.4 11-6.9 0 0" id="path272"/></g><g id="g274" transform="translate(137.8 209) scale(.52191)"><path fill="#603913" d="M0 0s1.6-4.4-4-6.4c-5.4-2-12.3 2.8-18.2-3.3-3.1-3.2-3.8 3.3-3.8 3.3l4.2 7.6 10 2.5S-2 2.5 0 0" id="path276"/></g><g id="g278" transform="translate(135.7 202) scale(.52191)"><path fill="#ff8f52" d="M0 0s2.8-4.1 2.4-4.9c-.4-.8-3.2-.6-3.6-.3-.4.4.7 3.8 1.2 5.2" id="path280"/></g><g id="g282" transform="scale(.52191)"><g id="g296"><g opacity=".2" clip-path="url(#clipPath288)" id="g294"><g transform="translate(341.1 214)" id="g292"><path fill="#71a29f" d="M0 0c-5 30.6-18.9 45.3-24.5 50.1l-2.4 7.1s10.7 6.4 14.7 3.5c0 0 2.5-12 9.3-30.2C1.4 18.9 4.6 2.5 19-4.8c7.3-3.7 14.2-12.8 5.7-22.2C16-36.3 9.4-30.4 2.8-44.4c-5-10.6-10.4-27-19.4-35.2C-8-64.9 5.4-33.4 0 0" id="path290"/></g></g></g></g><g id="g298" transform="translate(161.1 157.3) scale(.52191)"><path fill="#372f3a" d="M0 0s-4.8 0-5.4 3.1C-6.1 6.3-.6 7.2-.6 7.2 2.5 7.3 9 5.8 6.5 2 5-.3 0 0 0 0" id="path300"/></g><g id="g302" transform="translate(164 141.6) scale(.52191)"><path fill="#71a29f" d="M0 0c-2.7 1.2-8.6 24.9-7 30.5 2.8 10 26.7 7.6 28.3 7.3C31.8 36 31 13.6 23.3 12c-5.5-1-9.2 0-8-7.7C15.6 2.2 2.7-1.2 0 0" id="path304"/></g><g id="g306" transform="scale(.52191)"><g id="g320"><g opacity=".5" clip-path="url(#clipPath312)" id="g318"><g transform="translate(319.4 299.2)" id="g316"><path fill="#71a29f" d="M0 0c3.1-1.5 3.1-2.9 3.4-5.6.2-2.8-2-5.8-11.5-8.4l-2.1-.6c-1 4.2-1.8 8.5-2 12C-7.7-1-2.3 1 0 0" id="path314"/></g></g></g></g><g id="g322" transform="translate(131.1 202.4) scale(.52191)"><path fill="#414042" d="M0 0c0-4.5 1.6-8.2 3.6-8.2S7-4.5 7 0c0 4.5-1.6 8.2-3.5 8.2S0 4.5 0 0" id="path324"/></g><g id="g326" transform="translate(131.3 202.4) scale(.52191)"><path fill="#58595b" d="M0 0c0-4.5 1.6-8.2 3.6-8.2S7-4.5 7 0c0 4.5-1.6 8.2-3.5 8.2S0 4.5 0 0" id="path328"/></g><g id="g330" transform="translate(131.3 202) scale(.52191)"><path fill="none" stroke="#808285" stroke-width=".3" stroke-linecap="round" stroke-miterlimit="10" d="M0 0l-13.5 1" id="path332"/></g><g id="g334" transform="translate(134.9 202.2) scale(.52191)"><path fill="#808285" d="M0 0c2.3 0 2.8.2 2.8.3 0 0 0 .2-.9.7v.5c0 .2.3.2.4.1C3 1.2 3.7.7 3.6.1 3.4-.6 2-.7 0-.7A.4.4 0 1 0 0 0" id="path336"/></g><g id="g338" transform="translate(133.5 194.8) scale(.52191)"><path fill="none" stroke="#ff2d21" stroke-width=".3" stroke-linecap="round" stroke-linejoin="round" stroke-miterlimit="10" d="M0 0s-2.5-1-4.2 1" id="path340"/></g><g id="g342" transform="scale(.52191)"><g id="g356"><g opacity=".2" clip-path="url(#clipPath348)" id="g354"><g transform="translate(249.4 223)" id="g352"><path fill="#71a29f" d="M0 0c1-13-5.8-15.8-7.8-18.5-2-2.8-20-18.3-13.2-38.8 6.3-19.1 18.7-23 36.7-24 5.1-6.2 11-10.3 16.4-13-27.8.1-63.2.8-67.1.8-6.3 0-11 2.8-13.3 10-1.1 3.5-6.4 5.9-14.2 7.5l2.2 44.4C-44.8-20.8-41.6-8.5-41.6 0z" id="path350"/></g></g></g></g><g id="g358" transform="translate(56.8 68.5) scale(.52191)"><path fill="#372f3a" d="M0 0a41.6 41.6 0 1 1 83.3 0A41.6 41.6 0 0 1 0 0" id="path360"/></g><g id="g362" transform="translate(65 68.5) scale(.52191)"><path fill="#ebecee" d="M0 0a25.9 25.9 0 1 1 51.7 0A25.9 25.9 0 0 1 0 0" id="path364"/></g><g id="g366" transform="translate(66.7 68.5) scale(.52191)"><path fill="#77787d" d="M0 0a22.7 22.7 0 1 1 45.4 0A22.7 22.7 0 0 1 0 0" id="path368"/></g><g id="g370" transform="translate(71.2 68.5) scale(.52191)"><path fill="#f1f2f4" d="M0 0a14.1 14.1 0 1 1 28.2 0A14.1 14.1 0 0 1 0 0" id="path372"/></g><g id="g374" transform="translate(93.4 73.2) scale(.52191)"><path fill="#58595b" d="M0 0s-4.5-11.5-19-11.5h-23c-9.4 0-13.4 7-14.7 12.2L-43.2 7-7 5.4z" id="path376"/></g><g id="g378" transform="scale(.52191)"><g id="g392"><g opacity=".7" clip-path="url(#clipPath384)" id="g390"><g transform="translate(85.6 165.4)" id="g388"><path fill="#71a29f" d="M0 0a90.8 90.8 0 0 0 75 48.5A90.8 90.8 0 0 1 1 0c-4.6-12-3-25.5 3-25.5 2 0 50.2-.6 83.4-.6-33.2 0-82.4.6-84.4.6C-3.2-25.5-4.8-12 0 0" id="path386"/></g></g></g></g><g id="g394" transform="scale(.52191)"><g id="g408"><g opacity=".5" clip-path="url(#clipPath400)" id="g406"><g transform="translate(91.3 140)" id="g404"><path fill="#71a29f" d="M0 0c-6.2 0-7.8 13.5-3 25.5A90.8 90.8 0 0 0 71 74c41.3 1.8 48.6-29.5 51.8-45.7 3.3-16.3-4.2-27-8.5-28.3C110.1-1.3 3 0 0 0" id="path402"/></g></g></g></g><g id="g410" transform="translate(46.1 73) scale(.52191)"><path fill="#71a29f" d="M0 0c-6.2 0-7.8 13.5-3 25.5A90.8 90.8 0 0 0 71 74c41.3 1.8 48.6-29.5 51.8-45.7 3.3-16.3-4.2-27-8.5-28.3C110.1-1.3 3 0 0 0" id="path412"/></g><g id="g414" transform="scale(.52191)"><g id="g428"><g opacity=".1" clip-path="url(#clipPath420)" id="g426"><g transform="translate(110.4 144)" id="g424"><path fill="#71a29f" d="M0 0c40.7 0 73.7 26 73.7 58.2 0 2.8-.3 5.5-.7 8.2 20.5-8.6 25.3-29.7 27.8-42.1C104 8 96.5-2.7 92.3-4 88-5.3-19-4-22-4c-3.1 0-5 3.4-5.6 8.2A90.8 90.8 0 0 1 0 0" id="path422"/></g></g></g></g><g id="g430" transform="scale(.52191)"><g id="g444"><g opacity=".1" clip-path="url(#clipPath436)" id="g442"><g transform="translate(176.2 207.6)" id="g440"><path fill="#71a29f" d="M0 0c7.6-2.9-7.6-54.8-67-54.8-6.6 0-19.8-2.8-19.1 2.2C-82.1-24.1-29 11 0 0" id="path438"/></g></g></g></g><g id="g446" transform="scale(.52191)"><g id="g460"><g opacity=".7" clip-path="url(#clipPath452)" id="g458"><g transform="translate(85.3 165.4)" id="g456"><path fill="#71a29f" d="M0 0a90.8 90.8 0 0 0 75 48.5A90.8 90.8 0 0 1 1 0c-4.6-12-3-25.5 3-25.5 2 0 50.2-.6 83.4-.6-33.2 0-82.4.6-84.4.6C-3.2-25.5-4.8-12 0 0" id="path454"/></g></g></g></g><g id="g462" transform="scale(.52191)"><g id="g476"><g opacity=".2" clip-path="url(#clipPath468)" id="g474"><g transform="translate(191.9 188.4)" id="g472"><path fill="#71a29f" d="M0 0c0 7-1.6 13.6-4.4 19.8 17-9.5 21.4-28.5 23.7-40 3.2-16.3-4.3-27-8.5-28.3-1.8-.5-22-.6-44.8-.5C-13.6-38.7 0-20.6 0 0" id="path470"/></g></g></g></g><g id="g478" transform="scale(.52191)"><g id="g492"><g opacity=".2" clip-path="url(#clipPath484)" id="g490"><g transform="translate(201.2 239.2)" id="g488"><path fill="#5b321c" d="M0 0c-21.3 0-11-11-45.4-7.1A49.6 49.6 0 0 0-73.3 4.2c3.5 3.2 8 3.4 11.5 3.4 7 0 84 2 97.8 0 6.7-1 9.8-6.7 11.2-12.2C26.8-15.9 11.3 0 0 0" id="path486"/></g></g></g></g><g id="g494" transform="scale(.52191)"><g id="g508"><g opacity=".2" clip-path="url(#clipPath500)" id="g506"><g transform="translate(385.4 188.8)" id="g504"><path fill="#638f8c" d="M0 0c7 2.4 34-10.6 30.2-14.6-4-4.1-17.3.3-30.9-2.6-20-4.3-14.8 12 .7 17.2" id="path502"/></g></g></g></g><g id="g510" transform="scale(.52191)"><g id="g524"><g opacity=".5" clip-path="url(#clipPath516)" id="g522"><g transform="translate(275 332)" id="g520"><path fill="#d1d3d4" d="M0 0c7 0 12.7 6.7 12.7 14.9 0 2.6-.6 5-1.6 7.2 3.4-2.2 5.8-6.5 5.8-11.4 0-7.2-5-13-11-13A10 10 0 0 0-.4 0H0" id="path518"/></g></g></g></g><g id="g526" transform="translate(166.5 157.7) scale(.52191)"><path fill="#e1e2e3" d="M0 0a1 1 0 0 1 1 1.3c-.2 1-5 24.3-16.3 35-4.4 4-16.1 5.1-16.6 5.1a1 1 0 0 1-.2-2.1c.1 0 11.5-1 15.4-4.6C-6 24.5-1.1 1-1 .9A1 1 0 0 1 0 0" id="path528"/></g><g id="g530" transform="scale(.52191)"><g id="g544"><g clip-path="url(#clipPath536)" id="g542"><g transform="translate(286.2 343.3)" id="g540"><path fill="#e1e2e3" d="M0 0c0-.6.4-1 1-1 0 0 11.5-1 15.3-4.7C27.2-16 32-39.3 32-39.6a1 1 0 0 1 1.3-.8c.2 0 .4.2.6.4a1 1 0 0 0-1-1 1 1 0 0 0-1.1.8c0 .3-4.8 23.7-15.7 33.9C12.2-2.7.8-1.7.7-1.7a1 1 0 0 0-1 1.1c0 .3.2.4.3.6" id="path538"/></g></g></g></g><g id="g546" transform="scale(.52191)"><g id="g560"><g opacity=".3" clip-path="url(#clipPath552)" id="g558"><g transform="translate(272.4 346.6)" id="g556"><path fill="#d1d3d4" d="M0 0c-1.6-4.9-.5-9.7 2.6-10.7s7 2 8.6 7C13 1 11.7 5.8 8.6 6.8S1.6 5 0 0" id="path554"/></g></g></g></g><g id="g562" transform="scale(.52191)"><g id="g576"><g opacity=".3" clip-path="url(#clipPath568)" id="g574"><g transform="translate(311.5 343.6)" id="g572"><path fill="#d1d3d4" d="M0 0c0-3.4.5-6.2 1.2-6.2S2.4-3.4 2.4 0c0 3.4-.5 6.2-1.2 6.2S0 3.4 0 0" id="path570"/></g></g></g></g><g id="g578" transform="scale(.52191)"><g id="g592"><g opacity=".2" clip-path="url(#clipPath584)" id="g590"><g transform="translate(319.7 295)" id="g588"><path fill="#71a29f" d="M0 0c8 3 10.5 11.7 11.1 14.4a37 37 0 0 0 4.7-.4c10.5-1.8 9.7-24.2 1.9-25.7-5.4-1-9.1 0-8-7.7.3-1.7-7.6-4.2-12.3-4.6C-5.9-16.4-8.5-3.3 0 0" id="path586"/></g></g></g></g><g id="g594" transform="translate(176.1 147.9) scale(.52191)"><path fill="#f1f2f2" d="M0 0l-4.3-.6A52 52 0 0 0-5 26l3.2-.3C8.6 23.9 7.8 1.5 0 0" id="path596"/></g><g id="g598" transform="translate(155 153.3) scale(.52191)"><path fill="#372f3a" d="M0 0s3.6.6 4.9-3.4c1.2-4-2.2-5.4-4.9-6-2.7-.6-10.4-2.9-10.4-2.9s-3.4-.5-4.1 5C-15.3-2 0 0 0 0" id="path600"/></g><g id="g602" transform="translate(155 153.3) scale(.52191)"><path fill="#6d9c99" d="M0 0s-.8 1.5 3.6 2.4c4.4.9 14.7 5.9 17.8 4.4 3.1-1.5 3.1-3 3.4-5.7.2-2.7-2-5.7-11.5-8.4C3.8-9.9 3.9-8.9 3-8.3" id="path604"/></g><g id="g606" transform="translate(147.5 149.5) scale(.52191)"><path fill="#493e4d" d="M0 0c-.2 1.2.5 2.2 1.6 3.1 0 0 7.1-1.9 2.6-8C4.2-4.9.7-5.4 0 0" id="path608"/></g><g id="g610" transform="translate(115.3 184.3) scale(.52191)"><path fill="#f4824e" d="M0 0c2.7.9 8.5-2 17-8.3 4.6-6.4 10-15 16.2-24.8l9.3-6.5c-2 .6-3.7 1.2-5 1.8C28.7-33.6 11.3-24 3-14-.2-8.4-1.9-3.3 0 0" id="path612"/></g><g id="g614" transform="scale(.52191)"><g id="g628"><g opacity=".1" clip-path="url(#clipPath620)" id="g626"><g transform="translate(314 293.5)" id="g624"><path fill="#6d9c99" d="M0 0c1.3 1.8 1.5 5 .2 7 1.8.4 3.3.5 4.2 0 3-1.4 3-2.8 3.3-5.6.3-2.7-2-5.7-11.5-8.3-9.5-2.7-9.3-1.7-10.1-1l-.4.9a27 27 0 0 1 8.1 2.2A14 14 0 0 1 0 0" id="path622"/></g></g></g></g><g id="g630" transform="scale(.52191)"><g id="g644"><g opacity=".2" clip-path="url(#clipPath636)" id="g642"><g transform="translate(312.6 297.5)" id="g640"><path fill="#6d9c99" d="M0 0c.6-1.2-.8-5.8-4-7.3-3.3-1.4-6.7-2.7-7.7-1.4-1 1.2-2.5 4-1.5 5S-.7 1.3 0 0" id="path638"/></g></g></g></g><g id="g646" transform="scale(.52191)"><g id="g660"><g opacity=".2" clip-path="url(#clipPath652)" id="g658"><g transform="translate(282.6 179.7)" id="g656"><path fill="#ffae68" d="M0 0h-8.3A179 179 0 0 0-11 30 43 43 0 0 0 1.3 61c1.8-7.5 0-36.3-1.3-61" id="path654"/></g></g></g></g><g id="g662" transform="translate(124.2 126) scale(.52191)"><path fill="#ffae68" d="M0 0s0 11.4 11.9 15.7c0 0 24.4-11.3 25.7-15.7 1.9-6.8.1-36.3-1.3-61.6h-13c-1.7 10.1-3.2 21-4.1 29.1-1 8.2.4 20 2 23.9A53.8 53.8 0 0 0 0 0" id="path664"/></g><g id="g666" transform="scale(.52191)"><g id="g680"><g opacity=".2" clip-path="url(#clipPath672)" id="g678"><g transform="translate(249.8 257)" id="g676"><path fill="#ffae68" d="M0 0s6.5-3 13-6.6C12-9 8.1-17.3 8.2-24.2c-11 2-20 8.5-20 8.5S-12-4.3 0 0" id="path674"/></g></g></g></g><g id="g682" transform="translate(144 94.4) scale(.52191)"><path fill="#754c29" d="M0 0l-2.1-31.2s11.3-8.4 16.5-9.7c5-1.4 4.8-5 2.8-6.3-1-.7-9.3-.8-17.2-.6l-2.4.3A8.7 8.7 0 0 0-9-42.8s0-2.7-.8-4l-.6-.7-4.7.4c-3.5.8-1.2 13.6.6 16.5L-18.6 0h16.9z" id="path684"/></g><g id="g686" transform="translate(119.4 187.5) scale(.52191)"><path fill="#f1e5cf" d="M0 0c2-1.5 2.4-3.8 2.4-3.8 1.3-3 2.7-20.6.9-25.7 0 0-3.5-12-11-23.3 0 0 14.5-34.4 43.1-36.4 0 0 4.5-20.4-13.5-32C.4-135.1-15.8-118-27.6-118c-21.2 0-11-11-45.3-7.1-34.3 3.8-36.3 28.5-51.9 32.1 0 0 56 63.9 94.4 48.2 0 0 2.2 16.6 2.8 23.5.6 6.9 4.4 19.7 4.4 19.7S-10.7 7.9 0 0" id="path688"/></g><g id="g690" transform="scale(.52191)"><g id="g704"><g opacity=".4" clip-path="url(#clipPath696)" id="g702"><g transform="translate(200.1 311.8)" id="g700"><path fill="#f1e5cf" d="M0 0s-70.6-27-67.6-52.5C-65.6-70.1-21.6-14 0 0" id="path698"/></g></g></g></g><g id="g706" transform="scale(.52191)"><g id="g720"><g opacity=".4" clip-path="url(#clipPath712)" id="g718"><g transform="translate(200.1 310.8)" id="g716"><path fill="#f1e5cf" d="M0 0s-18-17.8-17.3-26C-16.6-34.2-2-7.7 0 0" id="path714"/></g></g></g></g><g id="g722" transform="scale(.52191)"><g id="g736"><g opacity=".4" clip-path="url(#clipPath728)" id="g734"><g transform="translate(162.5 233.6)" id="g732"><path fill="#f1e5cf" d="M0 0c24.7 4.6 23.3 15.9 36.7 17 13.4 1 23.4 3 18.9 18.4-4.5 15.4.5 26.9-2.9 32.4s-7.9 9.4-7.9 9.4c3.9-2.8 10.8-2.2 10.8-2.2 4.6 9-2 29.2-2 29.2 8.7 1 4.9 23.2 4.9 23.2 1 .3 2 .6 3 .7 1.5-.4 3.2-1.2 4.7-2.4 2-1.5 2.4-3.8 2.4-3.8a71.8 71.8 0 0 0 1-25.7s-3.6-12-11-23.3c0 0 14.4-34.4 43-36.3 0 0 4.5-20.5-13.5-32.1C66.6-9.3 50.4 7.8 38.7 7.7 18.9 7.7 26.3-1.7 0 0" id="path730"/></g></g></g></g><g id="g738" transform="translate(116.4 177.1) scale(.52191)"><path fill="#eda261" d="M0 0s-2.4-2.8-4.3-.4c-2 2.5.7 13.5.7 13.5C-3 14 3 9 0 0" id="path740"/></g><g id="g742" transform="translate(123 195.3) scale(.52191)"><path fill="#603913" d="M0 0s3.3-6-2.5-11.9c-5.9-5.8-15.2-7-21.6-6.4-6.4.6-13.2 7.3-24.9.8-11.6-6.5-4-17-.7-15.7 0 0-14.5-4.3-13.8 11.3 0 0-1.8-1.2-1.7-3.5 0 0-4.7 6.8.7 10.4 0 0-11.9-4-16.9 6-4.9 9.9 4.7 11.8 5.5 11.9 0 0-1.8-7.5 4.4-8 0 0 .3 2.8-2.6 3.6 0 0 1 3 8 1 0 0-5 5.3 2.4 10.7 0 0 1.6-6.4 8.3-6.3 6.8.1 7.6 11.2 24.5 11.3 0 0 25.3-1.3 30.9-15.2" id="path744"/></g><g id="g746" transform="scale(.52191)"><g id="g760"><g opacity=".4" clip-path="url(#clipPath752)" id="g758"><g transform="translate(215 306.8)" id="g756"><path fill="#f1e5cf" d="M0 0s5.3-18.7 11.6-29.9C18-40.9 28-56 15.2-59.2 2.2-62.3-.8-10.7 0 0" id="path754"/></g></g></g></g><g id="g762" transform="scale(.52191)"><g id="g776"><g opacity=".4" clip-path="url(#clipPath768)" id="g774"><g transform="translate(213.9 306.8)" id="g772"><path fill="#f1e5cf" d="M0 0s-.7-17.2-2.6-19.2C-4.6-21.2-4.4-8 0 0" id="path770"/></g></g></g></g><g id="g778" transform="translate(149.2 151.7) scale(.52191)"><path fill="#ffae68" d="M0 0c6.4 0 3.1-7.6 4.5-8 1.1-.5 7-.5 7.9 2.6.8 3 1 6.8-3.2 8.7C5.1 5.3 0 4.6 0 4.6c-10 9.1-32.8 24.8-32.8 24.8-14.5 22.6-24.4 39.2-31 35.3C-75 58.1-52.3 33.2-43 24-35.3 16.5-3 1-3 1c0-2.5.6-2.7.6-2.7S-.4 0 0 0" id="path780"/></g><g id="g782" transform="scale(.52191)"><g id="g800"><g opacity=".3" clip-path="url(#clipPath788)" id="g798"><g transform="translate(187.4 365.8)" id="g796"><path fill="#603913" d="M0 0c11.8 5 26.7-2.6 31.7 3.8 5 6.5-13.1 19-13.1 19l2 .5c7-1 23.1-4.1 27.5-14.8 0 0 3.3-6-2.5-11.9-5.9-5.8-15.2-7-21.6-6.4-6.4.6-13.2 7.3-24.9.8C-12-15.3-5.4-25.3-2-24.8a17 17 0 0 0-3.3-.5C-15.5-21-10.7-4.6 0 0" id="path794"/></g></g></g></g><g id="g802" transform="translate(125.4 196.3) scale(.52191)"><path fill="#603913" d="M0 0s.5-5.5 5.2-7.2c-5 1.4-8.7 5.3-8.7 5.3l-.2 1.5z" id="path804"/></g><g id="g806" transform="translate(137.8 209) scale(.52191)"><path fill="#db3333" d="M0 0c-.8-2.8-17.9.6-21.6-8.1-3.7-8.7-.2-15.6-3-16.7-2.6-1.2-8-3.4-22.6 2.5C-62-16.4-63-1.6-60.4 7.2c2.6 8.8 13 23 33.2 21.5C-7 27 2.8 9.6 0 0" id="path808"/></g><g id="g810" transform="scale(.52191)"><g id="g824"><g opacity=".4" clip-path="url(#clipPath816)" id="g822"><g transform="translate(243.7 425)" id="g820"><path fill="#db3333" d="M0 0c4-.3 7.5-1.2 10.6-2.6 8.2-6.3 11.7-15.9 9.8-22.1-.8-2.8-17.8.6-21.6-8.1-3.7-8.7-.2-15.6-2.9-16.7-2.7-1.2-8-3.4-22.5 2.4-8.4 7-8.7 18.3-6.6 25.6 2.6 8.8 13 23 33.2 21.5" id="path818"/></g></g></g></g><g id="g826" transform="scale(.52191)"><g id="g840"><g opacity=".4" clip-path="url(#clipPath832)" id="g838"><g transform="translate(252.2 420)" id="g836"><path fill="#db3333" d="M0 0c2-.2 4-.5 5.7-1 5.5-6 7.7-13.5 6.1-18.6C11-22.4-6-19-9.7-27.7c-3.7-8.8-.2-15.6-3-16.8-2.3-1-6.5-2.7-16.9.5a26 26 0 0 0-3.6 22.5c2.6 8.8 13 23 33.2 21.5" id="path834"/></g></g></g></g><g id="g842" transform="translate(125.3 195.9) scale(.52191)"><path fill="#f1f2f2" d="M0 0c.6 0 1.2.4 1.4 1 .8 2.2.7 3.9.6 5.6-.1 2.3-.3 4.9 1.8 9.8 2.2 5 9.4 5.7 14.7 6.1 3 .3 5.1.4 6.4 1.3a1.5 1.5 0 0 1-1.8 2.5c-.5-.4-3-.6-4.9-.8-5.7-.5-14.3-1.2-17.1-8C-1.3 12-1.1 9-1 6.5c0-1.7 0-2.9-.5-4.5A1.5 1.5 0 0 1 0 0" id="path844"/></g><g id="g846" transform="scale(.52191)"><g id="g860"><g opacity=".6" clip-path="url(#clipPath852)" id="g858"><g transform="translate(237.4 426)" id="g856"><path fill="#db3333" d="M0 0c5.6-2.4 1.1-8.2-6.6-13a46.4 46.4 0 0 1-17.2-18.7c-1.6-5-9.3-1.1-7.2 11.9C-29-6.8-9.3 4 0 0" id="path854"/></g></g></g></g><g id="g862" transform="scale(.52191)"><g id="g876"><g opacity=".2" clip-path="url(#clipPath868)" id="g874"><g transform="translate(274.3 179.7)" id="g872"><path fill="#ffae68" d="M0 0h-8.3A179 179 0 0 0-11 30 43 43 0 0 0 1.3 61c1.8-7.5 0-36.3-1.3-61" id="path870"/></g></g></g></g></g></g><g transform="matrix(.86644 0 0 .86644 85.7 -227.7)" id="g1490"><path d="M178.7 501l-18.8 11v21.6l19 10.9 19-10.9V512z" id="polygon1467" fill="#1f9967" stroke="#fff" stroke-width="3.1"/><g id="g1463" transform="matrix(.72354 0 0 .72354 8.6 187.9)"><path id="rect652" fill="#fff" stroke-width="25.6" stroke-linecap="square" d="M221.5 443.1h29.1v38.1h-29.1z"/><path transform="translate(209 432.7)" id="polygon607" fill="#1f9967" d="M52.5 45V15.1L52 15l-14 8.1V33l-6.9 4-4.8-3v26h.1z"/><path transform="translate(209 432.7)" class="cls-2" id="polygon609" fill="#25ba81" d="M17.6 25.4l3.5-2.2 8.7 4.8V18l8.2-4.9v10l14.5-8V15L26 0 0 15.1z"/><path transform="translate(209 432.7)" class="cls-2" id="polygon611" fill="#25ba81" d="M14.9 47V27l3-1.8L.1 15.1H0V45l26.3 15V34l-3.5-2v10z"/></g></g></svg>