<svg xmlns="http://www.w3.org/2000/svg" id="svg2" width="617.2" height="347.9"><defs id="defs6"><clipPath id="clipPath20"><path d="M0 500h500V0H0z" id="path18"/></clipPath><clipPath id="clipPath28"><path d="M75.8 98h348.4V84H75.8z" id="path26"/></clipPath><clipPath id="clipPath48"><path d="M125.7 247.6h123.8v-29H125.7z" id="path46"/></clipPath><clipPath id="clipPath104"><path d="M313.3 354.8h5.7v-22h-5.7z" id="path102"/></clipPath><clipPath id="clipPath124"><path d="M317 348.2h3.8V341H317z" id="path122"/></clipPath><clipPath id="clipPath144"><path d="M319.7 344.4h13.6V305h-13.6z" id="path142"/></clipPath><clipPath id="clipPath200"><path d="M329.4 192.2h93.1v-61h-93.1z" id="path198"/></clipPath><clipPath id="clipPath216"><path d="M329.4 192h43.2v-55.9h-43.2z" id="path214"/></clipPath><clipPath id="clipPath236"><path d="M75.6 275.5h258.6V128.8H75.6z" id="path234"/></clipPath><clipPath id="clipPath260"><path d="M314.2 275.5h15v-6h-15z" id="path258"/></clipPath><clipPath id="clipPath288"><path d="M314.2 275.5h55.4v-141h-55.4z" id="path286"/></clipPath><clipPath id="clipPath312"><path d="M307.1 299.5h15.7v-14.9H307z" id="path310"/></clipPath><clipPath id="clipPath348"><path d="M187 223h94.6v-94.2h-94.7z" id="path346"/></clipPath><clipPath id="clipPath384"><path d="M82.8 214h90.3v-74.6H82.8z" id="path382"/></clipPath><clipPath id="clipPath400"><path d="M85.6 214h129.3v-74.6H85.6z" id="path398"/></clipPath><clipPath id="clipPath420"><path d="M82.7 210.3H212v-71H82.7z" id="path418"/></clipPath><clipPath id="clipPath436"><path d="M90 209.7h88V152H90z" id="path434"/></clipPath><clipPath id="clipPath452"><path d="M82.6 214h90.2v-74.6H82.6z" id="path450"/></clipPath><clipPath id="clipPath468"><path d="M157.9 208.3h54v-69h-54z" id="path466"/></clipPath><clipPath id="clipPath484"><path d="M127.9 247.6h120.5v-17H127.9z" id="path482"/></clipPath><clipPath id="clipPath500"><path d="M371.7 189H416v-18.2h-44.3z" id="path498"/></clipPath><clipPath id="clipPath516"><path d="M274.6 354h17.3v-24.3h-17.3z" id="path514"/></clipPath><clipPath id="clipPath536"><path d="M286 343.3h34v-41h-34z" id="path534"/></clipPath><clipPath id="clipPath552"><path d="M271.6 353.8h12.7v-18h-12.7z" id="path550"/></clipPath><clipPath id="clipPath568"><path d="M311.5 349.7h2.5v-12.3h-2.5z" id="path566"/></clipPath><clipPath id="clipPath584"><path d="M314 309.4h29.4v-38.3H314z" id="path582"/></clipPath><clipPath id="clipPath620"><path d="M299.8 300.8h22v-16h-22z" id="path618"/></clipPath><clipPath id="clipPath636"><path d="M299 297.8h13.8v-9.5H299z" id="path634"/></clipPath><clipPath id="clipPath652"><path d="M271.5 240.8h13.2v-61h-13.2z" id="path650"/></clipPath><clipPath id="clipPath672"><path d="M238 257h24.9v-24.2h-25z" id="path670"/></clipPath><clipPath id="clipPath696"><path d="M132.4 311.8h67.7V256h-67.7z" id="path694"/></clipPath><clipPath id="clipPath712"><path d="M182.8 310.8H200v-27.6h-17.3z" id="path710"/></clipPath><clipPath id="clipPath728"><path d="M162.5 361.7h102.2v-129H162.5z" id="path726"/></clipPath><clipPath id="clipPath752"><path d="M215 306.8h21.5v-59.3h-21.6z" id="path750"/></clipPath><clipPath id="clipPath768"><path d="M210 306.8h3.9v-19.4H210z" id="path766"/></clipPath><clipPath id="clipPath788"><path d="M176.5 389.1h60v-48.6h-60z" id="path786"/></clipPath><clipPath id="clipPath816"><path d="M209.4 425.1h55.2v-51h-55.2z" id="path814"/></clipPath><clipPath id="clipPath832"><path d="M218 420h46.6v-45.9h-46.7z" id="path830"/></clipPath><clipPath id="clipPath852"><path d="M206 426.8h33.9v-34.7h-34z" id="path850"/></clipPath><clipPath id="clipPath868"><path d="M263.2 240.8h13.2v-61h-13.2z" id="path866"/></clipPath><clipPath id="clipPath884"><path d="M0 0h500v500H0z" id="path882"/></clipPath><style id="style2613"></style></defs><g id="g10" transform="matrix(1.33333 0 0 -1.33333 0 348)"><path d="M0 0h463v261H0z" id="path12" fill="#fff5cc" stroke-width=".7"/><g id="g3711" transform="translate(101)"><g transform="scale(.52191)" id="g22"><g id="g36"><g id="g34" clip-path="url(#clipPath28)" opacity=".8"><g id="g32" transform="translate(75.8 91)"><path id="path30" d="M0 0c0-3.9 78-7 174.2-7 96.2 0 174.1 3.1 174.1 7s-78 7-174.1 7C78 7 0 3.9 0 0" fill="#fcc340"/></g></g></g></g><g transform="translate(130.2 116.4) scale(.52191)" id="g38"><path id="path40" d="M0 0s1.5 21.8-12.3 23.8c-13.7 2-90.8 0-97.8 0S-127.6 23-127.6 0l2.4-4.4H-8z" fill="#5b321c"/></g><g transform="scale(.52191)" id="g42"><g id="g56"><g id="g54" clip-path="url(#clipPath48)" opacity=".2"><g id="g52" transform="translate(139.4 246.7)"><path id="path50" d="M0 0c7 0 84 2 97.8 0 13.8-2 12.3-23.8 12.3-23.8l-8-4.4H77.4c-1.8 5.7-7.7 8.5-13 11-6.1 3-12.6 1.5-19.1.9C38.3-17 31-18 24-18c-6.9 0-14.4-.1-21.2 1.3A28.2 28.2 0 0 0-13.6-5.9C-10-.3-4.3 0 0 0" fill="#5b321c"/></g></g></g></g><g transform="translate(128.5 126) scale(.52191)" id="g58"><path id="path60" d="M0 0s0 11.4 11.9 15.7c0 0 24.4-11.3 25.7-15.7 1.9-6.8.1-36.3-1.3-61.6H21.1a677.2 677.2 0 0 0-4 28.9c-1 8.1 2.5 20.1 4 24C9.8-7 0 0 0 0" fill="#ffae68"/></g><g transform="translate(148.4 93.8) scale(.52191)" id="g62"><path id="path64" d="M0 0l-2.2-30s11.4-8.4 16.5-9.8c5.1-1.4 4.9-5 2.9-6.3-1-.6-9.3-.8-17.3-.6l-2.3.3A8.7 8.7 0 0 0-9-41.7s0-2.7-.9-4c-.1-.3-.3-.5-.6-.7-2.2.2-4 .3-4.6.5-3.5.7-1.3 13.5.6 16.5L-18.6 0h16.9z" fill="#754c29"/></g><g transform="translate(139.6 121.4) scale(.52191)" id="g66"><path id="path68" d="M0 0c-11.5 1.7-21.2 8.6-21.2 8.6s0 9.6 9.2 14.6c6.3-3 22-11 23.1-14.5 2-6.8.2-36.4-1.2-61.6h-10a677.6 677.6 0 0 0-4 28.8C-5.1-16-1.6-4 0 0" fill="#f4824e"/></g><g transform="translate(153.1 73) scale(.52191)" id="g70"><path id="path72" d="M0 0c5.1-1.4 4.9-5 2.9-6.2-.7-.5-4.5-.7-9.3-.7h-2.7l-2.4.3A8.7 8.7 0 0 0-18-1.9s0-2.7-.8-4a8.3 8.3 0 0 0-4.5 4s0-2.7-.8-4l-.1-.2c-3.3 1-1 13.6.7 16.5l-4 29.4H-14.3l-2.2-30S-5 1.3 0 0" fill="#5c3c20"/></g><g transform="translate(133.9 203.3) scale(.52191)" id="g74"><path id="path76" d="M0 0c0-4.5 1.6-8.2 3.6-8.2S7-4.5 7 0c0 4.5-1.6 8.2-3.5 8.2C1.6 8.2 0 4.5 0 0" fill="#414042"/></g><g transform="translate(134 203.3) scale(.52191)" id="g78"><path id="path80" d="M0 0c0-4.5 1.6-8.2 3.6-8.2S7-4.5 7 0c0 4.5-1.6 8.2-3.5 8.2C1.6 8.2 0 4.5 0 0" fill="#58595b"/></g><g transform="translate(117 186.5) scale(.52191)" id="g82"><path id="path84" d="M0 0l7-2C5.8 1 8.8 5 8.8 5s.6 1.5 1.7 2.6c4.9 5 7.1 5.6 7.1 5.6s-3.5 5.4-7.4 5.6C6.3 19-2 4.3-2 4.3L.3 0" fill="#e88631"/></g><g transform="translate(123.6 195.4) scale(.52191)" id="g86"><path id="path88" d="M0 0l-2.5 15.1 5.1 12.2h12.2l7.6-6.2s5-18.8-4.1-24.9C9-9.8 0 0 0 0" fill="#ffae68"/></g><g transform="translate(162 179.4) scale(.52191)" id="g90"><path id="path92" d="M0 0c0-6 1.9-11 4.1-11 2.3 0 4.2 5 4.2 11S6.4 11 4 11C2 11 0 6 0 0" fill="#a7a9ac"/></g><g transform="translate(162.2 179.4) scale(.52191)" id="g94"><path id="path96" d="M0 0c0-6 1.9-11 4.1-11 2.3 0 4.2 5 4.2 11S6.4 11 4 11C2 11 0 6 0 0" fill="#d1d3d4"/></g><g transform="scale(.52191)" id="g98"><g id="g112"><g id="g110" clip-path="url(#clipPath104)" opacity=".3"><g id="g108" transform="translate(315.8 343.8)"><path id="path106" d="M0 0c0 4.6-1 8.5-2.5 10.1.5.6 1 1 1.6 1C1.4 11 3.2 6 3.2 0c0-6-1.8-11-4.1-11-.6 0-1.1.3-1.6.9C-1-8.5 0-4.6 0 0" fill="#d1d3d4"/></g></g></g></g><g transform="translate(165.6 181.7) scale(.52191)" id="g114"><path id="path116" d="M0 0c2.4-2 6.4-5 0-9.9 0 0-1 2.4-1 5C-1-1.3 0 0 0 0" fill="#a7a9ac"/></g><g transform="scale(.52191)" id="g118"><g id="g132"><g id="g130" clip-path="url(#clipPath124)" opacity=".2"><g id="g128" transform="translate(317 347.5)"><path id="path126" d="M0 0l.3.7c2-1.6 5-3.9 2.7-7.3 1.5 3-1.1 5-3 6.6" fill="#a7a9ac"/></g></g></g></g><g transform="translate(169.7 159.1) scale(.52191)" id="g134"><path id="path136" d="M0 0c.4 0 .7.2 1 .5.4.9 12 21 8.1 30.2-4 9.3-13.4 9-13.5 9a1 1 0 0 1-1-1c0-.6.5-1 1-1 .4 0 8.2.1 11.6-7.8C10.7 21.7-.8 1.8-1 1.6A1 1 0 0 1 0 0" fill="#e1e2e3"/></g><g transform="scale(.52191)" id="g138"><g id="g152"><g id="g150" clip-path="url(#clipPath144)"><g id="g148" transform="translate(320 344.4)"><path id="path146" d="M0 0v-.3c0-.6.5-1 1-1 .4 0 8.1.1 11.5-7.8 3.5-8.2-8-28-8-28.3a1 1 0 1 1 1.8-1L6-39a1 1 0 0 0-1.5-.3 1 1 0 0 0-.3 1.4c0 .2 11.5 20 8 28.3C8.8-1.6 1.1-1.8.7-1.8a1 1 0 0 0-1 1c0 .3 0 .6.3.8" fill="#e1e2e3"/></g></g></g></g><g transform="translate(159.2 160.4) scale(.52191)" id="g154"><path id="path156" d="M0 0c7.5 1.7 6.5-6.6 7.4-5.9 1 .8 6.3 1.6 6 4.7-.1 3.2-1.2 6.8-5.7 7.3-4.6.5-9.2-1.7-9.2-1.7C-14 9.7-43 17.5-43 17.5-70.6 42-86.2 52.3-85.9 42.1c.4-13.1 27.5-28.4 39.4-34C-37 3.3-3.2 0-3.2 0c.8-2.4 1.5-2.4 1.5-2.4S-1.2-.3 0 0" fill="#ffae68"/></g><g transform="translate(140.8 178.8) scale(.52191)" id="g158"><path id="path160" d="M0 0c0-7.2 5-13 11-13 6.2 0 11.1 5.8 11.1 13s-5 13-11 13C4.8 13 0 7.2 0 0" fill="#d1d3d4"/></g><g transform="translate(147 178.8) scale(.52191)" id="g162"><path id="path164" d="M0 0c0-2.7 1.6-5 3.6-5s3.7 2.3 3.7 5-1.6 5-3.7 5C1.6 5 0 2.6 0 0" fill="#a7a9ac"/></g><g transform="translate(48.3 105.2) scale(.52191)" id="g166"><path id="path168" d="M0 0c-7.5-2.6.6 15.7 3.5 15.7h9.3S10.7 3.7 0 0" fill="#bd161d"/></g><g transform="translate(48.4 100.1) scale(.52191)" id="g170"><path id="path172" d="M0 0c-3.8 9.9 4.2 18.3 12 25 8 6.8 16.2 4 16.2 4S27 15.3 13.6 6.2C.1-3 0 0 0 0" fill="#f1f2f2"/></g><g transform="translate(178 68.5) scale(.52191)" id="g174"><path id="path176" d="M0 0a41.6 41.6 0 1 1 83.3 0A41.6 41.6 0 0 1 0 0" fill="#372f3a"/></g><g transform="translate(186.3 68.5) scale(.52191)" id="g178"><path id="path180" d="M0 0a25.9 25.9 0 1 1 51.7 0A25.9 25.9 0 0 1 0 0" fill="#ebecee"/></g><g transform="translate(188 68.5) scale(.52191)" id="g182"><path id="path184" d="M0 0a22.7 22.7 0 1 1 45.4 0A22.7 22.7 0 0 1 0 0" fill="#77787d"/></g><g transform="translate(192.4 68.5) scale(.52191)" id="g186"><path id="path188" d="M0 0a14.1 14.1 0 1 1 28.2 0A14.1 14.1 0 0 1 0 0" fill="#f1f2f4"/></g><g transform="translate(192.4 100) scale(.52191)" id="g190"><path id="path192" d="M0 0c6.5.5 17 1.3 28.2-1.8 18-5 29.1-17.4 27-24.1-2.1-6.8-27.2-.1-42.8-10.4-15.7-10.3-24.2-26.4-40.3-24-7.5 1-11.7 5.5-11.3 12.5 0 0 4.5 45.1 39.2 47.8" fill="#638f8c"/></g><g transform="scale(.52191)" id="g194"><g id="g208"><g id="g206" clip-path="url(#clipPath200)" opacity=".1"><g id="g204" transform="translate(368.7 191.8)"><path id="path202" d="M0 0l8.4.5C7.2-1 4.9-9.2-7.2-21c-7-6.8-3.4-10.5.4-10.7 3-.2 13.6 7.6 26.2 8.6 18.4 1.6 28.6.6 34.5-4.5-5.9-3.9-27.5.5-41.5-8.7-15.7-10.3-24.2-26.4-40.3-24-7.5 1-11.7 5.5-11.3 12.5 0 0 4.5 45.1 39.2 47.8" fill="#638f8c"/></g></g></g></g><g transform="scale(.52191)" id="g210"><g id="g224"><g id="g222" clip-path="url(#clipPath216)" opacity=".1"><g id="g220" transform="translate(368.7 184)"><path id="path218" d="M0 0c-8.5-9.3-15.1-3.5-21.7-17.5C-26-26.3-30.4-39-37-47.9c-.4.5-.8 1-1 1.6h-.1l-.7 1.8-.1.5a12 12 0 0 0-.4 3.9S-34.7 5 0 7.7l3.9.3C3.6 5.4 2.5 2.7 0 0" fill="#71a29f"/></g></g></g></g><g transform="translate(171.7 143.4) scale(.52191)" id="g226"><path id="path228" d="M0 0s2.5-12 9.3-30.3c4.3-11.6 7.5-28 21.8-35.3 7.3-3.7 14.2-12.8 5.7-22.1-8.6-9.3-15.2-3.5-21.8-17.5-6.6-14-13.9-37.7-29.2-40.2-9.5-1.5-94 0-100.3 0-6.3 0-11 2.9-13.3 10-5.7 18-117.3 6.8-117.3 6.8s-8.5-1.3-8.2 4.7c.6 15.4 9.5 37.3 25 47.8s21.2 24.3 21.2 24.3h127.6c1-13-5.8-15.8-7.8-18.5-2-2.8-20-18.3-13.2-38.8 6.7-20.5 20.5-23.5 40.8-24.2 20.2-.8 45.5-1.6 51.5 12.7 6 14.3 13.7 44 12.2 55.5S-14.7-3.5-14.7-3.5-4 2.9 0 0" fill="#6d9c99"/></g><g transform="scale(.52191)" id="g230"><g id="g252"><g id="g250" clip-path="url(#clipPath236)" opacity=".7"><g id="g240" transform="translate(315.3 271.3)"><path id="path238" d="M0 0s17.3-50 18.8-61.5-6.3-41.3-12.3-55.6c-4.7-11.2-21.4-13.1-38.2-13 16.4 0 32.5 2 37.1 13 6 14.3 13.8 44 12.3 55.6C16.2-50-1.1 0-1.1 0s7.7 4.6 12.5 4.3A33 33 0 0 1 0 0" fill="#71a29f"/></g><g id="g244" transform="translate(100.6 198.7)"><path id="path242" d="M0 0c15.5 10.5 21.3 24.3 21.3 24.3h1S16.6 10.5 1.1 0s-24.5-32.4-25-47.8c-.2-4 3.4-4.7 6-4.8-2.4-.1-7.3.2-7.1 4.8.6 15.4 9.5 37.3 25 47.8" fill="#71a29f"/></g><g id="g248" transform="translate(202.2 139.4)"><path id="path246" d="M0 0c2.3-7.1 7-10 13.3-10 4.1 0 42.9-.6 71.2-.6-28.4 0-68 .6-72.3.6C5.9-10 1.2-7-1.1 0c-2.5 8-26.3 10.2-51.7 10.2C-27 10.3-2.6 8.2 0 0" fill="#71a29f"/></g></g></g></g><g transform="scale(.52191)" id="g254"><g id="g268"><g id="g266" clip-path="url(#clipPath260)" opacity=".3"><g id="g264" transform="translate(329.3 273.4)"><path id="path262" d="M0 0c-1.5-2-11.1-4.5-14.4-4l-.6 1.8S-4.3 4.2-.3 1.4c0 0 0-.5.3-1.4" fill="#71a29f"/></g></g></g></g><g transform="translate(126.1 72) scale(.52191)" id="g270"><path id="path272" d="M0 0c-11 7-13 26.5-13.6 29l.4-1.2C-6.4 7.3 7.3 4.3 27.6 3.5 47.8 2.8 73 2 79 16.3l.3.7S74.7-3.4 57.6-3.4C40.6-3.4 11-6.9 0 0" fill="#82bab7"/></g><g transform="translate(137.8 209) scale(.52191)" id="g274"><path id="path276" d="M0 0s1.6-4.4-4-6.4c-5.4-2-12.3 2.8-18.2-3.3-3.1-3.2-3.8 3.3-3.8 3.3l4.2 7.6 10 2.5S-2 2.5 0 0" fill="#603913"/></g><g transform="translate(135.7 202) scale(.52191)" id="g278"><path id="path280" d="M0 0s2.8-4.1 2.4-4.9c-.4-.8-3.2-.6-3.6-.3-.4.4.7 3.8 1.2 5.2" fill="#ff8f52"/></g><g transform="scale(.52191)" id="g282"><g id="g296"><g id="g294" clip-path="url(#clipPath288)" opacity=".2"><g id="g292" transform="translate(341.1 214)"><path id="path290" d="M0 0c-5 30.6-18.9 45.3-24.5 50.1l-2.4 7.1s10.7 6.4 14.7 3.5c0 0 2.5-12 9.3-30.2C1.4 18.9 4.6 2.5 19-4.8c7.3-3.7 14.2-12.8 5.7-22.2C16-36.3 9.4-30.4 2.8-44.4c-5-10.6-10.4-27-19.4-35.2C-8-64.9 5.4-33.4 0 0" fill="#71a29f"/></g></g></g></g><g transform="translate(161.1 157.3) scale(.52191)" id="g298"><path id="path300" d="M0 0s-4.8 0-5.4 3.1C-6.1 6.3-.6 7.2-.6 7.2 2.5 7.3 9 5.8 6.5 2 5-.3 0 0 0 0" fill="#372f3a"/></g><g transform="translate(164 141.6) scale(.52191)" id="g302"><path id="path304" d="M0 0c-2.7 1.2-8.6 24.9-7 30.5 2.8 10 26.7 7.6 28.3 7.3C31.8 36 31 13.6 23.3 12c-5.5-1-9.2 0-8-7.7C15.6 2.2 2.7-1.2 0 0" fill="#71a29f"/></g><g transform="scale(.52191)" id="g306"><g id="g320"><g id="g318" clip-path="url(#clipPath312)" opacity=".5"><g id="g316" transform="translate(319.4 299.2)"><path id="path314" d="M0 0c3.1-1.5 3.1-2.9 3.4-5.6.2-2.8-2-5.8-11.5-8.4l-2.1-.6c-1 4.2-1.8 8.5-2 12C-7.7-1-2.3 1 0 0" fill="#71a29f"/></g></g></g></g><g transform="translate(131.1 202.4) scale(.52191)" id="g322"><path id="path324" d="M0 0c0-4.5 1.6-8.2 3.6-8.2S7-4.5 7 0c0 4.5-1.6 8.2-3.5 8.2C1.6 8.2 0 4.5 0 0" fill="#414042"/></g><g transform="translate(131.3 202.4) scale(.52191)" id="g326"><path id="path328" d="M0 0c0-4.5 1.6-8.2 3.6-8.2S7-4.5 7 0c0 4.5-1.6 8.2-3.5 8.2C1.6 8.2 0 4.5 0 0" fill="#58595b"/></g><g transform="translate(131.3 202) scale(.52191)" id="g330"><path id="path332" d="M0 0l-13.5 1" fill="none" stroke="#808285" stroke-width=".3" stroke-linecap="round" stroke-miterlimit="10"/></g><g transform="translate(134.9 202.2) scale(.52191)" id="g334"><path id="path336" d="M0 0c2.3 0 2.8.2 2.8.3 0 0 0 .2-.9.7v.5c0 .2.3.2.4.1C3 1.2 3.7.7 3.6.1 3.4-.6 2-.7 0-.7A.4.4 0 1 0 0 0" fill="#808285"/></g><g transform="translate(133.5 194.8) scale(.52191)" id="g338"><path id="path340" d="M0 0s-2.5-1-4.2 1" fill="none" stroke="#ff2d21" stroke-width=".3" stroke-linecap="round" stroke-linejoin="round" stroke-miterlimit="10"/></g><g transform="scale(.52191)" id="g342"><g id="g356"><g id="g354" clip-path="url(#clipPath348)" opacity=".2"><g id="g352" transform="translate(249.4 223)"><path id="path350" d="M0 0c1-13-5.8-15.8-7.8-18.5-2-2.8-20-18.3-13.2-38.8 6.3-19.1 18.7-23 36.7-24 5.1-6.2 11-10.3 16.4-13-27.8.1-63.2.8-67.1.8-6.3 0-11 2.8-13.3 10-1.1 3.5-6.4 5.9-14.2 7.5l2.2 44.4C-44.8-20.8-41.6-8.5-41.6 0z" fill="#71a29f"/></g></g></g></g><g transform="translate(56.8 68.5) scale(.52191)" id="g358"><path id="path360" d="M0 0a41.6 41.6 0 1 1 83.3 0A41.6 41.6 0 0 1 0 0" fill="#372f3a"/></g><g transform="translate(65 68.5) scale(.52191)" id="g362"><path id="path364" d="M0 0a25.9 25.9 0 1 1 51.7 0A25.9 25.9 0 0 1 0 0" fill="#ebecee"/></g><g transform="translate(66.7 68.5) scale(.52191)" id="g366"><path id="path368" d="M0 0a22.7 22.7 0 1 1 45.4 0A22.7 22.7 0 0 1 0 0" fill="#77787d"/></g><g transform="translate(71.2 68.5) scale(.52191)" id="g370"><path id="path372" d="M0 0a14.1 14.1 0 1 1 28.2 0A14.1 14.1 0 0 1 0 0" fill="#f1f2f4"/></g><g transform="translate(93.4 73.2) scale(.52191)" id="g374"><path id="path376" d="M0 0s-4.5-11.5-19-11.5h-23c-9.4 0-13.4 7-14.7 12.2L-43.2 7-7 5.4z" fill="#58595b"/></g><g transform="scale(.52191)" id="g378"><g id="g392"><g id="g390" clip-path="url(#clipPath384)" opacity=".7"><g id="g388" transform="translate(85.6 165.4)"><path id="path386" d="M0 0a90.8 90.8 0 0 0 75 48.5A90.8 90.8 0 0 1 1 0C-3.6-12-2-25.5 4-25.5c2 0 50.2-.6 83.4-.6-33.2 0-82.4.6-84.4.6C-3.2-25.5-4.8-12 0 0" fill="#71a29f"/></g></g></g></g><g transform="scale(.52191)" id="g394"><g id="g408"><g id="g406" clip-path="url(#clipPath400)" opacity=".5"><g id="g404" transform="translate(91.3 140)"><path id="path402" d="M0 0c-6.2 0-7.8 13.5-3 25.5A90.8 90.8 0 0 0 71 74c41.3 1.8 48.6-29.5 51.8-45.7 3.3-16.3-4.2-27-8.5-28.3C110.1-1.3 3 0 0 0" fill="#71a29f"/></g></g></g></g><g transform="translate(46.1 73) scale(.52191)" id="g410"><path id="path412" d="M0 0c-6.2 0-7.8 13.5-3 25.5A90.8 90.8 0 0 0 71 74c41.3 1.8 48.6-29.5 51.8-45.7 3.3-16.3-4.2-27-8.5-28.3C110.1-1.3 3 0 0 0" fill="#71a29f"/></g><g transform="scale(.52191)" id="g414"><g id="g428"><g id="g426" clip-path="url(#clipPath420)" opacity=".1"><g id="g424" transform="translate(110.4 144)"><path id="path422" d="M0 0c40.7 0 73.7 26 73.7 58.2 0 2.8-.3 5.5-.7 8.2 20.5-8.6 25.3-29.7 27.8-42.1C104 8 96.5-2.7 92.3-4 88-5.3-19-4-22-4c-3.1 0-5 3.4-5.6 8.2A90.8 90.8 0 0 1 0 0" fill="#71a29f"/></g></g></g></g><g transform="scale(.52191)" id="g430"><g id="g444"><g id="g442" clip-path="url(#clipPath436)" opacity=".1"><g id="g440" transform="translate(176.2 207.6)"><path id="path438" d="M0 0c7.6-2.9-7.6-54.8-67-54.8-6.6 0-19.8-2.8-19.1 2.2C-82.1-24.1-29 11 0 0" fill="#71a29f"/></g></g></g></g><g transform="scale(.52191)" id="g446"><g id="g460"><g id="g458" clip-path="url(#clipPath452)" opacity=".7"><g id="g456" transform="translate(85.3 165.4)"><path id="path454" d="M0 0a90.8 90.8 0 0 0 75 48.5A90.8 90.8 0 0 1 1 0C-3.6-12-2-25.5 4-25.5c2 0 50.2-.6 83.4-.6-33.2 0-82.4.6-84.4.6C-3.2-25.5-4.8-12 0 0" fill="#71a29f"/></g></g></g></g><g transform="scale(.52191)" id="g462"><g id="g476"><g id="g474" clip-path="url(#clipPath468)" opacity=".2"><g id="g472" transform="translate(191.9 188.4)"><path id="path470" d="M0 0c0 7-1.6 13.6-4.4 19.8 17-9.5 21.4-28.5 23.7-40 3.2-16.3-4.3-27-8.5-28.3-1.8-.5-22-.6-44.8-.5C-13.6-38.7 0-20.6 0 0" fill="#71a29f"/></g></g></g></g><g transform="scale(.52191)" id="g478"><g id="g492"><g id="g490" clip-path="url(#clipPath484)" opacity=".2"><g id="g488" transform="translate(201.2 239.2)"><path id="path486" d="M0 0c-21.3 0-11-11-45.4-7.1A49.6 49.6 0 0 0-73.3 4.2c3.5 3.2 8 3.4 11.5 3.4 7 0 84 2 97.8 0 6.7-1 9.8-6.7 11.2-12.2C26.8-15.9 11.3 0 0 0" fill="#5b321c"/></g></g></g></g><g transform="scale(.52191)" id="g494"><g id="g508"><g id="g506" clip-path="url(#clipPath500)" opacity=".2"><g id="g504" transform="translate(385.4 188.8)"><path id="path502" d="M0 0c7 2.4 34-10.6 30.2-14.6-4-4.1-17.3.3-30.9-2.6-20-4.3-14.8 12 .7 17.2" fill="#638f8c"/></g></g></g></g><g transform="scale(.52191)" id="g510"><g id="g524"><g id="g522" clip-path="url(#clipPath516)" opacity=".5"><g id="g520" transform="translate(275 332)"><path id="path518" d="M0 0c7 0 12.7 6.7 12.7 14.9 0 2.6-.6 5-1.6 7.2 3.4-2.2 5.8-6.5 5.8-11.4 0-7.2-5-13-11-13-2.4 0-4.6.9-6.3 2.3H0" fill="#d1d3d4"/></g></g></g></g><g transform="translate(166.5 157.7) scale(.52191)" id="g526"><path id="path528" d="M0 0a1 1 0 0 1 1 1.3c-.2 1-5 24.3-16.3 35-4.4 4-16.1 5.1-16.6 5.1a1 1 0 0 1-.2-2.1c.1 0 11.5-1 15.4-4.6C-6 24.5-1.1 1-1 .9A1 1 0 0 1 0 0" fill="#e1e2e3"/></g><g transform="scale(.52191)" id="g530"><g id="g544"><g id="g542" clip-path="url(#clipPath536)"><g id="g540" transform="translate(286.2 343.3)"><path id="path538" d="M0 0c0-.6.4-1 1-1 0 0 11.5-1 15.3-4.7C27.2-16 32-39.3 32-39.6a1 1 0 0 1 1.3-.8c.2 0 .4.2.6.4a1 1 0 0 0-1-1 1 1 0 0 0-1.1.8c0 .3-4.8 23.7-15.7 33.9C12.2-2.7.8-1.7.7-1.7a1 1 0 0 0-1 1.1c0 .3.2.4.3.6" fill="#e1e2e3"/></g></g></g></g><g transform="scale(.52191)" id="g546"><g id="g560"><g id="g558" clip-path="url(#clipPath552)" opacity=".3"><g id="g556" transform="translate(272.4 346.6)"><path id="path554" d="M0 0c-1.6-4.9-.5-9.7 2.6-10.7s7 2 8.6 7C13 1 11.7 5.8 8.6 6.8S1.6 5 0 0" fill="#d1d3d4"/></g></g></g></g><g transform="scale(.52191)" id="g562"><g id="g576"><g id="g574" clip-path="url(#clipPath568)" opacity=".3"><g id="g572" transform="translate(311.5 343.6)"><path id="path570" d="M0 0c0-3.4.5-6.2 1.2-6.2S2.4-3.4 2.4 0c0 3.4-.5 6.2-1.2 6.2S0 3.4 0 0" fill="#d1d3d4"/></g></g></g></g><g transform="scale(.52191)" id="g578"><g id="g592"><g id="g590" clip-path="url(#clipPath584)" opacity=".2"><g id="g588" transform="translate(319.7 295)"><path id="path586" d="M0 0c8 3 10.5 11.7 11.1 14.4 2.5-.1 4.3-.3 4.7-.4 10.5-1.8 9.7-24.2 1.9-25.7-5.4-1-9.1 0-8-7.7.3-1.7-7.6-4.2-12.3-4.6C-5.9-16.4-8.5-3.3 0 0" fill="#71a29f"/></g></g></g></g><g transform="translate(176.1 147.9) scale(.52191)" id="g594"><path id="path596" d="M0 0l-4.3-.6A52 52 0 0 0-5 26l3.2-.3C8.6 23.9 7.8 1.5 0 0" fill="#f1f2f2"/></g><g transform="translate(155 153.3) scale(.52191)" id="g598"><path id="path600" d="M0 0s3.6.6 4.9-3.4c1.2-4-2.2-5.4-4.9-6-2.7-.6-10.4-2.9-10.4-2.9s-3.4-.5-4.1 5C-15.3-2 0 0 0 0" fill="#372f3a"/></g><g transform="translate(155 153.3) scale(.52191)" id="g602"><path id="path604" d="M0 0s-.8 1.5 3.6 2.4c4.4.9 14.7 5.9 17.8 4.4 3.1-1.5 3.1-3 3.4-5.7.2-2.7-2-5.7-11.5-8.4C3.8-9.9 3.9-8.9 3-8.3" fill="#6d9c99"/></g><g transform="translate(147.5 149.5) scale(.52191)" id="g606"><path id="path608" d="M0 0c-.2 1.2.5 2.2 1.6 3.1 0 0 7.1-1.9 2.6-8C4.2-4.9.7-5.4 0 0" fill="#493e4d"/></g><g transform="translate(115.3 184.3) scale(.52191)" id="g610"><path id="path612" d="M0 0c2.7.9 8.5-2 17-8.3 4.6-6.4 10-15 16.2-24.8l9.3-6.5c-2 .6-3.7 1.2-5 1.8C28.7-33.6 11.3-24 3-14-.2-8.4-1.9-3.3 0 0" fill="#f4824e"/></g><g transform="scale(.52191)" id="g614"><g id="g628"><g id="g626" clip-path="url(#clipPath620)" opacity=".1"><g id="g624" transform="translate(314 293.5)"><path id="path622" d="M0 0c1.3 1.8 1.5 5 .2 7 1.8.4 3.3.5 4.2 0 3-1.4 3-2.8 3.3-5.6.3-2.7-2-5.7-11.5-8.3-9.5-2.7-9.3-1.7-10.1-1l-.4.9c2.8.2 5.7 1.2 8.1 2.2C-3.7-3.8-1.6-2.2 0 0" fill="#6d9c99"/></g></g></g></g><g transform="scale(.52191)" id="g630"><g id="g644"><g id="g642" clip-path="url(#clipPath636)" opacity=".2"><g id="g640" transform="translate(312.6 297.5)"><path id="path638" d="M0 0c.6-1.2-.8-5.8-4-7.3-3.3-1.4-6.7-2.7-7.7-1.4-1 1.2-2.5 4-1.5 5S-.7 1.3 0 0" fill="#6d9c99"/></g></g></g></g><g transform="scale(.52191)" id="g646"><g id="g660"><g id="g658" clip-path="url(#clipPath652)" opacity=".2"><g id="g656" transform="translate(282.6 179.7)"><path id="path654" d="M0 0h-8.3C-9 3.7-10.7 13.7-11 30A43 43 0 0 0 1.3 61C3.1 53.5 1.3 24.7 0 0" fill="#ffae68"/></g></g></g></g><g transform="translate(124.2 126) scale(.52191)" id="g662"><path id="path664" d="M0 0s0 11.4 11.9 15.7c0 0 24.4-11.3 25.7-15.7 1.9-6.8.1-36.3-1.3-61.6h-13c-1.7 10.1-3.2 21-4.1 29.1-1 8.2.4 20 2 23.9C9.7-7 0 0 0 0" fill="#ffae68"/></g><g transform="scale(.52191)" id="g666"><g id="g680"><g id="g678" clip-path="url(#clipPath672)" opacity=".2"><g id="g676" transform="translate(249.8 257)"><path id="path674" d="M0 0s6.5-3 13-6.6C12-9 8.1-17.3 8.2-24.2c-11 2-20 8.5-20 8.5S-12-4.3 0 0" fill="#ffae68"/></g></g></g></g><g transform="translate(144 94.4) scale(.52191)" id="g682"><path id="path684" d="M0 0l-2.1-31.2s11.3-8.4 16.5-9.7c5-1.4 4.8-5 2.8-6.3-1-.7-9.3-.8-17.2-.6l-2.4.3A8.7 8.7 0 0 0-9-42.8s0-2.7-.8-4l-.6-.7-4.7.4c-3.5.8-1.2 13.6.6 16.5L-18.6 0h16.9z" fill="#754c29"/></g><g transform="translate(119.4 187.5) scale(.52191)" id="g686"><path id="path688" d="M0 0c2-1.5 2.4-3.8 2.4-3.8 1.3-3 2.7-20.6.9-25.7 0 0-3.5-12-11-23.3 0 0 14.5-34.4 43.1-36.4 0 0 4.5-20.4-13.5-32C.4-135.1-15.8-118-27.6-118c-21.2 0-11-11-45.3-7.1-34.3 3.8-36.3 28.5-51.9 32.1 0 0 56 63.9 94.4 48.2 0 0 2.2 16.6 2.8 23.5.6 6.9 4.4 19.7 4.4 19.7S-10.7 7.9 0 0" fill="#f1e5cf"/></g><g transform="scale(.52191)" id="g690"><g id="g704"><g id="g702" clip-path="url(#clipPath696)" opacity=".4"><g id="g700" transform="translate(200.1 311.8)"><path id="path698" d="M0 0s-70.6-27-67.6-52.5C-65.6-70.1-21.6-14 0 0" fill="#f1e5cf"/></g></g></g></g><g transform="scale(.52191)" id="g706"><g id="g720"><g id="g718" clip-path="url(#clipPath712)" opacity=".4"><g id="g716" transform="translate(200.1 310.8)"><path id="path714" d="M0 0s-18-17.8-17.3-26C-16.6-34.2-2-7.7 0 0" fill="#f1e5cf"/></g></g></g></g><g transform="scale(.52191)" id="g722"><g id="g736"><g id="g734" clip-path="url(#clipPath728)" opacity=".4"><g id="g732" transform="translate(162.5 233.6)"><path id="path730" d="M0 0c24.7 4.6 23.3 15.9 36.7 17 13.4 1 23.4 3 18.9 18.4-4.5 15.4.5 26.9-2.9 32.4s-7.9 9.4-7.9 9.4c3.9-2.8 10.8-2.2 10.8-2.2 4.6 9-2 29.2-2 29.2 8.7 1 4.9 23.2 4.9 23.2 1 .3 2 .6 3 .7 1.5-.4 3.2-1.2 4.7-2.4 2-1.5 2.4-3.8 2.4-3.8 1.3-2.9 2.7-20.6 1-25.7 0 0-3.6-12-11-23.3 0 0 14.4-34.4 43-36.3 0 0 4.5-20.5-13.5-32.1C66.6-9.3 50.4 7.8 38.7 7.7 18.9 7.7 26.3-1.7 0 0" fill="#f1e5cf"/></g></g></g></g><g transform="translate(116.4 177.1) scale(.52191)" id="g738"><path id="path740" d="M0 0s-2.4-2.8-4.3-.4c-2 2.5.7 13.5.7 13.5C-3 14 3 9 0 0" fill="#eda261"/></g><g transform="translate(123 195.3) scale(.52191)" id="g742"><path id="path744" d="M0 0s3.3-6-2.5-11.9c-5.9-5.8-15.2-7-21.6-6.4-6.4.6-13.2 7.3-24.9.8-11.6-6.5-4-17-.7-15.7 0 0-14.5-4.3-13.8 11.3 0 0-1.8-1.2-1.7-3.5 0 0-4.7 6.8.7 10.4 0 0-11.9-4-16.9 6-4.9 9.9 4.7 11.8 5.5 11.9 0 0-1.8-7.5 4.4-8 0 0 .3 2.8-2.6 3.6 0 0 1 3 8 1 0 0-5 5.3 2.4 10.7 0 0 1.6-6.4 8.3-6.3 6.8.1 7.6 11.2 24.5 11.3 0 0 25.3-1.3 30.9-15.2" fill="#603913"/></g><g transform="scale(.52191)" id="g746"><g id="g760"><g id="g758" clip-path="url(#clipPath752)" opacity=".4"><g id="g756" transform="translate(215 306.8)"><path id="path754" d="M0 0s5.3-18.7 11.6-29.9C18-40.9 28-56 15.2-59.2 2.2-62.3-.8-10.7 0 0" fill="#f1e5cf"/></g></g></g></g><g transform="scale(.52191)" id="g762"><g id="g776"><g id="g774" clip-path="url(#clipPath768)" opacity=".4"><g id="g772" transform="translate(213.9 306.8)"><path id="path770" d="M0 0s-.7-17.2-2.6-19.2C-4.6-21.2-4.4-8 0 0" fill="#f1e5cf"/></g></g></g></g><g transform="translate(149.2 151.7) scale(.52191)" id="g778"><path id="path780" d="M0 0c6.4 0 3.1-7.6 4.5-8 1.1-.5 7-.5 7.9 2.6.8 3 1 6.8-3.2 8.7C5.1 5.3 0 4.6 0 4.6-10 13.7-32.8 29.4-32.8 29.4c-14.5 22.6-24.4 39.2-31 35.3C-75 58.1-52.3 33.2-43 24-35.3 16.5-3 1-3 1c0-2.5.6-2.7.6-2.7S-.4 0 0 0" fill="#ffae68"/></g><g transform="scale(.52191)" id="g782"><g id="g800"><g id="g798" clip-path="url(#clipPath788)" opacity=".3"><g id="g792" transform="translate(185.4 341)"><path id="path790" d="M0 0" fill="#603913"/></g><g id="g796" transform="translate(187.4 365.8)"><path id="path794" d="M0 0c11.8 5 26.7-2.6 31.7 3.8 5 6.5-13.1 19-13.1 19l2 .5c7-1 23.1-4.1 27.5-14.8 0 0 3.3-6-2.5-11.9-5.9-5.8-15.2-7-21.6-6.4-6.4.6-13.2 7.3-24.9.8C-12-15.3-5.4-25.3-2-24.8a17 17 0 0 0-3.3-.5C-15.5-21-10.7-4.6 0 0" fill="#603913"/></g></g></g></g><g transform="translate(125.4 196.3) scale(.52191)" id="g802"><path id="path804" d="M0 0s.5-5.5 5.2-7.2c-5 1.4-8.7 5.3-8.7 5.3l-.2 1.5z" fill="#603913"/></g><g transform="translate(137.8 209) scale(.52191)" id="g806"><path id="path808" d="M0 0c-.8-2.8-17.9.6-21.6-8.1-3.7-8.7-.2-15.6-3-16.7-2.6-1.2-8-3.4-22.6 2.5C-62-16.4-63-1.6-60.4 7.2c2.6 8.8 13 23 33.2 21.5C-7 27 2.8 9.6 0 0" fill="#db3333"/></g><g transform="scale(.52191)" id="g810"><g id="g824"><g id="g822" clip-path="url(#clipPath816)" opacity=".4"><g id="g820" transform="translate(243.7 425)"><path id="path818" d="M0 0c4-.3 7.5-1.2 10.6-2.6 8.2-6.3 11.7-15.9 9.8-22.1-.8-2.8-17.8.6-21.6-8.1-3.7-8.7-.2-15.6-2.9-16.7-2.7-1.2-8-3.4-22.5 2.4-8.4 7-8.7 18.3-6.6 25.6 2.6 8.8 13 23 33.2 21.5" fill="#db3333"/></g></g></g></g><g transform="scale(.52191)" id="g826"><g id="g840"><g id="g838" clip-path="url(#clipPath832)" opacity=".4"><g id="g836" transform="translate(252.2 420)"><path id="path834" d="M0 0c2-.2 4-.5 5.7-1 5.5-6 7.7-13.5 6.1-18.6C11-22.4-6-19-9.7-27.7c-3.7-8.8-.2-15.6-3-16.8-2.3-1-6.5-2.7-16.9.5-5.4 7-5.4 16.2-3.6 22.5 2.6 8.8 13 23 33.2 21.5" fill="#db3333"/></g></g></g></g><g transform="translate(125.3 195.9) scale(.52191)" id="g842"><path id="path844" d="M0 0c.6 0 1.2.4 1.4 1 .8 2.2.7 3.9.6 5.6-.1 2.3-.3 4.9 1.8 9.8 2.2 5 9.4 5.7 14.7 6.1 3 .3 5.1.4 6.4 1.3a1.5 1.5 0 0 1-1.8 2.5c-.5-.4-3-.6-4.9-.8-5.7-.5-14.3-1.2-17.1-8C-1.3 12-1.1 9-1 6.5c0-1.7 0-2.9-.5-4.5A1.5 1.5 0 0 1 0 0" fill="#f1f2f2"/></g><g transform="scale(.52191)" id="g846"><g id="g860"><g id="g858" clip-path="url(#clipPath852)" opacity=".6"><g id="g856" transform="translate(237.4 426)"><path id="path854" d="M0 0c5.6-2.4 1.1-8.2-6.6-13a46.4 46.4 0 0 1-17.2-18.7c-1.6-5-9.3-1.1-7.2 11.9C-29-6.8-9.3 4 0 0" fill="#db3333"/></g></g></g></g><g transform="scale(.52191)" id="g862"><g id="g876"><g id="g874" clip-path="url(#clipPath868)" opacity=".2"><g id="g872" transform="translate(274.3 179.7)"><path id="path870" d="M0 0h-8.3C-9 3.7-10.7 13.7-11 30A43 43 0 0 0 1.3 61C3.1 53.5 1.3 24.7 0 0" fill="#ffae68"/></g></g></g></g></g></g></svg>