<?xml version="1.0" encoding="UTF-8"?>
<svg width="487mm" height="264mm" version="1.1" viewBox="0 0 487 264" xmlns="http://www.w3.org/2000/svg"><g transform="translate(268 523)"><rect x="-268" y="-523" width="487" height="264" fill="#fefefe" stop-color="#000000"/><path d="m17.5-418v23.1c3.63 3.27 7.26 6.53 10.9 9.8 1.03 0.623 1.84 2.14 0.935 3.2-3.94 3.55-7.88 7.09-11.8 10.6v50c0 3.32 2.12 6 4.74 6h164c2.63 0 4.74-2.68 4.74-6v-96.7h-173z" stop-color="#000000"/><g fill="#dc3b81"><path d="m22.3-451c-2.63 0-4.74 2.68-4.74 6v23h173v-23c0-3.32-2.12-6-4.74-6h-30.2v14.1h-19.7v-14.1h-64.8v14.1h-19.7v-14.1z" stop-color="#000000"/><rect x="62.6" y="-408" width="22.2" height="22.2" stop-color="#000000"/><rect x="92.8" y="-408" width="22.2" height="22.2" stop-color="#000000"/><rect x="123" y="-408" width="22.2" height="22.2" stop-color="#000000"/><rect x="153" y="-408" width="22.2" height="22.2" stop-color="#000000"/><rect x="32.5" y="-379" width="22.2" height="22.2" stop-color="#000000"/><rect x="62.6" y="-379" width="22.2" height="22.2" stop-color="#000000"/><rect x="92.8" y="-379" width="22.2" height="22.2" stop-color="#000000"/><rect x="123" y="-379" width="22.2" height="22.2" opacity=".584" stop-color="#000000"/><rect x="153" y="-379" width="22.2" height="22.2" stop-color="#000000"/><rect x="32.5" y="-350" width="22.2" height="22.2" stop-color="#000000"/><rect x="62.6" y="-350" width="22.2" height="22.2" stop-color="#000000"/><rect x="92.8" y="-350" width="22.2" height="22.2" opacity=".584" stop-color="#000000"/><rect x="123" y="-350" width="22.2" height="22.2" stop-color="#000000"/></g><g><rect x="55.2" y="-465" width="13.5" height="25.5" stop-color="#000000"/><rect x="140" y="-465" width="13.5" height="25.5" stop-color="#000000"/><rect x="17.6" y="-434" width="173" height="8.48" opacity=".499" stop-color="#000000"/></g><g><path d="m-23.9-430v18.4h-43.3v55.5h43.3v19.9l52.1-46.9-26-23.4z" fill="#dc3b81" stop-color="#000000"/><rect x="-241" y="-451" width="176" height="136" rx="4.83" ry="6" stop-color="#000000"/><circle cx="-228" cy="-439" r="4.35" fill="#c80070" stop-color="#000000"/><circle cx="-216" cy="-439" r="4.35" fill="#fff700" stop-color="#000000"/><circle cx="-203" cy="-439" r="4.35" fill="#04ff00" stop-color="#000000"/><rect transform="rotate(-45.8)" x="124" y="-430" width="5.52" height="13.1" fill="#fff" stop-color="#000000"/><rect transform="matrix(.697 .717 .717 -.697 0 0)" x="-426" y="104" width="5.52" height="13.1" fill="#fff" stop-color="#000000"/></g><g fill="#fefefe" stroke-width=".405"><path d="m-193-377q-0.988 0-1.78-0.292-0.778-0.308-1.33-0.875-0.535-0.567-0.826-1.38-0.292-0.81-0.292-1.83t0.292-1.83q0.292-0.81 0.826-1.38 0.551-0.567 1.33-0.859 0.794-0.308 1.77-0.308 1.38 0 2.2 0.567 0.842 0.551 1.28 1.47l-1.85 1q-0.227-0.486-0.599-0.81-0.356-0.324-1.04-0.324-0.826 0-1.28 0.486-0.437 0.47-0.437 1.3v1.36q0 0.826 0.437 1.31 0.454 0.47 1.31 0.47 0.697 0 1.09-0.324 0.405-0.324 0.68-0.842l1.81 1.04q-0.454 0.923-1.33 1.49-0.859 0.551-2.27 0.551z"/><path d="m-183-379h-0.0972q-0.275 0.713-0.875 1.21-0.583 0.502-1.59 0.502-0.599 0-1.1-0.194-0.502-0.211-0.859-0.616-0.356-0.405-0.567-0.988-0.194-0.583-0.194-1.34v-5.41h2.4v5.09q0 1.62 1.41 1.62 0.275 0 0.535-0.0648 0.275-0.081 0.47-0.227 0.211-0.162 0.34-0.389 0.13-0.227 0.13-0.535v-5.49h2.4v8.36h-2.4z"/><path d="m-178-379h1.93v-4.63h-1.93v-1.86h4.33v2.37h0.113q0.113-0.454 0.308-0.875 0.211-0.437 0.518-0.761 0.324-0.34 0.778-0.535 0.454-0.194 1.07-0.194h0.794v2.2h-1.78q-0.891 0-1.34 0.535-0.454 0.518-0.454 1.28v2.48h2.75v1.86h-7.08z"/><path d="m-168-379h2.56v-8.26h-2.56v-1.86h4.96v10.1h2.56v1.86h-7.52z"/><path d="m-149-377v-1.99l4.65-4.5h-4.49v-1.86h7.26v1.99l-4.65 4.5h4.81v1.86z"/><path d="m-135-377q-2.11 0-3.19-1.17-1.09-1.17-1.09-3.18 0-1.02 0.275-1.83 0.292-0.826 0.81-1.39 0.535-0.583 1.28-0.875 0.761-0.308 1.7-0.308t1.68 0.308q0.745 0.292 1.26 0.842 0.518 0.551 0.794 1.34 0.292 0.778 0.292 1.75v0.713h-5.72v0.146q0 0.81 0.502 1.31 0.502 0.486 1.47 0.486 0.745 0 1.28-0.275 0.535-0.292 0.923-0.761l1.3 1.41q-0.486 0.599-1.36 1.04t-2.22 0.437zm-0.194-7.03q-0.778 0-1.25 0.486-0.454 0.47-0.454 1.28v0.13h3.37v-0.13q0-0.826-0.454-1.3-0.437-0.47-1.21-0.47z"/><path d="m-129-379h1.93v-4.63h-1.93v-1.86h4.33v2.37h0.113q0.113-0.454 0.308-0.875 0.211-0.437 0.518-0.761 0.324-0.34 0.778-0.535 0.454-0.194 1.07-0.194h0.794v2.2h-1.78q-0.891 0-1.34 0.535-0.454 0.518-0.454 1.28v2.48h2.75v1.86h-7.08z"/><path d="m-116-377q-0.972 0-1.75-0.292-0.778-0.308-1.33-0.875-0.535-0.567-0.826-1.38t-0.292-1.83 0.292-1.83 0.826-1.38q0.551-0.567 1.33-0.859 0.778-0.308 1.75-0.308t1.75 0.308q0.778 0.292 1.31 0.859 0.551 0.567 0.842 1.38 0.292 0.81 0.292 1.83t-0.292 1.83q-0.292 0.81-0.842 1.38-0.535 0.567-1.31 0.875-0.778 0.292-1.75 0.292zm0-1.78q0.81 0 1.26-0.502 0.454-0.502 0.454-1.43v-1.33q0-0.923-0.454-1.43-0.454-0.502-1.26-0.502t-1.26 0.502q-0.454 0.502-0.454 1.43v1.33q0 0.923 0.454 1.43 0.454 0.502 1.26 0.502z"/><path d="m-106-377q-0.988 0-1.78-0.292-0.778-0.308-1.33-0.875-0.535-0.567-0.826-1.38-0.292-0.81-0.292-1.83t0.292-1.83q0.292-0.81 0.826-1.38 0.551-0.567 1.33-0.859 0.794-0.308 1.77-0.308 1.38 0 2.2 0.567 0.842 0.551 1.28 1.47l-1.85 1q-0.227-0.486-0.599-0.81-0.356-0.324-1.04-0.324-0.826 0-1.28 0.486-0.437 0.47-0.437 1.3v1.36q0 0.826 0.437 1.31 0.454 0.47 1.31 0.47 0.697 0 1.09-0.324 0.405-0.324 0.68-0.842l1.81 1.04q-0.454 0.923-1.33 1.49-0.859 0.551-2.27 0.551z"/><path d="m-93.4-377q-0.745 0-1.2-0.373-0.454-0.389-0.535-1.1h-0.081q-0.227 0.826-0.907 1.25-0.664 0.421-1.64 0.421-1.21 0-1.96-0.648-0.729-0.664-0.729-1.85 0-1.31 0.956-1.94 0.956-0.632 2.8-0.632h1.34v-0.421q0-0.745-0.356-1.12-0.34-0.389-1.17-0.389-0.761 0-1.23 0.292-0.47 0.292-0.81 0.761l-1.31-1.17q0.421-0.713 1.31-1.17 0.907-0.47 2.32-0.47 1.72 0 2.67 0.794 0.972 0.778 0.972 2.37v3.66h0.923v1.73zm-3.45-1.38q0.632 0 1.07-0.308 0.437-0.308 0.437-0.891v-1h-1.28q-1.47 0-1.47 0.988v0.324q0 0.437 0.34 0.664 0.34 0.227 0.907 0.227z"/><path d="m-90.5-379h2.56v-8.26h-2.56v-1.86h4.96v10.1h2.56v1.86h-7.52z"/></g></g></svg>
