<svg xmlns="http://www.w3.org/2000/svg" viewBox="0 0 1086.7 740.7"><defs><clipPath id="a"><path d="M153.5 627H105l48.7 65.4h48.6L153.4 627"/></clipPath><clipPath id="b"><path d="M0 0h900v900H0z"/></clipPath></defs><path d="M921.4 530.4H816.7v-26.7h104.7v-45.4 72m-558.4 0H163.8V102H369l-94.5 18.5H164v120.7l-.2 4.3.3.5 8 19.7h749.4v185.8h-1v-25.2H810.2v-.2h3v-23h-23.6v15.7H786V403h-23.5v15.7H759V403h-23.7v15.7h-3.5V403h-23.6v15.7h-4V403h-23.6v15.7H677V403h-23.5v15.7H650V403h-23.7v15.6c-2-.2-3-1-3-3 0-1 0-2-.5-2.6v-10h-23.5v23h12.4v.3h-358v-.2H269v-14.8c2.7-4 4.8-8.5 5.8-13.4h-5.8v-21.2h-23.6v21.2H215v-14.6c2.4-2.8 4-7.2 4-12 0-5-1.6-9.4-4-12v-9h-4.4V321h4.3v-15.4h3.5V321H242v-15.4h3.6V321h23.6v-15.4h4V321h23.6v-15.4h3.5V321H324v-15.4h3.5V321H351v-15.4h3.6V321H378v-23.3H164.3V321h23.6v-15.4h3.5V321h15v29.3h-15v23.3h7c0 1 .2 2 .5 3h-7.5v23.2h12.5c2.3 8.6 7.6 15.8 14.7 20.7v5.6h6.2v.3h-61v53h.4v24.4h199v-24.4 51m182-121v16.8h23.5v-23h-8.3c0-.7 0-1.4-.2-2l.7-1.2h7.8v-23.2h-1v-1.3-1.7h1v-23.3h-8c-8.3-13.3-22.8-22-39.4-22-8.7 0-17 2.4-24 6.7l4.6 4.6c4.8-3 10.6-4.8 16.7-4.8 11.6 0 21.7 6.3 27 15.5h-.3V365h-3.7v-14.7h-23.5V365h-14.4c-9 9.8-15 26-15.7 44.4H545m244.6-103V321h23.6v-23.3h-23.6v.7H786v-.7h-23.5v.7H759v-.7h-23.7v.7h-3.5v-.7h-23.6v.7h-4v-.7h-23.6v.7H677v-.7h-23.5v.7H650v-.7h-23.7v.7h-3.5v-.7h-23.5V321h23.5v-14.7h3.5V321H650v-14.7h3.5V321H677v-14.7h3.6V321h23.6v-14.7h4V321h23.6v-14.7h3.5V321H759v-14.7h3.5V321H786v-14.7h3.6m-390-87h-16 16m-16-5.2v-73h17v-19.5L381 102h63.6v70.8h-.4L383.5 214m213.5-8.7l-65.7-32.5V103h-14.8v-1h405v18.5H909l4.6-16.8-93 16.8h-4v.7l-5.3 1v-1.7H597v84.8" fill="#fbdb77"/><path d="M400.5 141v-19.5L379 100l-210 41-5.2 104.5 8 20.2h749.6V141H909v-19.5l4.8-17.8-207 37.4-90.2 89.6 10-10.7-95.3-47.2V103H492l-22.6 66.8-86 61V141h17" fill="#e76b47"/><path d="M163.8 479.3h756.6v-53H163.8z" fill="#fab413"/><path d="M164.2 321h23.6v-23.3h-23.6zM164.2 347.3h23.6V324h-23.6zM164.2 373.6h23.6v-23.3h-23.6zM164.2 399.8h23.6v-23.2h-23.6zM164.2 426h23.6v-23h-23.6zM191.3 321H215v-23.3h-23.7zM191.3 347.3H215V324h-23.7zM191.3 373.6H215v-23.3h-23.7zM191.3 399.8H215v-23.2h-23.7zM191.3 426H215v-23h-23.7zM218.5 321H242v-23.3h-23.5zM218.5 347.3H242V324h-23.5zM218.5 373.6H242v-23.3h-23.5zM218.5 399.8H242v-23.2h-23.5zM218.5 426H242v-23h-23.5zM245.6 321h23.6v-23.3h-23.6zM245.6 347.3h23.6V324h-23.6zM245.6 373.6h23.6v-23.3h-23.6zM245.6 399.8h23.6v-23.2h-23.6zM245.6 426h23.6v-23h-23.6zM273.2 321h23.6v-23.3h-23.6zM273.2 347.3h23.6V324h-23.6zM273.2 373.6h23.6v-23.3h-23.6zM273.2 399.8h23.6v-23.2h-23.6zM273.2 426h23.6v-23h-23.6zM300.3 321H324v-23.3h-23.7zM300.3 347.3H324V324h-23.7zM300.3 373.6H324v-23.3h-23.7zM300.3 399.8H324v-23.2h-23.7zM300.3 426H324v-23h-23.7zM327.5 321H351v-23.3h-23.5zM327.5 347.3H351V324h-23.5zM327.5 373.6H351v-23.3h-23.5zM327.5 399.8H351v-23.2h-23.5zM327.5 426H351v-23h-23.5zM354.6 321H378v-23.3h-23.4zM354.6 347.3H378V324h-23.4zM354.6 373.6H378v-23.3h-23.4zM354.6 399.8H378v-23.2h-23.4zM354.6 426H378v-23h-23.4z" fill="#fef4bc"/><path d="M351 297.7h3.6v8H351zm-27 0h3.5v8H324zm-27.2 0h3.5v8h-3.5zm-27.6 0h4v8h-4zm-27 0h3.4v8H242zm-27.3 0h3.5v8H215zm-27.2 0h3.5v8h-3.5z" fill="#fce591"/><path d="M187.8 305.6h-16c-2 0-3.8-1.8-3.8-4 0-2 1.7-4 4-4h15.8v8M215 305.6h-4.4V304h-4.2v1.6h-15v-8h23.5v8M218.5 305.6H242v-8h-23.5zM245.6 305.6h23.6v-8h-23.6zM273.2 305.6h23.6v-8h-23.6zM300.3 305.6H324v-8h-23.7zM327.5 305.6H351v-8h-23.5zM355 305.6h-.4v-8h.4c2.2 0 4 2 4 4 0 2.2-1.8 4-4 4M381.7 321h23.5v-23.3h-23.5zM381.7 347.3h23.5V324h-23.5zM381.7 373.6h23.5v-23.3h-23.5zM381.7 399.8h23.5v-23.2h-23.5zM381.7 426h23.5v-23h-23.5zM408.8 321h23.5v-23.3h-23.5zM408.8 347.3h23.5V324h-23.5zM408.8 373.6h23.5v-23.3h-23.5zM408.8 399.8h23.5v-23.2h-23.5zM408.8 426h23.5v-23h-23.5zM436 321h23.5v-23.3H436zM436 347.3h23.5V324H436zM436 373.6h23.5v-23.3H436zM436 399.8h23.5v-23.2H436zM436 426h23.5v-23H436zM463 321h23.6v-23.3H463zM463 347.3h23.6V324H463zM463 373.6h23.6v-23.3H463zM463 399.8h23.6v-23.2H463zM463 426h23.6v-23H463zM490.7 321h23.5v-23.3h-23.5zM490.7 347.3h23.5V324h-23.5zM490.7 373.6h23.5v-23.3h-23.5zM490.7 399.8h23.5v-23.2h-23.5zM490.7 426h23.5v-23h-23.5zM517.8 321h23.5v-23.3h-23.5zM517.8 347.3h23.5V324h-23.5zM517.8 373.6h23.5v-23.3h-23.5zM517.8 399.8h23.5v-23.2h-23.5zM517.8 426h23.5v-23h-23.5zM545 321h23.5v-23.3H545zM545 347.3h23.5V324H545zM545 373.6h23.5v-23.3H545zM545 399.8h23.5v-23.2H545zM545 426h23.5v-23H545zM572 321h23.6v-23.3H572zM572 347.3h23.6V324H572zM572 373.6h23.6v-23.3H572zM572 399.8h23.6v-23.2H572zM572 426h23.6v-23H572zM599.3 321h23.5v-23.3h-23.5zM599.3 347.3h23.5V324h-23.5zM599.3 373.6h23.5v-23.3h-23.5zM599.3 399.8h23.5v-23.2h-23.5zM599.3 426h23.5v-23h-23.5zM626.3 321H650v-23.3h-23.7zM626.3 347.3H650V324h-23.7zM626.3 373.6H650v-23.3h-23.7zM626.3 399.8H650v-23.2h-23.7zM626.3 426H650v-23h-23.7zM653.5 321H677v-23.3h-23.5zM653.5 347.3H677V324h-23.5zM653.5 373.6H677v-23.3h-23.5zM653.5 399.8H677v-23.2h-23.5zM653.5 426H677v-23h-23.5zM680.6 321h23.6v-23.3h-23.6zM680.6 347.3h23.6V324h-23.6zM680.6 373.6h23.6v-23.3h-23.6zM680.6 399.8h23.6v-23.2h-23.6zM680.6 426h23.6v-23h-23.6zM708.2 321h23.6v-23.3h-23.6zM708.2 347.3h23.6V324h-23.6zM708.2 373.6h23.6v-23.3h-23.6zM708.2 399.8h23.6v-23.2h-23.6zM708.2 426h23.6v-23h-23.6zM735.3 321H759v-23.3h-23.7zM735.3 347.3H759V324h-23.7zM735.3 373.6H759v-23.3h-23.7zM735.3 399.8H759v-23.2h-23.7zM735.3 426H759v-23h-23.7zM762.5 321H786v-23.3h-23.5zM762.5 347.3H786V324h-23.5zM762.5 373.6H786v-23.3h-23.5zM762.5 399.8H786v-23.2h-23.5zM762.5 426H786v-23h-23.5zM789.6 321h23.6v-23.3h-23.6zM789.6 347.3h23.6V324h-23.6zM789.6 373.6h23.6v-23.3h-23.6zM789.6 399.8h23.6v-23.2h-23.6zM789.6 426h23.6v-23h-23.6zM817 321h23.4v-23.3H817zM164.2 294.2h23.6V271h-23.6zM191.3 294.2H215V271h-23.7zM218.5 294.2H242V271h-23.5zM245.6 294.2h23.6V271h-23.6zM273.2 294.2h23.6V271h-23.6zM300.3 294.2H324V271h-23.7zM327.5 294.2H351V271h-23.5zM354.6 294.2H378V271h-23.4zM381.7 294.2h23.5V271h-23.5zM408.8 294.2h23.5V271h-23.5zM436 294.2h23.5V271H436zM463 294.2h23.6V271H463zM490.7 294.2h23.5V271h-23.5zM517.8 294.2h23.5V271h-23.5zM545 294.2h23.5V271H545zM572 294.2h23.6V271H572zM599.3 294.2h23.5V271h-23.5zM626.3 294.2H650V271h-23.7zM653.5 294.2H677V271h-23.5zM680.6 294.2h23.6V271h-23.6zM708.2 294.2h23.6V271h-23.6zM735.3 294.2H759V271h-23.7zM762.5 294.2H786V271h-23.5zM789.6 294.2h23.6V271h-23.6zM817 294.2h23.4V271H817zM817 347.3h23.4V324H817zM817 373.6h23.4v-23.3H817zM817 399.8h23.4v-23.2H817zM817 426h23.4v-23H817zM844.6 321H868v-23.3h-23.4zM844.6 347.3H868V324h-23.4zM844.6 373.6H868v-23.3h-23.4zM844.6 399.8H868v-23.2h-23.4zM844.6 426H868v-23h-23.4zM871.7 321h23.5v-23.3h-23.5zM871.7 347.3h23.5V324h-23.5zM871.7 373.6h23.5v-23.3h-23.5zM871.7 399.8h23.5v-23.2h-23.5zM871.7 426h23.5v-23h-23.5zM899 321h23.5v-23.3H899zM844.6 294.2H868V271h-23.4zM871.7 294.2h23.5V271h-23.5zM899 294.2h23.5V271H899zM899 347.3h23.5V324H899zM899 373.6h23.5v-23.3H899zM899 399.8h23.5v-23.2H899zM899 426h23.5v-23H899z" fill="#fef4bc"/><path d="M585.2 688.2H597V448.8h-11.8zM363 688.2h15.5V448.8H363zM810.2 246h7.8V120.5h-7.8z" fill="#f57a14"/><path d="M699.7 359.2v-6.5c0-9-7.4-16.4-16.4-16.4h-8.5c-9 0-16.3 7.4-16.3 16.4v70H669v-70c0-3.3 2.6-6 5.8-6h8.5c3.3 0 6 2.7 6 6v6.5h10.4" fill="#5184ba"/><path d="M657.5 422.7H671v-29h-13.5z" fill="#245255"/><path d="M673.5 404c1 0 2-1 2-2s-1-2-2-2H654c-1.2 0-2 1-2 2s.8 2 2 2h19.5" fill="#245255"/><path d="M648 408.6c3.6 0 6.5-3 6.5-6.5s-3-6.5-6.5-6.5h-1.3c-3.6 0-6.6 3-6.6 6.6 0 3.7 3 6.6 6.7 6.6h1.3M680.7 408.6c3.6 0 6.5-3 6.5-6.5s-3-6.5-6.5-6.5h-1.3c-3.6 0-6.6 3-6.6 6.6 0 3.7 3 6.6 6.6 6.6h1.3M699 362.5c1.4 0 2.6-1.2 2.6-2.6 0-1.6-1.2-2.7-2.6-2.7h-9.2c-1.4 0-2.6 1-2.6 2.6 0 1.3 1.2 2.5 2.6 2.5h9.2" fill="#245255"/><path d="M344.5 71.7c0-1.5-1.2-2.7-2.7-2.7h-9.2v5.4h9.2c1.5 0 2.7-1.2 2.7-2.7M259.7 74.4h9.2V69h-9.3c-1.5 0-2.7 1.2-2.7 2.7 0 1.5 1.2 2.7 2.7 2.7" fill="#2e7d78"/><path d="M324 101c5.3 0 9.4-4 9.4-9.2v-38H268v38c0 5 4.3 9.3 9.4 9.3H324" fill="#5184ba"/><path d="M324 41.2h-46.6c-5 0-9.3 4.2-9.3 9.3v3.2h65.4v-3.2c0-5-4-9.3-9.3-9.3" fill="#fac00a"/><path d="M336 59.2c1.6 0 2.8-1.2 2.8-2.7 0-1.5-1.2-2.8-2.7-2.8h-70.6c-1.5 0-2.7 1.3-2.7 2.8 0 1.5 1.2 2.7 2.7 2.7H336" fill="#3c5a74"/><path d="M300.8 34.2c-1.5 0-2.8 1.2-2.8 2.7V41h5.5V37c0-1.6-1.2-2.8-2.7-2.8" fill="#ef3028"/><path d="M290.5 101H280l36.5-41.8H327l-36.5 42" fill="#7fa7b9"/><path d="M754.2 78.4c0-1.6-1.3-3-3-3h-9.7v5.8h9.8c1.6 0 3-1.2 3-2.8M646 81.2v-5.7h-9.7c-1.6 0-2.8 1.3-2.8 3 0 1.5 1.2 2.7 2.8 2.7h9.8" fill="#2e7d78"/><path d="M732.6 101c5.4 0 9.8-4.3 9.8-9.7V64h-97.2v27.3c0 5.4 4.4 9.8 9.8 9.8h77.6" fill="#5184ba"/><path d="M742.4 64v.3-.2M645.2 64.3V64v.3M732.6 54.5H655c-5.4 0-9.7 4.3-9.8 9.6h97.2c0-5.2-4.4-9.5-9.8-9.5" fill="#fac00a"/><path d="M745.3 69.8c1.5 0 2.8-1.3 2.8-3 0-1.4-1.2-2.7-2.7-2.7h-103c-1.5 0-2.8 1.4-2.8 3 0 1.5 1.3 2.8 2.8 2.8h103" fill="#3c5a74"/><path d="M694.2 47c-1.6 0-3 1.4-3 3v4.5h5.8V50c0-1.6-1.3-3-2.8-3" fill="#ef3028"/><path d="M683.3 101h-19.8l29-31.2H712l-29 31.3M702 101h-7.8l29-31.2h7.7L702 101" fill="#7fa7b9"/><path d="M879.2 84c0-1.7-1.2-3-2.8-3h-42.2v5.7h42.2c1.6 0 2.8-1.3 2.8-2.8" fill="#aec5e9"/><path d="M825.3 101c5.4 0 9.7-4.3 9.7-9.7V71.8h-52.2v19.5c0 5.4 4.3 9.8 9.7 9.8h32.8" fill="#5184ba"/><path d="M885 84c0-2.7-2-4.8-4.7-4.8h-20v9.3h20c2.6 0 4.7-2 4.7-4.6" fill="#4a3a49"/><path d="M838 77.5c1.5 0 2.8-1.3 2.8-2.8 0-1.6-1.3-3-3-3h-58c-1.5 0-2.8 1.4-2.8 3 0 1.5 1.3 2.8 3 2.8h58" fill="#3c5a74"/><path d="M802.8 101h-9l18.6-23.5h9L802.8 101M813.3 101h-3.7L828 77.6h3.8L813.3 101" fill="#7fa7b9"/><path d="M236 83.3v5.4h9.3c1.5 0 2.7-1.2 2.7-2.7 0-1.5-1.2-2.7-2.7-2.7H236M174.8 86c0 1.5 1.2 2.7 2.7 2.7h9.2v-5.4h-9.2c-1.5 0-2.7 1.2-2.7 2.7" fill="#2e7d78"/><path d="M195.2 101h32.4c5 0 9.3-4 9.3-9.2v-19h-51v19c0 5 4 9.3 9.2 9.3" fill="#5184ba"/><path d="M237 72.8v.3-.2M195.2 64c-5 0-9 3.8-9.3 8.8h51c-.3-5-4.4-9-9.4-9h-32.4M186 72.8V73" fill="#fac00a"/><path d="M183.2 72.8c-1.5 0-2.7 1.2-2.7 2.7 0 1.5 1.2 2.7 2.7 2.7h56.4c1.5 0 2.7-1.2 2.7-2.7 0-1.5-1.2-2.7-2.7-2.7h-56.4" fill="#3c5a74"/><path d="M208.7 59.5V64h5.4v-4.5c0-1.5-1-2.7-2.6-2.7-1.5 0-2.7 1.2-2.7 2.7" fill="#ef3028"/><path d="M204.2 101h-10 10" fill="#fffcef"/><path d="M204.2 101h-9.8L214 78.2h10l-19.8 23M215 101H209L229 78.3h5.7l-19.8 23" fill="#7fa7b9"/><path d="M168 297c0 2.3 1.7 4 4 4h183c2.2 0 4-1.7 4-4 0-2-1.8-3.8-4-3.8H172c-2.3 0-4 1.7-4 4" fill="#aec5e9"/><path d="M620.7 412.2c-7.8 0-9 .6-9 6V439c0 6 5 11 11 11h176.4c6.2 0 11.2-5 11.2-11v-21c0-5.2-1.5-5.8-9-5.8-3 0-2.5 3.2-2.5 3.4 0 3.4-3 3-8 3H631.2c-5 0-8 .4-8-3 0-1.5 0-3.4-2.6-3.4" fill="#b09fa9"/><path d="M611.7 439.2v-.2m198.5 0v-12.7V439" fill="#b38620"/><path d="M703 449.8v-6.2h-90.3c-.6-1.3-1-2.7-1-4.2v-.2V426.2h198.5V439.4c0 1.5-.4 3-1 4.2H706.8v1.3h-4v4.8" fill="#867684"/><path d="M178.4 706.5h731.2v-18.3H178.4z" fill="#78211b"/><path d="M816.7 503.7h104.7v-52.3H816.7zM816.7 558.7h104.7v-52.3H816.7zM816.7 613.6h104.7v-52.3H816.7zM816.7 688.2h104.7v-72H816.7z" fill="#fab413"/><path d="M887 471c1.6 0 3-1.3 3-3v-2c0-1.5-1.4-2.8-3-2.8h-36c-1.6 0-3 1.3-3 3v2c0 1.5 1.4 2.8 3 2.8h36" fill="#4a3a49"/><path d="M816.7 507.7h104.7v-4H816.7zM816.7 562.6h104.7v-4H816.7zM816.7 617.5h104.7v-4H816.7z" fill="#f57a14"/><path d="M887 526c1.6 0 3-1.3 3-3v-2c0-1.5-1.4-3-3-3h-36c-1.6 0-3 1.5-3 3v2c0 1.7 1.4 3 3 3h36M887 581c1.6 0 3-1.4 3-3v-2c0-1.6-1.4-3-3-3h-36c-1.6 0-3 1.4-3 3v2c0 1.6 1.4 3 3 3h36M887 635.8c1.6 0 3-1.3 3-3v-2c0-1.5-1.4-2.8-3-2.8h-36c-1.6 0-3 1.3-3 3v2c0 1.5 1.4 2.8 3 2.8h36" fill="#4a3a49"/><path d="M706.8 688.2h106V443.6h-106zM597 688.2h106V443.6H597z" fill="#fab413"/><path d="M703 688.2h3.8V445h-4zM812.8 688.2h4V445h-4z" fill="#f57a14"/><path d="M724.8 574.4c1.7 0 3-1.4 3-3v-36c0-1.6-1.3-3-3-3h-2c-1.5 0-3 1.4-3 3v36c0 1.6 1.5 3 3 3h2" fill="#4a3a49"/><path d="M164 503.7h199v-52.3H164zM164 558.7h199v-52.3H164zM164 613.6h199v-52.3H164zM164 688.2h199v-72H164z" fill="#fab413"/><path d="M164 246h199V120.5H164z" fill="#f4fefb" stroke="#7c7c7c" stroke-width="1.4737799999999999" stroke-linecap="round" stroke-linejoin="round"/><path d="M180.4 219.8H303v-76.2H180.3z" fill="#12211f"/><path d="M190 145.2h147v64.4H190zm-5 69.3H342v-74.2H185z" fill="none"/><path d="M597 246h214.5V120.5H597z" fill="#fac00a"/><path d="M620.4 212h167.4v-69.3H620.4z" fill="#84bdb4"/><path d="M623 145.2h162.4v64.4H623zm-5 69.3h172.3v-74.2H618z" fill="#efa70f"/><path d="M722.2 231.7c1.6 0 3-1.4 3-3v-2c0-1.6-1.4-3-3-3h-36c-1.6 0-3 1.4-3 3v2c0 1.6 1.4 3 3 3h36" fill="#4a3a49"/><path d="M817 246h105.8V120.5h-106z" fill="#fac00a"/><path d="M840.4 212h59v-69.3h-59z" fill="#84bdb4"/><path d="M843 145.2h53.8v64.4h-54zm-5 69.3h63.7v-74.2H838z" fill="#efa70f"/><path d="M887.8 231.7c1.7 0 3-1.4 3-3v-2c0-1.6-1.3-3-3-3h-36c-1.5 0-3 1.4-3 3v2c0 1.6 1.5 3 3 3h36M242.5 466v2c0 1.7 1.4 3 3 3h36c1.6 0 3-1.3 3-3v-2c0-1.5-1.4-2.8-3-2.8h-36c-1.6 0-3 1.3-3 3" fill="#4a3a49"/><path d="M164 507.7h199v-4H164zM164 562.6h199v-4H164zM164 617.5h199v-4H164z" fill="#f57a14"/><path d="M242.5 521v2c0 1.7 1.4 3 3 3h36c1.6 0 3-1.3 3-3v-2c0-1.5-1.4-3-3-3h-36c-1.6 0-3 1.5-3 3M242.5 576v2c0 1.6 1.4 3 3 3h36c1.6 0 3-1.4 3-3v-2c0-1.6-1.4-3-3-3h-36c-1.6 0-3 1.4-3 3M242.5 631v2c0 1.5 1.4 2.8 3 2.8h36c1.6 0 3-1.3 3-3v-2c0-1.5-1.4-2.8-3-2.8h-36c-1.6 0-3 1.3-3 3M528.8 352.5c0-2.5-2-4.6-4.6-4.6-2.5 0-4.6 2-4.6 4.5s2 4.6 4.6 4.6c2.5 0 4.6-2 4.6-4.5" fill="#4a3a49"/><path d="M540 401.5h19.7c5-7.5 7.8-16.5 7.8-26.2 0-26-20.8-47-46.4-47-8.7 0-17 2.4-24 6.7l4.6 4.6c4.8-3 10.6-4.8 16.7-4.8 17 0 31 13.5 31 30 0 8.5-3.6 16-9.2 21.5v15.2" fill="#4a3a49"/><path d="M499.6 385.8l-10.4-18.3h-10.5l13 42H539l-39.4-23.7" fill="#42729d"/><path d="M545 365h-41.6c-9 9.8-15 26-15.7 44.4h73C560 391 554 374.8 545 365" fill="#5184ba"/><path d="M541 365h-10.4H541" fill="#b4d199"/><path d="M555.4 405.5H545c-.8-16.8-6.3-31.5-14.4-40.6H541c8.2 9 13.7 23.7 14.4 40.5" fill="#3d6e9c"/><path d="M524.2 354.5c-7.7 0-15 3.8-20.8 10.4H545c-6-6.7-13-10.5-20.8-10.5" fill="#4a3a49"/><path d="M493 416h61.6v-6.6H493z" fill="#245255"/><path d="M397 415.8l-2.7 6.5H470l-2.5-6.5H397M558.4 415.8h-70.6l-2.6 6.5H561l-2.6-6.5" fill="#4a3a49"/><path d="M508.3 365c-9 9.8-15 26-15.7 44.4h9.8c.8-18.4 6.8-34.6 15.7-44.5h-9.7" fill="#aec5e9"/><path d="M560.5 405.4H488c-.2 1.3-.3 3.6-.3 5h73c0-1.4 0-3.7-.2-5" fill="#3c5a74"/><path d="M376 689.2H585V437.4H376z" fill="#96321e"/><path d="M376 440.2H585v-18.5H376z" fill="#96321e"/><path d="M921.4 458.3h.3v-6.8h-.3z" fill="#dedadc"/><path d="M921.4 458.3v-6.8z" fill="#d9b965"/><path d="M816.7 458.3h104.7v-6.8H816.7zM706.8 458.3h106v-6.8h-106z" fill="#d89a16"/><path d="M585.2 458.3H597v-6.8h-11.8z" fill="#d9681b"/><path d="M597 458.3h106v-6.8H597z" fill="#d89a16"/><path d="M703 458.3h3.8v-6.8h-4zM812.8 458.3h4v-6.8h-4z" fill="#d9681b"/><path d="M363 458.3v-6.8z" fill="#d89a16"/><path d="M363 458.3h13v-6.8h-13z" fill="#d9681b"/><path d="M164 458.3h199v-6.8H164z" fill="#d89a16"/><path d="M376 458.3H585v-6.8H376z" fill="#812b1a"/><path d="M148.4 120.5H380V101H148.3zM584 120.5h353.4V101H584z" fill="#ef3028"/><path d="M687 574.4c1.5 0 2.8-1.4 2.8-3v-36c0-1.6-1.3-3-3-3h-2c-1.5 0-2.8 1.4-2.8 3v36c0 1.6 1.3 3 3 3h2" fill="#4a3a49"/><path d="M555.8 508.7c6 0 11-5 11-11.2V478c0-6.2-5-11.2-11-11.2H404c-6 0-11 5-11 11v19.7c0 6.2 5 11.2 11 11.2H556" fill="#fffbfd"/><path d="M555.8 639c6 0 11-5 11-11v-92.2c0-6.2-5-11-11-11H404c-6 0-11 4.8-11 11V628c0 6 5 11 11 11H556" fill="#84bdb4"/><path d="M545.2 494.8c4-3.2 4.5-9 1.3-13-3.2-3.8-9-4.4-13-1.2-3.8 3.2-4.4 9-1.2 13 3.3 3.8 9 4.4 13 1.2M522.4 487.7c0-5-4-9-9-9-5.2 0-9.3 4-9.3 9s4.2 9.2 9.3 9.2c5 0 9-4.2 9-9.3M420.4 487.7c0-5-4-9-9-9-5.2 0-9.3 4-9.3 9s4.2 9.2 9.3 9.2c5 0 9-4.2 9-9.3" fill="#4a3a49"/><path d="M567 628v-92.2c0-6.2-5-11-11.2-11h-15L456.3 639h99.4c6 0 11-5 11-11M494.5 524.8L410 639h25.6L519.8 525h-25.3" fill="#58667b"/><path d="M548.3 547c1.6 0 3-1.4 3-3v-2c0-1.6-1.4-3-3-3h-138c-1.6 0-3 1.4-3 3v2c0 1.6 1.4 3 3 3h138" fill="#4a3a49"/><path d="M520.6 552h-21l4-5h20.8l-3.8 5m-46.2 0h-60.6c-1.6 0-3-1.3-3-3v-2h67.3l-3.6 5" fill="#6a878c"/><path d="M551.8 552h-31.2l3.8-5h24c1.4 0 2.7-1.3 2.8-2.8h.6c1.6 0 3 1.3 3 3v2c0 1.5-1.4 2.8-3 2.8M499.7 552h-25.3l3.7-5h25.5l-3.8 5" fill="#525367"/><path d="M548.3 547H411c0-1.6 1.3-2.8 2.8-2.8h137.4c0 1.5-1.4 2.7-3 2.7" fill="#4a3a49"/><path d="M444.6 223.2h72V101h-72z" fill="#fce8f4"/><path d="M376 246H585v-26.8H376z" fill="#b09fa9"/><path d="M516.4 172.8h-72.2L376 219.2H585l-68.8-46.4" fill="#fffbfd"/><path d="M224.7 431.8h29v-12.2h-29z" fill="#4a3a49"/><path d="M239 426.8c17.8 0 32.5-12.4 36-29h-71.7c3.5 16.6 18.2 29 35.8 29" fill="#8cad26"/><path d="M209.6 401c2 9.4 9.3 16.8 18.7 19-8-3.4-13.5-10.6-14.8-19h-4" fill="#fffbfd"/><path d="M242.7 424.3c-2 0-4-.3-6-.8 11-2.7 19.5-12.8 21.8-25.7h11.8c-2.7 15-14 26.5-27.6 26.5" fill="#8d9323"/><path d="M187.5 361.7h4.2V304h-4.2z" fill="#2e7d78"/><path d="M157.2 362.2c0 9.6 7.7 17.3 17.3 17.3 9.5 0 17.2-7.7 17.2-17.3v-.5h-34.5v.5" fill="#4a3a49"/><path d="M162 361.7h-4.8v.5c0 9.6 7.7 17.3 17.3 17.3 5 0 9.8-2.3 13-6-2.2 1-4.5 1.4-7 1.4-8.5 0-15.8-5.7-18.4-13.3M185.4 289.5v18.8c0 2.3 2 4.2 4.2 4.2 2.3 0 4.2-2 4.2-4.2v-18.8c0-2.3-2-4.2-4.2-4.2-2.3 0-4.2 2-4.2 4.2" fill="#4a3a49"/><path d="M206.4 361.7h4.2V304h-4.2z" fill="#2e7d78"/><path d="M204.3 289.5v18.8c0 2.3 2 4.2 4.2 4.2 2.3 0 4.2-2 4.2-4.2v-18.8c0-2.3-2-4.2-4.2-4.2-2.3 0-4.2 2-4.2 4.2M198 371c0 8.5 4.7 15.3 10.5 15.3S219 379.5 219 371c0-8.3-4.7-15-10.5-15s-10.4 6.7-10.4 15" fill="#4a3a49"/><path d="M204.2 381.8c-1.2-1-2.2-2.5-3-4.3l9-18.7c1.3.4 2.6 1.2 3.7 2.4l-9.8 20.6M208.6 383.6c-.7 0-1.5 0-2.2-.4l9.2-19.4c.4.8.8 1.8 1 3l-8 16.8" fill="#807281"/><path d="M280.3 351.2h4.2v-47h-4.2z" fill="#2e7d78"/><path d="M286.6 308.3v-18.8c0-2.3-2-4.2-4.2-4.2-2.3 0-4.2 2-4.2 4.2v18.8c0 2.3 2 4.2 4.2 4.2 2.3 0 4.2-2 4.2-4.2M279.2 361.8c-1 0-2-.8-2-2 0-1 1-2 2-2s2 1 2 2c0 1.2-1 2-2 2zm0 6.6c-1 0-2-1-2-2s1-2 2-2 2 1 2 2-1 2-2 2zm0 6.5c-1 0-2-1-2-2s1-2 2-2 2 1 2 2-1 2-2 2zm0 6.4c-1 0-2-.8-2-2 0-1 1-2 2-2s2 1 2 2c0 1.2-1 2-2 2zm-6.6-13c-1 0-2-1-2-2s1-2 2-2 2 1 2 2-1 2-2 2zm0 6.5c-1 0-2-1-2-2s1-2 2-2 2 1 2 2-1 2-2 2zm13 2.5c1.2 0 2 1 2 2s-.8 2-2 2c-1 0-2-1-2-2s1-2 2-2zm0-6.5c1.2 0 2 1 2 2s-.8 2-2 2c-1 0-2-1-2-2s1-2 2-2zm0-6.6c1.2 0 2 1 2 2s-.8 2-2 2c-1 0-2-1-2-2s1-2 2-2zm0-6.5c1.2 0 2 .8 2 2 0 1-.8 1.8-2 1.8-1 0-2-.8-2-2 0-1 1-2 2-2zm6.6 13c1 0 2 1 2 2s-1 2-2 2-2-1-2-2 1-2 2-2zm0-6.6c1 0 2 1 2 2s-1 2-2 2-2-1-2-2 1-2 2-2zm9.2 5.3c0-10.5-8.5-19-19-19s-19 8.5-19 19 8.5 19 19 19 19-8.5 19-19" fill="#4a3a49"/><path d="M236.5 353h4.2v-49h-4.2z" fill="#2e7d78"/><path d="M234.4 289.5v18.8c0 2.3 2 4.2 4.2 4.2 2.3 0 4.2-2 4.2-4.2v-18.8c0-2.3-2-4.2-4.2-4.2-2.3 0-4.2 2-4.2 4.2M243.2 370.3c0 .8-.6 1.3-1.3 1.3-.8 0-1.4-.5-1.4-1.3v-13c0-.8.6-1.4 1.3-1.4.6 0 1.2.5 1.2 1.3zm-6.6 0c0 .8-.5 1.3-1.3 1.3-.7 0-1.3-.5-1.3-1.3v-13c0-.8.6-1.4 1.3-1.4.8 0 1.3.5 1.3 1.3zm-3.4-19.6c-2 0-3.7 1.7-3.7 3.7v18.8c0 2 1.6 3.7 3.7 3.7h11c2 0 3.6-1.8 3.6-3.8v-18.8c0-2-1.7-3.7-3.7-3.7h-10.8" fill="#4a3a49"/><path d="M904 415c.5-2 1-3.7 1-5 0-2.3 1.6-4.3 3.7-4.3 1.4 0 3 .6 3.7 1.6.7.7 1 1.5.7 2.5-.3 2.6-1.5 3.4-4.4 5-1.8 1.2-4.3 2.6-5.3 3.7-.7.7-1.2.4-1.6.7.2-1.4 2-2.8 2.3-4zm-2.5 7.7c2-2.6 4.5-3.5 8.3-5.7 3-1.8 5-3 5.6-6.8.7-4.3-3.3-6.8-6.7-6.8-3.4 0-6.2 3-6.2 6.8 0 2.8-2.5 14.3-1 12.5" fill="#ef3028"/><path d="M884 427h16.4s.6-2.8 1.2-4.3c1-2.5 5-8 6-10.3 2.5-6 1.5-13.4 1.5-13.4h-33.7s-1 7.3 1.7 13.4c1 2.4 5 7.8 6 10.3.5 1.5 1 4.3 1 4.3" fill="#ef3028"/><path d="M904 431.8c7.5-1 12.6-3.3 12.6-5.8h-48c0 2.5 5 4.7 12.6 5.8H904" fill="#96321e"/><path d="M898.6 411.2c0-3.5-3-6.3-6.4-6.3-3.5 0-6.3 2.7-6.3 6.2s2.7 6.4 6.2 6.4 6.4-3 6.4-6.4" fill="#fffbfd"/><path d="M850.4 415c.4-2 .8-3.7.8-5 0-2.3 1.8-4.3 4-4.3 1.3 0 2.8.6 3.6 1.6.6.7.8 1.5.7 2.5-.4 2.6-1.7 3.4-4.5 5-1.8 1.2-4.4 2.6-5.4 3.7-.6.7-1 .4-1.5.7.2-1.4 2-2.8 2.4-4zm-2.5 7.7c2-2.6 4.4-3.5 8.2-5.7 3-1.8 5-3 5.6-6.8.7-4.3-3.3-6.8-6.7-6.8-3.3 0-6 3-6 6.8 0 2.8-2.6 14.3-1 12.5" fill="#2e7d78"/><path d="M829.2 422.7c.7 1.5 1.3 4.3 1.3 4.3h16.2s.6-2.8 1.3-4.3c1-2.5 5-8 6-10.3 2.4-6 1.5-13.4 1.5-13.4h-33.8s-1 7.3 1.6 13.4c1 2.4 5 7.8 6 10.3" fill="#2e7d78"/><path d="M850.4 431.8c7.5-1 12.6-3.3 12.6-5.8h-48c0 2.5 5 4.7 12.6 5.8h22.8" fill="#245255"/><path d="M845 411.2c0-3.5-3-6.3-6.4-6.3-3.5 0-6.3 2.7-6.3 6.2s2.8 6.4 6.3 6.4 6.3-3 6.3-6.4" fill="#fffbfd"/><path d="M786 298.4h3.6v8H786zm-27 0h3.5v8H759zm-27.2 0h3.5v8h-3.5zm-27.6 0h4v8h-4zm-27 0h3.4v8H677zm-27.3 0h3.5v8H650zm-27.2 0h3.5v8h-3.5z" fill="#b59a65"/><path d="M622.8 306.3h-7.5c-2.2 0-4-1.8-4-4 0-2 1.8-4 4-4h7.5v8M626.3 306.3H650v-8h-23.7zM653.5 306.3H677v-8h-23.5zM680.6 306.3h23.6v-8h-23.6zM708.2 306.3h23.6v-8h-23.6zM735.3 306.3H759v-8h-23.7zM762.5 306.3H786v-8h-23.5zM798.4 306.3h-8.8v-8h8.8c2.2 0 4 2 4 4 0 2.2-1.8 4-4 4" fill="#b5a98d"/><path d="M798.4 301c2.2 0 4-1.7 4-4 0-2-1.8-3.8-4-3.8h-183c-2.3 0-4 1.7-4 4 0 2 1.7 3.8 4 3.8h183" fill="#aec5e9"/><path d="M785.3 292.3c0-5-4-5.2-9-5.2h-46c-5 0-9 .4-9 5.3v63h64v-63" fill="#b8ca26"/><path d="M721.2 346h64v-6.4h-64z" fill="#fffbfd"/><path d="M729.8 361.7v-11.2c0-1.2-1-2-2.2-2-1 0-2 .8-2 2v11.2c0 1 1 2 2 2 1.2 0 2.2-1 2.2-2M738.3 361.7v-11.2c0-1.2-1-2-2-2-1.3 0-2.2.8-2.2 2v11.2c0 1 1 2 2.2 2 1.2 0 2-1 2-2M747 361.7v-11.2c0-1.2-1-2-2.3-2-1 0-2 .8-2 2v11.2c0 1 1 2 2 2 1.2 0 2.2-1 2.2-2M755.4 361.7v-11.2c0-1.2-1-2-2-2-1.3 0-2.3.8-2.3 2v11.2c0 1 1 2 2.3 2 1.2 0 2-1 2-2M764 361.7v-11.2c0-1.2-1-2-2.2-2-1.2 0-2 .8-2 2v11.2c0 1 .8 2 2 2s2.2-1 2.2-2M772.5 361.7v-11.2c0-1.2-1-2-2-2-1.3 0-2.3.8-2.3 2v11.2c0 1 1 2 2.2 2 1.2 0 2-1 2-2M781 361.7v-11.2c0-1.2-1-2-2-2-1.3 0-2.2.8-2.2 2v11.2c0 1 1 2 2 2 1.3 0 2.3-1 2.3-2" fill="#e2c039"/><path d="M357.2 365.7c1.4 6.2 4.2 10.4 7.5 10.4 5 .2 8.3-9.2 9.8-21.6.6-4.5 2-26.6 2-26.6l-38-21.6s-13.6 15-24.4 34c-12.4 22-8 37 4 43.8 12 6.7 29.2-1.5 39.2-18.3" fill="#ef3028"/><path d="M342 292.5c.2 0 .6.2 1 .7h5.2c-1.3-3.2-3.6-5.3-6.3-5.3-4.4 0-7.6 5-7.6 12s3.2 12 7.5 12c4 0 7.2-4.6 7.4-11H345c-.4 4-2 6.6-3 6.6s-3-3-3-7.6c0-4.7 2-7.5 3-7.5" fill="#ef3028"/><path d="M319.6 371c0-1.7-1.2-3-2.8-3-1.6 0-2.8 1.3-2.8 3 0 1.5 1.2 2.7 2.8 2.7 1.6 0 2.8-1.2 2.8-2.8M335.7 374.8c0-1.5-1.3-2.8-3-2.8-1.4 0-2.7 1.3-2.7 2.8 0 1.6 1.3 3 2.8 3 1.6 0 3-1.4 3-3M327.8 359c0-1.4-1.3-2.7-2.8-2.7-1.6 0-3 1.3-3 2.8 0 1.7 1.4 3 3 3 1.5 0 2.8-1.3 2.8-3M347 358.8c0-1.6-1-2.8-2.7-2.8-1.6 0-2.8 1.2-2.8 2.8 0 1.6 1.2 2.8 2.8 2.8 1.6 0 2.8-1.2 2.8-2.8M370 356.5c0-1.6-1.2-2.8-2.8-2.8-1.6 0-2.8 1.2-2.8 2.8 0 1.6 1.2 2.8 2.8 2.8 1.6 0 2.8-1.2 2.8-2.8M369 342.4c0-1.6-1.2-2.8-2.8-2.8-1.5 0-2.8 1.2-2.8 2.8 0 1.6 1.3 3 2.8 3 1.6 0 3-1.4 3-3M323.2 344c0-1.5-1.2-2.8-2.8-2.8-1.6 0-2.8 1.3-2.8 3 0 1.4 1.2 2.7 2.8 2.7 1.6 0 2.8-1.4 2.8-3M338 344.7c0-1.6-1.3-2.8-3-2.8-1.4 0-2.7 1-2.7 2.7 0 1.6 1.3 2.8 2.8 2.8 1.7 0 3-1.2 3-2.8M341.6 318c0-1.6-1.3-2.8-2.8-2.8-1.6 0-3 1.2-3 2.8 0 1.6 1.4 2.8 3 2.8 1.5 0 2.8-1.2 2.8-2.8M355.6 344c0-1.4-1.3-2.7-3-2.7-1.5 0-2.7 1.3-2.7 2.8 0 1.7 1 3 2.7 3 1.6 0 3-1.3 3-3M333 330.4c0-1.6-1.3-3-3-3-1.4 0-2.7 1.4-2.7 3 0 1.5 1.3 2.8 2.8 2.8 1.7 0 3-1.3 3-2.8M347.8 330.3c0-1.6-1.3-2.8-2.8-2.8-1.6 0-3 1.2-3 2.8 0 1.6 1.4 2.8 3 2.8 1.5 0 2.8-1 2.8-2.7M364.5 328.3c0-1.5-1.3-2.8-2.8-2.8-1.6 0-3 1.3-3 2.8 0 1.6 1.4 3 3 3 1.5 0 2.8-1.4 2.8-3M904.6 335.7c2.7 0 4.8-2 4.8-4.8V314c0-2.7-2-4.8-4.8-4.8H888c-2.8 0-5 2-5 4.8V331c0 2.6 2.2 4.7 5 4.7h16.6" fill="#fffbfd"/><path d="M884.6 331V314c0-2 1.4-3.3 3.3-3.3h16.6c2 0 3.4 1.3 3.4 3.2V331c0 1.8-1.5 3.3-3.4 3.3H888c-2 0-3.4-1.5-3.4-3.4zm20 6.2c3.5 0 6.3-2.8 6.3-6.3V314c0-3.5-3-6.3-6.4-6.3H888c-3.6 0-6.4 2.7-6.4 6.2V331c0 3.4 2.8 6.2 6.3 6.2h16.6" fill="#f3cf8d"/><path d="M902 322.6c0-3.3-2.5-6-5.7-6-3.3 0-6 2.7-6 6 0 3.2 2.7 5.8 6 5.8 3.2 0 5.8-2.6 5.8-5.8" fill="#ceb3bb"/><path d="M895 322.6c0-.7-.4-1.2-1-1.2-.7 0-1.3.5-1.3 1.2 0 .6.6 1 1.2 1s1-.4 1-1M899.8 322.6c0-.7-.6-1.2-1.2-1.2-.7 0-1.2.5-1.2 1.2 0 .6.5 1 1.2 1 .6 0 1.2-.4 1.2-1" fill="#785f6a"/><path d="M850.8 335.7c2.7 0 4.8-2 4.8-4.8V314c0-2.7-2-4.8-4.8-4.8H834c-2.6 0-4.7 2-4.7 4.8V331c0 2.6 2 4.7 4.7 4.7h16.8" fill="#fffbfd"/><path d="M830.7 331V314c0-2 1.5-3.3 3.3-3.3h16.8c1.8 0 3.3 1.3 3.3 3.2V331c0 1.8-1.4 3.3-3.2 3.3H834c-1.8 0-3.3-1.5-3.3-3.4zm20 6.2c3.6 0 6.4-2.8 6.4-6.3V314c0-3.5-2.7-6.3-6.2-6.3H834c-3.4 0-6.2 2.7-6.2 6.2V331c0 3.4 2.8 6.2 6.2 6.2h16.8" fill="#f3cf8d"/><path d="M848.3 322.6c0-3.3-2.6-6-6-6-3 0-5.7 2.7-5.7 6 0 3.2 2.6 5.8 5.8 5.8 3.3 0 6-2.6 6-5.8" fill="#ceb3bb"/><path d="M841.3 322.6c0-.7-.6-1.2-1.2-1.2s-1 .5-1 1.2c0 .6.4 1 1 1 .7 0 1.3-.4 1.3-1M846 322.6c0-.7-.6-1.2-1.2-1.2-.7 0-1.2.5-1.2 1.2 0 .6.5 1 1.2 1 .6 0 1-.4 1-1" fill="#785f6a"/><path d="M195.2 101h32.4c4.8 0 8.7-3.5 9.2-8H186c.5 4.5 4.4 8 9.2 8M825.7 101c4.8 0 8.7-3.5 9.2-8h-52c.5 4.5 4.5 8 9.2 8h33.5M324 101c5 0 8.8-3.5 9.3-8h-65c.4 4.5 4.3 8 9 8h46.8M733 101c4.8 0 8.7-3.5 9.2-8h-96.7c.5 4.5 4.4 8 9.2 8H733" fill="#39638c"/><path d="M375.6 329.5c.3.2.6.3 1 .3.7 0 1.3-.4 1.7-1 .5-1 .2-2.2-.8-2.7l-38-21.5c-1-.5-2.2-.2-2.7.8-.6 1-.2 2 .7 2.7l38 21.5" fill="#fac00a"/><path d="M148.4 451.4h790v-19.6h-790z" fill="#ef3028"/><g clip-path="url(#a)" transform="matrix(.793 0 0 -1.07928 109.788 893.748)"><g clip-path="url(#b)"><path d="M105 627H202v65.5H105z" fill="#c9e5de"/></g></g><path d="M251 209.6h-47.8H251" fill="#f6db79"/><path d="M676.7 209.6H629l48-64.3h47.5l-47.8 64.3" fill="#c9e5de"/><path d="M676.7 209.6H629h47.7" fill="#f6db79"/><path d="M707.5 209.6h-15l48-64.3H755l-47.7 64.3" fill="#c9e5de"/><path d="M707.5 209.6h-15 15" fill="#f6db79"/><path d="M866 209.6h-15l45.8-62.4v22.2L866 209.6" fill="#c9e5de"/><path d="M866 209.6h-15 15m30.8-40.2v-22.2l.2-.3V169l-.2.2" fill="#f6db79"/><path d="M395.4 628v-92.2c0-4.8 4-8.7 8.7-8.7H556c4.8 0 8.6 4 8.6 8.8V628c0 4.8-3.8 8.7-8.6 8.7H404c-4.7 0-8.6-4-8.6-8.7zm160.4 13.6c7.5 0 13.6-6 13.6-13.6v-92.2c0-7.5-6-13.6-13.6-13.6H404c-7.4 0-13.5 6-13.5 13.6V628c0 7.5 6 13.6 13.6 13.6H556" fill="#fffbfd"/><path d="M574.8 232.4c0-3.4-2.8-6.2-6.2-6.2-3.4 0-6.2 2.8-6.2 6.2 0 3.4 2.8 6 6.2 6 3.4 0 6.2-2.6 6.2-6M557 232.4c0-3.4-2.6-6.2-6-6.2-3.5 0-6.2 2.8-6.2 6.2 0 3.4 2.7 6 6.2 6 3.4 0 6-2.6 6-6M539.5 232.4c0-3.4-2.8-6.2-6.2-6.2-3.4 0-6.2 2.8-6.2 6.2 0 3.4 3 6 6.3 6 3.4 0 6.2-2.6 6.2-6" fill="#4a3a49"/><path d="M461.8 246H414l20-26.8h47.7l-20 26.8" fill="#dccfd4"/><path d="M148.4 451.4h790v-19.6h-790z" fill="#ef3028"/><path d="M148.4 436.7h790v-5h-790zM148.4 105.7H380V101H148.3zM584 105.7h353.4V101H584z" fill="#f14825"/><path d="M534.7 231.2v-6c0-1-.6-1.6-1.4-1.6-.8 0-1.5.7-1.5 1.5v6.2c0 .8.7 1.5 1.5 1.5s1.4-.7 1.4-1.5M552.4 231.2v-6c0-1-.6-1.6-1.4-1.6-1 0-1.5.7-1.5 1.5v6.2c0 .8.6 1.5 1.5 1.5.8 0 1.4-.7 1.4-1.5M570 231.2v-6c0-1-.8-1.6-1.6-1.6s-1.5.7-1.5 1.5v6.2c0 .8.6 1.5 1.4 1.5.8 0 1.5-.7 1.5-1.5M412.4 484.7v-6c0-1-.6-1.6-1.5-1.6-1 0-1.5.8-1.5 1.6v6c0 1 .6 1.6 1.4 1.6.8 0 1.4-.7 1.4-1.5" fill="#b09fa9"/><path d="M496.3 487.7c0-5-4-9-9.2-9-5 0-9 4-9 9s4 9.2 9 9.2c5.2 0 9.3-4.2 9.3-9.3" fill="#4a3a49"/><path d="M488.3 484.7v-6c0-1-.6-1.6-1.5-1.6-.8 0-1.4.8-1.4 1.6v6c0 1 .6 1.6 1.4 1.6 1 0 1.5-.7 1.5-1.5M514.6 484.7v-6c0-1-.7-1.6-1.5-1.6-.7 0-1.3.8-1.3 1.6v6c0 1 .6 1.6 1.4 1.6 1 0 1.6-.7 1.6-1.5M542.8 487l4.8-3.8c.6-.5.7-1.4.2-2-.5-.7-1.4-.8-2-.2l-4.8 4c-.7.4-.8 1.3-.2 2 .3.3.7.5 1 .5.4 0 .8 0 1-.4" fill="#b09fa9"/><path d="M620.7 410.2c-7.8 0-9 .6-9 6v3c0-5.4 1.2-6 9-6 2.7 0 2.5 1.8 2.5 3.4 0 3.4 3 3 8 3h159.4c5 0 8 .4 8-3 0-.3-.5-3.4 2.6-3.4 7.5 0 9 .6 9 6v-3c0-5.4-1.5-6-9-6-3 0-2.5 3.2-2.5 3.5 0 3.3-3 3-8 3H631.2c-5 0-8 .3-8-3 0-1.6 0-3.5-2.6-3.5" fill="#fffbfd"/><path d="M586.2 251.7c1.6 0 3-1.3 3-2.8 0-1.7-1.4-3-3-3H375c-1.7 0-3 1.3-3 3 0 1.4 1.3 2.7 3 2.7h211.2M469.3 495.5c1.7 0 3-2.3 3-5v-8.8c0-2.8-1.3-5-3-5h-40.8c-1.7 0-3 2.2-3 5v8.8c0 2.7 1.3 5 3 5h40.8" fill="#4a3a49"/><g style="line-height:1.25" font-size="40" font-family="sans-serif" letter-spacing="0" word-spacing="0" fill="#ffd629"><path d="M433 480q-1.5 0-2.2 1.6-.8 1.5-.8 4.5t.8 4.6q.7 1.5 2.3 1.5 1.6 0 2.4-1.4.7-1.5.7-4.5t-.6-4.4q-.8-1.5-2.3-1.5zm0-1.5q2.5 0 3.8 2 1.3 2 1.3 5.6 0 3.8-1.2 5.7-1.3 2-3.7 2-2.4 0-3.7-2-1.3-2-1.3-5.6 0-3.6 1.3-5.5 1.3-2 3.8-2zM441.8 491h2v2.4h-2zm0-8h2v2.5h-2zM452.6 480q-1.6 0-2.3 1.6-.8 1.5-.8 4.5t.8 4.6q.7 1.5 2.3 1.5 1.5 0 2.3-1.4.6-1.5.6-4.5t-.7-4.4q-1-1.5-2.4-1.5zm0-1.5q2.4 0 3.7 2 1.3 2 1.3 5.6 0 3.8-1.3 5.7-1.3 2-3.7 2-2.5 0-3.8-2-1.3-2-1.3-5.6 0-3.6 1.3-5.5 1.3-2 3.8-2zM465.3 480q-1.5 0-2.3 1.6-.7 1.5-.7 4.5t.7 4.6q.8 1.5 2.3 1.5 1.6 0 2.3-1.4.8-1.5.8-4.5t-.8-4.4q-.7-1.5-2.3-1.5zm0-1.5q2.5 0 3.8 2 1.4 2 1.4 5.6 0 3.8-1.3 5.7-1.2 2-3.7 2-2.4 0-3.7-2-1.3-2-1.3-5.6 0-3.6 1.3-5.5 1.3-2 3.7-2z"/></g><path d="M514.8 240.7c1.6 0 3-2.3 3-5V227c0-3-1.4-5-3-5h-41c-1.5 0-3 2-3 5v8.7c0 2.7 1.5 5 3 5h41" fill="#4a3a49"/><g style="line-height:1.25" font-size="40" font-family="sans-serif" letter-spacing="0" word-spacing="0" fill="#4ad629"><path d="M476.7 234.7h2.2V227l-2.5.5v-1.2l2.4-.5h1.2v9h2.2v1h-5.7zM486.3 234.7h4.7v1h-6.3v-1l2-2.2 1.8-1.7 1-1.2v-1q0-.8-.4-1.3-.5-.5-1.4-.5l-1.3.2q-.7.2-1.5.7v-1.4l1.5-.5h1.3q1.5 0 2.5.6 1 .8 1 2 0 .7-.3 1.3l-.8 1.3-1.2 1-2.5 2.7zM494 234h1.4v1.8H494zm0-5.3h1.4v1.7H494zM501.4 226.7q-1 0-1.6 1-.5 1-.5 3 0 2.2.5 3.2t1.6 1q1 0 1.5-1t.5-3.2q0-2-.6-3t-1.6-1zm0-1q1.6 0 2.5 1.3.8 1.3.8 3.8t-1 4q-.8 1.2-2.4 1.2-1.7 0-2.6-1.3-1-1.4-1-4 0-2.4 1-3.7 1-1.3 2.6-1.3zM507.4 234.7h2.2V227l-2.4.5v-1.2l2.4-.5h1.4v9h2.2v1h-5.8z"/></g><path d="M351.8 163.2c1.6 0 3-2.2 3-5v-8.8c0-2.7-1.4-5-3-5h-41c-1.5 0-3 2.3-3 5v8.8c0 2.8 1.5 5 3 5h41"/><g style="line-height:1.25" font-size="40" font-family="sans-serif" letter-spacing="0" word-spacing="0" fill="#fff"><path d="M316.4 149.3q-1 0-1.6 1-.5 1-.5 3t.5 3.2q.5 1 1.6 1 1 0 1.5-1t.5-3q0-2.2-.6-3.2t-1.6-1zm0-1q1.6 0 2.5 1.3.8 1.3.8 3.8t-1 3.8q-.8 1.4-2.4 1.4-1.7 0-2.6-1.4-1-1.3-1-3.8t1-3.8q1-1.4 2.6-1.4zM325.2 152.8q-1 0-1.4.7-.5.6-.5 1.7 0 1 .5 1.7.5.5 1.4.5 1 0 1.5-.6.5-.8.5-1.8t-.5-1.7q-.6-.7-1.5-.7zm2.7-4.2v1.3l-1-.5h-1q-1.5 0-2.2.8-.7 1-.8 2.7.4-.6 1-1 .6-.2 1.3-.2 1.5 0 2.4 1 1 .8 1 2.4 0 1.5-1 2.4-1 1-2.5 1-1.7 0-2.6-1.4-1-1.3-1-3.8 0-2.4 1.2-3.8 1-1.4 3-1.4h1l1 .4zM331 156.7h1.4v1.7H331zm0-5.4h1.4v1.7H331zM335.7 157.2h2.2v-7.6l-2.5.5v-1l2.4-.6h1.3v8.8h2.2v1.2h-5.8zM344.4 157.2h2.2v-7.6l-2.3.5v-1l2.3-.6h1.4v8.8h2.2v1.2h-5.8z"/></g><path d="M338.6 179.8c0-5-4-9.2-9-9.2-5.2 0-9.3 4-9.3 9.2 0 5 4 9 9.2 9 5 0 9-4 9-9" fill="#4a3a49"/><path d="M330.7 176.8v-6.2c0-.8-.7-1.4-1.5-1.4s-1.5.6-1.5 1.4v6.2c0 .8.7 1.4 1.5 1.4s1.5-.6 1.5-1.4" fill="#b09fa9"/><g><path d="M336.5 209.6c3.2-4 2.8-9.6-1-13-4-3.2-9.7-2.7-13 1-3.3 4-2.8 9.7 1 13 4 3.3 9.7 2.8 13-1" fill="#4a3a49"/><path d="M332.4 202l4-4.5c.5-.7.4-1.6-.2-2-.6-.6-1.6-.6-2 0l-4 4.7c-.6.6-.5 1.6 0 2 .7.6 1.6.6 2.2 0" fill="#b09fa9"/></g></svg>