<?xml version="1.0" encoding="UTF-8" standalone="no"?>
<!-- Created with Inkscape (http://www.inkscape.org/) -->

<svg
   xmlns:dc="http://purl.org/dc/elements/1.1/"
   xmlns:cc="http://creativecommons.org/ns#"
   xmlns:rdf="http://www.w3.org/1999/02/22-rdf-syntax-ns#"
   xmlns:svg="http://www.w3.org/2000/svg"
   xmlns="http://www.w3.org/2000/svg"
   xmlns:sodipodi="http://sodipodi.sourceforge.net/DTD/sodipodi-0.dtd"
   xmlns:inkscape="http://www.inkscape.org/namespaces/inkscape"
   width="211.1407mm"
   height="110.33804mm"
   viewBox="0 0 748.13634 390.96157"
   id="svg2"
   version="1.1"
   inkscape:version="0.91 r13725"
   sodipodi:docname="crab.svg">
  <defs
     id="defs4">
    <clipPath
       id="clipPath3369"
       clipPathUnits="userSpaceOnUse">
      <path
         inkscape:connector-curvature="0"
         id="path3371"
         d="M 0,400 550,400 550,0 0,0 0,400 Z" />
    </clipPath>
    <clipPath
       id="clipPath3409"
       clipPathUnits="userSpaceOnUse">
      <path
         inkscape:connector-curvature="0"
         id="path3411"
         d="M 0,400 550,400 550,0 0,0 0,400 Z" />
    </clipPath>
    <clipPath
       id="clipPath3425"
       clipPathUnits="userSpaceOnUse">
      <path
         inkscape:connector-curvature="0"
         id="path3427"
         d="M 0,400 550,400 550,0 0,0 0,400 Z" />
    </clipPath>
    <clipPath
       id="clipPath3441"
       clipPathUnits="userSpaceOnUse">
      <path
         inkscape:connector-curvature="0"
         id="path3443"
         d="M 0,400 550,400 550,0 0,0 0,400 Z" />
    </clipPath>
    <clipPath
       id="clipPath3477"
       clipPathUnits="userSpaceOnUse">
      <path
         inkscape:connector-curvature="0"
         id="path3479"
         d="M 0,400 550,400 550,0 0,0 0,400 Z" />
    </clipPath>
    <clipPath
       id="clipPath3493"
       clipPathUnits="userSpaceOnUse">
      <path
         inkscape:connector-curvature="0"
         id="path3495"
         d="M 0,400 550,400 550,0 0,0 0,400 Z" />
    </clipPath>
    <clipPath
       id="clipPath3509"
       clipPathUnits="userSpaceOnUse">
      <path
         inkscape:connector-curvature="0"
         id="path3511"
         d="M 0,400 550,400 550,0 0,0 0,400 Z" />
    </clipPath>
  </defs>
  <sodipodi:namedview
     id="base"
     pagecolor="#ffffff"
     bordercolor="#666666"
     borderopacity="1.0"
     inkscape:pageopacity="0.0"
     inkscape:pageshadow="2"
     inkscape:zoom="0.82872596"
     inkscape:cx="139.57941"
     inkscape:cy="233.34141"
     inkscape:document-units="px"
     inkscape:current-layer="layer1"
     showgrid="false"
     inkscape:window-width="1440"
     inkscape:window-height="851"
     inkscape:window-x="1"
     inkscape:window-y="117"
     inkscape:window-maximized="0"
     fit-margin-top="0"
     fit-margin-left="0"
     fit-margin-right="0"
     fit-margin-bottom="0" />
  <metadata
     id="metadata7">
    <rdf:RDF>
      <cc:Work
         rdf:about="">
        <dc:format>image/svg+xml</dc:format>
        <dc:type
           rdf:resource="http://purl.org/dc/dcmitype/StillImage" />
        <dc:title />
      </cc:Work>
    </rdf:RDF>
  </metadata>
  <g
     inkscape:label="Layer 1"
     inkscape:groupmode="layer"
     id="layer1"
     transform="translate(0,-2.5579989)">
    <ellipse
       style="opacity:1;fill:#000000;fill-opacity:0.13450293;stroke:none;stroke-width:7.4000001;stroke-linecap:round;stroke-linejoin:round;stroke-miterlimit:4;stroke-dasharray:none;stroke-opacity:1"
       id="path5064"
       cx="368.03482"
       cy="344.04605"
       rx="184.62074"
       ry="32.580132" />
    <g
       id="g3365"
       transform="matrix(1.25,0,0,-1.25,-38.040096,468.04209)">
      <g
         id="g3367"
         clip-path="url(#clipPath3369)">
        <g
           id="g3373"
           transform="translate(424.4688,319.75)">
          <path
             d="m 0,0 -6.65,5.25 c 45.612,8.763 75.879,-2.67 90.799,-34.3 6.341,-20.847 2.317,-35.93 -12.075,-45.25 -2.061,-1.152 -4.303,-2.203 -6.724,-3.15 0.045,-0.133 0.086,-0.267 0.125,-0.401 10.809,-32.618 -1.749,-51.318 -37.675,-56.099 l -6.151,5.25 c 21.393,3.33 33.626,12.063 36.701,26.2 0.015,0.079 0.032,0.163 0.049,0.25 1.313,6.355 0.796,13.789 -1.549,22.3 -11.269,2.064 -21.103,5.564 -29.5,10.5 -12.322,7.171 -20.746,16.612 -25.276,28.325 -3.982,10.317 -4.949,22.393 -2.899,36.225 l 26.675,-21.05 15.5,0 -5.5,-19 16.5,9 0,-21.5 14.5,6.5 7.5,-6.5 -5.5,10.5 -14.5,-6.5 0,21.5 -16.5,-9 5.5,19 -15.5,0 L 0,0 Z"
             style="fill:#b70f37;fill-opacity:1;fill-rule:evenodd;stroke:none"
             id="path3375"
             inkscape:connector-curvature="0" />
        </g>
        <g
           id="g3377"
           transform="translate(149.7935,268.2744)">
          <path
             d="M 0,0 -3.025,-5.975 0,0 Z m 30.025,-80 c -3.814,1.079 -7.239,2.396 -10.275,3.95 -17.348,8.92 -22.04,25.612 -14.075,50.075 -21.067,8.5 -27.95,25.134 -20.65,49.901 7.607,16.632 19.332,27.682 35.175,33.149 20.237,2.215 36.812,0.582 49.725,-4.9 l -27.85,-22.65 -15.05,0 5.35,-19 -16,9 0,-18.9 0,-2.6 -14.1,6.5 L 0,0 15.025,-10.475 19.15,-2.5 l 3.375,6.525 5.4,-8.25 4.1,-6.25 3,7.5 3,7.5 9.5,-7 5.5,9 17.725,5.8 C 73.049,-1.151 66.391,-14.102 50.775,-26.524 41.071,-30.223 28.788,-30.873 13.925,-28.475 8.8,-47.636 12.691,-61.319 25.6,-69.524 c 2.719,-1.731 5.836,-3.214 9.35,-4.451 L 30.025,-80 Z"
             style="fill:#99203d;fill-opacity:1;fill-rule:evenodd;stroke:none"
             id="path3379"
             inkscape:connector-curvature="0" />
        </g>
        <g
           id="g3381"
           transform="translate(166.1685,268.8994)">
          <path
             d="M 0,0 C 0.681,-1.295 1.606,-2.337 2.775,-3.125 L -1.35,-11.1 -16.375,-0.625 -14.1,3.9 0,-2.6 0,0 Z m 11.55,-4.85 c 2.115,0.144 4.481,0.561 7.1,1.25 l -3,-7.5 -4.1,6.25 z"
             style="fill:#6e2335;fill-opacity:1;fill-rule:evenodd;stroke:none"
             id="path3383"
             inkscape:connector-curvature="0" />
        </g>
        <g
           id="g3385"
           transform="translate(200.5684,241.75)">
          <path
             d="m 0,0 c 15.616,12.423 22.274,25.373 19.975,38.85 l 6.775,2.2 C 24.412,19.592 15.496,5.909 0,0 m 19.15,78.7 c -12.913,5.481 -29.488,7.114 -49.725,4.9 14.434,4.972 32.284,5.314 53.55,1.025 0.922,-0.182 1.847,-0.374 2.775,-0.575 l -6.6,-5.35 z"
             style="fill:#ba3b59;fill-opacity:1;fill-rule:evenodd;stroke:none"
             id="path3387"
             inkscape:connector-curvature="0" />
        </g>
        <g
           id="g3389"
           transform="translate(417.8184,325)">
          <path
             d="M 0,0 -1,0.8 C 46.582,10.838 78.007,-0.354 93.275,-32.775 99.972,-54.796 95.122,-70.388 78.725,-79.55 93.116,-70.23 97.141,-55.147 90.8,-34.3 75.879,-2.67 45.612,8.763 0,0"
             style="fill:#ea5b7d;fill-opacity:1;fill-rule:evenodd;stroke:none"
             id="path3391"
             inkscape:connector-curvature="0" />
        </g>
        <g
           id="g3393"
           transform="translate(423.6436,314.8496)">
          <path
             d="m 0,0 c 0.229,1.609 0.505,3.243 0.825,4.9 l 27.85,-21.95 15.5,0 -5.5,-19 16.5,9 0,-21.5 14.5,6.5 5.5,-10.5 -7.5,6.5 -14.5,-6.5 0,21.5 -16.5,-9 5.5,19 -15.5,0 L 0,0 Z"
             style="fill:#83243a;fill-opacity:1;fill-rule:evenodd;stroke:none"
             id="path3395"
             inkscape:connector-curvature="0" />
        </g>
        <g
           id="g3397"
           transform="translate(179.8184,188.2744)">
          <path
             d="M 0,0 4.925,6.025 C 8.829,4.64 13.22,3.557 18.1,2.775 l -6,-5.25 C 7.704,-1.872 3.67,-1.047 0,0"
             style="fill:#83253b;fill-opacity:1;fill-rule:evenodd;stroke:none"
             id="path3399"
             inkscape:connector-curvature="0" />
        </g>
        <g
           id="g3401"
           transform="translate(166.1685,266.2998)">
          <path
             d="m 0,0 -14.1,6.5 -2.275,-4.525 m 0,0 L -19.4,-4"
             style="fill:none;stroke:#762337;stroke-width:1;stroke-linecap:round;stroke-linejoin:round;stroke-miterlimit:3;stroke-dasharray:none;stroke-opacity:1"
             id="path3403"
             inkscape:connector-curvature="0" />
        </g>
      </g>
    </g>
    <g
       id="g3405"
       transform="matrix(1.25,0,0,-1.25,-38.040096,468.04209)">
      <g
         id="g3407"
         clip-path="url(#clipPath3409)">
        <g
           id="g3413"
           transform="translate(422.918,118.9502)">
          <path
             d="M 0,0 C -2.597,-1.358 -4.664,-3.209 -6.199,-5.551 -4.664,-3.209 -2.597,-1.358 0,0 m -6.1,8 c 2.967,-1.967 5,-4.634 6.1,-8 1.301,-4.167 1.15,-9.434 -0.449,-15.801 -1.734,1.991 -3.459,3.767 -5.176,5.325 -0.018,1.776 -0.209,3.417 -0.574,4.925 -0.093,0.356 -0.194,0.706 -0.301,1.051 -1.016,3.109 -2.832,5.626 -5.449,7.55 1.515,1.891 3.465,3.542 5.849,4.95 -2.384,-1.408 -4.334,-3.059 -5.849,-4.95 -0.207,0.15 -0.424,0.3 -0.651,0.45 -1.099,0.733 -2.349,1.366 -3.75,1.899 -1.012,-0.088 -1.954,-0.239 -2.825,-0.45 1.672,2.901 4.78,4.55 9.325,4.95 C -8.449,9.366 -7.199,8.733 -6.1,8 M -189.5,-5.551 c -0.333,-1.5 -0.516,-3.149 -0.55,-4.949 -1.566,-1.534 -3.15,-3.301 -4.75,-5.301 -1.466,6.367 -1.599,11.634 -0.4,15.801 2.4,-1.367 4.301,-3.217 5.7,-5.551 M -189.6,8 c 1,0.733 2.15,1.366 3.451,1.899 4.166,-0.399 7,-2.049 8.5,-4.95 -0.768,0.2 -1.617,0.351 -2.551,0.45 -1.3,-0.533 -2.449,-1.166 -3.449,-1.899 -0.201,-0.134 -0.401,-0.284 -0.601,-0.45 -1.366,1.899 -3.149,3.55 -5.35,4.95 2.201,-1.4 3.984,-3.051 5.35,-4.95 -2.399,-1.934 -4.066,-4.45 -5,-7.55 -0.066,-0.334 -0.149,-0.684 -0.25,-1.051 -1.399,2.334 -3.3,4.184 -5.7,5.551 1,3.366 2.867,6.033 5.6,8"
             style="fill:#841e36;fill-opacity:1;fill-rule:evenodd;stroke:none"
             id="path3415"
             inkscape:connector-curvature="0" />
        </g>
        <g
           id="g3417"
           transform="translate(422.918,118.9502)">
          <path
             d="m 0,0 c -2.597,-1.358 -4.664,-3.209 -6.199,-5.551 m -5.75,8.601 C -10.434,4.941 -8.484,6.592 -6.1,8 M -195.2,0 c 2.4,-1.367 4.301,-3.217 5.7,-5.551 m 5.25,8.601 c -1.366,1.899 -3.149,3.55 -5.35,4.95"
             style="fill:none;stroke:#57202d;stroke-width:1;stroke-linecap:round;stroke-linejoin:round;stroke-miterlimit:3;stroke-dasharray:none;stroke-opacity:1"
             id="path3419"
             inkscape:connector-curvature="0" />
        </g>
      </g>
    </g>
    <g
       id="g3421"
       transform="matrix(1.25,0,0,-1.25,-38.040096,468.04209)">
      <g
         id="g3423"
         clip-path="url(#clipPath3425)">
        <g
           id="g3429"
           transform="translate(410.3184,122.4502)">
          <path
             d="M 0,0 C 0.227,-0.15 0.443,-0.3 0.65,-0.45 3.268,-2.374 5.084,-4.891 6.1,-8 4.779,-8.69 3.597,-9.508 2.55,-10.45 c -1.836,-1.659 -3.253,-3.71 -4.25,-6.151 -2.567,2 -5.067,3.534 -7.5,4.601 0.485,2.109 1.303,4.034 2.45,5.774 C -5.148,-3.787 -2.898,-1.713 0,0 -2.898,-1.713 -5.148,-3.787 -6.75,-6.226 -7.897,-7.966 -8.715,-9.891 -9.2,-12 c -1.767,0.733 -3.533,1.233 -5.3,1.5 -0.347,6.583 2.295,10.565 7.925,11.949 0.871,0.211 1.812,0.362 2.825,0.45 C -2.35,1.366 -1.1,0.733 0,0 m -1.7,-16.601 c 0.997,2.441 2.414,4.492 4.25,6.151 1.047,0.942 2.229,1.76 3.55,2.45 0.107,-0.345 0.208,-0.695 0.3,-1.051 0.366,-1.508 0.557,-3.149 0.575,-4.925 0.03,-2.915 -0.412,-6.19 -1.325,-9.825 -2.466,2.834 -4.917,5.234 -7.35,7.2 M -164,-12 c -0.433,2.1 -1.117,4.017 -2.05,5.75 -1.333,2.466 -3.217,4.55 -5.65,6.25 2.433,-1.7 4.317,-3.784 5.65,-6.25 0.933,-1.733 1.617,-3.65 2.05,-5.75 m -6.3,-4.601 c -0.833,2.434 -2.017,4.484 -3.55,6.151 -0.833,0.933 -1.817,1.75 -2.95,2.45 1.133,-0.7 2.117,-1.517 2.95,-2.45 1.533,-1.667 2.717,-3.717 3.55,-6.151 m 1.75,18.5 c 0.833,-0.099 1.6,-0.25 2.3,-0.45 4.733,-1.399 6.95,-5.383 6.65,-11.949 -1.467,-0.267 -2.933,-0.767 -4.4,-1.5 -2.033,-1.067 -4.133,-2.601 -6.3,-4.601 -2,-1.966 -4.033,-4.366 -6.1,-7.2 -0.767,3.634 -1.15,6.901 -1.15,9.801 0.033,1.8 0.2,3.449 0.5,4.949 0.1,0.367 0.183,0.717 0.25,1.051 0.833,3.1 2.35,5.616 4.55,7.55 0.167,0.166 0.35,0.316 0.55,0.45 0.933,0.733 1.983,1.366 3.15,1.899"
             style="fill:#a5183a;fill-opacity:1;fill-rule:evenodd;stroke:none"
             id="path3431"
             inkscape:connector-curvature="0" />
        </g>
        <g
           id="g3433"
           transform="translate(416.418,114.4502)">
          <path
             d="M 0,0 C -1.32,-0.69 -2.503,-1.508 -3.55,-2.45 -5.386,-4.109 -6.803,-6.16 -7.8,-8.601 M -15.3,-4 c 0.486,2.109 1.303,4.034 2.45,5.774 1.602,2.439 3.852,4.513 6.75,6.226 m -164,-12 c -0.433,2.1 -1.116,4.017 -2.049,5.75 -1.334,2.466 -3.217,4.55 -5.651,6.25 m 1.401,-16.601 c -0.834,2.434 -2.018,4.484 -3.551,6.151 -0.833,0.933 -1.816,1.75 -2.949,2.45"
             style="fill:none;stroke:#802138;stroke-width:1;stroke-linecap:round;stroke-linejoin:round;stroke-miterlimit:3;stroke-dasharray:none;stroke-opacity:1"
             id="path3435"
             inkscape:connector-curvature="0" />
        </g>
      </g>
    </g>
    <g
       id="g3437"
       transform="matrix(1.25,0,0,-1.25,-38.040096,468.04209)">
      <g
         id="g3439"
         clip-path="url(#clipPath3441)">
        <g
           id="g3445"
           transform="translate(373.1182,102.75)">
          <path
             d="m 0,0 c -67.085,-3.997 -111.452,20.703 -133.1,74.1 64.529,-8.645 134.829,-5.746 210.9,8.7 0.45,0.08 0.9,0.164 1.35,0.25 C 61.118,40.276 35.085,12.718 1.05,0.375 0.703,0.249 0.353,0.124 0,0"
             style="fill:#b70f37;fill-opacity:1;fill-rule:evenodd;stroke:none"
             id="path3447"
             inkscape:connector-curvature="0" />
        </g>
        <g
           id="g3449"
           transform="translate(449.4688,187.25)">
          <path
             d="m 0,0 c -75.859,-14.259 -145.977,-17.018 -210.351,-8.275 -23.08,5.715 -35.405,12.458 -36.974,20.225 22.927,17.649 50.135,30.332 81.625,38.05 10.582,1.393 24.565,2.376 41.95,2.95 C -72.648,54.648 -31.398,36.999 0,0"
             style="fill:#bd2146;fill-opacity:1;fill-rule:evenodd;stroke:none"
             id="path3451"
             inkscape:connector-curvature="0" />
        </g>
        <g
           id="g3453"
           transform="translate(450.8682,187.5244)">
          <path
             d="m 0,0 c -0.464,-0.088 -0.931,-0.18 -1.399,-0.274 -31.399,36.999 -72.649,54.648 -123.75,52.95 -17.385,-0.574 -31.369,-1.558 -41.951,-2.95 -1.266,-0.172 -2.483,-0.347 -3.65,-0.526 14.415,3.466 29.439,5.458 45.075,5.976 C -73.517,56.906 -31.625,38.515 0,0"
             style="fill:#f8688b;fill-opacity:1;fill-rule:evenodd;stroke:none"
             id="path3455"
             inkscape:connector-curvature="0" />
        </g>
        <g
           id="g3457"
           transform="translate(239.1182,178.9746)">
          <path
             d="m 0,0 c 64.374,-8.742 134.491,-5.983 210.351,8.275 0.468,0.095 0.935,0.187 1.399,0.275 0.468,-0.568 0.935,-1.143 1.4,-1.725 -0.45,-0.086 -0.9,-0.17 -1.35,-0.25 C 135.729,-7.87 65.429,-10.77 0.9,-2.125 l -0.025,0 C 0.63,-1.443 0.389,-0.76 0.15,-0.075 -0.208,-0.009 -0.558,0.058 -0.9,0.125 -0.596,0.083 -0.296,0.042 0,0"
             style="fill:#c33f5f;fill-opacity:1;fill-rule:evenodd;stroke:none"
             id="path3459"
             inkscape:connector-curvature="0" />
        </g>
        <g
           id="g3461"
           transform="translate(238.2183,179.0996)">
          <path
             d="m 0,0 c -16.777,2.311 -33.161,5.402 -49.15,9.275 4.277,3.821 8.635,7.438 13.075,10.85 0.002,-0.01 0.002,-0.018 0,-0.024 C -34.505,12.333 -22.18,5.591 0.9,-0.125 0.604,-0.083 0.304,-0.042 0,0"
             style="fill:#a92847;fill-opacity:1;fill-rule:evenodd;stroke:none"
             id="path3463"
             inkscape:connector-curvature="0" />
        </g>
        <g
           id="g3465"
           transform="translate(240.0186,176.8496)">
          <path
             d="M 0,0 C 21.648,-53.396 66.015,-78.097 133.1,-74.1 113.989,-80.822 92.372,-82.789 68.25,-80 11.378,-71.052 -28.938,-41.068 -52.7,9.95 -35.59,5.737 -18.032,2.42 -0.025,0 L 0,0 Z"
             style="fill:#9d213f;fill-opacity:1;fill-rule:evenodd;stroke:none"
             id="path3467"
             inkscape:connector-curvature="0" />
        </g>
        <g
           id="g3469"
           transform="translate(239.9932,176.8496)">
          <path
             d="m 0,0 c -18.006,2.42 -35.564,5.737 -52.675,9.95 0.58,0.529 1.164,1.054 1.75,1.575 15.989,-3.873 32.373,-6.964 49.15,-9.275 0.342,-0.067 0.692,-0.134 1.05,-0.2 C -0.486,1.365 -0.245,0.682 0,0"
             style="fill:#a93852;fill-opacity:1;fill-rule:evenodd;stroke:none"
             id="path3471"
             inkscape:connector-curvature="0" />
        </g>
      </g>
    </g>
    <g
       id="g3473"
       transform="matrix(1.25,0,0,-1.25,-38.040096,478.04209)">
      <g
         id="g3475"
         clip-path="url(#clipPath3477)">
        <g
           id="g3481"
           transform="translate(294.3184,216.2998)">
          <path
             d="M 0,0 C 21.267,-5.767 44.434,-5.767 69.5,0 42.367,-7.833 19.2,-7.833 0,0"
             style="fill:#83243a;fill-opacity:1;fill-rule:evenodd;stroke:none"
             id="path3483"
             inkscape:connector-curvature="0" />
        </g>
        <g
           id="g3485"
           transform="translate(294.3184,216.2998)">
          <path
             d="M 0,0 C 21.267,-5.767 44.434,-5.767 69.5,0 42.367,-7.833 19.2,-7.833 0,0 Z"
             style="fill:none;stroke:#83243a;stroke-width:1;stroke-linecap:round;stroke-linejoin:round;stroke-miterlimit:3;stroke-dasharray:none;stroke-opacity:1"
             id="path3487"
             inkscape:connector-curvature="0" />
        </g>
      </g>
    </g>
    <g
       id="g3489"
       transform="matrix(1.25,0,0,-1.25,-38.040096,468.04209)">
      <g
         id="g3491"
         clip-path="url(#clipPath3493)">
        <g
           id="g3497"
           transform="translate(263.1685,104.0996)">
          <path
             d="M 0,0 C -3.434,5.101 -8.517,8.283 -15.25,9.55 -8.517,8.283 -3.434,5.101 0,0 m -6.65,-8 c -3.3,3.601 -7.383,5.717 -12.25,6.351 4.867,-0.634 8.95,-2.75 12.25,-6.351 M 139.775,8.575 c 2.513,-3.333 3.696,-7.066 3.55,-11.2 -4.724,-0.636 -8.706,-2.753 -11.95,-6.35 3.244,3.597 7.226,5.714 11.95,6.35 -0.178,-5.111 -2.404,-10.836 -6.675,-17.175 -1.596,4.106 -3.354,7.714 -5.275,10.825 -1.969,3.184 -4.112,5.842 -6.425,7.975 3.317,5.087 8.258,8.278 14.825,9.575 C 133.208,7.278 128.267,4.087 124.95,-1 c -1.634,1.492 -3.351,2.726 -5.15,3.7 2.549,8.533 8.1,11.667 16.65,9.401 1.29,-1.123 2.399,-2.298 3.325,-3.526 M -11.8,13.101 C -3,15.367 2.7,12.233 5.3,3.7 3.433,2.733 1.667,1.5 0,0 c -2.367,-2.133 -4.583,-4.8 -6.65,-8 -1.933,-3.1 -3.717,-6.7 -5.35,-10.8 -4.4,6.333 -6.7,12.05 -6.9,17.151 -0.133,4.132 1.083,7.866 3.65,11.199 0.967,1.233 2.117,2.417 3.45,3.551"
             style="fill:#851a34;fill-opacity:1;fill-rule:evenodd;stroke:none"
             id="path3499"
             inkscape:connector-curvature="0" />
        </g>
        <g
           id="g3501"
           transform="translate(263.1685,104.0996)">
          <path
             d="M 0,0 C -3.434,5.101 -8.517,8.283 -15.25,9.55 M -6.65,-8 c -3.3,3.601 -7.383,5.717 -12.25,6.351 m 162.225,-0.976 c -4.724,-0.636 -8.706,-2.753 -11.95,-6.35 M 124.95,-1 c 3.317,5.087 8.258,8.278 14.825,9.575"
             style="fill:none;stroke:#6d192d;stroke-width:1;stroke-linecap:round;stroke-linejoin:round;stroke-miterlimit:3;stroke-dasharray:none;stroke-opacity:1"
             id="path3503"
             inkscape:connector-curvature="0" />
        </g>
      </g>
    </g>
    <g
       id="g3505"
       transform="matrix(1.25,0,0,-1.25,-38.040096,478.04209)">
      <g
         id="g3507"
         clip-path="url(#clipPath3509)">
        <g
           id="g3513"
           transform="translate(376.3184,225.0996)">
          <path
             d="m 0,0 c -1.066,-1.1 -2.367,-1.649 -3.9,-1.649 -1.534,0 -2.85,0.549 -3.95,1.649 -1.066,1.066 -1.6,2.367 -1.6,3.9 0,1.534 0.534,2.85 1.6,3.951 1.1,1.066 2.416,1.599 3.95,1.599 1.533,0 2.834,-0.533 3.9,-1.599 C 1.1,6.75 1.65,5.434 1.65,3.9 1.65,2.367 1.1,1.066 0,0 m -92.85,7.851 c 1.1,1.066 2.416,1.599 3.95,1.599 1.533,0 2.834,-0.533 3.9,-1.599 1.1,-1.101 1.65,-2.417 1.65,-3.951 0,-1.533 -0.55,-2.834 -1.65,-3.9 -1.066,-1.1 -2.367,-1.649 -3.9,-1.649 -1.534,0 -2.85,0.549 -3.95,1.649 -1.066,1.066 -1.6,2.367 -1.6,3.9 0,1.534 0.534,2.85 1.6,3.951"
             style="fill:#000000;fill-opacity:1;fill-rule:evenodd;stroke:none"
             id="path3515"
             inkscape:connector-curvature="0" />
        </g>
      </g>
    </g>
  </g>
</svg>
