<svg xmlns="http://www.w3.org/2000/svg" fill-rule="evenodd" stroke-miterlimit="1.41" viewBox="0 0 330 90" clip-rule="evenodd" stroke-linejoin="round"><path fill="#efe6c9" fill-rule="nonzero" d="M-28-18.93h602.7v405.37H-28z"/><path fill="#bcbebd" fill-rule="nonzero" d="M234.8 71.93c0 1.66-1.35 3-3 3h-18.2c-1.64 0-3-1.34-3-3v-31.1c0-1.67 1.36-3 3-3h18.2c1.65 0 3 1.33 3 3v31.1z"/><path fill="#f9a436" fill-rule="nonzero" d="M212 38.76h21.38v33.36H212z"/><path fill="#b6a588" fill-rule="nonzero" d="M233.66 72.12h-9.83 9.56V38.76h-9.6v-.2h9.8v33.56z"/><path fill="#f2912d" fill-rule="nonzero" d="M233.4 72.12h-9.57v-13.9c.18 0 .35-.16.42-.37.08-.28-.04-.56-.28-.63l-.12-.02h-.02V46.78c.15-.05.3-.18.34-.37.1-.2-.04-.5-.27-.6h-.07v-7h9.56v33.4zm-9.16-5.92c-.08 0-.16.06-.18.15-.04.1 0 .23.1.25h.05c.1 0 .2-.05.2-.14.1-.1 0-.22-.1-.25zm-.2-1.4c-.08 0-.16.05-.2.14-.02.1.03.22.12.25h.05c.1 0 .2-.1.2-.2s0-.2-.1-.3zm.9-2.63c-.07 0-.15.06-.17.15-.04.1 0 .23.1.25h.05c.08 0 .16-.05.2-.14.02-.1-.03-.22-.12-.26h-.05zm.25-1.87c-.1 0-.2.06-.2.15-.1.1 0 .23.1.26.1 0 .1 0 .2-.1 0-.1 0-.2-.1-.2h-.1zm.9-.98c-.1 0-.2.06-.2.15-.1.1 0 .22.1.25.1 0 .1-.05.2-.15 0-.1 0-.22-.1-.25h-.1zm-.1-1.65c-.1 0-.2.06-.2.15 0 .1 0 .22.1.25.1 0 .1-.05.2-.15 0-.1-.1-.22-.2-.25zm-1.6-4.6c-.1 0-.2.07-.2.17s0 .22.1.25c0 0 .1-.1.1-.2s0-.2-.1-.3h-.1zm2.9-1.52c-.2 0-.4.16-.5.4-.1.26 0 .54.3.62h.1c.2 0 .4-.14.4-.37.1-.27-.1-.56-.3-.63l-.1-.02zm5.1-2.04c-.2 0-.4.2-.5.4-.1.3 0 .6.2.7h.1c.2 0 .4-.1.4-.4.1-.2-.1-.5-.3-.6h-.1zm-4.4-1c-.1 0-.2.1-.2.2s0 .3.1.3.1 0 .2-.1-.1-.2-.1-.2zm-1.1-1.7c-.2 0-.4.2-.5.4-.1.3 0 .6.3.7h.1c.2 0 .4-.1.4-.3.1-.2 0-.5-.2-.6h-.2zm1.5.2c-.1 0-.2.1-.2.2s0 .3.1.3c0 0 .1 0 .2-.1 0-.1-.1-.2-.2-.2h-.1z"/><path fill="#fff" fill-rule="nonzero" d="M226.7 34.52l.04-.07.03.07h-.08zm-7.18-.14l.1-.18.1.14c-.07 0-.14.02-.2.04zm-2.82 2.26l-.06-.08.1-.03c0 .04-.02.07-.04.1zm18.95.02c.06-.3.1-.6.1-.9 0-1.04-.4-1.98-1.04-2.7.1-.17.1-.36.1-.55 0-2.3-1.9-4.2-4.2-4.2-1.4 0-2.7.7-3.4 1.8-.7-1.3-2.1-2.3-3.8-2.3-1.4 0-2.7.8-3.5 1.9-.8-1.6-2.5-2.8-4.5-2.8-2.7 0-5 2.3-5 5 0 1.4.6 2.6 1.4 3.5-2.1.6-3.6 2.6-3.6 4.8 0 2.8 2.3 5 5 5 2.2 0 4-1.3 4.7-3.3.8.7 1.7 1.1 2.8 1.1 1.1 0 2.1-.4 2.9-1.1.8.9 1.9 1.4 3.1 1.4 1 0 2-.3 2.7-.9.8 1 2 1.7 3.4 1.7 2.4 0 4.3-1.9 4.3-4.2 0-1.1-.4-2.1-1.1-2.8z"/><path fill="#bcbebd" fill-rule="nonzero" d="M210.66 47.27s-9.08-1.7-9.9 1.7c-.8 3.45-2.4 15.25 1.83 16.56 4.2 1.3 7.1 1.4 7.6 1.4s.8 1.02 1.2.92c.4-.1.7-4.54.3-4.64-.4-.1-.6-.3-1.1.4-.5.8-7.2.9-7.5-3.9-.4-5.2-.1-8 .5-8.7.8-1 4.8-1.5 5.7-.4.8 1.1 1.7 1.5 1.9.8.2-.7.6-4.5-.6-4z"/><path fill="url(#a)" d="M205.18 36.5c-.03 0-.06 0-.1-.02-.2-.06-.32-.3-.24-.56.06-.2.23-.34.4-.34h.1c.23.08.34.33.26.57-.06.2-.24.35-.42.35z" transform="translate(39.286 15.774) scale(.84996)"/><path fill="url(#b)" d="M207.34 39.54h-.1c-.22-.08-.33-.33-.25-.58 0-.2.2-.34.4-.34l.1.02c.2.06.3.3.2.56-.1.2-.3.34-.4.34z" transform="translate(39.286 15.774) scale(.84996)"/><path fill="url(#c)" d="M210.84 35.2c-.03 0-.06-.02-.08-.03-.18-.05-.27-.26-.2-.47.04-.17.2-.3.34-.3l.1.02c.16.06.26.27.2.48-.06.17-.2.3-.36.3z" transform="translate(39.286 15.774) scale(.84996)"/><path fill="url(#d)" d="M211.42 37.18c-.04 0-.07 0-.1-.02-.22-.06-.33-.3-.25-.56.06-.2.23-.34.4-.34h.12c.2.08.3.33.2.58-.1.2-.3.34-.4.34z" transform="translate(39.286 15.774) scale(.84996)"/><path fill="url(#e)" d="M211.3 41.6c-.04 0-.08 0-.13-.02-.27-.08-.42-.42-.32-.74.08-.27.3-.45.55-.45h.13c.28.1.43.4.33.7-.1.2-.32.4-.55.4z" transform="translate(39.286 15.774) scale(.84996)"/><path fill="url(#f)" d="M215.1 37.64c-.04 0-.1 0-.13-.02-.28-.1-.42-.42-.32-.74.08-.27.3-.45.54-.45l.1.02c.3.08.4.4.3.74-.1.2-.3.4-.6.4z" transform="translate(39.286 15.774) scale(.84996)"/><path fill="url(#g)" d="M216 59.44c-.04 0-.1 0-.13-.02-.28-.08-.43-.4-.33-.74.1-.27.3-.45.55-.45l.1.02c.2.1.4.42.3.74-.1.2-.3.4-.6.4z" transform="translate(39.286 15.774) scale(.84996)"/><path fill="url(#h)" d="M217.06 49.95c-.04 0-.1 0-.13-.02-.28-.08-.43-.4-.33-.74.08-.3.3-.5.52-.5v1.2h-.06z" transform="translate(39.286 15.774) scale(.84996)"/><path fill="url(#i)" d="M217.12 49.95v-1.2h.17c.2.1.4.43.3.75-.1.25-.3.42-.5.45z" transform="translate(39.286 15.774) scale(.84996)"/><path fill="url(#j)" d="M221.22 43.3h-.14c-.28-.1-.42-.43-.32-.75.08-.27.3-.45.55-.45l.2.02c.3.08.4.4.4.74-.1.27-.3.45-.5.45z" transform="translate(39.286 15.774) scale(.84996)"/><path fill="url(#k)" d="M211.85 58.58c-.04 0-.1 0-.13-.02-.28-.08-.42-.4-.32-.74.08-.27.3-.45.55-.45.04 0 .1 0 .13.02.28 0 .42.4.32.7-.08.2-.3.4-.55.4z" transform="translate(39.286 15.774) scale(.84996)"/><path fill="url(#l)" d="M214.06 50.24c-.04 0-.1 0-.13-.02-.28-.1-.43-.42-.33-.74.1-.27.3-.45.55-.45.04 0 .1 0 .14.02.2.08.4.4.3.74-.1.2-.3.4-.6.4z" transform="translate(39.286 15.774) scale(.84996)"/><path fill="url(#m)" d="M208.38 50.34c-.04 0-.1 0-.13-.02-.28-.08-.43-.42-.33-.74.1-.27.32-.45.55-.45.05 0 .1 0 .14.02.3.1.5.42.4.74-.1.2-.3.4-.5.4z" transform="translate(39.286 15.774) scale(.84996)"/><path fill="url(#n)" d="M220.85 37.68c-.05 0-.1 0-.14-.02-.2-.08-.4-.4-.3-.74.1-.27.3-.45.6-.45l.2.02c.3 0 .5.4.4.7-.1.2-.3.4-.5.4z" transform="translate(39.286 15.774) scale(.84996)"/><path fill="url(#o)" d="M227.32 40.9c-.05 0-.1 0-.14-.02-.28-.1-.42-.42-.32-.74.08-.27.3-.45.55-.45h.2c.3.1.5.4.4.7-.1.2-.3.4-.5.4z" transform="translate(39.286 15.774) scale(.84996)"/><path fill="url(#p)" d="M216.97 36.5c-.04 0-.1 0-.13-.02-.28-.1-.42-.42-.32-.74.08-.28.3-.46.55-.46h.05v1.2l-.14.02z" transform="translate(39.286 15.774) scale(.84996)"/><path fill="url(#q)" d="M217.12 36.48v-1.2l.08.02c.28.1.43.42.33.75-.07.2-.23.37-.4.43z" transform="translate(39.286 15.774) scale(.84996)"/><path fill="url(#r)" d="M205.04 38.54h-.06c-.1-.05-.17-.18-.13-.3.04-.12.13-.2.23-.2 0 0 .03 0 .05.02.1.04.17.17.13.3-.04.1-.13.18-.22.18z" transform="translate(39.286 15.774) scale(.84996)"/><path fill="url(#s)" d="M222.7 37.2l-.05-.02c-.12-.03-.17-.17-.13-.3.03-.1.12-.18.22-.18h.05c.1.05.1.18.1.3-.1.12-.2.2-.2.2z" transform="translate(39.286 15.774) scale(.84996)"/><path fill="url(#t)" d="M222.23 38.94h-.05c-.12-.04-.17-.17-.13-.3.03-.1.12-.18.2-.18h.07c.1.04.17.17.13.3-.03.1-.13.18-.22.18z" transform="translate(39.286 15.774) scale(.84996)"/><path fill="url(#u)" d="M207.6 37.56h-.04c-.12-.05-.17-.18-.13-.3.03-.12.12-.2.22-.2l.05.02c.1.03.17.17.13.3-.03.1-.13.18-.22.18z" transform="translate(39.286 15.774) scale(.84996)"/><path fill="url(#v)" d="M213.03 48.16h-.06c-.1-.04-.17-.17-.13-.3.04-.1.13-.18.22-.18h.06c.1.04.17.17.13.3-.04.1-.13.18-.22.18z" transform="translate(39.286 15.774) scale(.84996)"/><path fill="url(#w)" d="M217.9 44.38h-.06c-.1-.05-.17-.18-.13-.3.1-.12.2-.2.3-.2 0 0 .1 0 .1.02.1.04.2.17.2.3 0 .1-.1.18-.2.18z" transform="translate(39.286 15.774) scale(.84996)"/><path fill="url(#x)" d="M212.97 55.68h-.06c-.1-.04-.1-.17-.1-.3.1-.1.2-.18.3-.18h.1c.1.04.2.17.2.3 0 .1-.1.18-.2.18z" transform="translate(39.286 15.774) scale(.84996)"/><path fill="url(#y)" d="M213.38 52.68h-.05c-.1-.04-.17-.17-.13-.3.03-.1.12-.18.22-.18h.05c.1.04.17.17.13.3-.03.1-.12.18-.22.18z" transform="translate(39.286 15.774) scale(.84996)"/><path fill="url(#z)" d="M216.23 51.8h-.05c-.12-.03-.17-.16-.13-.3.03-.1.12-.17.2-.17h.07c.1.04.17.17.13.3-.04.1-.13.18-.22.18z" transform="translate(39.286 15.774) scale(.84996)"/><path fill="url(#A)" d="M216.7 55.86h-.04c-.1-.05-.17-.18-.13-.3.03-.12.12-.2.22-.2 0 0 .03 0 .05.02.1.03.17.16.13.3-.03.1-.13.18-.22.18z" transform="translate(39.286 15.774) scale(.84996)"/><path fill="url(#B)" d="M218.4 55.07h-.05c-.1-.04-.17-.18-.13-.3.04-.1.13-.2.22-.2l.06.02c.1 0 .17.1.13.3-.04.1-.13.1-.22.1z" transform="translate(39.286 15.774) scale(.84996)"/><path fill="url(#C)" d="M218.68 52.87h-.05c-.1-.04-.17-.17-.13-.3.03-.1.13-.18.22-.18h.05c.1 0 .17.1.13.3-.03.1-.12.1-.22.1z" transform="translate(39.286 15.774) scale(.84996)"/><path fill="url(#D)" d="M219.83 51.7h-.05c-.1-.03-.17-.16-.13-.3.03-.1.13-.17.22-.17h.05c.12.04.17.17.13.3-.03.1-.12.18-.22.18z" transform="translate(39.286 15.774) scale(.84996)"/><path fill="url(#E)" d="M219.77 49.77h-.06c-.1-.04-.1-.18-.1-.3l.2-.18h.1c.1 0 .2.1.2.3 0 .1-.1.1-.2.1z" transform="translate(39.286 15.774) scale(.84996)"/><path fill="url(#F)" d="M217.33 58.15h-.05c-.1-.05-.17-.18-.13-.3.03-.12.12-.2.22-.2l.05.02c.1.04.17.17.13.3-.03.1-.13.18-.22.18z" transform="translate(39.286 15.774) scale(.84996)"/><path fill="url(#G)" d="M217.57 59.8h-.05c-.12-.03-.17-.16-.13-.3 0-.1.1-.17.2-.17.1.04.1.17.1.3-.1.1-.2.18-.3.18z" transform="translate(39.286 15.774) scale(.84996)"/><path fill="url(#H)" d="M213.9 36.7c-.02 0-.04 0-.06-.02-.1-.03-.17-.16-.13-.3.1-.1.2-.17.3-.17 0 0 .1 0 .1.1.1.1.2.2.2.3 0 .1-.1.2-.2.2z" transform="translate(39.286 15.774) scale(.84996)"/><g fill-rule="nonzero"><path fill="#914a3f" d="M144.23 68.13c.07-.1 1.38-2.13 3.5-5.12 3.2-4.4 8.3-11.1 13.76-16.5 2.7-2.7 5.5-5.1 8.2-6.8 1.3-.8 2.6-1.5 3.8-1.9 1.2-.4 2.3-.6 3.3-.6.7 0 1.4.2 2.1.4.5.2 1 .5 1.4.9.7.6 1.4 1.4 2.2 2.6.7 1.2 1.4 2.7 2 4.5l2.2-.7-2.3.7 1.2-.3-1.3.4 1.2-.3-1.3.4c0 .2.5 1.9.5 4.1 0 1.5-.2 3.2-.8 4.8-.4 1.3-1 2.5-1.9 3.7-.7.9-1.5 1.7-2.6 2.5-1.6 1.2-3.7 2.3-6.5 3-2.9.8-6.4 1.3-10.8 1.3h-.6l-.1 4.6h.6c5.6 0 10.1-.7 13.7-1.9 2.7-.9 4.9-2.1 6.7-3.5 2.7-2.1 4.4-4.7 5.3-7.2 1-2.5 1.3-5 1.3-7 0-3.1-.7-5.3-.7-5.4V44c-.6-1.9-1.4-3.54-2.2-4.96-.67-1.07-1.3-2-2.08-2.83-1.1-1.2-2.34-2.1-3.7-2.7-1.35-.6-2.8-.9-4.24-.9-1.1 0-2.2.2-3.3.5-2 .6-4 1.5-5.96 2.7-3.45 2.1-6.8 5-10 8.2-4.7 4.8-9 10.3-12.1 14.5-3.12 4.3-5.1 7.4-5.1 7.4l3.9 2.5z"/><path fill="#914a3f" d="M187.3 65.64c-.02-.02-1.32-2.06-3.5-5.1-3.25-4.58-8.45-11.43-14.26-17.23-2.9-2.9-5.97-5.5-9.1-7.5-1.56-.9-3.14-1.8-4.74-2.3-1.6-.6-3.24-.9-4.88-.9-1.3 0-2.58.2-3.8.7-.93.4-1.8.9-2.63 1.5-1.3 1-2.4 2.2-3.3 3.8-1 1.6-1.8 3.4-2.5 5.5-.1.2-.7 2.3-.7 5.4 0 1.9.2 4 .9 6.3.5 1.7 1.4 3.4 2.6 5 .9 1.2 2.1 2.4 3.5 3.4 2.1 1.6 4.8 2.9 8.1 3.8 3.3.9 7.2 1.4 11.9 1.4h.6l-.1-4.6h-.5c-5.2 0-9.3-.6-12.3-1.7-2.3-.7-4.1-1.7-5.4-2.8-2.1-1.6-3.2-3.4-4-5.2-.7-1.9-1-3.8-1-5.4 0-1.2.1-2.3.2-3 0-.3.1-.6.1-.8v-.2l-1.3-.3 1.2.4-1.2-.3 1.3.4-2.2-.6 2.2.7c.5-1.6 1.1-3 1.7-4.1.5-.8.9-1.5 1.4-2 .7-.8 1.5-1.3 2.2-1.7.7-.3 1.5-.5 2.4-.5.6 0 1.3.1 2.1.3 1.4.4 3 1.1 4.7 2.1 2.9 1.8 6 4.5 9 7.5 4.5 4.6 8.7 9.9 11.7 14 1.5 2.1 2.7 3.9 3.6 5.2l1 1.5.3.4v.1l3.9-2.5z"/><path fill="#eae0c2" d="M150.7 34.8c0 .32-.27.58-.6.58h-1.02c-.32 0-.58-.26-.58-.6 0-.3.26-.57.58-.57h1.03c.4 0 .6.3.6.6zm2.32-1.18c.3-.1.64.04.75.35l.36.96c.1.3-.05.64-.35.75-.3.1-.64-.05-.75-.35l-.36-.96c-.1-.3.05-.64.35-.75zm13.78 3.98c.3-.12.65.04.76.34l.35.96c.2.3 0 .64-.3.75-.3.12-.6-.04-.7-.34l-.3-.9c-.1-.3.1-.6.4-.7zm4.08 9.92c.3-.1.64.05.75.35l.35.96c.1.3-.04.64-.34.75-.3.1-.64-.04-.76-.35l-.35-.96c-.1-.3.05-.64.35-.75zm5.5 15.98c.24.2.3.57.1.82l-.67.8c-.2.25-.5.3-.8.08-.2-.2-.3-.57-.1-.82l.7-.8c.2-.25.6-.3.9-.1zm-12 2.55c.3-.1.63.05.74.35l.36.96c.1.3-.05.64-.35.75-.3.2-.64 0-.75-.3l-.36-.9c-.1-.3.05-.6.35-.7zM178.2 55.3c-.08.3-.4.5-.7.44l-1-.2c-.33-.07-.53-.38-.46-.7.07-.32.38-.52.7-.45l1 .2c.3 0 .5.3.45.7zm-7.65 11.2c-.07.33-.38.53-.7.47l-1-.22c-.3-.06-.5-.37-.45-.7.07-.3.38-.5.7-.44l1 .3c.32.1.52.4.45.7zm3.77-15.76c.3-.1.64.05.75.35l.35.9c.1.3-.04.6-.35.7-.3.1-.64-.1-.75-.4l-.35-1c-.1-.3.05-.7.35-.8zm6.95 7.84c.27.18.34.55.15.8l-.58.85c-.18.27-.55.34-.8.15-.28-.18-.35-.54-.16-.8l.58-.85c.18-.27.55-.34.8-.15zM159.2 46c.2.24.17.6-.08.8l-.8.65c-.26.2-.62.16-.83-.1-.2-.24-.2-.6.1-.82l.8-.63c.2-.2.6-.16.8.1zm-16.64-7.68c.3-.1.64.05.75.35l.4.97c.1.3 0 .64-.3.75-.3.1-.6-.1-.7-.4l-.3-1c-.1-.3.1-.7.4-.8zm-1.32 13.48c.3-.12.64.04.75.34l.3.96c.1.3-.1.64-.4.75-.3.1-.7-.04-.8-.35l-.4-.96c-.1-.3 0-.64.3-.75zm4.64-13.75c-.3-.12-.46-.45-.35-.76l.35-1c.1-.3.44-.5.75-.4.3.1.46.4.35.7l-.35.9c-.1.3-.45.4-.75.3zm5.17 16c-.3-.1-.46-.45-.35-.75l.35-.97c.1-.3.45-.46.75-.35.3.12.46.45.35.76l-.35.96c-.1.3-.45.46-.75.35zm-7.58 12.3c-.3-.1-.47-.43-.37-.73l.32-.98c.1-.3.43-.47.73-.37.3.1.48.43.38.74l-.32 1c-.1.3-.4.5-.7.4zm3.63-8.4c.12-.3.46-.43.76-.3l.95.4c.3.12.5.46.4.76s-.4.5-.7.4l-.9-.4c-.3-.1-.4-.4-.3-.7zm-6.85-9.13c-.32.07-.63-.13-.7-.44l-.23-1c-.07-.32.13-.63.45-.7.3-.07.63.12.7.44l.22 1c0 .3-.2.63-.5.7zm2.15 10.24c-.32.07-.63-.12-.7-.44l-.23-1c-.07-.3.13-.63.44-.7.4-.07.7.13.7.45l.3 1c.1.3-.1.62-.4.7zm-.73-14.48c-.3-.1-.46-.45-.35-.75l.35-.96c.1-.3.44-.46.75-.35.3.1.46.44.35.75l-.35.96c-.1.3-.45.46-.75.35zm16.45-6.52c-.27.17-.64.1-.8-.17l-.58-.9c-.17-.3-.1-.7.17-.8.3-.2.7-.1.9.1l.6.8c.2.2.1.6-.1.8zm4.18 1.64c-.28.17-.65.1-.82-.18l-.57-.85c-.1-.28-.1-.64.2-.82.3-.17.7-.1.8.17l.6.86c.2.27.1.63-.1.8zm15.8-4.3c-.2.25-.56.3-.82.12l-.84-.6c-.26-.18-.32-.55-.13-.8.2-.28.6-.34.9-.15l.9.6c.3.2.3.55.2.82zm-6.12-.5c.3.1.47.43.37.74l-.3.97c-.1.4-.44.5-.75.4-.3-.1-.48-.4-.38-.7l.32-1c.1-.3.43-.4.74-.3zm15.27 16.42c-.3.16-.64.05-.8-.23l-.5-.9c-.15-.3-.05-.7.23-.8.28-.2.64-.1.8.2l.5.9c.15.3.05.6-.23.8zm-1.68-10.7c.3.1.48.44.38.75l-.32.97c-.1.3-.43.48-.73.38-.3-.1-.48-.43-.38-.74l.32-.97c.1-.3.43-.4.73-.3zm-3.05-5.02c.32-.07.63.13.7.45l.23 1c.07.3-.13.62-.45.7-.3.07-.63-.13-.7-.45l-.22-1c-.07-.3.13-.63.44-.7zm4.48 8.93c.3-.07.6.13.7.44l.2 1c.08.32-.12.63-.43.7-.32.07-.63-.12-.7-.44l-.23-1c-.07-.3.13-.63.45-.7zm.26 11.47c0 .33-.24.6-.57.6l-1.1.04c-.3.02-.6-.24-.6-.56 0-.32.2-.6.5-.6l1-.04c.3 0 .6.24.6.56zm-2.34 7.9c0 .33-.24.6-.57.6l-1.02.05c-.32 0-.6-.24-.6-.57-.02-.32.24-.6.56-.6l1-.04c.3 0 .6.24.6.57zm-23.18-19.82c-.3-.13-.44-.47-.32-.77l.4-.9c.12-.3.46-.4.76-.3s.44.5.32.8l-.4 1c-.12.3-.46.5-.76.3zm-6.94 7.75c-.3-.12-.43-.46-.3-.76l.4-.95c.1-.3.45-.44.75-.3.3.1.44.45.32.75l-.4.95c-.12.3-.46.44-.76.3zm5.08 15.32c-.3-.12-.44-.46-.3-.76l.38-1c.12-.3.47-.5.77-.3.3.1.44.4.3.7l-.38.9c-.13.3-.47.4-.77.3zm-3.7.17c-.33.05-.63-.17-.68-.5l-.14-1c-.05-.33.18-.62.5-.67.32-.04.6.18.66.5l.14 1c.05.33-.17.63-.5.67zm-5.73-2.82c.07-.3.38-.5.7-.45l1 .2c.32.08.52.4.45.7-.06.32-.37.53-.7.46l-1-.2c-.3 0-.5-.3-.45-.7zm-3.98-1.84c-.3-.12-.44-.47-.3-.76l.38-.95c.12-.3.47-.44.76-.32.3.13.5.47.4.77l-.4.95c-.1.3-.4.44-.7.3zm20.57-18.16c.16-.28.5-.4.8-.24l.9.48c.3.15.4.5.24.8-.15.28-.5.38-.8.23l-.9-.48c-.28-.2-.4-.5-.24-.8z"/></g><path fill="#f9a436" fill-rule="nonzero" d="M74.62 70.27c-1.67-17.3-14-23.95-14-23.95l-5.6-.32h-.23l-6.2.32s-11.8 6.65-13.4 23.95c0 0 3.5 4.06 19.6 5.08v.02h.2v-.02c16-1.02 19.6-5.08 19.6-5.08z"/><path fill="#ebeae9" fill-rule="nonzero" d="M68.26 63.56C67.1 50.6 59.8 45.6 59.8 45.6l-5.08-.25h-.18l-5.07.25s-7.3 5-8.45 17.96c0 0 2.44 3.05 13.53 3.82h.17c11.1-.77 13.54-3.82 13.54-3.82z"/><clipPath id="I"><path d="M74.62 70.38c-1.67-16.93-12.97-23.44-12.97-23.44l-6.62-.32h-.22l-7.1.32s-10.8 6.5-12.4 23.44c0 0 3.6 3.97 19.6 4.97v.02h.3v-.02c16.1-1 19.6-4.97 19.6-4.97z"/></clipPath><g clip-path="url(#I)"><path fill="#161a1e" fill-rule="nonzero" d="M78.77 66.92c-15.8 7.64-31.94 7.65-47.73 0l.3-.65c15.6 7.54 31.54 7.54 47.13 0l.3.65z"/></g><clipPath id="J"><path d="M54.52 45.95H75v33.13H54.5z"/></clipPath><g fill-rule="nonzero" clip-path="url(#J)"><path fill="#f7942e" d="M55.02 75.37h-.23v-.02h-.3v-2.7h.4c6.5 0 13-1.27 19.5-3.82l-.1-.74c-6.5 2.5-12.9 3.8-19.4 3.8h-.4v-4.6h.1c11.1-.8 13.5-3.9 13.5-3.9-.9-10-5.5-15.3-7.5-17.2C62 47 72.8 53.9 74.4 70c0 0-3.55 4.05-19.6 5.07v.03z"/><path fill="#e9cfac" d="M54.72 67.4c-.03 0-.06 0-.08-.02h-.12V47.13h6.12v-.8l.15.08c2 1.9 6.5 7.2 7.4 17.2 0 0-2.5 3.1-13.6 3.8z"/><path fill="#171513" d="M54.9 72.66h-.38v-.73h.4c6.48 0 12.96-1.28 19.4-3.84.04.2.08.4.1.7-6.46 2.5-13 3.8-19.5 3.8z"/></g><path fill="#be202e" fill-rule="nonzero" d="M60.26 32.62v-6.3h-.82v5.87c-.42-.2-.87-.3-1.35-.3-1.6 0-2.9.9-3.5 2.2-.6-1.4-1.9-2.3-3.5-2.3-.8 0-1.5.2-2.1.6v-6.2h-.8v6.9c-.6.6-1 1.5-1 2.5 0 1.1.5 2.1 1.2 2.8V47h12.1v-8.6c.7-.7 1.2-1.7 1.2-2.8 0-1.3-.7-2.43-1.7-3.1z"/><path fill="#161a1e" fill-rule="nonzero" d="M56.34 37.6c0 .17-.13.3-.3.3h-2.5c-.16 0-.3-.13-.3-.3 0-.15.14-.28.3-.28h2.5c.17 0 .3.13.3.3zm0 1.82c0 .16-.13.3-.3.3h-2.5c-.16 0-.3-.14-.3-.3 0-.16.14-.3.3-.3h2.5c.17 0 .3.14.3.3zm0 1.8c0 .17-.13.3-.3.3h-2.5c-.16 0-.3-.13-.3-.3 0-.15.14-.3.3-.3h2.5c.17 0 .3.14.3.3zm0 1.8c0 .18-.13.3-.3.3h-2.5c-.16 0-.3-.12-.3-.3 0-.15.14-.3.3-.3h2.5c.17 0 .3.15.3.3zm0 1.82c0 .16-.13.3-.3.3h-2.5c-.16 0-.3-.14-.3-.3 0-.16.14-.3.3-.3h2.5c.17 0 .3.14.3.3z"/><clipPath id="K"><path d="M60.26 32.62v-6.3h-.82v5.87c-.42-.2-.87-.3-1.35-.3-1.6 0-2.9.9-3.5 2.2-.6-1.4-1.9-2.3-3.5-2.3-.8 0-1.5.2-2.1.6v-6.2h-.8v6.9c-.6.6-1 1.5-1 2.5 0 1.1.5 2.1 1.2 2.8V47h12.1v-8.6c.7-.7 1.2-1.7 1.2-2.8 0-1.3-.7-2.43-1.7-3.1z"/></clipPath><g fill-rule="nonzero" clip-path="url(#K)"><path fill="#ad1e26" d="M60.64 47.13h-6.12v-2h1.53c.16 0 .3-.13.3-.3 0-.15-.14-.28-.3-.28h-1.53v-1.22h1.53c.16 0 .3-.13.3-.3 0-.16-.14-.3-.3-.3h-1.53v-1.2h1.53c.16 0 .3-.14.3-.3 0-.16-.14-.3-.3-.3h-1.53V39.7h1.53c.16 0 .3-.12.3-.28 0-.16-.14-.3-.3-.3h-1.53V37.9h1.53c.16 0 .3-.13.3-.3 0-.15-.14-.28-.3-.28h-1.53V34l.1.2c.58-1.33 1.92-2.27 3.47-2.27.4 0 .9.1 1.3.26v-5.9h.8v6.3c1 .6 1.6 1.8 1.6 3.1 0 1.1-.5 2.1-1.3 2.8v8.6z"/><path fill="#140f14" d="M56.05 37.9h-1.53v-.58h1.53c.16 0 .3.13.3.3 0 .15-.14.28-.3.28zm0 1.8h-1.53v-.57h1.53c.16 0 .3.13.3.3 0 .15-.14.28-.3.28zm0 1.82h-1.53v-.6h1.53c.16 0 .3.14.3.3 0 .17-.14.3-.3.3zm0 1.8h-1.53v-.6h1.53c.16 0 .3.15.3.3 0 .18-.14.3-.3.3zm0 1.8h-1.53v-.57h1.53c.16 0 .3.13.3.3 0 .15-.14.28-.3.28z"/></g><path fill="#7aaa63" fill-rule="nonzero" d="M120.76 46.12l-11.4.12-11.4-.12-4.3 25.46s7.6 4.94 14.44.5V58.9s.57-.4 1.26-.42c.7.03 1.27.43 1.27.43v13.2c6.84 4.5 14.43-.5 14.43-.5l-4.3-25.4z"/><path fill="#8c6b52" fill-rule="nonzero" d="M115.88 27.76v5.94c-1.44-.73-3.82-1.22-6.52-1.22-2.7 0-5.08.5-6.52 1.22v-5.94h-1.77v23.1h1.77V37c1.44.74 3.82 1.22 6.52 1.22 2.7 0 5.08-.48 6.52-1.22v13.87h1.78v-23.1h-1.78z"/><path fill="#fff" fill-rule="nonzero" d="M102.65 35.1c0 .35-.28.64-.63.64s-.64-.3-.64-.64c0-.35.3-.63.64-.63.35 0 .63.28.63.63zm14.72 0c0 .35-.28.64-.63.64s-.63-.3-.63-.64c0-.35.3-.63.7-.63.4 0 .7.28.7.63zm-14.72 14.54c0 .35-.28.63-.63.63s-.64-.28-.64-.63.3-.64.64-.64c.35 0 .63.3.63.64zm14.72 0c0 .35-.28.63-.63.63s-.63-.28-.63-.63.3-.64.7-.64c.4 0 .7.3.7.64z"/><g transform="translate(5.602)"><clipPath id="L"><path d="M115.16 46.12l-11.4.12-11.4-.12-4.3 25.46s7.6 4.94 14.43.5V58.9s.5-.4 1.2-.42c.7.03 1.2.43 1.2.43v13.2c6.8 4.5 14.4-.5 14.4-.5L115 46.2z"/></clipPath><g fill-rule="nonzero" clip-path="url(#L)"><path fill="#699850" d="M111.35 73.93c-2.02 0-4.2-.47-6.32-1.85V58.9s-.58-.4-1.27-.42c-.06 0-.1 0-.17.02V46.24h.1l6.5-.07v4.7h1.8v-4.7l3.1-.05 4.3 25.46s-3.6 2.35-8.1 2.35z"/><path fill="#161a1e" d="M103.32 71.15c-6.3 1.3-11.06.9-17.03-1.52l.4-.96c5 2.52 10.8 3.05 16.2 1.46l.3 1.02zm18.18-1.38c-6.02 2.3-10.8 2.66-17.07 1.24l.32-1c5.36 1.7 11.22 1.3 16.28-1.2l.46 1z"/></g></g><g transform="translate(5.602)"><clipPath id="M"><path d="M110.28 27.76v5.94c-1.44-.73-3.82-1.22-6.52-1.22-2.7 0-5.08.5-6.52 1.22v-5.94h-1.78v23.1h1.78V37c1.44.74 3.82 1.22 6.52 1.22 2.7 0 5.08-.48 6.52-1.22v13.87h1.77v-23.1h-1.77z"/></clipPath><g fill-rule="nonzero" clip-path="url(#M)"><path fill="#795942" d="M110.28 46.17V37c-1.44.74-3.82 1.22-6.52 1.22h-.06v-5.74h.06c2.7 0 5.08.5 6.52 1.22v-5.94h1.77v18.4h-1.77zm.86-11.7c-.35 0-.64.28-.64.63s.3.64.64.64c.35 0 .63-.3.63-.64 0-.35-.28-.63-.63-.63z"/><path fill="#d9cdc4" d="M111.14 35.74c-.35 0-.64-.3-.64-.64 0-.35.3-.63.64-.63.35 0 .63.28.63.63s-.28.64-.63.64z"/><path fill="#654e34" d="M112.05 50.87h-1.77v-4.7l1.77-.02v4.72zm-.9-1.87c-.36 0-.65.3-.65.64 0 .35.3.63.64.63.35 0 .63-.28.63-.63s-.28-.64-.63-.64z"/><path fill="#b2b69e" d="M111.14 50.27c-.35 0-.64-.28-.64-.63s.3-.64.64-.64c.35 0 .63.3.63.64 0 .35-.28.63-.63.63z"/></g></g><path fill-rule="nonzero" d="M298.27 50.2l-2.17-1.34-.06-.63 1.86-1.74c.2-.2.28-.5.23-.7-.05-.3-.23-.5-.47-.6l-2.4-.9c-.05-.2-.1-.4-.18-.6l1.5-2.1c.14-.2.17-.5.08-.8-.1-.3-.32-.4-.58-.5l-2.5-.4c-.1-.2-.2-.4-.32-.6l1.06-2.4c.1-.3.1-.5-.06-.7-.14-.3-.4-.4-.65-.4l-2.5.1-.4-.5.6-2.5c.1-.2 0-.5-.2-.7-.2-.2-.4-.2-.7-.2l-2.5.6-.5-.4.1-2.6c0-.3-.1-.5-.3-.7-.2-.1-.5-.2-.7-.1l-2.3 1.1-.5-.3-.4-2.5c0-.3-.2-.5-.4-.6-.2-.1-.5-.1-.7 0l-2.2 1.7-.6-.2-.9-2.4c-.1-.3-.3-.4-.5-.5-.2 0-.5.1-.7.3l-1.7 1.8-.6-.1-1.3-2.2c-.1-.2-.3-.4-.6-.4s-.5.1-.6.3l-1.5 2.3h-.6l-1.7-1.9c-.2-.2-.4-.3-.7-.27-.2.04-.4.22-.5.5l-.9 2.4-.6.2-2.1-1.5c-.2-.2-.4-.2-.7-.1s-.4.3-.4.54l-.4 2.5-.6.3-2.3-1.03c-.2-.1-.5-.1-.7 0-.2.2-.3.4-.3.7l.1 2.6-.5.4-2.5-.6c-.2 0-.5.1-.7.2-.1.2-.2.5-.2.7l.6 2.5-.4.5-2.6-.1c-.2 0-.5.2-.6.4-.1.2-.2.5-.1.7l1.1 2.4-.3.6-2.5.4c-.3.1-.5.3-.6.5-.1.2-.1.5.1.7l1.5 2.1-.2.6-2.4.9c-.3.1-.4.3-.5.6 0 .27.1.5.2.7l1.9 1.75v.64l-2.2 1.3c-.2.2-.4.4-.4.7s.2.5.4.6l2.2 1.3c0 .2.1.4.1.63l-2 1.9c-.2.2-.3.5-.2.7.1.3.3.5.5.6l2.4.9c.1.2.1.4.2.6l-1.8 2c-.1.2-.1.5 0 .74.1.26.3.4.56.47l2.53.4.3.6-1.1 2.4c-.1.3 0 .6.1.8.1.2.4.4.6.4l2.6-.1.4.5-.6 2.5c0 .3 0 .5.2.7.2.2.5.3.7.2l2.5-.6.5.4-.1 2.6c0 .3.1.5.4.7.2.1.5.2.8.1l2.4-1 .6.3.4 2.5c.1.3.3.5.5.6.3.1.5.1.7-.1l2.1-1.5.6.2.9 2.4c.1.2.3.4.6.5.3.1.5 0 .7-.2l1.8-1.9.6.1 1.3 2.2c.1.2.36.3.6.3s.5-.1.6-.3l1.4-2.2h.63l1.8 1.9c.13.2.4.26.7.2.2-.1.4-.25.5-.5l.9-2.4.6-.2 2.1 1.5c.2.15.46.2.7.1s.4-.3.45-.6l.4-2.5.5-.3 2.3 1.1c.2.1.5.1.7-.1.2-.1.37-.4.36-.6l-.1-2.6.5-.4 2.5.6c.2.1.5 0 .7-.2.2-.2.23-.45.2-.7l-.6-2.5.4-.5 2.54.1c.24 0 .5-.1.6-.3.2-.2.2-.5.1-.7l-1.1-2.3.3-.55 2.5-.4c.26-.04.48-.2.57-.5.1-.2.1-.5 0-.7l-1.5-2 .2-.6 2.4-.9c.2-.1.4-.3.47-.53 0-.27-.1-.5-.3-.7l-2-1.86.1-.6 2.2-1.4c.2-.17.37-.4.37-.67s-.2-.5-.4-.7zm-14.55 18.05c-.83-.18-1.36-1-1.18-1.83.17-.83 1-1.36 1.82-1.18.83.17 1.36 1 1.18 1.82-.17.84-1 1.37-1.82 1.2zm-.74-5c-.76-.16-1.5.32-1.67 1.08l-.7 3.6c-2.4 1.08-5 1.68-7.8 1.68-2.8.1-5.5-.6-8-1.7l-.7-3.6c-.1-.7-.9-1.2-1.6-1.1l-3.1.7c-.6-.6-1.1-1.2-1.6-1.9H273c.18 0 .3 0 .3-.2v-5.5c0-.1-.12-.2-.3-.2h-4.52v-3.5h4.9c.44 0 2.38.2 3 2.6.2.8.63 3.3.92 4.1.3.9 1.47 2.7 2.74 2.7h8c-.54.7-1.12 1.4-1.76 2l-3.25-.7zm-21.4 4.92c-.84.18-1.65-.35-1.83-1.18-.18-.9.35-1.7 1.18-1.9.83-.2 1.65.3 1.83 1.2.17.8-.36 1.6-1.2 1.8zm-5.88-23.8c.35.77 0 1.68-.78 2.03-.78.34-1.68 0-2.03-.8-.4-.76 0-1.67.7-2.02.8-.34 1.7 0 2 .8zm-1.8 4.27l3.3-1.47c.72-.3 1.04-1.14.73-1.85l-.7-1.54h2.7v12.1h-5.42c-.4-1.66-.7-3.4-.7-5.2 0-.7.1-1.37.1-2.04zm14.54-1.17V43.9h6.4c.32 0 2.32.38 2.32 1.88 0 1.24-1.53 1.7-2.8 1.7h-5.92zm23.23 3.2c0 .48-.02.95-.06 1.4h-1.9c-.2 0-.2.14-.2.33v.9c0 2.1-1.2 2.55-2.2 2.67-1 .1-2.1-.4-2.2-1.02-.6-3.28-1.5-3.98-3.1-5.2 1.9-1.2 3.9-2.98 3.9-5.37 0-2.58-1.8-4.2-3-5-1.7-1.1-3.5-1.33-4-1.33h-20.1c2.8-3.05 6.4-5.2 10.6-5.98l2.4 2.48c.6.56 1.5.58 2 .05l2.7-2.54c5.6 1.04 10.3 4.5 13 9.24l-1.8 4.1c-.3.7 0 1.53.7 1.85l3.5 1.55c.1.62.1 1.24.1 1.88zm-20.07-20.7c.6-.6 1.57-.57 2.16.04.6.7.56 1.6-.05 2.2-.6.6-1.5.6-2.1 0-.6-.6-.5-1.6.1-2.2zm18 14.5c.33-.8 1.24-1.15 2.02-.8.78.34 1.13 1.25.78 2.03-.34.77-1.25 1.12-2.03.77-.77-.34-1.12-1.25-.78-2.03z"/><defs><linearGradient id="a" x2="1" gradientUnits="userSpaceOnUse" gradientTransform="matrix(.81244 .0239 .0239 .88312 204.813 36.05)"><stop offset="0" stop-color="#f58126"/><stop offset="1" stop-color="#f58126"/></linearGradient><linearGradient id="b" x2="1" gradientUnits="userSpaceOnUse" gradientTransform="matrix(.8121 .0239 .0239 .88276 206.968 39.094)"><stop offset="0" stop-color="#f58126"/><stop offset="1" stop-color="#f58126"/></linearGradient><linearGradient id="c" x2="1" gradientUnits="userSpaceOnUse" gradientTransform="matrix(.68535 .02017 .02017 .74498 210.53 34.808)"><stop offset="0" stop-color="#f58126"/><stop offset="1" stop-color="#f58126"/></linearGradient><linearGradient id="d" x2="1" gradientUnits="userSpaceOnUse" gradientTransform="matrix(.81177 .0239 .0239 .8824 211.045 36.73)"><stop offset="0" stop-color="#f58126"/><stop offset="1" stop-color="#f58126"/></linearGradient><linearGradient id="e" x2="1" gradientUnits="userSpaceOnUse" gradientTransform="matrix(1.0686 .03145 .03145 1.1616 210.82 41.01)"><stop offset="0" stop-color="#f58126"/><stop offset="1" stop-color="#f58126"/></linearGradient><linearGradient id="f" x2="1" gradientUnits="userSpaceOnUse" gradientTransform="matrix(1.06927 .03147 .03147 1.1623 214.614 37.05)"><stop offset="0" stop-color="#f58126"/><stop offset="1" stop-color="#f58126"/></linearGradient><linearGradient id="g" x2="1" gradientUnits="userSpaceOnUse" gradientTransform="matrix(1.0696 .03148 .03148 1.16267 215.513 58.855)"><stop offset="0" stop-color="#f58126"/><stop offset="1" stop-color="#f58126"/></linearGradient><linearGradient id="h" x2="1" gradientUnits="userSpaceOnUse" gradientTransform="matrix(1.06828 .03144 .03144 1.16123 216.572 49.364)"><stop offset="0" stop-color="#f58126"/><stop offset="1" stop-color="#f58126"/></linearGradient><linearGradient id="i" x2="1" gradientUnits="userSpaceOnUse" gradientTransform="matrix(1.06828 .03144 .03144 1.16123 216.572 49.364)"><stop offset="0" stop-color="#ec6c23"/><stop offset="1" stop-color="#ec6c23"/></linearGradient><linearGradient id="j" x2="1" gradientUnits="userSpaceOnUse" gradientTransform="matrix(1.0686 .03145 .03145 1.1616 220.73 42.717)"><stop offset="0" stop-color="#ec6c23"/><stop offset="1" stop-color="#ec6c23"/></linearGradient><linearGradient id="k" x2="1" gradientUnits="userSpaceOnUse" gradientTransform="matrix(1.0696 .03148 .03148 1.16267 211.366 57.993)"><stop offset="0" stop-color="#f58126"/><stop offset="1" stop-color="#f58126"/></linearGradient><linearGradient id="l" x2="1" gradientUnits="userSpaceOnUse" gradientTransform="matrix(1.0686 .03145 .03145 1.1616 213.573 49.648)"><stop offset="0" stop-color="#f58126"/><stop offset="1" stop-color="#f58126"/></linearGradient><linearGradient id="m" x2="1" gradientUnits="userSpaceOnUse" gradientTransform="matrix(1.06927 .03147 .03147 1.1623 207.894 49.75)"><stop offset="0" stop-color="#f58126"/><stop offset="1" stop-color="#f58126"/></linearGradient><linearGradient id="n" x2="1" gradientUnits="userSpaceOnUse" gradientTransform="matrix(1.06927 .03147 .03147 1.1623 220.358 37.093)"><stop offset="0" stop-color="#ec6c23"/><stop offset="1" stop-color="#ec6c23"/></linearGradient><linearGradient id="o" x2="1" gradientUnits="userSpaceOnUse" gradientTransform="matrix(1.06894 .03146 .03146 1.16195 226.827 40.31)"><stop offset="0" stop-color="#ec6c23"/><stop offset="1" stop-color="#ec6c23"/></linearGradient><linearGradient id="p" x2="1" gradientUnits="userSpaceOnUse" gradientTransform="matrix(1.06927 .03147 .03147 1.1623 216.487 35.906)"><stop offset="0" stop-color="#f58126"/><stop offset="1" stop-color="#f58126"/></linearGradient><linearGradient id="q" x2="1" gradientUnits="userSpaceOnUse" gradientTransform="matrix(1.06927 .03147 .03147 1.1623 216.487 35.906)"><stop offset="0" stop-color="#ec6c23"/><stop offset="1" stop-color="#ec6c23"/></linearGradient><linearGradient id="r" x2="1" gradientUnits="userSpaceOnUse" gradientTransform="matrix(.42718 .01257 .01257 .46435 204.843 38.3)"><stop offset="0" stop-color="#f58126"/><stop offset="1" stop-color="#f58126"/></linearGradient><linearGradient id="s" x2="1" gradientUnits="userSpaceOnUse" gradientTransform="matrix(.42784 .0126 .0126 .46507 222.505 36.953)"><stop offset="0" stop-color="#ec6c23"/><stop offset="1" stop-color="#ec6c23"/></linearGradient><linearGradient id="t" x2="1" gradientUnits="userSpaceOnUse" gradientTransform="matrix(.42684 .01256 .01256 .46398 222.035 38.705)"><stop offset="0" stop-color="#ec6c23"/><stop offset="1" stop-color="#ec6c23"/></linearGradient><linearGradient id="u" x2="1" gradientUnits="userSpaceOnUse" gradientTransform="matrix(.42784 .0126 .0126 .46507 207.415 37.32)"><stop offset="0" stop-color="#f58126"/><stop offset="1" stop-color="#f58126"/></linearGradient><linearGradient id="v" x2="1" gradientUnits="userSpaceOnUse" gradientTransform="matrix(.4275 .01258 .01258 .4647 212.83 47.93)"><stop offset="0" stop-color="#f58126"/><stop offset="1" stop-color="#f58126"/></linearGradient><linearGradient id="w" x2="1" gradientUnits="userSpaceOnUse" gradientTransform="matrix(.42718 .01257 .01257 .46435 217.698 44.14)"><stop offset="0" stop-color="#ec6c23"/><stop offset="1" stop-color="#ec6c23"/></linearGradient><linearGradient id="x" x2="1" gradientUnits="userSpaceOnUse" gradientTransform="matrix(.4275 .01258 .01258 .4647 212.774 55.446)"><stop offset="0" stop-color="#f58126"/><stop offset="1" stop-color="#f58126"/></linearGradient><linearGradient id="y" x2="1" gradientUnits="userSpaceOnUse" gradientTransform="matrix(.42718 .01257 .01257 .46435 213.187 52.447)"><stop offset="0" stop-color="#f58126"/><stop offset="1" stop-color="#f58126"/></linearGradient><linearGradient id="z" x2="1" gradientUnits="userSpaceOnUse" gradientTransform="matrix(.42684 .01256 .01256 .46398 216.034 51.577)"><stop offset="0" stop-color="#f58126"/><stop offset="1" stop-color="#f58126"/></linearGradient><linearGradient id="A" x2="1" gradientUnits="userSpaceOnUse" gradientTransform="matrix(.4275 .01258 .01258 .4647 216.514 55.62)"><stop offset="0" stop-color="#f58126"/><stop offset="1" stop-color="#f58126"/></linearGradient><linearGradient id="B" x2="1" gradientUnits="userSpaceOnUse" gradientTransform="matrix(.4275 .01258 .01258 .4647 218.21 54.833)"><stop offset="0" stop-color="#ec6c23"/><stop offset="1" stop-color="#ec6c23"/></linearGradient><linearGradient id="C" x2="1" gradientUnits="userSpaceOnUse" gradientTransform="matrix(.42684 .01256 .01256 .46398 218.49 52.637)"><stop offset="0" stop-color="#ec6c23"/><stop offset="1" stop-color="#ec6c23"/></linearGradient><linearGradient id="D" x2="1" gradientUnits="userSpaceOnUse" gradientTransform="matrix(.42684 .01256 .01256 .46398 219.64 51.477)"><stop offset="0" stop-color="#ec6c23"/><stop offset="1" stop-color="#ec6c23"/></linearGradient><linearGradient id="E" x2="1" gradientUnits="userSpaceOnUse" gradientTransform="matrix(.42817 .0126 .0126 .46543 219.572 49.536)"><stop offset="0" stop-color="#ec6c23"/><stop offset="1" stop-color="#ec6c23"/></linearGradient><linearGradient id="F" x2="1" gradientUnits="userSpaceOnUse" gradientTransform="matrix(.42718 .01257 .01257 .46435 217.135 57.912)"><stop offset="0" stop-color="#ec6c23"/><stop offset="1" stop-color="#ec6c23"/></linearGradient><linearGradient id="G" x2="1" gradientUnits="userSpaceOnUse" gradientTransform="matrix(.4275 .01258 .01258 .4647 217.375 59.575)"><stop offset="0" stop-color="#ec6c23"/><stop offset="1" stop-color="#ec6c23"/></linearGradient><linearGradient id="H" x2="1" gradientUnits="userSpaceOnUse" gradientTransform="matrix(.42718 .01257 .01257 .46435 213.702 36.456)"><stop offset="0" stop-color="#f58126"/><stop offset="1" stop-color="#f58126"/></linearGradient></defs></svg>