<?xml version="1.0" encoding="UTF-8" standalone="no"?>
<svg
   xmlns:dc="http://purl.org/dc/elements/1.1/"
   xmlns:cc="http://creativecommons.org/ns#"
   xmlns:rdf="http://www.w3.org/1999/02/22-rdf-syntax-ns#"
   xmlns:svg="http://www.w3.org/2000/svg"
   xmlns="http://www.w3.org/2000/svg"
   xmlns:sodipodi="http://sodipodi.sourceforge.net/DTD/sodipodi-0.dtd"
   xmlns:inkscape="http://www.inkscape.org/namespaces/inkscape"
   version="1.2"
   width="274.41693"
   height="227.77081"
   viewBox="0 0 44.071369 36.58"
   id="svg2"
   inkscape:version="0.48.4 r9939"
   sodipodi:docname="treblecsharp5.svg">
  <metadata
     id="metadata34">
    <rdf:RDF>
      <cc:Work
         rdf:about="">
        <dc:format>image/svg+xml</dc:format>
        <dc:type
           rdf:resource="http://purl.org/dc/dcmitype/StillImage" />
      </cc:Work>
    </rdf:RDF>
  </metadata>
  <defs
     id="defs32" />
  <sodipodi:namedview
     pagecolor="#ffffff"
     bordercolor="#666666"
     borderopacity="1"
     objecttolerance="10"
     gridtolerance="10"
     guidetolerance="10"
     inkscape:pageopacity="0"
     inkscape:pageshadow="2"
     inkscape:window-width="728"
     inkscape:window-height="480"
     id="namedview30"
     showgrid="false"
     fit-margin-top="0"
     fit-margin-left="0"
     fit-margin-right="0"
     fit-margin-bottom="0"
     inkscape:zoom="0.22425739"
     inkscape:cx="393.28437"
     inkscape:cy="-365.42582"
     inkscape:window-x="0"
     inkscape:window-y="0"
     inkscape:window-maximized="0"
     inkscape:current-layer="svg2" />
  <!-- Page: 1/1 -->
  <text
     font-size="2.1995"
     id="text4"
     x="-42.670319"
     y="-5.1200018"
     style="font-size:10.99750042px;text-anchor:start;fill:currentColor;font-family:Century Schoolbook L">
    <tspan
       id="tspan6" />
  </text>
  <line
     x1="0.25868297"
     y1="28.879999"
     x2="43.829685"
     y2="28.879999"
     id="line8"
     style="stroke:currentColor;stroke-width:0.5;stroke-linecap:round;stroke-linejoin:round" />
  <line
     x1="0.25868297"
     y1="23.879999"
     x2="43.829685"
     y2="23.879999"
     id="line10"
     style="stroke:currentColor;stroke-width:0.5;stroke-linecap:round;stroke-linejoin:round" />
  <line
     x1="0.25868297"
     y1="18.879999"
     x2="43.829685"
     y2="18.879999"
     id="line12"
     style="stroke:currentColor;stroke-width:0.5;stroke-linecap:round;stroke-linejoin:round" />
  <line
     x1="0.25868297"
     y1="13.879998"
     x2="43.829685"
     y2="13.879998"
     id="line14"
     style="stroke:currentColor;stroke-width:0.5;stroke-linecap:round;stroke-linejoin:round" />
  <line
     x1="0.25868297"
     y1="8.8799982"
     x2="43.829685"
     y2="8.8799982"
     id="line16"
     style="stroke:currentColor;stroke-width:0.5;stroke-linecap:round;stroke-linejoin:round" />
  <path
     d="m 26.078683,22.619998 c 0,0.2 -0.16,0.38 -0.36,0.38 -0.2,0 -0.38,-0.18 -0.38,-0.38 v -2.9 l -1.66,0.62 v 3.16 c 0,0.2 -0.18,0.38 -0.38,0.38 -0.2,0 -0.36,-0.18 -0.36,-0.38 v -2.9 l -0.64,0.24 c -0.04,0.02 -0.1,0.02 -0.14,0.02 -0.22,0 -0.4,-0.18 -0.4,-0.4 v -1.2 c 0,-0.16 0.1,-0.32 0.26,-0.38 l 0.92,-0.32 v -3.2 l -0.64,0.22 c -0.04,0.02 -0.1,0.02 -0.14,0.02 -0.22,0 -0.4,-0.18 -0.4,-0.4 v -1.2 c 0,-0.16 0.1,-0.3 0.26,-0.36 l 0.92,-0.34 v -3.16 c 0,-0.1999997 0.16,-0.3799997 0.36,-0.3799997 0.2,0 0.38,0.18 0.38,0.3799997 v 2.9 l 1.66,-0.62 V 9.2599983 c 0,-0.2 0.18,-0.38 0.38,-0.38 0.2,0 0.36,0.18 0.36,0.38 v 2.8999997 l 0.64,-0.24 c 0.04,-0.02 0.1,-0.02 0.14,-0.02 0.22,0 0.4,0.18 0.4,0.4 v 1.2 c 0,0.16 -0.1,0.32 -0.26,0.38 l -0.92,0.32 v 3.2 l 0.64,-0.22 c 0.04,-0.02 0.1,-0.02 0.14,-0.02 0.22,0 0.4,0.18 0.4,0.4 v 1.2 c 0,0.16 -0.1,0.3 -0.26,0.36 l -0.92,0.34 v 3.16 z m -2.4,-7.54 v 3.2 l 1.66,-0.6 v -3.2 z"
     id="path18"
     inkscape:connector-curvature="0"
     style="fill:currentColor" />
  <path
     d="m 11.528683,18.639998 c 0.08,0 0.18,-0.02 0.26,-0.02 3.1,0 5.12,2.56 5.12,5.22 0,1.52 -0.66,3.08 -2.14,4.2 -0.44,0.34 -0.94,0.56 -1.46,0.72 0.06,0.7 0.1,1.4 0.1,2.1 0,0.38 -0.02,0.78 -0.04,1.16 -0.14,2.4 -1.8,4.56 -4.16,4.56 -2.16,0 -3.9,-1.76 -3.9,-3.94 0,-1.16 1.06,-2.06 2.24,-2.06 1.08,0 1.9,0.94 1.9,2.06 0,1.04 -0.86,1.9 -1.9,1.9 -0.22,0 -0.42,-0.04 -0.62,-0.12 0.52,0.78 1.36,1.3 2.34,1.3 1.92,0 3.14,-1.84 3.26,-3.82 0.02,-0.36 0.04,-0.74 0.04,-1.1 0,-0.62 -0.02,-1.22 -0.08,-1.84 -0.58,0.1 -1.16,0.16 -1.78,0.16 -3.76,0 -6.66,-3.44 -6.66,-7.48 0,-3.54 2.62,-6.12 4.96,-8.82 -0.38,-1.24 -0.74,-2.5 -0.9,-3.7999997 -0.12,-1.04 -0.14,-2.08 -0.14,-3.12 0,-2.3 1.1,-4.48 2.98,-5.84000004 0.06,-0.04 0.14,-0.059999996886 0.2,-0.059999996886 0.08,0 0.14,0 0.2,0.059999996886 1.42,1.68000004 2.66,4.90000004 2.66,7.16000004 0,2.8599997 -1.72,5.0999997 -3.6,7.2799997 0.42,1.36 0.78,2.76 1.12,4.14 z m 1.7,9.3 c 1.36,-0.48 2.26,-1.9 2.26,-3.28 0,-1.8 -1.32,-3.58 -3.46,-3.8 0.48,2.32 0.92,4.62 1.2,7.08 z m -7.74,-4.62 c 0,2.7 2.58,4.94 5.28,4.94 0.56,0 1.1,-0.04 1.64,-0.12 -0.28,-2.54 -0.74,-4.9 -1.26,-7.28 -1.58,0.16 -2.48,1.22 -2.48,2.38 0,0.88 0.5,1.82 1.62,2.46 0.1,0.1 0.14,0.2 0.14,0.3 0,0.22 -0.2,0.44 -0.44,0.44 -0.06,0 -0.12,-0.02 -0.18,-0.04 -1.6,-0.86 -2.34,-2.3 -2.34,-3.7 0,-1.76 1.16,-3.48 3.2,-3.94 -0.28,-1.16 -0.58,-2.34 -0.92,-3.5 -2.14,2.42 -4.26,4.86 -4.26,8.06 z m 6.68,-20.3399997 c -1.98,0.96 -3.24,2.98 -3.24,5.18 0,1.48 0.36,2.6599997 0.72,3.8799997 1.6,-1.94 2.92,-3.9599997 2.92,-6.4799997 0,-1.1 -0.08,-1.58 -0.4,-2.58 z"
     id="path20"
     inkscape:connector-curvature="0"
     style="fill:currentColor" />
  <path
     d="m 33.408683,13.619998 c 1.12,0 2.18,0.58 2.18,1.82 0,1.44 -1.12,2.42 -2.06,2.98 -0.72,0.42 -1.52,0.72 -2.34,0.72 -1.12,0 -2.18,-0.58 -2.18,-1.82 0,-1.44 1.12,-2.42 2.06,-2.98 0.72,-0.42 1.52,-0.72 2.34,-0.72 z"
     id="path22"
     inkscape:connector-curvature="0"
     style="fill:currentColor" />
  <rect
     x="29.008682"
     y="17.318998"
     width="0.64999998"
     height="16.561001"
     ry="0.19999999"
     id="rect24"
     style="fill:currentColor" />
  <text
     font-size="2.1995"
     id="text26"
     x="227.63069"
     y="808.62848"
     style="font-size:10.99750042px;text-anchor:start;fill:currentColor;font-family:Century Schoolbook L">
    <tspan
       id="tspan28" />
  </text>
</svg>
