<svg height="347.31448" viewBox="0 0 617.66901 347.28572" width="617" xmlns="http://www.w3.org/2000/svg" xmlns:xlink="http://www.w3.org/1999/xlink"><linearGradient id="a" gradientUnits="userSpaceOnUse" x1="30.846041" x2="576.52759" y1="-315.71518" y2="-315.71518"><stop offset="0" stop-color="#435e9b"/><stop offset="1" stop-color="#9e4f95"/></linearGradient><g transform="matrix(.66021065 0 0 .66021065 141.86123 392.31591)"><g transform="matrix(.65430205 0 0 -.65430205 -1046.7232 624.40656)"><path d="m1410 1410c-3.16 0-6.19 1.16-8.55 3.27l-13.1 11.8c-2.55 2.27-4.06 5.41-4.25 8.82-.2 3.43.96 6.73 3.25 9.28l140 156c2.43 2.71 5.91 4.27 9.55 4.27 3.17 0 6.21-1.16 8.57-3.27l13.1-11.8c2.56-2.29 4.07-5.44 4.26-8.87.18-3.42-.98-6.7-3.26-9.24l-140-156c-2.43-2.71-5.92-4.27-9.57-4.27" fill="#fff"/><g fill="#4747a5"><path d="m1540 1610c-4.21 0-8.24-1.8-11-4.94l-140-156c-2.66-2.96-3.99-6.78-3.77-10.7.22-3.95 1.97-7.58 4.92-10.2l13.1-11.7c2.73-2.44 6.24-3.78 9.89-3.78 4.22 0 8.25 1.8 11.1 4.94l140 156c2.64 2.94 3.98 6.74 3.76 10.7-.21 3.96-1.96 7.6-4.92 10.3l-13.1 11.7c-2.73 2.45-6.25 3.79-9.91 3.79zm0-4.02c2.58 0 5.16-.914 7.23-2.76l13.1-11.7c4.46-4 4.83-10.8.84-15.3l-140-156c-2.14-2.39-5.1-3.6-8.07-3.6-2.57 0-5.14.911-7.21 2.76l-13.1 11.8c-4.46 3.98-4.83 10.8-.84 15.3l140 156c2.13 2.39 5.08 3.6 8.05 3.6"/><path d="m1430 1430-18-20.1-13.2 47.8 18 20.1z"/><path d="m1470 1470-18-20.1-13.2 47.8 18 20.1z"/><path d="m1510 1520-18-20.1-13.2 47.8 18 20.1z"/><path d="m1550 1560-18-20.1-13.2 47.8 18 20 13.2-47.8"/><path d="m1410 1410 58.5-117c4.27-8.52 14.6-12 23.2-7.69l171 85.5c8.53 4.28 12 14.6 7.7 23.2l-58.5 117-202-101"/></g><path d="m1420 1380c-.21 0-.43.033-.63.103-.51.168-.93.531-1.17 1l-14.7 29.4c-.5.992-.1 2.2.89 2.7l201 101c.28.144.59.214.9.214.21 0 .42-.033.63-.103.51-.169.92-.531 1.16-1l14.7-29.4c.49-.992.09-2.2-.9-2.7l-201-101c-.28-.143-.59-.213-.9-.213" fill="#fff"/><g fill="#4747a5"><path d="m1610 1520c-.62 0-1.24-.144-1.81-.424l-201-101c-1.98-.997-2.78-3.41-1.79-5.4l14.7-29.4c.48-.956 1.31-1.68 2.32-2.02.42-.14.85-.205 1.27-.205.62 0 1.24.144 1.8.428l201 101c1.99.993 2.79 3.41 1.79 5.39l-14.7 29.4c-.48.956-1.31 1.68-2.33 2.01-.41.14-.84.206-1.26.206zm0-4.02 14.7-29.4-201-101-14.7 29.4z"/><path d="m1450 1390-24.9-12.5 8.56 44.9 24.9 12.5-8.54-44.9"/><path d="m1500 1420-24.9-12.5 8.56 44.9 24.9 12.5-8.55-44.9"/><path d="m1550 1450-24.9-12.5 8.57 44.9 24.9 12.5-8.56-44.9"/><path d="m1600 1470-24.9-12.5 8.57 44.9 24.9 12.5z"/></g><path d="m1620 1380-103-51.4-30.4 60.7 103 51.4z" fill="#fff"/></g><g stroke="#fff"><text style="font-size:211.810745;font-family:sans-serif;letter-spacing:0;word-spacing:0;stroke-width:5.295269;fill:url(#a)" x="44.353111" y="-252.21333"><tspan fill="url(#a)" font-family="Lemon Juice" font-size="211.81073" stroke="#fff" stroke-width="5.295269" x="44.353111" y="-252.21333">timelapse</tspan></text><path d="m627.42175-369.32391-20.05959-27.51762-12.07179 32.2989 5.27363-33.64216-31.37482 14.30273 27.51761-20.05958-32.2989-12.07179 33.64216 5.27362-14.30273-31.37481 20.05958 27.51761 12.07179-32.2989-5.27362 33.64216 31.37482-14.30273-27.51762 20.05958 32.29891 12.07179-33.64216-5.27362z" fill="#935196" stroke-linecap="square" stroke-width="1.001084"/><path d="m525.15776-412.35213-11.1803-15.33706-6.72826 18.00194 2.93928-18.75061-17.4869 7.97169 15.33707-11.1803-18.00194-6.72826 18.75061 2.93927-7.97169-17.48689 11.1803 15.33707 6.72826-18.00194-2.93928 18.7506 17.4869-7.97168-15.33707 11.18029 18.00194 6.72827-18.75061-2.93928z" fill="#935196" stroke-linecap="square" stroke-width=".557959" transform="matrix(.8660254 -.5 .5 .8660254 369.548785 286.13942)"/></g></g></svg>