<?xml version="1.0" encoding="UTF-8" standalone="no"?><!DOCTYPE svg PUBLIC "-//W3C//DTD SVG 1.1//EN" "http://www.w3.org/Graphics/SVG/1.1/DTD/svg11.dtd"><svg width="100%" height="100%" viewBox="0 0 1232 563" version="1.1" xmlns="http://www.w3.org/2000/svg" xmlns:xlink="http://www.w3.org/1999/xlink" xml:space="preserve" style="fill-rule:evenodd;clip-rule:evenodd;stroke-linejoin:round;stroke-miterlimit:1.41421;"><g><rect x="31.746" y="97.114" width="1199.38" height="20.19" style="fill:#bdbec0;fill-rule:nonzero;"/><path d="M187.769,132.167c-0.573,0 -1.036,-0.463 -1.036,-1.035l0,-11.116c0,-0.495 0.353,-0.921 0.838,-1.016c0.423,-0.083 10.366,-2.156 10.366,-12.788c0,-8.157 -9.14,-10.091 -12.27,-10.51l0,0.829c0,0.572 -0.464,1.036 -1.036,1.036c-0.573,0 -1.036,-0.464 -1.036,-1.036l0,-1.972c0,-0.572 0.463,-1.036 1.036,-1.036c0.154,0 15.378,0.946 15.378,12.689c0,10.421 -8.468,13.787 -11.205,14.603l0,10.317c0,0.572 -0.463,1.035 -1.035,1.035Z" style="fill:#58595c;fill-rule:nonzero;"/><path d="M160.651,136.078l54.234,0l-27.117,32.064l-27.117,-32.064Z" style="fill:#0d5166;fill-rule:nonzero;"/><path d="M327.687,254.17l-38.39,-68.939c-2.867,-5.735 -7.605,-10.32 -13.431,-12.998l-52.718,-24.23l-30.558,35.413l-4.822,-15.274l-4.817,15.279l-30.563,-35.418l-52.718,24.23c-5.826,2.678 -10.563,7.263 -13.431,12.998l-38.39,68.939l47.042,25.933l14.474,-26.536l-13.268,154.393c0,0 39.202,13.268 91.671,13.268c52.47,0 91.671,-13.268 91.671,-13.268l-13.268,-154.393l14.474,26.536l47.042,-25.933Z" style="fill:#0b5b79;fill-rule:nonzero;"/><path d="M86.239,185.231l-38.39,68.939l47.042,25.933l14.474,-26.536c5.958,-35.801 -9.695,-81.334 -9.695,-81.334c-5.825,2.678 -10.563,7.263 -13.431,12.998Z" style="fill:#40a4bc;fill-rule:nonzero;"/><path d="M289.297,185.231l38.39,68.939l-47.042,25.933l-14.474,-26.536c-5.958,-35.801 9.695,-81.334 9.695,-81.334c5.826,2.678 10.564,7.263 13.431,12.998Z" style="fill:#40a4bc;fill-rule:nonzero;"/><path d="M181.823,421.165c1.964,0.038 3.941,0.063 5.945,0.063c2.004,0 3.982,-0.025 5.946,-0.063l0,-239.051l-5.946,-13.972l-5.945,13.972l0,239.051Z" style="fill:#40a4bc;fill-rule:nonzero;"/><path d="M193.714,183.416l29.434,-35.413l-8.263,-11.925l-27.117,32.064l5.946,15.274Z" style="fill:#084251;fill-rule:nonzero;"/><path d="M181.823,183.416l5.945,-15.274l-27.117,-32.064l-8.263,11.925l29.435,35.413Z" style="fill:#084251;fill-rule:nonzero;"/><path d="M209.054,142.973l2.776,-3.282l-22.813,-10.549c-0.549,-0.254 -1.179,-0.257 -1.727,-0.005l-23.482,10.673l2.779,3.287l21.553,-9.795l20.914,9.671Z" style="fill:#58595c;fill-rule:nonzero;"/><path d="M346.977,132.166c-0.572,0 -1.036,-0.463 -1.036,-1.035l0,-11.116c0,-0.495 0.353,-0.921 0.839,-1.016c0.423,-0.083 10.366,-2.155 10.366,-12.787c0,-8.157 -9.139,-10.091 -12.27,-10.51l0,0.829c0,0.572 -0.463,1.036 -1.036,1.036c-0.572,0 -1.036,-0.464 -1.036,-1.036l0,-1.972c0,-0.572 0.464,-1.036 1.036,-1.036c0.154,0 15.378,0.946 15.378,12.689c0,10.421 -8.469,13.787 -11.205,14.602l0,10.317c0,0.572 -0.463,1.035 -1.036,1.035Z" style="fill:#58595c;fill-rule:nonzero;"/><path d="M264.887,148.901l164.181,0l-10.431,25.682l-143.319,8.986l-10.431,-34.668Z" style="fill:#897e72;fill-rule:nonzero;"/><path d="M429.068,148.901l-17.432,3.709c-42.629,9.07 -86.688,9.07 -129.317,0l-17.432,-3.709l-35.805,201.733l87.33,11.353l30.566,-94.317l30.565,94.317l87.33,-11.353l-35.805,-201.733Z" style="fill:#aa9e93;fill-rule:nonzero;"/><path d="M278.148,169.907l1.669,-17.829l-14.93,-3.177l-9.95,56.059c0,0 19.041,-17.756 23.211,-35.053Z" style="fill:#776f67;fill-rule:nonzero;"/><path d="M415.807,169.907l-1.669,-17.829l14.93,-3.177l9.95,56.059c0,0 -19.04,-17.756 -23.211,-35.053Z" style="fill:#776f67;fill-rule:nonzero;"/><path d="M278.148,169.907c45.379,9.655 92.28,9.655 137.659,0l16.371,-3.483l-3.11,-17.523l-17.432,3.709c-42.629,9.07 -86.688,9.07 -129.317,0l-17.432,-3.709l-3.11,17.523l16.371,3.483Z" style="fill:#414043;fill-rule:nonzero;"/><path d="M321.145,347.383l-89.302,-12.308l-2.761,15.559l87.33,11.353l5.143,-15.871l-0.41,1.267Z" style="fill:#414043;fill-rule:nonzero;"/><path d="M372.81,347.383l89.302,-12.308l2.761,15.559l-87.33,11.353l-5.143,-15.871l0.41,1.267Z" style="fill:#414043;fill-rule:nonzero;"/><path d="M358.675,240.647c-0.955,0 -1.798,-0.696 -1.952,-1.672c-0.221,-1.417 -5.463,-34.834 -6.449,-46.153c-0.603,-6.933 -2.485,-13.752 -3.8,-17.848c-2.447,4.457 -6.332,13.095 -7.6,24.816c-1.967,18.188 -3.429,25.599 -3.49,25.906c-0.217,1.075 -1.272,1.769 -2.328,1.552c-1.074,-0.214 -1.766,-1.256 -1.554,-2.329c0.016,-0.073 1.493,-7.586 3.437,-25.554c2.014,-18.629 10.105,-29.701 10.449,-30.163c0.429,-0.576 1.121,-0.881 1.852,-0.781c0.711,0.095 1.314,0.569 1.581,1.237c0.178,0.457 4.395,11.286 5.396,22.82c0.975,11.183 6.364,45.536 6.418,45.882c0.17,1.081 -0.569,2.093 -1.651,2.264c-0.101,0.015 -0.205,0.023 -0.309,0.023Z" style="fill:#414043;fill-rule:nonzero;"/><path d="M337.736,225.308c0,2.37 -1.922,4.292 -4.293,4.292c-2.371,0 -4.292,-1.922 -4.292,-4.292c0,-2.371 1.921,-4.293 4.292,-4.293c2.371,0 4.293,1.922 4.293,4.293Z" style="fill:#414043;fill-rule:nonzero;"/><path d="M363.033,238.731c0,2.371 -1.922,4.292 -4.292,4.292c-2.371,0 -4.293,-1.921 -4.293,-4.292c0,-2.371 1.922,-4.292 4.293,-4.292c2.37,0 4.292,1.921 4.292,4.292Z" style="fill:#414043;fill-rule:nonzero;"/><path d="M298.493,155.604l48.748,-22.194l48.19,22.199c1.882,-0.297 3.759,-0.633 5.637,-0.965c-0.116,-0.643 -0.497,-1.229 -1.135,-1.523l-51.82,-23.872c-0.548,-0.252 -1.177,-0.256 -1.726,-0.004l-52.431,23.872c-0.639,0.291 -1.023,0.874 -1.141,1.515c1.891,0.335 3.782,0.673 5.678,0.972Z" style="fill:#58595c;fill-rule:nonzero;"/><path d="M465.916,154.173c-0.789,0 -1.547,-0.438 -1.918,-1.195c-0.516,-1.058 -0.079,-2.335 0.979,-2.852l38.874,-19.028c0.596,-0.295 1.293,-0.291 1.885,0.005l38.321,19.028c1.057,0.524 1.487,1.803 0.963,2.858c-0.525,1.055 -1.806,1.489 -2.857,0.961l-37.381,-18.56l-37.931,18.566c-0.302,0.147 -0.62,0.217 -0.935,0.217Z" style="fill:#58595c;fill-rule:nonzero;"/><path d="M504.511,134.079c-0.589,0 -1.066,-0.477 -1.066,-1.066l0,-11.441c0,-0.511 0.362,-0.949 0.862,-1.047c0.437,-0.085 10.673,-2.219 10.673,-13.162c0,-8.396 -9.409,-10.388 -12.631,-10.819l0,0.854c0,0.589 -0.476,1.066 -1.066,1.066c-0.589,0 -1.066,-0.477 -1.066,-1.066l0,-2.031c0,-0.589 0.477,-1.066 1.066,-1.066c0.158,0 15.829,0.974 15.829,13.062c0,10.726 -8.717,14.191 -11.535,15.03l0,10.62c0,0.589 -0.477,1.066 -1.066,1.066Z" style="fill:#58595c;fill-rule:nonzero;"/><path d="M609.259,295.224c-4.203,-43.823 -13.112,-82.941 -18.783,-104.794c-2.991,-11.523 -10.646,-21.268 -21.162,-26.848l-27.443,-14.561c-7.051,13.446 -21.123,22.633 -37.359,22.633c-16.236,0 -30.308,-9.187 -37.359,-22.633l-27.443,14.561c-10.516,5.58 -18.171,15.325 -21.162,26.848c-5.671,21.853 -14.58,60.971 -18.783,104.794c-6.432,67.075 -12.863,130.474 -12.863,130.474l32.159,0l15.62,-120.366l0,120.366l139.662,0l0,-120.366l15.62,120.366l32.159,0c0,0 -6.432,-63.399 -12.863,-130.474Z" style="fill:#fbc949;fill-rule:nonzero;"/><path d="M424.376,177.508c-2.615,3.92 -4.619,8.264 -5.828,12.922c-5.671,21.853 -14.58,60.971 -18.783,104.794c-6.432,67.075 -12.863,130.474 -12.863,130.474l32.159,0l15.62,-120.366c8.283,-63.831 -10.099,-127.114 -10.305,-127.824Z" style="fill:#ecb23d;fill-rule:nonzero;"/><path d="M584.648,177.508c2.615,3.92 4.619,8.264 5.828,12.922c5.671,21.853 14.58,60.971 18.783,104.794c6.431,67.075 12.863,130.474 12.863,130.474l-32.159,0l-15.62,-120.366c-8.283,-63.831 10.098,-127.114 10.305,-127.824Z" style="fill:#ecb23d;fill-rule:nonzero;"/><path d="M541.494,149.021l-3.676,-15.784c0,0 -9.971,27.435 -33.306,27.435c-23.336,0 -33.307,-27.435 -33.307,-27.435l-3.675,15.784c0,0 -0.038,0.201 -0.093,0.499c7.136,13.17 21.044,22.134 37.075,22.134c16.031,0 29.939,-8.964 37.075,-22.134c-0.055,-0.298 -0.093,-0.499 -0.093,-0.499Z" style="fill:#ecb23d;fill-rule:nonzero;"/><rect x="434.681" y="406.403" width="139.662" height="19.295" style="fill:#ecb23d;fill-rule:nonzero;"/><path d="M750.059,147.317l-75.813,0l-75.813,0c0,0 -51.636,285.182 -51.636,348.276l75.712,13.877l6.281,-48.148c7.823,-59.98 21.56,-119.028 41.004,-176.282c1.432,-4.217 7.472,-4.217 8.904,0c19.443,57.254 33.18,116.302 41.004,176.282l6.28,48.148l75.712,-13.877c0,-63.094 -51.635,-348.276 -51.635,-348.276Z" style="fill:#bc8b32;fill-rule:nonzero;"/><path d="M605.078,174.719l-2.795,-0.501l0.662,-3.716l2.795,0.503l-0.662,3.714Z" style="fill:#5a4117;fill-rule:nonzero;"/><path d="M602.47,189.491l-2.795,-0.491l1.305,-7.403l2.797,0.491l-1.307,7.403Zm-2.59,14.805l-2.798,-0.488l1.294,-7.403l2.796,0.488l-1.292,7.403Zm-2.571,14.802l-2.798,-0.484l1.282,-7.403l2.799,0.484l-1.283,7.403Zm-2.551,14.806l-2.798,-0.482l1.273,-7.404l2.799,0.481l-1.274,7.405Zm-2.528,14.804l-2.799,-0.477l1.263,-7.405l2.798,0.477l-1.262,7.405Zm-2.503,14.808l-2.799,-0.473l1.25,-7.405l2.798,0.473l-1.249,7.405Zm-2.477,14.81l-2.802,-0.466l1.238,-7.409l2.799,0.47l-1.235,7.405Zm-2.457,14.813l-2.802,-0.462l1.226,-7.409l2.802,0.463l-1.226,7.408Zm-2.43,14.819l-2.803,-0.458l1.213,-7.411l2.802,0.459l-1.212,7.41Zm-2.392,14.806l-2.802,-0.451l1.192,-7.399l2.802,0.451l-1.192,7.399Zm-2.368,14.834l-2.806,-0.444l1.183,-7.427l2.802,0.447l-1.179,7.424Zm-2.333,14.854l-2.806,-0.44l1.161,-7.418l2.806,0.44l-1.161,7.418Zm-2.288,14.839l-2.806,-0.429l1.139,-7.423l2.805,0.433l-1.138,7.419Zm-2.242,14.843l-2.81,-0.418l1.117,-7.428l2.805,0.425l-1.112,7.421Zm-2.187,14.854l-2.81,-0.406l1.087,-7.435l2.81,0.414l-1.087,7.427Zm-2.124,14.864l-2.813,-0.396l1.055,-7.44l2.81,0.403l-1.052,7.433Zm-2.046,14.868l-2.813,-0.377l1.013,-7.449l2.813,0.388l-1.013,7.438Zm-1.948,14.886l-2.817,-0.359l0.963,-7.454l2.813,0.369l-0.959,7.444Zm-1.817,14.898l-2.821,-0.329c0.283,-2.434 0.582,-4.926 0.893,-7.466l2.817,0.344c-0.309,2.536 -0.607,5.021 -0.889,7.451Zm-1.64,14.915l-2.824,-0.288c0.245,-2.42 0.51,-4.915 0.794,-7.482l2.821,0.31c-0.281,2.56 -0.545,5.048 -0.791,7.46Zm-1.351,14.934l-2.833,-0.218c0.185,-2.386 0.396,-4.891 0.635,-7.507l2.828,0.259c-0.238,2.601 -0.449,5.091 -0.63,7.466Z" style="fill:#5a4117;fill-rule:nonzero;"/><path d="M556.954,497.231l-2.835,-0.122c0.05,-1.211 0.114,-2.475 0.188,-3.787l2.836,0.159c-0.074,1.301 -0.137,2.55 -0.189,3.75Z" style="fill:#5a4117;fill-rule:nonzero;"/><path d="M743.413,174.719l2.795,-0.501l-0.662,-3.716l-2.795,0.503l0.662,3.714Z" style="fill:#5a4117;fill-rule:nonzero;"/><path d="M744.714,182.088l2.797,-0.491l1.305,7.403l-2.795,0.491l-1.307,-7.403Zm2.605,14.805l2.796,-0.488l1.294,7.403l-2.798,0.488l-1.292,-7.403Zm2.58,14.802l2.799,-0.484l1.283,7.403l-2.799,0.484l-1.283,-7.403Zm2.56,14.804l2.799,-0.481l1.273,7.404l-2.798,0.482l-1.274,-7.405Zm2.54,14.804l2.799,-0.477l1.262,7.405l-2.798,0.477l-1.263,-7.405Zm2.516,14.808l2.798,-0.473l1.25,7.405l-2.799,0.473l-1.249,-7.405Zm2.491,14.81l2.799,-0.47l1.239,7.409l-2.803,0.466l-1.235,-7.405Zm2.466,14.81l2.803,-0.463l1.225,7.409l-2.802,0.462l-1.226,-7.408Zm2.444,14.817l2.802,-0.459l1.213,7.411l-2.802,0.458l-1.213,-7.41Zm2.412,14.817l2.802,-0.451l1.193,7.399l-2.803,0.451l-1.192,-7.399Zm2.381,14.809l2.802,-0.447l1.183,7.427l-2.806,0.444l-1.179,-7.424Zm2.351,14.86l2.806,-0.44l1.161,7.418l-2.806,0.44l-1.161,-7.418Zm2.311,14.838l2.806,-0.433l1.138,7.423l-2.806,0.429l-1.138,-7.419Zm2.268,14.841l2.806,-0.425l1.116,7.428l-2.809,0.418l-1.113,-7.421Zm2.212,14.848l2.81,-0.414l1.087,7.435l-2.81,0.406l-1.087,-7.427Zm2.159,14.858l2.81,-0.403l1.055,7.44l-2.813,0.396l-1.052,-7.433Zm2.085,14.863l2.814,-0.388l1.013,7.449l-2.814,0.377l-1.013,-7.438Zm2.002,14.88l2.814,-0.369l0.963,7.454l-2.817,0.359l-0.96,-7.444Zm1.887,14.891l2.818,-0.344c0.31,2.54 0.609,5.032 0.892,7.466l-2.82,0.329c-0.283,-2.43 -0.581,-4.915 -0.89,-7.451Zm1.738,14.906l2.821,-0.31c0.284,2.567 0.549,5.062 0.795,7.482l-2.825,0.288c-0.246,-2.412 -0.51,-4.9 -0.791,-7.46Zm1.512,14.928l2.828,-0.259c0.239,2.616 0.449,5.121 0.634,7.507l-2.832,0.218c-0.181,-2.375 -0.391,-4.865 -0.63,-7.466Z" style="fill:#5a4117;fill-rule:nonzero;"/><path d="M791.537,497.231l2.836,-0.122c-0.052,-1.211 -0.115,-2.475 -0.189,-3.787l-2.835,0.159c0.074,1.301 0.136,2.55 0.188,3.75Z" style="fill:#5a4117;fill-rule:nonzero;"/><path d="M598.433,147.317c0,0 21.552,20.505 75.813,20.505c54.26,0 75.813,-20.505 75.813,-20.505l-151.626,0Z" style="fill:#cca96f;fill-rule:nonzero;"/><path d="M750.059,147.317c0,0 -21.553,20.505 -75.813,20.505c-54.261,0 -75.813,-20.505 -75.813,-20.505c0,0 -1.245,6.873 -3.345,18.706c17.423,9.819 43.27,18.97 79.158,18.97c35.887,0 61.734,-9.151 79.157,-18.97c-2.1,-11.833 -3.344,-18.706 -3.344,-18.706Z" style="fill:#5a4117;fill-rule:nonzero;"/><rect x="672.827" y="184.994" width="2.84" height="3.786" style="fill:#5a4117;fill-rule:nonzero;"/><path d="M675.667,205.774l-2.84,0l0,-8.497l2.84,0l0,8.497Zm0,16.999l-2.84,0l0,-8.5l2.84,0l0,8.5Zm0,16.994l-2.84,0l0,-8.497l2.84,0l0,8.497Z" style="fill:#5a4117;fill-rule:nonzero;"/><path d="M678.032,253.472l-5.205,0l0,-5.206l2.84,0l0,2.366l2.365,0l0,2.84Z" style="fill:#5a4117;fill-rule:nonzero;"/><path d="M696.487,205.235l-2.839,0l0,-8.207l2.839,0l0,8.207Zm0,16.416l-2.839,0l0,-8.207l2.839,0l0,8.207Zm-1.874,16.569l-2.78,-0.588c0.51,-2.414 0.943,-5.096 1.287,-7.97l2.817,0.336c-0.352,2.958 -0.799,5.723 -1.324,8.222Zm-7.412,15.252l-0.961,0l-0.011,-2.69c0,0 0.003,-0.002 0.011,-0.007l0,-0.143l0.177,0c0.477,-0.417 1.8,-1.804 3.213,-5.362l2.639,1.046c-2.174,5.485 -4.355,6.799 -4.769,7.006l-0.299,0.15Z" style="fill:#5a4117;fill-rule:nonzero;"/><rect x="693.648" y="184.994" width="2.839" height="3.786" style="fill:#5a4117;fill-rule:nonzero;"/><path d="M674.248,132.377c-0.573,0 -1.036,-0.463 -1.036,-1.035l0,-11.116c0,-0.495 0.352,-0.921 0.838,-1.016c0.424,-0.083 10.366,-2.156 10.366,-12.788c0,-8.157 -9.14,-10.091 -12.27,-10.51l0,0.829c0,0.572 -0.463,1.036 -1.036,1.036c-0.573,0 -1.036,-0.464 -1.036,-1.036l0,-1.972c0,-0.572 0.463,-1.036 1.036,-1.036c0.154,0 15.378,0.946 15.378,12.689c0,10.421 -8.469,13.787 -11.204,14.603l0,10.317c0,0.572 -0.464,1.035 -1.036,1.035Z" style="fill:#58595c;fill-rule:nonzero;"/><path d="M618.659,158.645l55.852,-25.031l55.331,25.027c1.618,-0.629 3.13,-1.262 4.541,-1.892c-0.198,-0.454 -0.543,-0.847 -1.029,-1.067l-57.985,-26.228c-0.543,-0.246 -1.164,-0.245 -1.702,-0.003l-58.523,26.228c-0.49,0.22 -0.838,0.613 -1.036,1.069c1.414,0.632 2.929,1.267 4.551,1.897Z" style="fill:#58595c;fill-rule:nonzero;"/><path d="M806.702,151.689c-0.767,0 -1.503,-0.426 -1.862,-1.162c-0.504,-1.027 -0.078,-2.267 0.949,-2.77l37.768,-18.486c0.578,-0.285 1.255,-0.281 1.832,0.005l37.229,18.486c1.025,0.509 1.443,1.752 0.934,2.777c-0.508,1.022 -1.749,1.445 -2.777,0.933l-36.314,-18.031l-36.851,18.036c-0.292,0.144 -0.603,0.212 -0.908,0.212Z" style="fill:#58595c;fill-rule:nonzero;"/><path d="M844.199,132.167c-0.573,0 -1.036,-0.463 -1.036,-1.035l0,-11.116c0,-0.495 0.353,-0.921 0.839,-1.016c0.422,-0.083 10.365,-2.156 10.365,-12.788c0,-8.158 -9.139,-10.091 -12.27,-10.51l0,0.829c0,0.572 -0.464,1.036 -1.036,1.036c-0.573,0 -1.036,-0.464 -1.036,-1.036l0,-1.972c0,-0.572 0.463,-1.036 1.036,-1.036c0.154,0 15.378,0.946 15.378,12.689c0,10.421 -8.468,13.787 -11.204,14.603l0,10.317c0,0.572 -0.464,1.035 -1.036,1.035Z" style="fill:#58595c;fill-rule:nonzero;"/><path d="M945.737,180.228c-2.867,-5.735 -7.605,-10.32 -13.431,-12.998l-51.843,-23.829c-2.135,18.142 -17.539,32.224 -36.254,32.224c-18.716,0 -34.12,-14.082 -36.254,-32.224l-51.844,23.829c-5.826,2.678 -10.564,7.263 -13.431,12.998l-38.39,68.939l47.042,25.933l14.474,-26.536l0,154.445l156.805,0l0,-154.445l14.475,26.536l47.041,-25.933l-38.39,-68.939Z" style="fill:#25a9e1;fill-rule:nonzero;"/><g><clipPath id="_clip1"><path d="M807.955,143.401l-51.844,23.829c0,0 9.695,61.894 9.695,81.334l0,154.445l78.403,0l0,-227.384c-18.716,0 -34.12,-14.082 -36.254,-32.224Z"/></clipPath><g clip-path="url(#_clip1)"><rect x="745.781" y="151.309" width="98.428" height="6.87" style="fill:#1675bc;fill-rule:nonzero;"/><rect x="745.781" y="168.927" width="98.428" height="6.869" style="fill:#1675bc;fill-rule:nonzero;"/><rect x="745.781" y="186.544" width="98.428" height="6.87" style="fill:#1675bc;fill-rule:nonzero;"/><rect x="745.781" y="204.162" width="98.428" height="6.869" style="fill:#1675bc;fill-rule:nonzero;"/><rect x="745.781" y="221.779" width="98.428" height="6.87" style="fill:#1675bc;fill-rule:nonzero;"/><rect x="745.781" y="239.397" width="98.428" height="6.869" style="fill:#1675bc;fill-rule:nonzero;"/><rect x="745.781" y="257.014" width="98.428" height="6.87" style="fill:#1675bc;fill-rule:nonzero;"/><rect x="745.781" y="274.632" width="98.428" height="6.87" style="fill:#1675bc;fill-rule:nonzero;"/><rect x="745.781" y="292.249" width="98.428" height="6.87" style="fill:#1675bc;fill-rule:nonzero;"/><rect x="745.781" y="309.867" width="98.428" height="6.87" style="fill:#1675bc;fill-rule:nonzero;"/><rect x="745.781" y="327.485" width="98.428" height="6.869" style="fill:#1675bc;fill-rule:nonzero;"/><rect x="745.781" y="345.102" width="98.428" height="6.87" style="fill:#1675bc;fill-rule:nonzero;"/><rect x="745.781" y="362.72" width="98.428" height="6.869" style="fill:#1675bc;fill-rule:nonzero;"/><rect x="745.781" y="380.337" width="98.428" height="6.87" style="fill:#1675bc;fill-rule:nonzero;"/><rect x="745.781" y="397.955" width="98.428" height="6.869" style="fill:#1675bc;fill-rule:nonzero;"/></g></g><g><clipPath id="_clip2"><path d="M880.453,143.401l51.843,23.829c0,0 -9.695,61.894 -9.695,81.334l0,154.445l-78.402,0l0,-227.384c18.715,0 34.119,-14.082 36.254,-32.224Z"/></clipPath><g clip-path="url(#_clip2)"><rect x="844.199" y="151.309" width="98.427" height="6.87" style="fill:#1675bc;fill-rule:nonzero;"/><rect x="844.199" y="168.927" width="98.427" height="6.869" style="fill:#1675bc;fill-rule:nonzero;"/><rect x="844.199" y="186.544" width="98.427" height="6.87" style="fill:#1675bc;fill-rule:nonzero;"/><rect x="844.199" y="204.162" width="98.427" height="6.869" style="fill:#1675bc;fill-rule:nonzero;"/><rect x="844.199" y="221.779" width="98.427" height="6.87" style="fill:#1675bc;fill-rule:nonzero;"/><rect x="844.199" y="239.397" width="98.427" height="6.869" style="fill:#1675bc;fill-rule:nonzero;"/><rect x="844.199" y="257.014" width="98.427" height="6.87" style="fill:#1675bc;fill-rule:nonzero;"/><rect x="844.199" y="274.632" width="98.427" height="6.87" style="fill:#1675bc;fill-rule:nonzero;"/><rect x="844.199" y="292.249" width="98.427" height="6.87" style="fill:#1675bc;fill-rule:nonzero;"/><rect x="844.199" y="309.867" width="98.427" height="6.87" style="fill:#1675bc;fill-rule:nonzero;"/><rect x="844.199" y="327.485" width="98.427" height="6.869" style="fill:#1675bc;fill-rule:nonzero;"/><rect x="844.199" y="345.102" width="98.427" height="6.87" style="fill:#1675bc;fill-rule:nonzero;"/><rect x="844.199" y="362.72" width="98.427" height="6.869" style="fill:#1675bc;fill-rule:nonzero;"/><rect x="844.199" y="380.337" width="98.427" height="6.87" style="fill:#1675bc;fill-rule:nonzero;"/><rect x="844.199" y="397.955" width="98.427" height="6.869" style="fill:#1675bc;fill-rule:nonzero;"/></g></g><g><clipPath id="_clip3"><path d="M742.68,180.228l-38.39,68.939l47.042,25.933l14.474,-26.536c0,-19.44 -9.695,-81.334 -9.695,-81.334c-5.826,2.678 -10.564,7.263 -13.431,12.998Z"/></clipPath><g clip-path="url(#_clip3)"><path d="M726.9,167.23l66.894,36.914l-3.319,6.015l-66.894,-36.914l3.319,-6.015Z" style="fill:#1675bc;fill-rule:nonzero;"/><path d="M738.414,155.717l66.893,36.913l-3.319,6.015l-66.893,-36.914l3.319,-6.014Z" style="fill:#1675bc;fill-rule:nonzero;"/><path d="M715.358,178.772l66.894,36.913l-3.319,6.015l-66.894,-36.914l3.319,-6.014Z" style="fill:#1675bc;fill-rule:nonzero;"/><path d="M715.358,196.432l66.894,36.914l-3.319,6.015l-66.894,-36.914l3.319,-6.015Z" style="fill:#1675bc;fill-rule:nonzero;"/><path d="M715.358,214.276l66.894,36.914l-3.319,6.014l-66.894,-36.913l3.319,-6.015Z" style="fill:#1675bc;fill-rule:nonzero;"/><path d="M709.489,228.483l66.893,36.914l-3.319,6.015l-66.893,-36.914l3.319,-6.015Z" style="fill:#1675bc;fill-rule:nonzero;"/><path d="M700.511,240.914l66.894,36.913l-3.319,6.015l-66.894,-36.914l3.319,-6.014Z" style="fill:#1675bc;fill-rule:nonzero;"/></g></g><g><clipPath id="_clip4"><path d="M945.737,180.228l38.39,68.939l-47.041,25.933l-14.475,-26.536c0,-19.44 9.695,-81.334 9.695,-81.334c5.826,2.678 10.564,7.263 13.431,12.998Z"/></clipPath><g clip-path="url(#_clip4)"><path d="M961.517,167.23l-66.894,36.914l3.32,6.015l66.893,-36.914l-3.319,-6.015Z" style="fill:#1675bc;fill-rule:nonzero;"/><path d="M950.004,155.717l-66.894,36.913l3.319,6.015l66.894,-36.914l-3.319,-6.014Z" style="fill:#1675bc;fill-rule:nonzero;"/><path d="M973.059,178.772l-66.894,36.913l3.319,6.015l66.894,-36.914l-3.319,-6.014Z" style="fill:#1675bc;fill-rule:nonzero;"/><path d="M973.059,196.432l-66.894,36.914l3.319,6.015l66.894,-36.914l-3.319,-6.015Z" style="fill:#1675bc;fill-rule:nonzero;"/><path d="M973.059,214.276l-66.894,36.914l3.319,6.014l66.894,-36.913l-3.319,-6.015Z" style="fill:#1675bc;fill-rule:nonzero;"/><path d="M978.929,228.483l-66.894,36.914l3.319,6.015l66.894,-36.914l-3.319,-6.015Z" style="fill:#1675bc;fill-rule:nonzero;"/><path d="M987.906,240.914l-66.894,36.913l3.319,6.015l66.894,-36.914l-3.319,-6.014Z" style="fill:#1675bc;fill-rule:nonzero;"/></g></g><path d="M1127.1,285.902c-14.09,-61.48 -30.08,-93.758 -38.95,-108.205c-3.76,-6.125 -9.65,-10.468 -16.381,-12.235l-16.12,-3.595l-0.359,3.186l-63.914,4.657l-63.913,-4.657l-0.36,-3.186l-16.118,3.595c-6.737,1.767 -12.624,6.11 -16.385,12.235c-8.869,14.447 -24.861,46.725 -38.947,108.205c-20.816,90.857 -24.147,121.934 -24.147,121.934l39.135,0c0,0 12.49,-101.841 43.298,-158.626l0,164.241l154.871,0l0,-164.241c30.81,56.785 43.3,158.626 43.3,158.626l39.14,0c0,0 -3.33,-31.077 -24.15,-121.934Z" style="fill:#bc3836;fill-rule:nonzero;"/><path d="M1047.74,137.622c-8.6,-4.673 -25.018,-9.127 -56.364,-9.127c-31.346,0 -47.763,4.454 -56.362,9.127c-6.108,3.32 -9.476,10.409 -8.665,17.577l1.114,9.854l63.913,4.657l63.914,-4.657l1.109,-9.854c0.811,-7.168 -2.549,-14.257 -8.659,-17.577Z" style="fill:#bc3836;fill-rule:nonzero;"/><path d="M900.723,170.727c-2.375,1.94 -4.465,4.269 -6.123,6.97c-8.869,14.447 -24.861,46.725 -38.947,108.205c-20.816,90.857 -24.147,121.934 -24.147,121.934l39.135,0c0,0 12.49,-101.841 43.298,-158.626c0,-49.795 -13.215,-78.481 -13.216,-78.483Z" style="fill:#e65a4a;fill-rule:nonzero;"/><path d="M1082.03,170.727c2.37,1.94 4.46,4.269 6.12,6.97c8.87,14.447 24.86,46.725 38.95,108.205c20.82,90.857 24.15,121.934 24.15,121.934l-32.48,0l-6.66,0c0,0 -12.49,-101.841 -43.3,-158.626c0,-49.795 13.22,-78.481 13.22,-78.483Z" style="fill:#e65a4a;fill-rule:nonzero;"/><path d="M948.639,343.147l85.471,0l0,-120.972l-85.471,0l0,120.972Zm92.161,6.69l-98.85,0l0,-134.351l98.85,0l0,134.351Z" style="fill:#fff;fill-rule:nonzero;"/><path d="M926.349,155.199l1.114,9.854l63.913,4.657c-24.855,-17.883 -49.931,-26.757 -59.541,-29.741c-4.036,3.742 -6.141,9.443 -5.486,15.23Z" style="fill:#e65a4a;fill-rule:nonzero;"/><path d="M1056.4,155.199l-1.109,9.854l-63.914,4.657c24.856,-17.883 49.934,-26.757 59.544,-29.741c4.03,3.742 6.14,9.443 5.479,15.23Z" style="fill:#e65a4a;fill-rule:nonzero;"/><path d="M996.251,169.71c0,2.693 -2.182,4.876 -4.875,4.876c-2.692,0 -4.875,-2.183 -4.875,-4.876c0,-2.692 2.183,-4.875 4.875,-4.875c2.693,0 4.875,2.183 4.875,4.875Z" style="fill:#414043;fill-rule:nonzero;"/><path d="M997.728,235.484c-0.029,0 -0.059,-0.001 -0.09,-0.002c-0.922,-0.05 -1.63,-0.837 -1.581,-1.76c0.013,-0.234 1.241,-23.589 0.005,-38.013c-0.764,-8.9 -2.984,-14.945 -4.51,-18.183c-1.349,3.449 -3.36,9.661 -4.137,17.573c-1.237,12.574 -1.253,20.353 -1.253,20.431c0,0.923 -0.749,1.672 -1.673,1.672c-0.923,0 -1.672,-0.749 -1.672,-1.672c0,-0.079 0.014,-8.005 1.268,-20.757c1.279,-12.992 5.625,-21.447 5.809,-21.801c0.269,-0.516 0.786,-0.855 1.365,-0.895c0.577,-0.037 1.139,0.221 1.478,0.694c0.218,0.306 5.371,7.658 6.656,22.653c1.258,14.656 0.016,38.241 0.004,38.477c-0.047,0.892 -0.786,1.583 -1.669,1.583Z" style="fill:#414043;fill-rule:nonzero;"/><path d="M991.374,132.945c-0.572,0 -1.036,-0.463 -1.036,-1.036l0,-11.115c0,-0.495 0.353,-0.921 0.838,-1.016c0.425,-0.083 10.367,-2.156 10.367,-12.789c0,-8.156 -9.141,-10.09 -12.271,-10.509l0,0.829c0,0.572 -0.463,1.035 -1.036,1.035c-0.572,0 -1.035,-0.463 -1.035,-1.035l0,-1.972c0,-0.572 0.463,-1.036 1.035,-1.036c0.154,0 15.378,0.946 15.378,12.688c0,10.422 -8.469,13.788 -11.204,14.603l0,10.317c0,0.573 -0.463,1.036 -1.036,1.036Z" style="fill:#58595c;fill-rule:nonzero;"/><path d="M1024.32,150.444c1.66,-0.782 3.277,-1.521 4.848,-2.217l-36.602,-18.173c-0.575,-0.287 -1.252,-0.29 -1.831,-0.005l-37.147,18.18c1.58,0.699 3.204,1.441 4.873,2.228l33.178,-16.238l32.681,16.225Z" style="fill:#58595c;fill-rule:nonzero;"/><path d="M1082.72,149.404c-0.79,0 -1.54,-0.451 -1.89,-1.216c-0.47,-1.044 -0.01,-2.27 1.03,-2.743l42.17,-19.101c0.55,-0.251 1.18,-0.244 1.73,0.008l41.11,19.101c1.04,0.483 1.49,1.713 1.01,2.751c-0.48,1.04 -1.71,1.491 -2.75,1.008l-40.26,-18.7l-41.29,18.708c-0.28,0.125 -0.57,0.184 -0.86,0.184Z" style="fill:#58595c;fill-rule:nonzero;"/><path d="M1124.61,129.268c-0.57,0 -1.03,-0.464 -1.03,-1.036l0,-11.115c0,-0.496 0.35,-0.923 0.84,-1.018c0.42,-0.083 10.36,-2.152 10.36,-12.786c0,-8.157 -9.14,-10.092 -12.27,-10.51l0,0.829c0,0.573 -0.46,1.036 -1.03,1.036c-0.57,0 -1.04,-0.463 -1.04,-1.036l0,-1.972c0,-0.573 0.47,-1.036 1.04,-1.036c0.15,0 15.38,0.945 15.38,12.689c0,10.421 -8.47,13.788 -11.21,14.603l0,10.316c0,0.572 -0.46,1.036 -1.04,1.036Z" style="fill:#58595c;fill-rule:nonzero;"/><path d="M1198.31,152.57l-35.17,-13.398c0,0 -6.7,30.147 -38.52,55.269c-31.83,-25.122 -38.53,-55.269 -38.53,-55.269l-35.17,13.398c18.43,56.944 -16.74,73.692 -16.74,73.692l0,154.082l180.87,0l0,-154.082c0,0 -35.17,-16.748 -16.74,-73.692Z" style="fill:#0d4a69;fill-rule:nonzero;"/><path d="M1182.4,258.305l-16.4,9.827l-16.39,-9.827l0,-27.578l32.79,0l0,27.578Z" style="fill:#4c7f8b;fill-rule:nonzero;"/></g></svg>