<?xml version="1.0" encoding="UTF-8" standalone="no"?>
<svg
   xmlns:dc="http://purl.org/dc/elements/1.1/"
   xmlns:cc="http://creativecommons.org/ns#"
   xmlns:rdf="http://www.w3.org/1999/02/22-rdf-syntax-ns#"
   xmlns:svg="http://www.w3.org/2000/svg"
   xmlns="http://www.w3.org/2000/svg"
   xmlns:sodipodi="http://sodipodi.sourceforge.net/DTD/sodipodi-0.dtd"
   xmlns:inkscape="http://www.inkscape.org/namespaces/inkscape"
   sodipodi:docname="mobile.svg"
   inkscape:version="1.0 (4035a4f, 2020-05-01)"
   id="svg2843"
   version="1.1"
   viewBox="0 0 173.7229 115.39502"
   height="115.39502mm"
   width="173.7229mm">
  <defs
     id="defs2837" />
  <sodipodi:namedview
     inkscape:window-maximized="1"
     inkscape:window-y="23"
     inkscape:window-x="1440"
     inkscape:window-height="1035"
     inkscape:window-width="1920"
     fit-margin-bottom="10"
     fit-margin-right="10"
     fit-margin-left="10"
     fit-margin-top="10"
     inkscape:snap-global="false"
     showgrid="false"
     inkscape:document-rotation="0"
     inkscape:current-layer="layer1"
     inkscape:document-units="mm"
     inkscape:cy="313.35629"
     inkscape:cx="475.25991"
     inkscape:zoom="1"
     inkscape:pageshadow="2"
     inkscape:pageopacity="0.0"
     borderopacity="1.0"
     bordercolor="#666666"
     pagecolor="#ffffff"
     id="base" />
  <metadata
     id="metadata2840">
    <rdf:RDF>
      <cc:Work
         rdf:about="">
        <dc:format>image/svg+xml</dc:format>
        <dc:type
           rdf:resource="http://purl.org/dc/dcmitype/StillImage" />
        <dc:title></dc:title>
      </cc:Work>
    </rdf:RDF>
  </metadata>
  <g
     transform="translate(15.820833,-65.475319)"
     id="layer1"
     inkscape:groupmode="layer"
     inkscape:label="Layer 1">
    <g
       id="g4594">
      <path
         id="rect3969"
         style="fill:#236bd8;fill-opacity:1;stroke-width:3.43958"
         d="M -5.8208332,164.83542 H 5.0270834 v 0.79375 H -5.8208332 Z" />
      <path
         id="rect3971"
         style="fill:#236bd8;fill-opacity:1;stroke-width:7.94337"
         d="m 10.054167,161.39583 h 10.847916 v 4.23333 H 10.054167 Z" />
      <path
         id="rect3973"
         style="fill:#236bd8;fill-opacity:1;stroke-width:12.0794"
         d="m 25.929167,155.83958 h 10.847916 v 9.78959 H 25.929167 Z" />
      <path
         id="rect3975"
         style="fill:#236bd8;fill-opacity:1;stroke-width:16.1331"
         d="m 41.804169,148.16667 h 10.847916 v 17.4625 H 41.804169 Z" />
      <path
         id="rect3977"
         style="fill:#236bd8;fill-opacity:1;stroke-width:19.7589"
         d="m 57.679173,139.43542 h 10.847916 v 26.19376 H 57.679173 Z" />
      <path
         id="rect3979"
         style="fill:#236bd8;fill-opacity:1;stroke-width:25.6627"
         d="m 73.554169,121.44375 h 10.847916 v 44.18542 H 73.554169 Z" />
      <path
         id="rect3981"
         style="fill:#236bd8;fill-opacity:1;stroke-width:29.3206"
         d="m 89.429161,107.95 h 10.847919 v 57.67916 H 89.429161 Z" />
      <path
         id="rect3983"
         style="fill:#236bd8;fill-opacity:1;stroke-width:32.6911"
         d="m 105.30415,93.927086 h 10.84792 v 71.702084 h -10.84792 z" />
      <path
         id="rect3985"
         style="fill:#236bd8;fill-opacity:1;stroke-width:35.1331"
         d="m 121.17915,82.814583 h 10.84792 v 82.814587 h -10.84792 z" />
      <path
         id="rect3987"
         style="fill:#236bd8;fill-opacity:1;stroke-width:35.8003"
         d="m 137.05415,79.639587 h 10.84792 v 85.989583 h -10.84792 z" />
      <g
         aria-label="2009"
         id="text3991"
         style="font-style:normal;font-weight:normal;font-size:3.3114px;line-height:1.25;font-family:sans-serif;fill:#000000;fill-opacity:1;stroke:none;stroke-width:0.0827852">
        <path
           d="m -2.8298492,170.81537 h -1.6298296 v -0.33793 q 0.1697739,-0.14552 0.3395478,-0.29104 0.1713908,-0.14552 0.3185282,-0.28943 0.3104438,-0.30074 0.4252433,-0.47698 0.1147995,-0.17786 0.1147995,-0.38321 0,-0.18756 -0.1245009,-0.29265 -0.122884,-0.10672 -0.3443985,-0.10672 -0.1471374,0 -0.3185282,0.0517 -0.1713908,0.0517 -0.3346972,0.15846 h -0.016169 v -0.33955 q 0.1147995,-0.0566 0.305593,-0.10348 0.1924105,-0.0469 0.3718858,-0.0469 0.3702688,0 0.5804651,0.17947 0.2101963,0.17786 0.2101963,0.48346 0,0.13743 -0.035572,0.25708 -0.033955,0.11804 -0.1018644,0.22475 -0.063059,0.10025 -0.1487542,0.19726 -0.084079,0.097 -0.2053456,0.21505 -0.1730078,0.16977 -0.3573337,0.32984 -0.184326,0.15846 -0.3443986,0.29428 h 1.2951325 z"
           style="stroke-width:0.0827852"
           id="path4223" />
        <path
           d="m -0.72465257,169.61078 q 0,0.64838 -0.20372871,0.95235 -0.20211182,0.30236 -0.62897192,0.30236 -0.4333278,0 -0.6338227,-0.30721 -0.198878,-0.30721 -0.198878,-0.94426 0,-0.64191 0.2021118,-0.9475 0.2021118,-0.30721 0.6305889,-0.30721 0.4333277,0 0.63220571,0.31206 0.20049492,0.31044 0.20049492,0.93941 z m -0.42524323,0.73407 q 0.056591,-0.13097 0.075994,-0.30721 0.02102,-0.17786 0.02102,-0.42686 0,-0.24577 -0.02102,-0.42686 -0.019403,-0.18109 -0.077611,-0.30721 -0.056591,-0.1245 -0.1552219,-0.18756 -0.097014,-0.0631 -0.2506186,-0.0631 -0.1519881,0 -0.2522356,0.0631 -0.098631,0.0631 -0.1568387,0.1908 -0.054975,0.11965 -0.075994,0.31206 -0.019403,0.19241 -0.019403,0.42201 0,0.25223 0.017786,0.42201 0.017786,0.16977 0.075994,0.30397 0.053357,0.12612 0.1503711,0.19241 0.098631,0.0663 0.2603201,0.0663 0.151988,0 0.2522355,-0.0631 0.1002475,-0.0631 0.1552219,-0.1908 z"
           style="stroke-width:0.0827852"
           id="path4225" />
        <path
           d="m 1.3837778,169.61078 q 0,0.64838 -0.2037287,0.95235 -0.2021118,0.30236 -0.62897195,0.30236 -0.43332773,0 -0.63382265,-0.30721 -0.19887802,-0.30721 -0.19887802,-0.94426 0,-0.64191 0.20211181,-0.9475 0.20211182,-0.30721 0.63058886,-0.30721 0.43332772,0 0.63220575,0.31206 0.2004949,0.31044 0.2004949,0.93941 z m -0.42524324,0.73407 q 0.0565913,-0.13097 0.075994,-0.30721 0.02102,-0.17786 0.02102,-0.42686 0,-0.24577 -0.02102,-0.42686 -0.019403,-0.18109 -0.0776109,-0.30721 -0.0565913,-0.1245 -0.15522187,-0.18756 -0.0970137,-0.0631 -0.25061865,-0.0631 -0.15198808,0 -0.25223554,0.0631 -0.0986306,0.0631 -0.15683877,0.1908 -0.05497441,0.11965 -0.07599404,0.31206 -0.01940274,0.19241 -0.01940274,0.42201 0,0.25223 0.01778584,0.42201 0.01778584,0.16977 0.07599405,0.30397 0.0533575,0.12612 0.15037118,0.19241 0.0986306,0.0663 0.26032002,0.0663 0.15198808,0 0.25223554,-0.0631 0.10024746,-0.0631 0.15522187,-0.1908 z"
           style="stroke-width:0.0827852"
           id="path4227" />
        <path
           d="m 3.4922082,169.46688 q 0,0.31529 -0.07276,0.57238 -0.071143,0.25709 -0.2166638,0.43818 -0.1471374,0.18432 -0.368652,0.28457 -0.2215145,0.10025 -0.52064,0.10025 -0.084078,0 -0.1584556,-0.01 -0.074377,-0.008 -0.1325854,-0.0275 v -0.30883 H 2.03862 q 0.04689,0.0243 0.1325854,0.0469 0.085695,0.021 0.1907935,0.021 0.3573337,0 0.5594455,-0.21343 0.2037288,-0.21504 0.2360666,-0.59178 -0.1503711,0.0906 -0.2829565,0.12935 -0.1325853,0.0388 -0.2894241,0.0388 -0.1487543,0 -0.2700214,-0.0291 -0.1196502,-0.0291 -0.2409173,-0.11318 -0.1422867,-0.0986 -0.2150469,-0.25062 -0.071143,-0.15199 -0.071143,-0.3638 0,-0.36865 0.2425342,-0.59987 0.2425341,-0.23121 0.5917834,-0.23121 0.1746246,0 0.3233789,0.055 0.1487543,0.0534 0.26032,0.16169 0.137436,0.1342 0.2118132,0.34602 0.074377,0.21019 0.074377,0.54489 z m -0.3266127,-0.0695 q 0,-0.25062 -0.051741,-0.4026 -0.051741,-0.15199 -0.1422867,-0.23607 -0.075994,-0.0728 -0.1633064,-0.10348 -0.087312,-0.0323 -0.1891766,-0.0323 -0.2328328,0 -0.368652,0.14552 -0.1342022,0.14552 -0.1342022,0.40907 0,0.15361 0.043656,0.25062 0.043656,0.097 0.1471374,0.16978 0.07276,0.0501 0.1600726,0.0679 0.087312,0.0162 0.1940273,0.0162 0.1261178,0 0.2554694,-0.034 0.1293515,-0.0339 0.2425341,-0.0986 0.00162,-0.034 0.00323,-0.0663 0.00323,-0.034 0.00323,-0.0857 z"
           style="stroke-width:0.0827852"
           id="path4229" />
      </g>
      <g
         aria-label="2010"
         id="text3995"
         style="font-style:normal;font-weight:normal;font-size:3.3114px;line-height:1.25;font-family:sans-serif;fill:#000000;fill-opacity:1;stroke:none;stroke-width:0.0827852">
        <path
           d="m 13.045151,170.81537 h -1.629829 v -0.33793 q 0.169774,-0.14552 0.339547,-0.29104 0.171391,-0.14552 0.318529,-0.28943 0.310443,-0.30074 0.425243,-0.47698 0.114799,-0.17786 0.114799,-0.38321 0,-0.18756 -0.1245,-0.29265 -0.122884,-0.10672 -0.344399,-0.10672 -0.147137,0 -0.318528,0.0517 -0.171391,0.0517 -0.334697,0.15846 h -0.01617 v -0.33955 q 0.114799,-0.0566 0.305593,-0.10348 0.19241,-0.0469 0.371886,-0.0469 0.370268,0 0.580465,0.17947 0.210196,0.17786 0.210196,0.48346 0,0.13743 -0.03557,0.25708 -0.03395,0.11804 -0.101864,0.22475 -0.06306,0.10025 -0.148754,0.19726 -0.08408,0.097 -0.205346,0.21505 -0.173008,0.16977 -0.357334,0.32984 -0.184326,0.15846 -0.344398,0.29428 h 1.295132 z"
           style="stroke-width:0.0827852"
           id="path4232" />
        <path
           d="m 15.150348,169.61078 q 0,0.64838 -0.203729,0.95235 -0.202112,0.30236 -0.628972,0.30236 -0.433327,0 -0.633822,-0.30721 -0.198878,-0.30721 -0.198878,-0.94426 0,-0.64191 0.202111,-0.9475 0.202112,-0.30721 0.630589,-0.30721 0.433328,0 0.632206,0.31206 0.200495,0.31044 0.200495,0.93941 z m -0.425243,0.73407 q 0.05659,-0.13097 0.07599,-0.30721 0.02102,-0.17786 0.02102,-0.42686 0,-0.24577 -0.02102,-0.42686 -0.0194,-0.18109 -0.07761,-0.30721 -0.05659,-0.1245 -0.155222,-0.18756 -0.09701,-0.0631 -0.250619,-0.0631 -0.151988,0 -0.252235,0.0631 -0.09863,0.0631 -0.156839,0.1908 -0.05497,0.11965 -0.07599,0.31206 -0.0194,0.19241 -0.0194,0.42201 0,0.25223 0.01779,0.42201 0.01779,0.16977 0.07599,0.30397 0.05336,0.12612 0.150371,0.19241 0.09863,0.0663 0.26032,0.0663 0.151988,0 0.252236,-0.0631 0.100247,-0.0631 0.155222,-0.1908 z"
           style="stroke-width:0.0827852"
           id="path4234" />
        <path
           d="m 17.124576,170.81537 h -1.303217 v -0.24577 h 0.501237 v -1.61366 h -0.501237 v -0.2199 q 0.101864,0 0.218281,-0.0162 0.116416,-0.0178 0.176241,-0.0501 0.07438,-0.0404 0.116417,-0.10186 0.04366,-0.0631 0.05012,-0.16816 h 0.250619 v 2.16987 h 0.491536 z"
           style="stroke-width:0.0827852"
           id="path4236" />
        <path
           d="m 19.367209,169.61078 q 0,0.64838 -0.203729,0.95235 -0.202112,0.30236 -0.628972,0.30236 -0.433328,0 -0.633823,-0.30721 -0.198878,-0.30721 -0.198878,-0.94426 0,-0.64191 0.202112,-0.9475 0.202112,-0.30721 0.630589,-0.30721 0.433328,0 0.632206,0.31206 0.200495,0.31044 0.200495,0.93941 z m -0.425244,0.73407 q 0.05659,-0.13097 0.07599,-0.30721 0.02102,-0.17786 0.02102,-0.42686 0,-0.24577 -0.02102,-0.42686 -0.0194,-0.18109 -0.07761,-0.30721 -0.05659,-0.1245 -0.155222,-0.18756 -0.09701,-0.0631 -0.250619,-0.0631 -0.151988,0 -0.252236,0.0631 -0.09863,0.0631 -0.156838,0.1908 -0.05497,0.11965 -0.07599,0.31206 -0.0194,0.19241 -0.0194,0.42201 0,0.25223 0.01779,0.42201 0.01779,0.16977 0.07599,0.30397 0.05336,0.12612 0.150371,0.19241 0.09863,0.0663 0.26032,0.0663 0.151988,0 0.252236,-0.0631 0.100247,-0.0631 0.155221,-0.1908 z"
           style="stroke-width:0.0827852"
           id="path4238" />
      </g>
      <g
         aria-label="2011"
         id="text3999"
         style="font-style:normal;font-weight:normal;font-size:3.3114px;line-height:1.25;font-family:sans-serif;fill:#000000;fill-opacity:1;stroke:none;stroke-width:0.0827852">
        <path
           d="m 28.92015,170.81537 h -1.629829 v -0.33793 q 0.169774,-0.14552 0.339548,-0.29104 0.17139,-0.14552 0.318528,-0.28943 0.310444,-0.30074 0.425243,-0.47698 0.1148,-0.17786 0.1148,-0.38321 0,-0.18756 -0.124501,-0.29265 -0.122884,-0.10672 -0.344399,-0.10672 -0.147137,0 -0.318528,0.0517 -0.171391,0.0517 -0.334697,0.15846 h -0.01617 v -0.33955 q 0.114799,-0.0566 0.305593,-0.10348 0.19241,-0.0469 0.371886,-0.0469 0.370268,0 0.580465,0.17947 0.210196,0.17786 0.210196,0.48346 0,0.13743 -0.03557,0.25708 -0.03395,0.11804 -0.101864,0.22475 -0.06306,0.10025 -0.148754,0.19726 -0.08408,0.097 -0.205346,0.21505 -0.173008,0.16977 -0.357334,0.32984 -0.184326,0.15846 -0.344398,0.29428 h 1.295132 z"
           style="stroke-width:0.0827852"
           id="path4241" />
        <path
           d="m 31.025347,169.61078 q 0,0.64838 -0.203729,0.95235 -0.202112,0.30236 -0.628972,0.30236 -0.433327,0 -0.633822,-0.30721 -0.198878,-0.30721 -0.198878,-0.94426 0,-0.64191 0.202111,-0.9475 0.202112,-0.30721 0.630589,-0.30721 0.433328,0 0.632206,0.31206 0.200495,0.31044 0.200495,0.93941 z m -0.425243,0.73407 q 0.05659,-0.13097 0.07599,-0.30721 0.02102,-0.17786 0.02102,-0.42686 0,-0.24577 -0.02102,-0.42686 -0.0194,-0.18109 -0.07761,-0.30721 -0.05659,-0.1245 -0.155222,-0.18756 -0.09701,-0.0631 -0.250619,-0.0631 -0.151988,0 -0.252235,0.0631 -0.09863,0.0631 -0.156839,0.1908 -0.05497,0.11965 -0.07599,0.31206 -0.0194,0.19241 -0.0194,0.42201 0,0.25223 0.01779,0.42201 0.01779,0.16977 0.07599,0.30397 0.05336,0.12612 0.150371,0.19241 0.09863,0.0663 0.26032,0.0663 0.151988,0 0.252236,-0.0631 0.100247,-0.0631 0.155222,-0.1908 z"
           style="stroke-width:0.0827852"
           id="path4243" />
        <path
           d="m 32.999575,170.81537 h -1.303217 v -0.24577 h 0.501237 v -1.61366 h -0.501237 v -0.2199 q 0.101864,0 0.218281,-0.0162 0.116416,-0.0178 0.176241,-0.0501 0.07438,-0.0404 0.116417,-0.10186 0.04366,-0.0631 0.05012,-0.16816 h 0.250618 v 2.16987 h 0.491536 z"
           style="stroke-width:0.0827852"
           id="path4245" />
        <path
           d="m 35.108005,170.81537 h -1.303216 v -0.24577 h 0.501237 v -1.61366 h -0.501237 v -0.2199 q 0.101864,0 0.21828,-0.0162 0.116417,-0.0178 0.176242,-0.0501 0.07438,-0.0404 0.116416,-0.10186 0.04366,-0.0631 0.05012,-0.16816 h 0.250619 v 2.16987 h 0.491535 z"
           style="stroke-width:0.0827852"
           id="path4247" />
      </g>
      <g
         aria-label="2012"
         id="text4003"
         style="font-style:normal;font-weight:normal;font-size:3.3114px;line-height:1.25;font-family:sans-serif;fill:#000000;fill-opacity:1;stroke:none;stroke-width:0.0827852">
        <path
           d="m 44.795152,170.81537 h -1.629829 v -0.33793 q 0.169774,-0.14552 0.339547,-0.29104 0.171391,-0.14552 0.318529,-0.28943 0.310443,-0.30074 0.425243,-0.47698 0.114799,-0.17786 0.114799,-0.38321 0,-0.18756 -0.1245,-0.29265 -0.122884,-0.10672 -0.344399,-0.10672 -0.147137,0 -0.318528,0.0517 -0.171391,0.0517 -0.334697,0.15846 h -0.01617 v -0.33955 q 0.114799,-0.0566 0.305593,-0.10348 0.19241,-0.0469 0.371886,-0.0469 0.370268,0 0.580465,0.17947 0.210196,0.17786 0.210196,0.48346 0,0.13743 -0.03557,0.25708 -0.03395,0.11804 -0.101864,0.22475 -0.06306,0.10025 -0.148754,0.19726 -0.08408,0.097 -0.205346,0.21505 -0.173008,0.16977 -0.357334,0.32984 -0.184326,0.15846 -0.344398,0.29428 h 1.295132 z"
           style="stroke-width:0.0827852"
           id="path4250" />
        <path
           d="m 46.900349,169.61078 q 0,0.64838 -0.203729,0.95235 -0.202112,0.30236 -0.628972,0.30236 -0.433328,0 -0.633822,-0.30721 -0.198878,-0.30721 -0.198878,-0.94426 0,-0.64191 0.202111,-0.9475 0.202112,-0.30721 0.630589,-0.30721 0.433328,0 0.632206,0.31206 0.200495,0.31044 0.200495,0.93941 z m -0.425243,0.73407 q 0.05659,-0.13097 0.07599,-0.30721 0.02102,-0.17786 0.02102,-0.42686 0,-0.24577 -0.02102,-0.42686 -0.0194,-0.18109 -0.07761,-0.30721 -0.05659,-0.1245 -0.155222,-0.18756 -0.09701,-0.0631 -0.250619,-0.0631 -0.151988,0 -0.252235,0.0631 -0.09863,0.0631 -0.156839,0.1908 -0.05497,0.11965 -0.07599,0.31206 -0.0194,0.19241 -0.0194,0.42201 0,0.25223 0.01779,0.42201 0.01779,0.16977 0.07599,0.30397 0.05336,0.12612 0.150371,0.19241 0.09863,0.0663 0.26032,0.0663 0.151988,0 0.252236,-0.0631 0.100247,-0.0631 0.155222,-0.1908 z"
           style="stroke-width:0.0827852"
           id="path4252" />
        <path
           d="M 48.874577,170.81537 H 47.57136 v -0.24577 h 0.501237 v -1.61366 H 47.57136 v -0.2199 q 0.101864,0 0.218281,-0.0162 0.116416,-0.0178 0.176241,-0.0501 0.07438,-0.0404 0.116417,-0.10186 0.04366,-0.0631 0.05012,-0.16816 h 0.250619 v 2.16987 h 0.491536 z"
           style="stroke-width:0.0827852"
           id="path4254" />
        <path
           d="m 51.120443,170.81537 h -1.629829 v -0.33793 q 0.169774,-0.14552 0.339548,-0.29104 0.17139,-0.14552 0.318528,-0.28943 0.310444,-0.30074 0.425243,-0.47698 0.1148,-0.17786 0.1148,-0.38321 0,-0.18756 -0.124501,-0.29265 -0.122884,-0.10672 -0.344399,-0.10672 -0.147137,0 -0.318528,0.0517 -0.171391,0.0517 -0.334697,0.15846 h -0.01617 v -0.33955 q 0.114799,-0.0566 0.305593,-0.10348 0.19241,-0.0469 0.371886,-0.0469 0.370268,0 0.580465,0.17947 0.210196,0.17786 0.210196,0.48346 0,0.13743 -0.03557,0.25708 -0.03395,0.11804 -0.101864,0.22475 -0.06306,0.10025 -0.148754,0.19726 -0.08408,0.097 -0.205346,0.21505 -0.173008,0.16977 -0.357334,0.32984 -0.184326,0.15846 -0.344398,0.29428 h 1.295132 z"
           style="stroke-width:0.0827852"
           id="path4256" />
      </g>
      <g
         aria-label="2013"
         id="text4007"
         style="font-style:normal;font-weight:normal;font-size:3.3114px;line-height:1.25;font-family:sans-serif;fill:#000000;fill-opacity:1;stroke:none;stroke-width:0.0827852">
        <path
           d="m 60.670156,170.81537 h -1.62983 v -0.33793 q 0.169774,-0.14552 0.339548,-0.29104 0.171391,-0.14552 0.318528,-0.28943 0.310444,-0.30074 0.425244,-0.47698 0.114799,-0.17786 0.114799,-0.38321 0,-0.18756 -0.124501,-0.29265 -0.122884,-0.10672 -0.344398,-0.10672 -0.147138,0 -0.318528,0.0517 -0.171391,0.0517 -0.334698,0.15846 h -0.01617 v -0.33955 q 0.114799,-0.0566 0.305593,-0.10348 0.19241,-0.0469 0.371885,-0.0469 0.370269,0 0.580465,0.17947 0.210197,0.17786 0.210197,0.48346 0,0.13743 -0.03557,0.25708 -0.03395,0.11804 -0.101864,0.22475 -0.06306,0.10025 -0.148755,0.19726 -0.08408,0.097 -0.205345,0.21505 -0.173008,0.16977 -0.357334,0.32984 -0.184326,0.15846 -0.344398,0.29428 h 1.295132 z"
           style="stroke-width:0.0827852"
           id="path4259" />
        <path
           d="m 62.775353,169.61078 q 0,0.64838 -0.203729,0.95235 -0.202112,0.30236 -0.628972,0.30236 -0.433328,0 -0.633823,-0.30721 -0.198878,-0.30721 -0.198878,-0.94426 0,-0.64191 0.202112,-0.9475 0.202112,-0.30721 0.630589,-0.30721 0.433328,0 0.632206,0.31206 0.200495,0.31044 0.200495,0.93941 z m -0.425244,0.73407 q 0.05659,-0.13097 0.07599,-0.30721 0.02102,-0.17786 0.02102,-0.42686 0,-0.24577 -0.02102,-0.42686 -0.0194,-0.18109 -0.07761,-0.30721 -0.05659,-0.1245 -0.155222,-0.18756 -0.09701,-0.0631 -0.250619,-0.0631 -0.151988,0 -0.252236,0.0631 -0.09863,0.0631 -0.156838,0.1908 -0.05497,0.11965 -0.07599,0.31206 -0.0194,0.19241 -0.0194,0.42201 0,0.25223 0.01779,0.42201 0.01779,0.16977 0.07599,0.30397 0.05336,0.12612 0.150371,0.19241 0.09863,0.0663 0.26032,0.0663 0.151988,0 0.252236,-0.0631 0.100247,-0.0631 0.155221,-0.1908 z"
           style="stroke-width:0.0827852"
           id="path4261" />
        <path
           d="m 64.749581,170.81537 h -1.303217 v -0.24577 h 0.501237 v -1.61366 h -0.501237 v -0.2199 q 0.101864,0 0.218281,-0.0162 0.116416,-0.0178 0.176241,-0.0501 0.07438,-0.0404 0.116417,-0.10186 0.04366,-0.0631 0.05012,-0.16816 h 0.250619 v 2.16987 h 0.491536 z"
           style="stroke-width:0.0827852"
           id="path4263" />
        <path
           d="m 66.783634,169.65606 q 0.07761,0.0695 0.127735,0.17462 0.05012,0.1051 0.05012,0.27164 0,0.16492 -0.05983,0.30236 -0.05983,0.13743 -0.168157,0.2393 -0.121267,0.11318 -0.28619,0.16815 -0.163306,0.0534 -0.358951,0.0534 -0.200494,0 -0.394522,-0.0485 -0.194027,-0.0469 -0.318528,-0.10349 v -0.33793 h 0.02425 q 0.137436,0.0905 0.323379,0.15037 0.185943,0.0598 0.358951,0.0598 0.101864,0 0.216664,-0.034 0.114799,-0.0339 0.185943,-0.10024 0.07438,-0.0712 0.109948,-0.15684 0.03719,-0.0857 0.03719,-0.21667 0,-0.12935 -0.04204,-0.21343 -0.04042,-0.0857 -0.113183,-0.1342 -0.07276,-0.0501 -0.176241,-0.0679 -0.103482,-0.0194 -0.223132,-0.0194 h -0.14552 v -0.2684 h 0.113182 q 0.245768,0 0.391289,-0.10187 0.147137,-0.10348 0.147137,-0.30074 0,-0.0873 -0.03719,-0.15199 -0.03719,-0.0663 -0.103482,-0.10833 -0.06953,-0.042 -0.148754,-0.0582 -0.07923,-0.0162 -0.179475,-0.0162 -0.153605,0 -0.326613,0.055 -0.173008,0.055 -0.326613,0.15522 h -0.01617 v -0.33793 q 0.1148,-0.0566 0.305593,-0.10348 0.192411,-0.0485 0.371886,-0.0485 0.176242,0 0.310444,0.0323 0.134202,0.0323 0.242534,0.10348 0.116417,0.0776 0.176242,0.18756 0.05982,0.10995 0.05982,0.25708 0,0.2005 -0.142287,0.35087 -0.14067,0.14875 -0.33308,0.18756 v 0.0226 q 0.07761,0.0129 0.177858,0.055 0.100248,0.0404 0.169774,0.10187 z"
           style="stroke-width:0.0827852"
           id="path4265" />
      </g>
      <g
         aria-label="2014"
         id="text4011"
         style="font-style:normal;font-weight:normal;font-size:3.3114px;line-height:1.25;font-family:sans-serif;fill:#000000;fill-opacity:1;stroke:none;stroke-width:0.0827852">
        <path
           d="m 76.545148,170.81537 h -1.629829 v -0.33793 q 0.169774,-0.14552 0.339548,-0.29104 0.17139,-0.14552 0.318528,-0.28943 0.310444,-0.30074 0.425243,-0.47698 0.1148,-0.17786 0.1148,-0.38321 0,-0.18756 -0.124501,-0.29265 -0.122884,-0.10672 -0.344399,-0.10672 -0.147137,0 -0.318528,0.0517 -0.171391,0.0517 -0.334697,0.15846 h -0.01617 v -0.33955 q 0.114799,-0.0566 0.305593,-0.10348 0.19241,-0.0469 0.371886,-0.0469 0.370269,0 0.580465,0.17947 0.210196,0.17786 0.210196,0.48346 0,0.13743 -0.03557,0.25708 -0.03395,0.11804 -0.101864,0.22475 -0.06306,0.10025 -0.148754,0.19726 -0.08408,0.097 -0.205346,0.21505 -0.173008,0.16977 -0.357334,0.32984 -0.184325,0.15846 -0.344398,0.29428 h 1.295132 z"
           style="stroke-width:0.0827852"
           id="path4268" />
        <path
           d="m 78.650345,169.61078 q 0,0.64838 -0.203729,0.95235 -0.202111,0.30236 -0.628972,0.30236 -0.433327,0 -0.633822,-0.30721 -0.198878,-0.30721 -0.198878,-0.94426 0,-0.64191 0.202112,-0.9475 0.202111,-0.30721 0.630588,-0.30721 0.433328,0 0.632206,0.31206 0.200495,0.31044 0.200495,0.93941 z m -0.425243,0.73407 q 0.05659,-0.13097 0.07599,-0.30721 0.02102,-0.17786 0.02102,-0.42686 0,-0.24577 -0.02102,-0.42686 -0.0194,-0.18109 -0.07761,-0.30721 -0.05659,-0.1245 -0.155222,-0.18756 -0.09701,-0.0631 -0.250619,-0.0631 -0.151988,0 -0.252235,0.0631 -0.09863,0.0631 -0.156839,0.1908 -0.05497,0.11965 -0.07599,0.31206 -0.0194,0.19241 -0.0194,0.42201 0,0.25223 0.01779,0.42201 0.01779,0.16977 0.07599,0.30397 0.05336,0.12612 0.150371,0.19241 0.09863,0.0663 0.26032,0.0663 0.151988,0 0.252236,-0.0631 0.100247,-0.0631 0.155222,-0.1908 z"
           style="stroke-width:0.0827852"
           id="path4270" />
        <path
           d="m 80.624573,170.81537 h -1.303217 v -0.24577 h 0.501238 v -1.61366 h -0.501238 v -0.2199 q 0.101865,0 0.218281,-0.0162 0.116416,-0.0178 0.176241,-0.0501 0.07438,-0.0404 0.116417,-0.10186 0.04366,-0.0631 0.05012,-0.16816 h 0.250618 v 2.16987 h 0.491536 z"
           style="stroke-width:0.0827852"
           id="path4272" />
        <path
           d="M 82.925414,170.13789 H 82.56808 v 0.67748 h -0.310443 v -0.67748 H 81.104791 V 169.766 l 1.165781,-1.35819 h 0.297508 v 1.47138 h 0.357334 z m -0.667777,-0.2587 v -1.08656 l -0.932949,1.08656 z"
           style="stroke-width:0.0827852"
           id="path4274" />
      </g>
      <g
         aria-label="2015"
         id="text4015"
         style="font-style:normal;font-weight:normal;font-size:3.3114px;line-height:1.25;font-family:sans-serif;fill:#000000;fill-opacity:1;stroke:none;stroke-width:0.0827852">
        <path
           d="m 92.420141,170.81537 h -1.62983 v -0.33793 q 0.169774,-0.14552 0.339548,-0.29104 0.171391,-0.14552 0.318528,-0.28943 0.310444,-0.30074 0.425243,-0.47698 0.1148,-0.17786 0.1148,-0.38321 0,-0.18756 -0.124501,-0.29265 -0.122884,-0.10672 -0.344398,-0.10672 -0.147138,0 -0.318529,0.0517 -0.17139,0.0517 -0.334697,0.15846 h -0.01617 v -0.33955 q 0.1148,-0.0566 0.305593,-0.10348 0.192411,-0.0469 0.371886,-0.0469 0.370269,0 0.580465,0.17947 0.210196,0.17786 0.210196,0.48346 0,0.13743 -0.03557,0.25708 -0.03396,0.11804 -0.101865,0.22475 -0.06306,0.10025 -0.148754,0.19726 -0.08408,0.097 -0.205345,0.21505 -0.173008,0.16977 -0.357334,0.32984 -0.184326,0.15846 -0.344399,0.29428 h 1.295133 z"
           style="stroke-width:0.0827852"
           id="path4277" />
        <path
           d="m 94.525337,169.61078 q 0,0.64838 -0.203728,0.95235 -0.202112,0.30236 -0.628972,0.30236 -0.433328,0 -0.633823,-0.30721 -0.198878,-0.30721 -0.198878,-0.94426 0,-0.64191 0.202112,-0.9475 0.202112,-0.30721 0.630589,-0.30721 0.433327,0 0.632205,0.31206 0.200495,0.31044 0.200495,0.93941 z m -0.425243,0.73407 q 0.05659,-0.13097 0.07599,-0.30721 0.02102,-0.17786 0.02102,-0.42686 0,-0.24577 -0.02102,-0.42686 -0.0194,-0.18109 -0.07761,-0.30721 -0.05659,-0.1245 -0.155222,-0.18756 -0.09701,-0.0631 -0.250618,-0.0631 -0.151988,0 -0.252236,0.0631 -0.09863,0.0631 -0.156839,0.1908 -0.05497,0.11965 -0.07599,0.31206 -0.0194,0.19241 -0.0194,0.42201 0,0.25223 0.01779,0.42201 0.01779,0.16977 0.07599,0.30397 0.05336,0.12612 0.150371,0.19241 0.09863,0.0663 0.26032,0.0663 0.151988,0 0.252235,-0.0631 0.100248,-0.0631 0.155222,-0.1908 z"
           style="stroke-width:0.0827852"
           id="path4279" />
        <path
           d="m 96.499566,170.81537 h -1.303217 v -0.24577 h 0.501237 v -1.61366 h -0.501237 v -0.2199 q 0.101864,0 0.21828,-0.0162 0.116417,-0.0178 0.176242,-0.0501 0.07438,-0.0404 0.116416,-0.10186 0.04366,-0.0631 0.05012,-0.16816 h 0.250619 v 2.16987 h 0.491536 z"
           style="stroke-width:0.0827852"
           id="path4281" />
        <path
           d="m 98.726029,170.05058 q 0,0.16815 -0.06144,0.32176 -0.06144,0.1536 -0.168157,0.2587 -0.116416,0.11319 -0.278106,0.17463 -0.160072,0.0598 -0.371885,0.0598 -0.197261,0 -0.379971,-0.042 -0.182709,-0.0404 -0.308826,-0.0986 v -0.34116 h 0.02264 q 0.132585,0.0841 0.310444,0.1439 0.177858,0.0582 0.349249,0.0582 0.1148,0 0.221515,-0.0323 0.108332,-0.0323 0.19241,-0.11318 0.07114,-0.0695 0.106715,-0.16654 0.03719,-0.097 0.03719,-0.22475 0,-0.1245 -0.04366,-0.2102 -0.04204,-0.0857 -0.118034,-0.13743 -0.08408,-0.0614 -0.205345,-0.0857 -0.119651,-0.0259 -0.268405,-0.0259 -0.142287,0 -0.274872,0.0194 -0.130968,0.0194 -0.226365,0.0388 v -1.24016 h 1.448737 v 0.28296 h -1.136677 v 0.64029 q 0.06953,-0.006 0.142287,-0.01 0.07276,-0.003 0.126118,-0.003 0.195644,0 0.342782,0.034 0.147137,0.0323 0.270021,0.11642 0.129352,0.0889 0.200495,0.22959 0.07114,0.14067 0.07114,0.35249 z"
           style="stroke-width:0.0827852"
           id="path4283" />
      </g>
      <g
         aria-label="2016"
         id="text4019"
         style="font-style:normal;font-weight:normal;font-size:3.3114px;line-height:1.25;font-family:sans-serif;fill:#000000;fill-opacity:1;stroke:none;stroke-width:0.0827852">
        <path
           d="m 108.29513,170.81537 h -1.62983 v -0.33793 q 0.16978,-0.14552 0.33955,-0.29104 0.17139,-0.14552 0.31853,-0.28943 0.31044,-0.30074 0.42524,-0.47698 0.1148,-0.17786 0.1148,-0.38321 0,-0.18756 -0.1245,-0.29265 -0.12288,-0.10672 -0.3444,-0.10672 -0.14713,0 -0.31853,0.0517 -0.17139,0.0517 -0.33469,0.15846 h -0.0162 v -0.33955 q 0.1148,-0.0566 0.30559,-0.10348 0.19241,-0.0469 0.37189,-0.0469 0.37027,0 0.58046,0.17947 0.2102,0.17786 0.2102,0.48346 0,0.13743 -0.0356,0.25708 -0.034,0.11804 -0.10187,0.22475 -0.0631,0.10025 -0.14875,0.19726 -0.0841,0.097 -0.20535,0.21505 -0.173,0.16977 -0.35733,0.32984 -0.18433,0.15846 -0.3444,0.29428 h 1.29513 z"
           style="stroke-width:0.0827852"
           id="path4286" />
        <path
           d="m 110.40033,169.61078 q 0,0.64838 -0.20373,0.95235 -0.20211,0.30236 -0.62897,0.30236 -0.43333,0 -0.63382,-0.30721 -0.19888,-0.30721 -0.19888,-0.94426 0,-0.64191 0.20211,-0.9475 0.20211,-0.30721 0.63059,-0.30721 0.43333,0 0.6322,0.31206 0.2005,0.31044 0.2005,0.93941 z m -0.42524,0.73407 q 0.0566,-0.13097 0.076,-0.30721 0.021,-0.17786 0.021,-0.42686 0,-0.24577 -0.021,-0.42686 -0.0194,-0.18109 -0.0776,-0.30721 -0.0566,-0.1245 -0.15522,-0.18756 -0.097,-0.0631 -0.25062,-0.0631 -0.15199,0 -0.25224,0.0631 -0.0986,0.0631 -0.15684,0.1908 -0.055,0.11965 -0.076,0.31206 -0.0194,0.19241 -0.0194,0.42201 0,0.25223 0.0178,0.42201 0.0178,0.16977 0.076,0.30397 0.0534,0.12612 0.15037,0.19241 0.0986,0.0663 0.26032,0.0663 0.15199,0 0.25223,-0.0631 0.10025,-0.0631 0.15523,-0.1908 z"
           style="stroke-width:0.0827852"
           id="path4288" />
        <path
           d="m 112.37456,170.81537 h -1.30322 v -0.24577 h 0.50124 v -1.61366 h -0.50124 v -0.2199 q 0.10187,0 0.21828,-0.0162 0.11642,-0.0178 0.17624,-0.0501 0.0744,-0.0404 0.11642,-0.10186 0.0437,-0.0631 0.0501,-0.16816 h 0.25062 v 2.16987 h 0.49154 z"
           style="stroke-width:0.0827852"
           id="path4290" />
        <path
           d="m 114.656,170.03441 q 0,0.36703 -0.24254,0.59987 -0.24092,0.23121 -0.59178,0.23121 -0.17786,0 -0.32338,-0.055 -0.14552,-0.055 -0.25709,-0.16331 -0.13905,-0.1342 -0.21504,-0.35572 -0.0744,-0.22151 -0.0744,-0.53357 0,-0.32015 0.0679,-0.56753 0.0695,-0.24739 0.2199,-0.4398 0.14228,-0.1827 0.36703,-0.28457 0.22475,-0.10348 0.52388,-0.10348 0.0954,0 0.16007,0.008 0.0647,0.008 0.13097,0.0291 v 0.30883 h -0.0162 q -0.0453,-0.0243 -0.13744,-0.0453 -0.0905,-0.0226 -0.18594,-0.0226 -0.34763,0 -0.5546,0.21828 -0.20696,0.21666 -0.24091,0.58693 0.13582,-0.0825 0.26678,-0.1245 0.13259,-0.0437 0.3056,-0.0437 0.1536,0 0.27002,0.0291 0.11803,0.0275 0.24092,0.11318 0.14228,0.0986 0.21343,0.249 0.0728,0.15037 0.0728,0.36542 z m -0.32823,0.0129 q 0,-0.15037 -0.0453,-0.249 -0.0436,-0.0986 -0.14552,-0.17139 -0.0744,-0.0517 -0.16492,-0.0679 -0.0905,-0.0162 -0.18918,-0.0162 -0.13743,0 -0.25547,0.0323 -0.11803,0.0323 -0.24253,0.10025 -0.003,0.0356 -0.005,0.0695 -0.002,0.0323 -0.002,0.0825 0,0.25547 0.0517,0.40422 0.0534,0.14714 0.14552,0.23283 0.0744,0.0712 0.16008,0.1051 0.0873,0.0323 0.18917,0.0323 0.23445,0 0.36865,-0.14229 0.13421,-0.1439 0.13421,-0.41231 z"
           style="stroke-width:0.0827852"
           id="path4292" />
      </g>
      <g
         aria-label="2017"
         id="text4023"
         style="font-style:normal;font-weight:normal;font-size:3.3114px;line-height:1.25;font-family:sans-serif;fill:#000000;fill-opacity:1;stroke:none;stroke-width:0.0827852">
        <path
           d="m 124.17013,170.81537 h -1.62983 v -0.33793 q 0.16978,-0.14552 0.33955,-0.29104 0.17139,-0.14552 0.31853,-0.28943 0.31044,-0.30074 0.42524,-0.47698 0.1148,-0.17786 0.1148,-0.38321 0,-0.18756 -0.1245,-0.29265 -0.12288,-0.10672 -0.3444,-0.10672 -0.14713,0 -0.31853,0.0517 -0.17139,0.0517 -0.33469,0.15846 h -0.0162 v -0.33955 q 0.1148,-0.0566 0.30559,-0.10348 0.19241,-0.0469 0.37189,-0.0469 0.37027,0 0.58046,0.17947 0.2102,0.17786 0.2102,0.48346 0,0.13743 -0.0356,0.25708 -0.034,0.11804 -0.10187,0.22475 -0.0631,0.10025 -0.14875,0.19726 -0.0841,0.097 -0.20535,0.21505 -0.173,0.16977 -0.35733,0.32984 -0.18433,0.15846 -0.3444,0.29428 h 1.29513 z"
           style="stroke-width:0.0827852"
           id="path4295" />
        <path
           d="m 126.27533,169.61078 q 0,0.64838 -0.20373,0.95235 -0.20211,0.30236 -0.62897,0.30236 -0.43333,0 -0.63382,-0.30721 -0.19888,-0.30721 -0.19888,-0.94426 0,-0.64191 0.20211,-0.9475 0.20211,-0.30721 0.63059,-0.30721 0.43333,0 0.6322,0.31206 0.2005,0.31044 0.2005,0.93941 z m -0.42524,0.73407 q 0.0566,-0.13097 0.076,-0.30721 0.021,-0.17786 0.021,-0.42686 0,-0.24577 -0.021,-0.42686 -0.0194,-0.18109 -0.0776,-0.30721 -0.0566,-0.1245 -0.15522,-0.18756 -0.097,-0.0631 -0.25062,-0.0631 -0.15199,0 -0.25224,0.0631 -0.0986,0.0631 -0.15684,0.1908 -0.055,0.11965 -0.076,0.31206 -0.0194,0.19241 -0.0194,0.42201 0,0.25223 0.0178,0.42201 0.0178,0.16977 0.076,0.30397 0.0534,0.12612 0.15037,0.19241 0.0986,0.0663 0.26032,0.0663 0.15199,0 0.25223,-0.0631 0.10025,-0.0631 0.15523,-0.1908 z"
           style="stroke-width:0.0827852"
           id="path4297" />
        <path
           d="m 128.24956,170.81537 h -1.30322 v -0.24577 h 0.50124 v -1.61366 h -0.50124 v -0.2199 q 0.10187,0 0.21828,-0.0162 0.11642,-0.0178 0.17624,-0.0501 0.0744,-0.0404 0.11642,-0.10186 0.0437,-0.0631 0.0501,-0.16816 h 0.25062 v 2.16987 h 0.49154 z"
           style="stroke-width:0.0827852"
           id="path4299" />
        <path
           d="m 130.50189,168.76838 -1.08978,2.04699 h -0.34602 l 1.15931,-2.1246 h -1.37112 v -0.28296 h 1.64761 z"
           style="stroke-width:0.0827852"
           id="path4301" />
      </g>
      <g
         aria-label="2018"
         id="text4027"
         style="font-style:normal;font-weight:normal;font-size:3.3114px;line-height:1.25;font-family:sans-serif;fill:#000000;fill-opacity:1;stroke:none;stroke-width:0.0827852">
        <path
           d="m 140.04513,170.81537 h -1.62983 v -0.33793 q 0.16978,-0.14552 0.33955,-0.29104 0.17139,-0.14552 0.31853,-0.28943 0.31044,-0.30074 0.42524,-0.47698 0.1148,-0.17786 0.1148,-0.38321 0,-0.18756 -0.1245,-0.29265 -0.12288,-0.10672 -0.3444,-0.10672 -0.14713,0 -0.31853,0.0517 -0.17139,0.0517 -0.33469,0.15846 h -0.0162 v -0.33955 q 0.1148,-0.0566 0.30559,-0.10348 0.19241,-0.0469 0.37189,-0.0469 0.37027,0 0.58046,0.17947 0.2102,0.17786 0.2102,0.48346 0,0.13743 -0.0356,0.25708 -0.034,0.11804 -0.10187,0.22475 -0.0631,0.10025 -0.14875,0.19726 -0.0841,0.097 -0.20535,0.21505 -0.173,0.16977 -0.35733,0.32984 -0.18433,0.15846 -0.3444,0.29428 h 1.29513 z"
           style="stroke-width:0.0827852"
           id="path4304" />
        <path
           d="m 142.15033,169.61078 q 0,0.64838 -0.20373,0.95235 -0.20211,0.30236 -0.62897,0.30236 -0.43333,0 -0.63382,-0.30721 -0.19888,-0.30721 -0.19888,-0.94426 0,-0.64191 0.20211,-0.9475 0.20211,-0.30721 0.63059,-0.30721 0.43333,0 0.6322,0.31206 0.2005,0.31044 0.2005,0.93941 z m -0.42524,0.73407 q 0.0566,-0.13097 0.076,-0.30721 0.021,-0.17786 0.021,-0.42686 0,-0.24577 -0.021,-0.42686 -0.0194,-0.18109 -0.0776,-0.30721 -0.0566,-0.1245 -0.15522,-0.18756 -0.097,-0.0631 -0.25062,-0.0631 -0.15199,0 -0.25224,0.0631 -0.0986,0.0631 -0.15684,0.1908 -0.055,0.11965 -0.076,0.31206 -0.0194,0.19241 -0.0194,0.42201 0,0.25223 0.0178,0.42201 0.0178,0.16977 0.076,0.30397 0.0534,0.12612 0.15037,0.19241 0.0986,0.0663 0.26032,0.0663 0.15199,0 0.25223,-0.0631 0.10025,-0.0631 0.15523,-0.1908 z"
           style="stroke-width:0.0827852"
           id="path4306" />
        <path
           d="m 144.12456,170.81537 h -1.30322 v -0.24577 h 0.50124 v -1.61366 h -0.50124 v -0.2199 q 0.10187,0 0.21828,-0.0162 0.11642,-0.0178 0.17624,-0.0501 0.0744,-0.0404 0.11642,-0.10186 0.0437,-0.0631 0.0501,-0.16816 h 0.25062 v 2.16987 h 0.49154 z"
           style="stroke-width:0.0827852"
           id="path4308" />
        <path
           d="m 146.38821,170.14436 q 0,0.31206 -0.24415,0.51902 -0.24254,0.20696 -0.61119,0.20696 -0.39129,0 -0.62412,-0.20211 -0.23121,-0.20211 -0.23121,-0.5174 0,-0.2005 0.11641,-0.36219 0.11642,-0.16331 0.32823,-0.2587 v -0.01 q -0.19403,-0.10349 -0.28781,-0.22637 -0.0922,-0.12288 -0.0922,-0.30721 0,-0.27164 0.22313,-0.45273 0.22313,-0.18109 0.56753,-0.18109 0.36057,0 0.57562,0.17301 0.21504,0.173 0.21504,0.43979 0,0.16331 -0.10186,0.32176 -0.10186,0.15684 -0.29913,0.24577 v 0.01 q 0.22637,0.097 0.34602,0.2393 0.11965,0.14229 0.11965,0.36219 z m -0.3832,-1.17548 q 0,-0.17301 -0.13421,-0.27488 -0.13258,-0.10348 -0.33954,-0.10348 -0.20373,0 -0.3347,0.097 -0.12935,0.097 -0.12935,0.26193 0,0.11642 0.0647,0.20211 0.0663,0.0841 0.19888,0.15038 0.0598,0.0291 0.17139,0.076 0.11318,0.0469 0.2199,0.0776 0.16007,-0.10671 0.22151,-0.22151 0.0615,-0.1148 0.0615,-0.26517 z m 0.0501,1.2062 q 0,-0.14876 -0.0663,-0.23769 -0.0647,-0.0905 -0.25547,-0.18109 -0.076,-0.0356 -0.16654,-0.0663 -0.0906,-0.0307 -0.24092,-0.0857 -0.14552,0.0792 -0.23445,0.21505 -0.0873,0.13582 -0.0873,0.30721 0,0.21828 0.15037,0.36057 0.15037,0.14229 0.38159,0.14229 0.23606,0 0.37673,-0.12127 0.14229,-0.12127 0.14229,-0.33308 z"
           style="stroke-width:0.0827852"
           id="path4310" />
      </g>
      <g
         aria-label="0.7%"
         id="text3991-0"
         style="font-style:normal;font-weight:normal;font-size:3.31139px;line-height:1.25;font-family:sans-serif;fill:#000000;fill-opacity:1;stroke:none;stroke-width:0.0827852">
        <path
           d="m -2.6139238,161.92416 q 0,0.64837 -0.2037281,0.95234 -0.2021112,0.30236 -0.6289701,0.30236 -0.4333264,0 -0.6338207,-0.30721 -0.1988774,-0.30721 -0.1988774,-0.94426 0,-0.64191 0.2021112,-0.9475 0.2021112,-0.30721 0.6305869,-0.30721 0.4333265,0 0.6322039,0.31206 0.2004943,0.31045 0.2004943,0.93942 z m -0.425242,0.73406 q 0.056591,-0.13096 0.075994,-0.30721 0.02102,-0.17785 0.02102,-0.42685 0,-0.24577 -0.02102,-0.42686 -0.019403,-0.18109 -0.077611,-0.30721 -0.056591,-0.1245 -0.1552214,-0.18756 -0.097013,-0.0631 -0.2506179,-0.0631 -0.1519876,0 -0.2522347,0.0631 -0.09863,0.0631 -0.1568383,0.19079 -0.054974,0.11965 -0.075994,0.31206 -0.019403,0.19241 -0.019403,0.42201 0,0.25223 0.017786,0.42201 0.017786,0.16977 0.075994,0.30397 0.053357,0.12612 0.1503707,0.19241 0.09863,0.0663 0.2603192,0.0663 0.1519877,0 0.2522348,-0.0631 0.1002472,-0.0631 0.1552214,-0.1908 z"
           style="stroke-width:0.0827852"
           id="path4313" />
        <path
           d="M -1.5969004,163.12874 H -1.983337 v -0.46082 h 0.3864366 z"
           style="stroke-width:0.0827852"
           id="path4315" />
        <path
           d="m 0.70716745,161.08176 -1.0897836,2.04698 h -0.34601438 l 1.15930986,-2.12459 h -1.3711224 v -0.28296 h 1.64761052 z"
           style="stroke-width:0.0827852"
           id="path4317" />
        <path
           d="m 2.3483101,161.38897 q 0,0.36218 -0.1536046,0.53842 -0.1519876,0.17624 -0.4397939,0.17624 -0.2942739,0 -0.4446447,-0.17624 -0.1503707,-0.17624 -0.1503707,-0.53681 0,-0.36218 0.1536045,-0.53842 0.1536045,-0.17624 0.4414109,-0.17624 0.292657,0 0.4430277,0.17785 0.1503708,0.17786 0.1503708,0.5352 z m 1.1172707,-0.66778 -1.2611739,2.40755 H 1.9376201 l 1.2611739,-2.40755 z m 0.776107,1.73977 q 0,0.36219 -0.1536045,0.53843 -0.1536045,0.17624 -0.4414109,0.17624 -0.292657,0 -0.4430277,-0.17786 -0.1503708,-0.17786 -0.1503708,-0.53519 0,-0.36218 0.1519877,-0.53842 0.1536045,-0.17625 0.4414108,-0.17625 0.2942739,0 0.4446447,0.17625 0.1503707,0.17624 0.1503707,0.5368 z m -2.1811841,-1.07199 q 0,-0.27811 -0.07276,-0.38806 -0.071143,-0.10995 -0.2328321,-0.10995 -0.1649228,0 -0.2360659,0.10995 -0.071143,0.10995 -0.071143,0.38967 0,0.27972 0.071143,0.38967 0.071143,0.10833 0.2360659,0.10833 0.1616889,0 0.2328321,-0.10833 0.07276,-0.10995 0.07276,-0.39128 z m 1.8933777,1.07199 q 0,-0.2781 -0.07276,-0.38805 -0.071143,-0.10995 -0.2328321,-0.10995 -0.1649227,0 -0.2360659,0.10995 -0.071143,0.10995 -0.071143,0.38967 0,0.27972 0.071143,0.38967 0.071143,0.10833 0.2360659,0.10833 0.161689,0 0.2328321,-0.10833 0.07276,-0.10995 0.07276,-0.39129 z"
           style="stroke-width:0.0827852"
           id="path4319" />
      </g>
      <g
         aria-label="2.9%"
         id="text4077"
         style="font-style:normal;font-weight:normal;font-size:3.31139px;line-height:1.25;font-family:sans-serif;fill:#000000;fill-opacity:1;stroke:none;stroke-width:0.0827852">
        <path
           d="m 13.264309,159.42455 h -1.629824 v -0.33793 q 0.169773,-0.14552 0.339547,-0.29104 0.17139,-0.14552 0.318527,-0.28943 0.310443,-0.30074 0.425242,-0.47698 0.114799,-0.17786 0.114799,-0.3832 0,-0.18756 -0.124501,-0.29266 -0.122883,-0.10672 -0.344397,-0.10672 -0.147137,0 -0.318527,0.0517 -0.171391,0.0517 -0.334696,0.15845 h -0.01617 v -0.33955 q 0.114799,-0.0566 0.305592,-0.10348 0.19241,-0.0469 0.371884,-0.0469 0.370268,0 0.580464,0.17948 0.210195,0.17786 0.210195,0.48345 0,0.13743 -0.03557,0.25708 -0.03396,0.11804 -0.101864,0.22475 -0.06306,0.10025 -0.148754,0.19726 -0.08408,0.097 -0.205345,0.21505 -0.173007,0.16977 -0.357333,0.32984 -0.184325,0.15846 -0.344397,0.29428 h 1.295128 z"
           style="stroke-width:0.0827852"
           id="path4322" />
        <path
           d="m 14.278099,159.42455 h -0.386436 v -0.46082 h 0.386436 z"
           style="stroke-width:0.0827852"
           id="path4324" />
        <path
           d="m 16.572466,158.07606 q 0,0.31529 -0.07276,0.57238 -0.07114,0.25708 -0.216664,0.43818 -0.147137,0.18432 -0.36865,0.28457 -0.221514,0.10025 -0.520639,0.10025 -0.08408,0 -0.158455,-0.01 -0.07438,-0.008 -0.132585,-0.0275 v -0.30883 h 0.01617 q 0.04689,0.0242 0.132585,0.0469 0.08569,0.021 0.190793,0.021 0.357332,0 0.559444,-0.21343 0.203728,-0.21505 0.236065,-0.59178 -0.15037,0.0905 -0.282955,0.12935 -0.132585,0.0388 -0.289423,0.0388 -0.148754,0 -0.270021,-0.0291 -0.11965,-0.0291 -0.240917,-0.11318 -0.142286,-0.0986 -0.215046,-0.25062 -0.07114,-0.15199 -0.07114,-0.3638 0,-0.36865 0.242533,-0.59986 0.242534,-0.23122 0.591782,-0.23122 0.174624,0 0.323378,0.055 0.148754,0.0534 0.260319,0.16169 0.137436,0.13421 0.211813,0.34602 0.07438,0.21019 0.07438,0.54489 z m -0.326612,-0.0695 q 0,-0.25061 -0.05174,-0.4026 -0.05174,-0.15199 -0.142286,-0.23607 -0.07599,-0.0728 -0.163306,-0.10348 -0.08731,-0.0323 -0.189176,-0.0323 -0.232832,0 -0.368651,0.14552 -0.134201,0.14552 -0.134201,0.40908 0,0.1536 0.04366,0.25061 0.04366,0.097 0.147137,0.16978 0.07276,0.0501 0.160072,0.0679 0.08731,0.0162 0.194026,0.0162 0.126118,0 0.255469,-0.034 0.129351,-0.034 0.242533,-0.0986 0.0016,-0.034 0.0032,-0.0663 0.0032,-0.034 0.0032,-0.0857 z"
           style="stroke-width:0.0827852"
           id="path4326" />
        <path
           d="m 18.22331,157.68477 q 0,0.36219 -0.153605,0.53843 -0.151988,0.17624 -0.439794,0.17624 -0.294274,0 -0.444645,-0.17624 -0.15037,-0.17624 -0.15037,-0.53681 0,-0.36218 0.153604,-0.53843 0.153605,-0.17624 0.441411,-0.17624 0.292657,0 0.443028,0.17786 0.150371,0.17786 0.150371,0.53519 z m 1.11727,-0.66777 -1.261174,2.40755 H 17.81262 l 1.261174,-2.40755 z m 0.776107,1.73977 q 0,0.36218 -0.153604,0.53842 -0.153605,0.17625 -0.441411,0.17625 -0.292657,0 -0.443028,-0.17786 -0.150371,-0.17786 -0.150371,-0.53519 0,-0.36219 0.151988,-0.53843 0.153605,-0.17624 0.441411,-0.17624 0.294274,0 0.444645,0.17624 0.15037,0.17624 0.15037,0.53681 z m -2.181184,-1.072 q 0,-0.2781 -0.07276,-0.38805 -0.07114,-0.10995 -0.232832,-0.10995 -0.164923,0 -0.236066,0.10995 -0.07114,0.10995 -0.07114,0.38967 0,0.27972 0.07114,0.38967 0.07114,0.10833 0.236066,0.10833 0.161689,0 0.232832,-0.10833 0.07276,-0.10995 0.07276,-0.39129 z m 1.893378,1.072 q 0,-0.27811 -0.07276,-0.38805 -0.07114,-0.10995 -0.232832,-0.10995 -0.164923,0 -0.236066,0.10995 -0.07114,0.10994 -0.07114,0.38967 0,0.27972 0.07114,0.38967 0.07114,0.10833 0.236066,0.10833 0.161689,0 0.232832,-0.10833 0.07276,-0.10995 0.07276,-0.39129 z"
           style="stroke-width:0.0827852"
           id="path4328" />
      </g>
      <g
         aria-label="6.1%"
         id="text4081"
         style="font-style:normal;font-weight:normal;font-size:3.31139px;line-height:1.25;font-family:sans-serif;fill:#000000;fill-opacity:1;stroke:none;stroke-width:0.0827852">
        <path
           d="m 29.17488,153.35199 q 0,0.36704 -0.242533,0.59987 -0.240917,0.23121 -0.591782,0.23121 -0.177858,0 -0.323378,-0.055 -0.14552,-0.055 -0.257085,-0.16331 -0.139053,-0.1342 -0.215047,-0.35571 -0.07438,-0.22152 -0.07438,-0.53358 0,-0.32014 0.06791,-0.56752 0.06953,-0.24739 0.219897,-0.4398 0.142286,-0.18271 0.367034,-0.28457 0.224747,-0.10348 0.523872,-0.10348 0.0954,0 0.160072,0.008 0.06468,0.008 0.130968,0.0291 v 0.30882 h -0.01617 q -0.04527,-0.0242 -0.137435,-0.0453 -0.09055,-0.0226 -0.185943,-0.0226 -0.347631,0 -0.554593,0.21828 -0.206962,0.21667 -0.240916,0.58693 0.135818,-0.0825 0.266786,-0.1245 0.132585,-0.0436 0.305593,-0.0436 0.153604,0 0.27002,0.0291 0.118033,0.0275 0.240917,0.11318 0.142286,0.0986 0.213429,0.24901 0.07276,0.15037 0.07276,0.36541 z m -0.328228,0.0129 q 0,-0.15037 -0.04527,-0.249 -0.04366,-0.0986 -0.14552,-0.17139 -0.07438,-0.0517 -0.164923,-0.0679 -0.09055,-0.0162 -0.189176,-0.0162 -0.137436,0 -0.255469,0.0323 -0.118033,0.0323 -0.242533,0.10024 -0.0032,0.0356 -0.0049,0.0695 -0.0016,0.0323 -0.0016,0.0825 0,0.25547 0.05174,0.40422 0.05336,0.14714 0.14552,0.23283 0.07438,0.0711 0.160072,0.1051 0.08731,0.0323 0.189176,0.0323 0.234449,0 0.368651,-0.14229 0.134202,-0.1439 0.134202,-0.4123 z"
           style="stroke-width:0.0827852"
           id="path4331" />
        <path
           d="m 30.153098,154.13295 h -0.386436 v -0.46081 h 0.386436 z"
           style="stroke-width:0.0827852"
           id="path4333" />
        <path
           d="M 32.313263,154.13295 H 31.01005 v -0.24577 h 0.501236 v -1.61365 H 31.01005 v -0.2199 q 0.101864,0 0.21828,-0.0162 0.116416,-0.0178 0.176241,-0.0501 0.07438,-0.0404 0.116416,-0.10187 0.04366,-0.0631 0.05012,-0.16815 h 0.250617 v 2.16986 h 0.491535 z"
           style="stroke-width:0.0827852"
           id="path4335" />
        <path
           d="m 34.098309,152.39318 q 0,0.36218 -0.153605,0.53842 -0.151988,0.17624 -0.439794,0.17624 -0.294274,0 -0.444644,-0.17624 -0.150371,-0.17624 -0.150371,-0.53681 0,-0.36218 0.153604,-0.53842 0.153605,-0.17624 0.441411,-0.17624 0.292657,0 0.443028,0.17786 0.150371,0.17785 0.150371,0.53519 z m 1.11727,-0.66778 -1.261174,2.40755 h -0.266786 l 1.261174,-2.40755 z m 0.776107,1.73977 q 0,0.36219 -0.153604,0.53843 -0.153605,0.17624 -0.441411,0.17624 -0.292657,0 -0.443028,-0.17786 -0.15037,-0.17786 -0.15037,-0.53519 0,-0.36218 0.151987,-0.53842 0.153605,-0.17624 0.441411,-0.17624 0.294274,0 0.444645,0.17624 0.15037,0.17624 0.15037,0.5368 z m -2.181184,-1.07199 q 0,-0.27811 -0.07276,-0.38806 -0.07114,-0.10995 -0.232832,-0.10995 -0.164923,0 -0.236066,0.10995 -0.07114,0.10995 -0.07114,0.38967 0,0.27973 0.07114,0.38967 0.07114,0.10834 0.236066,0.10834 0.161689,0 0.232832,-0.10834 0.07276,-0.10994 0.07276,-0.39128 z m 1.893378,1.07199 q 0,-0.2781 -0.07276,-0.38805 -0.07114,-0.10995 -0.232832,-0.10995 -0.164923,0 -0.236066,0.10995 -0.07114,0.10995 -0.07114,0.38967 0,0.27972 0.07114,0.38967 0.07114,0.10833 0.236066,0.10833 0.161689,0 0.232832,-0.10833 0.07276,-0.10995 0.07276,-0.39129 z"
           style="stroke-width:0.0827852"
           id="path4337" />
      </g>
      <g
         aria-label="10.7%"
         id="text4085"
         style="font-style:normal;font-weight:normal;font-size:3.31139px;line-height:1.25;font-family:sans-serif;fill:#000000;fill-opacity:1;stroke:none;stroke-width:0.0827852">
        <path
           d="m 43.330616,146.72464 h -1.303213 v -0.24577 h 0.501236 v -1.61365 h -0.501236 v -0.2199 q 0.101864,0 0.21828,-0.0162 0.116416,-0.0178 0.176241,-0.0501 0.07438,-0.0404 0.116416,-0.10187 0.04366,-0.0631 0.05012,-0.16815 h 0.250617 v 2.16986 h 0.491535 z"
           style="stroke-width:0.0827852"
           id="path4340" />
        <path
           d="m 45.573242,145.52006 q 0,0.64837 -0.203728,0.95235 -0.202112,0.30235 -0.62897,0.30235 -0.433327,0 -0.633821,-0.30721 -0.198878,-0.3072 -0.198878,-0.94426 0,-0.6419 0.202112,-0.9475 0.202111,-0.30721 0.630587,-0.30721 0.433326,0 0.632203,0.31206 0.200495,0.31045 0.200495,0.93942 z M 45.148,146.25413 q 0.05659,-0.13097 0.07599,-0.30721 0.02102,-0.17786 0.02102,-0.42686 0,-0.24577 -0.02102,-0.42686 -0.0194,-0.18109 -0.07761,-0.30721 -0.05659,-0.1245 -0.155222,-0.18756 -0.09701,-0.0631 -0.250617,-0.0631 -0.151988,0 -0.252235,0.0631 -0.09863,0.0631 -0.156839,0.19079 -0.05497,0.11965 -0.07599,0.31206 -0.0194,0.19241 -0.0194,0.42201 0,0.25224 0.01779,0.42201 0.01779,0.16977 0.07599,0.30397 0.05336,0.12612 0.15037,0.19241 0.09863,0.0663 0.26032,0.0663 0.151987,0 0.252234,-0.0631 0.100247,-0.0631 0.155222,-0.19079 z"
           style="stroke-width:0.0827852"
           id="path4342" />
        <path
           d="m 46.590265,146.72464 h -0.386436 v -0.46081 h 0.386436 z"
           style="stroke-width:0.0827852"
           id="path4344" />
        <path
           d="m 48.894333,144.67766 -1.089784,2.04698 h -0.346014 l 1.15931,-2.12459 h -1.371123 v -0.28296 h 1.647611 z"
           style="stroke-width:0.0827852"
           id="path4346" />
        <path
           d="m 50.535476,144.98487 q 0,0.36218 -0.153605,0.53842 -0.151987,0.17624 -0.439794,0.17624 -0.294274,0 -0.444644,-0.17624 -0.150371,-0.17624 -0.150371,-0.53681 0,-0.36218 0.153604,-0.53842 0.153605,-0.17624 0.441411,-0.17624 0.292657,0 0.443028,0.17786 0.150371,0.17785 0.150371,0.53519 z m 1.117271,-0.66778 -1.261174,2.40755 h -0.266787 l 1.261174,-2.40755 z m 0.776107,1.73977 q 0,0.36219 -0.153605,0.53843 -0.153604,0.17624 -0.441411,0.17624 -0.292657,0 -0.443028,-0.17786 -0.15037,-0.17786 -0.15037,-0.53519 0,-0.36218 0.151987,-0.53842 0.153605,-0.17624 0.441411,-0.17624 0.294274,0 0.444645,0.17624 0.150371,0.17624 0.150371,0.5368 z m -2.181185,-1.07199 q 0,-0.27811 -0.07276,-0.38806 -0.07114,-0.10995 -0.232832,-0.10995 -0.164922,0 -0.236066,0.10995 -0.07114,0.10995 -0.07114,0.38967 0,0.27973 0.07114,0.38967 0.07114,0.10834 0.236066,0.10834 0.161689,0 0.232832,-0.10834 0.07276,-0.10994 0.07276,-0.39128 z m 1.893378,1.07199 q 0,-0.2781 -0.07276,-0.38805 -0.07114,-0.10995 -0.232832,-0.10995 -0.164923,0 -0.236066,0.10995 -0.07114,0.10995 -0.07114,0.38967 0,0.27972 0.07114,0.38967 0.07114,0.10833 0.236066,0.10833 0.161689,0 0.232832,-0.10833 0.07276,-0.10995 0.07276,-0.39129 z"
           style="stroke-width:0.0827852"
           id="path4348" />
      </g>
      <g
         aria-label="16.2%"
         id="text4089"
         style="font-style:normal;font-weight:normal;font-size:3.31139px;line-height:1.25;font-family:sans-serif;fill:#000000;fill-opacity:1;stroke:none;stroke-width:0.0827852">
        <path
           d="m 59.20562,137.72878 h -1.303213 v -0.24577 h 0.501235 v -1.61366 h -0.501235 v -0.2199 q 0.101864,0 0.21828,-0.0162 0.116416,-0.0178 0.176241,-0.0501 0.07438,-0.0404 0.116416,-0.10186 0.04366,-0.0631 0.05012,-0.16816 h 0.250618 v 2.16987 h 0.491535 z"
           style="stroke-width:0.0827852"
           id="path4351" />
        <path
           d="m 61.487051,136.94782 q 0,0.36703 -0.242534,0.59986 -0.240916,0.23122 -0.591781,0.23122 -0.177858,0 -0.323378,-0.055 -0.14552,-0.055 -0.257086,-0.1633 -0.139052,-0.1342 -0.215046,-0.35572 -0.07438,-0.22151 -0.07438,-0.53357 0,-0.32014 0.06791,-0.56753 0.06953,-0.24738 0.219897,-0.43979 0.142286,-0.18271 0.367033,-0.28458 0.224748,-0.10348 0.523873,-0.10348 0.0954,0 0.160072,0.008 0.06468,0.008 0.130968,0.0291 v 0.30883 h -0.01617 q -0.04527,-0.0243 -0.137436,-0.0453 -0.09054,-0.0226 -0.185942,-0.0226 -0.347631,0 -0.554593,0.21828 -0.206962,0.21666 -0.240917,0.58693 0.135819,-0.0825 0.266787,-0.1245 0.132585,-0.0437 0.305592,-0.0437 0.153605,0 0.270021,0.0291 0.118033,0.0275 0.240916,0.11318 0.142287,0.0986 0.21343,0.249 0.07276,0.15037 0.07276,0.36542 z m -0.328229,0.0129 q 0,-0.15037 -0.04527,-0.249 -0.04366,-0.0986 -0.14552,-0.17139 -0.07438,-0.0517 -0.164922,-0.0679 -0.09055,-0.0162 -0.189177,-0.0162 -0.137435,0 -0.255468,0.0323 -0.118033,0.0323 -0.242534,0.10025 -0.0032,0.0356 -0.0048,0.0695 -0.0016,0.0323 -0.0016,0.0825 0,0.25546 0.05174,0.40422 0.05336,0.14713 0.14552,0.23283 0.07438,0.0711 0.160073,0.1051 0.08731,0.0323 0.189176,0.0323 0.234449,0 0.36865,-0.14229 0.134202,-0.1439 0.134202,-0.41231 z"
           style="stroke-width:0.0827852"
           id="path4353" />
        <path
           d="m 62.465269,137.72878 h -0.386437 v -0.46082 h 0.386437 z"
           style="stroke-width:0.0827852"
           id="path4355" />
        <path
           d="m 64.762869,137.72878 h -1.629825 v -0.33793 q 0.169774,-0.14552 0.339547,-0.29105 0.17139,-0.14552 0.318527,-0.28942 0.310443,-0.30074 0.425242,-0.47698 0.114799,-0.17786 0.114799,-0.3832 0,-0.18756 -0.1245,-0.29266 -0.122884,-0.10672 -0.344398,-0.10672 -0.147137,0 -0.318527,0.0517 -0.17139,0.0517 -0.334696,0.15845 h -0.01617 v -0.33955 q 0.114799,-0.0566 0.305592,-0.10348 0.19241,-0.0469 0.371885,-0.0469 0.370268,0 0.580463,0.17948 0.210196,0.17786 0.210196,0.48345 0,0.13743 -0.03557,0.25708 -0.03395,0.11804 -0.101864,0.22475 -0.06306,0.10025 -0.148754,0.19726 -0.08408,0.097 -0.205345,0.21505 -0.173007,0.16977 -0.357332,0.32984 -0.184326,0.15846 -0.344398,0.29428 h 1.295129 z"
           style="stroke-width:0.0827852"
           id="path4357" />
        <path
           d="m 66.41048,135.989 q 0,0.36219 -0.153605,0.53843 -0.151988,0.17624 -0.439794,0.17624 -0.294274,0 -0.444645,-0.17624 -0.15037,-0.17624 -0.15037,-0.53681 0,-0.36218 0.153604,-0.53843 0.153605,-0.17624 0.441411,-0.17624 0.292657,0 0.443028,0.17786 0.150371,0.17786 0.150371,0.53519 z m 1.11727,-0.66777 -1.261174,2.40755 H 65.99979 l 1.261174,-2.40755 z m 0.776107,1.73977 q 0,0.36218 -0.153604,0.53842 -0.153605,0.17624 -0.441411,0.17624 -0.292657,0 -0.443028,-0.17785 -0.150371,-0.17786 -0.150371,-0.53519 0,-0.36219 0.151988,-0.53843 0.153605,-0.17624 0.441411,-0.17624 0.294274,0 0.444645,0.17624 0.15037,0.17624 0.15037,0.53681 z m -2.181184,-1.072 q 0,-0.2781 -0.07276,-0.38805 -0.07114,-0.10995 -0.232832,-0.10995 -0.164923,0 -0.236066,0.10995 -0.07114,0.10995 -0.07114,0.38967 0,0.27972 0.07114,0.38967 0.07114,0.10833 0.236066,0.10833 0.161689,0 0.232832,-0.10833 0.07276,-0.10995 0.07276,-0.39129 z m 1.893378,1.072 q 0,-0.27811 -0.07276,-0.38805 -0.07114,-0.10995 -0.232832,-0.10995 -0.164923,0 -0.236066,0.10995 -0.07114,0.10994 -0.07114,0.38967 0,0.27972 0.07114,0.38967 0.07114,0.10833 0.236066,0.10833 0.161689,0 0.232832,-0.10833 0.07276,-0.10995 0.07276,-0.39129 z"
           style="stroke-width:0.0827852"
           id="path4359" />
      </g>
      <g
         aria-label="27.1%"
         id="text4093"
         style="font-style:normal;font-weight:normal;font-size:3.31139px;line-height:1.25;font-family:sans-serif;fill:#000000;fill-opacity:1;stroke:none;stroke-width:0.0827852">
        <path
           d="m 75.312637,119.73713 h -1.629825 v -0.33793 q 0.169774,-0.14552 0.339547,-0.29104 0.17139,-0.14552 0.318527,-0.28942 0.310443,-0.30075 0.425242,-0.47699 0.114799,-0.17785 0.114799,-0.3832 0,-0.18756 -0.1245,-0.29266 -0.122884,-0.10671 -0.344398,-0.10671 -0.147137,0 -0.318527,0.0517 -0.17139,0.0517 -0.334696,0.15845 h -0.01617 v -0.33954 q 0.114799,-0.0566 0.305592,-0.10348 0.19241,-0.0469 0.371885,-0.0469 0.370268,0 0.580463,0.17947 0.210196,0.17786 0.210196,0.48345 0,0.13744 -0.03557,0.25709 -0.03395,0.11803 -0.101864,0.22474 -0.06306,0.10025 -0.148754,0.19727 -0.08408,0.097 -0.205345,0.21504 -0.173007,0.16978 -0.357332,0.32985 -0.184326,0.15845 -0.344398,0.29427 h 1.295129 z"
           style="stroke-width:0.0827852"
           id="path4362" />
        <path
           d="m 77.427528,117.69015 -1.089783,2.04698 H 75.99173 l 1.15931,-2.12459 h -1.371122 v -0.28296 h 1.64761 z"
           style="stroke-width:0.0827852"
           id="path4364" />
        <path
           d="m 78.434851,119.73713 h -0.386437 v -0.46081 h 0.386437 z"
           style="stroke-width:0.0827852"
           id="path4366" />
        <path
           d="m 80.595015,119.73713 h -1.303213 v -0.24577 h 0.501236 v -1.61365 h -0.501236 v -0.2199 q 0.101864,0 0.21828,-0.0162 0.116416,-0.0178 0.176241,-0.0501 0.07438,-0.0404 0.116416,-0.10187 0.04366,-0.0631 0.05012,-0.16815 h 0.250618 v 2.16986 h 0.491534 z"
           style="stroke-width:0.0827852"
           id="path4368" />
        <path
           d="m 82.380061,117.99736 q 0,0.36218 -0.153604,0.53842 -0.151988,0.17624 -0.439794,0.17624 -0.294274,0 -0.444645,-0.17624 -0.150371,-0.17624 -0.150371,-0.53681 0,-0.36218 0.153605,-0.53842 0.153604,-0.17624 0.441411,-0.17624 0.292657,0 0.443027,0.17786 0.150371,0.17785 0.150371,0.53519 z m 1.117271,-0.66778 -1.261174,2.40755 h -0.266787 l 1.261174,-2.40755 z m 0.776107,1.73977 q 0,0.36219 -0.153605,0.53843 -0.153604,0.17624 -0.44141,0.17624 -0.292657,0 -0.443028,-0.17786 -0.150371,-0.17786 -0.150371,-0.53519 0,-0.36218 0.151988,-0.53842 0.153604,-0.17624 0.441411,-0.17624 0.294273,0 0.444644,0.17624 0.150371,0.17624 0.150371,0.5368 z m -2.181184,-1.07199 q 0,-0.27811 -0.07276,-0.38806 -0.07114,-0.10995 -0.232832,-0.10995 -0.164923,0 -0.236066,0.10995 -0.07114,0.10995 -0.07114,0.38967 0,0.27972 0.07114,0.38967 0.07114,0.10833 0.236066,0.10833 0.161689,0 0.232832,-0.10833 0.07276,-0.10995 0.07276,-0.39128 z m 1.893378,1.07199 q 0,-0.2781 -0.07276,-0.38805 -0.07114,-0.10995 -0.232833,-0.10995 -0.164922,0 -0.236065,0.10995 -0.07114,0.10995 -0.07114,0.38967 0,0.27972 0.07114,0.38967 0.07114,0.10833 0.236065,0.10833 0.161689,0 0.232833,-0.10833 0.07276,-0.10995 0.07276,-0.39129 z"
           style="stroke-width:0.0827852"
           id="path4370" />
      </g>
      <g
         aria-label="35.1%"
         id="text4097"
         style="font-style:normal;font-weight:normal;font-size:3.31139px;line-height:1.25;font-family:sans-serif;fill:#000000;fill-opacity:1;stroke:none;stroke-width:0.0827852">
        <path
           d="m 90.970964,105.34867 q 0.07761,0.0695 0.127735,0.17462 0.05012,0.1051 0.05012,0.27164 0,0.16492 -0.05982,0.30236 -0.05983,0.13744 -0.168156,0.2393 -0.121267,0.11318 -0.28619,0.16816 -0.163305,0.0533 -0.358949,0.0533 -0.200494,0 -0.394521,-0.0485 -0.194027,-0.0469 -0.318527,-0.10348 v -0.33793 h 0.02425 q 0.137436,0.0905 0.323378,0.15037 0.185942,0.0598 0.358949,0.0598 0.101864,0 0.216664,-0.034 0.114799,-0.034 0.185942,-0.10025 0.07438,-0.0711 0.109948,-0.15684 0.03719,-0.0857 0.03719,-0.21666 0,-0.12935 -0.04204,-0.21343 -0.04042,-0.0857 -0.113183,-0.1342 -0.07276,-0.0501 -0.176241,-0.0679 -0.10348,-0.0194 -0.22313,-0.0194 h -0.14552 v -0.26841 h 0.113182 q 0.245767,0 0.391287,-0.10186 0.147137,-0.10348 0.147137,-0.30074 0,-0.0873 -0.03719,-0.15199 -0.03719,-0.0663 -0.103481,-0.10833 -0.06953,-0.042 -0.148754,-0.0582 -0.07923,-0.0162 -0.179475,-0.0162 -0.153604,0 -0.326612,0.055 -0.173007,0.055 -0.326611,0.15523 h -0.01617 v -0.33793 q 0.114799,-0.0566 0.305592,-0.10349 0.19241,-0.0485 0.371885,-0.0485 0.176241,0 0.310442,0.0323 0.134202,0.0323 0.242534,0.10348 0.116416,0.0776 0.176241,0.18756 0.05982,0.10994 0.05982,0.25708 0,0.2005 -0.142287,0.35087 -0.140669,0.14875 -0.333079,0.18756 v 0.0226 q 0.07761,0.0129 0.177858,0.055 0.100247,0.0404 0.169773,0.10186 z"
           style="stroke-width:0.0827852"
           id="path4373" />
        <path
           d="m 93.271798,105.74319 q 0,0.16816 -0.06144,0.32176 -0.06144,0.15361 -0.168156,0.2587 -0.116416,0.11319 -0.278105,0.17463 -0.160072,0.0598 -0.371885,0.0598 -0.19726,0 -0.379969,-0.042 -0.182708,-0.0404 -0.308826,-0.0986 v -0.34116 h 0.02264 q 0.132585,0.0841 0.310443,0.1439 0.177857,0.0582 0.349248,0.0582 0.114799,0 0.221514,-0.0323 0.108331,-0.0323 0.19241,-0.11318 0.07114,-0.0695 0.106714,-0.16654 0.03719,-0.097 0.03719,-0.22475 0,-0.1245 -0.04366,-0.21019 -0.04204,-0.0857 -0.118033,-0.13744 -0.08408,-0.0614 -0.205345,-0.0857 -0.11965,-0.0259 -0.268404,-0.0259 -0.142286,0 -0.274871,0.0194 -0.130968,0.0194 -0.226365,0.0388 v -1.24016 h 1.448733 v 0.28296 h -1.136673 v 0.64029 q 0.06953,-0.006 0.142286,-0.01 0.07276,-0.003 0.126118,-0.003 0.195643,0 0.34278,0.034 0.147137,0.0323 0.270021,0.11641 0.129351,0.0889 0.200494,0.2296 0.07114,0.14067 0.07114,0.35248 z"
           style="stroke-width:0.0827852"
           id="path4375" />
        <path
           d="m 94.304991,106.50798 h -0.386437 v -0.46081 h 0.386437 z"
           style="stroke-width:0.0827852"
           id="path4377" />
        <path
           d="m 96.465155,106.50798 h -1.303213 v -0.24577 h 0.501236 v -1.61365 h -0.501236 v -0.2199 q 0.101864,0 0.21828,-0.0162 0.116416,-0.0178 0.176241,-0.0501 0.07438,-0.0404 0.116416,-0.10187 0.04366,-0.063 0.05012,-0.16815 h 0.250618 v 2.16986 h 0.491534 z"
           style="stroke-width:0.0827852"
           id="path4379" />
        <path
           d="m 98.250201,104.76821 q 0,0.36218 -0.153604,0.53842 -0.151988,0.17624 -0.439794,0.17624 -0.294274,0 -0.444645,-0.17624 -0.150371,-0.17624 -0.150371,-0.53681 0,-0.36218 0.153605,-0.53842 0.153604,-0.17624 0.441411,-0.17624 0.292657,0 0.443028,0.17786 0.15037,0.17785 0.15037,0.53519 z m 1.117271,-0.66778 -1.261174,2.40755 h -0.266787 l 1.261174,-2.40755 z m 0.776108,1.73977 q 0,0.36219 -0.153605,0.53843 -0.153605,0.17624 -0.441411,0.17624 -0.292657,0 -0.443028,-0.17786 -0.150371,-0.17786 -0.150371,-0.53519 0,-0.36218 0.151988,-0.53842 0.153604,-0.17624 0.441411,-0.17624 0.294274,0 0.444644,0.17624 0.150372,0.17624 0.150372,0.5368 z m -2.181185,-1.07199 q 0,-0.27811 -0.07276,-0.38806 -0.07114,-0.10994 -0.232832,-0.10994 -0.164923,0 -0.236066,0.10994 -0.07114,0.10995 -0.07114,0.38967 0,0.27973 0.07114,0.38967 0.07114,0.10834 0.236066,0.10834 0.161689,0 0.232832,-0.10834 0.07276,-0.10994 0.07276,-0.39128 z m 1.893378,1.07199 q 0,-0.2781 -0.07276,-0.38805 -0.07114,-0.10995 -0.232832,-0.10995 -0.164923,0 -0.236066,0.10995 -0.07114,0.10995 -0.07114,0.38967 0,0.27972 0.07114,0.38967 0.07114,0.10833 0.236066,0.10833 0.161689,0 0.232832,-0.10833 0.07276,-0.10995 0.07276,-0.39129 z"
           style="stroke-width:0.0827852"
           id="path4381" />
      </g>
      <g
         aria-label="43.6%"
         id="text4101"
         style="font-style:normal;font-weight:normal;font-size:3.31139px;line-height:1.25;font-family:sans-serif;fill:#000000;fill-opacity:1;stroke:none;stroke-width:0.0827852">
        <path
           d="m 107.18551,91.543013 h -0.35734 v 0.677477 h -0.31044 v -0.677477 h -1.15284 v -0.371885 l 1.16577,-1.358187 h 0.29751 v 1.471369 h 0.35734 z m -0.66778,-0.258703 v -1.086549 l -0.93295,1.086549 z"
           style="stroke-width:0.0827852"
           id="path4384" />
        <path
           d="m 109.02714,91.06118 q 0.0776,0.06953 0.12774,0.174624 0.0501,0.105098 0.0501,0.271637 0,0.164923 -0.0598,0.302359 -0.0598,0.137435 -0.16816,0.239299 -0.12127,0.113182 -0.28619,0.168157 -0.16331,0.05336 -0.35895,0.05336 -0.20049,0 -0.39452,-0.04851 -0.19403,-0.04689 -0.31853,-0.103481 v -0.337929 h 0.0242 q 0.13744,0.09054 0.32338,0.15037 0.18595,0.05983 0.35895,0.05983 0.10187,0 0.21667,-0.03396 0.11479,-0.03395 0.18594,-0.100247 0.0744,-0.07114 0.10995,-0.156838 0.0372,-0.0857 0.0372,-0.216663 0,-0.129351 -0.042,-0.21343 -0.0404,-0.0857 -0.11319,-0.134201 -0.0728,-0.05012 -0.17624,-0.06791 -0.10348,-0.0194 -0.22313,-0.0194 h -0.14552 v -0.268404 h 0.11318 q 0.24577,0 0.39129,-0.101864 0.14714,-0.103481 0.14714,-0.300742 0,-0.08731 -0.0372,-0.151987 -0.0372,-0.06629 -0.10348,-0.108332 -0.0695,-0.04204 -0.14876,-0.05821 -0.0792,-0.01617 -0.17947,-0.01617 -0.1536,0 -0.32661,0.05497 -0.17301,0.05497 -0.32661,0.155222 h -0.0162 V 89.9148 q 0.1148,-0.05659 0.30559,-0.103481 0.19241,-0.04851 0.37188,-0.04851 0.17625,0 0.31045,0.03234 0.1342,0.03234 0.24253,0.103481 0.11642,0.07761 0.17624,0.187559 0.0598,0.109949 0.0598,0.257086 0,0.200494 -0.14229,0.350865 -0.14067,0.148754 -0.33308,0.187559 v 0.02264 q 0.0776,0.01293 0.17786,0.05497 0.10025,0.04042 0.16977,0.101864 z"
           style="stroke-width:0.0827852"
           id="path4386" />
        <path
           d="m 110.25274,92.22049 h -0.38643 v -0.460814 h 0.38643 z"
           style="stroke-width:0.0827852"
           id="path4388" />
        <path
           d="m 112.58592,91.439532 q 0,0.367034 -0.24254,0.599866 -0.24091,0.231215 -0.59178,0.231215 -0.17786,0 -0.32338,-0.05497 -0.14552,-0.05497 -0.25708,-0.163306 -0.13905,-0.134202 -0.21505,-0.355716 -0.0744,-0.221514 -0.0744,-0.533573 0,-0.320144 0.0679,-0.567529 0.0695,-0.247384 0.2199,-0.439794 0.14229,-0.182708 0.36703,-0.284572 0.22475,-0.103481 0.52388,-0.103481 0.0954,0 0.16007,0.0081 0.0647,0.0081 0.13097,0.0291 v 0.308826 h -0.0162 q -0.0453,-0.02425 -0.13744,-0.04527 -0.0905,-0.02264 -0.18594,-0.02264 -0.34763,0 -0.55459,0.21828 -0.20696,0.216663 -0.24092,0.586931 0.13582,-0.08246 0.26679,-0.1245 0.13258,-0.04366 0.30559,-0.04366 0.1536,0 0.27002,0.0291 0.11803,0.02749 0.24092,0.113183 0.14228,0.09863 0.21343,0.249001 0.0728,0.150371 0.0728,0.365417 z m -0.32823,0.01293 q 0,-0.150371 -0.0453,-0.249001 -0.0436,-0.09863 -0.14552,-0.17139 -0.0744,-0.05174 -0.16492,-0.06791 -0.0905,-0.01617 -0.18917,-0.01617 -0.13744,0 -0.25547,0.03234 -0.11804,0.03234 -0.24254,0.100247 -0.003,0.03557 -0.005,0.06953 -0.002,0.03234 -0.002,0.08246 0,0.255469 0.0517,0.404222 0.0533,0.147137 0.14552,0.232832 0.0744,0.07114 0.16007,0.105098 0.0873,0.03234 0.18917,0.03234 0.23445,0 0.36866,-0.142286 0.1342,-0.143903 0.1342,-0.412307 z"
           style="stroke-width:0.0827852"
           id="path4390" />
        <path
           d="m 114.19796,90.480716 q 0,0.362184 -0.15361,0.538425 -0.15199,0.17624 -0.43979,0.17624 -0.29428,0 -0.44465,-0.17624 -0.15037,-0.176241 -0.15037,-0.536808 0,-0.362183 0.15361,-0.538424 0.1536,-0.176241 0.44141,-0.176241 0.29265,0 0.44302,0.177858 0.15038,0.177858 0.15038,0.53519 z m 1.11727,-0.667775 -1.26118,2.407549 h -0.26678 l 1.26117,-2.407549 z m 0.7761,1.739773 q 0,0.362183 -0.1536,0.538424 -0.15361,0.176241 -0.44141,0.176241 -0.29266,0 -0.44303,-0.177858 -0.15037,-0.177857 -0.15037,-0.53519 0,-0.362183 0.15199,-0.538424 0.1536,-0.176241 0.44141,-0.176241 0.29427,0 0.44464,0.176241 0.15037,0.176241 0.15037,0.536807 z m -2.18118,-1.071998 q 0,-0.278105 -0.0728,-0.388053 -0.0711,-0.109949 -0.23283,-0.109949 -0.16493,0 -0.23607,0.109949 -0.0711,0.109948 -0.0711,0.38967 0,0.279722 0.0711,0.389671 0.0711,0.108331 0.23607,0.108331 0.16169,0 0.23283,-0.108331 0.0728,-0.109949 0.0728,-0.391288 z m 1.89338,1.071998 q 0,-0.278105 -0.0728,-0.388053 -0.0712,-0.109949 -0.23284,-0.109949 -0.16492,0 -0.23606,0.109949 -0.0711,0.109948 -0.0711,0.38967 0,0.279722 0.0711,0.38967 0.0711,0.108332 0.23606,0.108332 0.16169,0 0.23284,-0.108332 0.0728,-0.109948 0.0728,-0.391287 z"
           style="stroke-width:0.0827852"
           id="path4392" />
      </g>
      <g
         aria-label="50.3%"
         id="text4105"
         style="font-style:normal;font-weight:normal;font-size:3.31139px;line-height:1.25;font-family:sans-serif;fill:#000000;fill-opacity:1;stroke:none;stroke-width:0.0827852">
        <path
           d="m 122.8972,80.343205 q 0,0.168157 -0.0614,0.321761 -0.0614,0.153605 -0.16816,0.258703 -0.11641,0.113182 -0.2781,0.174624 -0.16008,0.05983 -0.37189,0.05983 -0.19726,0 -0.37997,-0.04204 -0.18271,-0.04042 -0.30882,-0.09863 V 80.67629 h 0.0226 q 0.13259,0.08408 0.31045,0.143903 0.17785,0.05821 0.34924,0.05821 0.1148,0 0.22152,-0.03234 0.10833,-0.03234 0.19241,-0.113182 0.0711,-0.06953 0.10671,-0.16654 0.0372,-0.09701 0.0372,-0.224748 0,-0.1245 -0.0436,-0.210195 -0.042,-0.0857 -0.11804,-0.137436 -0.0841,-0.06144 -0.20534,-0.0857 -0.11965,-0.02587 -0.26841,-0.02587 -0.14228,0 -0.27487,0.0194 -0.13097,0.0194 -0.22636,0.03881 v -1.240155 h 1.44873 v 0.282956 h -1.13667 v 0.640288 q 0.0695,-0.0065 0.14228,-0.0097 0.0728,-0.0032 0.12612,-0.0032 0.19565,0 0.34278,0.03396 0.14714,0.03234 0.27002,0.116416 0.12935,0.08893 0.2005,0.229598 0.0711,0.14067 0.0711,0.352482 z"
           style="stroke-width:0.0827852"
           id="path4395" />
        <path
           d="m 125.02179,79.903411 q 0,0.648373 -0.20373,0.952348 -0.20211,0.302359 -0.62897,0.302359 -0.43332,0 -0.63382,-0.307209 -0.19887,-0.307209 -0.19887,-0.944264 0,-0.641905 0.20211,-0.947497 0.20211,-0.307209 0.63058,-0.307209 0.43333,0 0.63221,0.312059 0.20049,0.310443 0.20049,0.939413 z m -0.42524,0.734068 q 0.0566,-0.130968 0.076,-0.307209 0.021,-0.177858 0.021,-0.426859 0,-0.245767 -0.021,-0.426859 -0.0194,-0.181091 -0.0776,-0.307209 -0.0566,-0.1245 -0.15522,-0.187559 -0.097,-0.06306 -0.25062,-0.06306 -0.15198,0 -0.25223,0.06306 -0.0986,0.06306 -0.15684,0.190793 -0.055,0.11965 -0.076,0.31206 -0.0194,0.19241 -0.0194,0.422008 0,0.252235 0.0178,0.422008 0.0178,0.169774 0.076,0.303976 0.0534,0.126117 0.15038,0.192409 0.0986,0.06629 0.26031,0.06629 0.15199,0 0.25224,-0.06306 0.10025,-0.06306 0.15522,-0.190793 z"
           style="stroke-width:0.0827852"
           id="path4397" />
        <path
           d="m 126.03882,81.107994 h -0.38644 v -0.460813 h 0.38644 z"
           style="stroke-width:0.0827852"
           id="path4399" />
        <path
           d="m 128.1246,79.948684 q 0.0776,0.06953 0.12774,0.174624 0.0501,0.105098 0.0501,0.271638 0,0.164923 -0.0598,0.302358 -0.0598,0.137436 -0.16816,0.2393 -0.12127,0.113182 -0.28619,0.168156 -0.16331,0.05336 -0.35895,0.05336 -0.20049,0 -0.39452,-0.04851 -0.19403,-0.04689 -0.31853,-0.103481 V 80.6682 h 0.0243 q 0.13743,0.09055 0.32337,0.150371 0.18595,0.05982 0.35895,0.05982 0.10187,0 0.21667,-0.03395 0.1148,-0.03396 0.18594,-0.100247 0.0744,-0.07114 0.10995,-0.156838 0.0372,-0.0857 0.0372,-0.216664 0,-0.129351 -0.042,-0.213429 -0.0404,-0.0857 -0.11319,-0.134202 -0.0728,-0.05012 -0.17624,-0.06791 -0.10348,-0.0194 -0.22313,-0.0194 h -0.14552 v -0.268404 h 0.11319 q 0.24576,0 0.39128,-0.101864 0.14714,-0.103481 0.14714,-0.300741 0,-0.08731 -0.0372,-0.151988 -0.0372,-0.06629 -0.10348,-0.108331 -0.0695,-0.04204 -0.14875,-0.05821 -0.0792,-0.01617 -0.17948,-0.01617 -0.1536,0 -0.32661,0.05497 -0.17301,0.05497 -0.32661,0.155221 h -0.0162 v -0.33793 q 0.1148,-0.05659 0.30559,-0.10348 0.19241,-0.04851 0.37189,-0.04851 0.17624,0 0.31044,0.03234 0.1342,0.03234 0.24253,0.103481 0.11642,0.07761 0.17624,0.187559 0.0598,0.109948 0.0598,0.257085 0,0.200495 -0.14229,0.350865 -0.14067,0.148754 -0.33308,0.187559 v 0.02264 q 0.0776,0.01293 0.17786,0.05497 0.10025,0.04042 0.16977,0.101864 z"
           style="stroke-width:0.0827852"
           id="path4401" />
        <path
           d="m 129.98403,79.368221 q 0,0.362183 -0.15361,0.538424 -0.15199,0.176241 -0.43979,0.176241 -0.29428,0 -0.44465,-0.176241 -0.15037,-0.176241 -0.15037,-0.536807 0,-0.362184 0.15361,-0.538424 0.1536,-0.176241 0.44141,-0.176241 0.29266,0 0.44303,0.177857 0.15037,0.177858 0.15037,0.535191 z m 1.11727,-0.667776 -1.26118,2.407549 h -0.26678 l 1.26117,-2.407549 z m 0.7761,1.739774 q 0,0.362183 -0.1536,0.538424 -0.1536,0.176241 -0.44141,0.176241 -0.29266,0 -0.44303,-0.177858 -0.15037,-0.177858 -0.15037,-0.53519 0,-0.362184 0.15199,-0.538425 0.1536,-0.176241 0.44141,-0.176241 0.29427,0 0.44464,0.176241 0.15037,0.176241 0.15037,0.536808 z m -2.18118,-1.071998 q 0,-0.278105 -0.0728,-0.388054 -0.0711,-0.109948 -0.23283,-0.109948 -0.16492,0 -0.23607,0.109948 -0.0711,0.109949 -0.0711,0.389671 0,0.279722 0.0711,0.38967 0.0711,0.108332 0.23607,0.108332 0.16169,0 0.23283,-0.108332 0.0728,-0.109948 0.0728,-0.391287 z m 1.89338,1.071998 q 0,-0.278105 -0.0728,-0.388054 -0.0711,-0.109948 -0.23283,-0.109948 -0.16493,0 -0.23607,0.109948 -0.0711,0.109949 -0.0711,0.389671 0,0.279721 0.0711,0.38967 0.0711,0.108332 0.23607,0.108332 0.16169,0 0.23283,-0.108332 0.0728,-0.109949 0.0728,-0.391287 z"
           style="stroke-width:0.0827852"
           id="path4403" />
      </g>
      <g
         aria-label="52.2%"
         id="text4109"
         style="font-style:normal;font-weight:normal;font-size:3.31139px;line-height:1.25;font-family:sans-serif;fill:#000000;fill-opacity:1;stroke:none;stroke-width:0.0827852">
        <path
           d="m 138.7722,77.168202 q 0,0.168157 -0.0614,0.321761 -0.0614,0.153605 -0.16816,0.258703 -0.11641,0.113182 -0.2781,0.174624 -0.16008,0.05983 -0.37189,0.05983 -0.19726,0 -0.37997,-0.04204 -0.18271,-0.04042 -0.30882,-0.09863 v -0.341163 h 0.0226 q 0.13259,0.08408 0.31045,0.143903 0.17785,0.05821 0.34924,0.05821 0.1148,0 0.22152,-0.03234 0.10833,-0.03234 0.19241,-0.113182 0.0711,-0.06953 0.10671,-0.16654 0.0372,-0.09701 0.0372,-0.224748 0,-0.1245 -0.0437,-0.210195 -0.042,-0.0857 -0.11804,-0.137436 -0.0841,-0.06144 -0.20534,-0.0857 -0.11965,-0.02587 -0.26841,-0.02587 -0.14228,0 -0.27487,0.0194 -0.13097,0.0194 -0.22636,0.03881 V 75.525444 H 138.756 V 75.8084 h -1.13667 v 0.640288 q 0.0695,-0.0065 0.14228,-0.0097 0.0728,-0.0032 0.12612,-0.0032 0.19565,0 0.34278,0.03396 0.14714,0.03234 0.27002,0.116416 0.12935,0.08893 0.2005,0.229598 0.0711,0.14067 0.0711,0.352482 z"
           style="stroke-width:0.0827852"
           id="path4406" />
        <path
           d="m 140.90003,77.932991 h -1.62983 v -0.33793 q 0.16978,-0.14552 0.33955,-0.29104 0.17139,-0.14552 0.31853,-0.289423 0.31044,-0.300742 0.42524,-0.476983 0.1148,-0.177858 0.1148,-0.383203 0,-0.187559 -0.1245,-0.292657 -0.12289,-0.106714 -0.3444,-0.106714 -0.14714,0 -0.31853,0.05174 -0.17139,0.05174 -0.33469,0.158455 H 139.33 V 75.62569 q 0.1148,-0.05659 0.30559,-0.103481 0.19241,-0.04689 0.37188,-0.04689 0.37027,0 0.58047,0.179475 0.21019,0.177857 0.21019,0.48345 0,0.137435 -0.0356,0.257085 -0.0339,0.118033 -0.10186,0.224748 -0.0631,0.100247 -0.14876,0.19726 -0.0841,0.09701 -0.20534,0.215047 -0.17301,0.169773 -0.35733,0.329845 -0.18433,0.158455 -0.3444,0.294274 h 1.29513 z"
           style="stroke-width:0.0827852"
           id="path4408" />
        <path
           d="m 141.91382,77.932991 h -0.38644 v -0.460814 h 0.38644 z"
           style="stroke-width:0.0827852"
           id="path4410" />
        <path
           d="m 144.21142,77.932991 h -1.62983 v -0.33793 q 0.16978,-0.14552 0.33955,-0.29104 0.17139,-0.14552 0.31853,-0.289423 0.31044,-0.300742 0.42524,-0.476983 0.1148,-0.177858 0.1148,-0.383203 0,-0.187559 -0.1245,-0.292657 -0.12289,-0.106714 -0.3444,-0.106714 -0.14714,0 -0.31853,0.05174 -0.17139,0.05174 -0.33469,0.158455 h -0.0162 V 75.62569 q 0.1148,-0.05659 0.30559,-0.103481 0.19241,-0.04689 0.37188,-0.04689 0.37027,0 0.58047,0.179475 0.21019,0.177857 0.21019,0.48345 0,0.137435 -0.0356,0.257085 -0.034,0.118033 -0.10186,0.224748 -0.0631,0.100247 -0.14876,0.19726 -0.0841,0.09701 -0.20534,0.215047 -0.17301,0.169773 -0.35733,0.329845 -0.18433,0.158455 -0.3444,0.294274 h 1.29513 z"
           style="stroke-width:0.0827852"
           id="path4412" />
        <path
           d="m 145.85903,76.193218 q 0,0.362183 -0.15361,0.538424 -0.15199,0.176241 -0.43979,0.176241 -0.29428,0 -0.44465,-0.176241 -0.15037,-0.176241 -0.15037,-0.536807 0,-0.362184 0.15361,-0.538425 0.1536,-0.176241 0.44141,-0.176241 0.29266,0 0.44303,0.177858 0.15037,0.177858 0.15037,0.535191 z m 1.11727,-0.667776 -1.26118,2.407549 h -0.26678 l 1.26117,-2.407549 z m 0.7761,1.739774 q 0,0.362183 -0.1536,0.538424 -0.1536,0.176241 -0.44141,0.176241 -0.29266,0 -0.44303,-0.177858 -0.15037,-0.177858 -0.15037,-0.53519 0,-0.362184 0.15199,-0.538425 0.1536,-0.176241 0.44141,-0.176241 0.29427,0 0.44464,0.176241 0.15037,0.176241 0.15037,0.536808 z m -2.18118,-1.071998 q 0,-0.278105 -0.0728,-0.388054 -0.0711,-0.109948 -0.23283,-0.109948 -0.16492,0 -0.23607,0.109948 -0.0711,0.109949 -0.0711,0.389671 0,0.279722 0.0711,0.38967 0.0711,0.108332 0.23607,0.108332 0.16169,0 0.23283,-0.108332 0.0728,-0.109948 0.0728,-0.391287 z m 1.89338,1.071998 q 0,-0.278105 -0.0728,-0.388054 -0.0711,-0.109948 -0.23283,-0.109948 -0.16493,0 -0.23607,0.109948 -0.0711,0.109949 -0.0711,0.389671 0,0.279721 0.0711,0.38967 0.0711,0.108332 0.23607,0.108332 0.16169,0 0.23283,-0.108332 0.0728,-0.109949 0.0728,-0.391287 z"
           style="stroke-width:0.0827852"
           id="path4414" />
      </g>
    </g>
  </g>
</svg>
