<svg xmlns="http://www.w3.org/2000/svg" width="842.9" height="738.8" viewBox="0 0 790.2 692.6"><defs><linearGradient id="h"><stop offset="0" stop-color="#a16200"/><stop offset="1" stop-color="#ffc900"/></linearGradient><linearGradient id="g"><stop offset="0" stop-color="#ff9405"/><stop offset="1" stop-color="#ffda05"/></linearGradient><linearGradient id="d"><stop offset="0" stop-color="#ffde05"/><stop offset="1" stop-color="#ff7f04"/></linearGradient><linearGradient id="e"><stop offset="0" stop-color="#9a9a9a"/><stop offset="1" stop-color="#fff" stop-opacity="0"/></linearGradient><linearGradient id="b"><stop offset="0" stop-color="#cfa200"/><stop offset="1" stop-color="#493900"/></linearGradient><linearGradient id="c"><stop offset="0" stop-color="#fff"/><stop offset="1" stop-color="#fff" stop-opacity="0"/></linearGradient><linearGradient id="a"><stop offset="0" stop-color="#d6e5e5"/><stop offset="1" stop-color="#f1f1f1" stop-opacity="0"/></linearGradient><linearGradient id="f"><stop offset="0" stop-color="#a8e2e2"/><stop offset="1" stop-color="#fff" stop-opacity="0"/></linearGradient></defs><path style="line-height:125%;-inkscape-font-specification:'Ever After, Normal';text-align:start" d="M131.3 692.6h11.4l-21-138.3h-12.2l-21 138.3H100l5.9-45.8h19.3zm-24.2-55l8.5-64.3 8.4 64.3zM189.1 554.3H148V565h14.9v127.6h11.4V565H189z" font-weight="400" font-family="Ever After" letter-spacing="0" word-spacing="0" fill="#959595"/><path style="line-height:125%;-inkscape-font-specification:'Ever After, Normal';text-align:start" d="M228.6 554.3h-41V565h14.8v127.6h11.4V565h14.8zM273.5 554.3v61.4h-28.3v-61.4h-11.4v138.3h11.4v-66.4h28.3v66.4h11.3V554.3zM311.4 692.6H300V554.3h11.4zM369 692.6h11.4l-21-138.3h-12.2l-21 138.3h11.5l5.9-45.8h19.3zm-24.2-55l8.5-64.3 8.4 64.3z" font-weight="400" font-family="Ever After" letter-spacing="0" word-spacing="0" fill="#959595"/><path style="line-height:125%;-inkscape-font-specification:'Ever After, Normal';text-align:start" d="M517.3 565v-10.7h-31.7v138.3h31.7V682H497v-55.7H516v-10.5H497V565zM568.3 554.3v51.9l-28.4-51.9h-11.4v138.3h11.4V575.1l28.4 51.8v65.7h11.2V554.3zM608.5 554.3h-13.8v138.3h13.8q22.3 0 29.6-22.5 4.1-13.3 4.1-46.6 0-33.4-4.1-46.7-7.3-22.5-29.6-22.5zM607.3 682h-1.2V565h1.2q15.7 0 20.6 18.5 3 11 3 40 0 28.8-3 39.9-4.9 18.5-20.6 18.5zM667.5 681.9V554.3h-11.4v138.3h31.7V682zM729.6 565v-10.7H698v138.3h31.6V682h-20.2v-55.7h18.8v-10.5h-18.8V565zM790.1 692.6q-14.1-37-20.7-72.3 14.2-10.3 14.2-33.8 0-32.2-27.5-32.2h-15.2v138.3h11.4v-65q2.2-.5 6.9-2 7 33.3 18.3 67zm-37.8-78.5v-49h2.6q10.5 0 14.7 5.8 3.3 4.7 3.3 15.6 0 15.7-8.2 23.3-5.2 4.8-10.2 4.8-1.4 0-2.2-.5z" font-weight="400" font-family="Ever After" letter-spacing="0" word-spacing="0"/><path d="M539.9 541.1h28.3v151.5h-28.3z" fill="#fff"/><path d="M535 555.7l38 135.6" fill="none" stroke="#000" stroke-width="10"/><path d="M0 554.6v138h11.5v-117c6.6 12.7 13.8 26 19.7 36.8l5.7 10 5.7-10c6.6-12 13.5-25.2 19.8-36.8v117h11.2v-138H62.4l-21.5 39.8-4 7.4-25.4-47.2z" style="line-height:125%;-inkscape-font-specification:'Ever After, Normal';text-align:start" font-weight="400" font-size="172.5" font-family="Ever After" letter-spacing="0" word-spacing="0" fill="#959595"/><path d="M398.8 691.7c-3.7-1.4-9-5-11.7-8.2a15.1 15.1 0 0 1-2.6-3.6l5.3-7.5a47 47 0 0 0 11 9c5 1.9 11.2 2.2 15.3-.3 5.5-3.3 8.6-8.8 9.6-17.3 1.5-11.7-2.6-22.5-13.2-34.8l-9.4-11a68.8 68.8 0 0 1-11.8-18.4 42.2 42.2 0 0 1-.6-30.3 22 22 0 0 1 9-12.2 23.8 23.8 0 0 1 29.9 4.8c-.4.8-3.8 8.8-4.4 8.8l-1.6-1.3c-.7-.7-2.7-2.2-4.4-3.2-4.5-2.1-8.6-3-13-.7-6.1 3.5-9.2 11.7-8 21.4 1.2 8.4 4.6 14 18 29.5 13 15.2 17 22.3 18.9 34.6.9 5.7.9 10.1 0 16.7-1.7 12.3-7.2 20.4-16.2 24a52.6 52.6 0 0 1-20 0z" fill="#959595"/><g transform="translate(-18.1)"><circle r="219.7" style="line-height:125%" cx="413.2" cy="227.7" font-weight="400" font-family="sans-serif" letter-spacing="0" word-spacing="0" fill="none" stroke="#000" stroke-width="16"/><g font-weight="400" font-family="sans-serif" letter-spacing="0" word-spacing="0" fill-rule="evenodd" stroke="#a16200" stroke-width="2"><path d="M483.8 265.7L416.7 306l-74.3-39.5z" style="line-height:125%" fill="#331f00"/><path d="M486.6 266l-70.1 34-77-34z" style="line-height:125%" fill="#efba00"/></g><g style="line-height:125%" transform="matrix(.65795 0 0 .65795 168.6 3)" font-weight="400" font-family="sans-serif" letter-spacing="0" word-spacing="0"><ellipse ry="28" rx="25.3" cy="-163.1" cx="-608.8" transform="matrix(1.24897 -.11371 .107 1.17517 1095.9 466.7)"/><ellipse ry="17" rx="15.1" cy="348" cx="331.4" transform="matrix(.52213 0 0 .54745 158.8 136.4)" fill="#fff"/></g><g style="line-height:125%" transform="matrix(.65795 0 0 .65795 168.6 3)" font-weight="400" font-family="sans-serif" letter-spacing="0" word-spacing="0"><ellipse ry="28" rx="25.3" cy="-163.1" cx="-608.8" transform="matrix(1.24897 -.11371 .107 1.17517 1203.2 467.6)"/><ellipse ry="17" rx="15.1" cy="348" cx="331.4" transform="matrix(.52213 0 0 .54745 265.4 137)" fill="#fff"/></g><path style="line-height:125%" d="M409.2 87c-81.8.3-156.4 104.5-180.4 216.5a199.6 199.6 0 0 0 51.8 73c7.9-157.8 44.8-266.9 112.6-207.8 10 8.9 15.1 13 20 12.6 5 .3 10-3.7 20.1-12.6 67.8-59 104.7 50 112.6 207.8a199.6 199.6 0 0 0 51.9-72.9c-24-112-98.7-216.3-180.6-216.5h-8z" font-weight="400" font-family="sans-serif" letter-spacing="0" word-spacing="0"/><path d="M289.6 139.8l1.3 6c1.6 7.5 52.5 2.9 113.5-10.4S513.6 105.2 512 97.7l-1.3-6z" fill="#92020b"/><path d="M510.7 91.8c1.6 7.5-46.5 24.4-107.6 37.7-61 13.3-111.8 18-113.5 10.3-1.6-7.6 46.5-24.5 107.6-37.7 61-13.3 111.8-18 113.5-10.3" fill="#cd0515"/><path d="M278.2-44.6S323.5 60 337.2 124c1 4.7 29.5 2.4 63.6-5 34.2-7.4 61-17.2 60-21.9-14.1-64-16.4-177.8-16.4-177.8L278.2-44.6z" fill="#cd0515"/><path d="M460.8 97.1c-14.1-64-16.4-177.8-16.4-177.8l-45.1 9.8c8.2 40 20.7 128.3-11.3 192.5 4.2-.8 8.4-1.6 12.8-2.6 34.2-7.4 61-17.2 60-21.9" fill="#ab030f"/><path d="M393.1 83.5c-29 6.3-54.2 9.1-64.5 7.7 3.5 11.6 6.4 22.7 8.6 32.8 1 4.7 29.5 2.4 63.6-5 34.2-7.4 61-17.2 60-21.9a447.3 447.3 0 0 1-5.8-33.4c-8.8 5.6-33 13.5-61.9 19.8" fill="#00243b"/><path d="M459.9 92.6l-.6-2.8-.2-1-.6-3.2V85c-.6-2.6-1-5.3-1.5-8v-.6c-.3-1.2-.5-2.3-.6-3.5l-.2-.8-.5-3.7-.1-.4a537 537 0 0 1-.6-4.3c-7.9 5-28 11.7-53 17.6a182 182 0 0 1-14 40.2l6.3-1.2 6.5-1.4c34.2-7.4 61-17.2 60-21.9l-.7-3.6-.2-.9" fill="#001c30"/><path d="M444.4-80.7c1 4.7-35.3 16.6-81.2 26.6-46 10-84 14.2-85 9.5-1-4.6 35.4-16.5 81.3-26.5s84-14.3 85-9.6" fill="#92020b"/><path d="M374.4 90.8c-4 .8-6.5 4.8-5.7 8.8L372 114c.9 4 4.8 6.5 8.8 5.7l38.8-8.5c4-.8 6.5-4.8 5.6-8.8L422 88c-1-4-4.9-6.5-8.8-5.7zm47.3 31l-38.7 8.4a18 18 0 0 1-21.5-13.8l-3.2-14.6a18 18 0 0 1 13.8-21.4l38.8-8.5a18 18 0 0 1 21.5 13.8l3.1 14.6a18 18 0 0 1-13.8 21.4" fill="#ff9200"/><path d="M286.2-25.5c2.8 6.6 6 14.7 9.7 23.9 19.3-1.5 46.4-5.7 76-12.1a589 589 0 0 0 74.3-20.6c-.5-9.8-.9-18.6-1.1-25.8-18.8 7.1-46.8 15-78.4 22a596 596 0 0 1-80.5 12.6M381.5 29.9a628.7 628.7 0 0 0 67.8-18.4l-1.9-25.4a641.3 641.3 0 0 1-71.3 19.3 642 642 0 0 1-72.9 12c3 7.7 6 15.7 8.9 24 18.6-1.9 43-5.8 69.4-11.5M391 73.4c24-5.2 46-11 63-16.7-1-8.2-2-16.7-2.8-25.1-17.8 5.8-40.5 12-65.6 17.4-25 5.5-48.3 9.3-66.8 11.4a875 875 0 0 1 7.8 24c17.9-2 40.2-5.7 64.3-11" fill="#fff"/><path d="M454 56.7c-1-8.2-2-16.7-2.8-25.1-12.4 4-27.2 8.3-43.4 12.3-.8 8.8-1.8 17.7-3.4 26.5A612 612 0 0 0 454 56.7M449.3 11.5l-1.9-25.4c-11 3.8-24.3 7.8-39.2 11.7.4 8.3.6 16.9.5 25.6 15.4-3.9 29.3-8 40.6-11.9M446.2-34.3c-.5-9.8-.9-18.6-1.1-25.8-11 4.2-25.3 8.6-41.6 13 1.2 7.7 2.3 16 3.2 25 15.3-4.1 28.9-8.3 39.5-12.2" fill="#d6d6d6"/></g><g stroke-width=".8"><path d="M534.5 446c2-.6 1-3.6-1-3.2a77 77 0 0 1-52-8l10.6-5.4a409 409 0 0 0 35.6-20.8c2.3 5.5 9.9 8 15.2 9.6 8.8 2.7 19.3 4 28 .8 1.6-.5 1.3-2.8-.4-2.8-7 .2-13.7 1-20.8-.3-5.4-.9-16.8-3-19.4-9 6.2-4.2 12.2-8.6 18.1-13.2.7 0 1.4-.5 1.5-1.2l3.4-2.7 10.8-9.2c0 .2.1.4.3.5 9 6.4 22.1 7.4 31.7 1.6 1.3-.8.3-3-1.1-2.5a31.8 31.8 0 0 1-29.5-.7h-.1c9.9-9 19.3-19.4 22-31.7.2-1.5-2-2-2.4-.5-5.8 16-21.1 30.3-36 41.8-4.3-15.1 6.1-26.5 17.7-35.5 1.5-1.1.1-3.5-1.6-2.5-13.6 7.7-25.9 24.2-18.8 40a518 518 0 0 1-19 13.6 345 345 0 0 1-16.2 10c-3-13.5-.4-26.4 9.8-36.6 1.1-1.1-.6-3.3-1.9-2.2a35.2 35.2 0 0 0-10.4 40.4 505.5 505.5 0 0 1-56.5 28.4c-1.8-5.7 5.1-18.3 7.2-21.9a68.1 68.1 0 0 1 14-16.4c1-1-.5-2.7-1.6-1.9a53.8 53.8 0 0 0-19.6 25.7c-1.2 3.2-4.7 11.6-2.5 15.6-17.7 7.8-35.7 15.4-53.1 23.8-.3-14.6 9.8-28.3 19.4-38.4 1.3-1.4-.7-3-2-2-10.3 8.8-23.3 27.1-19.5 41.4a344 344 0 0 0-39.3 22.2c-1.6 1-.1 3.4 1.5 2.5 25.4-13.4 51.4-25.4 77.4-37.5 7.7 16.7 37.8 15.6 52.3 11.4 1.5-.4.8-2.5-.7-2.2-15.1 2.6-39.2 3.6-49.4-10.3 14.2-6.7 28.5-13.4 42.6-20.5a68.7 68.7 0 0 0 55.7 9.7" fill="#063"/><path d="M426.4 432.1c1.2-4.7-1-9.5-4.7-12-1.2-1.5-3-2-5-1.9h-.4c-2.6-.2-5.2.8-7.1 2.4a9.6 9.6 0 0 0-2.8 2.4c-4.1 5.8-2.2 14 4.4 16.8 6.6 2.9 14-.8 15.6-7.7" fill="#be1622"/><path d="M416.7 428.1c.2-.8.1-1.7 0-2.5a7 7 0 0 1 3.4-.3c1.3.2 1.7-1.6.5-2a6.6 6.6 0 0 0-4.7.4l-1.1-1.4c-1-.9-2.2.5-1.3 1.4l.7 1c-.7.6-1.4 1.4-1.8 2.2-.6 1 .9 1.7 1.5.8l1-1.1.1 1.4c0 1 1.4 1 1.7.1" fill="#e93842"/><path d="M483.4 405c1.2-4.7-1-9.5-4.8-12-1.1-1.5-3-2-5-1.9h-.4c-2.6-.2-5.1.8-7 2.4a9.6 9.6 0 0 0-2.9 2.4c-4 5.8-2.1 14 4.5 16.8 6.5 2.9 13.9-.8 15.6-7.7" fill="#be1622"/><path d="M473.6 401c.3-.8.2-1.7 0-2.5 1-.4 2.3-.5 3.5-.3 1.2.2 1.7-1.6.4-2a6.6 6.6 0 0 0-4.7.4l-1-1.4c-1-.9-2.2.5-1.4 1.4l.8 1c-.8.6-1.4 1.4-1.9 2.2-.5 1 1 1.7 1.5.8l1-1.1.2 1.4c0 1 1.4 1 1.6.1" fill="#e93842"/><path d="M533 374c1.2-4.8-1-9.6-4.8-12.2-1.1-1.3-3-1.8-5-1.8h-.4c-2.6-.2-5.1.8-7 2.4a9.6 9.6 0 0 0-2.9 2.4c-4 5.8-2.1 14 4.5 16.9 6.5 2.8 13.9-.9 15.6-7.8" fill="#be1622"/><path d="M523.2 370c.3-.9.2-1.8 0-2.6 1-.4 2.3-.5 3.4-.3 1.3.2 1.7-1.6.5-2a6.6 6.6 0 0 0-4.7.4l-1-1.4c-1-.9-2.2.6-1.4 1.4l.8 1c-.8.7-1.4 1.4-1.9 2.2-.5 1 1 1.7 1.5.8l1-1 .1 1.3c0 1 1.5 1 1.7.2" fill="#e93842"/><path d="M573.3 348.7c1.2-4.8-.9-9.6-4.7-12.1-1.2-1.4-3-2-5-1.8l-.4-.1c-2.6-.1-5.1.8-7.1 2.4a9.6 9.6 0 0 0-2.8 2.4c-4.1 5.8-2.1 14 4.5 16.9 6.5 2.8 13.8-.9 15.5-7.7" fill="#be1622"/><path d="M563.6 344.7c.2-.9.2-1.8 0-2.6 1-.4 2.2-.5 3.4-.3 1.3.2 1.7-1.6.5-2a6.6 6.6 0 0 0-4.7.4l-1.1-1.4c-.9-.8-2.2.6-1.3 1.4l.8 1c-.8.7-1.4 1.4-2 2.3-.5 1 1 1.6 1.6.7l1-1 .1 1.3c0 1 1.4 1.1 1.7.2" fill="#e93842"/><path d="M602 351.7c1.1-4.7-1-9.5-4.8-12-1.2-1.5-3-2-5-1.9h-.4c-2.6-.2-5.1.8-7 2.4a9.5 9.5 0 0 0-2.9 2.4c-4.1 5.8-2.1 14 4.5 16.8 6.5 2.9 13.8-.8 15.6-7.7" fill="#be1622"/><path d="M592.2 347.7c.2-.8.2-1.7 0-2.5 1-.4 2.2-.5 3.4-.3 1.3.2 1.7-1.6.5-2a6.6 6.6 0 0 0-4.7.4l-1.1-1.4c-.9-.9-2.2.5-1.3 1.4l.8 1c-.8.6-1.4 1.4-2 2.2-.5 1 1 1.7 1.6.8.3-.4.6-.8 1-1l.1 1.3c0 1 1.4 1 1.7.1" fill="#e93842"/><path d="M597.4 389.6c4.9-.5 8.7-4.2 9.8-8.6.9-1.6.7-3.5 0-5.3l-.1-.4c-.8-2.5-2.5-4.6-4.7-5.8a9.6 9.6 0 0 0-3.2-1.9 11.2 11.2 0 0 0-14.3 10 11.3 11.3 0 0 0 12.5 12" fill="#be1622"/><path d="M597.8 379c1 0 1.7-.4 2.4-.8a7 7 0 0 1 1.5 3.1c.2 1.3 2 1 2-.2a6.6 6.6 0 0 0-2-4.3l1-1.5c.5-1.1-1.3-1.9-1.8-.7l-.7 1c-.8-.5-1.7-.8-2.7-1-1-.2-1.2 1.4-.2 1.7.5.1 1 .3 1.4.6l-1.3.5c-.9.4-.5 1.8.4 1.7" fill="#e93842"/><path d="M574.5 428.2c4.9-.5 8.6-4.2 9.7-8.6 1-1.6.8-3.5 0-5.4v-.3c-.8-2.6-2.6-4.6-4.8-5.9a9.6 9.6 0 0 0-3.2-1.8 11.2 11.2 0 0 0-14.3 10 11.3 11.3 0 0 0 12.6 12" fill="#be1622"/><path d="M574.9 417.6c.9 0 1.7-.4 2.4-.9a7 7 0 0 1 1.5 3.2c.2 1.3 2 1 2-.3a6.6 6.6 0 0 0-2-4.2l1-1.5c.5-1.2-1.3-1.9-1.8-.8l-.7 1c-.9-.4-1.8-.8-2.7-1-1.1-.1-1.3 1.5-.3 1.7l1.4.6-1.2.6c-1 .4-.6 1.7.4 1.6" fill="#e93842"/><path d="M533.5 452.4c4.8-.5 8.6-4.2 9.7-8.6 1-1.6.8-3.5 0-5.4v-.3c-.8-2.5-2.6-4.6-4.8-5.9a9.6 9.6 0 0 0-3.2-1.8 11.2 11.2 0 0 0-14.3 10 11.3 11.3 0 0 0 12.6 12" fill="#be1622"/><path d="M533.9 441.9c.9-.1 1.7-.5 2.4-1 .7 1 1.2 2 1.4 3.2.3 1.3 2.1 1 2-.2a6.6 6.6 0 0 0-1.9-4.3l1-1.5c.4-1.1-1.3-1.9-1.8-.8l-.7 1.1c-.9-.5-1.8-.9-2.7-1-1.1-.2-1.3 1.4-.3 1.7l1.4.5-1.2.6c-1 .4-.6 1.7.4 1.7" fill="#e93842"/><path d="M482.3 481.2c5-.5 8.7-4.2 9.8-8.6.9-1.6.7-3.5 0-5.4l-.1-.3c-.8-2.5-2.5-4.6-4.7-5.9a9.6 9.6 0 0 0-3.2-1.8 11.2 11.2 0 0 0-14.3 10c-.5 7 5.5 12.7 12.5 12" fill="#be1622"/><path d="M482.7 470.7c1-.1 1.7-.5 2.5-1a7 7 0 0 1 1.4 3.2c.3 1.3 2 1 2-.2a6.6 6.6 0 0 0-2-4.3c.4-.5.8-1 1-1.5.5-1.1-1.2-1.9-1.8-.8l-.7 1.1c-.8-.5-1.7-.9-2.7-1-1-.2-1.2 1.4-.2 1.7l1.4.5c-.4.3-.8.5-1.3.6-.9.4-.5 1.7.4 1.7" fill="#e93842"/><path d="M255.7 446c-2-.6-1-3.6 1-3.2a77 77 0 0 0 52-8l-10.6-5.4a409 409 0 0 1-35.6-20.8c-2.3 5.5-9.8 8-15.2 9.6-8.7 2.7-19.3 4-28 .8-1.6-.5-1.3-2.8.4-2.8 7 .2 13.8 1 20.8-.3 5.4-.9 16.9-3 19.5-9-6.2-4.2-12.3-8.6-18.2-13.2-.7 0-1.4-.5-1.5-1.2l-3.4-2.7-10.8-9.2c0 .2 0 .4-.3.5-9 6.4-22.1 7.4-31.7 1.6-1.2-.8-.3-3 1.1-2.5 10 4.5 19.8 4.5 29.5-.7h.1c-9.8-9-19.3-19.4-21.9-31.7-.3-1.5 1.9-2 2.4-.5 5.7 16 21 30.3 36 41.8 4.2-15.1-6.2-26.5-17.8-35.5-1.5-1.1-.1-3.5 1.6-2.5 13.7 7.7 26 24.2 18.9 40a518 518 0 0 0 19 13.6 345 345 0 0 0 16 10c3.2-13.5.5-26.4-9.6-36.6-1.2-1.1.5-3.3 1.8-2.2a35.2 35.2 0 0 1 10.4 40.4 505.5 505.5 0 0 0 56.5 28.4c1.9-5.7-5-18.3-7.1-21.9a68.1 68.1 0 0 0-14-16.4c-1-1 .4-2.7 1.5-1.9a53.8 53.8 0 0 1 19.7 25.7c1.1 3.2 4.6 11.6 2.4 15.6 17.7 7.8 35.7 15.4 53.1 23.8.3-14.6-9.8-28.3-19.4-38.4-1.3-1.4.7-3 2-2 10.3 8.8 23.3 27.1 19.5 41.4a344 344 0 0 1 39.4 22.2c1.6 1 0 3.4-1.6 2.5-25.4-13.4-51.4-25.4-77.3-37.5-7.8 16.7-38 15.6-52.4 11.4-1.5-.4-.7-2.5.7-2.2 15.1 2.6 39.2 3.6 49.4-10.3-14.2-6.7-28.4-13.4-42.5-20.5a68.7 68.7 0 0 1-55.8 9.7" fill="#063"/><path d="M363.8 432.1c-1.2-4.7 1-9.5 4.8-12 1.1-1.5 3-2 5-1.9h.3c2.7-.2 5.2.8 7.1 2.4 1.3.7 2.3 1.5 2.8 2.4 4.2 5.8 2.2 14-4.4 16.8a11.3 11.3 0 0 1-15.6-7.7" fill="#be1622"/><path d="M373.6 428.1c-.3-.8-.2-1.7 0-2.5-1.1-.4-2.3-.5-3.5-.3-1.3.2-1.7-1.6-.4-2 1.6-.5 3.2-.3 4.6.4l1.1-1.4c1-.9 2.2.5 1.3 1.4a5 5 0 0 0-.7 1c.7.6 1.4 1.4 1.9 2.2.5 1-1 1.7-1.5.8l-1-1.1-.2 1.4c0 1-1.4 1-1.6.1" fill="#e93842"/><path d="M306.8 405c-1.1-4.7 1-9.5 4.8-12 1.2-1.5 3-2 5-1.9h.4c2.6-.2 5.1.8 7 2.4 1.3.7 2.3 1.5 2.9 2.4 4.1 5.8 2.1 14-4.5 16.8a11.3 11.3 0 0 1-15.6-7.7" fill="#be1622"/><path d="M316.6 401c-.2-.8-.2-1.7 0-2.5-1-.4-2.2-.5-3.4-.3-1.3.2-1.7-1.6-.5-2 1.6-.5 3.3-.3 4.7.4l1-1.4c1-.9 2.3.5 1.4 1.4a5 5 0 0 0-.8 1c.8.6 1.4 1.4 2 2.2.5 1-1 1.7-1.6.8l-1-1.1-.1 1.4c0 1-1.4 1-1.7.1" fill="#e93842"/><path d="M257.3 374c-1.2-4.8 1-9.6 4.7-12.2 1.2-1.3 3-1.8 5-1.8h.4c2.6-.2 5.1.8 7.1 2.4 1.2.7 2.2 1.6 2.8 2.4 4.1 5.8 2.1 14-4.5 16.9a11.3 11.3 0 0 1-15.5-7.8" fill="#be1622"/><path d="M267 370c-.2-.9-.2-1.8 0-2.6-1-.4-2.2-.5-3.4-.3-1.3.2-1.7-1.6-.5-2 1.6-.4 3.3-.2 4.7.4l1.1-1.4c.9-.9 2.2.6 1.3 1.4a5 5 0 0 0-.8 1c.8.7 1.4 1.4 2 2.2.5 1-1 1.7-1.6.8l-1-1-.1 1.3c0 1-1.4 1-1.7.2" fill="#e93842"/><path d="M216.9 348.7c-1.2-4.8 1-9.6 4.7-12.1 1.2-1.4 3-2 5-1.8l.4-.1c2.7-.1 5.2.8 7.1 2.4 1.2.8 2.2 1.6 2.8 2.4 4.1 5.8 2.2 14-4.4 16.9a11.3 11.3 0 0 1-15.6-7.7" fill="#be1622"/><path d="M226.6 344.7c-.2-.9-.1-1.8 0-2.6a7 7 0 0 0-3.4-.3c-1.3.2-1.7-1.6-.4-2 1.6-.4 3.2-.2 4.6.4l1.1-1.4c1-.8 2.2.6 1.3 1.4a5 5 0 0 0-.7 1c.7.7 1.4 1.4 1.9 2.3.5 1-1 1.6-1.6.7-.2-.4-.6-.7-1-1v1.3c-.1 1-1.5 1.1-1.8.2" fill="#e93842"/><path d="M188.3 351.7c-1.2-4.7 1-9.5 4.7-12 1.2-1.5 3-2 5-1.9h.4c2.7-.2 5.2.8 7.1 2.4 1.2.7 2.2 1.5 2.8 2.4 4.1 5.8 2.2 14-4.4 16.8a11.3 11.3 0 0 1-15.6-7.7" fill="#be1622"/><path d="M198 347.7c-.2-.8-.1-1.7 0-2.5a7 7 0 0 0-3.4-.3c-1.3.2-1.7-1.6-.4-2 1.6-.5 3.2-.3 4.6.4l1.1-1.4c1-.9 2.2.5 1.3 1.4a5 5 0 0 0-.7 1c.7.6 1.4 1.4 1.9 2.2.5 1-1 1.7-1.6.8-.2-.4-.6-.8-1-1v1.3c-.1 1-1.5 1-1.8.1" fill="#e93842"/><path d="M192.8 389.6c-4.9-.5-8.6-4.2-9.7-8.6-1-1.6-.8-3.5 0-5.3v-.4c.8-2.5 2.6-4.6 4.7-5.8a9.6 9.6 0 0 1 3.3-1.9 11.2 11.2 0 0 1 14.3 10c.4 7-5.5 12.8-12.6 12" fill="#be1622"/><path d="M192.4 379c-.9 0-1.7-.4-2.4-.8a7 7 0 0 0-1.5 3.1c-.2 1.3-2 1-2-.2.1-1.7.9-3.2 2-4.3l-1-1.5c-.5-1.1 1.3-1.9 1.8-.7l.7 1c.8-.5 1.8-.8 2.7-1 1.1-.2 1.3 1.4.2 1.7-.5.1-.9.3-1.3.6l1.2.5c1 .4.5 1.8-.4 1.7" fill="#e93842"/><path d="M215.7 428.2c-4.8-.5-8.6-4.2-9.7-8.6-.9-1.6-.7-3.5 0-5.4v-.3c.8-2.6 2.6-4.6 4.8-5.9a9.6 9.6 0 0 1 3.2-1.8 11.2 11.2 0 0 1 14.3 10c.4 7-5.5 12.7-12.6 12" fill="#be1622"/><path d="M215.3 417.6c-.9 0-1.7-.4-2.4-.9-.7 1-1.2 2-1.4 3.2-.3 1.3-2.1 1-2-.3 0-1.6.8-3.1 2-4.2-.5-.5-.8-1-1-1.5-.5-1.2 1.2-1.9 1.8-.8.1.4.4.8.7 1 .8-.4 1.7-.8 2.7-1 1-.1 1.2 1.5.2 1.7l-1.4.6 1.3.6c.9.4.5 1.7-.5 1.6" fill="#e93842"/><path d="M256.8 452.4c-4.9-.5-8.7-4.2-9.8-8.6-.9-1.6-.7-3.5 0-5.4l.1-.3c.8-2.5 2.5-4.6 4.7-5.9a9.6 9.6 0 0 1 3.2-1.8 11.2 11.2 0 0 1 14.3 10c.5 7-5.5 12.7-12.5 12" fill="#be1622"/><path d="M256.4 441.9c-1-.1-1.7-.5-2.4-1a7 7 0 0 0-1.5 3.2c-.3 1.3-2 1-2-.2 0-1.7.8-3.2 2-4.3-.4-.5-.8-1-1-1.5-.5-1.1 1.2-1.9 1.8-.8l.7 1.1c.8-.5 1.7-.9 2.7-1 1-.2 1.2 1.4.2 1.7l-1.4.5c.4.3.8.5 1.3.6.9.4.5 1.7-.4 1.7" fill="#e93842"/><path d="M307.9 481.2c-4.9-.5-8.7-4.2-9.8-8.6-.9-1.6-.7-3.5 0-5.4l.1-.3c.8-2.5 2.6-4.6 4.7-5.9a9.6 9.6 0 0 1 3.2-1.8 11.2 11.2 0 0 1 14.4 10c.4 7-5.6 12.7-12.6 12" fill="#be1622"/><path d="M307.5 470.7c-1-.1-1.7-.5-2.4-1-.7 1-1.2 2-1.5 3.2-.2 1.3-2 1-2-.2.1-1.7.8-3.2 2-4.3l-1-1.5c-.5-1.1 1.3-1.9 1.8-.8l.7 1.1c.8-.5 1.7-.9 2.7-1 1.1-.2 1.3 1.4.2 1.7l-1.3.5 1.2.6c1 .4.5 1.7-.4 1.7" fill="#e93842"/><path d="M387.4 475.3c.2-.7 0-1.6-.9-2-3.5-2.2-2.8-16-2.7-19.5 0-4.8.8-9.6 1.4-14.4.7-.9.9-2 .1-2.9-.1-.3-.5-.5-.9-.6-10.7-5.5-17-15-17.4-27.2 0-1.6-1.5-2.6-3-2.3-13.4 3.3-24.3-5.8-24.3-19.2 0-1.4-1.5-2.7-2.9-2.2-14 4.8-28.8.7-38-11.1-1.5-2-4.7-1-4.1 1.7 2.9 13.4 1.1 25.5-5.3 37.5-1 1.7.2 3.6 2.1 3.7 18 1.7 25 20.3 14.5 34-1.1 1.5.4 4.2 2.2 4 14.9-2 26.9 8.6 24.5 24.2-.4 2.8 2.3 4.3 4.5 2.6A44 44 0 0 1 385 478c2 1 3.5-1.3 2.5-2.7" fill="#063"/><path d="M366.7 457.6l-1.1-.7c-.7-5.1 0-9.8 1.3-14.9.4-1.3-1.6-2.2-2.2-1-2 4.4-2.5 9.2-2 13.9-6-4.4-11.7-9-17-14-.4-7.4.6-14.6 1-22.1.1-1-1.4-1.2-1.7-.3a51.8 51.8 0 0 0-1.9 20 197 197 0 0 1-23.4-27c.7-5.9 1.8-11.6 2.6-17.5.1-1-1.4-1-1.8-.2a48 48 0 0 0-2.7 15.1 275.9 275.9 0 0 1-16.2-26.4c-.3-.5-1.3-.1-1.1.5 3.6 9.9 8.5 19.3 14.4 28.1-5-2-10.2-3.6-15.6-4.6-.7-.1-1 1-.3 1.1 6.1 1.4 12 3.5 17.7 6.1a161.2 161.2 0 0 0 26.5 29.1 67.3 67.3 0 0 0-25.8.9c-1 .2-.6 1.7.4 1.6a70 70 0 0 1 26.7 0c.4 0 .8 0 1.1-.3a172 172 0 0 0 16.9 12.3 45 45 0 0 0-18.7 6.5c-.8.4-.1 1.5.6 1.1 6.4-3 13.1-4.9 20.1-5.3.4 0 .7-.2.9-.4l.2.2c1.2.6 2.1-1 1-1.8" fill="#33ad61"/><path d="M396.8 458.8l.2.1a2 2 0 0 0-.2.6 3 3 0 0 0-1 1.5c-.7.3-1 .9-1.1 1.5h-1c1.2-1.1 2.2-2.4 3.1-3.7m48.8-21.1l.5-1h.7l2.2 1.2h.1-1.1-.2c-.7-.2-1.4-.3-2.2-.2m60.6-35c.9-1 .6-2.3-.2-3l-.2-.5c-1-1.4-3.6-1.4-4 .5-.5 3.3-10.1 5-12.3 5.1-3 .3-6 0-9-.8-5.6-1.6-10-5.2-13.8-9.5 0-1.3-1-2-2-1.9-.4-.1-1 0-1.3.5a2 2 0 0 0-.8 1.5c-1 19.6-21.8 9.6-28.8 3.6-1.2-1-3.8-.5-3.6 1.5 2.6 20.2-19.3 23.7-33.6 17.7-1.5-.6-2.8 1.2-2.5 2.5 3.8 15.4 6.3 30-4.3 43.2h-.1c-1.3.3-1 2.3.3 2.2a49.7 49.7 0 0 1 38 16.4c1.4 1.4 3.4.2 3.6-1.5 1.7-15.3 18.2-28.2 31.1-14.5 1.6 1.7 3.9-.1 3.5-2 .3-.2.4-.5.4-1-.5-8 6.4-15.9 12.8-20.1 6-4 12-4.2 18.7-6.2 1.7-.5 1.8-3 .1-3.6.8-4.2-.4-8.7.3-13 1-6.4 3.6-12.1 7.7-17.1" fill="#063"/><path d="M497.4 407.2c-6 6.8-15.3 8.9-23.8 11.6-.4-4.3-1.5-8.5-3.4-12.4-.4-1-1.8-.3-1.5.6 1.2 4.2 2 8.3 2 12.7l-1.6.5c-7.4 2.8-14.7 6-21.8 9.6l-3.6 1.8c1-6.2-.2-12-3.4-17.6-.5-1-1.9-.1-1.4.8a28 28 0 0 1 1.9 18v.2a63.8 63.8 0 0 0-21 14.8l-.6-2.3a49 49 0 0 0-6-12.2c-.3-.5-1 0-.8.5a62.8 62.8 0 0 1 5.6 16.3c-.8 1.3-1.5 2.6-2 4-.4.9 1 1.5 1.5.6l1.4-2.2c.2.2.4.2.6.2 5.2-.5 9.3 1.1 13.7 3.6 1 .5 2-.8 1.2-1.6-1.9-1.7-4-2.9-6.4-3.6-1.6-.5-6.2-.3-7.3-1 5.1-6.2 13.1-11.3 21.6-15.5 5.9.6 10.6 3 16 5.2 1 .4 1.9-1 1-1.8-3.5-3-8.1-4.6-12.8-5.5 7.7-3.5 15.5-6.4 21.4-8.7a76 76 0 0 1 5.2-1.7c2.7.3 5.3 1 7.9 1.8 2.5.9 4.8 2.4 7.3 3 1.2.4 2-1 1.2-1.9-2.5-2.5-6.1-4-9.9-4.8 7.7-2.3 15.4-5.1 19.6-11.6.8-1-1-2.4-1.8-1.4" fill="#33ad61"/><path d="M391.4 476.2a18 18 0 0 0-12.5-14.3 8 8 0 0 0-5.5.3c-4.5.1-9.4 4.4-11 8.1a24 24 0 0 0-1.2 10.2c.3 3 1 5.7 2.8 7.1a15.4 15.4 0 0 0 27.4-11.4" fill="#be1622"/><path d="M372.2 478.8c-1 0-2-.1-2.8-.4.6-1 1.5-1.7 2.6-2.3.7-.3.4-1.5-.4-1.5-1.7.2-3 1.4-3.8 2.8a4.7 4.7 0 0 1-1.6-2.7c-.1-.6-1-.5-1 .1.1 1.5.9 3 2 4.1a5 5 0 0 0 .6 4c.3.5 1.2.1 1-.5-.2-.8-.2-1.6 0-2.3a5 5 0 0 0 3.6.4c1-.3.8-1.8-.2-1.7" fill="#e93842"/><path d="M414.5 455.7a13.5 13.5 0 0 0-25.4 8.7c.7 5.4 4.2 10.4 10 12.2 13 4 20.7-10 15.4-20.9" fill="#be1622"/><path d="M403.4 452.4c-1.6 0-3 .8-4 2-1-.3-2.1-.3-3.2-.1-1.1.3-.6 1.9.5 1.7h1.8a6 6 0 0 0-.2 3.7c.2 1 1.6.6 1.5-.4-.1-.8 0-1.7.4-2.5a8 8 0 0 1 2 1.9c.5.7 1.8.3 1.5-.7a5.3 5.3 0 0 0-2.3-2.8c.6-.6 1.4-1 2.2-1.3.8-.2.7-1.5-.2-1.5" fill="#e93842"/><path d="M398.4 483c-8.2 2.6-9.5 16-3.4 22.5 8 8.3 23.3 3.4 24.9-8 1.6-12-11-20.7-21.5-14.6" fill="#be1622"/><path d="M413.2 499.6c-.9.5-1.8 1-2.7 1.2l.3-3.7c0-1-1.6-1.3-1.8-.3-.3 1.4-.4 2.8-.5 4.3-1.1 0-2.2-.3-3.4-1-.8-.4-1.5.8-.7 1.3a9 9 0 0 0 4 1.4v2.5c0 1 1.4 1 1.5 0l.3-2.5a7 7 0 0 0 4.1-1.8c.7-.7-.2-1.9-1-1.4" fill="#e93842"/></g></svg>