<?xml version="1.0" encoding="UTF-8" standalone="no"?>
<!DOCTYPE svg PUBLIC "-//W3C//DTD SVG 1.1//EN" "http://www.w3.org/Graphics/SVG/1.1/DTD/svg11.dtd">
<svg width="100%" height="100%" viewBox="0 0 2459 834" version="1.1" xmlns="http://www.w3.org/2000/svg" xmlns:xlink="http://www.w3.org/1999/xlink" xml:space="preserve" style="fill-rule:evenodd;clip-rule:evenodd;stroke-linejoin:round;stroke-miterlimit:1.41421;">
    <g transform="matrix(3.05501,0,0,3.05501,-458.135,-1078.72)">
        <g>
            <g>
                <g transform="matrix(0.789265,0,0,0.789265,331.875,111.235)">
                    <g transform="matrix(0.90571,0.423898,-0.423898,0.90571,205.355,-791.619)">
                        <path d="M1008.93,1065.32C1007.88,1065.87 1006.81,1066.38 1005.72,1066.84C1003.66,1067.74 1001.55,1068.51 999.399,1069.15L999.387,1069.15C985.711,1073.29 970.613,1072.61 956.392,1070.01C948.303,1068.53 940.179,1066.42 933.134,1062.17C928.354,1059.28 922.447,1054.13 916.742,1047.91C905.499,1035.71 894.966,1019.36 894.86,1007.88C894.789,1000.61 897.54,993.07 901.834,985.918L901.834,985.906C909.709,972.812 922.744,961.058 933.205,954.796C945.979,947.157 960.84,943.137 975.713,942.994C978.026,942.959 980.339,943.03 982.64,943.208C988.095,943.587 993.504,944.513 998.77,945.971C998.758,947.276 998.699,948.569 998.592,949.862C998.509,951.166 998.355,952.471 998.165,953.764C994.31,980.201 972.428,1003.55 945.919,1008.06C966.77,1009.22 989.614,1014.15 1002.03,1030.93C1005.9,1036.16 1008.44,1042.34 1009.5,1048.75C1009.78,1050.34 1009.94,1051.95 1010.03,1053.56C1010.24,1057.51 1009.88,1061.48 1008.93,1065.32Z" style="fill:rgb(234,82,53);fill-rule:nonzero;"/>
                    </g>
                    <g transform="matrix(0.90571,0.423898,-0.423898,0.90571,205.355,-791.619)">
                        <path d="M894.587,1132.3C894.184,1134.32 893.365,1136.17 892.262,1137.86C890.969,1139.88 889.262,1141.68 887.364,1143.3C885.715,1144.71 883.912,1145.96 882.11,1147.11C866.904,1156.77 848.758,1161.68 830.765,1161.09C835.64,1163.23 838.771,1170.42 836.613,1175.88C836.079,1177.22 835.379,1178.44 834.549,1179.54C833.493,1180.95 832.212,1182.2 830.777,1183.28C827.255,1185.99 822.819,1187.81 818.525,1189.11C792.966,1196.89 764.809,1194.27 740.127,1184.06C735.086,1181.98 729.939,1179.23 725.61,1175.77C719.976,1171.26 715.766,1165.53 715.042,1158.46L742.559,1141.84L742.57,1141.84L753.126,1135.46L799.276,1107.57C820.399,1105.42 841.725,1105.39 862.848,1107.44C865.031,1107.65 867.225,1107.89 869.407,1108.24C874.815,1109.04 880.105,1110.42 884.731,1113.25C891.219,1117.23 896.07,1124.84 894.587,1132.3Z" style="fill:rgb(234,82,53);fill-rule:nonzero;"/>
                    </g>
                    <g transform="matrix(0.90571,0.423898,-0.423898,0.90571,205.355,-791.619)">
                        <path d="M841.665,953.894C840.029,956.848 838.451,959.801 837.218,962.73L696.077,994.647L690.859,995.821L639.052,1007.54C639.514,1002.17 640.273,996.841 641.305,991.563L641.305,991.551C651.648,939.092 689.779,892.469 739.736,873.005C752,868.237 768.486,866.162 776.053,876.943C776.231,877.192 776.397,877.453 776.551,877.714C777.085,878.568 777.535,879.469 777.891,880.394C780.311,886.574 779.125,894.058 775.863,899.988C772.827,905.527 768.308,910.022 763.516,914.197C775.258,904.958 790.108,899.703 805.052,899.62C807.329,899.609 809.725,899.739 811.623,900.984C811.824,901.115 812.002,901.245 812.18,901.388C812.844,901.909 813.354,902.514 813.734,903.179C816.45,907.994 811.824,915.834 807.056,920.317C814.089,917.198 821.36,914.066 829.046,913.806C834.869,913.616 841.049,915.454 845.223,919.321C846.35,920.364 847.335,921.551 848.117,922.903C848.272,923.152 848.414,923.413 848.544,923.674C853.549,933.423 847.287,943.706 841.665,953.894Z" style="fill:rgb(234,82,53);fill-rule:nonzero;"/>
                    </g>
                    <g transform="matrix(0.90571,0.423898,-0.423898,0.90571,205.355,-791.619)">
                        <path d="M777.891,880.394C749.272,898.446 724.27,922.215 704.51,949.743C698.307,958.389 692.626,967.403 687.502,976.738C685.877,979.691 681.37,977.058 682.983,974.105C686.897,966.976 691.143,960.074 695.698,953.42C716.821,922.571 744.611,896.869 776.551,877.714C777.085,878.568 777.535,879.469 777.891,880.394Z" style="fill:rgb(186,40,37);fill-rule:nonzero;"/>
                    </g>
                    <g transform="matrix(0.90571,0.423898,-0.423898,0.90571,205.355,-791.619)">
                        <path d="M813.734,903.179C799.513,913.07 786.549,925.192 775.436,938.048C774.653,938.938 773.882,939.851 773.123,940.753C771.736,942.413 769.435,940.041 770.763,938.392C770.893,938.226 771.036,938.06 771.178,937.894C779.587,927.516 788.933,918.087 799.56,909.963C803.617,906.855 807.839,904.021 812.18,901.388C812.844,901.909 813.354,902.514 813.734,903.179Z" style="fill:rgb(186,40,37);fill-rule:nonzero;"/>
                    </g>
                    <g transform="matrix(0.90571,0.423898,-0.423898,0.90571,205.355,-791.619)">
                        <path d="M848.117,922.903C843.278,926.188 838.617,929.722 834.252,933.719C829.84,937.752 825.784,942.117 822.036,946.742C817.636,952.139 813.686,957.891 810.14,963.893C808.717,966.3 805.064,964.154 806.392,961.698C809.44,956.077 813.046,950.538 817.138,945.26C824.942,935.202 834.502,926.117 845.223,919.321C846.35,920.364 847.335,921.551 848.117,922.903Z" style="fill:rgb(186,40,37);fill-rule:nonzero;"/>
                    </g>
                    <g transform="matrix(0.90571,0.423898,-0.423898,0.90571,205.355,-791.619)">
                        <path d="M982.64,943.208C957.056,954.938 934.142,972.243 916.588,994.433C915.983,995.181 915.39,995.94 914.809,996.711C912.651,999.534 908.796,996.509 910.966,993.746C911.453,993.129 911.939,992.512 912.425,991.907C929.41,970.807 951.114,953.847 975.713,942.994C978.026,942.959 980.339,943.03 982.64,943.208Z" style="fill:rgb(186,40,37);fill-rule:nonzero;"/>
                    </g>
                    <g transform="matrix(0.90571,0.423898,-0.423898,0.90571,205.355,-791.619)">
                        <path d="M1017.25,938.037L1016.75,938.677C1016.45,939.08 1016.03,938.914 1015.88,938.618C1015.81,938.464 1015.83,938.274 1015.97,938.108L1015.97,938.096C1015.99,938.072 1016.04,938.037 1016.07,938.001L1016.71,937.503C1016.79,937.444 1016.87,937.432 1016.94,937.444C1016.99,937.444 1017.05,937.455 1017.09,937.491C1017.27,937.598 1017.39,937.847 1017.25,938.037Z" style="fill:rgb(186,40,37);fill-rule:nonzero;"/>
                    </g>
                    <g transform="matrix(0.90571,0.423898,-0.423898,0.90571,205.355,-791.619)">
                        <path d="M920.229,996.995C947.734,983.32 973.234,966.929 998.592,949.862C998.509,951.166 998.355,952.471 998.165,953.764C975.227,971.851 949.489,986.902 923.539,999.996C920.633,1001.47 917.715,1002.9 914.809,1004.33C912.366,1005.51 910.231,1001.83 912.674,1000.67C915.212,999.474 917.727,998.253 920.229,996.995Z" style="fill:rgb(186,40,37);fill-rule:nonzero;"/>
                    </g>
                    <g transform="matrix(0.90571,0.423898,-0.423898,0.90571,205.355,-791.619)">
                        <path d="M1017.18,937.408C1017.15,937.432 1017.12,937.455 1017.09,937.491C1016.69,937.859 1016.29,938.238 1015.88,938.618C1015.81,938.464 1015.83,938.274 1015.97,938.108L1015.97,938.096C1016.29,937.883 1016.62,937.657 1016.94,937.444C1017,937.396 1017.05,937.361 1017.11,937.325C1017.17,937.29 1017.22,937.373 1017.18,937.408Z" style="fill:rgb(186,40,37);fill-rule:nonzero;"/>
                    </g>
                    <g transform="matrix(0.90571,0.423898,-0.423898,0.90571,205.355,-791.619)">
                        <path d="M1010.03,1053.56C988.819,1031.11 959.369,1017.67 928.342,1016.43C921.771,1016.16 915.129,1016.45 908.476,1017.31C907.728,1017.41 907.574,1016.14 908.298,1016.01C915.094,1014.79 921.866,1014.19 928.579,1014.21C959.334,1014.24 988.499,1026.86 1009.5,1048.75C1009.78,1050.34 1009.94,1051.95 1010.03,1053.56Z" style="fill:rgb(186,40,37);fill-rule:nonzero;"/>
                    </g>
                    <g transform="matrix(0.90571,0.423898,-0.423898,0.90571,205.355,-791.619)">
                        <path d="M1005.72,1066.84C1003.66,1067.74 1001.55,1068.51 999.399,1069.15L999.387,1069.15C997.228,1068.57 995.069,1067.84 992.911,1067.04C984.3,1063.88 975.903,1060.03 967.541,1056.27C952.312,1049.42 937.522,1041.97 923.123,1033.61C920.704,1032.2 918.296,1030.76 915.9,1029.3C913.742,1027.99 915.639,1024.83 917.869,1025.94C920.146,1027.07 922.424,1028.2 924.701,1029.34C937.831,1035.87 950.972,1042.39 964.185,1048.73C971.93,1052.44 979.734,1056.04 987.597,1059.5C993.409,1062.05 999.434,1065.45 1005.72,1066.84Z" style="fill:rgb(186,40,37);fill-rule:nonzero;"/>
                    </g>
                    <g transform="matrix(0.90571,0.423898,-0.423898,0.90571,205.355,-791.619)">
                        <path d="M892.262,1137.86C890.969,1139.88 889.262,1141.68 887.364,1143.3C870.605,1142.55 853.716,1138.74 838.19,1132.82C831.833,1130.4 825.713,1127.64 819.925,1124.58C817.731,1123.43 819.664,1120.34 821.834,1121.32C828.785,1124.41 835.865,1127.14 843.065,1129.43C852.636,1132.48 862.421,1134.78 872.431,1136.23C879.05,1137.18 885.656,1137.66 892.262,1137.86Z" style="fill:rgb(186,40,37);fill-rule:nonzero;"/>
                    </g>
                    <g transform="matrix(0.90571,0.423898,-0.423898,0.90571,205.355,-791.619)">
                        <path d="M834.549,1179.54C833.493,1180.95 832.212,1182.2 830.777,1183.28C830.327,1183.22 829.876,1183.16 829.425,1183.09C811.326,1180.38 793.891,1174.2 778.532,1164.35C776.112,1162.81 773.74,1161.16 771.427,1159.43C769.684,1158.12 771.368,1155.14 773.171,1156.46C776.266,1158.7 779.457,1160.79 782.73,1162.7C797.07,1171.11 813.046,1176.39 829.544,1178.89C831.216,1179.14 832.888,1179.36 834.549,1179.54Z" style="fill:rgb(186,40,37);fill-rule:nonzero;"/>
                    </g>
                    <g transform="matrix(0.90571,0.423898,-0.423898,0.90571,205.355,-791.619)">
                        <path d="M780.418,1163.62C755.675,1173.38 722.364,1177.46 695.746,1177.06C666.118,1176.62 636.134,1168.16 612.696,1149.55C596.97,1137.06 593.001,1136.54 593.051,1114.48C593.088,1097.85 596.057,1081.15 600.351,1065.13C606.534,1042.06 617.356,1020.19 632.417,1001.62C668.621,956.973 728.252,932.502 785.381,938.845C826.694,943.432 864.413,962.689 899.237,984.345C916.411,995.025 933.565,999.211 927.32,1021.11C908.686,1086.47 841.8,1139.41 780.418,1163.62Z" style="fill:rgb(253,212,19);fill-rule:nonzero;"/>
                    </g>
                    <g transform="matrix(0.90571,0.423898,-0.423898,0.90571,205.355,-791.619)">
                        <path d="M611.13,1088.21C611.247,1096.13 612.395,1104.26 616.32,1111.14C623.743,1124.15 639.266,1129.99 653.849,1133.42C663.845,1135.78 674.744,1137.39 684.072,1133.09C696.035,1127.58 701.899,1114.12 705.893,1101.57C711.158,1085.03 713.727,1067.35 701.119,1053.53C687.959,1039.11 674.598,1031.15 654.302,1030.22C626.95,1028.97 610.801,1065.65 611.13,1088.21Z" style="fill:white;fill-rule:nonzero;"/>
                    </g>
                    <g transform="matrix(0.90571,0.423898,-0.423898,0.90571,205.355,-791.619)">
                        <path d="M661.34,1076.17C658.949,1071.66 651.853,1072.82 649.605,1076.87C646.943,1081.67 649.56,1087.98 654.898,1089.42C657.287,1090.06 659.925,1089.86 662.093,1088.61C664.799,1087.04 666.397,1084.27 666.556,1081.16C666.684,1078.64 665.562,1076.17 663.878,1074.34C663.228,1073.64 662.393,1073 661.555,1072.53C659.897,1071.61 658.825,1071.56 656.941,1071.32C657.619,1071.41 658.297,1071.5 658.974,1071.59C658.31,1071.49 657.455,1071.29 656.783,1071.29C655.475,1071.29 653.905,1071.7 652.823,1072.39C651.65,1073.13 650.49,1074.19 649.848,1075.44C648.607,1077.87 648.433,1080.6 649.848,1083.02C651.106,1085.17 653.749,1086.93 656.329,1086.74C657.946,1086.61 659.407,1086.51 660.801,1085.57C660.192,1085.83 659.583,1086.08 658.974,1086.34C659.024,1086.32 659.075,1086.31 659.125,1086.29C658.45,1086.38 657.776,1086.47 657.102,1086.56C657.271,1086.55 657.416,1086.55 657.585,1086.57C656.914,1086.48 656.243,1086.39 655.573,1086.3C655.742,1086.34 655.889,1086.39 656.05,1086.45C655.451,1086.2 654.852,1085.95 654.252,1085.69C654.411,1085.77 654.552,1085.86 654.698,1085.96C654.193,1085.57 653.688,1085.18 653.184,1084.79C653.37,1084.94 653.529,1085.1 653.679,1085.28C653.292,1084.78 652.905,1084.28 652.519,1083.78C652.62,1083.93 652.702,1084.06 652.78,1084.22C652.532,1083.64 652.284,1083.05 652.036,1082.46C652.099,1082.63 652.141,1082.77 652.171,1082.95C652.084,1082.3 651.997,1081.65 651.91,1081C651.924,1081.11 651.926,1081.22 651.916,1081.33C652.003,1080.68 652.09,1080.03 652.177,1079.39C652.15,1079.57 652.111,1079.71 652.042,1079.88C652.286,1079.31 652.53,1078.73 652.774,1078.15C652.725,1078.25 652.667,1078.35 652.6,1078.44C652.976,1077.95 653.353,1077.46 653.73,1076.98C653.621,1077.11 653.516,1077.21 653.384,1077.32C653.869,1076.95 654.354,1076.57 654.839,1076.2C654.699,1076.29 654.568,1076.36 654.415,1076.43C654.984,1076.19 655.552,1075.95 656.121,1075.71C655.961,1075.77 655.81,1075.81 655.643,1075.84C656.272,1075.76 656.901,1075.67 657.531,1075.59C657.243,1075.63 656.971,1075.63 656.684,1075.59C657.306,1075.67 657.929,1075.76 658.552,1075.84C658.218,1075.77 657.893,1075.72 657.575,1075.59C658.119,1075.82 658.663,1076.05 659.207,1076.28C659.055,1076.21 658.922,1076.13 658.783,1076.04C659.236,1076.39 659.689,1076.74 660.143,1077.09C660.011,1076.98 659.904,1076.87 659.793,1076.74C660.137,1077.19 660.482,1077.63 660.826,1078.08C660.716,1077.92 660.641,1077.78 660.564,1077.61C660.781,1078.12 660.999,1078.64 661.216,1079.15C661.168,1079.02 661.133,1078.89 661.111,1078.76C661.187,1079.32 661.263,1079.89 661.339,1080.45C661.25,1079.64 661.15,1078.84 661.017,1078.04C661.089,1078.57 661.161,1079.11 661.234,1079.65C661.218,1079.46 661.216,1079.29 661.23,1079.1C661.161,1079.61 661.093,1080.12 661.025,1080.63C661.063,1080.38 661.119,1080.14 661.208,1079.91C661.031,1080.33 660.854,1080.75 660.677,1081.17C660.731,1081.05 660.795,1080.94 660.849,1080.82C661.016,1080.46 661.157,1079.71 661.418,1079.42C661.681,1079.13 660.904,1080.5 661.112,1080.15C661.294,1079.85 660.362,1081.01 660.766,1080.61C661.962,1079.43 662.104,1077.61 661.34,1076.17Z" style="fill:rgb(28,28,26);fill-rule:nonzero;"/>
                    </g>
                    <g transform="matrix(0.90571,0.423898,-0.423898,0.90571,205.355,-791.619)">
                        <path d="M686.576,993.356C739.147,1022.17 762.958,1085.74 742.466,1142.12C740.66,1147.09 748.659,1149.3 750.4,1144.31C761.041,1113.82 759.933,1080.08 746.536,1050.62C734.709,1024.61 713.775,1003.22 688.315,990.38C686.347,989.387 684.617,992.283 686.576,993.356Z" style="fill:rgb(248,177,31);fill-rule:nonzero;"/>
                    </g>
                    <g transform="matrix(0.90571,0.423898,-0.423898,0.90571,205.355,-791.619)">
                        <path d="M748.035,1056.8C752.171,1051.2 753.828,1044.12 758.048,1038.42C758.504,1037.81 763.269,1031.36 764.105,1031.73C766.925,1032.98 760.318,1039.15 759.671,1039.77C756.71,1042.61 757.865,1048.75 762.244,1049.52C765.145,1050.02 767.955,1050.71 770.64,1051.93C772.139,1052.62 773.592,1053.42 774.957,1054.35C776.076,1055.11 777.614,1057.1 778.741,1057.47C779.649,1057.76 782.268,1057.14 781.42,1056.12C780.969,1055.59 778.963,1055.24 778.178,1054.99C775.934,1054.28 773.687,1053.8 771.331,1054.1C765.938,1054.79 762.237,1062.39 768.245,1065.5C770.375,1066.6 772.306,1067.78 774.04,1069.45C774.91,1070.29 775.699,1071.19 776.405,1072.17C777.444,1074.85 778.854,1074.24 780.635,1070.36C780.17,1069.43 775.206,1067.78 774.173,1067.26C771.917,1066.12 769.657,1064.99 767.404,1063.85C762.634,1061.43 759.164,1059.88 760.518,1053.97C761.219,1050.91 762.708,1044.84 766.268,1044.3C763.534,1042.75 760.8,1041.2 758.066,1039.64C759.731,1047.67 761.395,1055.7 763.06,1063.73C765.832,1060.96 768.603,1058.19 771.375,1055.41C770.29,1055.12 769.59,1054.42 769.275,1053.32C766.329,1048.32 756.632,1049.98 757.464,1056.52C758.255,1062.74 761.6,1066.81 767.781,1068.45C772.966,1069.83 777.169,1065.12 776.096,1060.14C774.372,1052.12 772.648,1044.11 770.924,1036.1C770.107,1032.3 766.111,1030.91 762.723,1031.44C753.146,1032.95 748.664,1044.71 747.28,1053.11C745.113,1066.25 754.422,1071.82 764.866,1076.76C771.485,1079.89 785.408,1088.14 789.574,1077.07C792.933,1068.15 781.196,1058.44 774.418,1054.93C773.389,1058.73 772.36,1062.53 771.331,1066.33C775.815,1065.75 779.642,1069.38 784.399,1068.31C789.302,1067.21 792.321,1062.52 791.854,1057.66C790.737,1046 775.233,1039.69 765.345,1038.27C766.203,1041.52 767.061,1044.77 767.919,1048.02C772.423,1043.43 776.966,1037.72 775.503,1030.86C774.292,1025.18 768.797,1020.4 762.78,1021.77C756.569,1023.18 752.485,1030.81 750.095,1036.03C747.337,1042.07 744.347,1050.1 746.815,1056.64C747.028,1057.2 747.684,1057.27 748.035,1056.8Z" style="fill:rgb(234,82,53);fill-rule:nonzero;"/>
                    </g>
                    <g transform="matrix(0.90571,0.423898,-0.423898,0.90571,205.355,-791.619)">
                        <path d="M722.503,977.66C723.239,979.485 724.245,980.105 725.844,981.326C728.029,982.994 730.05,984.677 731.842,986.781C735.049,990.544 737.339,995.282 739.6,999.65C741.658,1003.63 747.116,1000.7 746.408,996.78C745.327,990.793 742.01,985.965 737.468,982C734.29,979.226 728.145,973.99 723.668,975.609C722.895,975.888 722.144,976.772 722.503,977.66Z" style="fill:rgb(248,177,31);fill-rule:nonzero;"/>
                    </g>
                    <g transform="matrix(0.90571,0.423898,-0.423898,0.90571,205.355,-791.619)">
                        <path d="M782.263,1099.18C783.117,1103.8 784.365,1107.93 783.957,1112.7C783.526,1117.74 781.592,1122.21 779.137,1126.58C778.042,1128.53 780.878,1130.97 782.368,1129.07C788.688,1121.01 790.589,1106.78 783.471,1098.48C782.959,1097.88 782.144,1098.54 782.263,1099.18Z" style="fill:rgb(248,177,31);fill-rule:nonzero;"/>
                    </g>
                    <g transform="matrix(0.90571,0.423898,-0.423898,0.90571,205.355,-791.619)">
                        <path d="M741.234,954.731C747.546,959.015 751.541,965.435 752.767,972.941C753.287,976.126 758.564,974.827 757.699,971.581C755.496,963.312 750.167,956.422 742.637,952.331C741.05,951.469 739.762,953.733 741.234,954.731Z" style="fill:rgb(248,177,31);fill-rule:nonzero;"/>
                    </g>
                    <g transform="matrix(0.90571,0.423898,-0.423898,0.90571,205.355,-791.619)">
                        <path d="M779.81,968.771C781.475,972.155 783.829,975.014 785.28,978.55C786.724,982.067 787.283,985.813 787.928,989.54C788.462,992.627 793.033,991.698 793.17,988.831C793.544,980.974 788.648,970.306 780.878,967.382C780.039,967.067 779.481,968.102 779.81,968.771Z" style="fill:rgb(248,177,31);fill-rule:nonzero;"/>
                    </g>
                    <g transform="matrix(0.90571,0.423898,-0.423898,0.90571,205.355,-791.619)">
                        <path d="M806.208,952.88C810.504,956.638 812.72,961.503 814.057,966.962C814.812,970.045 819.378,968.724 818.774,965.662C817.527,959.338 813.005,954.296 807.421,951.309C806.461,950.795 805.317,952.101 806.208,952.88Z" style="fill:rgb(248,177,31);fill-rule:nonzero;"/>
                    </g>
                    <g transform="matrix(0.90571,0.423898,-0.423898,0.90571,205.355,-791.619)">
                        <path d="M764.171,994.167C770.672,1000.7 774.261,1008.52 773.933,1017.88C773.85,1020.23 777.572,1020.79 778.082,1018.44C780.29,1008.28 774.899,996.748 764.549,993.516C764.172,993.398 763.903,993.898 764.171,994.167Z" style="fill:rgb(248,177,31);fill-rule:nonzero;"/>
                    </g>
                    <g transform="matrix(0.90571,0.423898,-0.423898,0.90571,205.355,-791.619)">
                        <path d="M811.221,996.735C813.29,999.863 815.323,1002.38 816.475,1006.05C817.575,1009.55 817.678,1013.06 817.502,1016.7C817.372,1019.4 821.838,1020.09 822.307,1017.35C823.645,1009.53 819.936,999.185 812.286,995.67C811.642,995.374 810.751,996.023 811.221,996.735Z" style="fill:rgb(248,177,31);fill-rule:nonzero;"/>
                    </g>
                    <g transform="matrix(0.90571,0.423898,-0.423898,0.90571,205.355,-791.619)">
                        <path d="M840.186,977.241C845.007,984.221 845.531,991.94 843.804,1000.05C843.189,1002.94 847.213,1004.02 848.2,1001.26C851.388,992.361 848.162,982.642 841.845,975.961C841.037,975.106 839.494,976.239 840.186,977.241Z" style="fill:rgb(248,177,31);fill-rule:nonzero;"/>
                    </g>
                    <g transform="matrix(0.90571,0.423898,-0.423898,0.90571,205.355,-791.619)">
                        <path d="M797.587,1023.48C803.066,1031.96 806.686,1040.15 806.026,1050.5C805.805,1053.97 811.008,1053.86 811.364,1050.5C812.478,1039.99 808.17,1027.92 798.5,1022.57C797.94,1022.26 797.212,1022.9 797.587,1023.48Z" style="fill:rgb(248,177,31);fill-rule:nonzero;"/>
                    </g>
                    <g transform="matrix(0.90571,0.423898,-0.423898,0.90571,205.355,-791.619)">
                        <path d="M808.818,1079.85C810.235,1084.22 812.59,1088.1 813.414,1092.7C814.345,1097.91 813.784,1103.19 812.145,1108.19C810.629,1112.8 818.188,1114.92 819.436,1110.2C822.118,1100.05 820.678,1084.46 810.615,1078.47C809.726,1077.94 808.484,1078.83 808.818,1079.85Z" style="fill:rgb(248,177,31);fill-rule:nonzero;"/>
                    </g>
                    <g transform="matrix(0.90571,0.423898,-0.423898,0.90571,205.355,-791.619)">
                        <path d="M832.382,1052.76C836.846,1062.77 836.145,1071.19 831.084,1080.79C829.585,1083.63 833.467,1085.74 835.309,1083.26C841.841,1074.43 840.531,1060.13 832.906,1052.35C832.624,1052.07 832.236,1052.43 832.382,1052.76Z" style="fill:rgb(248,177,31);fill-rule:nonzero;"/>
                    </g>
                    <g transform="matrix(0.90571,0.423898,-0.423898,0.90571,205.355,-791.619)">
                        <path d="M843.863,1022.75C848.001,1030.23 850.452,1036.85 848.986,1045.51C848.316,1049.47 854.279,1051.24 855.098,1047.2C856.981,1037.91 853.805,1026.4 845.232,1021.38C844.354,1020.86 843.384,1021.88 843.863,1022.75Z" style="fill:rgb(248,177,31);fill-rule:nonzero;"/>
                    </g>
                    <g transform="matrix(0.90571,0.423898,-0.423898,0.90571,205.355,-791.619)">
                        <path d="M868.969,1052.67C869.809,1056.97 871.589,1061.01 872.32,1065.35C873.118,1070.08 872.954,1074.78 872.867,1079.55C872.799,1083.21 878.789,1084.22 879.419,1080.44C881.004,1070.92 878.957,1058.02 871.663,1051.1C870.447,1049.95 868.665,1051.12 868.969,1052.67Z" style="fill:rgb(248,177,31);fill-rule:nonzero;"/>
                    </g>
                    <g transform="matrix(0.90571,0.423898,-0.423898,0.90571,205.355,-791.619)">
                        <path d="M866.11,994.416C869.887,1002.92 871.049,1010.03 868.188,1019.08C867.333,1021.79 871.676,1023.74 872.863,1021.05C876.839,1012.06 875.737,999.762 868.205,992.799C867.038,991.72 865.51,993.065 866.11,994.416Z" style="fill:rgb(248,177,31);fill-rule:nonzero;"/>
                    </g>
                    <g transform="matrix(0.90571,0.423898,-0.423898,0.90571,205.355,-791.619)">
                        <path d="M893.576,1005.52C897.828,1014.48 899.769,1022.76 898.654,1032.73C898.247,1036.37 904.526,1037.25 905.097,1033.6C906.755,1023.01 903.92,1011.29 895.846,1003.77C894.605,1002.61 892.882,1004.06 893.576,1005.52Z" style="fill:rgb(248,177,31);fill-rule:nonzero;"/>
                    </g>
                </g>
                <g transform="matrix(4.25239,0,0,4.25239,-4653.54,-11950.4)">
                    <text x="1147.56px" y="2944.32px" style="font-family:'LucidaGrande', 'Lucida Grande', sans-serif;font-weight:500;font-size:50px;">1</text>
                </g>
                <g transform="matrix(0.179416,0,0,0.189343,371.19,534.508)">
                    <text x="0px" y="0px" style="font-family:'LucidaGrande', 'Lucida Grande', sans-serif;font-weight:500;font-size:885.916px;">&lt;</text>
                </g>
            </g>
        </g>
    </g>
</svg>
