<?xml version="1.0" encoding="UTF-8" standalone="no"?>
<svg
   xmlns:dc="http://purl.org/dc/elements/1.1/"
   xmlns:cc="http://creativecommons.org/ns#"
   xmlns:rdf="http://www.w3.org/1999/02/22-rdf-syntax-ns#"
   xmlns:svg="http://www.w3.org/2000/svg"
   xmlns="http://www.w3.org/2000/svg"
   xmlns:sodipodi="http://sodipodi.sourceforge.net/DTD/sodipodi-0.dtd"
   xmlns:inkscape="http://www.inkscape.org/namespaces/inkscape"
   viewBox="0 0 1200 630.00001"
   version="1.1"
   id="svg44"
   sodipodi:docname="default.svg"
   inkscape:version="0.92.2 5c3e80d, 2017-08-06"
   width="1200"
   height="630"
   inkscape:export-filename="/Users/mendler/Code/private/mre.github.io/static/default.png"
   inkscape:export-xdpi="330.05713"
   inkscape:export-ydpi="330.05713">
  <metadata
     id="metadata50">
    <rdf:RDF>
      <cc:Work
         rdf:about="">
        <dc:format>image/svg+xml</dc:format>
        <dc:type
           rdf:resource="http://purl.org/dc/dcmitype/StillImage" />
        <dc:title></dc:title>
      </cc:Work>
    </rdf:RDF>
  </metadata>
  <defs
     id="defs48" />
  <sodipodi:namedview
     pagecolor="#ffffff"
     bordercolor="#666666"
     borderopacity="1"
     objecttolerance="10"
     gridtolerance="10"
     guidetolerance="10"
     inkscape:pageopacity="1"
     inkscape:pageshadow="2"
     inkscape:window-width="1440"
     inkscape:window-height="856"
     id="namedview46"
     showgrid="false"
     inkscape:zoom="0.37277931"
     inkscape:cx="-394.95344"
     inkscape:cy="526.95532"
     inkscape:window-x="0"
     inkscape:window-y="0"
     inkscape:window-maximized="0"
     inkscape:current-layer="svg44" />
  <g
     id="g73"
     transform="translate(186.76001,149.90999)">
    <path
       inkscape:connector-curvature="0"
       id="path4553"
       style="line-height:125%;font-family:sans-serif;letter-spacing:0;word-spacing:0;fill:#856800;fill-opacity:1;fill-rule:evenodd;stroke:none;stroke-width:2.08441567;stroke-linecap:square;stroke-linejoin:miter"
       d="m 486.65,203.31001 -70.2,36.95242 -76.9,-36.82208 z" />
    <circle
       id="circle2"
       word-spacing="0"
       letter-spacing="0"
       style="line-height:125%;font-family:sans-serif;letter-spacing:0;word-spacing:0;fill:none;stroke:#000000;stroke-width:16.03000069"
       r="219.67999"
       cy="165.09001"
       cx="413.23999" />
    <path
       d="m 486.65,203.31001 -70.2,31.2034 -76.9,-31.09334 z"
       style="line-height:125%;font-family:sans-serif;letter-spacing:0;word-spacing:0;fill:#ffcb15;fill-opacity:1;fill-rule:evenodd;stroke:none;stroke-width:1.91541922;stroke-linecap:square;stroke-linejoin:miter"
       id="path6"
       inkscape:connector-curvature="0" />
    <path
       inkscape:connector-curvature="0"
       id="ellipse10"
       d="m 378.04688,145.03845 a 21.739243,20.835237 84.787495 0 0 -2.08204,0.0801 21.739243,20.835237 84.787495 0 0 -18.77734,23.53906 21.739243,20.835237 84.787495 0 0 22.7207,19.76172 21.739243,20.835237 84.787495 0 0 18.77735,-23.53907 21.739243,20.835237 84.787495 0 0 -6.44727,-13.76757 5.2045617,6.1377187 0 0 1 1.49414,4.30078 5.2045617,6.1377187 0 0 1 -5.20312,6.13867 5.2045617,6.1377187 0 0 1 -5.20508,-6.13867 5.2045617,6.1377187 0 0 1 5.20508,-6.13672 5.2045617,6.1377187 0 0 1 2.93164,1.0664 21.739243,20.835237 84.787495 0 0 -13.41406,-5.30468 z"
       style="line-height:125%;font-family:sans-serif;letter-spacing:0;word-spacing:0;stroke-width:0.80040854" />
    <path
       inkscape:connector-curvature="0"
       id="ellipse16"
       d="m 448.66406,145.66149 a 21.739243,20.835237 84.787495 0 0 -2.08203,0.0801 21.739243,20.835237 84.787495 0 0 -18.77734,23.53906 21.739243,20.835237 84.787495 0 0 22.7207,19.75977 21.739243,20.835237 84.787495 0 0 18.77734,-23.53711 21.739243,20.835237 84.787495 0 0 -20.63867,-19.8418 z m 10.10156,3.98438 a 5.2045617,6.1377187 0 0 1 5.20508,6.13672 5.2045617,6.1377187 0 0 1 -5.20508,6.13867 5.2045617,6.1377187 0 0 1 -5.20312,-6.13867 5.2045617,6.1377187 0 0 1 5.20312,-6.13672 z"
       style="line-height:125%;font-family:sans-serif;letter-spacing:0;word-spacing:0;stroke-width:0.80040854" />
    <g
       transform="translate(0,-62.609985)"
       style="fill-rule:evenodd;stroke:#000000"
       id="g28">
      <path
         inkscape:connector-curvature="0"
         id="path22"
         d="m 366.4,100.64 c 18.54,-11.05 36.54,-22.57 46.94,-40.73 1.35,12.3 -0.1,28.5 -10.86,43.5" />
      <path
         inkscape:connector-curvature="0"
         id="path24"
         d="m 389.44,100.64 c 18.54,-11.05 36.54,-22.57 46.94,-40.73 1.35,12.3 -0.1,28.5 -10.86,43.5" />
      <path
         inkscape:connector-curvature="0"
         id="path26"
         d="M 412.48,100.64 C 431.02,89.6 449,78.07 459.42,59.9 c 1.35,12.3 -0.1,28.44 -10.86,43.46" />
    </g>
    <path
       inkscape:connector-curvature="0"
       id="path30"
       word-spacing="0"
       letter-spacing="0"
       style="line-height:125%;font-family:sans-serif;letter-spacing:0;word-spacing:0"
       d="m 409.24,24.440015 c -81.85,0.27 -156.44,104.429995 -180.48,216.459995 a 199.6,199.6 0 0 0 51.83,73.1 c 7.9,-157.9 44.7,-266.899995 112.5,-207.8 10.1,8.9 15.2,12.9 20.1,12.6 4.9,0.3 10,-3.8 20.1,-12.6 67.7,-59.099995 104.6,50 112.5,207.8 a 199.6,199.6 0 0 0 51.8,-72.9 c -24,-112 -98.6,-216.299995 -180.5,-216.499995 -1.38,0 -2.7,0.1 -4,0.1 -1.38,0 -2.7,-0.1 -4,-0.1 z" />
  </g>
</svg>
