<svg xmlns="http://www.w3.org/2000/svg" class="logo_font_dark" viewBox="0 0 786.1 139.2"><defs/><path fill="#fff" d="M734.2.1v139h12V73.3l7.3-.3 19.2 66.2 13.4-.1L765 69.4c7.8-4.8 14.7-12 14.4-35.5C779.1 10.2 764.9.2 749.2.1zm-200 .5l-11.4.1v138h11.4v-101l28.3 101v.4h11.3V1.1h-11.2v51.8l-.1-.1V102L534.2 1V.8zm116 0v138h31.6v-10.7l-20.2.1V0h-11.4zm-171 .1v138h31.7V128h-20.2V72.3h18.8V61.7h-18.8V11.1h20.2V.4h-31.7zm109 0v138h13.9c14.8 0 24.7-7.5 29.5-22.5 2.8-8.9 4.2-24.4 4.2-46.7 0-22.2-1.4-37.8-4.2-46.6C626.8 7.9 616.9.4 602.1.4h-13.9zm103 0v138h31.7V128h-20.4V72.3h19V61.7h-19V11.1h20.3V.4h-31.6zm54 9.8c16.5 0 20.6 7.9 20.6 23.3 0 15.5-1 28-20.6 28zm-146 .9h1.2c10.5 0 17.4 6.2 20.6 18.5a176 176 0 013.1 40c0 19.2-1 32.5-3.1 39.9-3.2 12.3-10 18.5-20.6 18.5h-1.2v-117z" color="#000" style="font-variant-ligatures:normal;font-variant-position:normal;font-variant-caps:normal;font-variant-numeric:normal;font-variant-alternates:normal;font-feature-settings:normal;text-indent:0;text-decoration-line:none;text-decoration-style:solid;text-decoration-color:#000;text-transform:none;text-orientation:mixed;white-space:normal;shape-padding:0;isolation:auto;mix-blend-mode:normal"/><path fill="#9f9f9f" d="M406.2.1a23.8 23.8 0 00-11.3 3.3 22.4 22.4 0 00-9 12.2 42 42 0 00.7 30.2 68.6 68.6 0 0011.7 18.4 2360 2360 0 019.4 11c10.6 12.3 14.7 23 13.3 34.8-1.1 8.5-4.2 14-9.7 17.3-4.1 2.4-10.3 2-15.3.2a44.7 44.7 0 01-10.9-9l-5.3 7.4a15 15 0 002.5 3.6c2.8 3.2 8 6.9 11.8 8.2l.2.3a52.7 52.7 0 0020 0c9-3.5 14.6-11.7 16.2-24 1-6.6 1-11 0-16.6-1.9-12.4-5.8-19.5-18.8-34.7-13.5-15.5-16.9-21.1-18-29.5-1.3-9.7 1.9-18 7.9-21.4 4.4-2.3 8.5-1.3 12.9.7a28 28 0 014.4 3.2l1.6 1.3c.6 0 3.9-8 4.4-8.8A23.8 23.8 0 00406.2.1zm-302 .2l-20.9 138h11.4l6-45.8H120l6 45.8h11.4L116.5.3zm78 0h-39.4v10.8h14.8v128H169v-128h28.1v128h11.4v-128h14.9V.3zm46.3 0v138H240V72h28.4v66.4h11.2V.4L268.3.3v61.5h-28.4V.3zm66.1 0v138H306V.3zm47.4 0l-21 138h11.4l5.9-45.8h19.4l5.9 45.9H375L354.2.4H342zM0 .7v138h11.4v-117c6.6 12.7 13.8 26 19.7 36.8l5.7 10 5.7-10 19.7-36.6v117h11.2V.9H62.2L40.7 40.7l-4 7.4c-9-17-17.3-32-25.4-47.2L0 .8zm110 18.7l8.5 64.3h-17zm238 0l8.4 64.4h-16.9l8.5-64.3z"/></svg>