<svg xmlns="http://www.w3.org/2000/svg" viewBox="0 0 456 456"><defs/><g letter-spacing="0" transform="translate(-167)" word-spacing="0"><circle cx="395" cy="228" r="220" fill="#fff" stroke="#000" stroke-width="16"/><path fill="#856800" fill-rule="evenodd" d="M468 266l-70 37-77-37z"/><path fill="#ffcb15" fill-rule="evenodd" d="M468 266l-70 31-77-31z"/><path d="M360 208a22 21 85 00-2 0 22 21 85 00-19 24 22 21 85 0023 19 22 21 85 0019-23 22 21 85 00-7-14 5 6 0 012 4 5 6 0 01-6 7 5 6 0 01-5-7 5 6 0 016-6 5 6 0 013 1 22 21 85 00-14-5zm71 1a22 21 85 00-2 0 22 21 85 00-19 23 22 21 85 0022 20 22 21 85 0019-24 22 21 85 00-20-19zm10 4a5 6 0 015 6 5 6 0 01-5 6 5 6 0 01-5-6 5 6 0 015-6z"/></g><path fill-rule="evenodd" d="M262 58c-4 9-12 19-19 24 1-8 2-16 1-22-4 8-12 18-20 24 2-7 2-15 1-21-7 13-15 24-29 28-70 20-131 113-152 213 11 28 29 53 51 73 8-158 45-267 112-208 10 9 16 13 20 13 5 0 10-4 21-13 67-59 105 50 112 208 22-20 40-45 51-73-20-95-77-184-144-209l-10-4c4-8 7-23 5-33z"/></svg>