<svg xmlns="http://www.w3.org/2000/svg" viewBox="0 0 790.23 692.61"><circle cx="413.24" cy="227.7" r="219.68" fill="none" stroke="#000" stroke-width="16.03" style="line-height:125%" font-family="sans-serif" letter-spacing="0" word-spacing="0"/><g fill-rule="evenodd" stroke="#a16200" font-family="sans-serif" letter-spacing="0" word-spacing="0"><path fill="#331f00" stroke-width="1.97" d="M483.75 265.74l-67.07 40.14-74.23-39.53 141.3-.6z" style="line-height:125%"/><path fill="#efba00" stroke-width="2" d="M486.65 265.92l-70.2 34.02-76.9-33.9 147.1-.12z" style="line-height:125%"/></g><g transform="translate(168.64 2.914) scale(.65795)" style="line-height:125%" font-family="sans-serif" letter-spacing="0" word-spacing="0"><ellipse cx="-608.75" cy="-163.14" transform="matrix(1.24897 -.1137 .107 1.17517 1095.87 466.7)" rx="25.25" ry="28"/><ellipse cx="331.36" cy="347.99" fill="#fff" transform="matrix(.52213 0 0 .54745 158.757 136.432)" rx="15.15" ry="17.04"/></g><g transform="translate(168.64 2.914) scale(.65795)" style="line-height:125%" font-family="sans-serif" letter-spacing="0" word-spacing="0"><ellipse cx="-608.75" cy="-163.14" transform="matrix(1.24897 -.1137 .107 1.17517 1203.2 467.646)" rx="25.25" ry="28"/><ellipse cx="331.36" cy="347.99" fill="#fff" transform="matrix(.52213 0 0 .54745 265.358 136.993)" rx="15.15" ry="17.04"/></g><g fill-rule="evenodd" stroke="#000"><path d="M366.4 100.64c18.54-11.05 36.54-22.57 46.94-40.73 1.35 12.3-.1 28.5-10.86 43.5"/><path d="M389.44 100.64c18.54-11.05 36.54-22.57 46.94-40.73 1.35 12.3-.1 28.5-10.86 43.5"/><path d="M412.48 100.64C431.02 89.6 449 78.07 459.42 59.9c1.35 12.3-.1 28.44-10.86 43.46"/></g><path d="M409.24 87.05c-81.85.27-156.44 104.43-180.48 216.46a199.6 199.6.0 0 0 51.83 73.1c7.9-157.9 44.7-266.9 112.5-207.8 10.1 8.9 15.2 12.9 20.1 12.6 4.9.3 10-3.8 20.1-12.6 67.7-59.1 104.6 50 112.5 207.8a199.6 199.6.0 0 0 51.8-72.9c-24-112-98.6-216.3-180.5-216.5-1.38.0-2.7.1-4 .1-1.38.0-2.7-.1-4-.1z" style="line-height:125%" font-family="sans-serif" letter-spacing="0" word-spacing="0"/><path fill="#959595" d="M131.3 692.6h11.4l-20.92-138.3H109.5L88.6 692.6H1e2l5.88-45.8h19.36zm-24.2-54.96 8.46-64.3 8.47 64.3zm82.05-83.34H148v10.73h14.87V692.6h11.4V565.04h14.88z" style="line-height:125%;-inkscape-font-specification:'Ever After, Normal';text-align:start" font-family="Ever After" letter-spacing="0" word-spacing="0"/><path fill="#959595" d="M228.65 554.3H187.5v10.73h14.87V692.6h11.4V565.04h14.88zm44.9.0v61.38H245.2V554.3h-11.42v138.3h11.4v-66.38h28.36v66.4h11.23V554.3zm37.8 138.3h-11.4V554.3h11.4zm57.65.0h11.4l-20.92-138.3H347.2l-20.9 138.3h11.4l5.87-45.8h19.36zm-24.22-54.96 8.47-64.3 8.47 64.3z" style="line-height:125%;-inkscape-font-specification:'Ever After, Normal';text-align:start" font-family="Ever After" letter-spacing="0" word-spacing="0"/><path d="M517.26 565.03V554.3h-31.64v138.3h31.64v-10.7h-20.23v-55.7h18.85v-10.54h-18.85V565zm11.24-10.73v138.3h11.35V554.3H528.5zm39.76.0v51.87l-.1-.17v20.75l.1.17v65.7h11.24V554.3h-11.24zm40.24.0h-13.8v138.3h13.83q22.3.0 29.57-22.46 4.15-13.32 4.15-46.68t-4.15-46.67q-7.26-22.5-29.56-22.5zm-1.2 127.6h-1.2V565.02h1.2q15.73.0 20.57 18.5 3.1 11.06 3.1 39.93.0 28.87-3.1 39.93-4.84 18.5-20.57 18.5zm60.24.0V554.3h-11.4v138.3h31.62v-10.7zm62.1-116.87V554.3H698v138.3h31.63v-10.7H709.4v-55.7h18.85v-10.54H709.4V565zm60.5 127.57q-14.17-37-20.74-72.25 14.17-10.37 14.17-33.88.0-32.16-27.48-32.16h-15.3v138.3h11.4v-65q2.2-.5 6.9-2 7 33.4 18.3 67.1zm-37.86-78.47v-49.1h2.6q10.54.0 14.7 5.88 3.27 4.7 3.27 15.6.0 15.8-8.12 23.4-5.2 4.9-10.2 4.9-1.38.0-2.25-.5z" style="line-height:125%;-inkscape-font-specification:'Ever After, Normal';text-align:start" font-family="Ever After" letter-spacing="0" word-spacing="0"/><path fill="none" stroke="#000" stroke-width="10" d="M535.06 555.72l38 135.54"/><path fill="#959595" d="M.1 554.6v138h11.38V575.65c6.6 12.7 13.78 25.9 19.67 36.78l5.7 10 .02-.02v.1l5.72-10c6.5-12 13.5-25.2 19.7-36.8v116.9h11.2v-138H62.3C55 568 47.5 582 40.8 594.4l-4 7.45c-9.1-17.05-17.3-32.07-25.4-47.23z" style="line-height:125%;-inkscape-font-specification:'Ever After, Normal';text-align:start" font-size="172.52" font-family="Ever After" letter-spacing="0" word-spacing="0"/><path fill="#959595" d="M398.84 691.66c-3.72-1.33-8.96-5-11.76-8.2-1.4-1.6-2.5-3.25-2.54-3.6 4.23-6.05 4.42-6.32 5.3-7.45 3.3 3.4 6.7 6.8 10.9 9.1 4.98 1.8 11.24 2.1 15.32-.3 5.52-3.3 8.62-8.8 9.67-17.3 1.46-11.7-2.65-22.5-13.25-34.8-2.9-3.4-7.13-8.3-9.38-10.9-4.86-5.6-10-13.4-11.77-18.5-4.3-12.5-3.87-21.3-.66-30.2 2.12-5.83 4.9-9.6 9.08-12.2 8.26-5.14 19.28-4.24 27.36 2.25.9.68 1.7 1.44 2.5 2.57-.4.77-3.7 8.77-4.3 8.77-.8-.66-.8-.6-1.6-1.3-.7-.7-2.7-2.1-4.4-3.14-4.4-2.1-8.5-3.1-12.9-.7-6.1 3.44-9.2 11.7-7.9 21.4 1.1 8.34 4.5 14 17.9 29.5 13.08 15.2 16.95 22.3 18.9 34.63.9 5.7.9 10.04.0 16.6-1.65 12.33-7.2 20.5-16.2 23.96-3.3 1.3-16.45 1.3-20.03.04z"/></svg>