<?xml version="1.0" encoding="UTF-8" standalone="no"?>
<svg
   viewBox="0 0 790.1 775.2"
   version="1.1"
   id="svg18380"
   sodipodi:docname="logo_winter.svg"
   inkscape:version="1.1-alpha (17bc9184, 2021-03-28)"
   xmlns:inkscape="http://www.inkscape.org/namespaces/inkscape"
   xmlns:sodipodi="http://sodipodi.sourceforge.net/DTD/sodipodi-0.dtd"
   xmlns="http://www.w3.org/2000/svg"
   xmlns:svg="http://www.w3.org/2000/svg">
  <sodipodi:namedview
     id="namedview18382"
     pagecolor="#ffffff"
     bordercolor="#666666"
     borderopacity="1.0"
     objecttolerance="10.0"
     gridtolerance="10.0"
     guidetolerance="10.0"
     inkscape:pageshadow="2"
     inkscape:pageopacity="0.0"
     inkscape:pagecheckerboard="0"
     showgrid="false"
     inkscape:snap-global="false"
     inkscape:zoom="0.84623322"
     inkscape:cx="395.2811"
     inkscape:cy="387.00915"
     inkscape:window-width="1536"
     inkscape:window-height="907"
     inkscape:window-x="0"
     inkscape:window-y="25"
     inkscape:window-maximized="1"
     inkscape:current-layer="svg18380" />
  <defs
     id="defs18222">
    <linearGradient
       id="h">
      <stop
         offset="0"
         stop-color="#a16200"
         id="stop18182" />
      <stop
         offset="1"
         stop-color="#ffc900"
         id="stop18184" />
    </linearGradient>
    <linearGradient
       id="g">
      <stop
         offset="0"
         stop-color="#ff9405"
         id="stop18187" />
      <stop
         offset="1"
         stop-color="#ffda05"
         id="stop18189" />
    </linearGradient>
    <linearGradient
       id="d">
      <stop
         offset="0"
         stop-color="#ffde05"
         id="stop18192" />
      <stop
         offset="1"
         stop-color="#ff7f04"
         id="stop18194" />
    </linearGradient>
    <linearGradient
       id="e">
      <stop
         offset="0"
         stop-color="#9a9a9a"
         id="stop18197" />
      <stop
         offset="1"
         stop-color="#fff"
         stop-opacity="0"
         id="stop18199" />
    </linearGradient>
    <linearGradient
       id="b">
      <stop
         offset="0"
         stop-color="#cfa200"
         id="stop18202" />
      <stop
         offset="1"
         stop-color="#493900"
         id="stop18204" />
    </linearGradient>
    <linearGradient
       id="c">
      <stop
         offset="0"
         stop-color="#fff"
         id="stop18207" />
      <stop
         offset="1"
         stop-color="#fff"
         stop-opacity="0"
         id="stop18209" />
    </linearGradient>
    <linearGradient
       id="a">
      <stop
         offset="0"
         stop-color="#d6e5e5"
         id="stop18212" />
      <stop
         offset="1"
         stop-color="#f1f1f1"
         stop-opacity="0"
         id="stop18214" />
    </linearGradient>
    <linearGradient
       id="f">
      <stop
         offset="0"
         stop-color="#a8e2e2"
         id="stop18217" />
      <stop
         offset="1"
         stop-color="#fff"
         stop-opacity="0"
         id="stop18219" />
    </linearGradient>
  </defs>
  <circle
     style="fill:#ffffff;stroke-width:20;stroke-linecap:square;stop-color:#000000;fill-opacity:1;stroke:#000000;stroke-opacity:1;stroke-miterlimit:4;stroke-dasharray:none"
     id="path18722"
     cx="395.04999"
     cy="406.50732"
     r="284.20062" />
  <g
     font-weight="400"
     font-family="sans-serif"
     letter-spacing="0"
     word-spacing="0"
     fill-rule="evenodd"
     stroke="#a16200"
     stroke-width="2"
     id="g18244"
     transform="matrix(1.2713761,0,0,1.2713761,-107.31309,11.143266)">
    <path
       d="m 465.5,348.3 -67,40.2 -74.3,-39.6 z"
       style="line-height:125%"
       fill="#331f00"
       id="path18240" />
    <path
       d="m 468.4,348.5 -70.2,34 -76.9,-33.9 z"
       style="line-height:125%"
       fill="#efba00"
       id="path18242" />
  </g>
  <g
     style="line-height:125%"
     transform="matrix(0.8365019,0,0,0.8365019,83.901875,119.84592)"
     font-weight="400"
     font-family="sans-serif"
     letter-spacing="0"
     word-spacing="0"
     id="g18250">
    <ellipse
       ry="28"
       rx="25.299999"
       cy="-163.10001"
       cx="-608.79999"
       transform="matrix(1.24897,-0.11371,0.107,1.17517,1095.9,466.7)"
       id="ellipse18246" />
    <ellipse
       ry="17"
       rx="15.1"
       cy="348"
       cx="331.39999"
       transform="matrix(0.52213,0,0,0.54745,158.8,136.4)"
       fill="#ffffff"
       id="ellipse18248" />
  </g>
  <g
     style="line-height:125%"
     transform="matrix(0.8365019,0,0,0.8365019,83.901875,119.84592)"
     font-weight="400"
     font-family="sans-serif"
     letter-spacing="0"
     word-spacing="0"
     id="g18256">
    <ellipse
       ry="28"
       rx="25.299999"
       cy="-163.10001"
       cx="-608.79999"
       transform="matrix(1.24897,-0.11371,0.107,1.17517,1203.2,467.6)"
       id="ellipse18252" />
    <ellipse
       ry="17"
       rx="15.1"
       cy="348"
       cx="331.39999"
       transform="matrix(0.52213,0,0,0.54745,265.4,137)"
       fill="#ffffff"
       id="ellipse18254" />
  </g>
  <path
     style="line-height:125%;stroke-width:1.27138"
     d="M 389.79497,226.76865 C 285.7964,227.15007 190.95174,359.62746 160.31158,502.02158 a 253.76667,253.76667 0 0 0 65.98442,92.81045 c 10.04387,-200.62315 56.95765,-339.33028 143.02981,-264.19195 12.8409,11.18811 19.32492,16.52789 25.55466,16.01934 6.35688,0.38141 12.71376,-4.83123 25.55466,-16.01934 86.1993,-75.01119 133.11308,63.5688 143.15695,264.19195 a 253.76667,253.76667 0 0 0 65.85728,-92.68331 C 598.93633,359.75459 504.21881,227.2772 399.96597,226.76865 l -5.0855,0.12714 h -5.0855 z"
     font-weight="400"
     font-family="sans-serif"
     letter-spacing="0"
     word-spacing="0"
     id="path18258" />
  <path
     d="m 237.73838,293.89731 1.65279,7.62826 c 2.0342,9.53532 66.62011,3.68699 144.30119,-13.22231 77.55394,-16.90931 138.83427,-38.39556 136.67293,-48.05802 l -1.52565,-7.50112 z"
     fill="#92020b"
     id="path18260"
     style="stroke-width:1.27138" />
  <path
     d="m 518.83964,232.74412 c 2.0342,9.66246 -59.24613,31.14871 -136.80007,48.05802 -77.55394,16.9093 -142.26698,22.75763 -144.30119,13.09517 -2.16134,-9.66246 59.11899,-31.14871 136.67293,-47.93088 77.55395,-16.9093 142.39413,-22.88477 144.42833,-13.22231"
     fill="#cd0515"
     id="path18262"
     style="stroke-width:1.27138" />
  <path
     d="m 223.2447,59.455558 c 0,0 57.4662,132.731662 75.01119,214.354012 1.27137,5.97547 37.50559,3.0513 80.85952,-6.35688 43.48106,-9.40819 77.55394,-21.86767 76.28256,-27.97028 C 437.34443,158.24148 434.5474,13.686018 434.5474,13.686018 Z"
     fill="#cd0515"
     id="path18264"
     style="stroke-width:1.27138" />
  <path
     d="M 455.39797,239.60955 C 437.34443,158.24148 434.5474,13.558881 434.5474,13.558881 l -57.33906,12.459485 c 10.42529,50.855044 26.31749,163.117554 -14.36655,244.739904 5.21264,-1.01711 10.67956,-2.03421 16.27362,-3.30558 43.48106,-9.40819 77.55394,-21.86767 76.28256,-27.97028"
     fill="#ab030f"
     id="path18266"
     style="stroke-width:1.27138" />
  <path
     d="m 369.32581,222.1917 c -36.86991,8.13681 -68.90858,11.69666 -82.00376,9.91673 4.32268,14.62083 8.13681,28.86024 10.8067,41.70114 1.27137,5.97547 37.63273,3.0513 80.98666,-6.35688 43.48106,-9.40819 77.55394,-21.86767 76.28256,-27.97028 a 568.68653,568.68653 0 0 1 -7.37398,-42.33682 c -11.18811,7.11971 -41.95541,17.16358 -78.82532,25.17325"
     fill="#00243b"
     id="path18268"
     style="stroke-width:1.27138" />
  <path
     d="m 454.25373,233.88836 -0.76282,-3.55985 -0.25428,-1.27138 -0.76282,-4.0684 -0.12714,-0.63569 -1.77993,-10.17101 -0.12713,-0.76283 -0.76283,-4.44981 v -1.0171 l -0.76283,-4.7041 -0.12713,-0.63568 a 682.72897,682.72897 0 0 1 -0.76283,-5.33978 c -10.04387,6.35688 -35.59853,14.8751 -67.38293,22.37622 a 231.39045,231.39045 0 0 1 -17.79927,51.10932 l 8.00967,-1.52566 8.26395,-1.77992 c 43.48106,-9.40819 77.55394,-21.86767 76.28256,-27.97028 l -1.0171,-4.44981 -0.12714,-1.14424"
     fill="#001c30"
     id="path18270"
     style="stroke-width:1.27138" />
  <path
     d="M 434.5474,13.558881 C 435.81878,19.534348 389.66783,34.663724 331.31166,47.250347 272.82836,59.964108 224.51607,65.431025 223.2447,59.455558 221.97332,53.48009 268.25141,38.477852 326.60757,25.764091 384.96374,13.05033 433.27603,7.5834129 434.67454,13.558881"
     fill="#92020b"
     id="path18272"
     style="stroke-width:1.27138" />
  <path
     d="m 345.55108,231.47274 c -5.08551,1.27138 -8.26395,6.22975 -7.24685,11.31525 l 4.06841,18.43495 c 1.14424,5.08551 6.1026,8.26395 11.18811,7.24685 l 49.20225,-10.8067 c 5.08551,-1.0171 8.39108,-6.1026 7.24685,-11.18811 l -4.06841,-18.43495 c -1.0171,-5.08551 -6.1026,-8.39108 -11.18811,-7.24685 z m 60.13609,39.41266 -49.3294,10.67956 a 22.88477,22.88477 0 0 1 -27.20744,-17.41785 l -4.06841,-18.56209 a 22.88477,22.88477 0 0 1 17.67213,-27.20745 l 49.32939,-10.67956 a 22.88477,22.88477 0 0 1 27.20745,17.54499 l 4.0684,18.56209 a 22.88477,22.88477 0 0 1 -17.54499,27.20745"
     fill="#ff9200"
     id="path18274"
     style="stroke-width:1.27138" />
  <path
     d="m 233.4157,83.611704 c 3.55986,8.51822 7.62826,18.816366 12.20522,30.513026 24.66469,-1.90706 59.11898,-7.24684 96.87885,-15.383651 A 748.84052,748.84052 0 0 0 436.83588,72.423594 L 435.31023,39.749228 C 411.5355,48.648861 375.93697,58.81987 335.63434,67.719502 A 757.74016,757.74016 0 0 1 233.4157,83.611704 m 121.03501,70.561376 a 799.31415,799.31415 0 0 0 86.32644,-23.52046 c -0.88997,-11.06097 -1.77993,-21.99481 -2.41562,-32.420091 a 815.33349,815.33349 0 0 1 -90.52198,24.791831 816.22346,816.22346 0 0 1 -92.68331,15.25652 c 3.81412,9.78959 7.62825,19.9606 11.31524,30.51302 23.6476,-2.41561 54.66918,-7.37398 88.10637,-14.62082 m 11.95093,55.30486 c 30.64017,-6.61116 58.4833,-14.11228 80.22383,-21.23198 l -3.68699,-31.91154 c -22.50335,7.37398 -51.36359,15.25651 -83.27513,22.12194 -31.7844,6.99257 -61.40747,11.8238 -85.05506,14.49369 a 1112.4541,1112.4541 0 0 1 10.04387,30.51302 c 22.75763,-2.54275 51.10932,-7.24684 81.74948,-13.98513"
     fill="#ffffff"
     id="path18276"
     style="stroke-width:1.27138" />
  <path
     d="m 446.75261,188.24596 -3.68699,-31.91154 c -15.63792,5.0855 -34.32715,10.55242 -55.17772,15.63792 -0.88996,11.18811 -2.28848,22.50336 -4.19554,33.69147 a 778.08217,778.08217 0 0 0 63.06025,-17.41785 m -6.1026,-57.4662 -2.28848,-32.420094 c -13.98513,4.958364 -30.89444,10.043874 -49.83794,15.002234 0.50855,10.55243 0.76282,21.48626 0.63569,32.54723 19.57919,-5.0855 37.12418,-10.17101 51.61787,-15.12937 m -3.94127,-58.356166 -1.52565,-32.674366 c -13.98514,5.33978 -32.03868,10.933835 -52.76211,16.52789 1.52565,9.789596 2.92417,20.342017 4.0684,31.784402 19.45206,-5.212642 36.61564,-10.552422 50.21936,-15.637926"
     fill="#d6d6d6"
     id="path18278"
     style="stroke-width:1.27138" />
  <g
     stroke-width="0.8"
     id="g18376"
     transform="matrix(1.2713761,0,0,1.2713761,-107.31309,11.143266)">
    <path
       d="m 534.4,528.5 c 2,-0.5 1,-3.5 -1,-3.1 a 77,77 0 0 1 -52,-8 c 3.6,-1.8 7.1,-3.5 10.6,-5.4 a 409,409 0 0 0 35.7,-20.8 c 2.3,5.5 9.8,8 15.1,9.6 8.8,2.7 19.3,4 28.1,0.8 1.5,-0.5 1.2,-2.8 -0.5,-2.8 -7,0.2 -13.7,1 -20.8,-0.3 -5.4,-1 -16.8,-3 -19.4,-9 6.2,-4.2 12.3,-8.6 18.1,-13.2 0.7,0 1.4,-0.5 1.5,-1.2 l 3.4,-2.7 10.8,-9.2 c 0,0.2 0.1,0.4 0.3,0.5 9,6.4 22.2,7.4 31.7,1.6 1.3,-0.8 0.3,-3 -1.1,-2.5 a 31.8,31.8 0 0 1 -29.5,-0.7 h -0.1 c 9.9,-9 19.3,-19.4 22,-31.7 0.2,-1.6 -2,-2 -2.4,-0.5 -5.8,16 -21.1,30.3 -36,41.8 -4.3,-15.1 6.2,-26.5 17.7,-35.5 1.5,-1.2 0.1,-3.5 -1.6,-2.5 -13.6,7.7 -25.9,24.2 -18.8,40 a 518,518 0 0 1 -19,13.6 345,345 0 0 1 -16.2,10 c -3,-13.5 -0.4,-26.4 9.8,-36.6 1.1,-1.2 -0.6,-3.3 -1.8,-2.2 a 35.2,35.2 0 0 0 -10.4,40.3 505.5,505.5 0 0 1 -56.6,28.5 c -1.8,-5.7 5.1,-18.4 7.2,-21.9 a 68.1,68.1 0 0 1 14,-16.4 c 1,-1 -0.5,-2.7 -1.6,-2 A 53.8,53.8 0 0 0 452,512.8 c -1.2,3.1 -4.6,11.5 -2.5,15.6 -17.7,7.8 -35.7,15.4 -53,23.8 -0.4,-14.6 9.7,-28.4 19.3,-38.4 1.3,-1.4 -0.7,-3 -2,-2 -10.3,8.8 -23.3,27.1 -19.5,41.4 A 344,344 0 0 0 355,575.4 c -1.6,1 -0.1,3.3 1.6,2.5 25.3,-13.4 51.3,-25.4 77.3,-37.6 7.7,16.8 37.9,15.7 52.3,11.5 1.5,-0.4 0.8,-2.5 -0.7,-2.3 -15.1,2.7 -39.2,3.6 -49.4,-10.2 14.3,-6.7 28.5,-13.4 42.6,-20.5 a 68.7,68.7 0 0 0 55.7,9.7"
       fill="#006633"
       id="path18280" />
    <path
       d="m 426.3,514.7 c 1.2,-4.7 -1,-9.6 -4.7,-12.1 -1.2,-1.4 -3,-1.9 -5,-1.8 h -0.4 c -2.6,-0.2 -5.1,0.7 -7.1,2.4 a 9.6,9.6 0 0 0 -2.8,2.4 c -4.1,5.8 -2.1,14 4.5,16.8 6.5,2.8 13.8,-0.8 15.5,-7.7"
       fill="#be1622"
       id="path18282" />
    <path
       d="m 416.6,510.7 c 0.2,-0.9 0.2,-1.7 0,-2.5 a 7,7 0 0 1 3.4,-0.3 c 1.3,0.2 1.7,-1.6 0.5,-2 a 6.6,6.6 0 0 0 -4.7,0.4 l -1.1,-1.4 c -0.9,-0.9 -2.2,0.5 -1.3,1.4 l 0.7,1 c -0.7,0.6 -1.3,1.3 -1.8,2.2 -0.6,1 0.9,1.7 1.5,0.8 l 1,-1.1 0.1,1.4 c 0,1 1.4,1 1.7,0.1"
       fill="#e93842"
       id="path18284" />
    <path
       d="m 483.3,487.6 c 1.2,-4.7 -1,-9.6 -4.8,-12.1 -1.1,-1.4 -3,-1.9 -5,-1.8 h -0.3 c -2.7,-0.2 -5.2,0.7 -7.1,2.4 a 9.6,9.6 0 0 0 -2.9,2.4 c -4,5.8 -2,14 4.5,16.8 6.5,2.8 13.9,-0.8 15.6,-7.7"
       fill="#be1622"
       id="path18286" />
    <path
       d="m 473.5,483.6 c 0.3,-0.9 0.2,-1.7 0,-2.5 1.1,-0.4 2.3,-0.5 3.5,-0.3 1.2,0.2 1.7,-1.6 0.4,-2 a 6.6,6.6 0 0 0 -4.6,0.4 c -0.4,-0.5 -0.7,-1 -1.2,-1.4 -0.8,-0.9 -2.1,0.5 -1.3,1.4 0.4,0.3 0.6,0.6 0.8,1 -0.7,0.6 -1.4,1.3 -1.9,2.2 -0.5,1 1,1.7 1.5,0.8 l 1,-1.1 0.2,1.4 c 0,1 1.4,1 1.6,0.1"
       fill="#e93842"
       id="path18288" />
    <path
       d="m 532.9,456.5 c 1.2,-4.7 -1,-9.5 -4.8,-12 -1.1,-1.4 -3,-2 -5,-1.9 h -0.4 c -2.6,-0.2 -5.1,0.8 -7,2.4 a 9.6,9.6 0 0 0 -2.9,2.4 c -4,5.8 -2.1,14 4.5,16.8 6.5,2.9 13.9,-0.8 15.6,-7.7"
       fill="#be1622"
       id="path18290" />
    <path
       d="m 523.1,452.6 c 0.3,-1 0.2,-1.8 0,-2.6 1,-0.4 2.3,-0.5 3.5,-0.3 1.2,0.2 1.7,-1.6 0.4,-2 a 6.6,6.6 0 0 0 -4.7,0.4 l -1,-1.4 c -1,-0.9 -2.2,0.5 -1.4,1.4 l 0.8,1 c -0.8,0.7 -1.4,1.4 -1.9,2.2 -0.5,1 1,1.7 1.5,0.8 l 1,-1 0.2,1.3 c 0,1 1.4,1 1.6,0.2"
       fill="#e93842"
       id="path18292" />
    <path
       d="m 573.3,431.2 c 1.1,-4.7 -1,-9.5 -4.8,-12 -1.1,-1.4 -3,-2 -5,-1.8 l -0.4,-0.1 c -2.6,-0.2 -5.1,0.8 -7,2.4 a 9.6,9.6 0 0 0 -2.9,2.4 c -4.1,5.8 -2.1,14 4.5,16.9 6.5,2.8 13.9,-0.9 15.6,-7.8"
       fill="#be1622"
       id="path18294" />
    <path
       d="m 563.5,427.3 c 0.2,-0.9 0.2,-1.8 0,-2.6 1,-0.4 2.3,-0.5 3.4,-0.3 1.3,0.2 1.7,-1.6 0.5,-2 a 6.6,6.6 0 0 0 -4.7,0.4 l -1,-1.4 c -1,-0.8 -2.3,0.6 -1.4,1.4 l 0.8,1 c -0.8,0.7 -1.4,1.4 -2,2.2 -0.5,1 1,1.7 1.6,0.8 l 1,-1 0.1,1.3 c 0,1 1.5,1 1.7,0.2"
       fill="#e93842"
       id="path18296" />
    <path
       d="m 601.9,434.3 c 1.1,-4.7 -1,-9.5 -4.8,-12.1 -1.1,-1.4 -3,-1.9 -5,-1.8 h -0.4 c -2.6,-0.2 -5.1,0.8 -7,2.4 a 9.5,9.5 0 0 0 -2.9,2.4 c -4.1,5.8 -2.1,14 4.5,16.8 6.5,2.9 13.9,-0.8 15.6,-7.7"
       fill="#be1622"
       id="path18298" />
    <path
       d="m 592.1,430.3 c 0.2,-0.8 0.2,-1.7 0,-2.5 1,-0.4 2.3,-0.5 3.4,-0.3 1.3,0.2 1.7,-1.6 0.5,-2 a 6.6,6.6 0 0 0 -4.7,0.4 l -1,-1.4 c -1,-0.9 -2.3,0.5 -1.4,1.4 l 0.8,1 c -0.8,0.6 -1.4,1.3 -2,2.2 -0.5,1 1,1.7 1.6,0.8 l 1,-1.1 0.1,1.4 c 0,1 1.5,1 1.7,0.1"
       fill="#e93842"
       id="path18300" />
    <path
       d="m 597.3,472.2 c 4.9,-0.5 8.7,-4.2 9.8,-8.6 0.9,-1.6 0.7,-3.5 0,-5.3 l -0.1,-0.4 c -0.8,-2.5 -2.5,-4.6 -4.7,-5.9 a 9.6,9.6 0 0 0 -3.2,-1.8 11.2,11.2 0 0 0 -14.3,10 11.3,11.3 0 0 0 12.5,12"
       fill="#be1622"
       id="path18302" />
    <path
       d="m 597.7,461.7 c 1,-0.1 1.7,-0.5 2.4,-1 a 7,7 0 0 1 1.5,3.2 c 0.3,1.3 2,1 2,-0.2 a 6.6,6.6 0 0 0 -2,-4.3 c 0.4,-0.5 0.8,-1 1,-1.5 0.5,-1.1 -1.2,-1.9 -1.8,-0.8 l -0.7,1.1 c -0.8,-0.5 -1.7,-0.8 -2.7,-1 -1,-0.2 -1.2,1.4 -0.2,1.7 l 1.4,0.5 c -0.4,0.3 -0.8,0.5 -1.3,0.6 -0.9,0.4 -0.5,1.7 0.4,1.7"
       fill="#e93842"
       id="path18304" />
    <path
       d="m 574.4,510.8 c 4.9,-0.6 8.7,-4.2 9.7,-8.6 1,-1.6 0.8,-3.5 0,-5.4 v -0.3 c -0.8,-2.6 -2.6,-4.6 -4.7,-5.9 a 9.6,9.6 0 0 0 -3.3,-1.8 11.2,11.2 0 0 0 -14.3,10 11.3,11.3 0 0 0 12.6,12"
       fill="#be1622"
       id="path18306" />
    <path
       d="m 574.8,500.2 c 1,0 1.7,-0.4 2.4,-0.9 a 7,7 0 0 1 1.5,3.2 c 0.2,1.2 2,1 2,-0.3 a 6.6,6.6 0 0 0 -2,-4.2 l 1,-1.5 c 0.5,-1.2 -1.3,-1.9 -1.8,-0.8 -0.2,0.4 -0.4,0.8 -0.7,1 -0.8,-0.4 -1.8,-0.8 -2.7,-1 -1.1,-0.1 -1.3,1.5 -0.2,1.7 l 1.3,0.6 -1.2,0.6 c -1,0.4 -0.5,1.7 0.4,1.6"
       fill="#e93842"
       id="path18308" />
    <path
       d="m 533.4,535 c 4.8,-0.5 8.6,-4.2 9.7,-8.6 1,-1.6 0.8,-3.5 0,-5.4 v -0.3 c -0.8,-2.6 -2.6,-4.6 -4.8,-5.9 a 9.6,9.6 0 0 0 -3.2,-1.8 11.2,11.2 0 0 0 -14.3,10 11.3,11.3 0 0 0 12.6,12"
       fill="#be1622"
       id="path18310" />
    <path
       d="m 533.8,524.5 c 0.9,-0.1 1.7,-0.5 2.4,-1 0.7,1 1.2,2 1.4,3.2 0.3,1.3 2.1,1 2,-0.3 a 6.6,6.6 0 0 0 -1.9,-4.2 l 1,-1.5 c 0.5,-1.2 -1.3,-1.9 -1.8,-0.8 l -0.7,1 c -0.9,-0.4 -1.8,-0.8 -2.7,-1 -1.1,-0.1 -1.3,1.5 -0.3,1.8 0.5,0 1,0.3 1.4,0.5 l -1.2,0.6 c -1,0.4 -0.6,1.7 0.4,1.7"
       fill="#e93842"
       id="path18312" />
    <path
       d="m 482.3,563.8 c 4.8,-0.5 8.6,-4.2 9.7,-8.6 0.9,-1.6 0.7,-3.5 0,-5.4 v -0.3 c -0.9,-2.6 -2.6,-4.6 -4.8,-5.9 a 9.6,9.6 0 0 0 -3.2,-1.8 11.2,11.2 0 0 0 -14.3,10 c -0.5,7 5.5,12.7 12.6,12"
       fill="#be1622"
       id="path18314" />
    <path
       d="m 482.7,553.2 c 0.9,0 1.6,-0.4 2.4,-0.8 a 7,7 0 0 1 1.4,3.1 c 0.3,1.3 2.1,1 2,-0.3 a 6.6,6.6 0 0 0 -2,-4.2 c 0.5,-0.5 0.8,-1 1,-1.5 0.5,-1.2 -1.2,-1.9 -1.8,-0.8 -0.2,0.4 -0.4,0.8 -0.7,1 -0.8,-0.4 -1.7,-0.8 -2.7,-1 -1,-0.1 -1.2,1.5 -0.2,1.8 0.5,0 1,0.3 1.4,0.5 -0.4,0.3 -0.8,0.5 -1.3,0.6 -0.9,0.4 -0.5,1.7 0.5,1.6"
       fill="#e93842"
       id="path18316" />
    <path
       d="m 255.6,528.5 c -2,-0.5 -1,-3.5 1,-3.1 a 77,77 0 0 0 52,-8 L 298,512 a 409,409 0 0 1 -35.6,-20.8 c -2.3,5.5 -9.8,8 -15.2,9.6 -8.7,2.7 -19.3,4 -28,0.8 -1.6,-0.5 -1.3,-2.8 0.4,-2.8 7,0.2 13.8,1 20.8,-0.3 5.4,-1 16.9,-3 19.5,-9 -6.2,-4.2 -12.3,-8.6 -18.2,-13.2 -0.7,0 -1.4,-0.5 -1.5,-1.2 -1,-1 -2.2,-1.8 -3.4,-2.7 l -10.7,-9.2 c 0,0.2 -0.2,0.4 -0.3,0.5 -9,6.4 -22.2,7.4 -31.8,1.6 -1.2,-0.8 -0.3,-3 1.1,-2.5 10,4.5 19.8,4.5 29.5,-0.7 h 0.1 c -9.8,-9 -19.3,-19.4 -21.9,-31.7 -0.3,-1.6 1.9,-2 2.4,-0.5 5.7,16 21,30.3 36,41.8 4.2,-15.1 -6.2,-26.5 -17.8,-35.5 -1.5,-1.2 0,-3.5 1.6,-2.5 13.7,7.7 26,24.2 18.9,40 a 518,518 0 0 0 19,13.6 345,345 0 0 0 16.1,10 c 3,-13.5 0.4,-26.4 -9.7,-36.6 -1.2,-1.2 0.5,-3.3 1.8,-2.2 a 35.2,35.2 0 0 1 10.4,40.3 505.5,505.5 0 0 0 56.5,28.5 c 1.9,-5.7 -5,-18.4 -7.1,-21.9 a 68.1,68.1 0 0 0 -14,-16.4 c -1,-1 0.4,-2.7 1.5,-2 a 53.8,53.8 0 0 1 19.7,25.8 c 1.1,3.1 4.6,11.5 2.4,15.6 17.7,7.8 35.7,15.4 53.1,23.8 0.3,-14.6 -9.8,-28.4 -19.4,-38.4 -1.2,-1.4 0.8,-3 2,-2 10.3,8.8 23.3,27.1 19.5,41.4 a 344,344 0 0 1 39.4,22.2 c 1.6,1 0,3.3 -1.6,2.5 -25.4,-13.4 -51.4,-25.4 -77.3,-37.6 -7.8,16.8 -38,15.7 -52.4,11.5 -1.5,-0.4 -0.7,-2.5 0.7,-2.3 15.1,2.7 39.2,3.6 49.5,-10.2 -14.3,-6.7 -28.5,-13.4 -42.6,-20.5 a 68.7,68.7 0 0 1 -55.8,9.7"
       fill="#006633"
       id="path18318" />
    <path
       d="m 363.7,514.7 c -1.2,-4.7 1,-9.6 4.8,-12.1 1.1,-1.4 3,-1.9 5,-1.8 h 0.4 c 2.6,-0.2 5.1,0.7 7,2.4 1.3,0.7 2.3,1.5 2.9,2.4 4,5.8 2.1,14 -4.5,16.8 a 11.3,11.3 0 0 1 -15.6,-7.7"
       fill="#be1622"
       id="path18320" />
    <path
       d="m 373.5,510.7 c -0.3,-0.9 -0.2,-1.7 0,-2.5 -1,-0.4 -2.3,-0.5 -3.5,-0.3 -1.2,0.2 -1.7,-1.6 -0.4,-2 1.6,-0.5 3.2,-0.3 4.7,0.4 l 1,-1.4 c 1,-0.9 2.2,0.5 1.4,1.4 a 5,5 0 0 0 -0.8,1 c 0.7,0.6 1.4,1.3 1.9,2.2 0.5,1 -1,1.7 -1.5,0.8 l -1,-1.1 -0.2,1.4 c 0,1 -1.4,1 -1.6,0.1"
       fill="#e93842"
       id="path18322" />
    <path
       d="m 306.8,487.6 c -1.2,-4.7 1,-9.6 4.7,-12.1 1.2,-1.4 3,-1.9 5,-1.8 h 0.4 c 2.6,-0.2 5.1,0.7 7.1,2.4 1.2,0.7 2.2,1.5 2.8,2.4 4.1,5.8 2.1,14 -4.5,16.8 a 11.3,11.3 0 0 1 -15.5,-7.7"
       fill="#be1622"
       id="path18324" />
    <path
       d="m 316.5,483.6 c -0.2,-0.9 -0.2,-1.7 0,-2.5 -1,-0.4 -2.2,-0.5 -3.4,-0.3 -1.3,0.2 -1.7,-1.6 -0.5,-2 1.6,-0.5 3.3,-0.3 4.7,0.4 l 1.1,-1.4 c 0.9,-0.9 2.2,0.5 1.3,1.4 a 5,5 0 0 0 -0.7,1 c 0.7,0.6 1.3,1.3 1.8,2.2 0.6,1 -0.9,1.7 -1.5,0.8 l -1,-1.1 -0.1,1.4 c 0,1 -1.4,1 -1.7,0.1"
       fill="#e93842"
       id="path18326" />
    <path
       d="m 257.2,456.5 c -1.2,-4.7 1,-9.5 4.7,-12 1.2,-1.4 3,-2 5,-1.9 h 0.4 c 2.6,-0.2 5.2,0.8 7.1,2.4 1.2,0.7 2.2,1.6 2.8,2.4 4.1,5.8 2.2,14 -4.4,16.8 a 11.3,11.3 0 0 1 -15.6,-7.7"
       fill="#be1622"
       id="path18328" />
    <path
       d="m 267,452.6 c -0.3,-1 -0.3,-1.8 0,-2.6 -1.1,-0.4 -2.3,-0.5 -3.5,-0.3 -1.3,0.2 -1.7,-1.6 -0.5,-2 1.6,-0.4 3.3,-0.3 4.7,0.4 l 1.1,-1.4 c 0.9,-0.9 2.2,0.5 1.3,1.4 a 5,5 0 0 0 -0.7,1 c 0.7,0.7 1.4,1.4 1.8,2.2 0.6,1 -0.9,1.7 -1.5,0.8 -0.3,-0.4 -0.6,-0.8 -1,-1 l -0.1,1.3 c 0,1 -1.4,1 -1.7,0.2"
       fill="#e93842"
       id="path18330" />
    <path
       d="m 216.8,431.2 c -1.2,-4.7 1,-9.5 4.8,-12 1.1,-1.4 3,-2 5,-1.8 l 0.3,-0.1 c 2.7,-0.2 5.2,0.8 7.1,2.4 1.2,0.7 2.2,1.6 2.8,2.4 4.2,5.8 2.2,14 -4.4,16.9 a 11.3,11.3 0 0 1 -15.6,-7.8"
       fill="#be1622"
       id="path18332" />
    <path
       d="m 226.6,427.3 c -0.3,-0.9 -0.2,-1.8 0,-2.6 a 7,7 0 0 0 -3.5,-0.3 c -1.3,0.2 -1.7,-1.6 -0.4,-2 1.6,-0.4 3.2,-0.2 4.6,0.4 l 1.1,-1.4 c 1,-0.8 2.2,0.6 1.3,1.4 a 5,5 0 0 0 -0.7,1 c 0.7,0.7 1.4,1.4 1.9,2.2 0.5,1 -1,1.7 -1.5,0.8 l -1,-1 -0.2,1.3 c 0,1 -1.4,1 -1.6,0.2"
       fill="#e93842"
       id="path18334" />
    <path
       d="m 188.2,434.3 c -1.2,-4.7 1,-9.5 4.7,-12.1 1.2,-1.4 3,-1.9 5,-1.8 h 0.4 c 2.7,-0.2 5.2,0.8 7.1,2.4 1.2,0.7 2.2,1.5 2.8,2.4 4.2,5.8 2.2,14 -4.4,16.8 a 11.3,11.3 0 0 1 -15.6,-7.7"
       fill="#be1622"
       id="path18336" />
    <path
       d="m 198,430.3 c -0.3,-0.8 -0.2,-1.7 0,-2.5 a 7,7 0 0 0 -3.5,-0.3 c -1.3,0.2 -1.7,-1.6 -0.4,-2 1.6,-0.5 3.2,-0.3 4.6,0.4 l 1.1,-1.4 c 1,-0.9 2.2,0.5 1.3,1.4 a 5,5 0 0 0 -0.7,1 c 0.7,0.6 1.4,1.3 1.9,2.2 0.5,1 -1,1.7 -1.5,0.8 l -1,-1.1 -0.2,1.4 c 0,1 -1.4,1 -1.7,0.1"
       fill="#e93842"
       id="path18338" />
    <path
       d="m 192.7,472.2 c -4.8,-0.5 -8.6,-4.2 -9.7,-8.6 -1,-1.6 -0.8,-3.5 0,-5.3 v -0.4 c 0.8,-2.5 2.6,-4.6 4.8,-5.9 a 9.6,9.6 0 0 1 3.2,-1.8 11.2,11.2 0 0 1 14.3,10 c 0.4,7 -5.5,12.7 -12.6,12"
       fill="#be1622"
       id="path18340" />
    <path
       d="m 192.3,461.7 c -0.9,-0.1 -1.7,-0.5 -2.4,-1 a 7,7 0 0 0 -1.4,3.2 c -0.3,1.3 -2.1,1 -2,-0.2 0,-1.7 0.8,-3.2 1.9,-4.3 l -1,-1.5 c -0.5,-1.1 1.3,-1.9 1.8,-0.8 l 0.7,1.1 c 0.9,-0.5 1.8,-0.8 2.7,-1 1.1,-0.2 1.3,1.4 0.3,1.7 l -1.4,0.5 1.2,0.6 c 1,0.4 0.6,1.7 -0.4,1.7"
       fill="#e93842"
       id="path18342" />
    <path
       d="m 215.6,510.8 c -4.8,-0.6 -8.6,-4.2 -9.7,-8.6 -0.9,-1.6 -0.7,-3.5 0,-5.4 v -0.3 c 0.9,-2.6 2.6,-4.6 4.8,-5.9 a 9.6,9.6 0 0 1 3.2,-1.8 11.2,11.2 0 0 1 14.3,10 c 0.5,7 -5.5,12.7 -12.6,12"
       fill="#be1622"
       id="path18344" />
    <path
       d="m 215.2,500.2 c -0.9,0 -1.6,-0.4 -2.4,-0.9 -0.7,1 -1.2,2 -1.4,3.2 -0.3,1.2 -2,1 -2,-0.3 0,-1.6 0.8,-3.1 2,-4.2 -0.4,-0.5 -0.8,-1 -1,-1.5 -0.5,-1.2 1.2,-1.9 1.8,-0.8 0.2,0.4 0.4,0.8 0.7,1 0.8,-0.4 1.7,-0.8 2.7,-1 1,-0.1 1.2,1.5 0.2,1.7 l -1.4,0.6 1.3,0.6 c 0.9,0.4 0.5,1.7 -0.5,1.6"
       fill="#e93842"
       id="path18346" />
    <path
       d="m 256.7,535 c -4.9,-0.5 -8.7,-4.2 -9.8,-8.6 -0.9,-1.6 -0.7,-3.5 0,-5.4 l 0.1,-0.3 c 0.8,-2.6 2.5,-4.6 4.7,-5.9 a 9.6,9.6 0 0 1 3.2,-1.8 11.2,11.2 0 0 1 14.3,10 c 0.5,7 -5.5,12.7 -12.5,12"
       fill="#be1622"
       id="path18348" />
    <path
       d="m 256.3,524.5 c -1,-0.1 -1.7,-0.5 -2.4,-1 a 7,7 0 0 0 -1.5,3.2 c -0.2,1.3 -2,1 -2,-0.3 0.1,-1.6 0.8,-3 2,-4.2 l -1,-1.5 c -0.5,-1.2 1.3,-1.9 1.8,-0.8 0.2,0.4 0.4,0.8 0.7,1 0.8,-0.4 1.7,-0.8 2.7,-1 1,-0.1 1.2,1.5 0.2,1.8 -0.5,0 -1,0.3 -1.4,0.5 0.4,0.3 0.8,0.5 1.3,0.6 0.9,0.4 0.5,1.7 -0.4,1.7"
       fill="#e93842"
       id="path18350" />
    <path
       d="m 307.8,563.8 c -4.9,-0.5 -8.7,-4.2 -9.8,-8.6 -0.8,-1.6 -0.7,-3.5 0,-5.4 l 0.1,-0.3 c 0.8,-2.6 2.6,-4.6 4.7,-5.9 a 9.6,9.6 0 0 1 3.3,-1.8 11.2,11.2 0 0 1 14.3,10 c 0.4,7 -5.6,12.7 -12.6,12"
       fill="#be1622"
       id="path18352" />
    <path
       d="m 307.4,553.2 c -1,0 -1.7,-0.4 -2.4,-0.8 -0.7,0.8 -1.2,2 -1.5,3.1 -0.2,1.3 -2,1 -2,-0.3 0.1,-1.6 0.9,-3 2,-4.2 l -1,-1.5 c -0.5,-1.2 1.3,-1.9 1.8,-0.8 0.2,0.4 0.4,0.8 0.7,1 0.8,-0.4 1.7,-0.8 2.7,-1 1.1,-0.1 1.3,1.5 0.2,1.8 -0.5,0 -1,0.3 -1.3,0.5 l 1.2,0.6 c 1,0.4 0.5,1.7 -0.4,1.6"
       fill="#e93842"
       id="path18354" />
    <path
       d="m 387.3,557.9 c 0.2,-0.8 0,-1.6 -0.9,-2 -3.4,-2.3 -2.8,-16 -2.7,-19.5 0,-4.8 0.9,-9.6 1.4,-14.4 0.7,-0.9 0.9,-2 0.1,-2.9 -0.1,-0.3 -0.5,-0.6 -0.8,-0.6 -10.8,-5.5 -17,-15 -17.5,-27.2 0,-1.6 -1.4,-2.7 -3,-2.3 -13.4,3.3 -24.3,-5.8 -24.2,-19.2 0,-1.4 -1.5,-2.7 -3,-2.2 -14,4.8 -28.8,0.7 -38,-11.2 -1.4,-2 -4.7,-0.9 -4.1,1.8 3,13.3 1.2,25.5 -5.3,37.4 -1,1.8 0.3,3.7 2.2,3.8 17.9,1.7 25,20.3 14.4,34 -1.1,1.5 0.4,4.2 2.2,4 15,-2 26.9,8.6 24.5,24.2 -0.4,2.7 2.3,4.3 4.5,2.6 a 44,44 0 0 1 47.7,-3.6 c 2,1 3.5,-1.3 2.5,-2.7"
       fill="#006633"
       id="path18356" />
    <path
       d="m 366.6,540.2 -1.1,-0.7 c -0.7,-5.2 0,-9.8 1.3,-14.9 0.4,-1.3 -1.6,-2.2 -2.2,-1 -2,4.4 -2.5,9.2 -2,13.8 -6,-4.3 -11.7,-9 -17,-13.8 -0.4,-7.5 0.6,-14.7 1,-22.2 0.2,-1 -1.3,-1.2 -1.6,-0.3 a 51.8,51.8 0 0 0 -2,20 197,197 0 0 1 -23.4,-27 c 0.7,-5.9 1.8,-11.6 2.6,-17.5 0.1,-1 -1.4,-1 -1.8,-0.2 a 48,48 0 0 0 -2.7,15.1 275.9,275.9 0 0 1 -16.2,-26.4 c -0.3,-0.6 -1.3,-0.2 -1,0.5 3.5,9.9 8.4,19.3 14.3,28.1 -5,-2 -10.2,-3.6 -15.6,-4.6 -0.7,-0.1 -1,1 -0.3,1 6.1,1.5 12,3.6 17.7,6.2 a 161.2,161.2 0 0 0 26.5,29.1 67.3,67.3 0 0 0 -25.8,0.9 c -1,0.2 -0.6,1.7 0.4,1.5 a 70,70 0 0 1 26.7,0.1 c 0.4,0 0.8,0 1.1,-0.4 a 172,172 0 0 0 16.9,12.4 45,45 0 0 0 -18.7,6.5 c -0.7,0.4 -0.1,1.5 0.6,1.1 6.4,-3 13.1,-4.9 20.2,-5.3 0.3,0 0.6,-0.2 0.8,-0.4 l 0.3,0.2 c 1,0.6 2,-1 1,-1.8"
       fill="#33ad61"
       id="path18358" />
    <path
       d="m 396.7,541.4 0.2,0.1 a 2,2 0 0 0 -0.2,0.6 3,3 0 0 0 -1,1.5 c -0.7,0.3 -1,0.8 -1.1,1.5 h -1 c 1.3,-1.1 2.3,-2.4 3.1,-3.7 m 48.8,-21.1 0.5,-1 h 0.8 l 2.1,1.2 h 0.1 -1.3 c -0.7,-0.2 -1.4,-0.3 -2.2,-0.2 m 60.6,-35 c 0.9,-1 0.6,-2.3 -0.2,-3 l -0.2,-0.5 c -0.9,-1.4 -3.6,-1.4 -4,0.5 -0.5,3.3 -10.1,5 -12.3,5.1 -3,0.3 -6,0 -9,-0.8 -5.6,-1.6 -10,-5.2 -13.8,-9.5 0,-1.3 -1,-2 -2,-2 -0.4,0 -0.9,0.2 -1.3,0.5 a 2,2 0 0 0 -0.7,1.6 c -1.2,19.6 -21.9,9.6 -28.9,3.6 -1.2,-1 -3.8,-0.5 -3.6,1.5 2.6,20.2 -19.3,23.7 -33.6,17.7 -1.5,-0.6 -2.8,1.2 -2.5,2.5 3.9,15.4 6.3,30 -4.3,43.2 h -0.1 c -1.2,0.3 -1,2.3 0.3,2.2 a 49.7,49.7 0 0 1 38,16.4 c 1.4,1.4 3.5,0.2 3.6,-1.5 1.7,-15.3 18.2,-28.2 31.1,-14.5 1.6,1.7 3.9,-0.1 3.6,-2 0.2,-0.2 0.3,-0.5 0.3,-1 -0.5,-8 6.4,-15.9 12.8,-20.1 6,-4 12,-4.2 18.7,-6.2 1.7,-0.5 1.8,-3 0.1,-3.6 0.8,-4.2 -0.3,-8.7 0.3,-13 1,-6.4 3.6,-12.2 7.7,-17.1"
       fill="#006633"
       id="path18360" />
    <path
       d="m 497.3,489.8 c -6,6.8 -15.3,8.9 -23.8,11.5 -0.4,-4.2 -1.5,-8.4 -3.4,-12.3 -0.4,-1 -1.8,-0.3 -1.5,0.6 1.2,4.2 2,8.3 2,12.7 l -1.5,0.5 c -7.5,2.8 -14.8,6 -21.9,9.6 l -3.6,1.8 c 1,-6.2 -0.2,-12 -3.4,-17.6 -0.5,-1 -1.8,-0.1 -1.4,0.8 a 28,28 0 0 1 1.9,18 v 0.2 a 63.8,63.8 0 0 0 -21,14.8 l -0.6,-2.3 a 49,49 0 0 0 -6,-12.2 c -0.3,-0.5 -1,0 -0.8,0.5 a 62.8,62.8 0 0 1 5.7,16.3 c -0.9,1.3 -1.6,2.6 -2.2,4 -0.3,0.9 1.2,1.5 1.6,0.6 l 1.4,-2.2 0.6,0.2 c 5.2,-0.5 9.3,1.1 13.7,3.6 1,0.5 2,-0.8 1.2,-1.6 -1.9,-1.7 -4,-2.9 -6.4,-3.6 -1.5,-0.5 -6.2,-0.3 -7.3,-1 5.1,-6.2 13.1,-11.3 21.6,-15.5 5.9,0.6 10.6,3 16,5.2 1,0.4 1.9,-1.1 1,-1.8 -3.4,-3 -8.1,-4.6 -12.8,-5.5 7.7,-3.6 15.5,-6.4 21.4,-8.7 a 76,76 0 0 1 5.2,-1.7 c 2.7,0.3 5.3,0.9 8,1.8 2.4,0.9 4.7,2.4 7.2,3 1.2,0.4 2,-1 1.2,-1.9 -2.5,-2.5 -6.1,-4 -9.9,-4.8 7.7,-2.3 15.4,-5.1 19.6,-11.6 0.8,-1 -0.9,-2.4 -1.8,-1.4"
       fill="#33ad61"
       id="path18362" />
    <path
       d="m 391.3,558.8 a 18,18 0 0 0 -12.5,-14.3 8,8 0 0 0 -5.5,0.3 c -4.5,0.1 -9.4,4.3 -11,8.1 a 24,24 0 0 0 -1.2,10.2 c 0.3,3 1,5.7 2.8,7.1 a 15.4,15.4 0 0 0 27.4,-11.4"
       fill="#be1622"
       id="path18364" />
    <path
       d="m 372.1,561.4 c -1,0 -2,-0.1 -2.8,-0.4 0.6,-1 1.5,-1.7 2.6,-2.3 0.7,-0.3 0.4,-1.5 -0.4,-1.5 -1.6,0.2 -3,1.4 -3.8,2.8 a 4.7,4.7 0 0 1 -1.6,-2.7 c 0,-0.6 -1,-0.5 -1,0.1 0.1,1.5 0.9,3 2,4.1 a 5,5 0 0 0 0.6,4 c 0.3,0.5 1.2,0.1 1,-0.5 -0.2,-0.8 -0.2,-1.6 0,-2.3 a 5,5 0 0 0 3.6,0.4 c 1,-0.3 0.8,-1.8 -0.2,-1.7"
       fill="#e93842"
       id="path18366" />
    <path
       d="M 414.5,538.3 A 13.5,13.5 0 0 0 389,547 c 0.7,5.4 4.2,10.4 10,12.2 13,4 20.7,-10 15.5,-20.9"
       fill="#be1622"
       id="path18368" />
    <path
       d="m 403.3,535 c -1.6,0 -3,0.8 -3.9,2 -1,-0.3 -2.2,-0.3 -3.3,-0.1 -1.1,0.2 -0.6,1.9 0.5,1.7 h 1.8 a 6,6 0 0 0 -0.2,3.7 c 0.3,1 1.7,0.6 1.5,-0.4 -0.1,-0.9 0,-1.7 0.4,-2.5 a 8,8 0 0 1 2,1.9 c 0.5,0.7 1.8,0.3 1.5,-0.7 a 5.3,5.3 0 0 0 -2.3,-2.8 c 0.7,-0.6 1.4,-1.1 2.2,-1.3 0.8,-0.3 0.7,-1.5 -0.2,-1.5"
       fill="#e93842"
       id="path18370" />
    <path
       d="m 398.3,565.5 c -8.2,2.7 -9.5,16.1 -3.3,22.6 7.9,8.2 23.2,3.4 24.8,-8 1.6,-12 -11,-20.7 -21.5,-14.6"
       fill="#be1622"
       id="path18372" />
    <path
       d="m 413.2,582.2 c -1,0.5 -1.9,1 -2.8,1.2 l 0.3,-3.7 c 0,-1 -1.6,-1.3 -1.8,-0.3 -0.3,1.4 -0.4,2.8 -0.5,4.2 -1,0 -2.2,-0.2 -3.4,-0.8 -0.8,-0.5 -1.4,0.7 -0.7,1.2 a 9,9 0 0 0 4,1.4 v 2.5 c 0,1 1.4,1 1.5,0 l 0.4,-2.5 a 7,7 0 0 0 4,-1.8 c 0.7,-0.7 -0.2,-1.9 -1,-1.4"
       fill="#e93842"
       id="path18374" />
  </g>
</svg>
