<?xml version="1.0" encoding="UTF-8"?>
<svg class="logo_font_dark" version="1.1" viewBox="0 0 786 139" xmlns="http://www.w3.org/2000/svg"><g fill="#fff"><path d="m69.2 12.8v112h48.6v-12.2h-36v-31.8h29.8v-12.2h-29.8v-43.2h36v-12.2z" style="font-variant-caps:normal;font-variant-east-asian:normal;font-variant-ligatures:normal;font-variant-numeric:normal"/><path d="m213 12.8h-12.6v112h12.6c31 0 56.3-24.6 56.3-55.7 0-31.2-25.3-55.8-56.3-55.8zm0 12.2c24.2 0 43.7 19.5 43.7 43.7 0 24-19.5 43.5-43.7 43.5z" style="font-variant-caps:normal;font-variant-east-asian:normal;font-variant-ligatures:normal;font-variant-numeric:normal"/><path d="m279 12.8v112h48.6v-12.2h-36v-99.4z" style="font-variant-caps:normal;font-variant-east-asian:normal;font-variant-ligatures:normal;font-variant-numeric:normal"/><path d="m398 12.8v112h12.6v-28c4.96 0 10.1 0.16 15-0.64l19.2 28.6h14.9l-22.7-32.3c13.8-6.56 22.7-20.2 22.7-37.4 0-24.3-18.1-41.8-42.2-41.8zm12.6 71.4v-59.2h6.88c13.9 0 29.6 9.28 29.6 29.6 0 20.3-15.4 29.6-29.6 29.6z" style="font-variant-caps:normal;font-variant-east-asian:normal;font-variant-ligatures:normal;font-variant-numeric:normal"/><path d="m338 12.8v112h48.6v-12.2h-36v-31.8h29.8v-12.2h-29.8v-43.2h36v-12.2z" style="font-variant-caps:normal;font-variant-east-asian:normal;font-variant-ligatures:normal;font-variant-numeric:normal"/><path d="m191 13.4h-11.7v73.3l-48.5-73v113h11.8v-71.6l48.4 71.7z" style="font-variant-caps:normal;font-variant-east-asian:normal;font-variant-ligatures:normal;font-variant-numeric:normal"/></g><g fill="#9f9f9f"><path d="m481 106c-4.79 0-8.7 3.9-8.7 8.7 0 4.79 3.9 8.7 8.7 8.7s8.7-3.9 8.7-8.7-3.9-8.7-8.7-8.7z" style="font-variant-caps:normal;font-variant-east-asian:normal;font-variant-ligatures:normal;font-variant-numeric:normal"/><path d="m502 12.7v110h14c30.9 0 55.7-24.3 55.7-55.2 0-30.7-24.8-55-55.7-55zm14 96.7v-83.2c23.1 0 41.7 18.6 41.7 41.5 0 23.1-18.6 41.7-41.7 41.7z" style="font-variant-caps:normal;font-variant-east-asian:normal;font-variant-ligatures:normal;font-variant-numeric:normal"/><path d="m643 12.7 37.1 111 37.1-111h-14.2l-22.9 69.4-23.1-69.4z" style="font-variant-caps:normal;font-variant-east-asian:normal;font-variant-ligatures:normal;font-variant-numeric:normal"/><path d="m583 13.1v111h48.4v-12.1h-35.8v-31.7h29.6v-12.1h-29.6v-43h35.8v-12.1z" style="font-variant-caps:normal;font-variant-east-asian:normal;font-variant-ligatures:normal;font-variant-numeric:normal"/></g></svg>
