<?xml version="1.0" encoding="UTF-8" standalone="no"?>
<svg
   xmlns:dc="http://purl.org/dc/elements/1.1/"
   xmlns:cc="http://creativecommons.org/ns#"
   xmlns:rdf="http://www.w3.org/1999/02/22-rdf-syntax-ns#"
   xmlns:svg="http://www.w3.org/2000/svg"
   xmlns="http://www.w3.org/2000/svg"
   xmlns:sodipodi="http://sodipodi.sourceforge.net/DTD/sodipodi-0.dtd"
   xmlns:inkscape="http://www.inkscape.org/namespaces/inkscape"
   viewBox="0 0 790.23 692.61"
   version="1.1"
   id="svg44"
   sodipodi:docname="logo.svg"
   inkscape:version="0.92.2 5c3e80d, 2017-08-06">
  <metadata
     id="metadata50">
    <rdf:RDF>
      <cc:Work
         rdf:about="">
        <dc:format>image/svg+xml</dc:format>
        <dc:type
           rdf:resource="http://purl.org/dc/dcmitype/StillImage" />
      </cc:Work>
    </rdf:RDF>
  </metadata>
  <defs
     id="defs48" />
  <sodipodi:namedview
     pagecolor="#ffffff"
     bordercolor="#666666"
     borderopacity="1"
     objecttolerance="10"
     gridtolerance="10"
     guidetolerance="10"
     inkscape:pageopacity="0"
     inkscape:pageshadow="2"
     inkscape:window-width="1440"
     inkscape:window-height="856"
     id="namedview46"
     showgrid="false"
     inkscape:zoom="1.2197942"
     inkscape:cx="405.25207"
     inkscape:cy="104.98758"
     inkscape:window-x="0"
     inkscape:window-y="0"
     inkscape:window-maximized="0"
     inkscape:current-layer="svg44" />
  <path
     d="m 486.65,265.92 -70.2,36.95242 -76.9,-36.82208 z"
     style="line-height:125%;font-family:sans-serif;letter-spacing:0;word-spacing:0;fill:#856800;fill-rule:evenodd;stroke:none;stroke-width:2.08441567;stroke-linecap:square;stroke-linejoin:miter;fill-opacity:1"
     id="path4553"
     inkscape:connector-curvature="0" />
  <circle
     cx="413.24"
     cy="227.7"
     r="219.68"
     fill="none"
     stroke="#000"
     stroke-width="16.03"
     style="line-height:125%"
     font-family="sans-serif"
     letter-spacing="0"
     word-spacing="0"
     id="circle2" />
  <path
     inkscape:connector-curvature="0"
     id="path6"
     style="line-height:125%;font-family:sans-serif;letter-spacing:0;word-spacing:0;fill:#ffcb15;fill-opacity:1;fill-rule:evenodd;stroke:none;stroke-width:1.91541922;stroke-linecap:square;stroke-linejoin:miter"
     d="m 486.65,265.92 -70.2,31.2034 -76.9,-31.09334 z" />
  <ellipse
     style="line-height:125%;font-family:sans-serif;letter-spacing:0;word-spacing:0;stroke-width:0.80040854"
     id="ellipse10"
     ry="21.739243"
     rx="20.835238"
     transform="matrix(0.99588189,-0.09066011,0.09067557,0.99588049,0,0)"
     cy="262.69797"
     cx="355.58026" />
  <ellipse
     style="line-height:125%;font-family:sans-serif;letter-spacing:0;word-spacing:0;fill:#ffffff;stroke-width:0.35176647"
     id="ellipse12"
     ry="6.1377187"
     rx="5.2045617"
     cy="218.02359"
     cx="388.52856" />
  <ellipse
     style="line-height:125%;font-family:sans-serif;letter-spacing:0;word-spacing:0;stroke-width:0.80040854"
     id="ellipse16"
     ry="21.739243"
     rx="20.835238"
     transform="matrix(0.99588189,-0.09066011,0.09067557,0.99588049,0,0)"
     cy="269.72006"
     cx="425.85068" />
  <ellipse
     style="line-height:125%;font-family:sans-serif;letter-spacing:0;word-spacing:0;fill:#ffffff;stroke-width:0.35176647"
     id="ellipse18"
     ry="6.1377187"
     rx="5.2045617"
     cy="218.3927"
     cx="458.76657" />
  <g
     fill-rule="evenodd"
     stroke="#000"
     id="g28">
    <path
       d="M366.4 100.64c18.54-11.05 36.54-22.57 46.94-40.73 1.35 12.3-.1 28.5-10.86 43.5"
       id="path22" />
    <path
       d="M389.44 100.64c18.54-11.05 36.54-22.57 46.94-40.73 1.35 12.3-.1 28.5-10.86 43.5"
       id="path24" />
    <path
       d="M412.48 100.64C431.02 89.6 449 78.07 459.42 59.9c1.35 12.3-.1 28.44-10.86 43.46"
       id="path26" />
  </g>
  <path
     d="M409.24 87.05c-81.85.27-156.44 104.43-180.48 216.46a199.6 199.6.0 0 0 51.83 73.1c7.9-157.9 44.7-266.9 112.5-207.8 10.1 8.9 15.2 12.9 20.1 12.6 4.9.3 10-3.8 20.1-12.6 67.7-59.1 104.6 50 112.5 207.8a199.6 199.6.0 0 0 51.8-72.9c-24-112-98.6-216.3-180.5-216.5-1.38.0-2.7.1-4 .1-1.38.0-2.7-.1-4-.1z"
     style="line-height:125%"
     font-family="sans-serif"
     letter-spacing="0"
     word-spacing="0"
     id="path30" />
  <path
     d="m 130.02786,692.37993 h 11.4 l -20.92,-138.30001 h -12.28 L 87.327858,692.37993 h 11.4 l 5.880002,-45.80001 h 19.36 z m -24.2,-54.96001 8.46,-64.3 8.47,64.3 z m 82.05,-83.34 h -41.15 v 10.73 h 14.87 v 127.57001 h 11.4 V 564.81992 h 14.88 z"
     style="line-height:125%;font-family:'Ever After';-inkscape-font-specification:'Ever After, Normal';text-align:start;letter-spacing:0;word-spacing:0;fill:#959595"
     letter-spacing="0"
     word-spacing="0"
     id="path32"
     inkscape:connector-curvature="0" />
  <path
     d="m 227.37786,554.07992 h -41.15 v 10.73 h 14.87 v 127.57001 h 11.4 V 564.81992 h 14.88 z m 44.9,0 v 61.38 h -28.35 v -61.38 h -11.42 v 138.30001 h 11.4 v -66.38001 h 28.36 v 66.40001 h 11.23 V 554.07992 Z m 37.8,138.30001 h -11.4 V 554.07992 h 11.4 z m 57.65,0 h 11.4 l -20.92,-138.30001 h -12.28 l -20.9,138.30001 h 11.4 l 5.87,-45.80001 h 19.36 z m -24.22,-54.96001 8.47,-64.3 8.47,64.3 z"
     style="line-height:125%;font-family:'Ever After';-inkscape-font-specification:'Ever After, Normal';text-align:start;letter-spacing:0;word-spacing:0;fill:#959595"
     letter-spacing="0"
     word-spacing="0"
     id="path34"
     inkscape:connector-curvature="0" />
  <path
     d="m 515.98786,564.80992 v -10.73 h -31.64 v 138.30001 h 31.64 v -10.70001 h -20.23 v -55.7 h 18.85 v -10.54 h -18.85 v -50.66 z m 11.24,-10.73 v 138.30001 h 11.35 V 554.07992 Z m 39.76,0 v 51.87 l -0.1,-0.17 v 20.75 l 0.1,0.17 v 65.70001 h 11.24 V 554.07992 Z m 40.24,0 h -13.8 v 138.30001 h 13.83 c 14.86667,0 24.72333,-7.48668 29.57,-22.46001 2.76667,-8.88 4.15,-24.44 4.15,-46.68 0,-22.24 -1.38333,-37.79667 -4.15,-46.67 -4.84,-15 -14.69333,-22.5 -29.56,-22.5 z m -1.2,127.6 h -1.2 v -116.88 h 1.2 c 10.48667,0 17.34333,6.16667 20.57,18.5 2.06667,7.37333 3.1,20.68333 3.1,39.93 0,19.24667 -1.03333,32.55667 -3.1,39.93 -3.22667,12.33333 -10.08333,18.5 -20.57,18.5 z m 60.24,0 v -127.6 h -11.4 v 138.30001 h 31.62 v -10.70001 z m 62.1,-116.87 v -10.73 h -31.64 v 138.30001 h 31.63 v -10.70001 h -20.23 v -55.7 h 18.85 v -10.54 h -18.85 v -50.66 z"
     style="line-height:125%;font-family:'Ever After';-inkscape-font-specification:'Ever After, Normal';text-align:start;letter-spacing:0;word-spacing:0"
     letter-spacing="0"
     word-spacing="0"
     id="path36"
     inkscape:connector-curvature="0"
     sodipodi:nodetypes="ccccccccccccccccccccccccccccccscsccccccscsccccccccccccccccccccccc" />
  <path
     d="m 533.78786,555.49992 38,135.54"
     id="path38"
     inkscape:connector-curvature="0"
     style="fill:none;stroke:#000000;stroke-width:10" />
  <path
     d="m 3.828,554.37998 v 138.00001 h 11.38 V 575.42998 c 6.6,12.7 13.78,25.9 19.67,36.78 l 5.7,10 0.02,-0.02 v 0.1 l 5.72,-10 c 6.5,-12 13.5,-25.2 19.7,-36.8 v 116.90001 h 11.2 V 554.38998 h -11.19 c -7.3,13.39 -14.8,27.39 -21.5,39.79 l -4,7.45 c -9.1,-17.05 -17.3,-32.07 -25.4,-47.23 z"
     style="font-size:172.52000427px;line-height:125%;font-family:'Ever After';-inkscape-font-specification:'Ever After, Normal';text-align:start;letter-spacing:0;word-spacing:0;fill:#959595"
     font-size="172.52"
     letter-spacing="0"
     word-spacing="0"
     id="path40"
     inkscape:connector-curvature="0" />
  <path
     d="m 397.56786,691.43992 c -3.72,-1.33 -8.96,-5 -11.76,-8.2 -1.4,-1.6 -2.5,-3.25 -2.54,-3.6 4.23,-6.05 4.42,-6.32 5.3,-7.45 3.3,3.4 6.7,6.8 10.9,9.1 4.98,1.8 11.24,2.1 15.32,-0.3 5.52,-3.3 8.62,-8.8 9.67,-17.3 1.46,-11.7 -2.65,-22.5 -13.25,-34.8 -2.9,-3.4 -7.13,-8.3 -9.38,-10.9 -4.86,-5.6 -10,-13.4 -11.77,-18.5 -4.3,-12.5 -3.87,-21.3 -0.66,-30.2 2.12,-5.83 4.9,-9.6 9.08,-12.2 8.26,-5.14 19.28,-4.24 27.36,2.25 0.9,0.68 1.7,1.44 2.5,2.57 -0.4,0.77 -3.7,8.77 -4.3,8.77 -0.8,-0.66 -0.8,-0.6 -1.6,-1.3 -0.7,-0.7 -2.7,-2.1 -4.4,-3.14 -4.4,-2.1 -8.5,-3.1 -12.9,-0.7 -6.1,3.44 -9.2,11.7 -7.9,21.4 1.1,8.34 4.5,14 17.9,29.5 13.08,15.2 16.95,22.3 18.9,34.63 0.9,5.7 0.9,10.04 0,16.6 -1.65,12.33 -7.2,20.5 -16.2,23.96001 -3.3,1.3 -16.45,1.3 -20.03,0.04 z"
     id="path42"
     inkscape:connector-curvature="0"
     style="fill:#959595" />
  <path
     style="line-height:125%;font-family:'Ever After';-inkscape-font-specification:'Ever After, Normal';text-align:start;letter-spacing:0;word-spacing:0;stroke-width:0.72707915"
     d="m 753.31201,553.48089 -0.043,0.004 h -14.94336 c -0.0168,45.98015 0.0455,97.28344 0.043,139.0196 h 11.98047 v -65.80836 l 7.25196,-0.30201 19.23046,66.21587 13.39844,-0.1172 -21.16211,-69.7247 c 7.86206,-4.77364 14.72066,-11.89508 14.44141,-35.51757 -0.27925,-23.62249 -14.52216,-33.62972 -30.19727,-33.76954 z m -2.64258,10.44027 c 16.54427,0 20.625,7.87382 20.625,23.32536 0,15.45154 -0.93856,27.94175 -20.625,28.03364 z"
     id="path4555"
     inkscape:connector-curvature="0"
     sodipodi:nodetypes="cccccccccczccczcc" />
</svg>
