<svg xmlns="http://www.w3.org/2000/svg" viewBox="0 0 456 456"><defs/><g letter-spacing="0" transform="translate(-167)" word-spacing="0"><circle cx="395" cy="228" r="220" fill="#fff" stroke="#000" stroke-width="16"/><path fill="#856800" fill-rule="evenodd" d="M468 266l-70.2 36.9-76.8-36.8z"/><path fill="#ffcb15" fill-rule="evenodd" d="M468 266l-70.2 31-76.8-31z"/><path d="M360 208a21.7 20.8 84.8 00-2 .1 21.7 20.8 84.8 00-18.8 23.6 21.7 20.8 84.8 0022.7 19.7 21.7 20.8 84.8 0018.8-23.5 21.7 20.8 84.8 00-6.5-13.8 5.2 6.1 0 011.5 4.3 5.2 6.1 0 01-5.2 6.2 5.2 6.1 0 01-5.2-6.2 5.2 6.1 0 015.2-6.1 5.2 6.1 0 013 1A21.7 20.8 84.8 00360 208zm70.7.7a21.7 20.8 84.8 00-2.1 0 21.7 20.8 84.8 00-18.8 23.6 21.7 20.8 84.8 0022.7 19.8 21.7 20.8 84.8 0018.8-23.6 21.7 20.8 84.8 00-20.6-19.8zm10 4a5.2 6.1 0 015.3 6 5.2 6.1 0 01-5.2 6.2 5.2 6.1 0 01-5.2-6.1 5.2 6.1 0 015.2-6.1z"/></g><path fill-rule="evenodd" d="M228 59.9a96.3 96.3 0 01-31.5 31c-70.7 19.9-132 113-153 213A200 200 0 0095.3 377c7.9-158 44.7-267 112-208 10 9 15.2 13 20 12.6 5 .3 10-3.8 20.2-12.6 67.7-59 105 50 112 208a200 200 0 0051.8-72.9c-20.3-94.9-77-184-144-209a62 62 0 005.7-34.3 89.6 89.6 0 01-25.8 27.1 62 62 0 002.7-27.1A87.8 87.8 0 01224 87.9a62 62 0 002.7-27.1z"/></svg>