<?xml version="1.0" encoding="UTF-8" standalone="no"?>
<svg
   xmlns:dc="http://purl.org/dc/elements/1.1/"
   xmlns:cc="http://creativecommons.org/ns#"
   xmlns:rdf="http://www.w3.org/1999/02/22-rdf-syntax-ns#"
   xmlns:svg="http://www.w3.org/2000/svg"
   xmlns="http://www.w3.org/2000/svg"
   xmlns:sodipodi="http://sodipodi.sourceforge.net/DTD/sodipodi-0.dtd"
   xmlns:inkscape="http://www.inkscape.org/namespaces/inkscape"
   class="logo_font_light"
   viewBox="0 0 786.09996 139.2"
   version="1.1"
   id="svg18"
   >
  <metadata
     id="metadata24">
    <rdf:RDF>
      <cc:Work
         rdf:about="">
        <dc:format>image/svg+xml</dc:format>
        <dc:type
           rdf:resource="http://purl.org/dc/dcmitype/StillImage" />
        <dc:title></dc:title>
      </cc:Work>
    </rdf:RDF>
  </metadata>
  <defs
     id="defs22" />
  <sodipodi:namedview
     pagecolor="#ffffff"
     bordercolor="#666666"
     borderopacity="1"
     objecttolerance="10"
     gridtolerance="10"
     guidetolerance="10"
     inkscape:pageopacity="0"
     inkscape:pageshadow="2"
     inkscape:window-width="1350"
     inkscape:window-height="804"
     id="namedview20"
     showgrid="false"
     inkscape:zoom="0.60480434"
     inkscape:cx="297.87668"
     inkscape:cy="115.92245"
     inkscape:window-x="0"
     inkscape:window-y="0"
     inkscape:window-maximized="0"
     inkscape:current-layer="svg18"
     fit-margin-top="0"
     fit-margin-left="0"
     fit-margin-right="0"
     fit-margin-bottom="0" />
  <path
     d="m 734.2,0.1 v 139 h 12 V 73.3 l 7.3,-0.3 19.2,66.2 13.4,-0.1 L 765,69.4 c 7.8,-4.8 14.7,-12 14.4,-35.5 C 779.1,10.2 764.9,0.2 749.2,0.1 Z m -200,0.5 -11.4,0.1 v 138 h 11.4 v -101 l 28.3,101 v 0.4 h 11.3 V 1.1 h -11.2 v 51.8 l -0.1,-0.1 V 102 L 534.2,1 V 0.8 Z m 116,0 v 138 h 31.6 V 127.9 L 661.6,128 V 0 h -11.4 z m -171,0.1 v 138 h 31.7 V 128 H 490.7 V 72.3 h 18.8 V 61.7 H 490.7 V 11.1 h 20.2 V 0.4 h -31.7 z m 109,0 v 138 h 13.9 c 14.8,0 24.7,-7.5 29.5,-22.5 2.8,-8.9 4.2,-24.4 4.2,-46.7 0,-22.2 -1.4,-37.8 -4.2,-46.6 C 626.8,7.9 616.9,0.4 602.1,0.4 h -13.9 z m 103,0 v 138 h 31.7 V 128 H 702.5 V 72.3 h 19 V 61.7 h -19 V 11.1 h 20.3 V 0.4 h -31.6 z m 54,9.8 c 16.5,0 20.6,7.9 20.6,23.3 0,15.5 -1,28 -20.6,28 z m -146,0.9 h 1.2 c 10.5,0 17.4,6.2 20.6,18.5 a 176,176 0 0 1 3.1,40 c 0,19.2 -1,32.5 -3.1,39.9 -3.2,12.3 -10,18.5 -20.6,18.5 h -1.2 v -117 z"
     style="color:#000000;font-variant-ligatures:normal;font-variant-position:normal;font-variant-caps:normal;font-variant-numeric:normal;font-variant-alternates:normal;font-feature-settings:normal;text-indent:0;text-decoration:none;text-decoration-line:none;text-decoration-style:solid;text-decoration-color:#000000;text-transform:none;text-orientation:mixed;white-space:normal;shape-padding:0;isolation:auto;mix-blend-mode:normal;fill:#030303"
     id="path2"
     inkscape:connector-curvature="0" />
  <path
     d="m 406.2,0.1 a 23.8,23.8 0 0 0 -11.3,3.3 22.4,22.4 0 0 0 -9,12.2 42,42 0 0 0 0.7,30.2 68.6,68.6 0 0 0 11.7,18.4 2360,2360 0 0 1 9.4,11 c 10.6,12.3 14.7,23 13.3,34.8 -1.1,8.5 -4.2,14 -9.7,17.3 -4.1,2.4 -10.3,2 -15.3,0.2 a 44.7,44.7 0 0 1 -10.9,-9 l -5.3,7.4 a 15,15 0 0 0 2.5,3.6 c 2.8,3.2 8,6.9 11.8,8.2 l 0.2,0.3 a 52.7,52.7 0 0 0 20,0 c 9,-3.5 14.6,-11.7 16.2,-24 1,-6.6 1,-11 0,-16.6 -1.9,-12.4 -5.8,-19.5 -18.8,-34.7 -13.5,-15.5 -16.9,-21.1 -18,-29.5 -1.3,-9.7 1.9,-18 7.9,-21.4 4.4,-2.3 8.5,-1.3 12.9,0.7 1.7,1 3.7,2.5 4.4,3.2 l 1.6,1.3 c 0.6,0 3.9,-8 4.4,-8.8 A 23.8,23.8 0 0 0 406.2,0.1 Z m -302,0.2 -20.9,138 h 11.4 l 6,-45.8 H 120 l 6,45.8 h 11.4 L 116.5,0.3 Z m 78,0 h -39.4 v 10.8 h 14.8 v 128 H 169 v -128 h 28.1 v 128 h 11.4 v -128 h 14.9 V 0.3 Z m 46.3,0 v 138 H 240 V 72 h 28.4 v 66.4 h 11.2 V 0.4 L 268.3,0.3 V 61.8 H 239.9 V 0.3 Z m 66.1,0 v 138 H 306 V 0.3 Z m 47.4,0 -21,138 h 11.4 l 5.9,-45.8 h 19.4 l 5.9,45.9 H 375 L 354.2,0.4 H 342 Z M 0,0.7 v 138 h 11.4 v -117 c 6.6,12.7 13.8,26 19.7,36.8 l 5.7,10 5.7,-10 19.7,-36.6 v 117 H 73.4 V 0.9 H 62.2 l -21.5,39.8 -4,7.4 C 27.7,31.1 19.4,16.1 11.3,0.9 L 0,0.8 Z m 110,18.7 8.5,64.3 h -17 z m 238,0 8.4,64.4 H 339.5 L 348,19.5 Z"
     id="path16"
     inkscape:connector-curvature="0"
     style="fill:#9f9f9f" />
</svg>
