<?xml version="1.0" encoding="UTF-8"?>
<svg class="logo_font_light" version="1.1" viewBox="0 0 786.1 139.2" xmlns="http://www.w3.org/2000/svg"><g><path d="m69.212 12.818v111.53h48.644v-12.161h-36.003v-31.843h29.762v-12.161h-29.762v-43.203h36.003v-12.161z" style="font-variant-caps:normal;font-variant-east-asian:normal;font-variant-ligatures:normal;font-variant-numeric:normal"/><path d="m212.8 12.818h-12.641v111.53h12.641c31.042 0 56.324-24.642 56.324-55.684 0-31.203-25.282-55.845-56.324-55.845zm0 12.161c24.162 0 43.684 19.522 43.684 43.683 0 24.002-19.522 43.523-43.684 43.523z" style="font-variant-caps:normal;font-variant-east-asian:normal;font-variant-ligatures:normal;font-variant-numeric:normal"/><path d="m278.6 12.818v111.53h48.644v-12.161h-36.003v-99.368z" style="font-variant-caps:normal;font-variant-east-asian:normal;font-variant-ligatures:normal;font-variant-numeric:normal"/><path d="m397.99 12.818v111.53h12.641v-28.002c4.9603 0 10.081 0.15998 15.041-0.64l19.201 28.642h14.881l-22.722-32.323c13.761-6.5605 22.722-20.162 22.722-37.443 0-24.322-18.081-41.763-42.243-41.763zm12.641 71.366v-59.205h6.8805c13.921 0 29.602 9.2807 29.602 29.602 0 20.322-15.361 29.602-29.602 29.602z" style="font-variant-caps:normal;font-variant-east-asian:normal;font-variant-ligatures:normal;font-variant-numeric:normal"/><path d="m338.3 12.818v111.53h48.644v-12.161h-36.003v-31.843h29.762v-12.161h-29.762v-43.203h36.003v-12.161z" style="font-variant-caps:normal;font-variant-east-asian:normal;font-variant-ligatures:normal;font-variant-numeric:normal"/><path d="m190.51 13.387h-11.663v73.276l-48.474-72.993v112.67h11.784v-71.581l48.352 71.722z" style="font-variant-caps:normal;font-variant-east-asian:normal;font-variant-ligatures:normal;font-variant-numeric:normal"/></g><g fill="#9f9f9f"><path d="m480.93 105.53c-4.7912 0-8.6953 3.904-8.6953 8.6953 0 4.7912 3.904 8.6953 8.6953 8.6953 4.7913 0 8.6953-3.904 8.6953-8.6953 0-4.7913-3.904-8.6953-8.6953-8.6953z" style="font-variant-caps:normal;font-variant-east-asian:normal;font-variant-ligatures:normal;font-variant-numeric:normal"/><path d="m502.04 12.723v110.2h14.019c30.877 0 55.721-24.311 55.721-55.189 0-30.7-24.844-55.011-55.721-55.011zm14.019 96.713v-83.226c23.069 0 41.702 18.633 41.702 41.524 0 23.069-18.633 41.702-41.702 41.702z" style="font-variant-caps:normal;font-variant-east-asian:normal;font-variant-ligatures:normal;font-variant-numeric:normal"/><path d="m642.71 12.723 37.088 110.73 37.088-110.73h-14.196l-22.892 69.385-23.069-69.385z" style="font-variant-caps:normal;font-variant-east-asian:normal;font-variant-ligatures:normal;font-variant-numeric:normal"/><path d="m582.92 13.066v110.99h48.407v-12.102h-35.828v-31.688h29.618v-12.102h-29.618v-42.993h35.828v-12.102z" style="font-variant-caps:normal;font-variant-east-asian:normal;font-variant-ligatures:normal;font-variant-numeric:normal"/></g></svg>
