<?xml version="1.0" encoding="UTF-8" standalone="no"?>
<svg
   xmlns:dc="http://purl.org/dc/elements/1.1/"
   xmlns:cc="http://creativecommons.org/ns#"
   xmlns:rdf="http://www.w3.org/1999/02/22-rdf-syntax-ns#"
   xmlns:svg="http://www.w3.org/2000/svg"
   xmlns="http://www.w3.org/2000/svg"
   xmlns:sodipodi="http://sodipodi.sourceforge.net/DTD/sodipodi-0.dtd"
   xmlns:inkscape="http://www.inkscape.org/namespaces/inkscape"
   viewBox="0 0 455.99999 456.00002"
   version="1.1"
   id="svg18"
   >
  <metadata
     id="metadata24">
    <rdf:RDF>
      <cc:Work
         rdf:about="">
        <dc:format>image/svg+xml</dc:format>
        <dc:type
           rdf:resource="http://purl.org/dc/dcmitype/StillImage" />
        <dc:title></dc:title>
      </cc:Work>
    </rdf:RDF>
  </metadata>
  <defs
     id="defs22" />
  <sodipodi:namedview
     pagecolor="#ffffff"
     bordercolor="#666666"
     borderopacity="1"
     objecttolerance="10"
     gridtolerance="10"
     guidetolerance="10"
     inkscape:pageopacity="0"
     inkscape:pageshadow="2"
     inkscape:window-width="750"
     inkscape:window-height="480"
     id="namedview20"
     showgrid="false"
     fit-margin-top="0"
     fit-margin-left="0"
     fit-margin-right="0"
     fit-margin-bottom="0"
     inkscape:zoom="0.34074503"
     inkscape:cx="283.54864"
     inkscape:cy="124.74764"
     inkscape:window-x="0"
     inkscape:window-y="0"
     inkscape:window-maximized="0"
     inkscape:current-layer="svg18" />
  <g
     letter-spacing="0"
     word-spacing="0"
     id="g12"
     style="letter-spacing:0;word-spacing:0"
     transform="translate(-167)">
    <circle
       cx="395"
       cy="228"
       r="220"
       id="circle4"
       style="fill:#ffffff;stroke:#000000;stroke-width:16" />
    <path
       d="M 468,266 397.8,302.9 321,266.1 Z"
       id="path6"
       inkscape:connector-curvature="0"
       style="fill:#856800;fill-rule:evenodd" />
    <path
       d="M 468,266 397.8,297 321,266 Z"
       id="path8"
       inkscape:connector-curvature="0"
       style="fill:#ffcb15;fill-rule:evenodd" />
    <path
       d="m 360,208 a 21.7,20.8 84.8 0 0 -2,0.1 21.7,20.8 84.8 0 0 -18.8,23.6 21.7,20.8 84.8 0 0 22.7,19.7 21.7,20.8 84.8 0 0 18.8,-23.5 21.7,20.8 84.8 0 0 -6.5,-13.8 5.2,6.1 0 0 1 1.5,4.3 5.2,6.1 0 0 1 -5.2,6.2 5.2,6.1 0 0 1 -5.2,-6.2 5.2,6.1 0 0 1 5.2,-6.1 5.2,6.1 0 0 1 3,1 A 21.7,20.8 84.8 0 0 360,208 Z m 70.7,0.7 a 21.7,20.8 84.8 0 0 -2.1,0 21.7,20.8 84.8 0 0 -18.8,23.6 21.7,20.8 84.8 0 0 22.7,19.8 21.7,20.8 84.8 0 0 18.8,-23.6 21.7,20.8 84.8 0 0 -20.6,-19.8 z m 10,4 a 5.2,6.1 0 0 1 5.3,6 5.2,6.1 0 0 1 -5.2,6.2 5.2,6.1 0 0 1 -5.2,-6.1 5.2,6.1 0 0 1 5.2,-6.1 z"
       id="path10"
       inkscape:connector-curvature="0" />
  </g>
  <path
     d="m 228,59.9 a 96.3,96.3 0 0 1 -31.5,31 c -70.7,19.9 -132,113 -153,213 A 200,200 0 0 0 95.3,377 c 7.9,-158 44.7,-267 112,-208 10,9 15.2,13 20,12.6 5,0.3 10,-3.8 20.2,-12.6 67.7,-59 105,50 112,208 a 200,200 0 0 0 51.8,-72.9 c -20.3,-94.9 -77,-184 -144,-209 A 62,62 0 0 0 273,60.8 89.6,89.6 0 0 1 247.2,87.9 62,62 0 0 0 249.9,60.8 87.8,87.8 0 0 1 224,87.9 62,62 0 0 0 226.7,60.8 Z"
     id="path14"
     inkscape:connector-curvature="0"
     style="fill-rule:evenodd" />
</svg>
