<svg xmlns="http://www.w3.org/2000/svg" class="logo_light" viewBox="0 0 790.2 692.6"><path fill="#030303" d="M738 554v139h12v-65.8l7.3-.3 19.2 66.2 13.4-.1-21.1-69.7c7.8-4.8 14.7-12 14.4-35.5-.3-23.7-14.5-33.7-30.2-33.8h-15zm-200 .5l-11.4.1v138H538v-101l28.3 101v.4h11.3V555h-11.2v51.8l-.1-.1v49.2l-28.3-101v-.2zm116 0v138h31.6v-10.7l-20.2.1v-128H654zm-171 .1v138h31.7v-10.7h-20.2v-55.7h18.8v-10.6h-18.8V565h20.2v-10.7H483zm109 0v138h13.9c14.8 0 24.7-7.5 29.5-22.5 2.8-8.9 4.2-24.4 4.2-46.7 0-22.2-1.4-37.8-4.2-46.6-4.8-15-14.7-22.5-29.5-22.5H592zm103 0v138h31.7v-10.7h-20.4v-55.7h19v-10.6h-19V565h20.3v-10.7H695zm54 9.8c16.5 0 20.6 7.9 20.6 23.3 0 15.5-1 28-20.6 28v-51.3zm-146 .9h1.2c10.5 0 17.4 6.2 20.6 18.5a176 176 0 013.1 40c0 19.2-1 32.5-3.1 39.9-3.2 12.3-10 18.5-20.6 18.5H603v-117z" color="#000" style="font-feature-settings:normal;font-variant-alternates:normal;font-variant-caps:normal;font-variant-ligatures:normal;font-variant-numeric:normal;font-variant-position:normal;isolation:auto;mix-blend-mode:normal;shape-padding:0;text-decoration-color:#000;text-decoration-line:none;text-decoration-style:solid;text-indent:0;text-orientation:mixed;text-transform:none;white-space:normal"/><g letter-spacing="0" word-spacing="0"><circle cx="395" cy="228" r="220" fill="#fff" stroke="#000" stroke-width="16"/><path fill="#856800" fill-rule="evenodd" d="M468 266l-70.2 36.9-76.8-36.8z"/><path fill="#ffcb15" fill-rule="evenodd" d="M468 266l-70.2 31-76.8-31z"/><path d="M360 208a21.7 20.8 84.8 00-2 .1 21.7 20.8 84.8 00-18.8 23.6 21.7 20.8 84.8 0022.7 19.7 21.7 20.8 84.8 0018.8-23.5 21.7 20.8 84.8 00-6.5-13.8 5.2 6.1 0 011.5 4.3 5.2 6.1 0 01-5.2 6.2 5.2 6.1 0 01-5.2-6.2 5.2 6.1 0 015.2-6.1 5.2 6.1 0 013 1A21.7 20.8 84.8 00360 208zm70.7.7a21.7 20.8 84.8 00-2.1 0 21.7 20.8 84.8 00-18.8 23.6 21.7 20.8 84.8 0022.7 19.8 21.7 20.8 84.8 0018.8-23.6 21.7 20.8 84.8 00-20.6-19.8zm10 4a5.2 6.1 0 015.3 6 5.2 6.1 0 01-5.2 6.2 5.2 6.1 0 01-5.2-6.1 5.2 6.1 0 015.2-6.1z"/></g><path fill-rule="evenodd" d="M395 59.9a96.3 96.3 0 01-31.5 31c-70.7 19.9-132 113-153 213a200 200 0 0051.8 73.1c7.9-158 44.7-267 112-208 10 9 15.2 13 20 12.6 5 .3 10-3.8 20.2-12.6 67.7-59 105 50 112 208a200 200 0 0051.8-72.9c-20.3-94.9-77-184-144-209a62 62 0 005.7-34.3 89.6 89.6 0 01-25.8 27.1 62 62 0 002.7-27.1A87.8 87.8 0 01391 87.9a62 62 0 002.7-27.1z"/><path fill="#9f9f9f" d="M410 554a23.8 23.8 0 00-11.3 3.3 22.4 22.4 0 00-9 12.2 42 42 0 00.7 30.2 68.6 68.6 0 0011.7 18.4 2360 2360 0 019.4 11c10.6 12.3 14.7 23 13.3 34.8-1.1 8.5-4.2 14-9.7 17.3-4.1 2.4-10.3 2-15.3.2a44.7 44.7 0 01-10.9-9l-5.3 7.4a15 15 0 002.5 3.6c2.8 3.2 8 6.9 11.8 8.2l.2.3a52.7 52.7 0 0020 0c9-3.5 14.6-11.7 16.2-24 1-6.6 1-11 0-16.6-1.9-12.4-5.8-19.5-18.8-34.7-13.5-15.5-16.9-21.1-18-29.5-1.3-9.7 1.9-18 7.9-21.4 4.4-2.3 8.5-1.3 12.9.7 1.7 1 3.7 2.5 4.4 3.2l1.6 1.3c.6 0 3.9-8 4.4-8.8A23.8 23.8 0 00410 554zm-302 .2l-20.9 138h11.4l6-45.8h19.3l6 45.8h11.4l-20.9-138H108zm78 0h-39.4V565h14.8v128h11.4V565H200.9v128h11.4V565h14.9v-10.8H186zm46.3 0v138h11.5v-66.3h28.4v66.4h11.2v-138l-11.3-.1v61.5h-28.4v-61.5h-11.4zm66.1 0v138h11.4v-138h-11.4zm47.4 0l-21 138h11.4l5.9-45.8h19.4l5.9 45.9h11.4l-20.8-138h-12.2zm-342 .4v138h11.4v-117c6.6 12.7 13.8 26 19.7 36.8l5.7 10 5.7-10L66 575.8v117h11.2v-138H66l-21.5 39.8-4 7.4c-9-17-17.3-32-25.4-47.2l-11.3-.1zm110 18.7l8.5 64.3h-17l8.5-64.3zm238 0l8.4 64.4h-16.9l8.5-64.3z"/></svg>