<svg xmlns="http://www.w3.org/2000/svg" viewBox="0 0 790.2 692.6"><path fill="#856800" fill-rule="evenodd" d="M486.6 266l-70.2 36.9-76.8-36.8z" font-family="sans-serif" letter-spacing="0" style="line-height:125%" word-spacing="0"/><circle cx="413.2" cy="227.7" r="219.7" fill="none" stroke="#000" stroke-width="16" font-family="sans-serif" letter-spacing="0" style="line-height:125%" word-spacing="0"/><path fill="#ffcb15" fill-rule="evenodd" d="M486.6 266L416.4 297l-76.8-31z" font-family="sans-serif" letter-spacing="0" style="line-height:125%" word-spacing="0"/><path d="M378 207.6a21.7 20.8 84.8 00-2 .1 21.7 20.8 84.8 00-18.8 23.6 21.7 20.8 84.8 0022.7 19.7 21.7 20.8 84.8 0018.8-23.5 21.7 20.8 84.8 00-6.5-13.8 5.2 6.1 0 011.5 4.3 5.2 6.1 0 01-5.2 6.2 5.2 6.1 0 01-5.2-6.2 5.2 6.1 0 015.2-6.1 5.2 6.1 0 013 1 21.7 20.8 84.8 00-13.5-5.3zM448.7 208.3a21.7 20.8 84.8 00-2.1 0 21.7 20.8 84.8 00-18.8 23.6 21.7 20.8 84.8 0022.7 19.8 21.7 20.8 84.8 0018.8-23.6 21.7 20.8 84.8 00-20.6-19.8zm10 4a5.2 6.1 0 015.3 6 5.2 6.1 0 01-5.2 6.2 5.2 6.1 0 01-5.2-6.1 5.2 6.1 0 015.2-6.1z" font-family="sans-serif" letter-spacing="0" style="line-height:125%" word-spacing="0"/><g fill-rule="evenodd" stroke="#000"><path d="M366.4 100.6c18.5-11 36.5-22.5 47-40.7a62 62 0 01-11 43.5"/><path d="M389.4 100.6c18.6-11 36.6-22.5 47-40.7a62 62 0 01-10.9 43.5"/><path d="M412.5 100.6c18.5-11 36.5-22.5 47-40.7a62 62 0 01-11 43.5"/></g><path d="M409.2 87c-81.8.3-156.4 104.5-180.4 216.5a199.6 199.6 0 0051.8 73.1c7.9-157.9 44.7-266.9 112.5-207.8 10 9 15.2 13 20 12.6 5 .3 10-3.8 20.2-12.6 67.7-59 104.6 50 112.5 207.8a199.6 199.6 0 0051.8-72.9C573.6 191.7 499 87.4 417 87.2l-4 .1h-4z" font-family="sans-serif" letter-spacing="0" style="line-height:125%" word-spacing="0"/><path fill="#959595" d="M130 692.4h11.4L120.5 554h-12.3L87.3 692.4h11.4l6-45.8H124zm-24.2-55l8.5-64.3 8.5 64.3zm82-83.3h-41v10.7h14.8v127.6H173V564.8h14.9z" font-family="Ever After" letter-spacing="0" style="line-height:125%;-inkscape-font-specification:'Ever After, Normal';text-align:start" word-spacing="0"/><path fill="#959595" d="M227.4 554h-41.2v10.8h14.9v127.6h11.4V564.8h14.9zm44.9 0v61.5h-28.4V554h-11.4v138.3H244V626h28.4v66.4h11.2V554.1zM310 692.5h-11.4V554H310zm57.6 0h11.4L358.2 554H346L325 692.4h11.4l5.9-45.8h19.4zm-24.2-55l8.5-64.3 8.4 64.3z" font-family="Ever After" letter-spacing="0" style="line-height:125%;-inkscape-font-specification:'Ever After, Normal';text-align:start" word-spacing="0"/><path d="M516 564.8v-10.7h-31.7v138.3H516v-10.7h-20.2V626h18.8v-10.6h-18.8v-50.6zm11.2-10.7v138.3h11.4V554zm39.8 0v51.8l-.1-.1v86.6h11.3V554.1zm40.2 0h-13.8v138.3h13.9c14.8 0 24.7-7.5 29.5-22.5 2.8-8.9 4.2-24.4 4.2-46.7 0-22.2-1.4-37.8-4.2-46.6-4.8-15-14.7-22.5-29.5-22.5zM606 681.7h-1.2V564.8h1.2c10.5 0 17.4 6.2 20.6 18.5 2 7.4 3.1 20.7 3.1 40 0 19.2-1 32.5-3.1 39.9-3.2 12.3-10 18.5-20.6 18.5zm60.3 0V554h-11.4v138.3h31.6v-10.7zm62-116.9v-10.7h-31.6v138.3h31.7v-10.7H708V626H727v-10.6H708v-50.6z" font-family="Ever After" letter-spacing="0" style="line-height:125%;-inkscape-font-specification:'Ever After, Normal';text-align:start" word-spacing="0"/><path fill="none" stroke="#000" stroke-width="10" d="M533.8 555.5l38 135.5"/><path fill="#959595" d="M3.8 554.4v138h11.4v-117c6.6 12.7 13.8 26 19.7 36.8l5.7 10 5.7-10L66 575.6v116.9h11.2v-138H66l-21.5 39.8-4 7.4c-9-17-17.3-32-25.4-47.2z" font-family="Ever After" font-size="172.5" letter-spacing="0" style="line-height:125%;-inkscape-font-specification:'Ever After, Normal';text-align:start" word-spacing="0"/><path fill="#959595" d="M397.6 691.4c-3.8-1.3-9-5-11.8-8.2a15 15 0 01-2.5-3.6l5.3-7.4c3.3 3.4 6.7 6.8 10.9 9 5 1.9 11.2 2.2 15.3-.2 5.5-3.3 8.6-8.8 9.7-17.3 1.4-11.7-2.7-22.5-13.3-34.8a2359 2359 0 00-9.4-11 68.6 68.6 0 01-11.7-18.4 42 42 0 01-.7-30.2c2.1-5.8 4.9-9.6 9-12.2a23.8 23.8 0 0130 4.8c-.5.8-3.8 8.8-4.4 8.8l-1.6-1.3c-.7-.7-2.7-2.1-4.4-3.2-4.4-2-8.5-3-12.9-.7-6 3.5-9.2 11.7-7.9 21.4 1.1 8.4 4.5 14 18 29.5 13 15.2 16.9 22.3 18.8 34.7 1 5.7 1 10 0 16.6-1.6 12.3-7.2 20.5-16.2 24a52.7 52.7 0 01-20 0z"/><path d="M753.3 553.5h-15v139h12v-65.8l7.3-.3 19.2 66.2 13.4-.1-21.1-69.7c7.8-4.8 14.7-12 14.4-35.5-.3-23.7-14.5-33.7-30.2-33.8zm-2.6 10.4c16.5 0 20.6 7.9 20.6 23.3 0 15.5-1 28-20.6 28z" font-family="Ever After" letter-spacing="0" style="line-height:125%;-inkscape-font-specification:'Ever After, Normal';text-align:start" word-spacing="0"/></svg>