<?xml version="1.0" encoding="UTF-8"?>
<svg class="logo_font_dark" version="1.1" viewBox="0 0 786 139" xmlns="http://www.w3.org/2000/svg"><g fill="#fff"><path d="m111 20.1v97.2h42.4v-10.6h-31.4v-27.8h25.9v-10.6h-25.9v-37.7h31.4v-10.6z" style="font-variant-caps:normal;font-variant-east-asian:normal;font-variant-ligatures:normal;font-variant-numeric:normal"/><path d="m236 20.1h-11v97.2h11c27.1 0 49.1-21.5 49.1-48.5 0-27.2-22-48.7-49.1-48.7zm0 10.6c21.1 0 38.1 17 38.1 38.1 0 20.9-17 37.9-38.1 37.9z" style="font-variant-caps:normal;font-variant-east-asian:normal;font-variant-ligatures:normal;font-variant-numeric:normal"/><path d="m293 20.1v97.2h42.4v-10.6h-31.4v-86.6z" style="font-variant-caps:normal;font-variant-east-asian:normal;font-variant-ligatures:normal;font-variant-numeric:normal"/><path d="m397 20.1v97.2h11v-24.4c4.32 0 8.79 0.139 13.1-0.558l16.7 25h13l-19.8-28.2c12-5.72 19.8-17.6 19.8-32.6 0-21.2-15.8-36.4-36.8-36.4zm11 62.2v-51.6h6c12.1 0 25.8 8.09 25.8 25.8 0 17.7-13.4 25.8-25.8 25.8z" style="font-variant-caps:normal;font-variant-east-asian:normal;font-variant-ligatures:normal;font-variant-numeric:normal"/><path d="m345 20.1v97.2h42.4v-10.6h-31.4v-27.8h25.9v-10.6h-25.9v-37.7h31.4v-10.6z" style="font-variant-caps:normal;font-variant-east-asian:normal;font-variant-ligatures:normal;font-variant-numeric:normal"/><path d="m216 20.6h-10.2v63.9l-42.3-63.6v98.2h10.3v-62.4l42.1 62.5z" style="font-variant-caps:normal;font-variant-east-asian:normal;font-variant-ligatures:normal;font-variant-numeric:normal"/></g><g fill="#9f9f9f"><path d="m470 101c-4.18 0-7.58 3.4-7.58 7.58 0 4.18 3.4 7.58 7.58 7.58 4.18 0 7.58-3.4 7.58-7.58 0-4.18-3.4-7.58-7.58-7.58z" style="font-variant-caps:normal;font-variant-east-asian:normal;font-variant-ligatures:normal;font-variant-numeric:normal"/><path d="m488 20v96.1h12.2c26.9 0 48.6-21.2 48.6-48.1 0-26.8-21.7-48-48.6-48zm12.2 84.3v-72.5c20.1 0 36.4 16.2 36.4 36.2 0 20.1-16.2 36.4-36.4 36.4z" style="font-variant-caps:normal;font-variant-east-asian:normal;font-variant-ligatures:normal;font-variant-numeric:normal"/><path d="m611 20 32.3 96.5 32.3-96.5h-12.4l-20 60.5-20.1-60.5z" style="font-variant-caps:normal;font-variant-east-asian:normal;font-variant-ligatures:normal;font-variant-numeric:normal"/><path d="m559 20.3v96.7h42.2v-10.5h-31.2v-27.6h25.8v-10.5h-25.8v-37.5h31.2v-10.5z" style="font-variant-caps:normal;font-variant-east-asian:normal;font-variant-ligatures:normal;font-variant-numeric:normal"/></g></svg>
