<?xml version="1.0" standalone="no"?>
<!DOCTYPE svg PUBLIC "-//W3C//DTD SVG 20010904//EN"
 "http://www.w3.org/TR/2001/REC-SVG-20010904/DTD/svg10.dtd">
<svg version="1.0" xmlns="http://www.w3.org/2000/svg"
 width="452.000000pt" height="452.000000pt" viewBox="0 0 452.000000 452.000000"
 preserveAspectRatio="xMidYMid meet">
<metadata>
Created by potrace 1.11, written by Peter Selinger 2001-2013
</metadata>
<g transform="translate(0.000000,452.000000) scale(0.100000,-0.100000)"
fill="#000000" stroke="none">
<path d="M2035 4509 c-317 -30 -687 -156 -964 -328 -725 -450 -1139 -1278
-1061 -2126 82 -891 693 -1661 1539 -1939 1078 -353 2232 130 2736 1146 311
628 311 1368 0 1996 -421 849 -1306 1340 -2250 1251z m470 -164 c743 -87 1395
-573 1685 -1257 507 -1200 -174 -2563 -1435 -2869 -1115 -270 -2244 408 -2529
1521 -182 711 22 1470 536 1991 198 200 416 349 673 459 335 144 704 197 1070
155z"/>
<path d="M2235 3893 c-26 -49 -134 -157 -218 -220 -41 -31 -104 -65 -160 -87
-509 -197 -981 -767 -1267 -1531 -51 -137 -128 -392 -149 -496 -12 -57 -12
-57 33 -150 94 -198 205 -357 360 -517 67 -69 102 -98 107 -90 3 7 9 70 13
141 27 527 126 1131 241 1468 50 145 155 351 217 428 104 127 232 185 358 162
89 -17 198 -76 309 -171 171 -145 191 -145 362 0 298 253 517 233 718 -63 197
-291 352 -964 401 -1747 17 -262 8 -246 91 -164 156 154 286 332 384 529 l57
114 -12 58 c-7 32 -32 126 -56 210 -230 806 -711 1496 -1224 1757 -58 29 -111
55 -117 57 -10 3 -8 17 8 58 25 67 44 207 35 257 l-7 37 -30 -44 c-33 -50
-136 -159 -182 -191 l-30 -21 6 29 c12 51 20 192 13 210 -5 14 -14 7 -43 -37
-37 -54 -152 -172 -187 -191 -17 -9 -18 -8 -12 13 12 40 20 229 10 229 -5 0
-18 -17 -29 -37z"/>
<path d="M1847 2450 c-83 -25 -141 -109 -141 -205 0 -123 87 -215 204 -215
139 0 236 136 196 273 -33 113 -150 179 -259 147z m183 -50 c37 -37 19 -100
-28 -100 -37 0 -52 17 -52 56 0 23 7 38 22 48 29 20 34 20 58 -4z"/>
<path d="M2525 2433 c-137 -72 -162 -248 -51 -351 120 -110 294 -58 337 102
19 69 -9 163 -63 213 -54 51 -162 69 -223 36z m210 -47 c32 -49 -14 -113 -63
-87 -47 25 -29 111 23 111 15 0 31 -9 40 -24z"/>
<path d="M1532 1880 c2 -5 59 -37 128 -70 69 -34 238 -122 376 -196 138 -74
254 -134 258 -134 4 0 123 69 265 154 142 85 297 174 345 198 47 23 86 46 86
50 0 5 -329 8 -731 8 -457 0 -729 -4 -727 -10z m1407 -14 c-2 -2 -149 -73
-326 -159 l-322 -155 -338 149 c-186 82 -347 153 -358 158 -13 6 234 10 664
10 376 1 682 -1 680 -3z"/>
</g>
</svg>
