<?xml version="1.0" encoding="UTF-8" standalone="no"?>
<!-- Created with Inkscape (http://www.inkscape.org/) -->

<svg
   width="487.21429mm"
   height="264.46649mm"
   viewBox="0 0 487.21429 264.46649"
   version="1.1"
   id="svg827"
   inkscape:version="1.2.1 (9c6d41e, 2022-07-14)"
   sodipodi:docname="intro_edit.svg"
   xmlns:inkscape="http://www.inkscape.org/namespaces/inkscape"
   xmlns:sodipodi="http://sodipodi.sourceforge.net/DTD/sodipodi-0.dtd"
   xmlns="http://www.w3.org/2000/svg"
   xmlns:svg="http://www.w3.org/2000/svg">
  <sodipodi:namedview
     id="namedview829"
     pagecolor="#ffffff"
     bordercolor="#666666"
     borderopacity="1.0"
     inkscape:showpageshadow="2"
     inkscape:pageopacity="0.0"
     inkscape:pagecheckerboard="0"
     inkscape:deskcolor="#d1d1d1"
     inkscape:document-units="mm"
     showgrid="false"
     inkscape:zoom="0.35515686"
     inkscape:cx="609.5898"
     inkscape:cy="333.65539"
     inkscape:window-width="1728"
     inkscape:window-height="1051"
     inkscape:window-x="0"
     inkscape:window-y="38"
     inkscape:window-maximized="1"
     inkscape:current-layer="layer1"
     showguides="true" />
  <defs
     id="defs824" />
  <g
     inkscape:label="Layer 1"
     inkscape:groupmode="layer"
     id="layer1"
     transform="translate(268.40643,522.57379)">
    <rect
       style="opacity:1;fill:#fefefe;fill-opacity:1;stroke:none;stroke-width:1.659;stroke-linecap:round;stroke-linejoin:round;stop-color:#000000"
       id="rect14152"
       width="487.21429"
       height="264.46649"
       x="-268.40643"
       y="-522.57379" />
    <path
       id="rect2425"
       style="fill:#000000;fill-opacity:1;stroke:none;stroke-width:0.524357;stroke-linecap:round;stroke-linejoin:round;stop-color:#000000"
       d="M 17.46966 -418.22512 L 17.46966 -395.12369 C 21.097685 -391.85722 24.725726 -388.59075 28.353751 -385.32429 C 29.385506 -384.70105 30.191695 -383.18467 29.289094 -382.12707 C 25.34926 -378.57969 21.409495 -375.0322 17.46966 -371.48482 L 17.46966 -321.53438 C 17.46966 -318.21039 19.585831 -315.53423 22.214074 -315.53423 L 186.12913 -315.53423 C 188.75737 -315.53423 190.87303 -318.21039 190.87303 -321.53438 L 190.87303 -418.22512 L 17.46966 -418.22512 z " />
    <path
       id="rect4740"
       style="fill:#dc3b81;fill-opacity:1;stroke:none;stroke-width:0.524357;stroke-linecap:round;stroke-linejoin:round;stop-color:#000000"
       d="m 22.299631,-451.0738 c -2.628242,0 -4.744245,2.67615 -4.744245,6.00015 v 22.99756 H 190.95875 v -22.99756 c 0,-3.324 -2.116,-6.00015 -4.74424,-6.00015 h -30.24984 v 14.11851 H 136.23056 V -451.0738 H 71.474537 v 14.11851 h -19.73452 v -14.11851 z" />
    <rect
       style="fill:#dc3b81;fill-opacity:1;stroke:none;stroke-width:0.946704;stroke-linecap:round;stroke-linejoin:round;stop-color:#000000"
       id="rect3951"
       width="22.206533"
       height="22.206533"
       x="62.639801"
       y="-407.85483" />
    <rect
       style="fill:#dc3b81;fill-opacity:1;stroke:none;stroke-width:0.946704;stroke-linecap:round;stroke-linejoin:round;stop-color:#000000"
       id="rect3953"
       width="22.206533"
       height="22.206533"
       x="92.751465"
       y="-407.85483" />
    <rect
       style="fill:#dc3b81;fill-opacity:1;stroke:none;stroke-width:0.946704;stroke-linecap:round;stroke-linejoin:round;stop-color:#000000"
       id="rect3955"
       width="22.206533"
       height="22.206533"
       x="122.86311"
       y="-407.85483" />
    <rect
       style="fill:#dc3b81;fill-opacity:1;stroke:none;stroke-width:0.946704;stroke-linecap:round;stroke-linejoin:round;stop-color:#000000"
       id="rect3957"
       width="22.206533"
       height="22.206533"
       x="152.97475"
       y="-407.85483" />
    <rect
       style="fill:#dc3b81;fill-opacity:1;stroke:none;stroke-width:0.946704;stroke-linecap:round;stroke-linejoin:round;stop-color:#000000"
       id="rect4687"
       width="22.206533"
       height="22.206533"
       x="32.528141"
       y="-378.75876" />
    <rect
       style="fill:#dc3b81;fill-opacity:1;stroke:none;stroke-width:0.946704;stroke-linecap:round;stroke-linejoin:round;stop-color:#000000"
       id="rect4689"
       width="22.206533"
       height="22.206533"
       x="62.639801"
       y="-378.75876" />
    <rect
       style="fill:#dc3b81;fill-opacity:1;stroke:none;stroke-width:0.946704;stroke-linecap:round;stroke-linejoin:round;stop-color:#000000"
       id="rect4691"
       width="22.206533"
       height="22.206533"
       x="92.751465"
       y="-378.75876" />
    <rect
       style="opacity:0.584245;fill:#dc3b81;fill-opacity:1;stroke:none;stroke-width:0.946704;stroke-linecap:round;stroke-linejoin:round;stop-color:#000000"
       id="rect4693"
       width="22.206533"
       height="22.206533"
       x="122.86311"
       y="-378.75876" />
    <rect
       style="fill:#dc3b81;fill-opacity:1;stroke:none;stroke-width:0.946704;stroke-linecap:round;stroke-linejoin:round;stop-color:#000000"
       id="rect4695"
       width="22.206533"
       height="22.206533"
       x="152.97475"
       y="-378.75876" />
    <rect
       style="fill:#dc3b81;fill-opacity:1;stroke:none;stroke-width:0.946704;stroke-linecap:round;stroke-linejoin:round;stop-color:#000000"
       id="rect4699"
       width="22.206533"
       height="22.206533"
       x="32.528141"
       y="-349.66275" />
    <rect
       style="fill:#dc3b81;fill-opacity:1;stroke:none;stroke-width:0.946704;stroke-linecap:round;stroke-linejoin:round;stop-color:#000000"
       id="rect4701"
       width="22.206533"
       height="22.206533"
       x="62.639801"
       y="-349.66275" />
    <rect
       style="opacity:0.584245;fill:#dc3b81;fill-opacity:1;stroke:none;stroke-width:0.946704;stroke-linecap:round;stroke-linejoin:round;stop-color:#000000"
       id="rect4703"
       width="22.206533"
       height="22.206533"
       x="92.751465"
       y="-349.66275" />
    <rect
       style="fill:#dc3b81;fill-opacity:1;stroke:none;stroke-width:0.946704;stroke-linecap:round;stroke-linejoin:round;stop-color:#000000"
       id="rect4705"
       width="22.206533"
       height="22.206533"
       x="122.86311"
       y="-349.66275" />
    <rect
       style="fill:#000000;fill-opacity:1;stroke:none;stroke-width:1.33703;stroke-linecap:round;stroke-linejoin:round;stop-color:#000000"
       id="rect7950"
       width="13.533792"
       height="25.450108"
       x="55.17046"
       y="-465.14664" />
    <rect
       style="fill:#000000;fill-opacity:1;stroke:none;stroke-width:1.33703;stroke-linecap:round;stroke-linejoin:round;stop-color:#000000"
       id="rect8886"
       width="13.533792"
       height="25.450108"
       x="139.66808"
       y="-465.14664" />
    <rect
       style="opacity:0.498906;fill:#000000;fill-opacity:1;stroke:none;stroke-width:1.77517;stroke-linecap:round;stroke-linejoin:round;stop-color:#000000"
       id="rect8948"
       width="173.08839"
       height="8.4799633"
       x="17.572147"
       y="-434.28867" />
    <path
       id="path362"
       style="fill:#dc3b81;fill-opacity:1;stroke:none;stroke-width:1.33311;stroke-linecap:round;stroke-linejoin:round;stop-color:#000000"
       inkscape:transform-center-x="-8.6811637"
       inkscape:transform-center-y="-2.2175297e-05"
       d="m -23.858954,-430.20173 v 18.38751 h -43.273339 v 55.52374 h 43.273339 v 19.88406 l 26.043368,-23.4487 26.043375,-23.44921 -26.043375,-23.4487 z" />
    <rect
       style="fill:#000000;fill-opacity:1;stroke:none;stroke-width:0.528994;stroke-linecap:round;stroke-linejoin:round;stop-color:#000000"
       id="rect1000"
       width="176.48389"
       height="135.53928"
       x="-240.55731"
       y="-451.0737"
       rx="4.828403"
       ry="6" />
    <circle
       style="fill:#c80070;fill-opacity:1;stroke:none;stroke-width:0.999969;stroke-linecap:round;stroke-linejoin:round;stop-color:#000000"
       id="path1689"
       cx="-227.83463"
       cy="-438.78329"
       r="4.352932" />
    <circle
       style="fill:#fff700;fill-opacity:1;stroke:none;stroke-width:0.999969;stroke-linecap:round;stroke-linejoin:round;stop-color:#000000"
       id="circle1847"
       cx="-215.64523"
       cy="-438.78329"
       r="4.352932" />
    <circle
       style="fill:#04ff00;fill-opacity:1;stroke:none;stroke-width:0.999969;stroke-linecap:round;stroke-linejoin:round;stop-color:#000000"
       id="circle1849"
       cx="-203.45587"
       cy="-438.78329"
       r="4.352932" />
    <rect
       style="fill:#ffffff;fill-opacity:1;stroke:none;stroke-width:0.89054;stroke-linecap:round;stroke-linejoin:round;stop-color:#000000"
       id="rect1915"
       width="5.5232787"
       height="13.107383"
       x="124.44167"
       y="-429.75922"
       transform="rotate(-45.848343)" />
    <rect
       style="fill:#ffffff;fill-opacity:1;stroke:none;stroke-width:0.89054;stroke-linecap:round;stroke-linejoin:round;stop-color:#000000"
       id="rect1917"
       width="5.5232782"
       height="13.107383"
       x="-425.59851"
       y="104.22942"
       transform="matrix(0.69655994,0.7174986,0.7174986,-0.69655994,0,0)" />
    <path
       d="m -193.29676,-377.21294 q -0.98818,0 -1.78197,-0.29159 -0.77759,-0.3078 -1.32839,-0.87479 -0.53459,-0.56699 -0.82619,-1.37698 -0.29159,-0.80999 -0.29159,-1.83058 0,-1.02059 0.29159,-1.83058 0.2916,-0.80999 0.82619,-1.37698 0.5508,-0.567 1.32839,-0.85859 0.79379,-0.3078 1.76578,-0.3078 1.37698,0 2.20317,0.567 0.84239,0.55079 1.27978,1.47418 l -1.84678,1.00438 q -0.22679,-0.48599 -0.59939,-0.80999 -0.35639,-0.32399 -1.03678,-0.32399 -0.82619,0 -1.27979,0.48599 -0.43739,0.4698 -0.43739,1.29599 v 1.36078 q 0,0.82619 0.43739,1.31218 0.4536,0.4698 1.31218,0.4698 0.6966,0 1.08539,-0.324 0.405,-0.32399 0.68039,-0.84239 l 1.81438,1.03679 q -0.45359,0.92339 -1.32838,1.49038 -0.85859,0.55079 -2.26798,0.55079 z"
       style="font-weight:bold;font-size:16.1998px;line-height:1.25;font-family:'IBM Plex Mono';-inkscape-font-specification:'IBM Plex Mono, Bold';fill:#fefefe;stroke-width:0.404997"
       id="path14005" />
    <path
       d="m -182.50771,-378.93011 h -0.0972 q -0.2754,0.71279 -0.87479,1.21498 -0.58319,0.50219 -1.58758,0.50219 -0.59939,0 -1.10159,-0.19439 -0.50219,-0.2106 -0.85859,-0.6156 -0.35639,-0.40499 -0.56699,-0.98818 -0.1944,-0.5832 -0.1944,-1.34459 v -5.41073 h 2.39757 v 5.08674 q 0,1.61998 1.40939,1.61998 0.27539,0 0.53459,-0.0648 0.2754,-0.081 0.46979,-0.2268 0.2106,-0.162 0.3402,-0.38879 0.1296,-0.2268 0.1296,-0.5346 v -5.49173 h 2.39757 v 8.3591 h -2.39757 z"
       style="font-weight:bold;font-size:16.1998px;line-height:1.25;font-family:'IBM Plex Mono';-inkscape-font-specification:'IBM Plex Mono, Bold';fill:#fefefe;stroke-width:0.404997"
       id="path14007" />
    <path
       d="m -177.8584,-379.27031 h 1.92778 v -4.63314 h -1.92778 v -1.86298 h 4.32535 v 2.36517 h 0.1134 q 0.1134,-0.45359 0.3078,-0.87479 0.21059,-0.43739 0.51839,-0.76139 0.324,-0.3402 0.77759,-0.53459 0.45359,-0.1944 1.06919,-0.1944 h 0.79379 v 2.20317 h -1.78198 q -0.89099,0 -1.34458,0.5346 -0.4536,0.51839 -0.4536,1.27978 v 2.47857 h 2.75397 v 1.86298 h -7.07932 z"
       style="font-weight:bold;font-size:16.1998px;line-height:1.25;font-family:'IBM Plex Mono';-inkscape-font-specification:'IBM Plex Mono, Bold';fill:#fefefe;stroke-width:0.404997"
       id="path14009" />
    <path
       d="m -168.23574,-379.27031 h 2.55957 v -8.2619 h -2.55957 v -1.86298 h 4.95714 v 10.12488 h 2.55957 v 1.86298 h -7.51671 z"
       style="font-weight:bold;font-size:16.1998px;line-height:1.25;font-family:'IBM Plex Mono';-inkscape-font-specification:'IBM Plex Mono, Bold';fill:#fefefe;stroke-width:0.404997"
       id="path14011" />
    <path
       d="m -148.82843,-377.40733 v -1.99258 l 4.64935,-4.50354 h -4.48735 v -1.86298 h 7.25751 v 1.99258 l -4.64934,4.50354 h 4.81134 v 1.86298 z"
       style="font-weight:bold;font-size:16.1998px;line-height:1.25;font-family:'IBM Plex Mono';-inkscape-font-specification:'IBM Plex Mono, Bold';fill:#fefefe;stroke-width:0.404997"
       id="path14013" />
    <path
       d="m -135.09102,-377.21294 q -2.10598,0 -3.19136,-1.16638 -1.08539,-1.16639 -1.08539,-3.17516 0,-1.02059 0.2754,-1.83058 0.29159,-0.82619 0.80999,-1.39318 0.53459,-0.5832 1.27978,-0.87479 0.76139,-0.3078 1.70098,-0.3078 0.93959,0 1.68478,0.3078 0.74519,0.29159 1.26358,0.84239 0.5184,0.55079 0.79379,1.34458 0.2916,0.77759 0.2916,1.74958 v 0.71279 h -5.71853 v 0.1458 q 0,0.80999 0.50219,1.31218 0.5022,0.486 1.47419,0.486 0.74519,0 1.27978,-0.2754 0.53459,-0.2916 0.92339,-0.76139 l 1.29598,1.40938 q -0.48599,0.5994 -1.36078,1.03679 -0.87479,0.43739 -2.21937,0.43739 z m -0.1944,-7.03071 q -0.77759,0 -1.24739,0.48599 -0.45359,0.4698 -0.45359,1.27979 v 0.1296 h 3.36956 v -0.1296 q 0,-0.82619 -0.4536,-1.29598 -0.43739,-0.4698 -1.21498,-0.4698 z"
       style="font-weight:bold;font-size:16.1998px;line-height:1.25;font-family:'IBM Plex Mono';-inkscape-font-specification:'IBM Plex Mono, Bold';fill:#fefefe;stroke-width:0.404997"
       id="path14015" />
    <path
       d="m -129.25912,-379.27031 h 1.92778 v -4.63314 h -1.92778 v -1.86298 h 4.32535 v 2.36517 h 0.1134 q 0.11339,-0.45359 0.30779,-0.87479 0.2106,-0.43739 0.5184,-0.76139 0.32399,-0.3402 0.77759,-0.53459 0.45359,-0.1944 1.06918,-0.1944 h 0.79379 v 2.20317 h -1.78198 q -0.89098,0 -1.34458,0.5346 -0.45359,0.51839 -0.45359,1.27978 v 2.47857 h 2.75396 v 1.86298 h -7.07931 z"
       style="font-weight:bold;font-size:16.1998px;line-height:1.25;font-family:'IBM Plex Mono';-inkscape-font-specification:'IBM Plex Mono, Bold';fill:#fefefe;stroke-width:0.404997"
       id="path14017" />
    <path
       d="m -115.87811,-377.21294 q -0.97199,0 -1.74958,-0.29159 -0.77759,-0.3078 -1.32838,-0.87479 -0.53459,-0.56699 -0.82619,-1.37698 -0.2916,-0.80999 -0.2916,-1.83058 0,-1.02059 0.2916,-1.83058 0.2916,-0.80999 0.82619,-1.37698 0.55079,-0.567 1.32838,-0.85859 0.77759,-0.3078 1.74958,-0.3078 0.97199,0 1.74958,0.3078 0.77759,0.29159 1.31218,0.85859 0.5508,0.56699 0.84239,1.37698 0.2916,0.80999 0.2916,1.83058 0,1.02059 -0.2916,1.83058 -0.29159,0.80999 -0.84239,1.37698 -0.53459,0.56699 -1.31218,0.87479 -0.77759,0.29159 -1.74958,0.29159 z m 0,-1.78197 q 0.80999,0 1.26359,-0.5022 0.45359,-0.50219 0.45359,-1.42558 v -1.32838 q 0,-0.92339 -0.45359,-1.42559 -0.4536,-0.50219 -1.26359,-0.50219 -0.80999,0 -1.26358,0.50219 -0.4536,0.5022 -0.4536,1.42559 v 1.32838 q 0,0.92339 0.4536,1.42558 0.45359,0.5022 1.26358,0.5022 z"
       style="font-weight:bold;font-size:16.1998px;line-height:1.25;font-family:'IBM Plex Mono';-inkscape-font-specification:'IBM Plex Mono, Bold';fill:#fefefe;stroke-width:0.404997"
       id="path14019" />
    <path
       d="m -105.81806,-377.21294 q -0.98818,0 -1.78197,-0.29159 -0.77759,-0.3078 -1.32839,-0.87479 -0.53459,-0.56699 -0.82619,-1.37698 -0.29159,-0.80999 -0.29159,-1.83058 0,-1.02059 0.29159,-1.83058 0.2916,-0.80999 0.82619,-1.37698 0.5508,-0.567 1.32839,-0.85859 0.79379,-0.3078 1.76577,-0.3078 1.37699,0 2.20318,0.567 0.84239,0.55079 1.27978,1.47418 l -1.84678,1.00438 q -0.22679,-0.48599 -0.59939,-0.80999 -0.35639,-0.32399 -1.03679,-0.32399 -0.82619,0 -1.27978,0.48599 -0.4374,0.4698 -0.4374,1.29599 v 1.36078 q 0,0.82619 0.4374,1.31218 0.45359,0.4698 1.31218,0.4698 0.69659,0 1.08539,-0.324 0.405,-0.32399 0.68039,-0.84239 l 1.81438,1.03679 q -0.4536,0.92339 -1.32838,1.49038 -0.85859,0.55079 -2.26798,0.55079 z"
       style="font-weight:bold;font-size:16.1998px;line-height:1.25;font-family:'IBM Plex Mono';-inkscape-font-specification:'IBM Plex Mono, Bold';fill:#fefefe;stroke-width:0.404997"
       id="path14021" />
    <path
       d="m -93.409033,-377.40733 q -0.74519,0 -1.19879,-0.3726 -0.45359,-0.38879 -0.53459,-1.10159 h -0.081 q -0.2268,0.82619 -0.90719,1.24739 -0.66419,0.42119 -1.63618,0.42119 -1.21498,0 -1.96018,-0.64799 -0.728987,-0.66419 -0.728987,-1.84677 0,-1.31219 0.955787,-1.94398 0.95579,-0.63179 2.80257,-0.63179 h 1.34458 v -0.4212 q 0,-0.74519 -0.35639,-1.11778 -0.3402,-0.3888 -1.16639,-0.3888 -0.76139,0 -1.23119,0.2916 -0.46979,0.29159 -0.80999,0.76139 l -1.312177,-1.16639 q 0.421197,-0.71279 1.312177,-1.16638 0.90719,-0.4698 2.31658,-0.4698 1.71717,0 2.67296,0.79379 0.97199,0.77759 0.97199,2.36517 v 3.66116 h 0.92339 v 1.73338 z m -3.45056,-1.37699 q 0.63179,0 1.06919,-0.30779 0.43739,-0.3078 0.43739,-0.89099 v -1.00439 h -1.27978 q -1.47419,0 -1.47419,0.98819 v 0.32399 q 0,0.4374 0.3402,0.6642 0.3402,0.22679 0.90719,0.22679 z"
       style="font-weight:bold;font-size:16.1998px;line-height:1.25;font-family:'IBM Plex Mono';-inkscape-font-specification:'IBM Plex Mono, Bold';fill:#fefefe;stroke-width:0.404997"
       id="path14023" />
    <path
       d="m -90.476893,-379.27031 h 2.55957 v -8.2619 h -2.55957 v -1.86298 h 4.95714 v 10.12488 h 2.55956 v 1.86298 h -7.5167 z"
       style="font-weight:bold;font-size:16.1998px;line-height:1.25;font-family:'IBM Plex Mono';-inkscape-font-specification:'IBM Plex Mono, Bold';fill:#fefefe;stroke-width:0.404997"
       id="path14025" />
  </g>
</svg>
