<?xml version="1.0" encoding="UTF-8" standalone="no"?>
<svg
   xmlns:dc="http://purl.org/dc/elements/1.1/"
   xmlns:cc="http://creativecommons.org/ns#"
   xmlns:rdf="http://www.w3.org/1999/02/22-rdf-syntax-ns#"
   xmlns:svg="http://www.w3.org/2000/svg"
   xmlns="http://www.w3.org/2000/svg"
   xmlns:sodipodi="http://sodipodi.sourceforge.net/DTD/sodipodi-0.dtd"
   xmlns:inkscape="http://www.inkscape.org/namespaces/inkscape"
   width="100%"
   height="100%"
   viewBox="0 0 330 90"
   version="1.1"
   xml:space="preserve"
   style="fill-rule:evenodd;clip-rule:evenodd;stroke-linejoin:round;stroke-miterlimit:1.41421;"
   id="svg2"
   inkscape:version="0.91 r13725"
   sodipodi:docname="hacktoberfest_orig.svg"><metadata
     id="metadata446"><rdf:RDF><cc:Work
         rdf:about=""><dc:format>image/svg+xml</dc:format><dc:type
           rdf:resource="http://purl.org/dc/dcmitype/StillImage" /></cc:Work></rdf:RDF></metadata><sodipodi:namedview
     pagecolor="#ffffff"
     bordercolor="#666666"
     borderopacity="1"
     objecttolerance="10"
     gridtolerance="10"
     guidetolerance="10"
     inkscape:pageopacity="0"
     inkscape:pageshadow="2"
     inkscape:window-width="1452"
     inkscape:window-height="862"
     id="namedview444"
     showgrid="false"
     inkscape:zoom="2.3520522"
     inkscape:cx="200.23613"
     inkscape:cy="47.903226"
     inkscape:window-x="0"
     inkscape:window-y="0"
     inkscape:window-maximized="0"
     inkscape:current-layer="svg2" /><rect
     x="-27.986"
     y="-18.925"
     width="602.694"
     height="405.365"
     style="fill:#efe6c9;fill-rule:nonzero;"
     id="rect4" /><g
     id="g10"
     transform="matrix(0.84996007,0,0,0.84996007,39.285684,15.773873)"><path
       d="m 230.017,66.07 c 0,1.949 -1.58,3.528 -3.528,3.528 l -21.391,0 c -1.948,0 -3.528,-1.579 -3.528,-3.528 l 0,-36.605 c 0,-1.949 1.58,-3.529 3.528,-3.529 l 21.391,0 c 1.948,0 3.528,1.58 3.528,3.529 l 0,36.605 z"
       style="fill:#bcbebd;fill-rule:nonzero"
       id="path12"
       inkscape:connector-curvature="0" /><rect
       x="203.224"
       y="27.039"
       width="25.139"
       height="39.251999"
       style="fill:#f9a436;fill-rule:nonzero"
       id="rect14" /><path
       d="m 228.682,66.291 -11.565,0 11.246,0 0,-39.252 -11.246,0 0,-0.221 11.565,0 0,39.473 z"
       style="fill:#b6a588;fill-rule:nonzero"
       id="path16"
       inkscape:connector-curvature="0" /><path
       d="m 228.363,66.291 -11.246,0 0,-16.341 c 0.215,-0.026 0.416,-0.198 0.493,-0.448 0.099,-0.324 -0.046,-0.655 -0.324,-0.74 -0.045,-0.014 -0.091,-0.021 -0.136,-0.021 -0.011,0 -0.022,10e-4 -0.033,0.002 l 0,-12.268 c 0.182,-0.055 0.342,-0.213 0.409,-0.43 0.099,-0.323 -0.047,-0.655 -0.325,-0.74 -0.028,-0.009 -0.056,-0.015 -0.084,-0.018 l 0,-8.248 11.246,0 0,39.252 z m -10.757,-6.964 c -0.094,0 -0.186,0.072 -0.219,0.18 -0.04,0.129 0.018,0.262 0.129,0.296 0.018,0.005 0.036,0.007 0.054,0.007 0.094,0 0.186,-0.071 0.219,-0.181 0.041,-0.129 -0.018,-0.26 -0.129,-0.294 -0.018,-0.005 -0.036,-0.008 -0.054,-0.008 z m -0.239,-1.664 c -0.095,0 -0.187,0.072 -0.221,0.181 -0.039,0.129 0.019,0.261 0.13,0.297 0.018,0.005 0.036,0.008 0.054,0.008 0.094,0 0.186,-0.073 0.219,-0.183 0.04,-0.127 -0.018,-0.26 -0.13,-0.295 -0.017,-0.005 -0.035,-0.008 -0.052,-0.008 z m 1.075,-3.079 c -0.094,0 -0.186,0.073 -0.219,0.182 -0.04,0.128 0.018,0.262 0.13,0.296 0.017,0.005 0.036,0.007 0.053,0.007 0.094,0 0.187,-0.071 0.22,-0.18 0.04,-0.129 -0.019,-0.261 -0.13,-0.297 -0.017,-0.005 -0.036,-0.008 -0.054,-0.008 z m 0.277,-2.196 c -0.094,0 -0.186,0.071 -0.219,0.179 -0.039,0.13 0.017,0.264 0.129,0.299 0.018,0.005 0.035,0.007 0.052,0.007 0.095,0 0.188,-0.071 0.222,-0.18 0.039,-0.131 -0.019,-0.261 -0.131,-0.297 -0.017,-0.006 -0.035,-0.008 -0.053,-0.008 z m 1.149,-1.159 c -0.093,0 -0.185,0.071 -0.217,0.18 -0.041,0.129 0.017,0.262 0.128,0.296 0.018,0.006 0.036,0.008 0.054,0.008 0.095,0 0.186,-0.072 0.22,-0.181 0.04,-0.129 -0.018,-0.262 -0.13,-0.295 -0.017,-0.005 -0.036,-0.008 -0.055,-0.008 z m -0.066,-1.942 c -0.094,0 -0.185,0.072 -0.218,0.181 -0.04,0.126 0.019,0.26 0.129,0.295 0.018,0.005 0.036,0.008 0.054,0.008 0.095,0 0.187,-0.073 0.22,-0.181 0.04,-0.129 -0.019,-0.26 -0.131,-0.295 -0.017,-0.005 -0.036,-0.008 -0.054,-0.008 z m -1.872,-5.395 c -0.095,0 -0.187,0.072 -0.22,0.182 -0.04,0.128 0.018,0.26 0.129,0.295 0.018,0.005 0.036,0.008 0.054,0.008 0.094,0 0.185,-0.072 0.22,-0.181 0.039,-0.128 -0.02,-0.261 -0.13,-0.296 -0.018,-0.005 -0.036,-0.008 -0.053,-0.008 z m 3.377,-1.796 c -0.237,0 -0.465,0.18 -0.549,0.452 -0.098,0.322 0.047,0.655 0.324,0.739 0.045,0.013 0.091,0.02 0.137,0.02 0.236,0 0.463,-0.179 0.547,-0.45 0.099,-0.323 -0.047,-0.655 -0.325,-0.741 -0.044,-0.013 -0.089,-0.02 -0.134,-0.02 z m 6.098,-2.409 c -0.236,0 -0.465,0.18 -0.549,0.451 -0.098,0.323 0.046,0.655 0.325,0.74 0.045,0.013 0.09,0.02 0.135,0.02 0.237,0 0.466,-0.179 0.549,-0.451 0.1,-0.323 -0.045,-0.655 -0.324,-0.739 -0.045,-0.014 -0.091,-0.021 -0.136,-0.021 z m -5.14,-1.231 c -0.093,0 -0.186,0.072 -0.218,0.18 -0.041,0.13 0.017,0.262 0.128,0.295 0.019,0.006 0.037,0.009 0.056,0.009 0.094,0 0.185,-0.072 0.218,-0.18 0.04,-0.129 -0.018,-0.263 -0.13,-0.296 -0.017,-0.006 -0.036,-0.008 -0.054,-0.008 z m -1.328,-1.985 c -0.236,0 -0.466,0.181 -0.549,0.452 -0.099,0.324 0.046,0.655 0.324,0.74 0.045,0.014 0.09,0.02 0.134,0.02 0.237,0 0.467,-0.18 0.55,-0.451 0.099,-0.322 -0.046,-0.655 -0.325,-0.741 -0.044,-0.014 -0.089,-0.02 -0.134,-0.02 z m 1.8,0.233 c -0.095,0 -0.187,0.072 -0.22,0.181 -0.04,0.128 0.018,0.261 0.13,0.295 0.018,0.005 0.036,0.008 0.054,0.008 0.094,0 0.186,-0.072 0.219,-0.18 0.04,-0.129 -0.019,-0.262 -0.129,-0.296 -0.018,-0.006 -0.036,-0.008 -0.054,-0.008 z"
       style="fill:#f2912d;fill-rule:nonzero"
       id="path18"
       inkscape:connector-curvature="0" /><path
       d="m 220.484,22.05 0.055,-0.074 0.039,0.079 c -0.032,-0.002 -0.062,-0.003 -0.094,-0.005 z m -8.438,-0.16 c 0.044,-0.071 0.09,-0.141 0.131,-0.214 0.033,0.054 0.064,0.109 0.099,0.162 -0.078,0.015 -0.153,0.034 -0.23,0.052 z m -3.309,2.656 -0.08,-0.088 c 0.045,-0.013 0.094,-0.022 0.139,-0.036 -0.02,0.04 -0.039,0.083 -0.059,0.124 z m 22.286,0.032 c 0.081,-0.344 0.134,-0.699 0.134,-1.068 0,-1.221 -0.478,-2.324 -1.241,-3.16 0.029,-0.218 0.064,-0.435 0.064,-0.662 0,-2.76 -2.238,-4.998 -4.998,-4.998 -1.69,0 -3.181,0.84 -4.086,2.123 -0.83,-1.609 -2.505,-2.712 -4.441,-2.712 -1.706,0 -3.211,0.857 -4.113,2.161 -0.949,-1.972 -2.96,-3.337 -5.295,-3.337 -3.248,0 -5.881,2.633 -5.881,5.881 0,1.571 0.62,2.996 1.624,4.051 -2.464,0.7 -4.27,2.963 -4.27,5.652 0,3.248 2.632,5.88 5.88,5.88 2.549,0 4.712,-1.623 5.528,-3.89 0.88,0.772 2.03,1.244 3.293,1.244 1.306,0 2.491,-0.504 3.381,-1.324 0.914,0.993 2.22,1.618 3.675,1.618 1.169,0 2.243,-0.404 3.095,-1.077 0.913,1.19 2.346,1.96 3.962,1.96 2.761,0 4.998,-2.238 4.998,-4.998 0,-1.293 -0.503,-2.459 -1.309,-3.344 z"
       style="fill:#ffffff;fill-rule:nonzero"
       id="path20"
       inkscape:connector-curvature="0" /><path
       d="m 201.622,37.057 c 0,0 -10.683,-2.018 -11.632,2.016 -0.949,4.037 -2.848,17.924 2.137,19.466 4.985,1.543 8.427,1.663 9.02,1.663 0.594,0 0.95,1.186 1.425,1.069 0.475,-0.121 0.831,-5.343 0.356,-5.461 -0.475,-0.118 -0.711,-0.356 -1.306,0.475 -0.593,0.831 -8.44,1.057 -8.813,-4.689 -0.401,-6.186 -0.133,-9.409 0.58,-10.282 0.978,-1.202 5.741,-1.765 6.691,-0.46 0.949,1.306 2.017,1.78 2.255,0.95 0.237,-0.83 0.712,-5.341 -0.713,-4.747 z"
       style="fill:#bcbebd;fill-rule:nonzero"
       id="path22"
       inkscape:connector-curvature="0" /><path
       d="m 205.184,36.498 c -0.034,0 -0.068,-0.004 -0.102,-0.014 -0.211,-0.066 -0.321,-0.317 -0.246,-0.564 0.064,-0.206 0.238,-0.343 0.417,-0.343 0.034,0 0.069,0.005 0.102,0.016 0.211,0.065 0.322,0.317 0.247,0.562 -0.063,0.208 -0.238,0.343 -0.418,0.343 z"
       style="fill:url(#_Linear1)"
       id="path24"
       inkscape:connector-curvature="0" /><path
       d="m 207.339,39.543 c -0.035,0 -0.069,-0.005 -0.102,-0.016 -0.212,-0.065 -0.323,-0.316 -0.245,-0.563 0.062,-0.206 0.236,-0.343 0.415,-0.343 0.034,0 0.069,0.005 0.102,0.015 0.211,0.065 0.323,0.316 0.247,0.563 -0.063,0.206 -0.238,0.344 -0.417,0.344 z"
       style="fill:url(#_Linear2)"
       id="path26"
       inkscape:connector-curvature="0" /><path
       d="m 210.842,35.186 c -0.029,0 -0.058,-0.004 -0.086,-0.013 -0.178,-0.054 -0.271,-0.267 -0.208,-0.473 0.054,-0.174 0.2,-0.29 0.351,-0.29 0.029,0 0.058,0.005 0.087,0.014 0.179,0.054 0.272,0.266 0.208,0.474 -0.053,0.173 -0.201,0.288 -0.352,0.288 z"
       style="fill:url(#_Linear3)"
       id="path28"
       inkscape:connector-curvature="0" /><path
       d="m 211.417,37.179 c -0.034,0 -0.068,-0.005 -0.102,-0.015 -0.212,-0.065 -0.323,-0.316 -0.247,-0.562 0.063,-0.207 0.237,-0.344 0.417,-0.344 0.034,0 0.069,0.005 0.103,0.016 0.211,0.065 0.321,0.316 0.245,0.562 -0.062,0.206 -0.237,0.343 -0.416,0.343 z"
       style="fill:url(#_Linear4)"
       id="path30"
       inkscape:connector-curvature="0" /><path
       d="m 211.307,41.601 c -0.045,0 -0.09,-0.006 -0.134,-0.02 -0.278,-0.085 -0.423,-0.418 -0.325,-0.74 0.084,-0.271 0.313,-0.452 0.549,-0.452 0.045,0 0.09,0.007 0.135,0.021 0.278,0.085 0.423,0.417 0.324,0.74 -0.083,0.271 -0.313,0.451 -0.549,0.451 z"
       style="fill:url(#_Linear5)"
       id="path32"
       inkscape:connector-curvature="0" /><path
       d="m 215.104,37.639 c -0.045,0 -0.091,-0.007 -0.136,-0.02 -0.277,-0.085 -0.423,-0.418 -0.323,-0.741 0.084,-0.271 0.313,-0.451 0.549,-0.451 0.044,0 0.089,0.007 0.133,0.02 0.279,0.086 0.425,0.416 0.326,0.74 -0.084,0.272 -0.313,0.452 -0.549,0.452 z"
       style="fill:url(#_Linear6)"
       id="path34"
       inkscape:connector-curvature="0" /><path
       d="m 216.004,59.444 c -0.046,0 -0.092,-0.006 -0.137,-0.02 -0.278,-0.085 -0.424,-0.415 -0.324,-0.74 0.083,-0.272 0.311,-0.45 0.548,-0.45 0.045,0 0.091,0.007 0.136,0.02 0.278,0.084 0.423,0.416 0.324,0.739 -0.083,0.272 -0.311,0.451 -0.547,0.451 z"
       style="fill:url(#_Linear7)"
       id="path36"
       inkscape:connector-curvature="0" /><path
       d="m 217.061,49.953 c -0.045,0 -0.091,-0.006 -0.135,-0.02 -0.278,-0.086 -0.423,-0.417 -0.324,-0.74 0.079,-0.26 0.291,-0.434 0.515,-0.45 l 0,1.207 c -0.019,0.002 -0.038,0.003 -0.056,0.003 z"
       style="fill:url(#_Linear8)"
       id="path38"
       inkscape:connector-curvature="0" /><path
       d="m 217.117,49.95 0,-1.207 c 0.011,-0.001 0.022,-0.002 0.033,-0.002 0.045,0 0.091,0.007 0.136,0.021 0.278,0.085 0.423,0.416 0.324,0.74 -0.077,0.25 -0.278,0.422 -0.493,0.448 z"
       style="fill:url(#_Linear9)"
       id="path40"
       inkscape:connector-curvature="0" /><path
       d="m 221.219,43.307 c -0.046,0 -0.092,-0.007 -0.137,-0.02 -0.277,-0.084 -0.422,-0.417 -0.324,-0.739 0.084,-0.272 0.312,-0.452 0.549,-0.452 0.045,0 0.09,0.007 0.134,0.02 0.278,0.086 0.424,0.418 0.325,0.741 -0.084,0.271 -0.311,0.45 -0.547,0.45 z"
       style="fill:url(#_Linear10)"
       id="path42"
       inkscape:connector-curvature="0" /><path
       d="m 211.854,58.583 c -0.045,0 -0.09,-0.006 -0.134,-0.02 -0.279,-0.086 -0.423,-0.417 -0.325,-0.74 0.085,-0.272 0.313,-0.451 0.55,-0.451 0.045,0 0.09,0.006 0.135,0.02 0.277,0.085 0.423,0.417 0.324,0.74 -0.083,0.272 -0.313,0.451 -0.55,0.451 z"
       style="fill:url(#_Linear11)"
       id="path44"
       inkscape:connector-curvature="0" /><path
       d="m 214.064,50.237 c -0.046,0 -0.091,-0.006 -0.136,-0.02 -0.279,-0.084 -0.424,-0.416 -0.325,-0.741 0.082,-0.269 0.311,-0.45 0.547,-0.45 0.045,0 0.092,0.007 0.137,0.021 0.278,0.084 0.423,0.416 0.324,0.74 -0.084,0.271 -0.312,0.45 -0.547,0.45 z"
       style="fill:url(#_Linear12)"
       id="path46"
       inkscape:connector-curvature="0" /><path
       d="m 208.384,50.341 c -0.045,0 -0.09,-0.007 -0.135,-0.02 -0.278,-0.085 -0.424,-0.417 -0.324,-0.741 0.083,-0.27 0.312,-0.45 0.548,-0.45 0.045,0 0.091,0.006 0.135,0.02 0.278,0.086 0.423,0.416 0.324,0.739 -0.084,0.272 -0.313,0.452 -0.548,0.452 z"
       style="fill:url(#_Linear13)"
       id="path48"
       inkscape:connector-curvature="0" /><path
       d="m 220.846,37.683 c -0.044,0 -0.089,-0.006 -0.134,-0.02 -0.278,-0.085 -0.423,-0.416 -0.324,-0.74 0.083,-0.271 0.313,-0.452 0.549,-0.452 0.045,0 0.09,0.006 0.134,0.02 0.279,0.086 0.424,0.419 0.325,0.741 -0.083,0.271 -0.313,0.451 -0.55,0.451 z"
       style="fill:url(#_Linear14)"
       id="path50"
       inkscape:connector-curvature="0" /><path
       d="m 227.316,40.898 c -0.045,0 -0.09,-0.007 -0.135,-0.02 -0.279,-0.085 -0.423,-0.417 -0.325,-0.74 0.084,-0.271 0.313,-0.451 0.549,-0.451 0.045,0 0.091,0.007 0.136,0.021 0.279,0.084 0.424,0.416 0.324,0.739 -0.083,0.272 -0.312,0.451 -0.549,0.451 z"
       style="fill:url(#_Linear15)"
       id="path52"
       inkscape:connector-curvature="0" /><path
       d="m 216.975,36.496 c -0.045,0 -0.09,-0.006 -0.134,-0.02 -0.277,-0.087 -0.423,-0.417 -0.325,-0.741 0.084,-0.271 0.314,-0.451 0.55,-0.451 0.017,0 0.034,10e-4 0.051,0.003 l 0,1.188 c -0.047,0.014 -0.094,0.021 -0.142,0.021 z"
       style="fill:url(#_Linear16)"
       id="path54"
       inkscape:connector-curvature="0" /><path
       d="m 217.117,36.475 0,-1.188 c 0.028,0.003 0.056,0.009 0.084,0.018 0.278,0.085 0.424,0.417 0.325,0.74 -0.067,0.217 -0.227,0.375 -0.409,0.43 z"
       style="fill:url(#_Linear17)"
       id="path56"
       inkscape:connector-curvature="0" /><path
       d="m 205.04,38.537 c -0.019,0 -0.037,-0.003 -0.056,-0.009 -0.111,-0.034 -0.17,-0.166 -0.129,-0.295 0.034,-0.108 0.126,-0.181 0.221,-0.181 0.017,0 0.035,0.002 0.052,0.008 0.112,0.035 0.169,0.167 0.13,0.296 -0.034,0.109 -0.124,0.181 -0.218,0.181 z"
       style="fill:url(#_Linear18)"
       id="path58"
       inkscape:connector-curvature="0" /><path
       d="m 222.701,37.188 c -0.018,0 -0.036,-0.003 -0.054,-0.008 -0.112,-0.034 -0.17,-0.167 -0.13,-0.295 0.033,-0.109 0.125,-0.181 0.22,-0.181 0.018,0 0.036,0.002 0.054,0.008 0.11,0.034 0.169,0.167 0.129,0.296 -0.033,0.108 -0.125,0.18 -0.219,0.18 z"
       style="fill:url(#_Linear19)"
       id="path60"
       inkscape:connector-curvature="0" /><path
       d="m 222.231,38.94 c -0.019,0 -0.037,-0.003 -0.056,-0.009 -0.111,-0.033 -0.169,-0.165 -0.128,-0.295 0.032,-0.108 0.125,-0.18 0.218,-0.18 0.018,0 0.037,0.002 0.054,0.008 0.112,0.033 0.17,0.167 0.13,0.296 -0.033,0.108 -0.124,0.18 -0.218,0.18 z"
       style="fill:url(#_Linear20)"
       id="path62"
       inkscape:connector-curvature="0" /><path
       d="m 207.611,37.556 c -0.018,0 -0.036,-0.002 -0.055,-0.008 -0.111,-0.033 -0.169,-0.165 -0.13,-0.296 0.034,-0.107 0.126,-0.179 0.221,-0.179 0.018,0 0.036,0.003 0.054,0.008 0.11,0.034 0.169,0.167 0.128,0.297 -0.033,0.107 -0.124,0.178 -0.218,0.178 z"
       style="fill:url(#_Linear21)"
       id="path64"
       inkscape:connector-curvature="0" /><path
       d="m 213.026,48.164 c -0.019,0 -0.037,-0.003 -0.055,-0.008 -0.111,-0.033 -0.168,-0.167 -0.129,-0.297 0.033,-0.108 0.124,-0.179 0.218,-0.179 0.019,0 0.037,0.002 0.055,0.008 0.112,0.033 0.17,0.165 0.131,0.295 -0.033,0.109 -0.125,0.181 -0.22,0.181 z"
       style="fill:url(#_Linear22)"
       id="path66"
       inkscape:connector-curvature="0" /><path
       d="m 217.893,44.377 c -0.018,0 -0.036,-0.003 -0.054,-0.008 -0.111,-0.035 -0.169,-0.167 -0.129,-0.295 0.033,-0.11 0.125,-0.182 0.22,-0.182 0.017,0 0.035,0.003 0.053,0.008 0.11,0.035 0.169,0.168 0.13,0.296 -0.035,0.109 -0.126,0.181 -0.22,0.181 z"
       style="fill:url(#_Linear23)"
       id="path68"
       inkscape:connector-curvature="0" /><path
       d="m 212.968,55.682 c -0.017,0 -0.036,-0.003 -0.053,-0.008 -0.111,-0.034 -0.169,-0.167 -0.13,-0.295 0.034,-0.109 0.126,-0.181 0.222,-0.181 0.017,0 0.034,0.002 0.051,0.007 0.112,0.035 0.17,0.168 0.131,0.296 -0.035,0.109 -0.126,0.181 -0.221,0.181 z"
       style="fill:url(#_Linear24)"
       id="path70"
       inkscape:connector-curvature="0" /><path
       d="m 213.383,52.682 c -0.018,0 -0.037,-0.003 -0.055,-0.009 -0.111,-0.034 -0.169,-0.165 -0.13,-0.296 0.034,-0.107 0.126,-0.179 0.219,-0.179 0.018,0 0.036,0.003 0.054,0.009 0.112,0.033 0.17,0.166 0.131,0.294 -0.034,0.109 -0.125,0.181 -0.219,0.181 z"
       style="fill:url(#_Linear25)"
       id="path72"
       inkscape:connector-curvature="0" /><path
       d="m 216.231,51.813 c -0.018,0 -0.037,-0.003 -0.055,-0.009 -0.111,-0.034 -0.17,-0.166 -0.13,-0.295 0.034,-0.11 0.125,-0.181 0.219,-0.181 0.018,0 0.036,0.002 0.055,0.008 0.11,0.035 0.168,0.167 0.128,0.295 -0.033,0.11 -0.123,0.182 -0.217,0.182 z"
       style="fill:url(#_Linear26)"
       id="path74"
       inkscape:connector-curvature="0" /><path
       d="m 216.711,55.856 c -0.019,0 -0.037,-0.003 -0.055,-0.009 -0.111,-0.033 -0.169,-0.165 -0.13,-0.296 0.034,-0.108 0.125,-0.179 0.219,-0.179 0.018,0 0.036,0.002 0.054,0.007 0.112,0.035 0.17,0.166 0.13,0.296 -0.033,0.109 -0.124,0.181 -0.218,0.181 z"
       style="fill:url(#_Linear27)"
       id="path76"
       inkscape:connector-curvature="0" /><path
       d="m 218.406,55.069 c -0.017,0 -0.036,-0.002 -0.053,-0.007 -0.112,-0.034 -0.17,-0.168 -0.13,-0.296 0.033,-0.109 0.125,-0.182 0.219,-0.182 0.018,0 0.037,0.003 0.054,0.008 0.111,0.036 0.17,0.168 0.13,0.297 -0.033,0.109 -0.126,0.18 -0.22,0.18 z"
       style="fill:url(#_Linear28)"
       id="path78"
       inkscape:connector-curvature="0" /><path
       d="m 218.681,52.873 c -0.017,0 -0.034,-0.002 -0.052,-0.007 -0.112,-0.035 -0.168,-0.169 -0.129,-0.299 0.033,-0.108 0.125,-0.179 0.219,-0.179 0.018,0 0.036,0.002 0.053,0.008 0.112,0.036 0.17,0.166 0.131,0.297 -0.034,0.109 -0.127,0.18 -0.222,0.18 z"
       style="fill:url(#_Linear29)"
       id="path80"
       inkscape:connector-curvature="0" /><path
       d="m 219.833,51.713 c -0.018,0 -0.036,-0.002 -0.054,-0.008 -0.111,-0.034 -0.169,-0.167 -0.128,-0.296 0.032,-0.109 0.124,-0.18 0.217,-0.18 0.019,0 0.038,0.003 0.055,0.008 0.112,0.033 0.17,0.166 0.13,0.295 -0.034,0.109 -0.125,0.181 -0.22,0.181 z"
       style="fill:url(#_Linear30)"
       id="path82"
       inkscape:connector-curvature="0" /><path
       d="m 219.767,49.771 c -0.018,0 -0.036,-0.003 -0.054,-0.008 -0.11,-0.035 -0.169,-0.169 -0.129,-0.295 0.033,-0.109 0.124,-0.181 0.218,-0.181 0.018,0 0.037,0.003 0.054,0.008 0.112,0.035 0.171,0.166 0.131,0.295 -0.033,0.108 -0.125,0.181 -0.22,0.181 z"
       style="fill:url(#_Linear31)"
       id="path84"
       inkscape:connector-curvature="0" /><path
       d="m 217.33,58.149 c -0.018,0 -0.036,-0.003 -0.054,-0.008 -0.111,-0.036 -0.169,-0.168 -0.13,-0.297 0.034,-0.109 0.126,-0.181 0.221,-0.181 0.017,0 0.035,0.003 0.052,0.008 0.112,0.035 0.17,0.168 0.13,0.295 -0.033,0.11 -0.125,0.183 -0.219,0.183 z"
       style="fill:url(#_Linear32)"
       id="path86"
       inkscape:connector-curvature="0" /><path
       d="m 217.57,59.81 c -0.018,0 -0.036,-0.002 -0.054,-0.007 -0.111,-0.034 -0.169,-0.167 -0.129,-0.296 0.033,-0.108 0.125,-0.18 0.219,-0.18 0.018,0 0.036,0.003 0.054,0.008 0.111,0.034 0.17,0.165 0.129,0.294 -0.033,0.11 -0.125,0.181 -0.219,0.181 z"
       style="fill:url(#_Linear33)"
       id="path88"
       inkscape:connector-curvature="0" /><path
       d="m 213.899,36.691 c -0.018,0 -0.037,-0.003 -0.055,-0.008 -0.112,-0.033 -0.17,-0.166 -0.13,-0.296 0.033,-0.107 0.125,-0.179 0.219,-0.179 0.018,0 0.036,0.002 0.054,0.008 0.112,0.033 0.171,0.166 0.129,0.296 -0.033,0.108 -0.123,0.179 -0.217,0.179 z"
       style="fill:url(#_Linear34)"
       id="path90"
       inkscape:connector-curvature="0" /></g><g
     id="g92"
     transform="translate(6.7332458,-4.9466307e-4)"><path
       d="m 137.501,68.135 0.002,-0.004 c 0.063,-0.098 1.371,-2.134 3.506,-5.125 3.2,-4.485 8.277,-11.122 13.745,-16.546 2.73,-2.711 5.56,-5.114 8.23,-6.785 1.334,-0.837 2.625,-1.49 3.824,-1.922 1.201,-0.434 2.302,-0.645 3.277,-0.644 0.769,10e-4 1.461,0.125 2.124,0.382 0.498,0.194 0.982,0.465 1.469,0.843 0.729,0.565 1.467,1.379 2.181,2.531 0.713,1.149 1.396,2.634 2.003,4.491 l 2.197,-0.719 -2.217,0.654 1.26,-0.372 -1.263,0.365 0.003,0.007 1.26,-0.372 -1.263,0.365 0.005,0.016 c 0.053,0.184 0.491,1.872 0.489,4.107 0,1.446 -0.181,3.114 -0.727,4.768 -0.409,1.243 -1.018,2.479 -1.918,3.652 -0.676,0.879 -1.517,1.726 -2.583,2.515 -1.599,1.181 -3.713,2.235 -6.541,3.002 -2.827,0.766 -6.367,1.237 -10.762,1.237 -0.19,0 -0.382,-0.001 -0.576,-0.003 l -0.041,4.624 c 0.207,0.002 0.412,0.003 0.617,0.003 5.598,-0.001 10.101,-0.707 13.74,-1.934 2.727,-0.921 4.967,-2.139 6.771,-3.562 2.713,-2.131 4.413,-4.717 5.385,-7.247 0.978,-2.533 1.258,-5.003 1.259,-7.055 -0.003,-3.108 -0.641,-5.282 -0.68,-5.424 l -0.01,-0.033 -0.01,-0.032 c -0.621,-1.897 -1.336,-3.544 -2.155,-4.966 -0.615,-1.066 -1.289,-2.006 -2.027,-2.819 -1.106,-1.219 -2.366,-2.151 -3.731,-2.76 -1.363,-0.611 -2.817,-0.89 -4.259,-0.888 -1.098,0 -2.192,0.156 -3.272,0.432 -2.026,0.519 -4.01,1.449 -5.967,2.643 -3.42,2.093 -6.773,5.01 -9.938,8.209 -4.742,4.799 -9.044,10.246 -12.182,14.508 -3.137,4.262 -5.101,7.337 -5.122,7.368 l 3.897,2.49 z"
       style="fill:#914a3f;fill-rule:nonzero"
       id="path94"
       inkscape:connector-curvature="0" /><path
       d="m 180.563,65.645 c -0.016,-0.025 -1.318,-2.061 -3.488,-5.11 -3.258,-4.575 -8.456,-11.424 -14.269,-17.221 -2.911,-2.899 -5.972,-5.541 -9.094,-7.511 -1.562,-0.985 -3.142,-1.803 -4.746,-2.386 -1.602,-0.582 -3.236,-0.931 -4.884,-0.932 -1.282,-10e-4 -2.572,0.217 -3.802,0.697 -0.921,0.358 -1.805,0.861 -2.627,1.499 -1.234,0.958 -2.325,2.214 -3.275,3.748 -0.952,1.537 -1.769,3.355 -2.468,5.489 l -0.01,0.032 -0.01,0.033 c -0.039,0.142 -0.677,2.316 -0.68,5.424 0.001,1.824 0.223,3.977 0.958,6.214 0.551,1.676 1.396,3.398 2.644,5.022 0.934,1.218 2.093,2.377 3.502,3.417 2.113,1.563 4.779,2.854 8.081,3.747 3.304,0.894 7.246,1.398 11.97,1.398 0.205,0 0.411,-0.001 0.617,-0.003 l -0.04,-4.624 c -0.195,0.002 -0.387,0.003 -0.577,0.003 -5.21,0 -9.215,-0.662 -12.261,-1.691 -2.286,-0.773 -4.033,-1.746 -5.389,-2.813 -2.028,-1.604 -3.209,-3.422 -3.933,-5.281 -0.719,-1.856 -0.948,-3.762 -0.947,-5.389 -0.001,-1.23 0.129,-2.295 0.258,-3.034 0.064,-0.37 0.127,-0.658 0.172,-0.845 0.022,-0.093 0.04,-0.161 0.051,-0.202 l 0.011,-0.039 0.001,-0.003 -1.26,-0.364 1.257,0.371 0.003,-0.007 -1.26,-0.364 1.257,0.371 -2.217,-0.654 2.197,0.719 c 0.54,-1.65 1.139,-3.007 1.767,-4.095 0.47,-0.817 0.956,-1.483 1.443,-2.018 0.732,-0.804 1.457,-1.317 2.195,-1.648 0.739,-0.329 1.507,-0.485 2.372,-0.486 0.656,0 1.367,0.094 2.128,0.288 1.427,0.363 3.028,1.085 4.7,2.109 2.931,1.787 6.067,4.481 9.061,7.513 4.497,4.549 8.695,9.851 11.746,13.999 1.527,2.075 2.769,3.862 3.627,5.126 0.429,0.632 0.762,1.134 0.987,1.475 0.112,0.171 0.197,0.302 0.253,0.389 0.028,0.044 0.049,0.076 0.063,0.098 l 0.015,0.023 0.004,0.006 3.897,-2.49 z"
       style="fill:#914a3f;fill-rule:nonzero"
       id="path96"
       inkscape:connector-curvature="0" /><path
       d="m 143.959,34.794 c 0,0.324 -0.262,0.585 -0.585,0.585 l -1.025,0 c -0.323,0 -0.585,-0.261 -0.585,-0.585 0,-0.323 0.262,-0.585 0.585,-0.585 l 1.025,0 c 0.323,0 0.585,0.262 0.585,0.585 z"
       style="fill:#eae0c2;fill-rule:nonzero"
       id="path98"
       inkscape:connector-curvature="0" /><path
       d="m 146.289,33.617 c 0.304,-0.111 0.641,0.045 0.752,0.349 l 0.352,0.961 c 0.111,0.304 -0.044,0.64 -0.348,0.752 -0.304,0.111 -0.64,-0.045 -0.751,-0.348 l -0.353,-0.963 c -0.111,-0.303 0.045,-0.64 0.348,-0.751 z"
       style="fill:#eae0c2;fill-rule:nonzero"
       id="path100"
       inkscape:connector-curvature="0" /><path
       d="m 160.073,37.594 c 0.303,-0.112 0.64,0.044 0.751,0.348 l 0.352,0.962 c 0.111,0.303 -0.044,0.639 -0.348,0.751 -0.303,0.111 -0.64,-0.045 -0.751,-0.348 l -0.353,-0.962 c -0.111,-0.304 0.045,-0.641 0.349,-0.751 z"
       style="fill:#eae0c2;fill-rule:nonzero"
       id="path102"
       inkscape:connector-curvature="0" /><path
       d="m 164.146,47.522 c 0.304,-0.111 0.641,0.045 0.752,0.349 l 0.352,0.961 c 0.111,0.304 -0.045,0.641 -0.348,0.752 -0.304,0.111 -0.64,-0.045 -0.752,-0.349 l -0.352,-0.962 c -0.111,-0.304 0.045,-0.64 0.348,-0.751 z"
       style="fill:#eae0c2;fill-rule:nonzero"
       id="path104"
       inkscape:connector-curvature="0" /><path
       d="m 169.634,63.494 c 0.252,0.203 0.292,0.572 0.089,0.824 l -0.643,0.797 c -0.202,0.253 -0.571,0.292 -0.823,0.089 -0.252,-0.202 -0.292,-0.571 -0.089,-0.824 l 0.643,-0.797 c 0.203,-0.252 0.572,-0.291 0.823,-0.089 z"
       style="fill:#eae0c2;fill-rule:nonzero"
       id="path106"
       inkscape:connector-curvature="0" /><path
       d="m 157.639,66.051 c 0.304,-0.111 0.64,0.045 0.752,0.348 l 0.352,0.962 c 0.111,0.304 -0.045,0.639 -0.349,0.751 -0.303,0.111 -0.64,-0.044 -0.751,-0.348 l -0.352,-0.962 c -0.111,-0.304 0.045,-0.64 0.348,-0.751 z"
       style="fill:#eae0c2;fill-rule:nonzero"
       id="path108"
       inkscape:connector-curvature="0" /><path
       d="m 171.454,55.293 c -0.067,0.315 -0.378,0.519 -0.694,0.452 l -1.003,-0.211 c -0.316,-0.067 -0.519,-0.378 -0.452,-0.694 0.067,-0.317 0.377,-0.519 0.694,-0.453 l 1.002,0.212 c 0.317,0.067 0.519,0.377 0.453,0.694 z"
       style="fill:#eae0c2;fill-rule:nonzero"
       id="path110"
       inkscape:connector-curvature="0" /><path
       d="m 163.818,66.514 c -0.067,0.317 -0.378,0.519 -0.694,0.453 l -1.003,-0.212 c -0.316,-0.067 -0.518,-0.377 -0.452,-0.694 0.067,-0.316 0.378,-0.519 0.694,-0.452 l 1.002,0.211 c 0.317,0.067 0.519,0.378 0.453,0.694 z"
       style="fill:#eae0c2;fill-rule:nonzero"
       id="path112"
       inkscape:connector-curvature="0" /><path
       d="m 167.586,50.742 c 0.304,-0.111 0.64,0.044 0.751,0.349 l 0.353,0.961 c 0.111,0.305 -0.045,0.64 -0.349,0.752 -0.303,0.111 -0.64,-0.045 -0.751,-0.349 l -0.352,-0.962 c -0.111,-0.303 0.044,-0.64 0.348,-0.751 z"
       style="fill:#eae0c2;fill-rule:nonzero"
       id="path114"
       inkscape:connector-curvature="0" /><path
       d="m 174.54,58.578 c 0.266,0.183 0.333,0.548 0.149,0.814 l -0.581,0.843 c -0.184,0.267 -0.548,0.334 -0.814,0.15 -0.267,-0.183 -0.334,-0.548 -0.15,-0.814 l 0.581,-0.843 c 0.184,-0.266 0.548,-0.334 0.815,-0.15 z"
       style="fill:#eae0c2;fill-rule:nonzero"
       id="path116"
       inkscape:connector-curvature="0" /><path
       d="m 152.478,45.99 c 0.201,0.253 0.16,0.622 -0.093,0.823 l -0.802,0.638 c -0.252,0.201 -0.62,0.16 -0.822,-0.093 -0.202,-0.252 -0.16,-0.621 0.093,-0.823 l 0.801,-0.638 c 0.253,-0.201 0.622,-0.159 0.823,0.093 z"
       style="fill:#eae0c2;fill-rule:nonzero"
       id="path118"
       inkscape:connector-curvature="0" /><path
       d="m 135.824,38.325 c 0.304,-0.111 0.64,0.045 0.752,0.349 l 0.352,0.962 c 0.11,0.303 -0.045,0.64 -0.348,0.751 -0.304,0.111 -0.64,-0.045 -0.752,-0.349 l -0.352,-0.961 c -0.111,-0.305 0.045,-0.64 0.348,-0.752 z"
       style="fill:#eae0c2;fill-rule:nonzero"
       id="path120"
       inkscape:connector-curvature="0" /><path
       d="m 134.507,51.791 c 0.304,-0.111 0.639,0.045 0.751,0.349 l 0.352,0.962 c 0.111,0.303 -0.044,0.639 -0.348,0.751 -0.304,0.111 -0.64,-0.045 -0.751,-0.348 l -0.352,-0.963 c -0.111,-0.303 0.044,-0.64 0.348,-0.751 z"
       style="fill:#eae0c2;fill-rule:nonzero"
       id="path122"
       inkscape:connector-curvature="0" /><path
       d="m 139.145,38.046 c -0.304,-0.111 -0.461,-0.446 -0.351,-0.751 l 0.351,-0.962 c 0.11,-0.304 0.446,-0.461 0.75,-0.35 0.304,0.11 0.461,0.446 0.35,0.75 l -0.35,0.963 c -0.111,0.304 -0.446,0.461 -0.75,0.35 z"
       style="fill:#eae0c2;fill-rule:nonzero"
       id="path124"
       inkscape:connector-curvature="0" /><path
       d="m 144.316,54.048 c -0.304,-0.11 -0.461,-0.446 -0.35,-0.75 l 0.35,-0.963 c 0.111,-0.303 0.446,-0.46 0.75,-0.35 0.304,0.111 0.461,0.447 0.35,0.751 l -0.35,0.962 c -0.11,0.304 -0.446,0.461 -0.75,0.35 z"
       style="fill:#eae0c2;fill-rule:nonzero"
       id="path126"
       inkscape:connector-curvature="0" /><path
       d="m 136.74,66.355 c -0.308,-0.1 -0.476,-0.43 -0.375,-0.738 l 0.318,-0.974 c 0.099,-0.307 0.43,-0.475 0.738,-0.375 0.307,0.101 0.475,0.431 0.375,0.739 l -0.318,0.974 c -0.101,0.307 -0.431,0.475 -0.738,0.374 z"
       style="fill:#eae0c2;fill-rule:nonzero"
       id="path128"
       inkscape:connector-curvature="0" /><path
       d="m 140.362,57.957 c 0.126,-0.297 0.469,-0.437 0.768,-0.311 l 0.943,0.398 c 0.298,0.125 0.438,0.469 0.312,0.767 -0.126,0.298 -0.469,0.438 -0.767,0.312 l -0.944,-0.399 c -0.298,-0.126 -0.437,-0.469 -0.312,-0.767 z"
       style="fill:#eae0c2;fill-rule:nonzero"
       id="path130"
       inkscape:connector-curvature="0" /><path
       d="m 133.514,48.819 c -0.315,0.07 -0.628,-0.128 -0.699,-0.443 l -0.224,-1 c -0.07,-0.316 0.128,-0.629 0.443,-0.7 0.316,-0.07 0.629,0.128 0.7,0.444 l 0.223,0.999 c 0.071,0.316 -0.127,0.629 -0.443,0.7 z"
       style="fill:#eae0c2;fill-rule:nonzero"
       id="path132"
       inkscape:connector-curvature="0" /><path
       d="m 135.662,59.065 c -0.316,0.07 -0.629,-0.128 -0.7,-0.444 l -0.224,-0.999 c -0.071,-0.316 0.128,-0.629 0.443,-0.7 0.316,-0.07 0.629,0.128 0.699,0.444 l 0.225,0.999 c 0.07,0.316 -0.128,0.629 -0.443,0.7 z"
       style="fill:#eae0c2;fill-rule:nonzero"
       id="path134"
       inkscape:connector-curvature="0" /><path
       d="m 134.933,44.582 c -0.303,-0.11 -0.46,-0.447 -0.35,-0.75 l 0.35,-0.963 c 0.111,-0.304 0.446,-0.461 0.751,-0.35 0.303,0.11 0.46,0.446 0.35,0.75 l -0.35,0.963 c -0.111,0.304 -0.447,0.46 -0.751,0.35 z"
       style="fill:#eae0c2;fill-rule:nonzero"
       id="path136"
       inkscape:connector-curvature="0" /><path
       d="m 151.383,38.056 c -0.27,0.177 -0.633,0.101 -0.811,-0.168 l -0.562,-0.857 c -0.178,-0.27 -0.102,-0.633 0.168,-0.811 0.27,-0.177 0.633,-0.102 0.811,0.168 l 0.562,0.857 c 0.178,0.27 0.102,0.633 -0.168,0.811 z"
       style="fill:#eae0c2;fill-rule:nonzero"
       id="path138"
       inkscape:connector-curvature="0" /><path
       d="m 155.555,39.69 c -0.27,0.177 -0.634,0.102 -0.811,-0.168 l -0.563,-0.856 c -0.177,-0.271 -0.102,-0.633 0.168,-0.811 0.27,-0.178 0.633,-0.102 0.811,0.168 l 0.562,0.856 c 0.178,0.27 0.103,0.633 -0.167,0.811 z"
       style="fill:#eae0c2;fill-rule:nonzero"
       id="path140"
       inkscape:connector-curvature="0" /><path
       d="m 171.359,35.387 c -0.188,0.263 -0.554,0.323 -0.817,0.134 l -0.833,-0.597 c -0.263,-0.188 -0.322,-0.554 -0.134,-0.817 0.188,-0.262 0.554,-0.323 0.817,-0.134 l 0.833,0.597 c 0.262,0.189 0.322,0.554 0.134,0.817 z"
       style="fill:#eae0c2;fill-rule:nonzero"
       id="path142"
       inkscape:connector-curvature="0" /><path
       d="m 165.243,34.898 c 0.308,0.1 0.477,0.431 0.377,0.738 l -0.316,0.974 c -0.1,0.308 -0.43,0.476 -0.738,0.377 -0.307,-0.1 -0.476,-0.43 -0.376,-0.738 l 0.316,-0.974 c 0.1,-0.308 0.43,-0.476 0.737,-0.377 z"
       style="fill:#eae0c2;fill-rule:nonzero"
       id="path144"
       inkscape:connector-curvature="0" /><path
       d="m 180.514,51.319 c -0.283,0.157 -0.639,0.056 -0.797,-0.227 l -0.497,-0.896 c -0.157,-0.282 -0.055,-0.639 0.227,-0.795 0.283,-0.158 0.64,-0.056 0.796,0.227 l 0.498,0.895 c 0.157,0.283 0.055,0.639 -0.227,0.796 z"
       style="fill:#eae0c2;fill-rule:nonzero"
       id="path146"
       inkscape:connector-curvature="0" /><path
       d="m 178.841,40.629 c 0.307,0.1 0.476,0.43 0.376,0.738 l -0.316,0.974 c -0.099,0.308 -0.43,0.476 -0.738,0.377 -0.307,-0.1 -0.476,-0.43 -0.376,-0.738 l 0.317,-0.974 c 0.099,-0.308 0.429,-0.476 0.737,-0.377 z"
       style="fill:#eae0c2;fill-rule:nonzero"
       id="path148"
       inkscape:connector-curvature="0" /><path
       d="m 175.788,35.604 c 0.315,-0.072 0.629,0.127 0.7,0.443 l 0.224,0.999 c 0.072,0.316 -0.127,0.629 -0.442,0.699 -0.316,0.071 -0.629,-0.127 -0.7,-0.442 l -0.225,-1 c -0.07,-0.315 0.127,-0.628 0.443,-0.699 z"
       style="fill:#eae0c2;fill-rule:nonzero"
       id="path150"
       inkscape:connector-curvature="0" /><path
       d="m 180.252,44.532 c 0.316,-0.071 0.629,0.128 0.7,0.443 l 0.225,0.999 c 0.071,0.316 -0.127,0.629 -0.443,0.7 -0.315,0.071 -0.629,-0.127 -0.7,-0.443 l -0.225,-0.999 c -0.07,-0.316 0.128,-0.629 0.443,-0.7 z"
       style="fill:#eae0c2;fill-rule:nonzero"
       id="path152"
       inkscape:connector-curvature="0" /><path
       d="m 180.526,56.003 c 0.011,0.324 -0.242,0.595 -0.565,0.606 l -1.024,0.036 c -0.323,0.011 -0.594,-0.242 -0.605,-0.566 -0.011,-0.322 0.242,-0.594 0.565,-0.604 l 1.024,-0.036 c 0.323,-0.011 0.594,0.242 0.605,0.564 z"
       style="fill:#eae0c2;fill-rule:nonzero"
       id="path154"
       inkscape:connector-curvature="0" /><path
       d="m 178.184,63.907 c 0.012,0.324 -0.242,0.595 -0.565,0.606 l -1.024,0.035 c -0.323,0.011 -0.594,-0.241 -0.605,-0.565 -0.011,-0.323 0.242,-0.594 0.565,-0.605 l 1.024,-0.035 c 0.323,-0.011 0.594,0.241 0.605,0.564 z"
       style="fill:#eae0c2;fill-rule:nonzero"
       id="path156"
       inkscape:connector-curvature="0" /><path
       d="m 155.003,44.077 c -0.298,-0.124 -0.44,-0.467 -0.316,-0.765 l 0.394,-0.946 c 0.124,-0.299 0.467,-0.44 0.765,-0.316 0.299,0.124 0.441,0.467 0.316,0.766 l -0.394,0.946 c -0.123,0.298 -0.466,0.44 -0.765,0.315 z"
       style="fill:#eae0c2;fill-rule:nonzero"
       id="path158"
       inkscape:connector-curvature="0" /><path
       d="m 148.075,51.835 c -0.298,-0.124 -0.44,-0.467 -0.316,-0.766 l 0.394,-0.946 c 0.124,-0.298 0.467,-0.439 0.765,-0.315 0.299,0.124 0.44,0.467 0.316,0.765 l -0.394,0.947 c -0.124,0.298 -0.466,0.439 -0.765,0.315 z"
       style="fill:#eae0c2;fill-rule:nonzero"
       id="path160"
       inkscape:connector-curvature="0" /><path
       d="m 153.15,67.155 c -0.299,-0.125 -0.441,-0.467 -0.316,-0.766 l 0.393,-0.946 c 0.124,-0.298 0.467,-0.44 0.766,-0.315 0.298,0.124 0.439,0.467 0.315,0.765 l -0.393,0.946 c -0.124,0.298 -0.467,0.439 -0.765,0.316 z"
       style="fill:#eae0c2;fill-rule:nonzero"
       id="path162"
       inkscape:connector-curvature="0" /><path
       d="m 149.433,67.325 c -0.32,0.046 -0.617,-0.176 -0.663,-0.496 l -0.145,-1.014 c -0.046,-0.32 0.177,-0.617 0.497,-0.662 0.32,-0.047 0.616,0.175 0.662,0.496 l 0.145,1.014 c 0.046,0.32 -0.176,0.617 -0.496,0.662 z"
       style="fill:#eae0c2;fill-rule:nonzero"
       id="path164"
       inkscape:connector-curvature="0" /><path
       d="m 143.721,64.509 c 0.066,-0.317 0.377,-0.52 0.693,-0.454 l 1.003,0.208 c 0.317,0.066 0.52,0.376 0.454,0.692 -0.065,0.317 -0.375,0.521 -0.692,0.455 l -1.003,-0.209 c -0.317,-0.066 -0.52,-0.376 -0.455,-0.692 z"
       style="fill:#eae0c2;fill-rule:nonzero"
       id="path166"
       inkscape:connector-curvature="0" /><path
       d="m 139.738,62.663 c -0.299,-0.125 -0.44,-0.468 -0.316,-0.766 l 0.394,-0.946 c 0.124,-0.299 0.466,-0.44 0.765,-0.316 0.298,0.124 0.44,0.467 0.316,0.766 l -0.394,0.945 c -0.124,0.299 -0.467,0.441 -0.765,0.317 z"
       style="fill:#eae0c2;fill-rule:nonzero"
       id="path168"
       inkscape:connector-curvature="0" /><path
       d="m 160.31,44.501 c 0.152,-0.285 0.507,-0.395 0.792,-0.243 l 0.905,0.481 c 0.286,0.151 0.394,0.505 0.243,0.791 -0.152,0.286 -0.506,0.394 -0.792,0.243 l -0.905,-0.48 c -0.285,-0.152 -0.394,-0.506 -0.243,-0.792 z"
       style="fill:#eae0c2;fill-rule:nonzero"
       id="path170"
       inkscape:connector-curvature="0" /></g><g
     id="g172"><path
       d="M 74.616,70.269 C 72.953,52.975 60.632,46.324 60.632,46.324 l -5.607,-0.323 0,-0.01 -0.119,0.005 -0.118,-0.005 0,0.01 -6.193,0.323 c 0,0 -11.736,6.651 -13.399,23.945 0,0 3.532,4.061 19.592,5.084 l 0,0.016 c 0.041,-0.002 0.078,-0.005 0.118,-0.008 0.041,0.003 0.078,0.006 0.119,0.008 l 0,-0.016 C 71.086,74.33 74.616,70.269 74.616,70.269 Z"
       style="fill:#f9a436;fill-rule:nonzero"
       id="path174"
       inkscape:connector-curvature="0" /><path
       d="M 68.257,63.563 C 67.108,50.587 59.806,45.597 59.806,45.597 l -5.088,-0.242 0,-0.008 -0.082,0.004 -0.081,-0.004 0,0.008 -5.088,0.242 c 0,0 -7.303,4.99 -8.451,17.966 0,0 2.441,3.047 13.539,3.814 l 0,0.013 c 0.027,-0.002 0.054,-0.004 0.081,-0.007 0.028,0.003 0.055,0.005 0.082,0.007 l 0,-0.013 C 65.817,66.61 68.257,63.563 68.257,63.563 Z"
       style="fill:#ebeae9;fill-rule:nonzero"
       id="path176"
       inkscape:connector-curvature="0" /><clipPath
       id="_clip35"><path
         d="M 74.616,70.378 C 72.953,53.45 61.649,46.94 61.649,46.94 l -6.624,-0.315 0,-0.011 -0.119,0.005 -0.118,-0.005 0,0.011 -7.119,0.315 c 0,0 -10.81,6.51 -12.473,23.438 0,0 3.532,3.974 19.592,4.975 l 0,0.016 c 0.041,-0.002 0.078,-0.005 0.118,-0.008 0.041,0.003 0.078,0.006 0.119,0.008 l 0,-0.016 c 16.061,-1.001 19.591,-4.975 19.591,-4.975 z"
         id="path179"
         inkscape:connector-curvature="0" /></clipPath><g
       clip-path="url(#_clip35)"
       id="g181"><path
         d="m 78.77,66.925 c -15.789,7.639 -31.939,7.641 -47.727,0 0.118,-0.263 0.178,-0.394 0.296,-0.656 15.593,7.544 31.541,7.544 47.134,0 0.119,0.262 0.178,0.393 0.297,0.656 z"
         style="fill:#161a1e;fill-rule:nonzero"
         id="path183"
         inkscape:connector-curvature="0" /></g><g
       id="g185"><clipPath
         id="_clip36"><rect
           x="54.515999"
           y="45.951"
           width="20.468"
           height="33.129002"
           id="rect188" /></clipPath><g
         clip-path="url(#_clip36)"
         id="g190"><path
           d="m 55.025,75.369 c -0.041,-0.002 -0.078,-0.005 -0.119,-0.008 -0.04,0.003 -0.077,0.006 -0.118,0.008 l 0,-0.016 c -0.092,-0.006 -0.182,-0.012 -0.272,-0.018 l 0,-2.682 c 0.13,10e-4 0.259,0.002 0.389,0.002 6.525,0 13.052,-1.276 19.528,-3.827 -0.033,-0.247 -0.07,-0.492 -0.108,-0.734 -6.44,2.556 -12.929,3.833 -19.419,3.833 -0.13,0 -0.26,-0.001 -0.39,-0.001 l 0,-4.551 c 0.013,0.001 0.026,0.001 0.039,0.002 l 0,0.013 c 0.027,-0.002 0.054,-0.004 0.081,-0.007 0.028,0.003 0.055,0.005 0.082,0.007 l 0,-0.013 C 65.817,66.61 68.257,63.563 68.257,63.563 67.37,53.548 62.818,48.29 60.787,46.412 c 1.425,0.836 12.276,7.704 13.829,23.857 0,0 -3.53,4.061 -19.591,5.084 l 0,0.016 z"
           style="fill:#f7942e;fill-rule:nonzero"
           id="path192"
           inkscape:connector-curvature="0" /><path
           d="m 54.718,67.39 c -0.027,-0.002 -0.054,-0.004 -0.082,-0.007 -0.027,0.003 -0.054,0.005 -0.081,0.007 l 0,-0.013 c -0.013,-10e-4 -0.026,-10e-4 -0.039,-0.002 l 0,-20.248 6.12,0 0,-0.801 c 0.014,0.008 0.066,0.036 0.151,0.086 2.031,1.878 6.583,7.136 7.47,17.151 0,0 -2.44,3.047 -13.539,3.814 l 0,0.013 z"
           style="fill:#e9cfac;fill-rule:nonzero"
           id="path194"
           inkscape:connector-curvature="0" /><path
           d="m 54.905,72.655 c -0.13,0 -0.259,-0.001 -0.389,-0.002 l 0,-0.727 c 0.13,0 0.26,0.001 0.39,0.001 6.49,0 12.979,-1.277 19.419,-3.833 0.038,0.242 0.075,0.487 0.108,0.734 -6.476,2.551 -13.003,3.827 -19.528,3.827 z"
           style="fill:#171513;fill-rule:nonzero"
           id="path196"
           inkscape:connector-curvature="0" /></g></g><path
       d="m 60.256,32.618 0,-6.298 -0.814,0 0,5.868 c -0.421,-0.161 -0.877,-0.253 -1.355,-0.253 -1.551,0 -2.883,0.931 -3.473,2.263 -0.59,-1.332 -1.922,-2.263 -3.472,-2.263 -0.75,0 -1.447,0.22 -2.036,0.595 l 0,-6.21 -0.813,0 0,6.907 c -0.589,0.669 -0.949,1.544 -0.949,2.506 0,1.115 0.483,2.114 1.247,2.809 l 0,8.585 12.045,0 0,-8.585 c 0.766,-0.694 1.249,-1.694 1.249,-2.809 0,-1.29 -0.645,-2.429 -1.629,-3.115 z"
       style="fill:#be202e;fill-rule:nonzero"
       id="path198"
       inkscape:connector-curvature="0" /><path
       d="m 56.344,37.609 c 0,0.161 -0.13,0.292 -0.291,0.292 l -2.509,0 c -0.161,0 -0.292,-0.131 -0.292,-0.292 0,-0.161 0.131,-0.292 0.292,-0.292 l 2.509,0 c 0.161,0 0.291,0.131 0.291,0.292 z"
       style="fill:#161a1e;fill-rule:nonzero"
       id="path200"
       inkscape:connector-curvature="0" /><path
       d="m 56.344,39.418 c 0,0.161 -0.13,0.291 -0.291,0.291 l -2.509,0 c -0.161,0 -0.292,-0.13 -0.292,-0.291 0,-0.162 0.131,-0.292 0.292,-0.292 l 2.509,0 c 0.161,0 0.291,0.13 0.291,0.292 z"
       style="fill:#161a1e;fill-rule:nonzero"
       id="path202"
       inkscape:connector-curvature="0" /><path
       d="m 56.344,41.226 c 0,0.161 -0.13,0.292 -0.291,0.292 l -2.509,0 c -0.161,0 -0.292,-0.131 -0.292,-0.292 0,-0.161 0.131,-0.292 0.292,-0.292 l 2.509,0 c 0.161,0 0.291,0.131 0.291,0.292 z"
       style="fill:#161a1e;fill-rule:nonzero"
       id="path204"
       inkscape:connector-curvature="0" /><path
       d="m 56.344,43.035 c 0,0.161 -0.13,0.291 -0.291,0.291 l -2.509,0 c -0.161,0 -0.292,-0.13 -0.292,-0.291 0,-0.161 0.131,-0.292 0.292,-0.292 l 2.509,0 c 0.161,0 0.291,0.131 0.291,0.292 z"
       style="fill:#161a1e;fill-rule:nonzero"
       id="path206"
       inkscape:connector-curvature="0" /><path
       d="m 56.344,44.843 c 0,0.161 -0.13,0.292 -0.291,0.292 l -2.509,0 c -0.161,0 -0.292,-0.131 -0.292,-0.292 0,-0.161 0.131,-0.292 0.292,-0.292 l 2.509,0 c 0.161,0 0.291,0.131 0.291,0.292 z"
       style="fill:#161a1e;fill-rule:nonzero"
       id="path208"
       inkscape:connector-curvature="0" /><g
       id="g210"><clipPath
         id="_clip37"><path
           d="m 60.256,32.618 0,-6.298 -0.814,0 0,5.868 c -0.421,-0.161 -0.877,-0.253 -1.355,-0.253 -1.551,0 -2.883,0.931 -3.473,2.263 -0.59,-1.332 -1.922,-2.263 -3.472,-2.263 -0.75,0 -1.447,0.22 -2.036,0.595 l 0,-6.21 -0.813,0 0,6.907 c -0.589,0.669 -0.949,1.544 -0.949,2.506 0,1.115 0.483,2.114 1.247,2.809 l 0,8.585 12.045,0 0,-8.585 c 0.766,-0.694 1.249,-1.694 1.249,-2.809 0,-1.29 -0.645,-2.429 -1.629,-3.115 z"
           id="path213"
           inkscape:connector-curvature="0" /></clipPath><g
         clip-path="url(#_clip37)"
         id="g215"><path
           d="m 60.636,47.127 -6.12,0 0,-1.992 1.537,0 c 0.161,0 0.291,-0.131 0.291,-0.292 0,-0.161 -0.13,-0.292 -0.291,-0.292 l -1.537,0 0,-1.225 1.537,0 c 0.161,0 0.291,-0.13 0.291,-0.291 0,-0.161 -0.13,-0.292 -0.291,-0.292 l -1.537,0 0,-1.225 1.537,0 c 0.161,0 0.291,-0.131 0.291,-0.292 0,-0.161 -0.13,-0.292 -0.291,-0.292 l -1.537,0 0,-1.225 1.537,0 c 0.161,0 0.291,-0.13 0.291,-0.291 0,-0.162 -0.13,-0.292 -0.291,-0.292 l -1.537,0 0,-1.225 1.537,0 c 0.161,0 0.291,-0.131 0.291,-0.292 0,-0.161 -0.13,-0.292 -0.291,-0.292 l -1.537,0 0,-3.322 c 0.035,0.066 0.067,0.134 0.098,0.203 0.59,-1.332 1.922,-2.263 3.473,-2.263 0.478,0 0.934,0.092 1.355,0.253 l 0,-5.868 0.814,0 0,6.298 c 0.984,0.686 1.629,1.825 1.629,3.115 0,1.115 -0.483,2.115 -1.249,2.809 l 0,8.585 z"
           style="fill:#ad1e26;fill-rule:nonzero"
           id="path217"
           inkscape:connector-curvature="0" /><path
           d="m 56.053,37.901 -1.537,0 0,-0.584 1.537,0 c 0.161,0 0.291,0.131 0.291,0.292 0,0.161 -0.13,0.292 -0.291,0.292 z"
           style="fill:#140f14;fill-rule:nonzero"
           id="path219"
           inkscape:connector-curvature="0" /><path
           d="m 56.053,39.709 -1.537,0 0,-0.583 1.537,0 c 0.161,0 0.291,0.13 0.291,0.292 0,0.161 -0.13,0.291 -0.291,0.291 z"
           style="fill:#140f14;fill-rule:nonzero"
           id="path221"
           inkscape:connector-curvature="0" /><path
           d="m 56.053,41.518 -1.537,0 0,-0.584 1.537,0 c 0.161,0 0.291,0.131 0.291,0.292 0,0.161 -0.13,0.292 -0.291,0.292 z"
           style="fill:#140f14;fill-rule:nonzero"
           id="path223"
           inkscape:connector-curvature="0" /><path
           d="m 56.053,43.326 -1.537,0 0,-0.583 1.537,0 c 0.161,0 0.291,0.131 0.291,0.292 0,0.161 -0.13,0.291 -0.291,0.291 z"
           style="fill:#140f14;fill-rule:nonzero"
           id="path225"
           inkscape:connector-curvature="0" /><path
           d="m 56.053,45.135 -1.537,0 0,-0.584 1.537,0 c 0.161,0 0.291,0.131 0.291,0.292 0,0.161 -0.13,0.292 -0.291,0.292 z"
           style="fill:#140f14;fill-rule:nonzero"
           id="path227"
           inkscape:connector-curvature="0" /></g></g></g><g
     id="g229"
     transform="translate(5.6023712,-2.0556299e-4)"><path
       d="m 115.157,46.122 -11.398,0.122 -11.398,-0.122 -4.305,25.455 c 0,0 7.598,4.939 14.437,0.507 l 0,-13.17 c 0,0 0.578,-0.405 1.266,-0.432 0.688,0.027 1.266,0.432 1.266,0.432 l 0,13.17 c 6.839,4.432 14.437,-0.507 14.437,-0.507 l -4.305,-25.455 z"
       style="fill:#7aaa63;fill-rule:nonzero"
       id="path231"
       inkscape:connector-curvature="0" /><path
       d="m 110.282,27.759 0,5.945 c -1.444,-0.737 -3.826,-1.219 -6.523,-1.219 -2.697,0 -5.079,0.482 -6.523,1.219 l 0,-5.945 -1.772,0 0,23.112 1.772,0 0,-13.866 c 1.444,0.737 3.826,1.219 6.523,1.219 2.697,0 5.079,-0.482 6.523,-1.219 l 0,13.866 1.772,0 0,-23.112 -1.772,0 z"
       style="fill:#8c6b52;fill-rule:nonzero"
       id="path233"
       inkscape:connector-curvature="0" /><path
       d="m 97.047,35.104 c 0,0.35 -0.284,0.633 -0.634,0.633 -0.349,0 -0.632,-0.283 -0.632,-0.633 0,-0.35 0.283,-0.633 0.632,-0.633 0.35,0 0.634,0.283 0.634,0.633 z"
       style="fill:#ffffff;fill-rule:nonzero"
       id="path235"
       inkscape:connector-curvature="0" /><path
       d="m 111.77,35.104 c 0,0.35 -0.284,0.633 -0.633,0.633 -0.35,0 -0.633,-0.283 -0.633,-0.633 0,-0.35 0.283,-0.633 0.633,-0.633 0.349,0 0.633,0.283 0.633,0.633 z"
       style="fill:#ffffff;fill-rule:nonzero"
       id="path237"
       inkscape:connector-curvature="0" /><path
       d="m 97.047,49.636 c 0,0.35 -0.284,0.633 -0.634,0.633 -0.349,0 -0.632,-0.283 -0.632,-0.633 0,-0.349 0.283,-0.633 0.632,-0.633 0.35,0 0.634,0.284 0.634,0.633 z"
       style="fill:#ffffff;fill-rule:nonzero"
       id="path239"
       inkscape:connector-curvature="0" /><path
       d="m 111.77,49.636 c 0,0.35 -0.284,0.633 -0.633,0.633 -0.35,0 -0.633,-0.283 -0.633,-0.633 0,-0.349 0.283,-0.633 0.633,-0.633 0.349,0 0.633,0.284 0.633,0.633 z"
       style="fill:#ffffff;fill-rule:nonzero"
       id="path241"
       inkscape:connector-curvature="0" /><g
       id="g243"><clipPath
         id="_clip38"><path
           d="m 115.157,46.122 -11.398,0.122 -11.398,-0.122 -4.305,25.455 c 0,0 7.598,4.939 14.437,0.507 l 0,-13.17 c 0,0 0.578,-0.405 1.266,-0.432 0.688,0.027 1.266,0.432 1.266,0.432 l 0,13.17 c 6.839,4.432 14.437,-0.507 14.437,-0.507 l -4.305,-25.455 z"
           id="path246"
           inkscape:connector-curvature="0" /></clipPath><g
         clip-path="url(#_clip38)"
         id="g248"><path
           d="m 111.349,73.931 c -2.015,0 -4.206,-0.474 -6.324,-1.847 l 0,-13.17 c 0,0 -0.578,-0.405 -1.266,-0.432 -0.057,0.003 -0.113,0.007 -0.169,0.014 l 0,-12.254 0.169,0.002 6.523,-0.07 0,4.697 1.772,0 0,-4.716 3.103,-0.033 4.305,25.455 c 0,0 -3.62,2.354 -8.113,2.354 z"
           style="fill:#699850;fill-rule:nonzero"
           id="path250"
           inkscape:connector-curvature="0" /><path
           d="m 103.324,71.153 c -6.305,1.309 -11.064,0.883 -17.037,-1.524 0.193,-0.382 0.289,-0.573 0.481,-0.955 5.014,2.517 10.872,3.041 16.253,1.454 0.121,0.411 0.182,0.615 0.303,1.025 z"
           style="fill:#161a1e;fill-rule:nonzero"
           id="path252"
           inkscape:connector-curvature="0" /><path
           d="m 121.491,69.769 c -6.011,2.308 -10.776,2.656 -17.059,1.243 0.128,-0.408 0.192,-0.611 0.32,-1.02 5.354,1.675 11.22,1.248 16.274,-1.186 0.186,0.385 0.279,0.578 0.465,0.963 z"
           style="fill:#161a1e;fill-rule:nonzero"
           id="path254"
           inkscape:connector-curvature="0" /></g></g><g
       id="g256"><clipPath
         id="_clip39"><path
           d="m 110.282,27.759 0,5.945 c -1.444,-0.737 -3.826,-1.219 -6.523,-1.219 -2.697,0 -5.079,0.482 -6.523,1.219 l 0,-5.945 -1.772,0 0,23.112 1.772,0 0,-13.866 c 1.444,0.737 3.826,1.219 6.523,1.219 2.697,0 5.079,-0.482 6.523,-1.219 l 0,13.866 1.772,0 0,-23.112 -1.772,0 z"
           id="path259"
           inkscape:connector-curvature="0" /></clipPath><g
         clip-path="url(#_clip39)"
         id="g261"><path
           d="m 110.282,46.174 0,-9.169 c -1.444,0.737 -3.826,1.219 -6.523,1.219 -0.019,0 -0.038,0 -0.057,0 l 0,-5.739 c 0.019,0 0.038,0 0.057,0 2.697,0 5.079,0.482 6.523,1.219 l 0,-5.945 1.772,0 0,18.396 -1.772,0.019 z m 0.855,-11.703 c -0.35,0 -0.633,0.283 -0.633,0.633 0,0.35 0.283,0.633 0.633,0.633 0.349,0 0.633,-0.283 0.633,-0.633 0,-0.35 -0.284,-0.633 -0.633,-0.633 z"
           style="fill:#795942;fill-rule:nonzero"
           id="path263"
           inkscape:connector-curvature="0" /><path
           d="m 111.137,35.737 c -0.35,0 -0.633,-0.283 -0.633,-0.633 0,-0.35 0.283,-0.633 0.633,-0.633 0.349,0 0.633,0.283 0.633,0.633 0,0.35 -0.284,0.633 -0.633,0.633 z"
           style="fill:#d9cdc4;fill-rule:nonzero"
           id="path265"
           inkscape:connector-curvature="0" /><path
           d="m 112.054,50.871 -1.772,0 0,-4.697 1.772,-0.019 0,4.716 z m -0.917,-1.868 c -0.35,0 -0.633,0.284 -0.633,0.633 0,0.35 0.283,0.633 0.633,0.633 0.349,0 0.633,-0.283 0.633,-0.633 0,-0.349 -0.284,-0.633 -0.633,-0.633 z"
           style="fill:#654e34;fill-rule:nonzero"
           id="path267"
           inkscape:connector-curvature="0" /><path
           d="m 111.137,50.269 c -0.35,0 -0.633,-0.283 -0.633,-0.633 0,-0.349 0.283,-0.633 0.633,-0.633 0.349,0 0.633,0.284 0.633,0.633 0,0.35 -0.284,0.633 -0.633,0.633 z"
           style="fill:#b2b69e;fill-rule:nonzero"
           id="path269"
           inkscape:connector-curvature="0" /></g></g></g><path
     id="path3"
     d="m 298.273,50.209 -2.175,-1.346 c -0.018,-0.212 -0.039,-0.423 -0.062,-0.633 l 1.869,-1.743 c 0.19,-0.178 0.275,-0.44 0.224,-0.694 -0.05,-0.255 -0.229,-0.464 -0.472,-0.555 l -2.389,-0.893 c -0.06,-0.207 -0.123,-0.413 -0.187,-0.617 l 1.49,-2.07 c 0.152,-0.21 0.183,-0.484 0.084,-0.724 -0.099,-0.239 -0.315,-0.41 -0.571,-0.452 l -2.519,-0.41 c -0.098,-0.191 -0.2,-0.379 -0.303,-0.566 l 1.059,-2.323 c 0.108,-0.237 0.086,-0.512 -0.059,-0.727 -0.144,-0.215 -0.388,-0.342 -0.648,-0.332 l -2.557,0.089 c -0.132,-0.165 -0.266,-0.329 -0.403,-0.49 l 0.587,-2.49 c 0.059,-0.253 -0.015,-0.518 -0.199,-0.701 -0.183,-0.183 -0.448,-0.259 -0.701,-0.2 l -2.49,0.587 c -0.161,-0.136 -0.325,-0.271 -0.491,-0.403 l 0.09,-2.557 c 0.01,-0.259 -0.117,-0.505 -0.332,-0.648 -0.217,-0.145 -0.49,-0.167 -0.726,-0.059 l -2.324,1.059 c -0.187,-0.103 -0.375,-0.205 -0.565,-0.304 l -0.411,-2.519 c -0.042,-0.256 -0.213,-0.472 -0.452,-0.571 -0.239,-0.1 -0.514,-0.068 -0.724,0.084 l -2.071,1.49 c -0.204,-0.065 -0.409,-0.127 -0.616,-0.187 l -0.893,-2.389 c -0.091,-0.244 -0.3,-0.422 -0.555,-0.473 -0.255,-0.05 -0.516,0.035 -0.693,0.224 l -1.743,1.87 c -0.21,-0.023 -0.422,-0.044 -0.634,-0.062 l -1.346,-2.175 c -0.136,-0.22 -0.377,-0.354 -0.636,-0.354 -0.26,0 -0.501,0.134 -0.636,0.354 l -1.346,2.175 c -0.212,0.018 -0.424,0.039 -0.634,0.062 l -1.744,-1.87 c -0.176,-0.189 -0.439,-0.274 -0.693,-0.224 -0.255,0.051 -0.464,0.229 -0.555,0.473 l -0.893,2.389 c -0.207,0.06 -0.412,0.123 -0.616,0.187 l -2.071,-1.49 c -0.21,-0.152 -0.485,-0.184 -0.724,-0.084 -0.239,0.099 -0.411,0.315 -0.452,0.571 l -0.411,2.519 c -0.19,0.099 -0.378,0.2 -0.566,0.304 l -2.323,-1.059 c -0.236,-0.108 -0.511,-0.086 -0.726,0.059 -0.216,0.143 -0.342,0.389 -0.332,0.648 l 0.089,2.557 c -0.165,0.132 -0.329,0.267 -0.491,0.403 l -2.49,-0.587 c -0.253,-0.059 -0.518,0.017 -0.701,0.2 -0.184,0.183 -0.259,0.448 -0.2,0.701 l 0.587,2.49 c -0.136,0.162 -0.271,0.325 -0.403,0.49 l -2.557,-0.089 c -0.257,-0.007 -0.504,0.117 -0.648,0.332 -0.144,0.215 -0.166,0.49 -0.059,0.727 l 1.059,2.323 c -0.103,0.187 -0.205,0.375 -0.303,0.566 l -2.519,0.41 c -0.256,0.042 -0.472,0.213 -0.571,0.452 -0.099,0.24 -0.067,0.514 0.084,0.724 l 1.49,2.07 c -0.065,0.204 -0.128,0.41 -0.187,0.617 l -2.389,0.893 c -0.243,0.091 -0.422,0.3 -0.472,0.555 -0.051,0.255 0.034,0.516 0.224,0.694 l 1.869,1.743 c -0.023,0.21 -0.044,0.422 -0.062,0.633 l -2.175,1.346 c -0.22,0.136 -0.354,0.377 -0.354,0.637 0,0.26 0.134,0.5 0.354,0.636 l 2.175,1.346 c 0.018,0.212 0.039,0.423 0.062,0.633 l -1.869,1.744 c -0.19,0.176 -0.275,0.439 -0.224,0.693 0.05,0.255 0.229,0.464 0.472,0.555 l 2.389,0.893 c 0.059,0.207 0.122,0.412 0.187,0.617 l -1.49,2.07 c -0.152,0.211 -0.184,0.485 -0.084,0.724 0.099,0.24 0.316,0.411 0.571,0.452 l 2.519,0.41 c 0.098,0.191 0.199,0.379 0.303,0.566 l -1.059,2.323 c -0.108,0.236 -0.085,0.511 0.059,0.726 0.145,0.217 0.391,0.343 0.648,0.333 l 2.556,-0.09 c 0.133,0.166 0.267,0.329 0.404,0.491 l -0.587,2.491 c -0.059,0.252 0.016,0.516 0.2,0.7 0.183,0.184 0.448,0.258 0.701,0.199 l 2.49,-0.587 c 0.162,0.138 0.326,0.271 0.491,0.403 l -0.089,2.557 c -0.01,0.259 0.116,0.504 0.332,0.649 0.215,0.144 0.49,0.166 0.726,0.058 l 2.323,-1.059 c 0.187,0.104 0.375,0.205 0.566,0.304 l 0.411,2.518 c 0.041,0.256 0.212,0.473 0.452,0.571 0.239,0.1 0.514,0.068 0.724,-0.083 l 2.07,-1.492 c 0.204,0.065 0.409,0.129 0.616,0.188 l 0.894,2.388 c 0.09,0.243 0.3,0.423 0.555,0.472 0.254,0.052 0.516,-0.034 0.693,-0.224 l 1.743,-1.869 c 0.211,0.024 0.422,0.045 0.634,0.063 l 1.346,2.175 c 0.136,0.219 0.377,0.354 0.636,0.354 0.26,0 0.501,-0.134 0.637,-0.354 l 1.346,-2.175 c 0.212,-0.018 0.423,-0.039 0.633,-0.063 l 1.743,1.869 c 0.177,0.19 0.439,0.276 0.693,0.224 0.255,-0.05 0.465,-0.229 0.556,-0.472 l 0.893,-2.388 c 0.207,-0.059 0.412,-0.123 0.616,-0.188 l 2.071,1.492 c 0.21,0.151 0.484,0.183 0.723,0.083 0.24,-0.098 0.411,-0.316 0.453,-0.571 l 0.41,-2.518 c 0.19,-0.099 0.378,-0.201 0.566,-0.304 l 2.323,1.059 c 0.236,0.108 0.511,0.086 0.726,-0.058 0.216,-0.145 0.342,-0.39 0.332,-0.649 l -0.089,-2.557 c 0.165,-0.132 0.329,-0.265 0.491,-0.403 l 2.489,0.587 c 0.253,0.059 0.519,-0.015 0.701,-0.199 0.184,-0.184 0.259,-0.448 0.2,-0.7 l -0.587,-2.491 c 0.137,-0.162 0.271,-0.325 0.403,-0.491 l 2.557,0.09 c 0.258,0.01 0.504,-0.116 0.648,-0.333 0.144,-0.215 0.167,-0.49 0.058,-0.726 l -1.058,-2.323 c 0.103,-0.187 0.205,-0.375 0.303,-0.566 l 2.519,-0.41 c 0.256,-0.041 0.472,-0.212 0.571,-0.452 0.099,-0.239 0.068,-0.513 -0.084,-0.724 l -1.49,-2.07 c 0.064,-0.205 0.127,-0.41 0.187,-0.617 l 2.389,-0.893 c 0.243,-0.091 0.422,-0.3 0.471,-0.555 0.052,-0.255 -0.033,-0.517 -0.224,-0.693 l -1.868,-1.744 c 0.022,-0.21 0.043,-0.422 0.062,-0.633 l 2.174,-1.346 c 0.22,-0.136 0.355,-0.377 0.355,-0.636 0,-0.26 -0.134,-0.501 -0.354,-0.637 l 0,0 z m -14.555,18.04 c -0.83,-0.179 -1.358,-0.998 -1.18,-1.831 0.177,-0.832 0.995,-1.361 1.825,-1.182 0.831,0.178 1.36,0.998 1.182,1.829 -0.178,0.832 -0.997,1.362 -1.827,1.184 z m -0.739,-4.998 c -0.757,-0.162 -1.503,0.32 -1.665,1.079 l -0.772,3.603 c -2.383,1.082 -5.028,1.682 -7.815,1.682 -2.85,0 -5.553,-0.63 -7.978,-1.758 l -0.772,-3.602 c -0.162,-0.759 -0.907,-1.242 -1.664,-1.079 l -3.181,0.683 c -0.591,-0.608 -1.14,-1.255 -1.645,-1.938 l 15.477,0 c 0.175,0 0.292,-0.032 0.292,-0.191 l 0,-5.475 c 0,-0.159 -0.117,-0.191 -0.292,-0.191 l -4.527,0 0,-3.47 4.896,0 c 0.447,0 2.389,0.127 3.011,2.61 0.194,0.764 0.621,3.248 0.913,4.043 0.291,0.892 1.476,2.674 2.738,2.674 l 7.712,0 c 0.088,0 0.182,-0.01 0.28,-0.028 -0.535,0.727 -1.122,1.415 -1.754,2.058 l -3.254,-0.7 0,0 z m -21.405,4.923 c -0.831,0.179 -1.648,-0.351 -1.827,-1.183 -0.178,-0.833 0.35,-1.651 1.181,-1.83 0.83,-0.178 1.648,0.352 1.827,1.184 0.177,0.831 -0.351,1.651 -1.181,1.829 z m -5.871,-23.808 c 0.344,0.778 -0.006,1.689 -0.783,2.033 -0.776,0.345 -1.685,-0.006 -2.029,-0.784 -0.345,-0.778 0.006,-1.688 0.782,-2.032 0.777,-0.345 1.685,0.005 2.03,0.783 z m -1.805,4.278 3.314,-1.472 c 0.707,-0.315 1.027,-1.144 0.713,-1.853 l -0.683,-1.543 2.684,0 0,12.097 -5.415,0 c -0.469,-1.651 -0.721,-3.394 -0.721,-5.195 0,-0.687 0.037,-1.367 0.108,-2.034 l 0,0 z m 14.54,-1.175 0,-3.566 6.392,0 c 0.33,0 2.331,0.382 2.331,1.878 0,1.242 -1.535,1.687 -2.797,1.687 l -5.926,0 0,10e-4 z m 23.227,3.209 c 0,0.474 -0.017,0.942 -0.052,1.406 l -1.943,0 c -0.194,0 -0.272,0.128 -0.272,0.319 l 0,0.892 c 0,2.1 -1.185,2.557 -2.223,2.673 -0.988,0.112 -2.084,-0.413 -2.219,-1.018 -0.583,-3.279 -1.554,-3.98 -3.088,-5.19 1.904,-1.209 3.885,-2.992 3.885,-5.38 0,-2.578 -1.768,-4.201 -2.972,-4.998 -1.69,-1.114 -3.562,-1.337 -4.066,-1.337 l -20.095,0 c 2.725,-3.041 6.418,-5.195 10.595,-5.979 l 2.369,2.485 c 0.535,0.56 1.422,0.581 1.982,0.045 l 2.65,-2.535 c 5.554,1.034 10.255,4.491 12.965,9.234 l -1.814,4.097 c -0.314,0.71 0.006,1.539 0.713,1.853 l 3.493,1.552 c 0.061,0.62 0.092,1.246 0.092,1.881 l 0,0 z m -20.08,-20.726 c 0.613,-0.588 1.587,-0.565 2.174,0.05 0.587,0.616 0.564,1.591 -0.051,2.178 -0.613,0.588 -1.587,0.565 -2.174,-0.051 -0.586,-0.615 -0.564,-1.589 0.051,-2.177 l 0,0 z m 18.004,14.489 c 0.344,-0.777 1.253,-1.128 2.029,-0.783 0.777,0.344 1.127,1.255 0.783,2.032 -0.344,0.778 -1.253,1.129 -2.03,0.784 -0.775,-0.344 -1.126,-1.254 -0.782,-2.033 l 0,0 z"
     style="fill-rule:nonzero"
     inkscape:connector-curvature="0" /><defs
     id="defs272"><linearGradient
       id="_Linear1"
       x1="0"
       y1="0"
       x2="1"
       y2="0"
       gradientUnits="userSpaceOnUse"
       gradientTransform="matrix(0.812437,0.0239117,0.0239117,0.883124,204.813,36.0504)"><stop
         offset="0"
         style="stop-color:#f58126;stop-opacity:1"
         id="stop275" /><stop
         offset="1"
         style="stop-color:#f58126;stop-opacity:1"
         id="stop277" /></linearGradient><linearGradient
       id="_Linear2"
       x1="0"
       y1="0"
       x2="1"
       y2="0"
       gradientUnits="userSpaceOnUse"
       gradientTransform="matrix(0.812102,0.0239019,0.0239019,0.882763,206.968,39.0943)"><stop
         offset="0"
         style="stop-color:#f58126;stop-opacity:1"
         id="stop280" /><stop
         offset="1"
         style="stop-color:#f58126;stop-opacity:1"
         id="stop282" /></linearGradient><linearGradient
       id="_Linear3"
       x1="0"
       y1="0"
       x2="1"
       y2="0"
       gradientUnits="userSpaceOnUse"
       gradientTransform="matrix(0.685349,0.0201712,0.0201712,0.744976,210.529,34.808)"><stop
         offset="0"
         style="stop-color:#f58126;stop-opacity:1"
         id="stop285" /><stop
         offset="1"
         style="stop-color:#f58126;stop-opacity:1"
         id="stop287" /></linearGradient><linearGradient
       id="_Linear4"
       x1="0"
       y1="0"
       x2="1"
       y2="0"
       gradientUnits="userSpaceOnUse"
       gradientTransform="matrix(0.811772,0.0238921,0.0238921,0.882402,211.045,36.731)"><stop
         offset="0"
         style="stop-color:#f58126;stop-opacity:1"
         id="stop290" /><stop
         offset="1"
         style="stop-color:#f58126;stop-opacity:1"
         id="stop292" /></linearGradient><linearGradient
       id="_Linear5"
       x1="0"
       y1="0"
       x2="1"
       y2="0"
       gradientUnits="userSpaceOnUse"
       gradientTransform="matrix(1.06861,0.0314515,0.0314515,1.16159,210.819,41.0112)"><stop
         offset="0"
         style="stop-color:#f58126;stop-opacity:1"
         id="stop295" /><stop
         offset="1"
         style="stop-color:#f58126;stop-opacity:1"
         id="stop297" /></linearGradient><linearGradient
       id="_Linear6"
       x1="0"
       y1="0"
       x2="1"
       y2="0"
       gradientUnits="userSpaceOnUse"
       gradientTransform="matrix(1.06927,0.0314711,0.0314711,1.16231,214.614,37.0494)"><stop
         offset="0"
         style="stop-color:#f58126;stop-opacity:1"
         id="stop300" /><stop
         offset="1"
         style="stop-color:#f58126;stop-opacity:1"
         id="stop302" /></linearGradient><linearGradient
       id="_Linear7"
       x1="0"
       y1="0"
       x2="1"
       y2="0"
       gradientUnits="userSpaceOnUse"
       gradientTransform="matrix(1.06961,0.0314809,0.0314809,1.16267,215.513,58.8553)"><stop
         offset="0"
         style="stop-color:#f58126;stop-opacity:1"
         id="stop305" /><stop
         offset="1"
         style="stop-color:#f58126;stop-opacity:1"
         id="stop307" /></linearGradient><linearGradient
       id="_Linear8"
       x1="0"
       y1="0"
       x2="1"
       y2="0"
       gradientUnits="userSpaceOnUse"
       gradientTransform="matrix(1.06828,0.0314417,0.0314417,1.16123,216.572,49.3635)"><stop
         offset="0"
         style="stop-color:#f58126;stop-opacity:1"
         id="stop310" /><stop
         offset="1"
         style="stop-color:#f58126;stop-opacity:1"
         id="stop312" /></linearGradient><linearGradient
       id="_Linear9"
       x1="0"
       y1="0"
       x2="1"
       y2="0"
       gradientUnits="userSpaceOnUse"
       gradientTransform="matrix(1.06828,0.0314417,0.0314417,1.16123,216.572,49.3635)"><stop
         offset="0"
         style="stop-color:#ec6c23;stop-opacity:1"
         id="stop315" /><stop
         offset="1"
         style="stop-color:#ec6c23;stop-opacity:1"
         id="stop317" /></linearGradient><linearGradient
       id="_Linear10"
       x1="0"
       y1="0"
       x2="1"
       y2="0"
       gradientUnits="userSpaceOnUse"
       gradientTransform="matrix(1.06861,0.0314515,0.0314515,1.16159,220.729,42.7174)"><stop
         offset="0"
         style="stop-color:#ec6c23;stop-opacity:1"
         id="stop320" /><stop
         offset="1"
         style="stop-color:#ec6c23;stop-opacity:1"
         id="stop322" /></linearGradient><linearGradient
       id="_Linear11"
       x1="0"
       y1="0"
       x2="1"
       y2="0"
       gradientUnits="userSpaceOnUse"
       gradientTransform="matrix(1.06961,0.0314809,0.0314809,1.16267,211.366,57.9934)"><stop
         offset="0"
         style="stop-color:#f58126;stop-opacity:1"
         id="stop325" /><stop
         offset="1"
         style="stop-color:#f58126;stop-opacity:1"
         id="stop327" /></linearGradient><linearGradient
       id="_Linear12"
       x1="0"
       y1="0"
       x2="1"
       y2="0"
       gradientUnits="userSpaceOnUse"
       gradientTransform="matrix(1.06861,0.0314515,0.0314515,1.16159,213.573,49.6478)"><stop
         offset="0"
         style="stop-color:#f58126;stop-opacity:1"
         id="stop330" /><stop
         offset="1"
         style="stop-color:#f58126;stop-opacity:1"
         id="stop332" /></linearGradient><linearGradient
       id="_Linear13"
       x1="0"
       y1="0"
       x2="1"
       y2="0"
       gradientUnits="userSpaceOnUse"
       gradientTransform="matrix(1.06927,0.0314711,0.0314711,1.16231,207.894,49.7511)"><stop
         offset="0"
         style="stop-color:#f58126;stop-opacity:1"
         id="stop335" /><stop
         offset="1"
         style="stop-color:#f58126;stop-opacity:1"
         id="stop337" /></linearGradient><linearGradient
       id="_Linear14"
       x1="0"
       y1="0"
       x2="1"
       y2="0"
       gradientUnits="userSpaceOnUse"
       gradientTransform="matrix(1.06927,0.0314711,0.0314711,1.16231,220.358,37.0929)"><stop
         offset="0"
         style="stop-color:#ec6c23;stop-opacity:1"
         id="stop340" /><stop
         offset="1"
         style="stop-color:#ec6c23;stop-opacity:1"
         id="stop342" /></linearGradient><linearGradient
       id="_Linear15"
       x1="0"
       y1="0"
       x2="1"
       y2="0"
       gradientUnits="userSpaceOnUse"
       gradientTransform="matrix(1.06894,0.0314613,0.0314613,1.16195,226.827,40.3086)"><stop
         offset="0"
         style="stop-color:#ec6c23;stop-opacity:1"
         id="stop345" /><stop
         offset="1"
         style="stop-color:#ec6c23;stop-opacity:1"
         id="stop347" /></linearGradient><linearGradient
       id="_Linear16"
       x1="0"
       y1="0"
       x2="1"
       y2="0"
       gradientUnits="userSpaceOnUse"
       gradientTransform="matrix(1.06927,0.0314711,0.0314711,1.16231,216.487,35.9059)"><stop
         offset="0"
         style="stop-color:#f58126;stop-opacity:1"
         id="stop350" /><stop
         offset="1"
         style="stop-color:#f58126;stop-opacity:1"
         id="stop352" /></linearGradient><linearGradient
       id="_Linear17"
       x1="0"
       y1="0"
       x2="1"
       y2="0"
       gradientUnits="userSpaceOnUse"
       gradientTransform="matrix(1.06927,0.0314711,0.0314711,1.16231,216.487,35.9059)"><stop
         offset="0"
         style="stop-color:#ec6c23;stop-opacity:1"
         id="stop355" /><stop
         offset="1"
         style="stop-color:#ec6c23;stop-opacity:1"
         id="stop357" /></linearGradient><linearGradient
       id="_Linear18"
       x1="0"
       y1="0"
       x2="1"
       y2="0"
       gradientUnits="userSpaceOnUse"
       gradientTransform="matrix(0.427179,0.0125728,0.0125728,0.464346,204.843,38.3009)"><stop
         offset="0"
         style="stop-color:#f58126;stop-opacity:1"
         id="stop360" /><stop
         offset="1"
         style="stop-color:#f58126;stop-opacity:1"
         id="stop362" /></linearGradient><linearGradient
       id="_Linear19"
       x1="0"
       y1="0"
       x2="1"
       y2="0"
       gradientUnits="userSpaceOnUse"
       gradientTransform="matrix(0.427844,0.0125923,0.0125923,0.465068,222.505,36.9525)"><stop
         offset="0"
         style="stop-color:#ec6c23;stop-opacity:1"
         id="stop365" /><stop
         offset="1"
         style="stop-color:#ec6c23;stop-opacity:1"
         id="stop367" /></linearGradient><linearGradient
       id="_Linear20"
       x1="0"
       y1="0"
       x2="1"
       y2="0"
       gradientUnits="userSpaceOnUse"
       gradientTransform="matrix(0.426844,0.012563,0.012563,0.463984,222.035,38.7047)"><stop
         offset="0"
         style="stop-color:#ec6c23;stop-opacity:1"
         id="stop370" /><stop
         offset="1"
         style="stop-color:#ec6c23;stop-opacity:1"
         id="stop372" /></linearGradient><linearGradient
       id="_Linear21"
       x1="0"
       y1="0"
       x2="1"
       y2="0"
       gradientUnits="userSpaceOnUse"
       gradientTransform="matrix(0.427844,0.0125923,0.0125923,0.465068,207.415,37.3212)"><stop
         offset="0"
         style="stop-color:#f58126;stop-opacity:1"
         id="stop375" /><stop
         offset="1"
         style="stop-color:#f58126;stop-opacity:1"
         id="stop377" /></linearGradient><linearGradient
       id="_Linear22"
       x1="0"
       y1="0"
       x2="1"
       y2="0"
       gradientUnits="userSpaceOnUse"
       gradientTransform="matrix(0.427509,0.0125825,0.0125825,0.464707,212.83,47.9287)"><stop
         offset="0"
         style="stop-color:#f58126;stop-opacity:1"
         id="stop380" /><stop
         offset="1"
         style="stop-color:#f58126;stop-opacity:1"
         id="stop382" /></linearGradient><linearGradient
       id="_Linear23"
       x1="0"
       y1="0"
       x2="1"
       y2="0"
       gradientUnits="userSpaceOnUse"
       gradientTransform="matrix(0.427179,0.0125728,0.0125728,0.464346,217.698,44.1411)"><stop
         offset="0"
         style="stop-color:#ec6c23;stop-opacity:1"
         id="stop385" /><stop
         offset="1"
         style="stop-color:#ec6c23;stop-opacity:1"
         id="stop387" /></linearGradient><linearGradient
       id="_Linear24"
       x1="0"
       y1="0"
       x2="1"
       y2="0"
       gradientUnits="userSpaceOnUse"
       gradientTransform="matrix(0.427509,0.0125825,0.0125825,0.464707,212.774,55.4462)"><stop
         offset="0"
         style="stop-color:#f58126;stop-opacity:1"
         id="stop390" /><stop
         offset="1"
         style="stop-color:#f58126;stop-opacity:1"
         id="stop392" /></linearGradient><linearGradient
       id="_Linear25"
       x1="0"
       y1="0"
       x2="1"
       y2="0"
       gradientUnits="userSpaceOnUse"
       gradientTransform="matrix(0.427179,0.0125728,0.0125728,0.464346,213.187,52.4469)"><stop
         offset="0"
         style="stop-color:#f58126;stop-opacity:1"
         id="stop395" /><stop
         offset="1"
         style="stop-color:#f58126;stop-opacity:1"
         id="stop397" /></linearGradient><linearGradient
       id="_Linear26"
       x1="0"
       y1="0"
       x2="1"
       y2="0"
       gradientUnits="userSpaceOnUse"
       gradientTransform="matrix(0.426844,0.012563,0.012563,0.463984,216.034,51.5769)"><stop
         offset="0"
         style="stop-color:#f58126;stop-opacity:1"
         id="stop400" /><stop
         offset="1"
         style="stop-color:#f58126;stop-opacity:1"
         id="stop402" /></linearGradient><linearGradient
       id="_Linear27"
       x1="0"
       y1="0"
       x2="1"
       y2="0"
       gradientUnits="userSpaceOnUse"
       gradientTransform="matrix(0.427509,0.0125825,0.0125825,0.464707,216.514,55.6204)"><stop
         offset="0"
         style="stop-color:#f58126;stop-opacity:1"
         id="stop405" /><stop
         offset="1"
         style="stop-color:#f58126;stop-opacity:1"
         id="stop407" /></linearGradient><linearGradient
       id="_Linear28"
       x1="0"
       y1="0"
       x2="1"
       y2="0"
       gradientUnits="userSpaceOnUse"
       gradientTransform="matrix(0.427509,0.0125825,0.0125825,0.464707,218.211,54.8331)"><stop
         offset="0"
         style="stop-color:#ec6c23;stop-opacity:1"
         id="stop410" /><stop
         offset="1"
         style="stop-color:#ec6c23;stop-opacity:1"
         id="stop412" /></linearGradient><linearGradient
       id="_Linear29"
       x1="0"
       y1="0"
       x2="1"
       y2="0"
       gradientUnits="userSpaceOnUse"
       gradientTransform="matrix(0.426844,0.012563,0.012563,0.463984,218.489,52.6366)"><stop
         offset="0"
         style="stop-color:#ec6c23;stop-opacity:1"
         id="stop415" /><stop
         offset="1"
         style="stop-color:#ec6c23;stop-opacity:1"
         id="stop417" /></linearGradient><linearGradient
       id="_Linear30"
       x1="0"
       y1="0"
       x2="1"
       y2="0"
       gradientUnits="userSpaceOnUse"
       gradientTransform="matrix(0.426844,0.012563,0.012563,0.463984,219.639,51.4773)"><stop
         offset="0"
         style="stop-color:#ec6c23;stop-opacity:1"
         id="stop420" /><stop
         offset="1"
         style="stop-color:#ec6c23;stop-opacity:1"
         id="stop422" /></linearGradient><linearGradient
       id="_Linear31"
       x1="0"
       y1="0"
       x2="1"
       y2="0"
       gradientUnits="userSpaceOnUse"
       gradientTransform="matrix(0.428174,0.0126021,0.0126021,0.465429,219.572,49.5357)"><stop
         offset="0"
         style="stop-color:#ec6c23;stop-opacity:1"
         id="stop425" /><stop
         offset="1"
         style="stop-color:#ec6c23;stop-opacity:1"
         id="stop427" /></linearGradient><linearGradient
       id="_Linear32"
       x1="0"
       y1="0"
       x2="1"
       y2="0"
       gradientUnits="userSpaceOnUse"
       gradientTransform="matrix(0.427179,0.0125728,0.0125728,0.464346,217.135,57.9124)"><stop
         offset="0"
         style="stop-color:#ec6c23;stop-opacity:1"
         id="stop430" /><stop
         offset="1"
         style="stop-color:#ec6c23;stop-opacity:1"
         id="stop432" /></linearGradient><linearGradient
       id="_Linear33"
       x1="0"
       y1="0"
       x2="1"
       y2="0"
       gradientUnits="userSpaceOnUse"
       gradientTransform="matrix(0.427509,0.0125825,0.0125825,0.464707,217.375,59.5754)"><stop
         offset="0"
         style="stop-color:#ec6c23;stop-opacity:1"
         id="stop435" /><stop
         offset="1"
         style="stop-color:#ec6c23;stop-opacity:1"
         id="stop437" /></linearGradient><linearGradient
       id="_Linear34"
       x1="0"
       y1="0"
       x2="1"
       y2="0"
       gradientUnits="userSpaceOnUse"
       gradientTransform="matrix(0.427179,0.0125728,0.0125728,0.464346,213.702,36.4559)"><stop
         offset="0"
         style="stop-color:#f58126;stop-opacity:1"
         id="stop440" /><stop
         offset="1"
         style="stop-color:#f58126;stop-opacity:1"
         id="stop442" /></linearGradient></defs></svg>