<?xml version="1.0" encoding="UTF-8"?>
<svg width="345mm" height="230mm" version="1.1" viewBox="0 0 345 230" xmlns="http://www.w3.org/2000/svg"><defs><marker id="Arrow1Lstart" overflow="visible" orient="auto"><path transform="matrix(.8 0 0 .8 10 0)" d="m0 0 5-5-17.5 5 17.5 5z" fill-rule="evenodd" stroke="#000" stroke-width="1pt"/></marker><marker id="a" overflow="visible" orient="auto"><path transform="matrix(-.8 0 0 -.8 -10 0)" d="m0 0 5-5-17.5 5 17.5 5z" fill-rule="evenodd" stroke="#000" stroke-width="1pt"/></marker><marker id="Arrow1Lend" overflow="visible" orient="auto"><path transform="matrix(-.8 0 0 -.8 -10 0)" d="m0 0 5-5-17.5 5 17.5 5z" fill-rule="evenodd" stroke="#000" stroke-width="1pt"/></marker></defs><g transform="translate(297 561)"><rect x="-69.9" y="-414" width="30.9" height="61.9" fill="#fee052"/><rect x="-71.3" y="-521" width="30.9" height="24.6" fill="#fee052"/><g fill="none" stroke="#000"><path d="m-69.9-545h30.2c-5.2 84.6 6.91 218 0 195h-30.2c-2.64e-4 -64.9-3.91-116 0-195z" stroke-linecap="square" stroke-width="3.25"/><g stroke-width=".897"><path d="m-148-476c16.4-19.9 48.6-27.8 69.6-30.2" marker-end="url(#a)"/><path d="m-142-455c14.4 20.5 35.5 35.3 57.4 46.8 3.03 1.27 6.16 2.34 9.35 3.13" marker-end="url(#Arrow1Lend)"/><path d="m-83.2-362c-18.4-4.47-32.6-18.7-42.3-34.4-8.42-12.9-13.4-27.5-20.8-40.9-0.505-0.895-1.02-1.78-1.55-2.67" marker-start="url(#Arrow1Lstart)"/></g></g><g><g stroke-width=".948" style="font-feature-settings:normal;font-variant-caps:normal;font-variant-ligatures:normal;font-variant-numeric:normal" aria-label="hello"><path d="m-212-479q0.555 0 0.907 1.02 0.37 0.999 0.518 2.67 0.148 1.44 0.278 2.87 0.13 1.41 0.222 2.76 0.111 1.35 0.167 2.59 0.074 1.24 0.111 2.33 0.592-1.33 1.52-2.37 0.944-1.04 2.22-1.83 0.759-0.37 1.44-0.537 0.685-0.185 1.31-0.185 3.35 0 5.76 5.65 0.407 1.57 0.611 3.04 0.204 1.44 0.204 2.85v0.185q0 3.7-1.11 3.81-0.0555 0.0185-0.13 0.037-0.0555 0.037-0.111 0.0555-0.796 0-1.22-1.09l0.167-2.39v-0.962q0-2.87-0.759-4.94-0.74-2.09-2.13-3.31-0.389-0.259-0.74-0.389-0.352-0.13-0.648-0.148h-0.426q-2.33 0-4.11 4.31l0.0185-0.037q-1.31 4.15-1.31 7.98 0 0.0555-0.0555 0.148-0.037 0.0925-0.074 0.13-0.259 0.204-0.481 0.315-0.222 0.111-0.463 0.111-0.777 0-1.18-1.43-0.389-1.43-0.407-4.05-0.148-3.28-0.333-6.14-0.167-2.87-0.352-5.16-0.167-2.31-0.37-4-0.185-1.7-0.37-2.65 0-0.999 1.28-1.22z" style="font-feature-settings:normal;font-variant-caps:normal;font-variant-ligatures:normal;font-variant-numeric:normal"/><path d="m-189-470q2.94 0 4.26 2.46l0.185 1.2v0.148q0 3.48-5.48 4.79l-1.26 0.0925h-0.37l-0.962-0.0555q0.0925 2.54 2.24 4.44 0.481 0.259 0.907 0.37 0.444 0.111 0.833 0.111 2.09 0 5.53-2.98l0.518-0.204q0.925 0 1.31 1.07 0 1.11-4.63 3.83-0.851 0.407-2.59 0.685-4.28 0-6.07-5.11-0.278-0.814-0.407-1.61t-0.13-1.63v-0.352q0-5.22 3.94-6.98 0.537-0.148 0.962-0.222 0.426-0.074 0.759-0.074zm-3.78 6.02q0.0555 0.0555 0.167 0.13 0 0.037-0.0185 0.0926 0 0.0555 0 0.111zm2.89-3.63q-2.17 0-2.72 3.76 0.296 0.148 0.592 0.148h0.777q2.09-0.241 3.18-0.833 1.11-0.611 1.11-1.55v-0.444q0-0.407-0.5-0.666-0.5-0.278-1.41-0.407z" style="font-feature-settings:normal;font-variant-caps:normal;font-variant-ligatures:normal;font-variant-numeric:normal"/><path d="m-178-479q0.999 0.222 0.999 1.3 0 8.75 1.05 21.8v0.574q0 1.22-1.24 1.22-0.981 0-1.15-1.26v-0.0925q-0.0925-1.41-0.204-2.92-0.0925-1.52-0.204-3.05-0.111-1.54-0.222-3.05-0.0925-1.52-0.185-2.92-0.13-2.35-0.204-4.78-0.0555-2.44-0.0555-4.98v-0.629q0-1.22 1.33-1.22z" style="font-feature-settings:normal;font-variant-caps:normal;font-variant-ligatures:normal;font-variant-numeric:normal"/><path d="m-173-479q0.999 0.222 0.999 1.3 0 8.75 1.05 21.8v0.574q0 1.22-1.24 1.22-0.981 0-1.15-1.26v-0.0925q-0.0925-1.41-0.204-2.92-0.0925-1.52-0.204-3.05-0.111-1.54-0.222-3.05-0.0925-1.52-0.185-2.92-0.13-2.35-0.204-4.78-0.0555-2.44-0.0555-4.98v-0.629q0-1.22 1.33-1.22z" style="font-feature-settings:normal;font-variant-caps:normal;font-variant-ligatures:normal;font-variant-numeric:normal"/><path d="m-161-468q2.3 0 5.03 3.02 1.35 2.31 1.35 4.35v0.518q0 3.33-3.37 5.53-1.41 0.87-3.39 0.87-5.16 0-7.77-5.35-0.185-0.703-0.296-1.22-0.0925-0.518-0.0925-0.888v-0.278q0-3.66 4.37-6h-0.0185q1.07-0.555 4.18-0.555zm-6.13 6.76v0.241q0 1.39 1.07 2.59 1.07 1.18 2.96 2.07 0.37 0.0925 0.703 0.167 0.352 0.0555 0.666 0.0555h0.796q2.79 0 3.83-3.24 0-0.204 0.0185-0.407 0.037-0.222 0.0555-0.426v-0.722q0-3.31-3.78-4.61-0.148-0.0185-0.352-0.037-0.185-0.037-0.333-0.0555-0.167 0.037-0.37 0.0925-0.204 0.0555-0.352 0.0925l-0.796-0.185q-1.26 0-2.26 0.851-0.999 0.833-1.78 2.48z" style="font-feature-settings:normal;font-variant-caps:normal;font-variant-ligatures:normal;font-variant-numeric:normal"/></g><g style="font-feature-settings:normal;font-variant-caps:normal;font-variant-ligatures:normal;font-variant-numeric:normal" aria-label="1"><path d="m-53.1-499h-2.33l-2.32-0.0117q-0.82 0-1.15-0.105-0.597-0.211-0.597-0.89 0-1.18 1.84-1.18l0.562 0.0117 0.48 0.0234q0-0.562-0.105-1.66-0.0937-1.1-0.0937-1.65 0-1.49 0.269-4.52 0.258-2.99 0.246-4.53-1.57 1.22-2 1.22-0.468 0-0.82-0.351-0.34-0.351-0.34-0.808 0-0.55 1.01-1.34 0.632-0.445 1.79-1.43 1.03-1.04 1.97-1.04 0.785 0 0.785 0.902 0 0.269-0.0703 0.808-0.0703 0.527-0.0703 0.796 0 0.386 0.0351 1.17 0.0468 0.785 0.0468 1.17 0 1.34-0.281 3.98-0.281 2.65-0.281 3.97 0 0.679 0.0937 1.65 0.0937 0.972 0.105 1.59l1.23-0.0234q0.492 0 0.808 0.328 0.328 0.316 0.328 0.796 0 0.492-0.328 0.808-0.316 0.316-0.808 0.316z" stroke-width=".798" style="font-feature-settings:normal;font-variant-caps:normal;font-variant-ligatures:normal;font-variant-numeric:normal"/></g><g style="font-feature-settings:normal;font-variant-caps:normal;font-variant-ligatures:normal;font-variant-numeric:normal" aria-label="0"><path d="m-56.6-524q-3.56 0-5.2-3.26-1.24-2.51-1.24-6.52 0-3.4 1.62-5.93 1.91-2.96 5.19-2.96 3.08 0 4.8 2.62 1.49 2.27 1.49 5.54 0 5.25-1.66 7.88-1.66 2.62-4.99 2.62zm0.351-16.4q-2.18 0-3.45 2.21-1.07 1.85-1.07 4.23 0 3.85 1.04 5.79t3.13 1.93q2.48 0 3.56-2.83 0.749-1.97 0.749-4.99 0-3.17-0.995-4.75-0.984-1.58-2.96-1.58z" stroke-width=".402" style="font-feature-settings:normal;font-variant-caps:normal;font-variant-ligatures:normal;font-variant-numeric:normal"/></g></g><g fill="none" stroke="#000" stroke-width="3.25"><path d="m-69.9-522c9.84-0.77 19.7 1.66 29.5 1e-5"/><path d="m-71.3-495c10.1 2e-3 20.4 0.628 30.2-2.11"/><path d="m-69.9-469c10.1-0.553 20.2 1.36 30.2 0"/><path d="m-69.9-440c7.07 0.16 14.2-0.545 21.2 0.848 2.53-0.498 4.94-1.99 7.6-1.55"/><path d="m-70.6-412c10.1-0.193 20.1-1.99 30.2-1.41"/><path d="m-70.6-385c10.4 1.56 20.6-2.3 30.9-1.41"/></g><g><g style="font-feature-settings:normal;font-variant-caps:normal;font-variant-ligatures:normal;font-variant-numeric:normal" aria-label="0"><path d="m-57.3-473q-3.56 0-5.2-3.26-1.24-2.51-1.24-6.52 0-3.4 1.62-5.93 1.91-2.96 5.19-2.96 3.08 0 4.8 2.62 1.49 2.27 1.49 5.54 0 5.25-1.66 7.88-1.66 2.62-4.99 2.62zm0.351-16.4q-2.18 0-3.45 2.21-1.07 1.85-1.07 4.23 0 3.85 1.04 5.79 1.04 1.93 3.13 1.93 2.48 0 3.56-2.83 0.749-1.97 0.749-4.99 0-3.17-0.995-4.75-0.984-1.58-2.96-1.58z" stroke-width=".402" style="font-feature-settings:normal;font-variant-caps:normal;font-variant-ligatures:normal;font-variant-numeric:normal"/></g><g style="font-feature-settings:normal;font-variant-caps:normal;font-variant-ligatures:normal;font-variant-numeric:normal" aria-label="0"><path d="m-57.3-444q-3.56 0-5.2-3.26-1.24-2.51-1.24-6.52 0-3.4 1.62-5.93 1.91-2.96 5.19-2.96 3.08 0 4.8 2.62 1.49 2.27 1.49 5.54 0 5.25-1.66 7.88-1.66 2.62-4.99 2.62zm0.351-16.4q-2.18 0-3.45 2.21-1.07 1.85-1.07 4.23 0 3.85 1.04 5.79 1.04 1.93 3.13 1.93 2.48 0 3.56-2.83 0.749-1.97 0.749-4.99 0-3.17-0.995-4.75-0.984-1.58-2.96-1.58z" stroke-width=".402" style="font-feature-settings:normal;font-variant-caps:normal;font-variant-ligatures:normal;font-variant-numeric:normal"/></g><g style="font-feature-settings:normal;font-variant-caps:normal;font-variant-ligatures:normal;font-variant-numeric:normal" aria-label="0"><path d="m-57.3-418q-3.56 0-5.2-3.26-1.24-2.51-1.24-6.52 0-3.4 1.62-5.93 1.91-2.96 5.19-2.96 3.08 0 4.8 2.62 1.49 2.27 1.49 5.54 0 5.25-1.66 7.88-1.66 2.62-4.99 2.62zm0.351-16.4q-2.18 0-3.45 2.21-1.07 1.85-1.07 4.23 0 3.85 1.04 5.79 1.04 1.93 3.13 1.93 2.48 0 3.56-2.83 0.749-1.97 0.749-4.99 0-3.17-0.995-4.75-0.984-1.58-2.96-1.58z" stroke-width=".402" style="font-feature-settings:normal;font-variant-caps:normal;font-variant-ligatures:normal;font-variant-numeric:normal"/></g><g style="font-feature-settings:normal;font-variant-caps:normal;font-variant-ligatures:normal;font-variant-numeric:normal" aria-label="1"><path d="m-53.1-391h-2.33l-2.32-0.0117q-0.82 0-1.15-0.105-0.597-0.211-0.597-0.89 0-1.18 1.84-1.18l0.562 0.0117 0.48 0.0234q0-0.562-0.105-1.66-0.0937-1.1-0.0937-1.65 0-1.49 0.269-4.52 0.258-2.99 0.246-4.53-1.57 1.22-2 1.22-0.468 0-0.82-0.351-0.34-0.351-0.34-0.808 0-0.55 1.01-1.34 0.632-0.445 1.79-1.43 1.03-1.04 1.97-1.04 0.785 0 0.785 0.902 0 0.269-0.0703 0.808-0.0703 0.527-0.0703 0.796 0 0.386 0.0351 1.17 0.0468 0.785 0.0468 1.17 0 1.34-0.281 3.98-0.281 2.65-0.281 3.97 0 0.679 0.0937 1.65 0.0937 0.972 0.105 1.59l1.23-0.0234q0.492 0 0.808 0.328 0.328 0.316 0.328 0.796 0 0.492-0.328 0.808-0.316 0.316-0.808 0.316z" stroke-width=".798" style="font-feature-settings:normal;font-variant-caps:normal;font-variant-ligatures:normal;font-variant-numeric:normal"/></g><g style="font-feature-settings:normal;font-variant-caps:normal;font-variant-ligatures:normal;font-variant-numeric:normal" aria-label="1"><path d="m-53.1-359h-2.33l-2.32-0.0117q-0.82 0-1.15-0.105-0.597-0.211-0.597-0.89 0-1.18 1.84-1.18l0.562 0.0117 0.48 0.0234q0-0.562-0.105-1.66-0.0937-1.1-0.0937-1.65 0-1.49 0.269-4.52 0.258-2.99 0.246-4.53-1.57 1.22-2 1.22-0.468 0-0.82-0.351-0.34-0.351-0.34-0.808 0-0.55 1.01-1.34 0.632-0.445 1.79-1.43 1.03-1.04 1.97-1.04 0.785 0 0.785 0.902 0 0.269-0.0703 0.808-0.0703 0.527-0.0703 0.796 0 0.386 0.0351 1.17 0.0468 0.785 0.0468 1.17 0 1.34-0.281 3.98-0.281 2.65-0.281 3.97 0 0.679 0.0937 1.65 0.0937 0.972 0.105 1.59l1.23-0.0234q0.492 0 0.808 0.328 0.328 0.316 0.328 0.796 0 0.492-0.328 0.808-0.316 0.316-0.808 0.316z" stroke-width=".798" style="font-feature-settings:normal;font-variant-caps:normal;font-variant-ligatures:normal;font-variant-numeric:normal"/></g><g stroke-width=".341" style="font-variant-caps:normal;font-variant-east-asian:normal;font-variant-ligatures:normal;font-variant-numeric:normal" aria-label="hash2"><path d="m-125-444v-6.82h-0.126q-0.453 0-0.626-0.106-0.166-0.106-0.166-0.373 0-0.24 0.133-0.359 0.14-0.12 0.399-0.12h1.01q0.18 0 0.28 0.0732 0.0998 0.0732 0.0998 0.2v3.02q0.486-0.453 0.958-0.666 0.479-0.22 0.992-0.22 1.01 0 1.58 0.626 0.579 0.626 0.579 1.73v3.02h0.313q0.333 0 0.479 0.113 0.146 0.106 0.146 0.346 0 0.24-0.133 0.359t-0.399 0.12h-1.77q-0.313 0-0.426-0.0998-0.106-0.106-0.106-0.379 0-0.266 0.133-0.359 0.14-0.0998 0.519-0.0998h0.233v-2.77q0-0.779-0.353-1.18-0.353-0.413-1.03-0.413-0.686 0-1.2 0.459-0.513 0.459-0.513 1.14v2.77h0.233q0.399 0 0.539 0.0998 0.14 0.0999 0.14 0.359 0 0.273-0.113 0.379-0.106 0.0998-0.419 0.0998h-1.77q-0.26 0-0.393-0.12-0.126-0.12-0.126-0.359 0-0.266 0.153-0.359 0.16-0.0998 0.612-0.0998z" style="font-variant-caps:normal;font-variant-east-asian:normal;font-variant-ligatures:normal;font-variant-numeric:normal"/><path d="m-113-446q-0.366-0.12-0.712-0.173-0.339-0.0599-0.679-0.0599-1.03 0-1.62 0.346-0.592 0.346-0.592 0.932 0 0.453 0.366 0.745 0.373 0.293 0.945 0.293 0.845 0 1.56-0.439 0.726-0.446 0.726-0.925zm0.0533 2.1q-0.546 0.493-1.19 0.752-0.639 0.26-1.32 0.26-0.992 0-1.6-0.552-0.606-0.552-0.606-1.44 0-1.05 0.805-1.63 0.812-0.579 2.28-0.579 0.386 0 0.779 0.0532 0.393 0.0466 0.805 0.153v-0.0466q0-0.765-0.366-1.13t-1.14-0.366q-0.519 0-1.16 0.28-0.639 0.28-0.845 0.28-0.193 0-0.319-0.153-0.126-0.16-0.126-0.406 0-0.393 0.732-0.666 0.739-0.273 1.88-0.273 1.17 0 1.77 0.599 0.599 0.592 0.599 1.76v3.02h0.326q0.473 0 0.632 0.0998 0.16 0.0999 0.16 0.359 0 0.24-0.133 0.359t-0.399 0.12h-1.05q-0.186 0-0.306-0.113-0.12-0.113-0.16-0.326z" style="font-variant-caps:normal;font-variant-east-asian:normal;font-variant-ligatures:normal;font-variant-numeric:normal"/><path d="m-109-444v-1.18q0-0.293 0.106-0.419 0.113-0.126 0.359-0.126 0.273 0 0.433 0.373 0.106 0.226 0.193 0.339 0.28 0.359 0.825 0.579 0.546 0.213 1.2 0.213 0.706 0 1.13-0.286 0.426-0.286 0.426-0.752 0-0.473-0.346-0.672-0.339-0.2-1.17-0.2h-0.366q-1.36 0-2.07-0.473-0.712-0.473-0.712-1.37 0-0.879 0.692-1.36 0.699-0.486 1.96-0.486 0.513 0 1.05 0.146 0.532 0.14 0.559 0.14 0.0732 0 0.28-0.126 0.206-0.133 0.406-0.133 0.226 0 0.333 0.166 0.113 0.166 0.113 0.499v0.779q0 0.353-0.106 0.513-0.106 0.153-0.339 0.153-0.2 0-0.493-0.339-0.206-0.233-0.339-0.353-0.353-0.326-0.752-0.466-0.399-0.146-0.939-0.146-0.626 0-1.01 0.28-0.379 0.273-0.379 0.699 0 0.419 0.393 0.599 0.393 0.18 1.69 0.206 1.38 0.0333 2.02 0.486 0.639 0.446 0.639 1.38 0 0.899-0.706 1.44-0.706 0.539-1.9 0.539-0.379 0-0.845-0.0732-0.466-0.0666-1.17-0.233-0.233 0.153-0.399 0.226-0.166 0.0799-0.28 0.0799-0.233 0-0.359-0.16-0.12-0.166-0.12-0.473z" style="font-variant-caps:normal;font-variant-east-asian:normal;font-variant-ligatures:normal;font-variant-numeric:normal"/><path d="m-100-444v-6.82h-0.126q-0.453 0-0.626-0.106-0.166-0.106-0.166-0.373 0-0.24 0.133-0.359 0.14-0.12 0.399-0.12h1.01q0.18 0 0.28 0.0732 0.0998 0.0732 0.0998 0.2v3.02q0.486-0.453 0.958-0.666 0.479-0.22 0.992-0.22 1.01 0 1.58 0.626 0.579 0.626 0.579 1.73v3.02h0.313q0.333 0 0.479 0.113 0.146 0.106 0.146 0.346 0 0.24-0.133 0.359t-0.399 0.12h-1.77q-0.313 0-0.426-0.0998-0.106-0.106-0.106-0.379 0-0.266 0.133-0.359 0.14-0.0998 0.519-0.0998h0.233v-2.77q0-0.779-0.353-1.18-0.353-0.413-1.03-0.413-0.686 0-1.2 0.459-0.513 0.459-0.513 1.14v2.77h0.233q0.399 0 0.539 0.0998 0.14 0.0999 0.14 0.359 0 0.273-0.113 0.379-0.106 0.0998-0.419 0.0998h-1.77q-0.26 0-0.393-0.12-0.126-0.12-0.126-0.359 0-0.266 0.153-0.359 0.16-0.0998 0.612-0.0998z" style="font-variant-caps:normal;font-variant-east-asian:normal;font-variant-ligatures:normal;font-variant-numeric:normal"/><path d="m-91.9-443q-0.353 0-0.526-0.14-0.166-0.146-0.166-0.446 0-0.433 1.28-1.62l0.193-0.186q0.193-0.186 0.559-0.532 2.3-2.17 2.3-3.16 0-0.712-0.406-1.15-0.406-0.446-1.05-0.446-0.419 0-0.805 0.173-0.379 0.173-0.612 0.466-0.0399 0.0532-0.126 0.18-0.246 0.446-0.552 0.446-0.24 0-0.339-0.146-0.0998-0.146-0.0998-0.559 0-0.24 0.0466-0.346 0.0466-0.113 0.173-0.24 0.426-0.413 1.05-0.652 0.632-0.246 1.29-0.246 1.1 0 1.84 0.712 0.745 0.712 0.745 1.75 0 1.3-2.26 3.47-0.579 0.539-0.885 0.845l-0.819 0.785h3.04q0.0266-0.286 0.153-0.433 0.133-0.153 0.353-0.153t0.346 0.146q0.126 0.146 0.126 0.399 0 0.02-0.0067 0.0732-0.0067 0.0466-0.0067 0.0666l-0.0532 0.513q-0.02 0.206-0.12 0.326-0.0998 0.113-0.26 0.113z" style="font-variant-caps:normal;font-variant-east-asian:normal;font-variant-ligatures:normal;font-variant-numeric:normal"/></g><g stroke-width=".341" style="font-variant-caps:normal;font-variant-east-asian:normal;font-variant-ligatures:normal;font-variant-numeric:normal" aria-label="hash1"><path d="m-150-506v-6.82h-0.126q-0.453 0-0.626-0.106-0.166-0.106-0.166-0.373 0-0.24 0.133-0.359 0.14-0.12 0.399-0.12h1.01q0.18 0 0.28 0.0732 0.0998 0.0732 0.0998 0.2v3.02q0.486-0.453 0.958-0.666 0.479-0.22 0.992-0.22 1.01 0 1.58 0.626 0.579 0.626 0.579 1.73v3.02h0.313q0.333 0 0.479 0.113 0.146 0.106 0.146 0.346t-0.133 0.359q-0.133 0.12-0.399 0.12h-1.77q-0.313 0-0.426-0.0999-0.106-0.106-0.106-0.379 0-0.266 0.133-0.359 0.14-0.0998 0.519-0.0998h0.233v-2.77q0-0.779-0.353-1.18-0.353-0.413-1.03-0.413-0.686 0-1.2 0.459-0.513 0.459-0.513 1.14v2.77h0.233q0.399 0 0.539 0.0998t0.14 0.359q0 0.273-0.113 0.379-0.106 0.0999-0.419 0.0999h-1.77q-0.26 0-0.393-0.12-0.126-0.12-0.126-0.359 0-0.266 0.153-0.359 0.16-0.0998 0.612-0.0998z" style="font-variant-caps:normal;font-variant-east-asian:normal;font-variant-ligatures:normal;font-variant-numeric:normal"/><path d="m-138-508q-0.366-0.12-0.712-0.173-0.339-0.0599-0.679-0.0599-1.03 0-1.62 0.346t-0.592 0.932q0 0.453 0.366 0.745 0.373 0.293 0.945 0.293 0.845 0 1.56-0.439 0.726-0.446 0.726-0.925zm0.0532 2.1q-0.546 0.493-1.19 0.752-0.639 0.26-1.32 0.26-0.992 0-1.6-0.552-0.606-0.552-0.606-1.44 0-1.05 0.805-1.63 0.812-0.579 2.28-0.579 0.386 0 0.779 0.0532 0.393 0.0466 0.805 0.153v-0.0466q0-0.765-0.366-1.13t-1.14-0.366q-0.519 0-1.16 0.28t-0.845 0.28q-0.193 0-0.32-0.153-0.126-0.16-0.126-0.406 0-0.393 0.732-0.666 0.739-0.273 1.88-0.273 1.17 0 1.77 0.599 0.599 0.592 0.599 1.76v3.02h0.326q0.473 0 0.632 0.0998t0.16 0.359q0 0.24-0.133 0.359-0.133 0.12-0.399 0.12h-1.05q-0.186 0-0.306-0.113-0.12-0.113-0.16-0.326z" style="font-variant-caps:normal;font-variant-east-asian:normal;font-variant-ligatures:normal;font-variant-numeric:normal"/><path d="m-134-505v-1.18q0-0.293 0.106-0.419 0.113-0.126 0.359-0.126 0.273 0 0.433 0.373 0.106 0.226 0.193 0.339 0.28 0.359 0.825 0.579 0.546 0.213 1.2 0.213 0.706 0 1.13-0.286 0.426-0.286 0.426-0.752 0-0.473-0.346-0.672-0.339-0.2-1.17-0.2h-0.366q-1.36 0-2.07-0.473-0.712-0.473-0.712-1.37 0-0.879 0.692-1.36 0.699-0.486 1.96-0.486 0.513 0 1.05 0.146 0.532 0.14 0.559 0.14 0.0732 0 0.28-0.126 0.206-0.133 0.406-0.133 0.226 0 0.333 0.166 0.113 0.166 0.113 0.499v0.779q0 0.353-0.106 0.513-0.106 0.153-0.339 0.153-0.2 0-0.493-0.339-0.206-0.233-0.339-0.353-0.353-0.326-0.752-0.466-0.399-0.146-0.939-0.146-0.626 0-1.01 0.28-0.379 0.273-0.379 0.699 0 0.419 0.393 0.599t1.69 0.206q1.38 0.0333 2.02 0.486 0.639 0.446 0.639 1.38 0 0.899-0.706 1.44t-1.9 0.539q-0.379 0-0.845-0.0732-0.466-0.0666-1.17-0.233-0.233 0.153-0.399 0.226-0.166 0.0799-0.28 0.0799-0.233 0-0.359-0.16-0.12-0.166-0.12-0.473z" style="font-variant-caps:normal;font-variant-east-asian:normal;font-variant-ligatures:normal;font-variant-numeric:normal"/><path d="m-125-506v-6.82h-0.126q-0.453 0-0.626-0.106-0.166-0.106-0.166-0.373 0-0.24 0.133-0.359 0.14-0.12 0.399-0.12h1.01q0.18 0 0.28 0.0732 0.0999 0.0732 0.0999 0.2v3.02q0.486-0.453 0.958-0.666 0.479-0.22 0.992-0.22 1.01 0 1.58 0.626 0.579 0.626 0.579 1.73v3.02h0.313q0.333 0 0.479 0.113 0.146 0.106 0.146 0.346t-0.133 0.359q-0.133 0.12-0.399 0.12h-1.77q-0.313 0-0.426-0.0999-0.106-0.106-0.106-0.379 0-0.266 0.133-0.359 0.14-0.0998 0.519-0.0998h0.233v-2.77q0-0.779-0.353-1.18-0.353-0.413-1.03-0.413-0.686 0-1.2 0.459-0.513 0.459-0.513 1.14v2.77h0.233q0.399 0 0.539 0.0998t0.14 0.359q0 0.273-0.113 0.379-0.106 0.0999-0.419 0.0999h-1.77q-0.26 0-0.393-0.12-0.126-0.12-0.126-0.359 0-0.266 0.153-0.359 0.16-0.0998 0.612-0.0998z" style="font-variant-caps:normal;font-variant-east-asian:normal;font-variant-ligatures:normal;font-variant-numeric:normal"/><path d="m-116-512q-0.0865 0.0133-0.133 0.02-0.0399 7e-3 -0.0732 7e-3 -0.206 0-0.339-0.113-0.126-0.12-0.126-0.313 0-0.16 0.113-0.28t0.326-0.18l1.98-0.532q0.0732-0.02 0.14-0.0266 0.0732-0.0133 0.146-0.0133 0.126 0 0.2 0.12 0.0732 0.113 0.0732 0.313v7.2h1.06q0.592 0 0.752 0.0998 0.16 0.0932 0.16 0.359 0 0.24-0.133 0.359-0.133 0.12-0.399 0.12h-3.98q-0.266 0-0.399-0.12-0.133-0.12-0.133-0.359 0-0.266 0.16-0.359 0.16-0.0998 0.752-0.0998h1.1v-6.5z" style="font-variant-caps:normal;font-variant-east-asian:normal;font-variant-ligatures:normal;font-variant-numeric:normal"/></g><g stroke-width=".341" style="font-variant-caps:normal;font-variant-east-asian:normal;font-variant-ligatures:normal;font-variant-numeric:normal" aria-label="hash3"><path d="m-171-398v-6.82h-0.126q-0.453 0-0.626-0.106-0.166-0.106-0.166-0.373 0-0.24 0.133-0.359 0.14-0.12 0.399-0.12h1.01q0.18 0 0.28 0.0732 0.0998 0.0732 0.0998 0.2v3.02q0.486-0.453 0.958-0.666 0.479-0.22 0.992-0.22 1.01 0 1.58 0.626 0.579 0.626 0.579 1.73v3.02h0.313q0.333 0 0.479 0.113 0.146 0.106 0.146 0.346t-0.133 0.359-0.399 0.12h-1.77q-0.313 0-0.426-0.0998-0.106-0.106-0.106-0.379 0-0.266 0.133-0.359 0.14-0.0998 0.519-0.0998h0.233v-2.77q0-0.779-0.353-1.18-0.353-0.413-1.03-0.413-0.686 0-1.2 0.459-0.513 0.459-0.513 1.14v2.77h0.233q0.399 0 0.539 0.0998 0.14 0.0998 0.14 0.359 0 0.273-0.113 0.379-0.106 0.0998-0.419 0.0998h-1.77q-0.26 0-0.393-0.12-0.126-0.12-0.126-0.359 0-0.266 0.153-0.359 0.16-0.0998 0.612-0.0998z" style="font-variant-caps:normal;font-variant-east-asian:normal;font-variant-ligatures:normal;font-variant-numeric:normal"/><path d="m-159-400q-0.366-0.12-0.712-0.173-0.339-0.0599-0.679-0.0599-1.03 0-1.62 0.346-0.592 0.346-0.592 0.932 0 0.453 0.366 0.745 0.373 0.293 0.945 0.293 0.845 0 1.56-0.439 0.726-0.446 0.726-0.925zm0.0532 2.1q-0.546 0.493-1.19 0.752-0.639 0.26-1.32 0.26-0.992 0-1.6-0.552-0.606-0.552-0.606-1.44 0-1.05 0.805-1.63 0.812-0.579 2.28-0.579 0.386 0 0.779 0.0532 0.393 0.0466 0.805 0.153v-0.0466q0-0.765-0.366-1.13t-1.14-0.366q-0.519 0-1.16 0.28-0.639 0.28-0.845 0.28-0.193 0-0.319-0.153-0.126-0.16-0.126-0.406 0-0.393 0.732-0.666 0.739-0.273 1.88-0.273 1.17 0 1.77 0.599 0.599 0.592 0.599 1.76v3.02h0.326q0.473 0 0.632 0.0998 0.16 0.0998 0.16 0.359 0 0.24-0.133 0.359t-0.399 0.12h-1.05q-0.186 0-0.306-0.113t-0.16-0.326z" style="font-variant-caps:normal;font-variant-east-asian:normal;font-variant-ligatures:normal;font-variant-numeric:normal"/><path d="m-155-398v-1.18q0-0.293 0.106-0.419 0.113-0.126 0.359-0.126 0.273 0 0.433 0.373 0.106 0.226 0.193 0.339 0.28 0.359 0.825 0.579 0.546 0.213 1.2 0.213 0.706 0 1.13-0.286 0.426-0.286 0.426-0.752 0-0.473-0.346-0.672-0.339-0.2-1.17-0.2h-0.366q-1.36 0-2.07-0.473t-0.712-1.37q0-0.879 0.692-1.36 0.699-0.486 1.96-0.486 0.513 0 1.05 0.146 0.532 0.14 0.559 0.14 0.0732 0 0.28-0.126 0.206-0.133 0.406-0.133 0.226 0 0.333 0.166 0.113 0.166 0.113 0.499v0.779q0 0.353-0.106 0.513-0.106 0.153-0.339 0.153-0.2 0-0.493-0.339-0.206-0.233-0.339-0.353-0.353-0.326-0.752-0.466-0.399-0.146-0.939-0.146-0.626 0-1.01 0.28-0.379 0.273-0.379 0.699 0 0.419 0.393 0.599 0.393 0.18 1.69 0.206 1.38 0.0333 2.02 0.486 0.639 0.446 0.639 1.38 0 0.899-0.706 1.44-0.706 0.539-1.9 0.539-0.379 0-0.845-0.0732-0.466-0.0666-1.17-0.233-0.233 0.153-0.399 0.226-0.166 0.0799-0.28 0.0799-0.233 0-0.359-0.16-0.12-0.166-0.12-0.473z" style="font-variant-caps:normal;font-variant-east-asian:normal;font-variant-ligatures:normal;font-variant-numeric:normal"/><path d="m-146-398v-6.82h-0.126q-0.453 0-0.626-0.106-0.166-0.106-0.166-0.373 0-0.24 0.133-0.359 0.14-0.12 0.399-0.12h1.01q0.18 0 0.28 0.0732 0.0998 0.0732 0.0998 0.2v3.02q0.486-0.453 0.958-0.666 0.479-0.22 0.992-0.22 1.01 0 1.58 0.626 0.579 0.626 0.579 1.73v3.02h0.313q0.333 0 0.479 0.113 0.146 0.106 0.146 0.346t-0.133 0.359q-0.133 0.12-0.399 0.12h-1.77q-0.313 0-0.426-0.0998-0.106-0.106-0.106-0.379 0-0.266 0.133-0.359 0.14-0.0998 0.519-0.0998h0.233v-2.77q0-0.779-0.353-1.18-0.353-0.413-1.03-0.413-0.686 0-1.2 0.459-0.513 0.459-0.513 1.14v2.77h0.233q0.399 0 0.539 0.0998t0.14 0.359q0 0.273-0.113 0.379-0.106 0.0998-0.419 0.0998h-1.77q-0.26 0-0.393-0.12-0.126-0.12-0.126-0.359 0-0.266 0.153-0.359 0.16-0.0998 0.612-0.0998z" style="font-variant-caps:normal;font-variant-east-asian:normal;font-variant-ligatures:normal;font-variant-numeric:normal"/><path d="m-135-402q0.779 0.213 1.2 0.779 0.433 0.559 0.433 1.37 0 1.16-0.825 1.91-0.825 0.739-2.14 0.739-1.01 0-1.8-0.386-0.785-0.393-0.785-0.859 0-0.2 0.14-0.326 0.146-0.133 0.353-0.133 0.113 0 0.819 0.339 0.712 0.339 1.32 0.339 0.792 0 1.28-0.453 0.499-0.453 0.499-1.17 0-0.592-0.346-0.998-0.339-0.413-0.939-0.526-0.18-0.0333-0.473-0.0532-0.559-0.0333-0.559-0.466 0-0.393 0.546-0.459 0.213-0.02 0.353-0.0466 0.519-0.0799 0.839-0.426 0.319-0.346 0.319-0.839 0-0.632-0.393-1.03t-0.998-0.399q-0.559 0-1.15 0.346-0.586 0.346-0.732 0.346-0.186 0-0.313-0.12-0.12-0.12-0.12-0.3 0-0.406 0.745-0.805 0.745-0.406 1.65-0.406 1.04 0 1.72 0.632 0.692 0.626 0.692 1.54 0 0.699-0.333 1.15-0.326 0.453-1.02 0.706z" style="font-variant-caps:normal;font-variant-east-asian:normal;font-variant-ligatures:normal;font-variant-numeric:normal"/></g></g></g></svg>
