<svg xmlns="http://www.w3.org/2000/svg" width="590" height="270" fill-rule="evenodd" stroke-miterlimit="1.414" clip-rule="evenodd">
  <path fill="#94f59e" fill-opacity=".433" d="M0 130.787V270h588.94v-90.508c-42.527.34-91.892 9.39-123.114 1.74C308.682 185.492 155.843 138.485 0 130.787z"/>
  <path fill="#683c11" fill-rule="nonzero" d="M380.073 36.245c-.685.007-1.378.088-2.068.25-4.444 1.056-7.372 5.466-6.896 9.98.47 4.443 3.95 6.512 7.81 7.116.08-.07.19-.12.34-.12 5.06.05 10.1-2.9 10.04-8.52-.05-5.1-4.44-8.74-9.23-8.69z"/>
  <path fill-rule="nonzero" d="M217.57 200.796c-26.418 4.258-44.346 12.548-44.346 22.078 0 13.876 38.005 25.125 84.89 25.125 46.882 0 84.89-11.25 84.89-25.13 0-8.57-14.49-16.12-36.596-20.66a51.303 37.555 0 0 1-43.856 18.15 51.303 37.555 0 0 1-44.982-19.58z" opacity=".167"/>
  <path fill="#1d1d1b" fill-rule="nonzero" d="M191.98 202.992c-1.873 4.25-4.307 10.012-2.547 14.566l1.192-.255c-1.184-5.36 2.45-12.692 4.775-16.843 2.91-5.187 6.807-9.248 11.172-13.194.773-.698-.263-2.055-1.11-1.446-.93.674-1.824 1.397-2.688 2.16l-.616.56c-4.35 4.012-7.818 9.11-10.177 14.452"/>
  <path fill="#1d1d1b" fill-rule="nonzero" d="M230.41 226.7c2.155 1.01 4.218 1.808 6.626 1.93.946.05 2.384.157 3.264-.188 2.08-1.274 2.22-2.475.42-3.608-.75-.34-1.53-.52-2.344-.535-.1-.01-.18-.05-.255-.11-.5.07-1.1-.22-1.15-.87-.47-5.67-.03-11.44 1.89-16.82-4.04-.6-8.08-1.24-12.1-1.91 0 .04.02.07.02.12-.47 7.78.51 14.63 3.17 21.92.15-.03.31-.02.49.06m-39.6-8.69c.11.02.21.06.33.15 2.44 1.72 5.03 3.05 7.95 3.78 1.46.36 3.01.69 4.52.63 3.67-.12.75-4.45-1.53-4.76-.26-.04-.35-.21-.35-.4-.28-.49-.18-1.25.52-1.48 13.36-4.52 25.49-12.01 29.86-26.16.17-.53.88-.3.81.22-.7 4.98-2.78 9.21-5.72 12.8 18.09 2.32 35.84 6.28 54.11 3.61l.3 1.2c-8.77 2.59-18.15 2.05-27.13.99-4.87-.57-9.73-1.23-14.59-1.94-1.02 5.58-1.57 11-1.04 16.66v.01c1.45-.16 2.99.12 3.98 1.3.96 1.12 1.18 2.98.2 4.18-1.34 1.63-4.47 1.55-6.36 1.41-2.44-.19-4.93-.88-6.99-2.23-.12-.08-.19-.18-.25-.28-.14-.03-.26-.1-.34-.25-3.76-6.63-5.22-14.72-4.07-22.26-5.61 5.59-13.35 9.43-20.72 12.05 2.53 1.21 4.69 4.71 2.04 6.48-1.77 1.17-4.71.51-6.63.13-3.42-.68-6.59-2.16-9.38-4.25-.35-.26-.43-.66-.33-.99-.2-.36-.37-.72-.52-1.09l1.19-.26c.05.24.12.48.19.71"/>
  <path fill="#ca9e67" fill-rule="nonzero" d="M328.79 150.957c.61-.008.568-.854 0-.92-1.347-.165-2.646-.395-3.92-.864-1.282-.468-2.35-1.224-3.567-1.816-.502-.238-1.045.378-.617.797 1.98 1.956 5.384 2.828 8.105 2.803m-3.28 1.57c.55-.04.56-.854 0-.87-2.78-.058-5.13-.93-7.25-2.738-.56-.48-1.36.32-.8.81 2.2 1.93 5.12 2.98 8.06 2.79m-90.93 1.17c.35.1.46-.4.14-.53-3.4-1.42-7.12-1.84-10.75-1.17-.66.12-.37 1.09.27.99 3.57-.57 6.88-.35 10.34.7m-7.69 1.45c1.09-.06 2.18.09 3.24.37.35.1.48-.42.15-.55-2.05-.78-4.9-1.05-6.88.08-.42.23-.12.82.31.73 1.09-.22 2.04-.59 3.18-.65m-20.3 32.11c.77-.7-.26-2.05-1.11-1.45-.93.67-1.82 1.4-2.69 2.16.08-.17.13-.37.09-.58-1.35-6.65-2.02-12.62.32-19.19 2.09-5.9 6.24-10.89 11.53-14.21 11.71-7.33 23.89-3 36.46-1.21 17.34 2.46 37.64-4.22 46.22-20.36 7.42 7.15 16.15 13.04 26.41 15.11 3.12.62 6.31.92 9.5.72.36-.02.75-.03 1.16-.06-1.24 5.2-1.55 10.6-2.87 15.81-1.37 5.46-3.31 10.82-6.05 15.76-4.9 8.85-12.16 15.76-21.46 19.8-.31.14-.47.39-.5.66l-.3-.04c.27-1.79.58-3.58.92-5.39.11-.58-.66-.77-.87-.23-3.85 9.66-4.21 20.96-2.56 31.13.08.44.43.65.82.67.07.11.19.19.37.17l.8-.09c2.06-.23 5.53-.5 4.94 2.39-.76 3.86-5.69 2.37-8.25 2.06-.15-.03-.28.01-.39.06-4.89-4.5-9.16-9.47-12.14-15.46-3.21-6.47-4.23-13.03-4.76-20.17-.08-1.15-1.7-1.14-1.78 0-.25 3.63.1 7.36.96 11.03-18.26 2.67-36.01-1.29-54.1-3.61 2.94-3.58 5.02-7.81 5.72-12.79.07-.52-.64-.75-.81-.22-4.37 14.15-16.5 21.64-29.86 26.16-.7.24-.8.99-.52 1.48-.01.19.09.37.35.4 2.29.31 5.21 4.64 1.54 4.76-1.51.06-3.06-.27-4.52-.63-2.92-.73-5.51-2.06-7.95-3.79-.11-.08-.22-.12-.33-.15-.07-.23-.14-.47-.19-.71-1.18-5.36 2.45-12.69 4.78-16.84 2.91-5.19 6.81-9.25 11.17-13.19"/>
  <path d="M293.75 136.48c19.083 17.99 29.178 16.42 40.665 17.88l1.227-8.59-37.335-15.6z" opacity=".204"/>
  <path fill="#1d1d1b" fill-rule="nonzero" d="M212.992 152.527c-6.256-6.93-7.308-16.235-6.568-25.27-3.272 9.388-2.442 19.697 2.277 28.657 1.34-1.266 2.77-2.4 4.3-3.387m-5.75 4.867c-6.5-11.385-6.34-25.5.09-36.876.58-1.02 1.94-.28 1.78.748-1.74 10.677-1.58 21.578 5.06 30.554 5.69-3.337 12.39-4.817 19.16-4.274 6.59.534 12.94 2.507 19.49 3.28 5.68.674 11.47.32 17.04-.995 10.88-2.58 20.21-8.89 26.55-18.06l.98.68c-8.57 16.14-28.88 22.82-46.21 20.36-12.57-1.79-24.75-6.12-36.46 1.21-5.28 3.32-9.43 8.31-11.52 14.21-2.34 6.57-1.67 12.54-.31 19.19.04.22-.01.41-.09.59l-.61.56c-.38.14-.8.05-1.01-.42-4.12-9.23-1.52-21.2 4.57-28.94.49-.62 1-1.21 1.52-1.78"/>
  <path fill="#ca9e67" fill-rule="nonzero" d="M206.424 127.258c-3.27 9.388-2.44 19.696 2.278 28.656 1.34-1.266 2.77-2.4 4.29-3.387-6.255-6.93-7.307-16.235-6.568-25.27"/>
  <path fill="#1d1d1b" fill-rule="nonzero" d="M223.382 155.068c-.42.23-.123.822.313.73 1.085-.213 2.04-.59 3.18-.648 1.094-.058 2.18.098 3.24.378.353.098.477-.42.148-.543-2.056-.78-4.9-1.052-6.88.083m.575-3.058c-.658.123-.37 1.093.27.994 3.568-.567 6.88-.353 10.342.7.345.106.46-.395.14-.527-3.403-1.422-7.12-1.833-10.752-1.167"/>
  <path fill="#ca9e67" fill-rule="nonzero" d="M226.76 204.718c-.468 7.784.51 14.632 3.166 21.923.148-.02.312-.01.485.06 2.16 1.01 4.22 1.81 6.63 1.93.95.05 2.39.16 3.27-.18 2.08-1.27 2.22-2.47.42-3.61-.75-.33-1.53-.51-2.34-.53-.1-.01-.18-.05-.25-.1-.5.08-1.1-.21-1.16-.87-.47-5.67-.03-11.43 1.89-16.81-4.04-.6-8.08-1.24-12.1-1.9 0 .04.02.08.02.13"/>
  <path fill="#1d1d1b" fill-rule="nonzero" d="M348.758 153.818c1.472.945 5.96 3.198 6.765-.28.7-2.967-2.498-7.382-4.39-9.338-2.218-2.31-4.874-3.715-7.817-4.685.082.164.124.353.074.575-.69 3.436-.337 6.83 1.58 9.84.977 1.537 2.25 2.91 3.788 3.888m-49.14-73.703c2.013-2.565 4.405-4.826 7.11-6.642-8.31-8.335-17.912-14.45-29.38-16.893 3.872 3.61 7.662 7.308 11.32 11.147 3.724 3.913 7.85 7.916 10.95 12.388m-17.164 23.757c2.827.14 7.093.59 9.79-.387.09-.033.172-.04.254-.05-.22-2.794-.09-5.655.453-8.54-12.57-2.68-25.27-1.973-37.03 3.214 5.35 1.7 10.71 3.3 16.21 4.4 3.41.69 6.86 1.18 10.33 1.35m10.71-10.09c.13-.54.25-1.07.4-1.61 1.05-3.8 2.75-7.42 5.01-10.65-4.17-4.03-7.76-8.81-11.77-13.02-4.18-4.4-8.52-8.65-12.99-12.76-.73-.68.07-1.64.88-1.52 12.68 1.93 25.12 8.28 32.87 18.68.83-.51 1.67-1 2.55-1.43 9.78-4.79 20.98-4.22 31.57-4.73 11.44-.56 24.3-3.51 30.56-14.08l.92.56c-4.13 9.26-14.02 13.22-23.54 14.76-12.7 2.06-26.48-.53-38.39 5.36-11.19 5.53-17.74 18.41-16.51 30.72 1.28 12.82 10.63 23.71 22.35 28.47-.27-2.62.39-5.39 2.1-7.66-9.39-.78-16.13-11.09-9.98-19.63 5.73-7.98 19.2-4.66 19.54 5.25l-1.36.23c-1.53-9.14-13.77-11.27-17.69-2.35-3.54 8.04 4.05 15.14 11.94 14.41.88-.09 1.43 1.21.74 1.78-5.65 4.75-3.7 14.42 4.29 14.98 3.88.28 6.72-2.35 7.74-5.94 1.04-3.64-.06-6.76-1.7-9.97-.17-.35-.07-.73.15-.99l1.22-.06c2.35 2.74 3.14 6.65 2.53 10.23l-.06 1.2c-.06 0-.13 0-.19-.01-1.17 4.42-4.56 8.01-9.82 7.66-4.62-.31-7.72-3.23-8.92-6.84-.18.07-.41.07-.66-.03-6-2.35-11.3-6.17-15.43-10.89-.06.06-.14.13-.23.19l-5.87 3.32c6.59 7.07 14.2 13.41 23.43 16.68 4.85 1.71 10.09 2.61 15.25 2.21 1.05-.08 3.91.01 4.7-.69 1.07-.95 1.48-3.32 1.65-4.62.3-2.39.72-4.73 1.15-7.08l1.02.02c-.05 1.3-.07 2.63-.12 3.96 4.75.34 9.05 3.15 11.82 6.97 1.85 2.52 5.39 9.2 1.8 11.71-3.5 2.45-8.88-1.15-11.17-3.72-1.8-2.04-3.06-4.61-3.51-7.29-.22.56-.56 1.02-1.24 1.45-1.1.69-2.84.93-4.46 1.04v.02l-1.17.05c-.41.02-.8.04-1.16.06-3.19.19-6.38-.1-9.5-.73-10.26-2.06-18.99-7.96-26.4-15.11l-.98-.67.12-.17c-1.2-1.19-2.37-2.42-3.5-3.66-.42-.47-.38-1.24.2-1.57l6.96-3.93c-3.9-4.95-6.55-10.78-7.44-17.01-2.31.91-5.62.66-7.98.62-3.15-.04-6.29-.35-9.4-.82-7.64-1.19-15.04-3.53-22.32-6.04-.72-.25-1.03-1.38-.23-1.77 12.51-6.02 27-7.82 40.37-3.65"/>
  <path fill="#ca9e67" fill-rule="nonzero" d="M288.71 98.084c.51.066.74-.658.213-.797-5.976-1.636-12.314-1.84-18.405-.666-.904.18-.502 1.48.37 1.36 6.042-.82 11.787-.76 17.82.11m4.243-3.19c-.54 2.89-.67 5.75-.45 8.54-.08.01-.16.02-.25.05-2.69.98-6.96.53-9.79.39-3.47-.17-6.91-.66-10.32-1.35-5.5-1.1-10.87-2.7-16.21-4.4 11.76-5.18 24.46-5.89 37.03-3.21"/>
  <path fill="#1d1d1b" fill-rule="nonzero" d="M270.518 96.62c-.904.174-.502 1.473.37 1.358 6.042-.822 11.787-.765 17.82.106.51.066.74-.657.215-.797-5.976-1.636-12.314-1.84-18.405-.666m9.815 98.75c-.255 3.63.098 7.36.96 11.04l.305 1.2c2.606 9.79 8.805 19 16.745 24.48.173.12.354.12.51.05.082.14.197.26.353.32 3.494 1.43 10.25 1.2 10.234-4.03-.016-3.43-4.143-4.44-6.847-3.24l.132 1.3c2.055-.23 5.524-.5 4.94 2.4-.764 3.87-5.688 2.37-8.253 2.07-.156-.02-.288.01-.395.07-4.89-4.5-9.166-9.47-12.14-15.46-3.215-6.47-4.234-13.03-4.76-20.17-.083-1.15-1.702-1.14-1.784 0"/>
  <path fill="#ca9e67" fill-rule="nonzero" d="M296.765 70.95c1.718 1.15 3.304 2.45 4.95 3.707.434.328.87-.362.55-.715-2.705-3.034-6.536-5.886-10.342-7.35-.723-.28-1.11.822-.5 1.2 1.758 1.094 3.616 2.007 5.342 3.157m9.963 2.52c-2.705 1.81-5.097 4.07-7.11 6.64-3.1-4.47-7.226-8.48-10.95-12.39-3.658-3.84-7.447-7.54-11.32-11.15 11.468 2.44 21.07 8.55 29.38 16.89"/>
  <path fill="#1d1d1b" fill-rule="nonzero" d="M291.923 66.593c-.724-.28-1.11.82-.502 1.2 1.76 1.093 3.62 2.006 5.35 3.156 1.72 1.15 3.31 2.45 4.95 3.7.44.33.87-.36.55-.72-2.7-3.04-6.53-5.89-10.34-7.35"/>
  <path fill="#ca9e67" fill-rule="nonzero" d="M373.14 53.26c-4.134 9.263-14.024 13.226-23.543 14.763-12.7 2.064-26.486-.526-38.398 5.368-11.19 5.54-17.74 18.42-16.52 30.72 1.2 12.14 9.64 22.54 20.47 27.65l.54.54c7.3 2.78 14.13 1.75 20.96.73l4.92-7.65 14.22-6.2 10.94-7.84c3.05-1.05 6.8-2.76 7.01-9.5-4.35-.77-7.57-2.55-9.98-5.27-.54-.99-.98-2.12-1.26-3.41-.3-1.34 1.76-1.91 2.06-.56 1.48 6.75 8.59 8.7 14.6 6.86 6.45-1.95 10.81-7.24 11.1-13.99.47-10.42-3.38-20.92-7.5-30.32-.17.27-.45.47-.85.49-3.19.16-6.41-.61-8.81-2.36zm-35.594 20.36c.063-.005.13.002.205.026 2.18.698 4.09 2.384 5.35 4.267.99 1.487 2.27 3.96.89 5.597-1.29 1.52-4.09 1.16-5.78.65-2.21-.666-3.99-2.064-5.27-3.955-.71-1.052.98-2.03 1.7-.995.9 1.29 2.11 2.31 3.59 2.878.5.197 1.04.345 1.56.427 1.06.172 2 .338 2.52-.657.67-1.266-.55-2.976-1.32-4.044-.98-1.373-2.24-2.26-3.61-3.23-.39-.275-.25-.93.19-.965zm-10.448 10.173c.068.006.137.026.205.062 2.532 1.34 7.497 6.445 4.192 9.37-1.463 1.3-3.657.668-5.26.01-2.18-.896-3.963-2.384-5.327-4.29-.724-1.02.92-1.933 1.652-.97.895 1.19 1.94 2.177 3.23 2.933.847.485 3.806 2.03 4.662.708 1.397-2.17-2.482-5.705-3.823-6.89-.44-.373-.01-.98.46-.933z"/>
  <path fill="#66c6e9" fill-rule="nonzero" d="M301.188 124.167l-5.878 3.322c6.593 7.07 14.205 13.41 23.428 16.67 4.858 1.72 10.094 2.61 15.257 2.21 1.044-.09 3.912 0 4.702-.69 1.068-.95 1.48-3.32 1.652-4.62.3-2.39.71-4.73 1.15-7.08-1.66.16-3.35.2-5.04.1-.07 0-.13 0-.2-.01-1.17 4.42-4.56 8.01-9.83 7.66-4.63-.32-7.72-3.23-8.92-6.84-.19.06-.41.06-.67-.04-6-2.35-11.3-6.17-15.43-10.9-.07.06-.14.13-.24.19"/>
  <path fill="#1d1d1b" fill-rule="nonzero" d="M303.308 194.598c-3.855 9.66-4.217 20.963-2.565 31.13.074.445.428.65.814.675.066.116.19.19.37.172.222-.024.494-.056.797-.09l-.13-1.298c-1.12-8.59-.626-16.638.665-24.965.27-1.784.58-3.576.92-5.385.1-.584-.66-.773-.88-.24"/>
  <path fill="#1d1d1b" fill-rule="nonzero" d="M303.555 200.262c-.082.674.535 1.505 1.29 1.21 1.11-.437 2.195-.922 3.248-1.456.444 4.07 1.824 8.154 3.288 11.927 1.46 3.757 3.11 8.015 6 10.9.06.058.13.09.21.108-.13.31-.07.67.31.83 2.9 1.24 6.15 1.62 9.29 1.38 2.16-.16 5.07-.4 6.74-1.95.95-.88 1.32-2.13.53-3.27-1.35-1.94-4.29-.97-6.18-1.11-.29-.02-.5.17-.58.4-.13.35-.01.8.41.88.54.1 3.27-.03 3.45.13 2.81 2.56-2.54 3.07-3.35 3.18-3.38.45-6.47-.16-9.75-.92-.1-.02-.21-.01-.31 0v-.05c-1.28-4.01-3.71-7.65-5.18-11.63-1.41-3.82-2.12-7.75-3.18-11.65 5.11-2.89 9.51-6.91 13.1-11.56l1.24.07.05-.98c.01-.21-.11-.37-.26-.46 1-1.38 1.93-2.81 2.79-4.28 3.02-5.18 5.13-10.85 6.6-16.65 1.37-5.41 2.7-11.46 2.35-17.09l-1.17.05c-1.24 5.21-1.55 10.61-2.86 15.82-1.37 5.47-3.31 10.82-6.05 15.76-4.91 8.85-12.16 15.77-21.46 19.8-.31.14-.47.39-.5.66"/>
  <path fill="#ca9e67" fill-rule="nonzero" d="M322.067 209.667c.13.36.682.213.584-.165-.56-2.17-1.06-4.397-1.79-6.526-.19-.55-1.03-.33-.88.246.56 2.178 1.38 4.315 2.1 6.445m.36 3.584c-1.06-1.13-1.94-2.29-2.46-3.78-.43-1.25-.4-2.5-.6-3.79-.06-.44-.75-.39-.84 0-.74 2.88 1.24 6.44 3.52 8.09.31.22.64-.26.4-.52m.43-25.68c-1.88 10.21-.89 22 2.92 31.61.36.88 1.57.74 1.73-.01l.18.06c-.13.35-.01.8.41.88.55.1 3.27-.03 3.46.13 2.81 2.56-2.54 3.07-3.35 3.18-3.38.45-6.47-.16-9.75-.92-.1-.02-.21-.01-.31 0 0-.01 0-.03-.01-.06-1.28-4.01-3.7-7.65-5.18-11.63-1.41-3.82-2.12-7.75-3.18-11.65 5.11-2.89 9.51-6.91 13.11-11.56"/>
  <path fill="#1d1d1b" fill-rule="nonzero" d="M318.253 148.92c-.56-.478-1.365.32-.806.812 2.195 1.932 5.12 2.984 8.057 2.795.55-.04.558-.854 0-.87-2.78-.058-5.138-.93-7.25-2.738m.262 56.76c-.74 2.87 1.233 6.43 3.52 8.08.31.22.64-.27.393-.52-1.07-1.14-1.95-2.3-2.47-3.78-.44-1.25-.41-2.51-.6-3.79-.07-.45-.75-.4-.85 0m2.34-2.71c-.2-.55-1.04-.33-.89.24.56 2.18 1.37 4.32 2.09 6.44.13.36.68.21.58-.17-.57-2.17-1.07-4.4-1.79-6.53m.44-55.62c-.5-.24-1.05.38-.62.79 1.98 1.96 5.38 2.83 8.1 2.81.61-.01.57-.86 0-.92-1.35-.17-2.65-.4-3.92-.87-1.28-.46-2.35-1.22-3.57-1.81m1.25-59.39c-.73-.96-2.38-.05-1.65.97 1.36 1.91 3.15 3.39 5.32 4.29 1.6.66 3.8 1.29 5.26-.01 3.3-2.93-1.66-8.03-4.2-9.37-.54-.29-1.17.44-.68.87 1.34 1.18 5.22 4.72 3.82 6.89-.86 1.32-3.82-.23-4.66-.71-1.29-.76-2.34-1.75-3.23-2.94m.29 99.59c-1.88 10.21-.9 22 2.92 31.61.35.88 1.56.74 1.72-.02.03-.13.02-.29-.02-.45-1.44-5.49-2.88-10.79-3.4-16.48-.46-4.88-.27-9.72 0-14.6l-1.24-.07zm61.3-133.17l-1.33.75c4.12 9.4 7.97 19.9 7.5 30.32-.3 6.74-4.65 12.03-11.11 13.99-6.02 1.83-13.13-.12-14.61-6.87-.29-1.34-2.35-.77-2.05.57.29 1.32.73 2.47 1.29 3.49 1.79 2.99 6.26 4.93 9.59 5.38-.15.86-.17 1.3-1.63 6.08-5.95 14.74-19.83 23.11-35.27 24.78l-.06 1.2c1.69.11 3.38.07 5.04-.1l1.02.02v-.14c13.64-1.8 25.76-12.2 31.06-24.73l.02.01c1.05-2.55 1.61-4.85 2.09-7.12 5.86-.61 9.02-2.72 12.29-5.59.52-.54 1.02-1.1 1.45-1.7 2.15-2.95 2.9-6.41 2.97-9.95.02-1.18.01-1.11-.04-2.21-.14-2.5-.53-5-.95-7.38-1.27-7.25-3.62-14.42-7.29-20.84zm-49.5 24.84c-.72-1.04-2.41-.06-1.7.99 1.27 1.89 3.05 3.28 5.27 3.95 1.68.51 4.48.87 5.77-.65 1.38-1.64.1-4.11-.89-5.6-1.26-1.89-3.16-3.57-5.34-4.27-.59-.19-.84.62-.39.93 1.37.97 2.62 1.86 3.61 3.23.77 1.07 1.99 2.78 1.32 4.04-.52.99-1.46.83-2.51.66-.52-.09-1.07-.23-1.56-.43-1.47-.57-2.69-1.59-3.58-2.88"/>
  <path fill="#ca9e67" fill-rule="nonzero" d="M356.97 123.822c.23-.246-.115-.584-.37-.37-1.266 1.11-2.622 2.08-4.1 2.877-1.358.73-2.838 1.11-4.202 1.78-.346.16-.198.79.206.75 3.19-.37 6.345-2.76 8.466-5.04m-4.464 1.12c.395-.27.034-.9-.378-.64-2.046 1.26-4.176 2.02-6.47 2.68-.607.18-.352 1.07.256.93 2.35-.51 4.603-1.65 6.592-2.99m19.45-17.26c-5.853 15-19.852 23.5-35.438 25.19.61-3.58-.173-7.49-2.523-10.24 0-.01-.01-.01-.017-.01 13.037-3.17 25.935-8.69 37.978-14.95"/>
  <path fill="#fec700" fill-rule="nonzero" d="M343.39 140.09c-.69 3.436-.336 6.83 1.58 9.84.977 1.537 2.25 2.91 3.79 3.888 1.47.945 5.958 3.198 6.764-.28.698-2.967-2.5-7.382-4.39-9.338-2.22-2.31-4.874-3.715-7.817-4.686.082.165.123.354.074.576"/>
  <path fill="#1d1d1b" fill-rule="nonzero" d="M345.66 126.995c-.61.18-.355 1.07.254.937 2.35-.51 4.603-1.652 6.592-2.984.395-.263.033-.896-.378-.64-2.046 1.265-4.176 2.022-6.47 2.687m2.64 1.118c-.346.165-.198.79.206.748 3.19-.37 6.345-2.75 8.466-5.03.23-.24-.115-.58-.37-.37-1.266 1.11-2.622 2.08-4.1 2.88-1.358.73-2.838 1.11-4.202 1.79m30.67-74.82c.082-.07.19-.12.328-.12 4.884.05 9.75-2.8 9.692-8.23-.05-5.63-5.58-9.41-10.908-8.15-4.29 1.02-7.12 5.28-6.66 9.64.462 4.29 3.816 6.29 7.548 6.87m11.985-7.88c-.115 4.13-3.115 7.8-6.89 8.85.026.04.05.08.067.13l-1.332.75c-.164.27-.444.47-.846.49-3.19.17-6.412-.61-8.812-2.36l-.913-.56c.025-.03.05-.07.074-.11-1.63-1.5-2.74-3.54-2.93-6.16-.44-6.01 3.92-11.35 9.95-11.83 6.33-.51 11.83 4.39 11.64 10.83"/>
  <path fill="#1d1d1b" fill-rule="nonzero" d="M374.57 42.616c-.124.568.65.946.954.41.542-.952.937-1.864 1.742-2.654.814-.797 1.8-1.34 2.885-1.668.53-.157.31-.93-.22-.815-2.25.48-4.87 2.33-5.36 4.72"/>
  <path fill="#fff" stroke="#000" d="M263.665 372.842l91.35-19.723 7.265-4.68 40.484-12.46h9.86l32.7-17.65 19.723-11.94 10.38-7.27 1.04-3.12 15.05 5.71 12.457 11.42 9.342 12.45 9.343-7.27 4.67 31.66-4.67 19.72-12.98 11.41-17.13 5.71-58.65 14.01-36.85 6.74-25.95 7.27-19.21 7.26-24.92 13.49-30.11 18.68-17.65 11.42-11.94 2.07h-11.41l-8.31-6.23-5.71-7.79-4.67-10.38-5.19-9.86-1.56-7.27-1.04-10.38 2.59-11.94 4.67-10.38 3.63-8.83 7.27-6.75 8.82-3.64 7.26-1.56z" transform="matrix(.4028 -.0474 .0424 .3602 199.74 -10.238)"/>
  <path fill-rule="nonzero" d="M319.28 120.85c.26-.99.628-1.862 1.135-2.373-.19.313-.348.635-.497.938l-.02.042c-.23.47-.438.934-.62 1.394m-2.504 5.36c.15 2.44 1.46 5.35 3.414 7.59.74.85 1.938 2.01 3.792 2.29 1.313.2 2.66-.32 3.963-.83l.304-.11c.056.55.1 1.05.132 1.51.02.38.03.79.01 1.2-3.62 1.15-6.03.73-8.04-1.41l-.13-.13c-2.09-2.21-4.94-5.25-4.88-8.23.02-1.45.66-4.13 1.82-6.37-.38 1.82-.46 3.61-.4 4.52m4.62 1.8c-.16.34-.08.67.2.89.33.25.85.28 1.24.07.18-.1.33-.25.42-.44.58-1.25 1.09-2.54 1.58-3.79.25-.62.5-1.27.77-1.91l.12.38c-.35 1.19-.92 2.35-1.46 3.47-.65 1.33-1.31 2.7-1.65 4.15-.09.37.06.71.39.91.33.21.77.23 1.09.05.15-.08.34-.24.41-.55.33-1.4.98-2.74 1.62-4.04.16-.32.32-.66.48-.99l.19.74c-.09.1-.15.21-.19.34-.42 1.44-1.09 2.85-1.74 4.22-.21.44-.42.87-.62 1.31-.15.34-.07.67.21.89.33.25.85.28 1.24.07.19-.1.33-.26.42-.45l.6-1.29c.27-.57.54-1.15.8-1.73.03.15.06.32.09.49l-.36.64c-.31.55-.64 1.12-.9 1.7-.11.26-.06.51.08.72-.43.15-.88.29-1.34.41-1.6.41-2.83-.85-3.62-1.84-1.52-1.89-2.55-4.13-2.75-5.98-.06-.59-.06-1.74.07-3.01.06.07.13.13.22.18.34.22.78.24 1.11.05.21-.11.36-.3.42-.54.18-.7.45-1.46.84-2.37.04-.08.07-.17.11-.26.24-.6.61-1.5 1.12-1.78.07-.04.13-.09.19-.14.12.07.25.11.39.12.04.71-.63 1.88-1.09 2.68-.15.27-.28.49-.37.68-.22.43-.44.86-.67 1.29-.44.83-.89 1.68-1.27 2.55-.15.35-.06.68.23.9.33.25.85.27 1.22.06.19-.1.33-.26.42-.46.39-.91.87-1.82 1.33-2.69.22-.42.45-.86.67-1.29-.26.63-.51 1.26-.76 1.89-.49 1.24-1 2.52-1.57 3.75m-3.33 8.67c.29.33.57.65.85.96 2.13 2.46 5.22 3.17 9.18 2.11-.24.82-.69 1.73-1.52 2.19-.57.31-1.27.39-2.09.23-2.05-.4-3.92-2.34-5.43-3.9-.34-.35-.67-.68-.97-.98-1.4-1.36-2.48-2.93-3.23-4.6.9 1.42 2.08 2.75 3.2 3.99m1.12-22.34c-.14.02-.26.06-.37.11-.36.2-.5.59-.35.99.14.36.55.69 1.13.61.45-.06.87-.04 1.28.07-.28.04-.54.13-.8.27-.32.1-.64.24-.95.41-3.06 1.69-4.89 6.35-5.52 9.46.1-2.28.78-4.52 2.08-6.49.23-.36.18-.77-.14-1.05-.33-.29-.83-.35-1.21-.14-.14.08-.25.18-.34.32-3.79 5.78-2.99 13.23 2.04 18.98.78.89 1.7 1.72 2.59 2.52.26.23.52.47.78.71 1.05.96 2.32 2.02 3.82 2.54 1.48.52 3.01.41 4.3-.3 1.1-.61 1.97-1.63 2.44-2.87.75-1.99.5-4.22.18-6.34.11-.29.06-.62-.14-.87v-.03c-.05-.36-.11-.71-.16-1.05-.29-2.05-.72-4.19-1.28-6.36l-.05-.18c-.21-.822-.45-1.753-.75-2.74-.01-.09-.04-.18-.08-.26-.98-3.14-2.74-7.4-6.64-8.29-.67-.16-1.36-.09-1.89-.012"/>
  <path fill-rule="nonzero" d="M329.9 122.986c1.702 4.964 2.128 10.628 1.196 15.95-.18 1.034-.99 4.533-3.78 6.075-.747.42-1.575.65-2.464.68-3.204.14-6.11-3.35-7.668-5.22-2.7-3.24-4.497-6.51-5.34-9.7-.864-3.29-.435-6.9 1.31-11.03 1.144-2.71 2.43-4.42 3.93-5.25.506-.28 1.04-.45 1.585-.51.15-.01.29-.06.42-.13.12-.07.23-.16.32-.28 5.76-.63 8.88 4.78 10.48 9.45m1.54 20.48c-.01.07-.02.15-.01.22l-.23.14c.08-.11.16-.23.23-.35m32.2-27.32c-.11-.25-.33-.44-.62-.52-.31-.09-.65-.05-.92.1-.38.21-.52.59-.35.96.71 1.63.93 3.6.66 5.85-.61.31-1.18.61-1.71.89-.47-1.72-1.05-3.6-2.61-4.9-.34-.27-.79-.31-1.18-.09-.29.16-.48.42-.52.69-.04.26.07.5.29.69 1.31 1.09 1.74 2.76 2.16 4.38l.06.22c-.84.47-1.67.96-2.48 1.44-.34-1.43-.91-3.17-2.2-4.58-.3-.32-.75-.39-1.15-.17-.27.15-.46.41-.52.68-.06.26.02.52.21.73 1.13 1.25 1.56 2.94 1.86 4.45-.52.32-.99.62-1.44.91-.19-1.33-.83-2.53-1.87-3.5-.32-.29-.78-.34-1.17-.12-.28.15-.47.41-.52.68-.05.26.05.51.26.71 1 .94 1.49 2.18 1.37 3.5-.7.46-1.39.93-2.08 1.4-.19-1.62-.5-3.23-.92-4.79-.08-.27-.27-.48-.54-.57-.29-.1-.65-.07-.94.09-.38.21-.54.58-.44.96.5 1.87.83 3.75.98 5.6l-1.12.79c.11-1.81-.03-3.83-1.47-4.88-.35-.25-.8-.27-1.19-.06-.29.16-.49.43-.51.7-.03.25.09.49.33.66 1.2.88.94 3.23.78 4.63l-.04.32c-.01.04-.01.09-.01.13l-.48.35c.25-1.98-.1-4.01-1-5.78-.15-.28-.38-.39-.54-.43-.25-.06-.53-.02-.78.11-.4.22-.68.7-.43 1.19 1.02 2 1.13 4.5.29 6.69l-1.62 1.18c-1.63 1.19-3.09 2.33-4.43 3.44.91-2.12 1.4-4.57 1.43-7.3.02-1.59-.15-3.3-.53-5.37-.16-.84-.37-1.74-.68-2.85-.1-.34-.21-.69-.32-1.04.15-.15.57-.45 1.27-.92l.23-.16c1.91-1.41 4.06-2.78 6.38-4.06 2.55-1.41 5.34-2.73 8.5-4.05 4.82-2 10.49-4.15 16.15-4.96 1.3 3.32 1.61 6.59.88 9.22-.05.15-.05.31-.01.45-.98.41-1.85.78-2.65 1.14-.42.19-.87.4-1.37.64.12-2.03-.16-3.83-.83-5.36m4.87-8.85c-1.24-2.55-4.04-6.87-9.04-7.84l.1-.07c.32-.19.67-.35 1.01-.51l.8-.38c.52-.25 1.03-.5 1.56-.74 1.01-.47 2.09-.87 3.13-1.25 1.1-.41 2.25-.84 3.34-1.35 1.53-.72 3.17-1.47 4.92-2.06.95-.32 2.52-.86 3.62-.63.1.04.2.077.31.09.21.08.38.19.52.34.21.22.49.32.78.28 3.51 2.37 5.87 6.26 7.34 8.99.8 1.488 1.42 3.237 1.95 5.5.42 1.79.75 3.85.02 5.58-6.86 1.86-12.61 3.47-18.3 5.65.87-4.26-.63-8.64-2.08-11.61m-30.86 9.54c.06-.21.01-.43-.13-.63-1.68-2.393-3.38-4.7-5.62-6.523l2.74-.85c.07.06.14.104.23.15 1.42.67 2.26 1.96 3.07 3.21.3.45.6.914.92 1.34.35.46.96.467 1.39.23.24-.13.4-.33.46-.546.05-.22 0-.43-.15-.63-.33-.44-.64-.91-.94-1.36-.75-1.12-1.515-2.27-2.635-3.12l.504-.16c.77.49 1.33 1.17 1.93 1.89.63.77 1.29 1.57 2.23 2.11.31.18.66.19.97.02.3-.17.5-.48.51-.803.01-.3-.15-.577-.44-.74-.58-.33-1.04-.89-1.48-1.43-.12-.15-.23-.29-.35-.43-.36-.43-.77-.88-1.22-1.29l.53-.17c.05.04.1.07.15.1 1.61.87 2.88 2.15 3.41 3.42.1.26.32.45.61.53.295.09.65.05.92-.1.38-.21.52-.58.36-.96-.57-1.38-1.68-2.69-3.14-3.72l.47-.15c.07.07.15.13.25.18 1.48.75 2.09 2.14 2.586 3.5.1.265.31.46.59.55.3.096.65.06.93-.09.38-.21.53-.58.39-.966-.52-1.42-1.19-2.87-2.5-3.9l.65-.22c.05.04.1.08.15.11 1.41.84 2.37 2 2.79 3.35.09.27.29.47.56.57.3.1.65.065.94-.09.38-.21.54-.58.42-.96-.45-1.45-1.342-2.69-2.66-3.71 3.608-1.24 6.8-2.43 9.748-3.63.14.11.33.17.53.19 3.38.28 6.24 2.67 8.49 7.09.04.08.08.167.12.25-5.94.9-11.836 3.21-16.91 5.32-2.675 1.11-5.26 2.358-7.69 3.7-3.24 1.787-6.26 3.79-9 5.95-.26.21-.38.577-.28.88 1.8 5.37 3.03 12.924-1.21 18.596.34-.627.62-1.3.85-2.03.86-2.77.85-5.72.84-8.57v-.19c-.003-2.1-.32-4.398-.95-7.027-.78-3.2-3.16-10.63-8.94-12.73 2.16-.7 4.28-1.37 6.12-1.94 2.595 1.8 4.37 4.33 6.09 6.77.33.48.954.49 1.37.26.235-.13.404-.33.464-.55m73.28-14.49c-.13-.16-.31-.27-.52-.32-.31-.07-.66.01-.92.21-.05-.08-.12-.14-.2-.19l.56-.31.61-.34c.65-.36 1.27-.63 1.9-.81.19-.055.34-.06.44-.01.19.09.29.42.37.704l.03.11c-.07.03-.13.08-.19.12-.32-.36-.88-.46-1.31-.22-.14.08-.25.18-.34.31-.16.24-.31.48-.44.73m-7.74 6.62V109c.27.077.583.04.85-.11.06-.03.12-.07.17-.114.03.04.062.07.1.106-.37.13-.75.26-1.13.38.01-.04.01-.09.01-.13m-5.26 1.66l.02-.11c.22.04.45.02.645-.07.06.02.12.03.18.04-.28.09-.57.17-.86.25.01-.03.02-.07.02-.1m-1.69.59l-.38.103c.01-.17.02-.34.02-.51l.12.03c.05.15.13.28.24.38m5.29-1.58l-.09.03-.01-.08h.03c.02.02.05.04.07.06m14.74-16.66c-.3-.31-.76-.37-1.15-.16-.275.15-.47.404-.52.68-.05.26.04.514.23.72 2.25 2.31 3.55 5.88 3.28 8.93-.71.37-1.49.742-2.35 1.13-.01-.727-.1-1.457-.26-2.178l-.02-.08c-.19-.85-.58-2.627-1.616-3.02-1.61-.61-3.41.21-4.62.88-.63.35-1.24.735-1.82 1.11-.55.352-1.07.69-1.53.923-1.4.734-2.97 1.285-4.49 1.82-.38.13-.76.26-1.136.4-.61.215-1.25.39-1.87.56-.84.23-1.71.464-2.54.82-1.84.79-1.88 2.874-1.92 4.7-.01.6-.02 1.176-.1 1.65-.89.25-1.79.49-2.68.737.66-2.68-.05-6.24-2.1-10.59 6.26-2.32 11.71-4.77 16.67-7.52 7.07-3.907 13.07-8.41 17.82-13.387 1.11 3.584 2.17 7.402 2.26 11.332.09 3.89-1.46 6.71-5.04 9.13-.2.14-.42.28-.65.423-.06-3.2-1.51-6.617-3.85-9.03m-28.74.17c.3.1.65.06.93-.09.38-.21.54-.58.41-.96-.41-1.24-1.49-2.43-2.94-3.25.36-.21.74-.44 1.17-.7 1.45.83 2.336 1.72 2.79 2.79.11.254.33.443.62.53.31.09.65.05.92-.1.38-.21.52-.59.36-.966-.55-1.31-1.51-2.4-2.93-3.35.37-.23.73-.47 1.1-.7 1.4.44 2.36 1.4 3.38 2.41.7.7 1.43 1.43 2.32 1.97.31.19.66.2.97.03.29-.16.49-.47.51-.79.01-.31-.145-.58-.43-.76-.887-.54-1.61-1.25-2.31-1.93-.786-.77-1.597-1.56-2.65-2.13.84-.57 1.72-1.17 2.68-1.84l.49-.33c2.39 1.14 4.35 2.96 6.15 5.71.14.2.34.34.58.39.255.05.54.01.78-.12.414-.23.67-.71.36-1.19-1.81-2.76-3.77-4.67-6.12-5.96 3.07-2.02 6.23-4.13 8.02-7.21 2.82.08 5.52 1.37 8.02 2.76 2.06 1.15 4.974 2.96 6.5 5.4l.01.02c-4.1 3.75-8.99 7.2-14.55 10.27-4.83 2.67-10.11 5.05-16.14 7.28-.09.03-.16.07-.23.12-1.29-2.41-3.83-6.36-7.58-8.83 1.08-.51 2.16-1.07 3.29-1.68 1.2.48 2.56 1.41 2.97 2.65.09.27.29.46.57.56m-68.34 51.94c2.57 2.08 5.21 2.76 7.65 1.97.47-.15.93-.34 1.38-.58.15.05.32.07.495.05 1.23-.17 2.44-.59 3.7-1.29 1.81-1 3.41-2.39 4.96-3.75.9-.78 1.74-1.51 2.59-2.15.81-.6 1.61-1.21 2.42-1.81.23-.07.41-.21.54-.4 2.21-1.64 4.03-2.96 5.73-4.15.33-.05.6-.24.72-.5.86-.6 1.76-1.21 2.75-1.86.24.04.47.01.67-.1.15-.08.34-.25.4-.56l.01-.06c2.31-1.49 4.65-2.89 6.96-4.17 2.22-1.22 4.46-2.36 6.67-3.38 5.21-2.41 10.8-4.14 15.57-5.52 2.563-.74 5.18-1.46 7.72-2.15 7.33-2 14.9-4.07 22.07-6.99l.83-.34 1.18-.48c.31.15.69.15.97-.01.15-.08.34-.25.41-.56v-.01c1.8-.77 3.23-1.45 4.47-2.13 4.21-2.33 6.65-4.99 7.44-8.13 1.3-5.15-.51-10.78-2.11-15.76l-.4-1.27c-.09-.26-.33-.49-.63-.59-.28-.1-.58-.07-.81.06-.09.05-.17.11-.23.18-.83.92-1.73 1.85-2.67 2.77-1.67-2.39-4.41-4.17-6.91-5.6-3.69-2.13-6.84-3.11-9.63-3.01-.37.01-.73.21-.87.48-1.62 3.14-4.844 5.25-7.97 7.29-.74.49-1.52 1-2.24 1.5-2.81 1.95-6.155 4.21-9.71 6.18-1.55.86-3.03 1.6-4.52 2.27l-.13-.06c-.374-.17-.813-.1-1.123.15-.93.01-1.87.22-2.6.41-2.19.57-4.26 1.54-6.26 2.48l-.682.32c-1.32.61-2.71 1.16-4.05 1.68-1.36.54-2.763 1.09-4.11 1.71-.297.14-.645.31-1.017.51-.92.51-1.46.98-1.68 1.44-7.98 3.27-16.4 5.87-24.54 8.4-4.15 1.28-8.44 2.61-12.62 4.01-.1.03-.19.07-.27.13-.46.03-.89.08-1.32.16-.31.05-.55.22-.67.45-.53.14-1.05.34-1.53.61-1.55.85-2.84 2.31-4.08 4.58-1.52 2.78-2.43 5.85-2.62 8.88-.49 7.6 4.92 14.81 9.69 18.68"/>
  <path fill-rule="nonzero" d="M372.97 106.485c-.332-.29-.827-.35-1.2-.143-.14.077-.257.186-.346.325-.48.742-.824 1.54-1.16 2.312l-.07.16c-.09.2-.075.43.04.64.127.23.358.4.62.46.493.12 1.02-.16 1.217-.61l.05-.12c.31-.71.59-1.37 1-2 .23-.36.18-.77-.14-1.05m11.74-.72l.03-.03c.42-.5.85-1.02 1.22-1.57.24-.36.19-.76-.13-1.04-.33-.3-.84-.36-1.22-.15-.13.07-.25.18-.34.31-.34.52-.76 1.02-1.16 1.5-.04-.12-.11-.24-.23-.34-.3-.27-.84-.33-1.2-.13-.08.04-.16.1-.22.17-.25.3-.46.61-.66.93-.03-.1-.08-.19-.15-.27-.27-.33-.81-.51-1.3-.24-.06.03-.12.08-.18.12-.31.26-.57.58-.79.93-.03-.13-.1-.26-.21-.37-.33-.32-.89-.39-1.29-.16-.12.06-.22.15-.31.27l-.18.23-.41.53c.02-.24-.08-.47-.28-.64-.33-.29-.84-.35-1.21-.15-.14.07-.25.18-.34.32l-.04.06c-.52.79-1.05 1.6-1.41 2.47-.14.35-.05.68.25.9.33.24.84.27 1.21.06.2-.11.34-.27.43-.48.05-.13.12-.26.18-.39-.03.28.08.53.32.71.34.24.83.26 1.19.06.2-.11.35-.28.43-.49.2-.53.54-1.02.9-1.49-.2.44-.05.91.38 1.13.31.16.72.15 1.03-.02.15-.08.27-.2.34-.33.24-.44.46-.83.67-1.18l.04-.07c.09-.15.19-.29.28-.43.02.19.11.38.28.52.34.29.83.35 1.21.14.14-.08.26-.18.35-.32.1-.15.19-.31.28-.47.16-.27.32-.55.51-.77.03-.03.05-.07.08-.1.08.2.24.39.43.49.31.16.67.15.99-.03.14-.07.25-.17.35-.29"/>
  <path fill="#ca9e67" fill-rule="nonzero" stroke="#1d1d1b" stroke-width="1.994" d="M363.48 92.676c1.48 6.748 10.612 9.002 16.63 7.168 6.452-1.956 10.808-7.24 11.104-13.99.47-10.424-3.378-20.92-7.505-30.325" stroke-linecap="round"/>
  <path d="M281.568 203.923c-6.395.277-12.85-.792-18.973-2.536-9.643-1.41-30.926-5.798-34.762-.075-8.417 6.603 11.39 1.834 16.246 4.603 6.52 1.62 13.34 1.312 19.94 2.582 5.91.56 12.1-.2 17.6-2.15.64-.676.33-1.713-.06-2.424z" opacity=".165"/>
  <path d="M228.814 204.618c.14 7.275 1.117 15.014 2.765 23.127l-2.08-.943-2.96-9.867-.76-7.038.56-6.347 2.57 1.32z" opacity=".208"/>
  <path d="M282.357 197.58c3.193 10.885 10.03 23.26 17.388 34.07-6.35-2.273-10.358-9.144-13.756-14.538-2.64-5.37-5.46-11.416-4.66-17.498l.48-.97.73-.813m28.12-.37c3.69 12.17 4.4 15.73 12.64 27.1-7.92-.66-9.54-9.02-11.56-13.27-1.57-4.23-3.24-8.99-2.77-13.78l.29-.76" opacity=".133"/>
  <path d="M303.41 197.202c11.964-13.19 23.128-27.41 28.154-49.52l3.77-.378-3.016 19.608-6.033 14.202-6.662 8.924-8.546 7.542-8.044 3.52z" opacity=".145"/>
  <path d="M303.912 76.417c-9.305-9.24-18.43-15.94-27.4-20.487 7.792.567 16.935 3.978 31.045 17.847zm-11.325 22.388c-12.896-2.383-24.208-2.768-34.18-1.465 6.753-3.926 16.227-6.266 35.7-2.77z" opacity=".129"/>
  <path d="M210.314 155.235c-7.778-14.833-3.534-24.174-4.557-28.57-2.19-6.928-3.782 33.818 4.557 28.57z" opacity=".173"/>
  <path d="M204.693 188.612l2.313 1.735c-10.094 8.826-13.647 18.842-15.322 29.2l-2.313-3.76c1.32-12.85 6.3-22.032 15.33-27.175z" opacity=".141"/>
  <path d="M422.163 101.214l4.346-4.888c-32.07 7.733-75.26 25.558-96.21 38.508l-1.57 9.02-1.36 2.173 10.59-5.704c9.19-14.7 52.56-26.387 84.19-39.11z" opacity=".082"/>
</svg>
