<svg xmlns="http://www.w3.org/2000/svg" fill-rule="evenodd" stroke-miterlimit="1.41" viewBox="0 0 800 500" clip-rule="evenodd" stroke-linejoin="round">
  <path fill="#cfd2d1" fill-rule="nonzero" d="M723.98 425.56c0 4.97-4.03 9-9 9H85.02c-4.97 0-9-4.03-9-9s4.03-9 9-9h629.96c4.97 0 9 4.03 9 9"/>
  <path fill="#e72b48" fill-rule="nonzero" d="M125.53 402.06H114.9v-299.3c0-8.8 7.15-15.96 15.95-15.96h1.17c8.8 0 15.95 7.16 15.95 15.95V240.5c0 2.92 2.28 5.3 5.08 5.3 2.8 0 5.07-2.38 5.07-5.3V102.74c0-8.8 7.16-15.95 15.95-15.95h1.18c8.8 0 15.95 7.1 15.95 15.9v130.9c0 2.9 2.4 5.3 5.32 5.3h2c2.94 0 5.33-2.4 5.33-5.4V106.4c0-8.8 7.04-15.94 15.7-15.94 8.67 0 15.7 7.15 15.7 15.94v129.5c0 2.93 2.4 5.3 5.33 5.3h2.84c2.93 0 5.32-2.37 5.32-5.3V106.67c0-8.8 7.15-15.95 15.95-15.95h3.6c8.8 0 15.9 7.15 15.9 15.95v129.28c0 2.93 2.4 5.3 5.3 5.3h1.1c2.4 0 4.2-.34 5.3-.7v-1.78h10.6v3.9c0 5.6-6.3 9.23-16 9.23h-1.2c-8.8 0-16-7.16-16-15.95V106.67c0-2.94-2.4-5.32-5.3-5.32h-3.7c-3 0-5.3 2.38-5.3 5.32v129.28c0 8.8-7.2 15.95-16 15.95h-2.9c-8.8 0-16-7.16-16-15.95V106.47c0-2.93-2.3-5.3-5.1-5.3s-5.1 2.37-5.1 5.3v127.2c0 8.8-7.2 15.95-16 15.95h-2c-8.8 0-16-7.15-16-15.95V102.75c0-2.93-2.4-5.3-5.4-5.3h-1c-3 0-5.3 2.37-5.3 5.3V240.5c0 8.78-7.1 15.94-15.8 15.94S137 249.28 137 240.5V102.7c0-2.93-2.4-5.3-5.3-5.3h-1.2c-3 0-5.3 2.37-5.3 5.3V402z"/>
  <path fill="#f9bd38" fill-rule="nonzero" d="M278.26 135.9c-1.9-.76-2.82-2.9-2.06-4.8.75-1.9 2.9-2.8 4.78-2.06 1.9.75 2.82 2.9 2.07 4.8-.76 1.88-2.9 2.8-4.8 2.05m17.17 5.4l2.1-5.3-3.14-1.3c.32-2 .22-4-.24-5.9l3.26-1.4-2.25-5.2-3.4 1.4c-1.08-1.6-2.47-2.9-4.12-3.9l1.4-3.5-5.3-2.2-1.4 3.5c-1.9-.4-3.8-.4-5.64 0l-1.5-3.5-5.3 2.2 1.4 3.3c-1.6 1-3 2.4-4.2 4l-3.3-1.3-2.1 5.3 3.1 1.2c-.5 2-.5 4.1-.1 6l-2.9 1.2 2.2 5.2 2.7-1.2c1.1 1.8 2.6 3.3 4.4 4.4L270 147l5.3 2.1 1-2.7c2.1.4 4.3.4 6.3-.1l1.2 2.7 5.2-2.2-1.2-2.8c1.7-1.2 3.1-2.7 4.2-4.5l3 1.16z"/>
  <path fill="#fff" fill-rule="nonzero" d="M283.05 133.83c.75-1.9-.17-4.04-2.07-4.8-1.9-.74-4.03.18-4.78 2.07-.76 1.9.17 4.04 2.06 4.8 1.9.74 4.03-.18 4.8-2.07"/>
  <path fill="#22648a" fill-rule="nonzero" d="M116.63 135.9c-1.9-.76-2.8-2.9-2.06-4.8.75-1.9 2.9-2.8 4.8-2.06 1.88.75 2.8 2.9 2.05 4.8-.75 1.88-2.9 2.8-4.8 2.05m17.17 5.4l2.1-5.3-3.2-1.3c.3-2 .2-4-.3-5.9l3.2-1.4-2.3-5.2-3.4 1.4c-1.1-1.6-2.5-2.9-4.1-3.9l1.4-3.5-5.3-2.2-1.4 3.5c-1.9-.4-3.8-.4-5.7 0l-1.5-3.5-5.2 2.2 1.4 3.3c-1.6 1-3.1 2.4-4.2 4l-3.3-1.3-2.1 5.3 3.1 1.2c-.5 2-.5 4.1-.1 6L100 136l2.2 5.2 2.7-1.2c1.1 1.8 2.6 3.3 4.4 4.47l-1.1 2.7 5.3 2.1 1-2.7c2.1.4 4.24.4 6.3-.1l1.13 2.7 5.2-2.27-1.2-2.8c1.6-1.2 3.04-2.7 4.13-4.5l3 1.16z"/>
  <path fill="#fff" fill-rule="nonzero" d="M121.42 133.83c.75-1.9-.17-4.04-2.06-4.8-1.9-.74-4.04.18-4.8 2.07-.74 1.9.18 4.04 2.07 4.8 1.9.74 4.04-.18 4.8-2.07"/>
  <path fill="#22648a" fill-rule="nonzero" d="M94.3 402.26l9.57-9.56h32.7l9.96 9.96-52.23-.4z"/>
  <path fill="#eabea7" fill-rule="nonzero" d="M694 161.23h-9.58V145.2h-93.56v-9.58H694v25.6z"/>
  <path fill="#eabea7" fill-rule="nonzero" d="M644.55 161.23h-9.57V145.2h-93.56v-9.58h103.13v25.6z"/>
  <path fill="#f9bd38" fill-rule="nonzero" d="M639.98 171.78c-3.18 0-5.76-.9-5.76-2s2.58-1.98 5.76-1.98c3.18 0 5.76.9 5.76 2s-2.58 1.98-5.76 1.98"/>
  <path fill="#f9bd38" fill-rule="nonzero" d="M639.98 174.62c-3.18 0-5.76-.9-5.76-2s2.58-1.97 5.76-1.97c3.18 0 5.76.88 5.76 1.98s-2.58 2-5.76 2"/>
  <path fill="#f9bd38" fill-rule="nonzero" d="M639.98 177.46c-3.18 0-5.76-.9-5.76-2 0-1.08 2.58-1.98 5.76-1.98 3.18 0 5.76.9 5.76 2s-2.58 1.98-5.76 1.98"/>
  <path fill="#f9bd38" fill-rule="nonzero" d="M639.98 180.3c-3.18 0-5.76-.9-5.76-1.98 0-1.1 2.58-2 5.76-2 3.18 0 5.76.9 5.76 2s-2.58 2-5.76 2"/>
  <path fill="#f9bd38" fill-rule="nonzero" d="M639.98 183.15c-3.18 0-5.76-.9-5.76-2s2.58-1.98 5.76-1.98c3.18 0 5.76.9 5.76 2s-2.58 1.98-5.76 1.98"/>
  <path fill="#f9bd38" fill-rule="nonzero" d="M639.98 186c-3.18 0-5.76-.9-5.76-2s2.58-2 5.76-2c3.18 0 5.76.9 5.76 2s-2.58 2-5.76 2"/>
  <path fill="#f9bd38" fill-rule="nonzero" d="M639.98 188.83c-3.18 0-5.76-.9-5.76-2s2.58-1.98 5.76-1.98c3.18 0 5.76.9 5.76 2s-2.58 1.98-5.76 1.98"/>
  <path fill="#f9bd38" fill-rule="nonzero" d="M639.98 191.67c-3.18 0-5.76-.9-5.76-2s2.58-1.98 5.76-1.98c3.18 0 5.76.8 5.76 1.9s-2.58 2-5.76 2"/>
  <path fill="#f9bd38" fill-rule="nonzero" d="M639.98 194.5c-3.18 0-5.76-.88-5.76-1.98s2.58-2 5.76-2c3.18 0 5.76.9 5.76 2s-2.58 2-5.76 2"/>
  <path fill="#f9bd38" fill-rule="nonzero" d="M639.98 197.35c-3.18 0-5.76-.9-5.76-2s2.58-1.98 5.76-1.98c3.18 0 5.76.9 5.76 2s-2.58 1.98-5.76 1.98"/>
  <path fill="#f9bd38" fill-rule="nonzero" d="M639.98 200.2c-3.18 0-5.76-.9-5.76-2s2.58-2 5.76-2c3.18 0 5.76.9 5.76 2s-2.58 2-5.76 2"/>
  <path fill="#f9bd38" fill-rule="nonzero" d="M639.98 203.03c-3.18 0-5.76-.9-5.76-1.98 0-1.1 2.58-2 5.76-2 3.18 0 5.76.9 5.76 2s-2.58 1.98-5.76 1.98"/>
  <path fill="#f9bd38" fill-rule="nonzero" d="M639.98 205.88c-3.18 0-5.76-.9-5.76-2s2.58-1.98 5.76-1.98c3.18 0 5.76.9 5.76 2 0 1.08-2.58 1.98-5.76 1.98"/>
  <path fill="#f9bd38" fill-rule="nonzero" d="M639.98 208.72c-3.18 0-5.76-.9-5.76-2s2.58-1.98 5.76-1.98c3.18 0 5.76.9 5.76 2 0 1.08-2.58 1.98-5.76 1.98"/>
  <path fill="#f9bd38" fill-rule="nonzero" d="M639.98 211.56c-3.18 0-5.76-.9-5.76-2s2.58-1.98 5.76-1.98c3.18 0 5.76.9 5.76 2s-2.58 1.98-5.76 1.98"/>
  <path fill="#f9bd38" fill-rule="nonzero" d="M639.98 214.4c-3.18 0-5.76-.9-5.76-2s2.58-1.98 5.76-1.98c3.18 0 5.76.9 5.76 2s-2.58 1.98-5.76 1.98"/>
  <path fill="#f9bd38" fill-rule="nonzero" d="M639.98 217.24c-3.18 0-5.76-.9-5.76-2s2.58-1.98 5.76-1.98c3.18 0 5.76.9 5.76 2s-2.58 1.98-5.76 1.98"/>
  <path fill="#f9bd38" fill-rule="nonzero" d="M639.98 220.08c-3.18 0-5.76-.9-5.76-2s2.58-1.98 5.76-1.98c3.18 0 5.76.9 5.76 2s-2.58 1.98-5.76 1.98"/>
  <path fill="#f9bd38" fill-rule="nonzero" d="M639.98 222.92c-3.18 0-5.76-.9-5.76-2s2.58-1.98 5.76-1.98c3.18 0 5.76.9 5.76 2s-2.58 1.98-5.76 1.98"/>
  <path fill="#f9bd38" fill-rule="nonzero" d="M639.98 225.76c-3.18 0-5.76-.9-5.76-2s2.58-1.98 5.76-1.98c3.18 0 5.76.9 5.76 2s-2.58 1.98-5.76 1.98"/>
  <path fill="#f9bd38" fill-rule="nonzero" d="M639.98 228.6c-3.18 0-5.76-.9-5.76-2 0-1.08 2.58-1.97 5.76-1.97 3.18 0 5.76.9 5.76 1.98 0 1.1-2.58 2-5.76 2"/>
  <path fill="#f9bd38" fill-rule="nonzero" d="M639.98 231.44c-3.18 0-5.76-.9-5.76-1.98 0-1.1 2.58-2 5.76-2 3.18 0 5.76.9 5.76 2s-2.58 1.98-5.76 1.98"/>
  <path fill="#f9bd38" fill-rule="nonzero" d="M639.98 234.3c-3.18 0-5.76-.9-5.76-2s2.58-2 5.76-2c3.18 0 5.76.9 5.76 2s-2.58 2-5.76 2"/>
  <path fill="#f9bd38" fill-rule="nonzero" d="M639.98 237.13c-3.18 0-5.76-.9-5.76-2s2.58-1.98 5.76-1.98c3.18 0 5.76.9 5.76 2s-2.58 1.98-5.76 1.98"/>
  <path fill="#f9bd38" fill-rule="nonzero" d="M639.98 239.97c-3.18 0-5.76-.9-5.76-2s2.58-1.98 5.76-1.98c3.18 0 5.76.8 5.76 1.9s-2.58 2-5.76 2"/>
  <path fill="#f9bd38" fill-rule="nonzero" d="M639.98 242.8c-3.18 0-5.76-.88-5.76-1.98s2.58-2 5.76-2c3.18 0 5.76.9 5.76 2s-2.58 2-5.76 2"/>
  <path fill="#f9bd38" fill-rule="nonzero" d="M639.98 245.65c-3.18 0-5.76-.9-5.76-2s2.58-1.98 5.76-1.98c3.18 0 5.76.9 5.76 2s-2.58 1.98-5.76 1.98"/>
  <path fill="#f9bd38" fill-rule="nonzero" d="M639.98 248.5c-3.18 0-5.76-.9-5.76-2s2.58-2 5.76-2c3.18 0 5.76.9 5.76 2s-2.58 2-5.76 2"/>
  <path fill="#f9bd38" fill-rule="nonzero" d="M639.98 251.33c-3.18 0-5.76-.9-5.76-2s2.58-1.98 5.76-1.98c3.18 0 5.76.9 5.76 2s-2.58 1.98-5.76 1.98"/>
  <path fill="#f9bd38" fill-rule="nonzero" d="M639.98 254.17c-3.18 0-5.76-.9-5.76-2 0-1.08 2.58-1.98 5.76-1.98 3.18 0 5.76.9 5.76 1.9 0 1.1-2.58 2-5.76 2"/>
  <path fill="#f9bd38" fill-rule="nonzero" d="M639.98 257.02c-3.18 0-5.76-.9-5.76-2s2.58-1.98 5.76-1.98c3.18 0 5.76.9 5.76 2 0 1.08-2.58 1.98-5.76 1.98"/>
  <path fill="#f9bd38" fill-rule="nonzero" d="M639.98 259.86c-3.18 0-5.76-.9-5.76-2s2.58-1.98 5.76-1.98c3.18 0 5.76.9 5.76 2 0 1.08-2.58 1.98-5.76 1.98"/>
  <path fill="#f9bd38" fill-rule="nonzero" d="M639.98 262.7c-3.18 0-5.76-.9-5.76-2s2.58-1.98 5.76-1.98c3.18 0 5.76.9 5.76 2s-2.58 1.98-5.76 1.98"/>
  <path fill="#f9bd38" fill-rule="nonzero" d="M639.98 265.54c-3.18 0-5.76-.9-5.76-2s2.58-1.98 5.76-1.98c3.18 0 5.76.9 5.76 2s-2.58 1.98-5.76 1.98"/>
  <path fill="#f9bd38" fill-rule="nonzero" d="M639.98 268.38c-3.18 0-5.76-.9-5.76-2s2.58-1.98 5.76-1.98c3.18 0 5.76.9 5.76 2s-2.58 1.98-5.76 1.98"/>
  <path fill="#f9bd38" fill-rule="nonzero" d="M639.98 271.22c-3.18 0-5.76-.9-5.76-2s2.58-1.98 5.76-1.98c3.18 0 5.76.9 5.76 2s-2.58 1.98-5.76 1.98m49.98-99.44c-3.18 0-5.76-.9-5.76-2s2.58-1.98 5.76-1.98c3.18 0 5.76.9 5.76 2s-2.58 1.98-5.76 1.98"/>
  <path fill="#f9bd38" fill-rule="nonzero" d="M689.96 174.62c-3.18 0-5.76-.9-5.76-2s2.58-1.97 5.76-1.97c3.18 0 5.76.88 5.76 1.98s-2.58 2-5.76 2"/>
  <path fill="#f9bd38" fill-rule="nonzero" d="M689.96 177.46c-3.18 0-5.76-.9-5.76-2 0-1.08 2.58-1.98 5.76-1.98 3.18 0 5.76.9 5.76 2s-2.58 1.98-5.76 1.98"/>
  <path fill="#f9bd38" fill-rule="nonzero" d="M689.96 180.3c-3.18 0-5.76-.9-5.76-1.98 0-1.1 2.58-2 5.76-2 3.18 0 5.76.9 5.76 2s-2.58 2-5.76 2"/>
  <path fill="#f9bd38" fill-rule="nonzero" d="M689.96 183.15c-3.18 0-5.76-.9-5.76-2s2.58-1.98 5.76-1.98c3.18 0 5.76.9 5.76 2s-2.58 1.98-5.76 1.98"/>
  <path fill="#f9bd38" fill-rule="nonzero" d="M689.96 186c-3.18 0-5.76-.9-5.76-2s2.58-2 5.76-2c3.18 0 5.76.9 5.76 2s-2.58 2-5.76 2"/>
  <path fill="#f9bd38" fill-rule="nonzero" d="M689.96 188.83c-3.18 0-5.76-.9-5.76-2s2.58-1.98 5.76-1.98c3.18 0 5.76.9 5.76 2s-2.58 1.98-5.76 1.98"/>
  <path fill="#f9bd38" fill-rule="nonzero" d="M689.96 191.67c-3.18 0-5.76-.9-5.76-2s2.58-1.98 5.76-1.98c3.18 0 5.76.8 5.76 1.9s-2.58 2-5.76 2"/>
  <path fill="#f9bd38" fill-rule="nonzero" d="M689.96 194.5c-3.18 0-5.76-.88-5.76-1.98s2.58-2 5.76-2c3.18 0 5.76.9 5.76 2s-2.58 2-5.76 2"/>
  <path fill="#f9bd38" fill-rule="nonzero" d="M689.96 197.35c-3.18 0-5.76-.9-5.76-2s2.58-1.98 5.76-1.98c3.18 0 5.76.9 5.76 2s-2.58 1.98-5.76 1.98"/>
  <path fill="#f9bd38" fill-rule="nonzero" d="M689.96 200.2c-3.18 0-5.76-.9-5.76-2s2.58-2 5.76-2c3.18 0 5.76.9 5.76 2s-2.58 2-5.76 2"/>
  <path fill="#f9bd38" fill-rule="nonzero" d="M689.96 203.03c-3.18 0-5.76-.9-5.76-1.98 0-1.1 2.58-2 5.76-2 3.18 0 5.76.9 5.76 2s-2.58 1.98-5.76 1.98"/>
  <path fill="#f9bd38" fill-rule="nonzero" d="M689.96 205.88c-3.18 0-5.76-.9-5.76-2s2.58-1.98 5.76-1.98c3.18 0 5.76.9 5.76 2 0 1.08-2.58 1.98-5.76 1.98"/>
  <path fill="#f9bd38" fill-rule="nonzero" d="M689.96 208.72c-3.18 0-5.76-.9-5.76-2s2.58-1.98 5.76-1.98c3.18 0 5.76.9 5.76 2 0 1.08-2.58 1.98-5.76 1.98"/>
  <path fill="#f9bd38" fill-rule="nonzero" d="M689.96 211.56c-3.18 0-5.76-.9-5.76-2s2.58-1.98 5.76-1.98c3.18 0 5.76.9 5.76 2s-2.58 1.98-5.76 1.98"/>
  <path fill="#f9bd38" fill-rule="nonzero" d="M689.96 214.4c-3.18 0-5.76-.9-5.76-2s2.58-1.98 5.76-1.98c3.18 0 5.76.9 5.76 2s-2.58 1.98-5.76 1.98"/>
  <path fill="#f9bd38" fill-rule="nonzero" d="M689.96 217.24c-3.18 0-5.76-.9-5.76-2s2.58-1.98 5.76-1.98c3.18 0 5.76.9 5.76 2s-2.58 1.98-5.76 1.98"/>
  <path fill="#f9bd38" fill-rule="nonzero" d="M689.96 220.08c-3.18 0-5.76-.9-5.76-2s2.58-1.98 5.76-1.98c3.18 0 5.76.9 5.76 2s-2.58 1.98-5.76 1.98"/>
  <path fill="#f9bd38" fill-rule="nonzero" d="M689.96 222.92c-3.18 0-5.76-.9-5.76-2s2.58-1.98 5.76-1.98c3.18 0 5.76.9 5.76 2s-2.58 1.98-5.76 1.98"/>
  <path fill="#f9bd38" fill-rule="nonzero" d="M689.96 225.76c-3.18 0-5.76-.9-5.76-2s2.58-1.98 5.76-1.98c3.18 0 5.76.9 5.76 2s-2.58 1.98-5.76 1.98"/>
  <path fill="#f9bd38" fill-rule="nonzero" d="M689.96 228.6c-3.18 0-5.76-.9-5.76-2 0-1.08 2.58-1.97 5.76-1.97 3.18 0 5.76.9 5.76 1.98 0 1.1-2.58 2-5.76 2"/>
  <path fill="#f9bd38" fill-rule="nonzero" d="M689.96 231.44c-3.18 0-5.76-.9-5.76-1.98 0-1.1 2.58-2 5.76-2 3.18 0 5.76.9 5.76 2s-2.58 1.98-5.76 1.98"/>
  <path fill="#f9bd38" fill-rule="nonzero" d="M689.96 234.3c-3.18 0-5.76-.9-5.76-2s2.58-2 5.76-2c3.18 0 5.76.9 5.76 2s-2.58 2-5.76 2"/>
  <path fill="#f9bd38" fill-rule="nonzero" d="M689.96 237.13c-3.18 0-5.76-.9-5.76-2s2.58-1.98 5.76-1.98c3.18 0 5.76.9 5.76 2s-2.58 1.98-5.76 1.98"/>
  <path fill="#f9bd38" fill-rule="nonzero" d="M689.96 239.97c-3.18 0-5.76-.9-5.76-2s2.58-1.98 5.76-1.98c3.18 0 5.76.8 5.76 1.9s-2.58 2-5.76 2"/>
  <path fill="#f9bd38" fill-rule="nonzero" d="M689.96 242.8c-3.18 0-5.76-.88-5.76-1.98s2.58-2 5.76-2c3.18 0 5.76.9 5.76 2s-2.58 2-5.76 2"/>
  <path fill="#f9bd38" fill-rule="nonzero" d="M689.96 245.65c-3.18 0-5.76-.9-5.76-2s2.58-1.98 5.76-1.98c3.18 0 5.76.9 5.76 2s-2.58 1.98-5.76 1.98"/>
  <path fill="#f9bd38" fill-rule="nonzero" d="M689.96 248.5c-3.18 0-5.76-.9-5.76-2s2.58-2 5.76-2c3.18 0 5.76.9 5.76 2s-2.58 2-5.76 2"/>
  <path fill="#f9bd38" fill-rule="nonzero" d="M689.96 251.33c-3.18 0-5.76-.9-5.76-2s2.58-1.98 5.76-1.98c3.18 0 5.76.9 5.76 2s-2.58 1.98-5.76 1.98"/>
  <path fill="#f9bd38" fill-rule="nonzero" d="M689.96 254.17c-3.18 0-5.76-.9-5.76-2 0-1.08 2.58-1.98 5.76-1.98 3.18 0 5.76.9 5.76 1.9 0 1.1-2.58 2-5.76 2"/>
  <path fill="#f9bd38" fill-rule="nonzero" d="M689.96 257.02c-3.18 0-5.76-.9-5.76-2s2.58-1.98 5.76-1.98c3.18 0 5.76.9 5.76 2 0 1.08-2.58 1.98-5.76 1.98"/>
  <path fill="#f9bd38" fill-rule="nonzero" d="M689.96 259.86c-3.18 0-5.76-.9-5.76-2s2.58-1.98 5.76-1.98c3.18 0 5.76.9 5.76 2 0 1.08-2.58 1.98-5.76 1.98"/>
  <path fill="#f9bd38" fill-rule="nonzero" d="M689.96 262.7c-3.18 0-5.76-.9-5.76-2s2.58-1.98 5.76-1.98c3.18 0 5.76.9 5.76 2s-2.58 1.98-5.76 1.98"/>
  <path fill="#f9bd38" fill-rule="nonzero" d="M689.96 265.54c-3.18 0-5.76-.9-5.76-2s2.58-1.98 5.76-1.98c3.18 0 5.76.9 5.76 2s-2.58 1.98-5.76 1.98"/>
  <path fill="#f9bd38" fill-rule="nonzero" d="M689.96 268.38c-3.18 0-5.76-.9-5.76-2s2.58-1.98 5.76-1.98c3.18 0 5.76.9 5.76 2s-2.58 1.98-5.76 1.98"/>
  <path fill="#f9bd38" fill-rule="nonzero" d="M689.96 271.22c-3.18 0-5.76-.9-5.76-2s2.58-1.98 5.76-1.98c3.18 0 5.76.9 5.76 2s-2.58 1.98-5.76 1.98m-42.2-105.82c0 1.76-1.44 3.18-3.2 3.18H635c-1.77 0-3.2-1.42-3.2-3.2v-4.24c0-1.76 1.43-3.2 3.2-3.2h9.56c1.76 0 3.2 1.44 3.2 3.2v4.25zm49.42 0c0 1.76-1.43 3.18-3.2 3.18h-9.56c-1.76 0-3.2-1.42-3.2-3.2v-4.24c0-1.76 1.44-3.2 3.2-3.2H694c1.75 0 3.18 1.44 3.18 3.2v4.25zM632.9 269.74h14v9.74h-13.7l-.3-9.74z"/>
  <path fill="#f9bd38" fill-rule="nonzero" d="M683.4 269.74h14v9.74h-13.68l-.3-9.74z"/>
  <path fill="#e72b48" fill-rule="nonzero" d="M658.4 384.44c0 10.57-8.58 19.14-19.15 19.14-10.57 0-19.14-8.57-19.14-19.14v-87.2c0-10.56 8.6-19.13 19.2-19.13s19.2 8.6 19.2 19.2v87.2zm52.1 0c0 10.57-8.58 19.14-19.15 19.14-10.57 0-19.14-8.57-19.14-19.14v-87.2c0-10.56 8.6-19.13 19.2-19.13s19.2 8.6 19.2 19.2v87.2z"/>
  <path fill="#e72b48" fill-rule="nonzero" d="M635.2 401.47h6.53v6.16h-6.53zm53.13 0h6.53v6.16h-6.53z"/>
  <path fill-rule="nonzero" d="M643.12 320.4l-1.98-3.43c-.8-1.3-1.32-2.16-1.8-3.06h-.05c-.5.9-.9 1.8-1.7 3.1l-1.9 3.4h-2.3l4.7-7.8-4.6-7.7h2.3l2 3.7c.5 1.1 1 1.8 1.4 2.7h.1c.4-.9.8-1.6 1.4-2.6l2.1-3.6h2.3l-4.7 7.6 4.8 8H643zm51.65 0l-1.98-3.43c-.9-1.3-1.4-2.16-1.8-3.06h-.1c-.5.9-.9 1.8-1.7 3.1l-1.9 3.4H685l4.74-7.8-4.56-7.7h2.32l2.05 3.7c.57 1.1 1 1.8 1.43 2.7h.07c.43-.9.82-1.6 1.4-2.6l2.12-3.6h2.3l-4.74 7.6 4.86 8h-2.4z"/>
  <path fill="#f9bd38" fill-rule="nonzero" d="M685.36 93.7c0 11.13-9.02 20.15-20.15 20.15-11.1 0-20.1-9.02-20.1-20.15 0-11.14 9-20.16 20.2-20.16s20.2 9.02 20.2 20.16"/>
  <path fill="#f9bd38" fill-rule="nonzero" d="M655.78 98.9h18.86v34.46h-18.86z"/>
  <path fill="#fff" d="M662.7 104.75h5v27.96h-5z"/>
  <path fill="#22648a" fill-rule="nonzero" d="M682.76 133.7c0 1.45-1.16 2.6-2.6 2.6h-29.9c-1.44 0-2.6-1.15-2.6-2.6 0-1.43 1.16-2.6 2.6-2.6h29.9c1.44 0 2.6 1.17 2.6 2.6"/>
  <path fill="#fff" d="M665.04 104.32l6.47-3.7 1.5 2.6-8.2 4.74-7.1-5.93 2-2.3 5.5 4.6z"/>
  <path fill="#b1c4ce" fill-rule="nonzero" d="M532.9 287.68h-70.17c-8.8 0-15.95-7.16-15.95-15.95v-1.18c0-8.8 7.16-15.95 15.95-15.95h54.23c2.93 0 5.32-2.4 5.32-5.32v-3.67c0-2.9-2.4-5.3-5.32-5.3h-54.23c-8.8 0-15.95-7.1-15.95-15.9v-2.8c0-8.8 7.16-15.9 15.95-15.9h52.1c2.94 0 5.32-2.3 5.32-5.1s-2.38-5-5.3-5H463.8c-8.8 0-15.95-7.1-15.95-15.9v-2c0-8.8 7.15-15.9 15.95-15.9h49.97c2.93 0 5.32-2.4 5.32-5.3V155c0-2.94-2.4-5.32-5.4-5.32h-53.1c-8.8 0-16-7.05-16-15.7 0-8.67 7.1-15.72 15.9-15.72h53.2c2.9 0 5.3-2.4 5.3-5.32v-1.18c0-2.93-2.4-5.3-5.3-5.3h-54.2c-8.8 0-16-7.17-16-15.96v-1.18c0-8.8 7.1-15.95 15.9-15.95h52.1c5.8 0 15.4.04 21.3.1l41.1.38c8.7.08 15.9 7.26 16 16l.3 41.5-10.7.1-.3-41.5c0-2.94-2.5-5.44-5.4-5.47l-41.2-.38c-5.9-.05-15.4-.1-21.2-.1h-52.1c-3 0-5.3 2.4-5.3 5.32v1.18c0 2.93 2.3 5.3 5.3 5.3h54.2c8.8 0 15.9 7.17 15.9 15.96v1.18c0 8.8-7.2 15.95-16 15.95h-53.2c-2.9 0-5.3 2.2-5.3 5s2.4 5 5.3 5h53.1c8.8 0 16 7.1 16 15.9v1.2c0 8.8-7.2 15.9-16 15.9h-50c-3 0-5.3 2.4-5.3 5.3v2c0 2.9 2.4 5.3 5.3 5.3h51c8.8 0 16 7 16 15.7 0 8.6-7.2 15.7-16 15.7h-52.1c-3 0-5.3 2.4-5.3 5.3v2.8c0 2.9 2.4 5.3 5.3 5.3h54.2c8.8 0 15.9 7.1 15.9 15.9v3.7c0 8.8-7.2 15.9-16 15.9h-54.2c-3 0-5.3 2.4-5.3 5.3v1.2c0 2.9 2.3 5.3 5.3 5.3h70.1v10.6z"/>
  <path fill="#11354b" fill-rule="nonzero" d="M536.74 242.84c-1.58 0-3.2-.2-4.8-.6l-312.7-79.43v65.4H200.1v-67c0-5.7 2.43-10.9 6.7-14.3s9.93-4.4 15.5-3l312.86 79.5.82-73.9c0-.2-.1-.5-.3-.7-.17-.2-.4-.3-.66-.3H394.68c-11.14 0-20.2-9-20.2-20.2V75h19.14v53.18c0 .56.5 1.06 1.06 1.06h140.36c5.4 0 10.48 2.12 14.28 5.96 3.8 3.85 5.87 8.95 5.8 14.35l-.82 75.5c-.07 5.74-2.56 10.92-6.85 14.22-3.05 2.35-6.8 3.57-10.7 3.57"/>
  <path fill="#22648a" fill-rule="nonzero" d="M254.66 171.57c-.32 1.24-1.6 2-2.83 1.67-1.25-.32-2-1.6-1.68-2.83l5.2-20.3c.33-1.2 1.6-1.9 2.85-1.6 1.24.3 2 1.6 1.67 2.9l-5.2 20.3zm-55.48 12.8c-1.3 0-2.33-1.06-2.32-2.34 0-1.3 1.04-2.33 2.33-2.33l20.9.05c1.3 0 2.3 1.05 2.3 2.33 0 1.3-1.1 2.33-2.4 2.33h-20.9zm215.58-56.23c-.08-1.28.9-2.38 2.18-2.46 1.28-.08 2.4.9 2.46 2.18l1.28 20.9c.08 1.3-.9 2.4-2.2 2.48-1.27.08-2.37-.9-2.45-2.18l-1.27-20.92zm43.94 0c-.07-1.28.9-2.38 2.2-2.46 1.27-.08 2.38.9 2.45 2.18l1.28 20.9c.07 1.3-.9 2.4-2.2 2.48-1.27.08-2.37-.9-2.45-2.18l-1.27-20.92zm48.2 0c-.07-1.28.9-2.38 2.2-2.46 1.28-.08 2.38.9 2.46 2.18l1.27 20.9c.08 1.3-.9 2.4-2.18 2.48-1.28.08-2.4-.9-2.47-2.18l-1.27-20.92zm-210 54.26c-.33 1.25-1.6 2-2.84 1.68-1.25-.32-2-1.58-1.68-2.83l5.2-20.3c.33-1.24 1.6-2 2.84-1.67 1.25.32 2 1.6 1.68 2.83l-5.2 20.3zm42.22 10.85c-.32 1.24-1.6 2-2.84 1.68-1.24-.32-2-1.6-1.67-2.84l5.3-20.3c.3-1.3 1.6-2 2.9-1.7 1.3.3 2 1.6 1.7 2.8l-5.2 20.3zm42.22 10.85c-.3 1.24-1.58 2-2.83 1.67-1.2-.32-2-1.6-1.6-2.84l5.2-20.3c.4-1.24 1.6-2 2.9-1.67 1.3.32 2 1.6 1.7 2.84l-5.2 20.3zm42.23 10.83c-.32 1.25-1.6 2-2.83 1.68-1.25-.3-2-1.5-1.68-2.8l5.2-20.3c.33-1.2 1.6-2 2.84-1.6 1.25.4 2 1.6 1.68 2.9l-5.2 20.3zm42.23 10.84c-.32 1.25-1.6 2-2.84 1.68-1.24-.32-2-1.6-1.67-2.83l5.2-20.3c.3-1.24 1.6-2 2.8-1.67 1.2.32 2 1.6 1.7 2.83l-5.2 20.3z"/>
  <path fill="#e72b48" fill-rule="nonzero" d="M393.62 84.58l-19.14 1.06-11.7-20.2h40.4l-9.56 19.14z"/>
  <path fill="#e72b48" fill-rule="nonzero" d="M396.8 86.7c0 1.18-.95 2.13-2.12 2.13h-22.33c-1.17 0-2.13-.95-2.13-2.12 0-1.1.96-2.1 2.13-2.1h22.33c1.17 0 2.13 1 2.13 2.2"/>
  <path fill="#f9bd38" fill-rule="nonzero" d="M478.4 230.27c-1.9-.75-2.8-2.9-2.06-4.8.75-1.88 2.9-2.8 4.8-2.05 1.88.75 2.8 2.9 2.05 4.8-.8 1.88-2.9 2.8-4.8 2.05m17.1 5.45l2.1-5.28-3.2-1.25c.3-2 .2-4-.3-5.9l3.2-1.4-2.3-5.3-3.4 1.4c-1.1-1.6-2.5-2.9-4.1-3.9l1.4-3.5-5.3-2.1-1.4 3.5c-1.9-.4-3.8-.4-5.7 0l-1.5-3.5-5.2 2.2 1.4 3.3c-1.6 1-3 2.4-4.1 4l-3.3-1.3-2.1 5.3 3.1 1.2c-.5 2-.5 4.1-.1 6.1l-3 1.2 2.2 5.2 2.8-1.2c1.1 1.7 2.6 3.2 4.4 4.4l-1.1 2.7 5.3 2.1 1.1-2.7c2.1.4 4.3.3 6.3-.2l1.2 2.7 5.2-2.3-1.2-2.8c1.6-1.2 3.1-2.7 4.1-4.5l3 1.2z"/>
  <path fill="#fff" fill-rule="nonzero" d="M483.2 228.2c.74-1.88-.18-4.03-2.07-4.78-1.9-.75-4.04.17-4.8 2.06-.74 1.9.18 4.04 2.07 4.8 1.9.75 4.04-.18 4.8-2.07"/>
  <path fill="#eabea7" fill-rule="nonzero" d="M506.15 210.35c-1.9-.76-2.82-2.9-2.07-4.8.76-1.88 2.9-2.8 4.8-2.06 1.88.7 2.8 2.9 2.06 4.7-.76 1.9-2.9 2.8-4.8 2m17.17 5.4l2.1-5.3-3.1-1.3c.3-2 .2-4-.2-5.9l3.3-1.4-2.2-5.2-3.4 1.4c-1.1-1.5-2.5-2.9-4.1-3.9l1.4-3.5-5.3-2.1-1.4 3.5c-1.9-.4-3.8-.4-5.6 0l-1.5-3.5-5.2 2.2 1.5 3.4c-1.6 1-3 2.4-4.1 4l-3.2-1.3-2.1 5.2 3.1 1.2c-.4 2-.4 4.1 0 6l-2.9 1.2 2.3 5.2 2.6-1c1.2 1.7 2.6 3.2 4.5 4.4l-1.1 2.7 5.3 2.1 1.1-2.7c2.2.4 4.3.3 6.3-.2l1.2 2.7 5.3-2.2-1.2-2.8c1.7-1.1 3.1-2.7 4.2-4.5l3 1.2z"/>
  <path fill="#fff" fill-rule="nonzero" d="M510.94 208.28c.75-1.9-.18-4.03-2.07-4.78-1.9-.76-4.03.17-4.8 2.06-.74 1.9.18 4.03 2.08 4.8 1.9.74 4.03-.18 4.8-2.08"/>
  <path fill="#901f2a" fill-rule="nonzero" d="M541.53 254.8h8.6v20.46h-8.6zm36.33-1.34h8.6v20.45h-8.6z"/>
  <path fill="#e72b48" fill-rule="nonzero" d="M601.48 255.33c0 1.77-1.43 3.2-3.2 3.2H529.7c-1.74 0-3.17-1.43-3.17-3.2V118.17c0-1.76 1.43-3.2 3.2-3.2h68.57c1.75 0 3.18 1.44 3.18 3.2v137.16z"/>
  <path fill="#fff" fill-rule="nonzero" d="M587.14 136.68h7.44v7.44h-7.44zm0 10.12h7.44v7.43h-7.44zm0 10.1h7.44v7.43h-7.44zm0 10.1h7.44v7.43h-7.44zm0 10.1h7.44v7.43h-7.44zm0 10.1h7.44v7.43h-7.44zm7.7-52.53c-.07-3.52-1.94-6.34-4.22-6.34-2.3 0-4.15 2.82-4.23 6.34h8.4zm0 61.86c-.07 3.52-1.94 6.34-4.22 6.34-2.3 0-4.15-2.82-4.23-6.34h8.4z"/>
  <path fill="#b1c4ce" fill-rule="nonzero" d="M571.78 205.92c0 4.47-3.63 8.1-8.1 8.1s-8.1-3.63-8.1-8.1c0-4.48 3.63-8.1 8.1-8.1s8.1 3.62 8.1 8.1"/>
  <path fill="#11354b" fill-rule="nonzero" d="M563.68 199.94c-3.3 0-5.98 2.68-5.98 5.98 0 3.3 2.7 5.97 5.98 5.97 3.3 0 5.97-2.7 5.97-6s-2.68-6-5.97-6m0 16.2c-5.64 0-10.23-4.6-10.23-10.2 0-5.7 4.6-10.3 10.23-10.3 5.64 0 10.23 4.6 10.23 10.2s-4.5 10.2-10.2 10.2"/>
  <path fill="#b1c4ce" fill-rule="nonzero" d="M571.78 235.8c0 4.46-3.63 8.1-8.1 8.1s-8.1-3.64-8.1-8.1c0-4.48 3.63-8.1 8.1-8.1s8.1 3.62 8.1 8.1"/>
  <path fill="#11354b" fill-rule="nonzero" d="M563.68 229.82c-3.3 0-5.98 2.68-5.98 5.97 0 3.2 2.7 5.9 5.98 5.9 3.3 0 5.97-2.7 5.97-6s-2.68-6-5.97-6m0 16.2c-5.64 0-10.23-4.6-10.23-10.3s4.6-10.3 10.23-10.3c5.64 0 10.23 4.6 10.23 10.2s-4.5 10.2-10.2 10.2"/>
  <path fill="#e72b48" fill-rule="nonzero" d="M563.38 198.94h.9v2.25h-.9zm0 30.14h.9v2.25h-.9z"/>
  <path fill="#b1c4ce" fill-rule="nonzero" d="M572.1 147.6c0 9.82-7.95 17.77-17.76 17.77-9.82 0-17.77-7.95-17.77-17.77 0-9.8 7.95-17.77 17.77-17.77 9.8 0 17.77 7.96 17.77 17.77"/>
  <path fill="#901f2a" fill-rule="nonzero" d="M554.47 164.33l1.28-17.13-2.7-.14 1.42 17.27z"/>
  <path fill="#22648a" fill-rule="nonzero" d="M556.46 147.34c0 1.18-.96 2.13-2.13 2.13s-2.12-.95-2.12-2.13c0-1.17 1-2.12 2.2-2.12s2.2.95 2.2 2.12"/>
  <path fill="#23648b" fill-rule="nonzero" d="M604.34 145.52c0 .8-.66 1.47-1.47 1.47-.8 0-1.47-.7-1.47-1.5v-11.4c0-.8.66-1.5 1.47-1.5.8 0 1.47.6 1.47 1.4v11.3z"/>
  <path fill="#22648a" fill-rule="nonzero" d="M611.6 271.73H423.4v136.1h21.26v-18.07h142.48v18.07h24.46v-136.1z"/>
  <path fill="#b1c4ce" fill-rule="nonzero" d="M590.84 367.36c0 1.76-1.43 3.2-3.2 3.2h-142.7c-1.75 0-3.18-1.44-3.18-3.2V290.7c0-1.76 1.43-3.2 3.2-3.2h142.7c1.75 0 3.18 1.44 3.18 3.2v76.66z"/>
  <path fill="#11354b" fill-rule="nonzero" d="M444.95 289.64c-.6 0-1.07.47-1.07 1.06v76.66c0 .58.48 1.06 1.07 1.06h142.7c.58 0 1.06-.48 1.06-1.06V290.7c0-.6-.4-1.06-1-1.06H445zm142.7 83.03h-142.7c-2.94 0-5.32-2.38-5.32-5.3V290.7c0-2.93 2.38-5.32 5.32-5.32h142.7c2.93 0 5.3 2.4 5.3 5.32v76.66c0 2.93-2.37 5.3-5.3 5.3"/>
  <path fill="#b1c4ce" fill-rule="nonzero" d="M603.4 292.93c0 1.07-.85 1.93-1.92 1.93-1.07 0-1.93-.86-1.93-1.93 0-1.07.86-1.94 1.93-1.94 1.07 0 1.93.8 1.93 1.9"/>
  <path fill="#eabea7" fill-rule="nonzero" d="M603.4 300.66c0 1.07-.85 1.94-1.92 1.94-1.07 0-1.93-.87-1.93-1.94 0-1.06.86-1.93 1.93-1.93 1.07 0 1.93.87 1.93 1.93"/>
  <path fill="#e72b48" fill-rule="nonzero" d="M603.4 308.4c0 1.06-.85 1.93-1.92 1.93-1.07 0-1.93-.87-1.93-1.93 0-1.07.86-1.94 1.93-1.94 1.07 0 1.93.87 1.93 1.94"/>
  <path fill="#11354b" fill-rule="nonzero" d="M600.26 329.15c0 1.76-1.43 3.2-3.2 3.2h-9.2c-1.77 0-3.2-1.44-3.2-3.2 0-1.76 1.43-3.2 3.2-3.2h9.2c1.77 0 3.2 1.44 3.2 3.2"/>
  <path fill="#98123e" fill-rule="nonzero" d="M166.98 335.14c.25 1.64 1.77 2.76 3.4 2.52l42.8-6.38c1.63-.25 2.75-1.77 2.5-3.4-.23-1.63-1.75-2.76-3.4-2.5l-42.78 6.37c-1.63.24-2.76 1.76-2.52 3.4"/>
  <path fill="#e72b48" fill-rule="nonzero" d="M167.14 321.8c-.23 1.62.9 3.14 2.54 3.37l42.83 6.13c1.7.23 3.2-.9 3.4-2.53.3-1.64-.9-3.15-2.5-3.4l-42.8-6.12c-1.6-.23-3.1.9-3.4 2.54"/>
  <path fill="#98123e" fill-rule="nonzero" d="M167.18 347.77c.24 1.64 1.76 2.76 3.4 2.52l42.8-6.4c1.62-.3 2.75-1.8 2.5-3.4-.24-1.7-1.76-2.8-3.4-2.5l-42.8 6.3c-1.62.2-2.75 1.7-2.5 3.4"/>
  <path fill="#e72b48" fill-rule="nonzero" d="M167.05 334.32c-.24 1.64.9 3.15 2.53 3.38l42.83 6.13c1.7.24 3.2-.9 3.4-2.53.3-1.64-.9-3.15-2.5-3.4l-42.8-6.1c-1.6-.25-3.1.9-3.4 2.52"/>
  <path fill="#98123e" fill-rule="nonzero" d="M167.18 360.3c.24 1.63 1.76 2.76 3.4 2.5l42.8-6.37c1.62-.24 2.75-1.76 2.5-3.4-.24-1.63-1.76-2.75-3.4-2.5l-42.8 6.37c-1.62.25-2.75 1.77-2.5 3.4"/>
  <path fill="#e72b48" fill-rule="nonzero" d="M167.34 346.94c-.24 1.64.9 3.15 2.53 3.4l42.83 6.1c1.64.25 3.15-.9 3.4-2.52.22-1.64-.9-3.15-2.55-3.38l-42.83-6.13c-1.63-.2-3.15.9-3.38 2.6"/>
  <path fill="#98123e" fill-rule="nonzero" d="M167.18 372.54c.24 1.63 1.76 2.76 3.4 2.52l42.8-6.4c1.62-.23 2.75-1.75 2.5-3.4-.24-1.62-1.76-2.74-3.4-2.5l-42.8 6.38c-1.62.25-2.75 1.77-2.5 3.4"/>
  <path fill="#e72b48" fill-rule="nonzero" d="M167.34 359.18c-.24 1.64.9 3.15 2.53 3.4l42.83 6.1c1.64.25 3.15-.9 3.4-2.52.22-1.64-.9-3.15-2.55-3.38l-42.83-6.13c-1.63-.24-3.15.9-3.38 2.53"/>
  <path fill="#98123e" fill-rule="nonzero" d="M167.18 385.06c.24 1.64 1.76 2.76 3.4 2.52l42.8-6.38c1.62-.25 2.75-1.77 2.5-3.4-.24-1.63-1.76-2.76-3.4-2.52l-42.8 6.4c-1.62.23-2.75 1.75-2.5 3.38"/>
  <path fill="#e72b48" fill-rule="nonzero" d="M167.34 371.7c-.24 1.64.9 3.16 2.53 3.4l42.83 6.12c1.64.23 3.15-.9 3.4-2.54.22-1.63-.9-3.14-2.55-3.38l-42.83-6.13c-1.63-.23-3.15.9-3.38 2.54"/>
  <path fill="#98123e" fill-rule="nonzero" d="M167.04 397.58c.24 1.63 1.76 2.76 3.4 2.5l42.8-6.37c1.62-.2 2.75-1.7 2.5-3.4-.24-1.6-1.76-2.7-3.4-2.5l-42.8 6.4c-1.62.3-2.74 1.8-2.5 3.4"/>
  <path fill="#e72b48" fill-rule="nonzero" d="M167.06 384.18c-.23 1.63.9 3.14 2.54 3.38l42.83 6.13c1.64.2 3.15-1 3.38-2.6.3-1.7-.9-3.2-2.5-3.4l-42.8-6.2c-1.6-.3-3.1.9-3.4 2.5m-8.4 10h65v10.4h-65z"/>
  <path fill="#f28f63" fill-rule="nonzero" d="M158.62 313.2h64.94v10.48h-64.94z"/>
  <path fill="#98123e" fill-rule="nonzero" d="M236 335.14c.25 1.64 1.77 2.76 3.4 2.52l42.8-6.38c1.63-.25 2.76-1.77 2.5-3.4-.23-1.63-1.75-2.76-3.4-2.5l-42.78 6.37c-1.63.24-2.76 1.76-2.52 3.4"/>
  <path fill="#e72b48" fill-rule="nonzero" d="M236.17 321.8c-.24 1.62.9 3.14 2.53 3.37l42.83 6.13c1.64.23 3.15-.9 3.38-2.53.3-1.64-.9-3.15-2.5-3.4l-42.8-6.12c-1.6-.23-3.1.9-3.4 2.54"/>
  <path fill="#98123e" fill-rule="nonzero" d="M236.2 347.77c.24 1.64 1.76 2.76 3.4 2.52l42.8-6.4c1.62-.3 2.75-1.8 2.5-3.4-.24-1.7-1.76-2.8-3.4-2.5l-42.8 6.3c-1.62.2-2.75 1.7-2.5 3.4"/>
  <path fill="#e72b48" fill-rule="nonzero" d="M236.07 334.32c-.24 1.64.9 3.15 2.53 3.38l42.83 6.13c1.64.24 3.15-.9 3.4-2.53.22-1.64-.9-3.15-2.55-3.4l-42.83-6.1c-1.63-.25-3.15.9-3.38 2.52"/>
  <path fill="#98123e" fill-rule="nonzero" d="M236.2 360.3c.24 1.63 1.76 2.76 3.4 2.5l42.8-6.37c1.62-.24 2.75-1.76 2.5-3.4-.24-1.63-1.76-2.75-3.4-2.5l-42.8 6.37c-1.62.25-2.75 1.77-2.5 3.4"/>
  <path fill="#e72b48" fill-rule="nonzero" d="M236.36 346.94c-.24 1.64.9 3.15 2.54 3.4l42.83 6.1c1.63.25 3.14-.9 3.38-2.52.3-1.64-.9-3.15-2.5-3.38l-42.8-6.13c-1.6-.2-3.1.9-3.4 2.6"/>
  <path fill="#98123e" fill-rule="nonzero" d="M236.2 372.54c.24 1.63 1.76 2.76 3.4 2.52l42.8-6.4c1.62-.23 2.75-1.75 2.5-3.4-.24-1.62-1.76-2.74-3.4-2.5l-42.8 6.38c-1.62.25-2.75 1.77-2.5 3.4"/>
  <path fill="#e72b48" fill-rule="nonzero" d="M236.36 359.18c-.24 1.64.9 3.15 2.54 3.4l42.83 6.1c1.63.25 3.14-.9 3.38-2.52.3-1.64-.9-3.15-2.5-3.38l-42.8-6.13c-1.6-.24-3.1.9-3.4 2.53"/>
  <path fill="#98123e" fill-rule="nonzero" d="M236.2 385.06c.24 1.64 1.76 2.76 3.4 2.52l42.8-6.38c1.62-.25 2.75-1.77 2.5-3.4-.24-1.63-1.76-2.76-3.4-2.52l-42.8 6.4c-1.62.23-2.75 1.75-2.5 3.38"/>
  <path fill="#e72b48" fill-rule="nonzero" d="M236.36 371.7c-.24 1.64.9 3.16 2.54 3.4l42.83 6.12c1.63.23 3.14-.9 3.38-2.54.3-1.63-.9-3.14-2.5-3.38l-42.8-6.13c-1.6-.23-3.1.9-3.4 2.54"/>
  <path fill="#98123e" fill-rule="nonzero" d="M236.06 397.58c.25 1.63 1.77 2.76 3.4 2.5l42.8-6.37c1.63-.2 2.75-1.7 2.5-3.4-.24-1.6-1.76-2.7-3.4-2.5l-42.78 6.4c-1.64.3-2.76 1.8-2.52 3.4"/>
  <path fill="#e72b48" fill-rule="nonzero" d="M236.1 384.18c-.25 1.63.9 3.14 2.52 3.38l42.83 6.13c1.64.2 3.15-1 3.38-2.6.24-1.7-.9-3.2-2.53-3.4l-42.83-6.2c-1.64-.3-3.15.9-3.38 2.5m-7.6 10h64.9v10.4h-64.9z"/>
  <path fill="#f28f63" fill-rule="nonzero" d="M228.52 313.2h64.94v10.48h-64.94zm331.78 81c0 7.23-5.85 13.1-13.1 13.1H340.5c-7.23 0-13.1-5.87-13.1-13.1 0-7.23 5.87-13.1 13.1-13.1h206.7c7.25 0 13.1 5.87 13.1 13.1"/>
  <path fill="#901f2b" fill-rule="nonzero" d="M340.48 382.7c-6.34 0-11.5 5.16-11.5 11.5s5.16 11.5 11.5 11.5H547.2c6.36 0 11.5-5.16 11.5-11.5s-5.14-11.5-11.5-11.5H340.5zm206.73 26.2H340.5c-8.1 0-14.7-6.6-14.7-14.7s6.6-14.7 14.7-14.7h206.7c8.12 0 14.7 6.6 14.7 14.7s-6.58 14.7-14.7 14.7"/>
  <path fill="#e72b48" fill-rule="nonzero" d="M357.02 393.94c0 3.48-2.83 6.3-6.3 6.3-3.5 0-6.32-2.82-6.32-6.3s2.83-6.3 6.3-6.3c3.5 0 6.32 2.82 6.32 6.3"/>
  <path fill="#901f2b" fill-rule="nonzero" d="M350.7 391.35c-1.4 0-2.57 1.16-2.57 2.6 0 1.4 1.16 2.57 2.58 2.57 1.5 0 2.6-1.16 2.6-2.58 0-1.43-1.1-2.6-2.6-2.6m0 12.63c-5.5 0-10-4.5-10-10.03 0-5.53 4.5-10.03 10.1-10.03s10.1 4.5 10.1 10.1-4.5 10.1-10 10.1"/>
  <path fill="#e72b48" fill-rule="nonzero" d="M379.72 393.94c0 3.48-2.82 6.3-6.3 6.3-3.5 0-6.3-2.82-6.3-6.3s2.8-6.3 6.3-6.3c3.48 0 6.3 2.82 6.3 6.3"/>
  <path fill="#901f2b" fill-rule="nonzero" d="M373.4 391.35c-1.4 0-2.57 1.16-2.57 2.6 0 1.4 1.16 2.57 2.58 2.57 1.5 0 2.6-1.16 2.6-2.58 0-1.43-1.1-2.6-2.6-2.6m0 12.63c-5.5 0-10-4.5-10-10.03 0-5.53 4.5-10.03 10.1-10.03s10.1 4.5 10.1 10.1-4.5 10.1-10 10.1"/>
  <path fill="#e72b48" fill-rule="nonzero" d="M402.42 393.94c0 3.48-2.82 6.3-6.3 6.3-3.5 0-6.3-2.82-6.3-6.3s2.8-6.3 6.3-6.3c3.48 0 6.3 2.82 6.3 6.3"/>
  <path fill="#901f2b" fill-rule="nonzero" d="M396.12 391.35c-1.43 0-2.6 1.16-2.6 2.6 0 1.4 1.17 2.57 2.6 2.57 1.42 0 2.58-1.16 2.58-2.58 0-1.43-1.16-2.6-2.58-2.6m0 12.63c-5.53 0-10.03-4.5-10.03-10.03 0-5.53 4.5-10.03 10-10.03s10 4.5 10 10.1-4.5 10.1-10 10.1"/>
  <path fill="#e72b48" fill-rule="nonzero" d="M425.13 393.94c0 3.48-2.83 6.3-6.3 6.3-3.5 0-6.32-2.82-6.32-6.3s2.9-6.3 6.4-6.3 6.3 2.82 6.3 6.3"/>
  <path fill="#901f2b" fill-rule="nonzero" d="M418.82 391.35c-1.43 0-2.6 1.16-2.6 2.6 0 1.4 1.17 2.57 2.6 2.57 1.42 0 2.58-1.16 2.58-2.58 0-1.43-1.16-2.6-2.58-2.6m0 12.63c-5.53 0-10.03-4.5-10.03-10.03 0-5.53 4.5-10.03 10-10.03s10 4.5 10 10.1-4.5 10.1-10.1 10.1"/>
  <path fill="#e72b48" fill-rule="nonzero" d="M447.83 393.94c0 3.48-2.83 6.3-6.3 6.3-3.5 0-6.3-2.82-6.3-6.3s2.8-6.3 6.3-6.3c3.47 0 6.3 2.82 6.3 6.3"/>
  <path fill="#901f2b" fill-rule="nonzero" d="M441.52 391.35c-1.42 0-2.58 1.16-2.58 2.6 0 1.4 1.16 2.57 2.58 2.57 1.43 0 2.6-1.16 2.6-2.58 0-1.43-1.17-2.6-2.6-2.6m0 12.63c-5.53 0-10.03-4.5-10.03-10.03 0-5.53 4.5-10.03 10-10.03s10 4.5 10 10.1-4.5 10.1-10.1 10.1"/>
  <path fill="#e72b48" fill-rule="nonzero" d="M470.53 393.94c0 3.48-2.82 6.3-6.3 6.3-3.5 0-6.3-2.82-6.3-6.3s2.8-6.3 6.3-6.3c3.48 0 6.3 2.82 6.3 6.3"/>
  <path fill="#901f2b" fill-rule="nonzero" d="M464.22 391.35c-1.42 0-2.58 1.16-2.58 2.6 0 1.4 1.16 2.57 2.58 2.57 1.43 0 2.6-1.16 2.6-2.58 0-1.43-1.17-2.6-2.6-2.6m0 12.63c-5.52 0-10.02-4.5-10.02-10.03 0-5.53 4.5-10.03 10.02-10.03 5.53 0 10.03 4.5 10.03 10.1s-4.5 10.1-10.03 10.1"/>
  <path fill="#e72b48" fill-rule="nonzero" d="M493.23 393.94c0 3.48-2.82 6.3-6.3 6.3-3.5 0-6.3-2.82-6.3-6.3s2.8-6.3 6.3-6.3c3.48 0 6.3 2.82 6.3 6.3"/>
  <path fill="#901f2b" fill-rule="nonzero" d="M486.93 391.35c-1.43 0-2.6 1.16-2.6 2.6 0 1.4 1.17 2.57 2.6 2.57 1.42 0 2.58-1.16 2.58-2.58 0-1.43-1.1-2.6-2.5-2.6m0 12.63c-5.5 0-10-4.5-10-10.03 0-5.53 4.5-10.03 10.1-10.03s10.1 4.5 10.1 10.1-4.5 10.1-10 10.1"/>
  <path fill="#e72b48" fill-rule="nonzero" d="M515.94 393.94c0 3.48-2.83 6.3-6.3 6.3-3.5 0-6.32-2.82-6.32-6.3s2.83-6.3 6.3-6.3c3.5 0 6.32 2.82 6.32 6.3"/>
  <path fill="#901f2b" fill-rule="nonzero" d="M509.63 391.35c-1.42 0-2.58 1.16-2.58 2.6 0 1.4 1.16 2.57 2.58 2.57 1.43 0 2.58-1.16 2.58-2.58 0-1.43-1.1-2.6-2.5-2.6m0 12.63c-5.5 0-10-4.5-10-10.03 0-5.53 4.5-10.03 10.1-10.03s10.1 4.5 10.1 10.1-4.5 10.1-10 10.1"/>
  <path fill="#e72b48" fill-rule="nonzero" d="M538.64 393.94c0 3.48-2.82 6.3-6.3 6.3-3.5 0-6.3-2.82-6.3-6.3s2.8-6.3 6.3-6.3c3.48 0 6.3 2.82 6.3 6.3"/>
  <path fill="#901f2b" fill-rule="nonzero" d="M532.33 391.35c-1.42 0-2.58 1.16-2.58 2.6 0 1.4 1.16 2.57 2.58 2.57 1.43 0 2.6-1.16 2.6-2.58 0-1.43-1.17-2.6-2.6-2.6m0 12.63c-5.53 0-10.02-4.5-10.02-10.03 0-5.53 4.5-10.03 10.1-10.03s10.1 4.5 10.1 10.1-4.5 10.1-10 10.1"/>
  <path fill="#f28f63" fill-rule="nonzero" d="M357.6 349.5h-.86v-3.8c0-.37-.06-.73-.18-1.06.55-.2.95-.7.95-1.33 0-.7-.6-1.4-1.4-1.4h-5c-.8 0-1.4.7-1.4 1.4 0 .6.4 1.1.9 1.3-.1.4-.2.8-.2 1.1v3.8h-.3c-1.8 0-3.4 1.6-3.4 3.4v22.8c0 1.9 1.6 3.4 3.4 3.4h7.6c1.9 0 3.4-1.5 3.4-3.4v-22.8c0-1.8-1.5-3.3-3.3-3.3"/>
  <path fill="#e72b48" fill-rule="nonzero" d="M349.7 355.04h11.27v18.4H349.7z"/>
  <path fill="#f28f63" fill-rule="nonzero" d="M383.1 349.5h-.84v-3.8c0-.37-.06-.73-.18-1.06.55-.2.95-.7.95-1.33 0-.7-.63-1.4-1.4-1.4h-5.07c-.78 0-1.4.7-1.4 1.4 0 .6.34 1.1.83 1.3-.2.4-.2.8-.2 1.1v3.8h-.3c-1.9 0-3.4 1.6-3.4 3.4v22.8c0 1.9 1.5 3.4 3.4 3.4h7.6c1.8 0 3.3-1.5 3.3-3.4v-22.8c0-1.8-1.5-3.3-3.4-3.3"/>
  <path fill="#e72b48" fill-rule="nonzero" d="M375.23 355.04h11.26v18.4h-11.3z"/>
  <path fill="#f28f63" fill-rule="nonzero" d="M408.63 349.5h-.85v-3.8c0-.37-.06-.73-.18-1.06.55-.2.95-.7.95-1.33 0-.7-.63-1.4-1.4-1.4h-5.07c-.78 0-1.4.7-1.4 1.4 0 .6.34 1.1.83 1.3-.1.4-.2.8-.2 1.1v3.8h-.2c-1.8 0-3.4 1.6-3.4 3.4v22.8c0 1.9 1.5 3.4 3.4 3.4h7.6c1.9 0 3.4-1.5 3.4-3.4v-22.8c0-1.8-1.5-3.3-3.3-3.3"/>
  <path fill="#e72b48" fill-rule="nonzero" d="M400.75 355.04H412v18.4h-11.25z"/>
  <path fill="#f28f63" fill-rule="nonzero" d="M434.15 349.5h-.85v-3.8c0-.37-.06-.73-.18-1.06.55-.2.95-.7.95-1.33 0-.7-.63-1.4-1.4-1.4h-5.07c-.78 0-1.4.7-1.4 1.4 0 .6.34 1.1.83 1.3-.13.4-.2.8-.2 1.1v3.8h-.28c-1.87 0-3.38 1.6-3.38 3.4v22.8c0 1.9 1.5 3.4 3.38 3.4h7.6c1.86 0 3.37-1.5 3.37-3.4v-22.8c0-1.8-1.5-3.3-3.37-3.3"/>
  <path fill="#e72b48" fill-rule="nonzero" d="M426.27 355.04h11.26v18.4h-11.26z"/>
  <path fill="#f28f63" fill-rule="nonzero" d="M459.67 349.5h-.85v-3.8c0-.37-.06-.73-.18-1.06.55-.2.95-.7.95-1.33 0-.7-.7-1.4-1.5-1.4H453c-.78 0-1.4.7-1.4 1.4 0 .6.34 1.1.83 1.3-.13.4-.2.8-.2 1.1v3.8H452c-1.87 0-3.38 1.6-3.38 3.4v22.8c0 1.9 1.5 3.4 3.37 3.4h7.6c1.8 0 3.3-1.5 3.3-3.4v-22.8c0-1.8-1.5-3.3-3.4-3.3"/>
  <path fill="#e72b48" fill-rule="nonzero" d="M451.8 355.04h11.25v18.4H451.8z"/>
  <path fill="#f28f63" fill-rule="nonzero" d="M485.2 349.5h-.86v-3.8c0-.37-.06-.73-.18-1.06.55-.2.95-.7.95-1.33 0-.7-.6-1.4-1.4-1.4h-5c-.8 0-1.4.7-1.4 1.4 0 .6.4 1.1.9 1.3-.1.4-.2.8-.2 1.1v3.8h-.3c-1.8 0-3.4 1.6-3.4 3.4v22.8c0 1.9 1.6 3.4 3.4 3.4h7.6c1.9 0 3.4-1.5 3.4-3.4v-22.8c0-1.8-1.5-3.3-3.3-3.3"/>
  <path fill="#e72b48" fill-rule="nonzero" d="M477.3 355.04h11.27v18.4H477.3z"/>
  <path fill="#f28f63" fill-rule="nonzero" d="M510.7 349.5h-.84v-3.8c0-.37-.06-.73-.18-1.06.55-.2.95-.7.95-1.33 0-.7-.63-1.4-1.4-1.4h-5.07c-.78 0-1.4.7-1.4 1.4 0 .6.34 1.1.83 1.3-.2.4-.2.8-.2 1.1v3.8h-.3c-1.9 0-3.4 1.6-3.4 3.4v22.8c0 1.9 1.5 3.4 3.4 3.4h7.6c1.8 0 3.4-1.5 3.4-3.4v-22.8c0-1.8-1.6-3.3-3.4-3.3"/>
  <path fill="#e72b48" fill-rule="nonzero" d="M502.83 355.04h11.26v18.4h-11.3z"/>
  <path fill="#f28f63" fill-rule="nonzero" d="M536.23 349.5h-.85v-3.8c0-.37-.06-.73-.18-1.06.55-.2.95-.7.95-1.33 0-.7-.63-1.4-1.4-1.4h-5.07c-.78 0-1.4.7-1.4 1.4 0 .6.34 1.1.83 1.3-.1.4-.2.8-.2 1.1v3.8h-.2c-1.8 0-3.4 1.6-3.4 3.4v22.8c0 1.9 1.5 3.4 3.4 3.4h7.6c1.9 0 3.4-1.5 3.4-3.4v-22.8c0-1.8-1.5-3.3-3.3-3.3"/>
  <path fill="#e72b48" fill-rule="nonzero" d="M528.35 355.04h11.26v18.4h-11.2z"/>
  <path fill="#f9bd38" fill-rule="nonzero" d="M419.63 313.22h3.77v17.15h-3.77z"/>
  <path fill="#f9bd38" fill-rule="nonzero" d="M316.88 406.77h-7.44v-62.64c0-14.37 11.68-26.05 26.05-26.05h86v7.44h-86c-10.3 0-18.7 8.35-18.7 18.6v62.65z"/>
  <path fill="#f9bd38" fill-rule="nonzero" d="M345.06 314.9h-9.57c-16.2 0-29.3 13.1-29.3 29.23v17.27H320v-17.27c0-8.5 6.92-15.42 15.42-15.42H345v-13.8zm19.84-.3h40.42v14.2h-40.4zm-59.18 63.46h14.18v29.77h-14.18z"/>
  <path fill="#901f2a" fill-rule="nonzero" d="M325.2 293.94c0 4.47-.9 8.1-2 8.1-1.08 0-1.97-3.63-1.97-8.1 0-4.48.9-8.1 1.98-8.1 1.1 0 2 3.62 2 8.1"/>
  <path fill="#901f2a" fill-rule="nonzero" d="M328.05 293.94c0 4.47-.9 8.1-2 8.1s-1.98-3.63-1.98-8.1c0-4.48.9-8.1 2-8.1 1.08 0 1.98 3.62 1.98 8.1"/>
  <path fill="#901f2a" fill-rule="nonzero" d="M330.9 293.94c0 4.47-.9 8.1-2 8.1s-2-3.63-2-8.1c0-4.48.9-8.1 2-8.1s2 3.62 2 8.1"/>
  <path fill="#901f2a" fill-rule="nonzero" d="M333.73 293.94c0 4.47-.9 8.1-2 8.1s-1.98-3.63-1.98-8.1c0-4.48.9-8.1 2-8.1s1.98 3.62 1.98 8.1"/>
  <path fill="#901f2a" fill-rule="nonzero" d="M336.57 293.94c0 4.47-.9 8.1-2 8.1s-1.98-3.63-1.98-8.1c0-4.48.8-8.1 1.9-8.1s2 3.62 2 8.1"/>
  <path fill="#901f2a" fill-rule="nonzero" d="M339.4 293.94c0 4.47-.88 8.1-1.98 8.1s-2-3.63-2-8.1c0-4.48.9-8.1 2-8.1s2 3.62 2 8.1"/>
  <path fill="#901f2a" fill-rule="nonzero" d="M342.25 293.94c0 4.47-.9 8.1-2 8.1s-1.98-3.63-1.98-8.1c0-4.48.9-8.1 2-8.1s1.98 3.62 1.98 8.1"/>
  <path fill="#901f2a" fill-rule="nonzero" d="M345.1 293.94c0 4.47-.9 8.1-2 8.1s-2-3.63-2-8.1c0-4.48.9-8.1 2-8.1s2 3.62 2 8.1"/>
  <path fill="#901f2a" fill-rule="nonzero" d="M347.93 293.94c0 4.47-.9 8.1-2 8.1s-1.98-3.63-1.98-8.1c0-4.48.9-8.1 2-8.1s1.98 3.62 1.98 8.1"/>
  <path fill="#901f2a" fill-rule="nonzero" d="M350.77 293.94c0 4.47-.9 8.1-2 8.1-1.08 0-1.97-3.63-1.97-8.1 0-4.48.9-8.1 1.98-8.1 1.1 0 2 3.62 2 8.1"/>
  <path fill="#901f2a" fill-rule="nonzero" d="M353.6 293.94c0 4.47-.88 8.1-1.98 8.1s-1.98-3.63-1.98-8.1c0-4.48.9-8.1 1.98-8.1 1.1 0 2 3.62 2 8.1"/>
  <path fill="#901f2a" fill-rule="nonzero" d="M356.46 293.94c0 4.47-.9 8.1-2 8.1s-1.98-3.63-1.98-8.1c0-4.48.9-8.1 2-8.1 1.08 0 1.98 3.62 1.98 8.1"/>
  <path fill="#901f2a" fill-rule="nonzero" d="M359.3 293.94c0 4.47-.9 8.1-2 8.1s-1.98-3.63-1.98-8.1c0-4.48.9-8.1 2-8.1s1.98 3.62 1.98 8.1"/>
  <path fill="#901f2a" fill-rule="nonzero" d="M362.14 293.94c0 4.47-.9 8.1-2 8.1s-1.98-3.63-1.98-8.1c0-4.48.9-8.1 2-8.1s1.98 3.62 1.98 8.1"/>
  <path fill="#901f2a" fill-rule="nonzero" d="M364.98 293.94c0 4.47-.9 8.1-2 8.1s-1.98-3.63-1.98-8.1c0-4.48.9-8.1 2-8.1s1.98 3.62 1.98 8.1"/>
  <path fill="#901f2a" fill-rule="nonzero" d="M367.82 293.94c0 4.47-.9 8.1-2 8.1s-1.98-3.63-1.98-8.1c0-4.48.9-8.1 2-8.1s1.98 3.62 1.98 8.1"/>
  <path fill="#901f2a" fill-rule="nonzero" d="M370.66 293.94c0 4.47-.9 8.1-2 8.1s-1.98-3.63-1.98-8.1c0-4.48.9-8.1 2-8.1s1.98 3.62 1.98 8.1"/>
  <path fill="#901f2a" fill-rule="nonzero" d="M373.5 293.94c0 4.47-.9 8.1-2 8.1s-1.98-3.63-1.98-8.1c0-4.48.9-8.1 2-8.1s1.98 3.62 1.98 8.1"/>
  <path fill="#901f2a" fill-rule="nonzero" d="M376.34 293.94c0 4.47-.9 8.1-2 8.1-1.08 0-1.97-3.63-1.97-8.1 0-4.48.9-8.1 1.98-8.1 1.1 0 2 3.62 2 8.1"/>
  <path fill="#901f2a" fill-rule="nonzero" d="M379.18 293.94c0 4.47-.9 8.1-1.98 8.1-1.1 0-2-3.63-2-8.1 0-4.48.9-8.1 2-8.1s1.98 3.62 1.98 8.1"/>
  <path fill="#901f2a" fill-rule="nonzero" d="M382.03 293.94c0 4.47-.9 8.1-2 8.1s-1.98-3.63-1.98-8.1c0-4.48.9-8.1 2-8.1 1.08 0 1.98 3.62 1.98 8.1"/>
  <path fill="#901f2a" fill-rule="nonzero" d="M384.87 293.94c0 4.47-.9 8.1-2 8.1s-1.98-3.63-1.98-8.1c0-4.48.8-8.1 1.9-8.1s2 3.62 2 8.1"/>
  <path fill="#901f2a" fill-rule="nonzero" d="M387.7 293.94c0 4.47-.88 8.1-1.98 8.1s-2-3.63-2-8.1c0-4.48.9-8.1 2-8.1s2 3.62 2 8.1"/>
  <path fill="#901f2a" fill-rule="nonzero" d="M390.55 293.94c0 4.47-.9 8.1-2 8.1s-1.98-3.63-1.98-8.1c0-4.48.9-8.1 2-8.1s1.98 3.62 1.98 8.1"/>
  <path fill="#901f2a" fill-rule="nonzero" d="M393.4 293.94c0 4.47-.9 8.1-2 8.1s-2-3.63-2-8.1c0-4.48.9-8.1 2-8.1s2 3.62 2 8.1"/>
  <path fill="#901f2a" fill-rule="nonzero" d="M396.23 293.94c0 4.47-.9 8.1-2 8.1s-1.98-3.63-1.98-8.1c0-4.48.9-8.1 2-8.1s1.98 3.62 1.98 8.1"/>
  <path fill="#901f2a" fill-rule="nonzero" d="M399.07 293.94c0 4.47-.9 8.1-2 8.1s-1.98-3.63-1.98-8.1c0-4.48.8-8.1 1.9-8.1s2 3.62 2 8.1"/>
  <path fill="#901f2a" fill-rule="nonzero" d="M401.9 293.94c0 4.47-.88 8.1-1.98 8.1s-2-3.63-2-8.1c0-4.48.9-8.1 2-8.1s2 3.62 2 8.1"/>
  <path fill="#901f2a" fill-rule="nonzero" d="M404.76 293.94c0 4.47-.9 8.1-2 8.1s-1.98-3.63-1.98-8.1c0-4.48.9-8.1 2-8.1 1.08 0 1.98 3.62 1.98 8.1"/>
  <path fill="#901f2a" fill-rule="nonzero" d="M407.6 293.94c0 4.47-.9 8.1-2 8.1s-1.98-3.63-1.98-8.1c0-4.48.9-8.1 2-8.1s1.98 3.62 1.98 8.1"/>
  <path fill="#901f2a" fill-rule="nonzero" d="M410.44 293.94c0 4.47-.9 8.1-2 8.1s-1.98-3.63-1.98-8.1c0-4.48.9-8.1 2-8.1 1.08 0 1.98 3.62 1.98 8.1"/>
  <path fill="#901f2a" fill-rule="nonzero" d="M413.28 293.94c0 4.47-.9 8.1-2 8.1s-1.98-3.63-1.98-8.1c0-4.48.9-8.1 2-8.1s1.98 3.62 1.98 8.1"/>
  <path fill="#901f2a" fill-rule="nonzero" d="M416.12 293.94c0 4.47-.9 8.1-2 8.1s-1.98-3.63-1.98-8.1c0-4.48.9-8.1 2-8.1s1.98 3.62 1.98 8.1"/>
  <path fill="#901f2a" fill-rule="nonzero" d="M418.96 293.94c0 4.47-.9 8.1-2 8.1s-1.98-3.63-1.98-8.1c0-4.48.9-8.1 2-8.1s1.98 3.62 1.98 8.1"/>
  <path fill="#901f2a" fill-rule="nonzero" d="M421.8 293.94c0 4.47-.9 8.1-2 8.1s-1.98-3.63-1.98-8.1c0-4.48.9-8.1 2-8.1s1.98 3.62 1.98 8.1"/>
  <path fill="#901f2a" fill-rule="nonzero" d="M424.64 293.94c0 4.47-.9 8.1-2 8.1s-1.98-3.63-1.98-8.1c0-4.48.9-8.1 2-8.1s1.98 3.62 1.98 8.1"/>
  <path fill="#e72b48" fill-rule="nonzero" d="M322.37 301.5c0 1.76-1.43 3.2-3.2 3.2h-6.37c-1.76 0-3.2-1.44-3.2-3.2v-14.88c0-1.77 1.44-3.2 3.2-3.2h6.38c1.76 0 3.2 1.43 3.2 3.2v14.88z"/>
  <path fill="#22648a" fill-rule="nonzero" d="M301.53 230.1h14.05v17.3h-14.05z"/>
  <path fill="#22648a" fill-rule="nonzero" d="M315.45 244.04c-.3 0-.55-.44-.55-.98v-8.84c0-.54.24-.98.55-.98.3 0 .55.44.55.98v8.84c0 .54-.25.98-.55.98m1.95 0c-.3 0-.55-.44-.55-.98v-8.84c0-.54.24-.98.55-.98.3 0 .54.44.54.98v8.84c0 .54-.24.98-.54.98m1.95 0c-.3 0-.55-.44-.55-.98v-8.84c0-.54.25-.98.55-.98.3 0 .55.44.55.98v8.84c0 .54-.25.98-.55.98m1.95 0c-.3 0-.55-.44-.55-.98v-8.84c0-.54.25-.98.55-.98.3 0 .55.44.55.98v8.84c0 .54-.25.98-.55.98m1.95 0c-.3 0-.55-.44-.55-.98v-8.84c0-.54.25-.98.55-.98.3 0 .55.44.55.98v8.84c0 .54-.25.98-.55.98"/>
  <path fill="#22648a" fill-rule="nonzero" d="M315.32 234.67h7.94v8.07h-7.94zm11.94 4.68h-2.2v-1.04h2.2c-.18-5.1-3.75-6.7-3.75-6.7v14.9s3.5-.4 3.8-7m-25.7 14.2h14.1V271h-14.1z"/>
  <path fill="#22648a" fill-rule="nonzero" d="M315.45 267.43c-.3 0-.55-.44-.55-.98v-8.84c0-.5.24-.9.55-.9.3 0 .55.5.55 1v8.9c0 .6-.25 1-.55 1m1.95 0c-.3 0-.55-.4-.55-1v-8.8c0-.5.24-.9.55-.9.3 0 .54.5.54 1v8.9c0 .6-.24 1-.54 1m1.95 0c-.3 0-.55-.4-.55-1V258c0-.55.25-1 .55-1 .3 0 .55.46.55 1v8.85c0 .53-.25 1-.55 1m1.95-.05c-.3 0-.55-.45-.55-1v-8.83c0-.5.25-.94.55-.94.3 0 .55.45.55 1v8.8c0 .6-.25 1-.55 1m1.95 0c-.3 0-.55-.44-.55-1V258c0-.5.25-.93.55-.93.3 0 .55.4.55.97v8.9c0 .58-.25 1-.55 1"/>
  <path fill="#22648a" fill-rule="nonzero" d="M315.32 258.06h7.94v8.07h-7.94zm11.94 4.7h-2.2v-1.05h2.2c-.18-5.2-3.75-6.7-3.75-6.7v14.9s3.5-.4 3.8-7"/>
  <path fill="#23648b" fill-rule="nonzero" d="M145.15 305.05h-13.82v-77.27H148v6.38h-10.3v64.5h7.45v6.4z"/>
  <path fill="#eabea7" fill-rule="nonzero" d="M311.74 307.88c0 3.52-2.86 6.38-6.38 6.38H151.18c-3.53 0-6.38-2.86-6.38-6.38v-86.13c0-3.52 2.85-6.38 6.38-6.38h154.18c3.52 0 6.38 2.86 6.38 6.38v86.13z"/>
  <path fill="#f9bd38" fill-rule="nonzero" d="M294.92 191.98H173.7c-2.07 0-3.84 1.2-4.72 2.92l-.16.3-.02.04c-.4.78-.6 1.66-.6 2.6v28.7c0 3.23 2.6 5.84 5.84 5.84 3.23 0 5.85-2.6 5.85-5.84V202.6h115c2.9 0 5.3-2.37 5.3-5.3 0-2.94-2.4-5.32-5.3-5.32"/>
  <path fill="#b1c4ce" fill-rule="nonzero" d="M291.18 305c-2.52 0-4.57-2.04-4.57-4.56 0-2.53 2.1-4.58 4.6-4.58 2.6 0 4.6 2.05 4.6 4.58 0 2.52-2 4.57-4.6 4.57"/>
  <path fill="#fff" fill-rule="nonzero" d="M272.88 305c-2.53 0-4.58-2.04-4.58-4.56 0-2.53 2.05-4.58 4.58-4.58 2.53 0 4.58 2.05 4.58 4.58 0 2.52-2.05 4.57-4.58 4.57"/>
  <path fill="#11354b" fill-rule="nonzero" d="M233.76 305c-2.53 0-4.57-2.04-4.57-4.56 0-2.53 2-4.58 4.5-4.58s4.6 2.05 4.6 4.58c0 2.52-2.1 4.57-4.6 4.57"/>
  <path fill="#e72b48" fill-rule="nonzero" d="M254.58 305c-2.53 0-4.58-2.04-4.58-4.56 0-2.53 2.05-4.58 4.58-4.58 2.53 0 4.58 2.05 4.58 4.58 0 2.52-2.05 4.57-4.58 4.57"/>
  <path fill="#b1c4ce" fill-rule="nonzero" d="M303.67 251.17c0 3.7-3 6.7-6.7 6.7H192.25c-3.7 0-6.7-3-6.7-6.7v-19.9c0-3.68 3-6.68 6.7-6.68h104.72c3.7 0 6.7 3 6.7 6.6v19.9z"/>
  <path fill="#11354b" fill-rule="nonzero" d="M192.25 226.7c-2.52 0-4.57 2.06-4.57 4.58v19.9c0 2.5 2.05 4.56 4.57 4.56h104.72c2.52 0 4.57-2.05 4.57-4.57v-19.9c0-2.5-2.05-4.56-4.57-4.56H192.25zM296.97 260H192.25c-4.86 0-8.82-3.96-8.82-8.83v-19.9c0-4.85 3.96-8.8 8.82-8.8h104.72c4.87 0 8.83 3.95 8.83 8.8v19.9c0 4.87-3.96 8.83-8.83 8.83"/>
  <path fill="#11354b" fill-rule="nonzero" d="M259.28 257.55c0 3.33-2.7 6.02-6.02 6.02h-9.93c-3.33 0-6.02-2.7-6.02-6.02 0-3.33 2.7-6.03 6.1-6.03h10c3.3 0 6 2.7 6 6.03"/>
  <path fill="#fff" fill-rule="nonzero" d="M174.05 292.02c0 4.4-3.57 7.97-7.98 7.97-4.4 0-7.97-3.6-7.97-8s3.57-8 7.97-8 7.98 3.5 7.98 8"/>
  <path fill="#fff" fill-rule="nonzero" d="M169.6 293c0 2.04-1.65 3.7-3.7 3.7-2.03 0-3.68-1.66-3.68-3.7v-47.06c0-2.04 1.65-3.7 3.7-3.7 2.03 0 3.68 1.66 3.68 3.7V293z"/>
  <path fill="#901f2a" fill-rule="nonzero" d="M167.68 286.43v-35.95c0-.94-.77-1.7-1.7-1.7-.95 0-1.72.76-1.72 1.7v35.76c-1.9.62-3.3 2.4-3.3 4.5 0 2.63 2.13 4.76 4.75 4.76 2.7 0 4.8-2.13 4.8-4.75 0-1.92-1.1-3.57-2.8-4.32"/>
  <path fill="#f28f63" fill-rule="nonzero" d="M154.6 243.9h4.4v1.07h-4.4zm0 3.82h4.4v1.06h-4.4zm0 3.82h2.65v1.06h-2.64zm0 3.82h4.4v1.06h-4.4zm0 3.8h4.4v1.07h-4.4zm0 3.84h2.65v1.05h-2.64zm0 3.8h4.4v1.07h-4.4zm0 3.82h4.4v1.06h-4.4zm0 3.82h2.65v1.06h-2.64zm0 3.8h4.4v1.07h-4.4zm0 3.83h4.4v1.06h-4.4z"/>
</svg>
