<?xml version="1.0" encoding="UTF-8" standalone="no"?>
<!-- Created with Inkscape (http://www.inkscape.org/) -->

<svg
   xmlns:dc="http://purl.org/dc/elements/1.1/"
   xmlns:cc="http://creativecommons.org/ns#"
   xmlns:rdf="http://www.w3.org/1999/02/22-rdf-syntax-ns#"
   xmlns:svg="http://www.w3.org/2000/svg"
   xmlns="http://www.w3.org/2000/svg"
   xmlns:sodipodi="http://sodipodi.sourceforge.net/DTD/sodipodi-0.dtd"
   xmlns:inkscape="http://www.inkscape.org/namespaces/inkscape"
   id="svg2"
   version="1.1"
   inkscape:version="0.91 r13725"
   xml:space="preserve"
   width="590"
   height="392.48105"
   viewBox="0 0 590 392.48105"
   sodipodi:docname="rocket.svg"><metadata
     id="metadata8"><rdf:RDF><cc:Work
         rdf:about=""><dc:format>image/svg+xml</dc:format><dc:type
           rdf:resource="http://purl.org/dc/dcmitype/StillImage" /><dc:title></dc:title></cc:Work></rdf:RDF></metadata><defs
     id="defs6"><clipPath
       clipPathUnits="userSpaceOnUse"
       id="clipPath16"><path
         d="M 0.688,0 800,0 l 0,800 -799.312,0 0,-800 z"
         id="path18"
         inkscape:connector-curvature="0" /></clipPath><linearGradient
       x1="0"
       y1="0"
       x2="1"
       y2="0"
       gradientUnits="userSpaceOnUse"
       gradientTransform="matrix(0,1020.9094,1020.9094,0,400.68759,-49)"
       spreadMethod="pad"
       id="linearGradient24"><stop
         style="stop-opacity:1;stop-color:#111123"
         offset="0"
         id="stop26" /><stop
         style="stop-opacity:1;stop-color:#06060c"
         offset="1"
         id="stop28" /></linearGradient><clipPath
       clipPathUnits="userSpaceOnUse"
       id="clipPath36"><path
         d="M 0.688,0 800,0 l 0,800 -799.312,0 0,-800 z"
         id="path38"
         inkscape:connector-curvature="0" /></clipPath><linearGradient
       x1="0"
       y1="0"
       x2="1"
       y2="0"
       gradientUnits="userSpaceOnUse"
       gradientTransform="matrix(0,1020.9094,1020.9094,0,400.68759,-49)"
       spreadMethod="pad"
       id="linearGradient44"><stop
         style="stop-opacity:1;stop-color:#111123"
         offset="0"
         id="stop46" /><stop
         style="stop-opacity:1;stop-color:#06060c"
         offset="1"
         id="stop48" /></linearGradient><clipPath
       clipPathUnits="userSpaceOnUse"
       id="clipPath56"><path
         d="M 0.688,0 800,0 l 0,800 -799.312,0 0,-800 z"
         id="path58"
         inkscape:connector-curvature="0" /></clipPath><linearGradient
       x1="0"
       y1="0"
       x2="1"
       y2="0"
       gradientUnits="userSpaceOnUse"
       gradientTransform="matrix(0,1020.9094,1020.9094,0,400.68759,-49)"
       spreadMethod="pad"
       id="linearGradient64"><stop
         style="stop-opacity:1;stop-color:#111123"
         offset="0"
         id="stop66" /><stop
         style="stop-opacity:1;stop-color:#06060c"
         offset="1"
         id="stop68" /></linearGradient><clipPath
       clipPathUnits="userSpaceOnUse"
       id="clipPath76"><path
         d="M 0.688,0 800,0 l 0,800 -799.312,0 0,-800 z"
         id="path78"
         inkscape:connector-curvature="0" /></clipPath><clipPath
       clipPathUnits="userSpaceOnUse"
       id="clipPath84"><path
         d="m -50.9454,633.594 980.8614,0 0,-261.007 -980.8614,0 0,261.007 z"
         id="path86"
         inkscape:connector-curvature="0" /></clipPath><clipPath
       clipPathUnits="userSpaceOnUse"
       id="clipPath100"><path
         d="m -68.1468,159.044 1030.0788,0 0,-340.273 -1030.0788,0 0,340.273 z"
         id="path102"
         inkscape:connector-curvature="0" /></clipPath><clipPath
       clipPathUnits="userSpaceOnUse"
       id="clipPath116"><path
         d="m -102.669,851.607 1118.649,0 0,-164.824 -1118.649,0 0,164.824 z"
         id="path118"
         inkscape:connector-curvature="0" /></clipPath><clipPath
       clipPathUnits="userSpaceOnUse"
       id="clipPath220"><path
         d="M 0,800 800,800 800,0 0,0 0,800 Z"
         id="path222"
         inkscape:connector-curvature="0" /></clipPath><clipPath
       clipPathUnits="userSpaceOnUse"
       id="clipPath352"><path
         d="m 242.567,594.53 310.25,0 0,-310.25 -310.25,0 0,310.25 z"
         id="path354"
         inkscape:connector-curvature="0" /></clipPath><clipPath
       clipPathUnits="userSpaceOnUse"
       id="clipPath368"><path
         d="m 283.715,553.383 227.955,0 0,-227.955 -227.955,0 0,227.955 z"
         id="path370"
         inkscape:connector-curvature="0" /></clipPath><clipPath
       clipPathUnits="userSpaceOnUse"
       id="clipPath612"><path
         d="m 94.462,737.263 c 30.279,-11.866 54.478,-29.23 76.571,-51.936 l 0,0 c 1.308,4.393 2.02,9.043 2.02,13.86 l 0,0 c 0,26.801 -21.726,48.527 -48.525,48.527 l 0,0 c -11.359,0 -21.798,-3.914 -30.066,-10.451"
         id="path614"
         inkscape:connector-curvature="0" /></clipPath><clipPath
       clipPathUnits="userSpaceOnUse"
       id="clipPath628"><path
         d="M 0,800 800,800 800,0 0,0 0,800 Z"
         id="path630"
         inkscape:connector-curvature="0" /></clipPath><clipPath
       clipPathUnits="userSpaceOnUse"
       id="clipPath748"><path
         d="M 170.494,210.202 C 156.502,195.754 133.738,176.16 113.29,166.663 l 0,0 c -0.796,-3.966 -1.219,-8.067 -1.219,-12.267 l 0,0 c 0,-6.552 1.024,-12.864 2.908,-18.792 l 0,0 c 30.066,15.749 59.337,37.337 81.224,62.268 l 0,0 c 2.964,3.377 5.725,6.909 8.535,10.401 l 0,0 c -8.595,4.902 -18.471,7.803 -29.009,8.081 l 0,0 c -1.665,-2.111 -3.352,-4.207 -5.235,-6.152"
         id="path750"
         inkscape:connector-curvature="0" /></clipPath><clipPath
       clipPathUnits="userSpaceOnUse"
       id="clipPath760"><path
         d="M 0,800 800,800 800,0 0,0 0,800 Z"
         id="path762"
         inkscape:connector-curvature="0" /></clipPath><clipPath
       clipPathUnits="userSpaceOnUse"
       id="clipPath816"><path
         d="m 634.526,86.317 c 0,-10.862 8.806,-19.667 19.667,-19.667 l 0,0 c 10.862,0 19.667,8.805 19.667,19.667 l 0,0 c 0,10.861 -8.805,19.667 -19.667,19.667 l 0,0 c -10.861,0 -19.667,-8.806 -19.667,-19.667"
         id="path818"
         inkscape:connector-curvature="0" /></clipPath><clipPath
       clipPathUnits="userSpaceOnUse"
       id="clipPath824"><path
         d="m 632.036,95.9349 48.16,0 0,-12.6491 -48.16,0 0,12.6491 z"
         id="path826"
         inkscape:connector-curvature="0" /></clipPath><clipPath
       clipPathUnits="userSpaceOnUse"
       id="clipPath840"><path
         d="m 0,203.548 800,0 0,328.257 -800,0 0,-328.257 z"
         id="path842"
         inkscape:connector-curvature="0" /></clipPath><clipPath
       clipPathUnits="userSpaceOnUse"
       id="clipPath904"><path
         d="M 0,800 800,800 800,0 0,0 0,800 Z"
         id="path906"
         inkscape:connector-curvature="0" /></clipPath></defs><sodipodi:namedview
     pagecolor="#ffffff"
     bordercolor="#666666"
     borderopacity="1"
     objecttolerance="10"
     gridtolerance="10"
     guidetolerance="10"
     inkscape:pageopacity="0"
     inkscape:pageshadow="2"
     inkscape:window-width="1440"
     inkscape:window-height="856"
     id="namedview4"
     showgrid="false"
     inkscape:zoom="1.2284039"
     inkscape:cx="209.01175"
     inkscape:cy="219.47936"
     inkscape:window-x="0"
     inkscape:window-y="0"
     inkscape:window-maximized="0"
     inkscape:current-layer="g10"
     fit-margin-top="0"
     fit-margin-left="0"
     fit-margin-right="0"
     fit-margin-bottom="0" /><g
     id="g10"
     inkscape:groupmode="layer"
     inkscape:label="16539-NQPCX5"
     transform="matrix(1.25,0,0,-1.25,-44.122403,743.1625)"><g
       id="g536"
       transform="translate(145.0502,563.3705)" /><g
       id="g604"
       transform="translate(171.0332,685.327)" /><g
       id="g836"
       transform="matrix(0.59111252,0,0,0.59111252,0.28131458,243.09587)" /><g
       id="g6404"
       transform="translate(25.142983,0)"><g
         transform="matrix(0.48763734,0,0,0.31450022,41.706992,327.47258)"
         style="fill:#2e2e2e;fill-opacity:1"
         id="g12"><g
           style="fill:#2e2e2e;fill-opacity:1"
           clip-path="url(#clipPath16)"
           id="g14"><g
             style="fill:#2e2e2e;fill-opacity:1"
             id="g20"><g
               style="fill:#2e2e2e;fill-opacity:1"
               id="g22"><path
                 inkscape:connector-curvature="0"
                 id="path30"
                 style="fill:#2e2e2e;fill-opacity:1;stroke:none"
                 d="M 0.688,0 800,0 l 0,800 -799.312,0 0,-800 z" /></g></g></g></g><g
         transform="matrix(0.59111252,0,0,0.59111252,0.28131458,243.09587)"
         id="g348"><g
           id="g350" /><g
           id="g356"><g
             style="opacity:0.10000598"
             id="g358"
             clip-path="url(#clipPath352)"><g
               id="g360"
               transform="translate(552.8174,439.4051)"><path
                 inkscape:connector-curvature="0"
                 id="path362"
                 style="fill:#ffdb31;fill-opacity:1;fill-rule:nonzero;stroke:none"
                 d="m 0,0 c 0,-85.673 -69.452,-155.125 -155.125,-155.125 -85.673,0 -155.125,69.452 -155.125,155.125 0,85.673 69.452,155.125 155.125,155.125 C -69.452,155.125 0,85.673 0,0" /></g></g></g></g><g
         transform="matrix(0.59111252,0,0,0.59111252,0.28131458,243.09587)"
         id="g364"><g
           id="g366" /><g
           id="g372"><g
             style="opacity:0.10000598"
             id="g374"
             clip-path="url(#clipPath368)"><g
               id="g376"
               transform="translate(511.6699,439.4051)"><path
                 inkscape:connector-curvature="0"
                 id="path378"
                 style="fill:#ffdb31;fill-opacity:1;fill-rule:nonzero;stroke:none"
                 d="m 0,0 c 0,-62.948 -51.029,-113.978 -113.978,-113.978 -62.948,0 -113.977,51.03 -113.977,113.978 0,62.948 51.029,113.978 113.977,113.978 C -51.029,113.978 0,62.948 0,0" /></g></g></g></g><g
         transform="matrix(0.59111252,0,0,0.59111252,294.10112,502.83373)"
         id="g380"><path
           inkscape:connector-curvature="0"
           id="path382"
           style="fill:#fff533;fill-opacity:1;fill-rule:nonzero;stroke:none"
           d="m 0,0 c 0,-54.881 -44.489,-99.37 -99.37,-99.37 -54.881,0 -99.37,44.489 -99.37,99.37 0,54.881 44.489,99.37 99.37,99.37 C -44.489,99.37 0,54.881 0,0" /></g><g
         transform="matrix(0.59111252,0,0,0.59111252,287.0894,502.83373)"
         id="g384"><path
           inkscape:connector-curvature="0"
           id="path386"
           style="fill:#ffdb31;fill-opacity:1;fill-rule:nonzero;stroke:none"
           d="m 0,0 c 0,-48.329 -39.179,-87.508 -87.508,-87.508 -48.33,0 -87.508,39.179 -87.508,87.508 0,48.329 39.178,87.508 87.508,87.508 C -39.179,87.508 0,48.329 0,0" /></g><g
         transform="matrix(0.59111252,0,0,0.59111252,261.29556,471.72442)"
         id="g388"><path
           inkscape:connector-curvature="0"
           id="path390"
           style="fill:#880000;fill-opacity:1;fill-rule:nonzero;stroke:none"
           d="m 0,0 c 29.066,22.424 11.753,78.223 11.753,78.223 -19,-13 -90.5,-46 -90.5,-46 0,0 10.417,-12.586 24.729,-23.363 C -40.216,13.885 -18.408,17.313 0,0" /></g><g
         transform="matrix(0.59111252,0,0,0.59111252,260.26318,470.96975)"
         id="g392"><path
           inkscape:connector-curvature="0"
           id="path394"
           style="fill:#ff7676;fill-opacity:1;fill-rule:nonzero;stroke:none"
           d="M 0,0 C 0.602,0.411 1.18,0.84 1.747,1.277 -16.661,18.59 -38.47,15.162 -52.271,10.136 -36.667,-1.614 -16.43,-11.214 0,0" /></g><g
         transform="matrix(0.59111252,0,0,0.59111252,226.93833,513.40973)"
         id="g396"><path
           inkscape:connector-curvature="0"
           id="path398"
           style="fill:#1d1d1b;fill-opacity:1;fill-rule:nonzero;stroke:none"
           d="m 0,0 c 2.313,-6.063 1.783,-11.896 -1.184,-13.028 -2.967,-1.132 -7.247,2.866 -9.561,8.929 -2.313,6.063 -1.783,11.896 1.184,13.028 C -6.594,10.061 -2.313,6.063 0,0" /></g><g
         transform="matrix(0.59111252,0,0,0.59111252,253.92114,525.67869)"
         id="g400"><path
           inkscape:connector-curvature="0"
           id="path402"
           style="fill:#1d1d1b;fill-opacity:1;fill-rule:nonzero;stroke:none"
           d="m 0,0 c 2.313,-6.063 1.783,-11.896 -1.184,-13.028 -2.967,-1.132 -7.247,2.866 -9.561,8.929 -2.313,6.063 -1.783,11.896 1.184,13.028 C -6.594,10.061 -2.313,6.063 0,0" /></g><g
         transform="matrix(0.59111252,0,0,0.59111252,229.3649,567.61664)"
         id="g404"><path
           inkscape:connector-curvature="0"
           id="path406"
           style="fill:#ffdb31;fill-opacity:1;fill-rule:nonzero;stroke:none"
           d="M 0,0 10.146,42.667 23.08,0 0,0 Z" /></g><g
         transform="matrix(0.59111252,0,0,0.59111252,185.31307,544.40141)"
         id="g408"><path
           inkscape:connector-curvature="0"
           id="path410"
           style="fill:#ffdb31;fill-opacity:1;fill-rule:nonzero;stroke:none"
           d="M 0,0 -22.996,37.344 16.32,16.32 0,0 Z" /></g><g
         transform="matrix(0.59111252,0,0,0.59111252,170.57935,496.83636)"
         id="g412"><path
           inkscape:connector-curvature="0"
           id="path414"
           style="fill:#ffdb31;fill-opacity:1;fill-rule:nonzero;stroke:none"
           d="M 0,0 -42.667,10.146 0,23.08 0,0 Z" /></g><g
         transform="matrix(0.59111252,0,0,0.59111252,193.79459,452.78452)"
         id="g416"><path
           inkscape:connector-curvature="0"
           id="path418"
           style="fill:#ffdb31;fill-opacity:1;fill-rule:nonzero;stroke:none"
           d="M 0,0 -37.344,-22.996 -16.32,16.32 0,0 Z" /></g><g
         transform="matrix(0.59111252,0,0,0.59111252,241.35958,438.05081)"
         id="g420"><path
           inkscape:connector-curvature="0"
           id="path422"
           style="fill:#ffdb31;fill-opacity:1;fill-rule:nonzero;stroke:none"
           d="M 0,0 -10.146,-42.667 -23.08,0 0,0 Z" /></g><g
         transform="matrix(0.59111252,0,0,0.59111252,285.41147,461.26604)"
         id="g424"><path
           inkscape:connector-curvature="0"
           id="path426"
           style="fill:#ffdb31;fill-opacity:1;fill-rule:nonzero;stroke:none"
           d="M 0,0 22.996,-37.344 -16.32,-16.32 0,0 Z" /></g><g
         transform="matrix(0.59111252,0,0,0.59111252,300.14519,508.83104)"
         id="g428"><path
           inkscape:connector-curvature="0"
           id="path430"
           style="fill:#ffdb31;fill-opacity:1;fill-rule:nonzero;stroke:none"
           d="M 0,0 42.667,-10.146 0,-23.08 0,0 Z" /></g><g
         transform="matrix(0.59111252,0,0,0.59111252,276.92995,552.88293)"
         id="g432"><path
           inkscape:connector-curvature="0"
           id="path434"
           style="fill:#ffdb31;fill-opacity:1;fill-rule:nonzero;stroke:none"
           d="M 0,0 37.344,22.996 16.32,-16.32 0,0 Z" /></g><g
         transform="matrix(0.59111252,0,0,0.59111252,455.5388,519.14542)"
         id="g436"><path
           inkscape:connector-curvature="0"
           id="path438"
           style="fill:#d29529;fill-opacity:1;fill-rule:nonzero;stroke:none"
           d="m 0,0 c 0,-41.419 -33.578,-74.996 -74.998,-74.996 -41.421,0 -74.999,33.577 -74.999,74.996 0,41.419 33.578,74.996 74.999,74.996 C -33.578,74.996 0,41.419 0,0" /></g><g
         transform="matrix(0.59111252,0,0,0.59111252,440.78906,521.99174)"
         id="g440"><path
           inkscape:connector-curvature="0"
           id="path442"
           style="fill:#ffcd68;fill-opacity:1;fill-rule:nonzero;stroke:none"
           d="m 0,0 c 8.564,1.687 15.981,4.617 24.191,5.802 -1.162,8.192 -3.649,15.953 -7.235,23.07 -4.371,-1.715 -8.776,-3.695 -13.909,-5.391 -20.071,-6.63 -40.574,3.327 -61.335,4.218 -20.314,0.871 -35.516,2.448 -51.832,12.383 -4.37,-5.837 -7.904,-12.334 -10.437,-19.312 C -99.734,8.87 -83.092,7.369 -58.839,4.812 -38.512,2.669 -20.921,-4.12 0,0" /></g><g
         transform="matrix(0.59111252,0,0,0.59111252,442.5903,535.87195)"
         id="g444"><path
           inkscape:connector-curvature="0"
           id="path446"
           style="fill:#d29529;fill-opacity:1;fill-rule:nonzero;stroke:none"
           d="M 0,0 C 5.132,1.695 9.538,3.675 13.909,5.391 12.622,7.945 11.197,10.416 9.637,12.793 5.327,10.908 0.986,8.925 -4.015,7.366 -15.358,3.831 -20.914,7.401 -31.978,8.89 c -10.5,1.413 -20.397,-1.67 -30.816,-0.82 -14.083,1.148 -32.522,5.829 -45.215,14.683 -1.822,-1.96 -3.552,-4.007 -5.158,-6.153 C -96.851,6.666 -81.65,5.089 -61.335,4.217 -40.574,3.327 -20.071,-6.63 0,0" /></g><g
         transform="matrix(0.59111252,0,0,0.59111252,422.70356,512.89978)"
         id="g448"><path
           inkscape:connector-curvature="0"
           id="path450"
           style="fill:#d29529;fill-opacity:1;fill-rule:nonzero;stroke:none"
           d="m 0,0 c 11.215,0.735 22.115,-3.222 33.299,-2.785 7.771,0.304 14.9,2.305 21.798,5.182 0.291,2.684 0.451,5.407 0.451,8.169 0,3.606 -0.27,7.147 -0.762,10.617 -8.21,-1.185 -15.626,-4.115 -24.19,-5.802 -20.921,-4.12 -38.512,2.669 -58.839,4.812 -24.254,2.557 -40.896,4.058 -61.718,15.958 -1.74,-4.795 -2.994,-9.822 -3.727,-15.016 C -73.928,11.639 -53.2,-5.193 -31.654,-5.54 -20.753,-5.716 -10.764,-0.705 0,0" /></g><g
         transform="matrix(0.59111252,0,0,0.59111252,423.68747,541.12694)"
         id="g452"><path
           inkscape:connector-curvature="0"
           id="path454"
           style="fill:#ffcd68;fill-opacity:1;fill-rule:nonzero;stroke:none"
           d="m 0,0 c 11.065,-1.489 16.62,-5.059 27.963,-1.524 5.001,1.559 9.342,3.542 13.652,5.427 -13.4,20.415 -36.482,33.906 -62.727,33.906 -21.694,0 -41.225,-9.222 -54.919,-23.946 C -63.338,5.009 -44.898,0.328 -30.816,-0.82 -20.396,-1.67 -10.5,1.413 0,0" /></g><g
         transform="matrix(0.59111252,0,0,0.59111252,401.47393,483.92433)"
         id="g456"><path
           inkscape:connector-curvature="0"
           id="path458"
           style="fill:#ffcd68;fill-opacity:1;fill-rule:nonzero;stroke:none"
           d="m 0,0 c -17.188,4.019 -31.243,15.817 -47.964,21.205 13.089,-21.926 37.04,-36.616 64.431,-36.616 12.198,0 23.706,2.931 33.886,8.098 -0.989,0.4 -1.975,0.803 -2.954,1.198 C 30.066,0.872 17.442,-4.078 0,0" /></g><g
         transform="matrix(0.59111252,0,0,0.59111252,442.38702,511.25371)"
         id="g460"><path
           inkscape:connector-curvature="0"
           id="path462"
           style="fill:#ffcd68;fill-opacity:1;fill-rule:nonzero;stroke:none"
           d="m 0,0 c -11.184,-0.437 -22.084,3.52 -33.299,2.785 -10.764,-0.706 -20.753,-5.716 -31.654,-5.541 -21.546,0.348 -42.274,17.18 -62.034,26.676 -0.487,-3.455 -0.756,-6.98 -0.756,-10.569 0,-4.411 0.403,-8.724 1.133,-12.926 18.581,-6.619 29.266,-19.319 50.926,-20.454 21.3,-1.115 42.207,-7.509 63.794,-8.193 7.959,-0.252 15.558,0.846 23.114,2.422 5.644,9.204 9.354,19.718 10.574,30.981 C 14.9,2.305 7.771,0.304 0,0" /></g><g
         transform="matrix(0.59111252,0,0,0.59111252,435.35851,494.57145)"
         id="g464"><path
           inkscape:connector-curvature="0"
           id="path466"
           style="fill:#b67b1c;fill-opacity:1;fill-rule:nonzero;stroke:none"
           d="m 0,0 c -21.586,0.684 -42.494,7.078 -63.794,8.193 -21.659,1.134 -32.345,13.835 -50.926,20.454 0.543,-3.121 1.261,-6.182 2.177,-9.158 7.907,-2.546 14.363,-5.547 21.998,-9.939 12.074,-6.946 13.389,-5.704 26.968,-6.58 21.265,-1.373 41.123,-11.555 62.045,-13.198 5.107,-0.402 10.275,-0.098 15.427,0.576 3.46,3.697 6.558,7.735 9.219,12.074 C 15.559,0.846 7.959,-0.252 0,0" /></g><g
         transform="matrix(0.59111252,0,0,0.59111252,434.45293,488.52532)"
         id="g468"><path
           inkscape:connector-curvature="0"
           id="path470"
           style="fill:#d29529;fill-opacity:1;fill-rule:nonzero;stroke:none"
           d="m 0,0 c -20.922,1.643 -40.78,11.826 -62.045,13.198 -13.579,0.877 -14.894,-0.366 -26.968,6.58 -7.635,4.392 -14.091,7.393 -21.998,9.94 1.773,-5.76 4.225,-11.22 7.256,-16.297 16.72,-5.388 30.776,-17.186 47.964,-21.205 17.441,-4.078 30.066,0.872 47.398,-6.115 0.98,-0.395 1.965,-0.798 2.955,-1.198 C 2.414,-11.111 9.468,-5.79 15.427,0.576 10.275,-0.098 5.107,-0.401 0,0" /></g><g
         transform="matrix(0.59111252,0,0,0.59111252,417.924,529.88321)"
         id="g472"><path
           inkscape:connector-curvature="0"
           id="path474"
           style="fill:#1d1d1b;fill-opacity:1;fill-rule:nonzero;stroke:none"
           d="m 0,0 c -0.818,-4.996 -3.543,-8.709 -6.087,-8.292 -2.543,0.416 -3.942,4.804 -3.124,9.8 0.818,4.996 3.543,8.709 6.087,8.292 C -0.581,9.384 0.818,4.996 0,0" /></g><g
         transform="matrix(0.59111252,0,0,0.59111252,397.62916,531.95211)"
         id="g476"><path
           inkscape:connector-curvature="0"
           id="path478"
           style="fill:#1d1d1b;fill-opacity:1;fill-rule:nonzero;stroke:none"
           d="m 0,0 c -0.818,-4.996 -3.543,-8.709 -6.087,-8.292 -2.543,0.416 -3.942,4.804 -3.124,9.8 0.818,4.996 3.543,8.709 6.087,8.292 C -0.581,9.384 0.818,4.996 0,0" /></g><g
         transform="matrix(0.59111252,0,0,0.59111252,394.90691,522.94006)"
         id="g480"><path
           inkscape:connector-curvature="0"
           id="path482"
           style="fill:#880000;fill-opacity:1;fill-rule:nonzero;stroke:none"
           d="m 0,0 c 0,0 24.989,0.333 29.494,0 0,0 -5.666,-18.667 -14.747,-19.333 C 5.667,-20 0,0 0,0" /></g><g
         transform="matrix(0.59111252,0,0,0.59111252,428.60032,509.62218)"
         id="g484"><path
           inkscape:connector-curvature="0"
           id="path486"
           style="fill:#d29529;fill-opacity:1;fill-rule:nonzero;stroke:none"
           d="M 0,0 C -24.106,2.863 -30,-13.548 -6,-16.342 18,-19.136 24.106,-2.863 0,0" /></g><g
         transform="matrix(0.59111252,0,0,0.59111252,72.258603,440.56002)"
         id="g488"><path
           inkscape:connector-curvature="0"
           id="path490"
           style="fill:#ff4f2c;fill-opacity:1;fill-rule:nonzero;stroke:none"
           d="M 0,0 C -14.61,-1.537 -26.871,-10.94 -32.482,-23.896 -21.246,-22.202 -6.024,-10.857 0,0" /></g><g
         transform="matrix(0.59111252,0,0,0.59111252,53.202022,407.34305)"
         id="g492"><path
           inkscape:connector-curvature="0"
           id="path494"
           style="fill:#ed4116;fill-opacity:1;fill-rule:nonzero;stroke:none"
           d="M 0,0 C 1.681,-3.727 3.911,-7.151 6.595,-10.166 18.114,-2.809 13.592,8.248 0,0" /></g><g
         transform="matrix(0.59111252,0,0,0.59111252,70.066581,416.29568)"
         id="g496"><path
           inkscape:connector-curvature="0"
           id="path498"
           style="fill:#ed4116;fill-opacity:1;fill-rule:nonzero;stroke:none"
           d="m 0,0 c 8.811,0.338 6.791,5.1 12.957,8.755 6.324,3.75 10.013,3.445 16.586,6.118 6.158,2.505 10.431,3.478 12.488,7.33 C 34.992,33.643 22.36,41.274 7.943,41.274 6.512,41.274 5.1,41.195 3.708,41.049 -2.316,30.192 -17.537,18.846 -28.774,17.153 -30.603,12.93 -31.727,8.331 -31.993,3.501 -20.93,16.281 -12.113,-0.465 0,0" /></g><g
         transform="matrix(0.59111252,0,0,0.59111252,79.069165,412.64396)"
         id="g500"><path
           inkscape:connector-curvature="0"
           id="path502"
           style="fill:#d02b0b;fill-opacity:1;fill-rule:nonzero;stroke:none"
           d="m 0,0 c 10.573,7.454 17.109,11.077 27.705,16.18 1.247,0.6 2.458,1.176 3.609,1.758 -1.009,3.724 -2.538,7.234 -4.513,10.442 C 24.745,24.529 20.471,23.556 14.313,21.051 7.74,18.378 4.051,18.683 -2.273,14.933 -8.439,11.278 -6.419,6.516 -15.23,6.178 -27.343,5.713 -36.16,22.459 -47.222,9.679 c -0.041,-0.738 -0.065,-1.48 -0.065,-2.228 0,-5.853 1.267,-11.408 3.527,-16.419 13.592,8.248 18.114,-2.809 6.595,-10.165 2.435,-2.735 5.24,-5.128 8.336,-7.112 C -18.973,-16.156 -12.373,-8.723 0,0" /></g><g
         transform="matrix(0.59111252,0,0,0.59111252,97.202783,409.6031)"
         id="g504"><path
           inkscape:connector-curvature="0"
           id="path506"
           style="fill:#ff4f2c;fill-opacity:1;fill-rule:nonzero;stroke:none"
           d="M 0,0 C -6.83,-1.058 -14.234,-0.683 -20.733,-5.255 -28.568,-10.768 -32.55,-19.24 -36.905,-27.378 -19.68,-26.928 -5.173,-15.598 0,0" /></g><g
         transform="matrix(0.59111252,0,0,0.59111252,84.947307,406.49675)"
         id="g508"><path
           inkscape:connector-curvature="0"
           id="path510"
           style="fill:#ed4116;fill-opacity:1;fill-rule:nonzero;stroke:none"
           d="m 0,0 c 6.499,4.572 13.903,4.198 20.733,5.255 1.314,3.962 2.035,8.193 2.035,12.596 0,3.63 -0.492,7.143 -1.398,10.486 C 20.219,27.755 19.008,27.179 17.761,26.579 7.164,21.477 0.629,17.853 -9.944,10.399 -22.317,1.677 -28.918,-5.756 -38.774,-15.845 c 6.22,-3.985 13.608,-6.304 21.542,-6.304 0.356,0 0.707,0.017 1.06,0.027 C -11.817,-13.985 -7.836,-5.512 0,0" /></g><g
         transform="matrix(0.59111252,0,0,0.59111252,94.859318,428.89932)"
         id="g512"><path
           inkscape:connector-curvature="0"
           id="path514"
           style="fill:#d02b0b;fill-opacity:1;fill-rule:nonzero;stroke:none"
           d="m 0,0 c 0,0 -0.247,-0.185 -0.709,-0.53 -0.492,-0.291 -1.285,-0.751 -2.41,-0.86 -1.116,-0.137 -2.498,0.019 -3.973,0.379 -1.475,0.337 -3.103,0.856 -4.806,0.971 -0.861,0.071 -1.68,0.025 -2.554,-0.229 -0.52,-0.108 -0.877,-0.287 -1.296,-0.431 -0.421,-0.206 -0.852,-0.39 -1.265,-0.65 -1.689,-0.947 -3.256,-2.409 -4.948,-3.975 -0.844,-0.79 -1.749,-1.594 -2.747,-2.362 -0.973,-0.773 -2.186,-1.493 -3.188,-2.063 -2.098,-1.216 -4.196,-2.461 -6.375,-3.655 -2.188,-1.211 -4.393,-2.353 -6.805,-3.343 -2.485,-1.005 -5.499,-1.223 -8.017,-0.659 -2.524,0.566 -4.544,1.418 -6.472,1.946 -0.478,0.133 -0.95,0.276 -1.415,0.379 -0.229,0.054 -0.455,0.108 -0.68,0.161 -0.248,0.05 -0.493,0.1 -0.737,0.149 -0.905,0.172 -1.801,0.304 -2.649,0.396 -1.699,0.201 -3.212,0.104 -4.421,-0.171 -1.214,-0.286 -2.068,-0.83 -2.616,-1.453 -0.533,-0.635 -0.859,-1.274 -1.019,-1.746 -0.158,-0.48 -0.242,-0.736 -0.242,-0.736 l -1.978,0.297 c 0,0 0.049,0.344 0.141,0.987 0.105,0.641 0.367,1.623 1.087,2.734 0.708,1.126 2.073,2.194 3.731,2.767 1.655,0.603 3.563,0.789 5.535,0.732 0.992,-0.014 2.001,-0.14 3.056,-0.278 0.246,-0.037 0.493,-0.075 0.743,-0.113 0.269,-0.049 0.541,-0.098 0.814,-0.148 0.542,-0.093 1.075,-0.224 1.62,-0.348 2.158,-0.535 4.288,-1.367 6.277,-1.752 1.98,-0.418 3.908,-0.326 5.936,0.442 2.076,0.804 4.298,1.81 6.443,2.912 2.164,1.101 4.346,2.269 6.508,3.341 1.133,0.564 2.017,1.02 2.947,1.666 0.919,0.625 1.807,1.331 2.711,2.039 1.802,1.415 3.634,2.901 5.726,3.868 0.512,0.252 1.059,0.43 1.584,0.619 0.565,0.146 1.158,0.32 1.623,0.366 l 0.367,0.055 0.183,0.028 c 0.163,0.02 0.164,0.011 0.254,0.018 0.274,0.01 0.546,0.021 0.816,0.031 0.529,-0.037 1.052,-0.058 1.535,-0.164 1.962,-0.363 3.505,-1.108 4.901,-1.598 1.381,-0.524 2.602,-0.85 3.637,-0.866 0.518,-0.019 0.974,0.049 1.377,0.118 0.385,0.109 0.719,0.21 0.984,0.321 C -0.273,-0.142 0,0 0,0" /></g><g
         transform="matrix(0.59111252,0,0,0.59111252,72.096639,421.16166)"
         id="g516"><path
           inkscape:connector-curvature="0"
           id="path518"
           style="fill:#490401;fill-opacity:1;fill-rule:nonzero;stroke:none"
           d="m 0,0 c 0.659,-2.38 -0.108,-4.67 -1.714,-5.115 -1.607,-0.445 -3.443,1.123 -4.103,3.503 -0.659,2.38 0.108,4.67 1.715,5.115 C -2.496,3.948 -0.659,2.38 0,0" /></g><g
         transform="matrix(0.59111252,0,0,0.59111252,82.736664,425.39793)"
         id="g520"><path
           inkscape:connector-curvature="0"
           id="path522"
           style="fill:#490401;fill-opacity:1;fill-rule:nonzero;stroke:none"
           d="m 0,0 c 0.659,-2.38 -0.108,-4.67 -1.714,-5.115 -1.607,-0.445 -3.443,1.123 -4.103,3.503 -0.659,2.38 0.108,4.67 1.715,5.115 C -2.496,3.948 -0.659,2.38 0,0" /></g><g
         transform="matrix(0.59111252,0,0,0.59111252,78.728389,420.52828)"
         id="g524"><path
           inkscape:connector-curvature="0"
           id="path526"
           style="fill:#8b1509;fill-opacity:1;fill-rule:nonzero;stroke:none"
           d="M 0,0 C 0,0 0.378,0.047 1.059,0.133 1.399,0.18 1.811,0.248 2.28,0.337 2.51,0.393 2.763,0.438 3.014,0.509 3.269,0.589 3.493,0.637 3.869,0.801 4.299,0.977 4.826,1.03 5.215,0.669 5.389,0.495 5.566,0.296 5.651,0.03 5.702,-0.098 5.766,-0.224 5.794,-0.367 L 5.848,-0.802 C 5.896,-1.721 5.56,-2.619 5.02,-3.377 4.48,-4.145 3.72,-4.747 2.894,-5.183 2.74,-5.265 2.828,-5.22 2.805,-5.235 L 2.804,-5.242 2.81,-5.25 c 0.005,-0.003 0.009,-0.003 0.009,-0.003 -0.007,0 -0.046,0.002 -0.026,-0.041 0.008,-0.006 -0.008,0 0.02,-0.016 L 2.959,-5.387 3.248,-5.551 C 3.441,-5.658 3.632,-5.78 3.821,-5.902 4.199,-6.147 4.57,-6.425 4.924,-6.76 5.255,-7.098 5.67,-7.506 5.787,-8.214 5.864,-8.6 5.779,-8.799 5.755,-9.032 5.694,-9.271 5.641,-9.503 5.526,-9.737 c -0.2,-0.457 -0.61,-0.92 -1.12,-1.046 -0.5,-0.141 -0.945,-0.046 -1.335,0.131 0,0 0.267,-0.026 0.697,0.096 0.209,0.066 0.459,0.188 0.64,0.405 0.181,0.219 0.274,0.522 0.291,0.882 -0.004,0.187 -0.004,0.376 -0.038,0.588 -0.002,0.121 -0.038,0.163 -0.068,0.216 -0.009,0.055 -0.081,0.101 -0.124,0.161 -0.23,0.245 -0.669,0.516 -1.16,0.762 -0.243,0.127 -0.517,0.246 -0.797,0.369 -0.143,0.059 -0.288,0.12 -0.435,0.182 l -0.364,0.156 -0.469,0.189 c -1.223,0.497 -3.013,1.039 -4.678,1.619 0.689,0.181 1.396,0.367 2.121,0.558 0.766,0.21 1.55,0.425 2.352,0.644 0.214,0.051 0.362,0.121 0.545,0.182 0.152,0.062 0.374,0.185 0.404,0.194 0.137,0.07 0.294,0.121 0.421,0.207 0.263,0.163 0.544,0.318 0.777,0.524 0.486,0.39 0.904,0.889 1.118,1.478 0.064,0.145 0.081,0.295 0.111,0.442 0.019,0.09 0.035,0.136 0.026,0.241 -0.011,0.088 -0.04,0.198 -0.123,0.258 -0.082,0.074 -0.186,0.041 -0.3,0.041 C 3.792,-0.307 3.409,-0.321 3.079,-0.34 2.741,-0.333 2.402,-0.338 2.061,-0.302 1.381,-0.251 0.688,-0.146 0,0" /></g><g
         transform="matrix(0.59111252,0,0,0.59111252,0.28131458,243.09587)"
         id="g624"><g
           clip-path="url(#clipPath628)"
           id="g626"><g
             transform="translate(76.4429,705.6531)"
             id="g632" /><g
             transform="translate(171.0332,685.327)"
             id="g636" /><g
             transform="translate(101.7553,711.2686)"
             id="g640" /><g
             transform="translate(100.4979,708.4564)"
             id="g644" /><g
             transform="translate(144.77,690.0569)"
             id="g648" /><g
             transform="translate(157.27,685.0187)"
             id="g652" /><g
             transform="translate(150.9162,676.1571)"
             id="g656" /><g
             transform="translate(666.9382,235.5223)"
             id="g660"><path
               inkscape:connector-curvature="0"
               id="path662"
               style="fill:#78d1da;fill-opacity:1;fill-rule:nonzero;stroke:none"
               d="m 0,0 c 0,-34.811 -28.143,-63.03 -62.859,-63.03 -34.716,0 -62.859,28.219 -62.859,63.03 0,34.811 28.143,63.03 62.859,63.03 C -28.143,63.03 0,34.811 0,0" /></g><g
             transform="translate(548.5446,237.1504)"
             id="g664"><path
               inkscape:connector-curvature="0"
               id="path666"
               style="fill:#dfe079;fill-opacity:1;fill-rule:nonzero;stroke:none"
               d="M 0,0 C 5,-3 13.661,-9.29 16.772,-14.028 19.882,-18.766 21.605,-38 23.136,-42 c 1.531,-4 8.197,-12.667 10.531,-13.333 2.333,-0.667 3.666,0 3.666,0 0,0 -1,11.205 0,14.936 1,3.73 16.334,17.397 19.667,22.397 3.333,5 7.333,24.825 6,28.746 -1.333,3.921 -10.667,3.587 -14.333,4.921 -3.667,1.333 -6,3.333 -6,4.666 0,1.334 3.333,6 6.666,5 3.334,-1 9.667,-10 11.667,-10.333 2,-0.333 7.333,11 5.333,14.333 -2,3.334 -20.333,12 -21,14.667 -0.666,2.667 4,5.097 4,5.097 0,0 20.809,-14.097 27.071,-17.097 6.263,-3 13.263,-2 13.263,-2 0,0 2.333,10.737 4.666,11.702 1.188,0.491 3.687,0.904 5.855,1.192 C 88.791,54.282 73.051,61.325 55.667,61.325 36.972,61.325 20.187,53.173 8.651,40.239 10.118,35.195 15.71,28.116 23.136,31 c 6.197,2.407 15.531,0.667 17.197,0 1.667,-0.667 1.334,-4.333 -1.631,-7.369 -2.965,-3.036 -10.369,-3.964 -13.369,-3.964 -3,0 -10.315,8 -15.666,7.927 C 6.979,27.558 2.707,26.82 -0.882,26.094 -3.812,20.137 -5.819,13.651 -6.74,6.817 -4.483,3.951 -2.001,1.201 0,0" /></g><g
             transform="translate(628.2112,181.5207)"
             id="g668"><path
               inkscape:connector-curvature="0"
               id="path670"
               style="fill:#78d1da;fill-opacity:1;fill-rule:nonzero;stroke:none"
               d="m 0,0 c 1.667,2.37 2.667,27.963 5,31.296 2.333,3.334 24,11 27.667,12 1.866,0.509 4.208,2.849 6.06,5.024 0.165,1.86 0.264,3.74 0.264,5.643 0,17.405 -7.059,33.16 -18.469,44.561 C 18.353,98.236 15.855,97.823 14.667,97.331 12.333,96.366 10,85.63 10,85.63 c 0,0 -7,-1 -13.262,2 -6.262,3 -27.071,17.096 -27.071,17.096 0,0 -4.667,-2.43 -4,-5.096 0.666,-2.667 19,-11.334 21,-14.667 2,-3.333 -3.334,-14.667 -5.334,-14.333 -2,0.333 -8.333,9.333 -11.666,10.333 -3.334,1 -6.667,-3.667 -6.667,-5 0,-1.333 2.333,-3.333 6,-4.667 3.667,-1.333 13,-1 14.333,-4.92 1.334,-3.921 -2.666,-23.746 -6,-28.746 -3.333,-5 -18.666,-18.667 -19.666,-22.398 -1,-3.73 0,-14.936 0,-14.936 0,0 -1.334,-0.666 -3.667,0 -2.333,0.667 -9,9.334 -10.531,13.334 -1.53,4 -3.253,23.233 -6.364,27.972 -3.111,4.738 -11.772,11.028 -16.772,14.028 -2.001,1.2 -4.482,3.95 -6.74,6.817 -0.374,-2.777 -0.585,-5.605 -0.585,-8.484 0,-34.789 28.203,-62.992 62.992,-62.992 8.516,0 16.632,1.7 24.042,4.763 C -0.511,-2.648 -0.704,-1.002 0,0" /></g><g
             transform="translate(573.8779,256.817)"
             id="g672"><path
               inkscape:connector-curvature="0"
               id="path674"
               style="fill:#78d1da;fill-opacity:1;fill-rule:nonzero;stroke:none"
               d="M 0,0 C 3,0 10.404,0.928 13.369,3.964 16.333,7 16.667,10.667 15,11.333 13.333,12 4,13.74 -2.197,11.333 c -7.427,-2.883 -13.018,4.195 -14.485,9.24 -3.783,-4.241 -7,-8.994 -9.534,-14.146 3.589,0.726 7.862,1.464 10.549,1.5 C -10.316,8 -3,0 0,0" /></g><g
             transform="translate(666.9382,229.8409)"
             id="g676"><path
               inkscape:connector-curvature="0"
               id="path678"
               style="fill:#dfe079;fill-opacity:1;fill-rule:nonzero;stroke:none"
               d="m 0,0 c -1.852,-2.175 -4.194,-4.515 -6.06,-5.024 -3.667,-1 -25.334,-8.667 -27.667,-12 -2.333,-3.333 -3.333,-28.926 -5,-31.296 -0.704,-1.002 -0.511,-2.648 0.042,-4.267 C -17.481,-43.822 -2.116,-23.82 0,0" /></g><g
             transform="translate(539.8779,275.4836)"
             id="g680"><path
               inkscape:connector-curvature="0"
               id="path682"
               style="fill:#ffffff;fill-opacity:1;fill-rule:nonzero;stroke:none"
               d="M 0,0 C -0.722,5.295 7.272,5.404 10.469,3.368 12.333,15.333 24,10.54 25.667,4.603 35.759,16.151 41,8.07 39,3.368 39,3.368 48,3 47.333,-2 c -0.666,-5 -14,0 -14,0 0,0 -2.298,-9.667 -9.649,-8.667 -7.351,1 -8.684,5.74 -8.684,5.74 0,0 -14,-2.406 -15,4.927" /></g><g
             transform="translate(625.2112,241.4836)"
             id="g684"><path
               inkscape:connector-curvature="0"
               id="path686"
               style="fill:#ffffff;fill-opacity:1;fill-rule:nonzero;stroke:none"
               d="M 0,0 C -1.7,4.888 5.333,6 7.667,4.667 3.667,16.333 21,29.408 21,5.204 27,13 34.291,9.667 33.479,4.667 45,7 46.055,0.348 44,-1.667 41.945,-3.681 29.114,-4 26.224,-1.667 c 0,0 -1.557,-4.666 -7.557,-4.333 -6,0.333 -7,4.333 -7,4.333 0,0 -9,-6 -11.667,1.667" /></g><g
             transform="translate(550.3473,212.4836)"
             id="g688"><path
               inkscape:connector-curvature="0"
               id="path690"
               style="fill:#ffffff;fill-opacity:1;fill-rule:nonzero;stroke:none"
               d="m 0,0 c 0,0 0,8.333 -7.737,9.797 -4.085,0.772 -1.391,-6.464 -1.391,-6.464 0,0 -15.341,7.667 -17.675,-2 -2.333,-9.666 17.675,-5 17.675,-5 0,0 -4.005,-11.083 4.992,-12 8.997,-0.917 12,8.334 12,8.334 0,0 3,-5.667 7,-5.334 4,0.334 6.469,5.334 6.469,5.334 0,0 13.602,-4.334 15.566,0 1.965,4.333 -7.702,4.402 -7.702,4.402 0,0 1.667,9.598 -11.666,6.264 C 21.197,15 6.803,12 0,0" /></g><g
             transform="translate(573.8779,237.9836)"
             id="g692"><path
               inkscape:connector-curvature="0"
               id="path694"
               style="fill:#0f4649;fill-opacity:1;fill-rule:nonzero;stroke:none"
               d="M 0,0 C 0,0 -0.167,6.833 5.667,8.833 11.5,10.833 16,3 16,3 16,3 6,9.833 0,0" /></g><g
             transform="translate(608.8779,245.9836)"
             id="g696"><path
               inkscape:connector-curvature="0"
               id="path698"
               style="fill:#0f4649;fill-opacity:1;fill-rule:nonzero;stroke:none"
               d="m 0,0 c 0,0 0.167,8 7,9.667 6.833,1.666 9.071,-6 9.071,-6 0,0 -8.071,7 -16.071,-3.667" /></g><g
             transform="translate(598.7112,232.317)"
             id="g700"><path
               inkscape:connector-curvature="0"
               id="path702"
               style="fill:#0f4649;fill-opacity:1;fill-rule:nonzero;stroke:none"
               d="m 0,0 c 0,0 2.912,-5.228 7,-2.947 4.088,2.28 3.167,6.78 3.167,6.78 0,0 2.833,-7 -2,-9.333 C 3.333,-7.833 0,0 0,0" /></g><g
             transform="translate(678.9626,302.5316)"
             id="g704"><path
               inkscape:connector-curvature="0"
               id="path706"
               style="fill:#cecedb;fill-opacity:1;fill-rule:nonzero;stroke:none"
               d="m 0,0 c 0,-6.84 -5.545,-12.385 -12.385,-12.385 -6.84,0 -12.385,5.545 -12.385,12.385 0,6.84 5.545,12.385 12.385,12.385 C -5.545,12.385 0,6.84 0,0" /></g><g
             transform="translate(669.9445,311.9701)"
             id="g708"><path
               inkscape:connector-curvature="0"
               id="path710"
               style="fill:#9393a0;fill-opacity:1;fill-rule:nonzero;stroke:none"
               d="m 0,0 c 0,0 -0.117,-0.11 -0.331,-0.311 -0.215,-0.194 -0.514,-0.497 -0.817,-0.903 -0.642,-0.78 -1.19,-2.103 -0.797,-3.449 0.366,-1.345 1.58,-2.636 3.094,-3.288 1.516,-0.677 3.306,-0.65 4.991,-0.076 0,0 -0.068,-0.084 -0.2,-0.246 C 5.807,-8.442 5.587,-8.664 5.255,-8.925 4.61,-9.423 3.382,-10.078 1.642,-9.932 c -1.677,0.137 -3.888,1.195 -4.923,3.57 -0.504,1.153 -0.575,2.692 0.115,3.93 0.66,1.25 1.882,2.037 3.166,2.432" /></g><g
             transform="translate(665.7684,295.4958)"
             id="g712"><path
               inkscape:connector-curvature="0"
               id="path714"
               style="fill:#9393a0;fill-opacity:1;fill-rule:nonzero;stroke:none"
               d="M 0,0 C 0,0 0.036,0.101 0.102,0.286 0.162,0.475 0.272,0.741 0.446,1.065 0.625,1.384 0.867,1.771 1.281,2.113 1.679,2.459 2.306,2.738 2.998,2.684 3.679,2.618 4.34,2.283 4.837,1.789 5.332,1.293 5.759,0.68 5.842,-0.149 5.889,-0.543 5.736,-1.129 5.281,-1.39 4.852,-1.644 4.437,-1.616 4.101,-1.555 3.412,-1.424 2.867,-1.109 2.38,-0.787 c 0,0 0.278,-0.036 0.796,-0.102 0.254,-0.029 0.571,-0.064 0.917,-0.046 0.342,-0.002 0.735,0.129 0.799,0.329 C 4.985,-0.422 4.884,0.042 4.62,0.46 4.363,0.883 3.969,1.318 3.471,1.596 2.978,1.884 2.369,1.979 1.733,1.666 1.102,1.355 0.509,0.732 0,0" /></g><g
             transform="translate(659.2602,308.5077)"
             id="g716"><path
               inkscape:connector-curvature="0"
               id="path718"
               style="fill:#9393a0;fill-opacity:1;fill-rule:nonzero;stroke:none"
               d="M 0,0 C 0,0 0.183,-0.175 0.452,-0.511 0.713,-0.849 1.067,-1.363 1.226,-2.117 1.285,-2.496 1.283,-2.943 1.11,-3.38 0.934,-3.816 0.592,-4.172 0.222,-4.406 -0.536,-4.87 -1.367,-4.93 -2.063,-4.805 c -0.022,0.027 0.646,0.36 1.487,0.956 0.411,0.314 0.789,0.671 0.897,1.278 C 0.448,-1.949 0.279,-1.044 0,0" /></g><g
             transform="translate(576.1756,392.1134)"
             id="g720"><path
               inkscape:connector-curvature="0"
               id="path722"
               style="fill:#a76419;fill-opacity:1;fill-rule:nonzero;stroke:none"
               d="m 0,0 c 0,-11.37 -9.218,-20.588 -20.588,-20.588 -11.37,0 -20.588,9.218 -20.588,20.588 0,11.37 9.218,20.588 20.588,20.588 C -9.218,20.588 0,11.37 0,0" /></g><g
             transform="translate(552.1284,398.1052)"
             id="g724"><path
               inkscape:connector-curvature="0"
               id="path726"
               style="fill:#1d1d1b;fill-opacity:1;fill-rule:nonzero;stroke:none"
               d="m 0,0 c -0.329,-1.573 -1.677,-2.623 -3.011,-2.344 -1.333,0.278 -2.148,1.78 -1.82,3.353 0.329,1.574 1.677,2.623 3.011,2.345 C -0.486,3.075 0.329,1.573 0,0" /></g><g
             transform="translate(561.6284,397.1052)"
             id="g728"><path
               inkscape:connector-curvature="0"
               id="path730"
               style="fill:#1d1d1b;fill-opacity:1;fill-rule:nonzero;stroke:none"
               d="m 0,0 c -0.329,-1.573 -1.677,-2.623 -3.011,-2.344 -1.333,0.278 -2.148,1.78 -1.82,3.353 0.329,1.574 1.677,2.623 3.011,2.345 C -0.486,3.075 0.329,1.573 0,0" /></g><g
             transform="translate(552.7241,391.6098)"
             id="g732"><path
               inkscape:connector-curvature="0"
               id="path734"
               style="fill:#562b00;fill-opacity:1;fill-rule:nonzero;stroke:none"
               d="M 0,0 C 2.239,-0.25 2.59,-10 -0.523,-10.375 -3.636,-10.75 -2.239,0.25 0,0" /></g><g
             transform="translate(170.4942,210.2026)"
             id="g736"><path
               inkscape:connector-curvature="0"
               id="path738"
               style="fill:#f8896b;fill-opacity:1;fill-rule:nonzero;stroke:none"
               d="M 0,0 C 1.883,1.944 3.57,4.041 5.236,6.151 4.683,6.166 4.133,6.193 3.577,6.193 -26.464,6.193 -51.51,-15.174 -57.204,-43.539 -36.756,-34.043 -13.992,-14.449 0,0" /></g><g
             transform="translate(196.2023,197.8719)"
             id="g740"><path
               inkscape:connector-curvature="0"
               id="path742"
               style="fill:#f2bca0;fill-opacity:1;fill-rule:nonzero;stroke:none"
               d="m 0,0 c 2.965,3.377 5.725,6.91 8.536,10.4 -8.595,4.903 -18.472,7.805 -29.008,8.082 -1.667,-2.111 -3.354,-4.207 -5.236,-6.151 -13.992,-14.449 -36.756,-34.043 -57.204,-43.54 -0.796,-3.966 -1.219,-8.067 -1.219,-12.267 0,-6.552 1.024,-12.864 2.907,-18.792 C -51.157,-46.519 -21.885,-24.93 0,0" /></g></g></g><g
         transform="matrix(0.59111252,0,0,0.59111252,0.28131458,243.09587)"
         id="g744"><g
           clip-path="url(#clipPath748)"
           id="g746"><g
             transform="translate(100.071,150.0627)"
             id="g752"><path
               inkscape:connector-curvature="0"
               id="path754"
               style="fill:none;stroke:#f8896b;stroke-width:3;stroke-linecap:butt;stroke-linejoin:miter;stroke-miterlimit:10;stroke-dasharray:none;stroke-opacity:1"
               d="M 0,0 C 0,0 70.667,23 95,74.333" /></g></g></g><g
         transform="matrix(0.59111252,0,0,0.59111252,103.17686,297.7123)"
         id="g764"><path
           inkscape:connector-curvature="0"
           id="path766"
           style="fill:#f2bca0;fill-opacity:1;fill-rule:nonzero;stroke:none"
           d="M 0,0 C 32.167,0 58.608,24.498 61.695,55.854 39.021,34.771 14.479,17.681 -12.018,1.174 -8.129,0.41 -4.113,0 0,0" /></g><g
         transform="matrix(0.59111252,0,0,0.59111252,138.96116,342.26782)"
         id="g768"><path
           inkscape:connector-curvature="0"
           id="path770"
           style="fill:#f2bca0;fill-opacity:1;fill-rule:nonzero;stroke:none"
           d="m 0,0 c -2.817,12.807 -9.581,24.132 -18.969,32.621 -1.641,-1.982 -3.3,-3.944 -4.929,-5.905 -24.205,-29.136 -58.274,-50.44 -91.379,-69.209 4.617,-8.661 11.23,-16.09 19.224,-21.689 31.519,16.435 62.655,34.745 89.264,58.213 C -4.539,-3.985 -2.267,-2 0,0" /></g><g
         transform="matrix(0.59111252,0,0,0.59111252,138.96116,342.26782)"
         id="g772"><path
           inkscape:connector-curvature="0"
           id="path774"
           style="fill:#f8896b;fill-opacity:1;fill-rule:nonzero;stroke:none"
           d="m 0,0 c -2.267,-2 -4.539,-3.985 -6.789,-5.969 -26.609,-23.468 -57.745,-41.778 -89.264,-58.213 6.929,-4.853 14.891,-8.328 23.497,-10.019 26.498,16.506 51.04,33.597 73.713,54.679 0.199,2.022 0.306,4.072 0.306,6.146 C 1.463,-8.781 0.948,-4.31 0,0" /></g><g
         transform="matrix(0.59111252,0,0,0.59111252,124.83475,358.06016)"
         id="g776"><path
           inkscape:connector-curvature="0"
           id="path778"
           style="fill:#f8896b;fill-opacity:1;fill-rule:nonzero;stroke:none"
           d="m 0,0 c 1.629,1.961 3.288,3.922 4.929,5.905 -3.324,3.005 -6.982,5.644 -10.901,7.879 -2.811,-3.49 -5.571,-7.023 -8.536,-10.4 -21.885,-24.93 -51.157,-46.519 -81.223,-62.268 1.142,-3.596 2.605,-7.047 4.352,-10.325 C -58.274,-50.44 -24.205,-29.136 0,0" /></g><g
         transform="matrix(0.59111252,0,0,0.59111252,72.023045,315.06406)"
         id="g780"><path
           inkscape:connector-curvature="0"
           id="path782"
           style="fill:#b18867;fill-opacity:1;fill-rule:nonzero;stroke:none"
           d="m 0,0 c -6.28,-6.185 -9.431,-10.596 -8.307,-12.211 2.885,-4.149 32.882,11.724 66.999,35.452 34.117,23.729 59.435,46.328 56.55,50.477 -1.082,1.555 -5.977,0.296 -13.471,-3.138 l -7.307,7.886 c 42.055,24.469 74.464,36.674 80.08,28.599 C 182.291,95.926 136.113,50.411 71.402,5.405 6.69,-39.602 -52.049,-67.057 -59.796,-55.918 c -5.631,8.097 17.23,34.357 54.991,65.382 L 0,0 Z" /></g><g
         transform="matrix(0.59111252,0,0,0.59111252,130.16653,359.14728)"
         id="g784"><path
           inkscape:connector-curvature="0"
           id="path786"
           style="fill:none;stroke:#dfaa84;stroke-width:3;stroke-linecap:butt;stroke-linejoin:miter;stroke-miterlimit:10;stroke-dasharray:none;stroke-opacity:1"
           d="m 0,0 c 22.872,13.074 39.023,19.72 41.45,16.23 4.033,-5.799 -28.422,-40.994 -76.109,-74.161 -47.687,-33.167 -92.549,-51.745 -96.582,-45.946 -2.455,3.53 9.697,16.616 30.339,33.797" /></g><g
         transform="matrix(0.59111252,0,0,0.59111252,84.9956,355.54906)"
         id="g788"><path
           inkscape:connector-curvature="0"
           id="path790"
           style="fill:#1d1d1b;fill-opacity:1;fill-rule:nonzero;stroke:none"
           d="m 0,0 c 1.211,-1.751 1.089,-3.933 -0.272,-4.874 -1.36,-0.941 -3.445,-0.284 -4.655,1.467 -1.211,1.751 -1.089,3.933 0.271,4.874 C -3.295,2.408 -1.211,1.751 0,0" /></g><g
         transform="matrix(0.59111252,0,0,0.59111252,92.073345,362.17259)"
         id="g792"><path
           inkscape:connector-curvature="0"
           id="path794"
           style="fill:#1d1d1b;fill-opacity:1;fill-rule:nonzero;stroke:none"
           d="M 0,0 C 1.482,-1.528 1.721,-3.7 0.533,-4.852 -0.654,-6.004 -2.818,-5.699 -4.3,-4.171 -5.782,-2.643 -6.021,-0.47 -4.834,0.682 -3.646,1.833 -1.482,1.528 0,0" /></g><g
         transform="matrix(0.59111252,0,0,0.59111252,85.488647,349.82992)"
         id="g796"><path
           inkscape:connector-curvature="0"
           id="path798"
           style="fill:#1d1d1b;fill-opacity:1;fill-rule:nonzero;stroke:none"
           d="m 0,0 c 0,0 12.893,2.206 17.066,15.516 0,0 -0.685,-6.752 -3.536,-10.342 C 10.679,1.584 2.414,0.106 0,0" /></g><g
         transform="matrix(0.59111252,0,0,0.59111252,84.785756,350.86656)"
         id="g800"><path
           inkscape:connector-curvature="0"
           id="path802"
           style="fill:#1d1d1b;fill-opacity:1;fill-rule:nonzero;stroke:none"
           d="M 0,0 C 0,0 0.157,-0.085 0.412,-0.255 0.659,-0.43 0.99,-0.71 1.288,-1.107 c 0.626,-0.758 0.961,-2.148 0.428,-3.081 0,0 -0.083,0.119 -0.188,0.322 C 1.434,-3.661 1.275,-3.38 1.134,-3.04 0.805,-2.349 0.522,-1.486 0,0" /></g><g
         transform="matrix(0.59111252,0,0,0.59111252,94.631976,359.36581)"
         id="g804"><path
           inkscape:connector-curvature="0"
           id="path806"
           style="fill:#1d1d1b;fill-opacity:1;fill-rule:nonzero;stroke:none"
           d="M 0,0 C 0,0 0.191,-0.023 0.504,-0.062 0.814,-0.097 1.24,-0.137 1.71,-0.155 2.676,-0.206 3.695,-0.1 4.773,-0.005 4.766,0.026 4.558,-0.579 3.647,-0.964 2.779,-1.34 1.16,-1.264 0,0" /></g><g
         id="g844"
         transform="matrix(0.59111252,0,0,0.59111252,82.149216,472.7377)"><path
           d="m 0,0 c 0,0 6.787,-30.143 8.384,-32.227 l 2.106,17.232 c 0,0 32.458,-20.043 35.23,-19.499 L 24.172,-3.012 41.272,-0.451 13.89,11.18 0,0 Z"
           style="fill:#ffe69f;fill-opacity:1;fill-rule:nonzero;stroke:none"
           id="path846"
           inkscape:connector-curvature="0" /></g><g
         id="g848"
         transform="matrix(0.59111252,0,0,0.59111252,85.797681,472.67936)"><path
           d="M 0,0 2.382,-9.729 4.629,-2.913 19.662,-12.37 7.718,7.672 0,0 Z"
           style="fill:#fff1cf;fill-opacity:1;fill-rule:nonzero;stroke:none"
           id="path850"
           inkscape:connector-curvature="0" /></g><g
         id="g852"
         transform="matrix(0.59111252,0,0,0.59111252,61.4189,486.54917)"><path
           d="m 0,0 c 0,0 -16.053,-31.322 16.375,-35.834 0,0 -1.829,17.386 7.181,25.482 L 0,0 Z"
           style="fill:#da0613;fill-opacity:1;fill-rule:nonzero;stroke:none"
           id="path854"
           inkscape:connector-curvature="0" /></g><g
         id="g856"
         transform="matrix(0.59111252,0,0,0.59111252,77.683834,499.78034)"><path
           d="m 0,0 c 0,0 32.558,19.605 41.82,-18.313 0,0 -11.822,11.274 -31.605,-2.265 L 0,0 Z"
           style="fill:#da0613;fill-opacity:1;fill-rule:nonzero;stroke:none"
           id="path858"
           inkscape:connector-curvature="0" /></g><g
         id="g860"
         transform="matrix(0.59111252,0,0,0.59111252,89.273837,482.8144)"><path
           d="M 0,0 C 0,0 -4.002,10.73 -12.34,25.053 -19.713,19.037 -34.579,6.735 -40.873,1.522 c 5.677,-4.569 11.982,-9.121 18.997,-13.608 L 0,0 Z"
           style="fill:#eaeaea;fill-opacity:1;fill-rule:nonzero;stroke:none"
           id="path862"
           inkscape:connector-curvature="0" /></g><g
         id="g864"
         transform="matrix(0.59111252,0,0,0.59111252,54.312959,528.97544)"><path
           d="m 0,0 c -9.457,6.586 -20.107,11.998 -31.995,15.327 0,0 -1.704,-13.65 5.577,-33.319 C -21.9,-13.255 -11.379,-3.295 0,0"
           style="fill:#da0613;fill-opacity:1;fill-rule:nonzero;stroke:none"
           id="path866"
           inkscape:connector-curvature="0" /></g><g
         id="g868"
         transform="matrix(0.59111252,0,0,0.59111252,54.312959,528.97544)"><path
           d="m 0,0 c -11.379,-3.295 -21.9,-13.255 -26.418,-17.992 6.194,-16.732 18.894,-37.818 44.689,-58.578 6.294,5.213 21.16,17.516 28.533,23.531 C 37.168,-36.487 21.74,-15.139 0,0"
           style="fill:#ffffff;fill-opacity:1;fill-rule:nonzero;stroke:none"
           id="path870"
           inkscape:connector-curvature="0" /></g><g
         id="g872"
         transform="matrix(0.59111252,0,0,0.59111252,63.638942,512.69242)"><path
           d="m 0,0 c 0,-7.767 -6.296,-14.063 -14.063,-14.063 -7.767,0 -14.063,6.296 -14.063,14.063 0,7.767 6.296,14.063 14.063,14.063 C -6.296,14.063 0,7.767 0,0"
           style="fill:#da0613;fill-opacity:1;fill-rule:nonzero;stroke:none"
           id="path874"
           inkscape:connector-curvature="0" /></g><g
         id="g876"
         transform="matrix(0.59111252,0,0,0.59111252,61.734318,512.69242)"><path
           d="m 0,0 c 0,-5.987 -4.854,-10.841 -10.841,-10.841 -5.987,0 -10.841,4.854 -10.841,10.841 0,5.987 4.854,10.841 10.841,10.841 C -4.854,10.841 0,5.987 0,0"
           style="fill:#b8edff;fill-opacity:1;fill-rule:nonzero;stroke:none"
           id="path878"
           inkscape:connector-curvature="0" /></g><g
         id="g880"
         transform="matrix(0.59111252,0,0,0.59111252,71.09819,497.32988)"><path
           d="m 0,0 c 0,-3.4 -2.757,-6.157 -6.157,-6.157 -3.4,0 -6.157,2.757 -6.157,6.157 0,3.4 2.757,6.157 6.157,6.157 C -2.757,6.157 0,3.4 0,0"
           style="fill:#da0613;fill-opacity:1;fill-rule:nonzero;stroke:none"
           id="path882"
           inkscape:connector-curvature="0" /></g><g
         id="g884"
         transform="matrix(0.59111252,0,0,0.59111252,70.264308,497.32988)"><path
           d="m 0,0 c 0,-2.621 -2.125,-4.746 -4.746,-4.746 -2.621,0 -4.746,2.125 -4.746,4.746 0,2.621 2.125,4.746 4.746,4.746 C -2.125,4.746 0,2.621 0,0"
           style="fill:#b8edff;fill-opacity:1;fill-rule:nonzero;stroke:none"
           id="path886"
           inkscape:connector-curvature="0" /></g><g
         id="g888"
         transform="matrix(0.59111252,0,0,0.59111252,93.473986,477.85886)"><path
           d="m 0,0 c 0,0 -3.891,13.492 -7.106,14.702 0,0 -20.978,-15.598 -25.89,-18.404 0,0 9.854,-10.173 16.461,-10.101 L 0,0 Z"
           style="fill:#da0613;fill-opacity:1;fill-rule:nonzero;stroke:none"
           id="path890"
           inkscape:connector-curvature="0" /></g><g
         id="g892"
         transform="matrix(0.59111252,0,0,0.59111252,101.38118,460.1233)"><path
           d="M 0,0 C 0.927,-0.925 1.87,-1.866 2.828,-2.823"
           style="fill:none;stroke:#ffe69f;stroke-width:3;stroke-linecap:butt;stroke-linejoin:miter;stroke-miterlimit:10;stroke-dasharray:none;stroke-opacity:1"
           id="path894"
           inkscape:connector-curvature="0" /></g><g
         id="g896"
         transform="matrix(0.59111252,0,0,0.59111252,106.4265,455.09513)"><path
           sodipodi:nodetypes="cssc"
           d="m 0,0 c 45.375,-45.061 121.166,-116.476 205.19,-122.494 123.946,-8.878 150.98932,131.0921465 297.587,116.261 32.69001,-3.3072165 65.93537,-26.304134 89.04128,-63.693059"
           style="fill:none;stroke:#ffe69f;stroke-width:3;stroke-linecap:butt;stroke-linejoin:miter;stroke-miterlimit:10;stroke-dasharray:8.058, 8.058;stroke-dashoffset:0;stroke-opacity:1"
           id="path898"
           inkscape:connector-curvature="0" /></g><g
         transform="matrix(0.59111252,0,0,0.59111252,88.318089,569.72279)"
         id="g912"><path
           inkscape:connector-curvature="0"
           id="path914"
           style="fill:#ffe69f;fill-opacity:1;fill-rule:nonzero;stroke:none"
           d="m 0,0 c -2.73,1.244 -2.618,-13.159 -2.618,-13.159 0,0 -17.866,3.402 -19.267,0.945 -1.4,-2.457 15.706,-11.289 15.706,-11.289 0,0 -5.898,-11.933 -3.88,-13.521 2.017,-1.587 17.806,8.732 17.806,8.732 0,0 12.754,-3.033 14.527,-1.937 1.774,1.096 -5.823,10.541 -5.823,10.541 0,0 7.212,13.726 5.936,14.759 C 21.112,-3.896 7.444,-12.04 7.444,-12.04 7.444,-12.04 2.369,-1.079 0,0" /></g><g
         transform="matrix(0.59111252,0,0,0.59111252,222.04873,351.86124)"
         id="g920"><path
           inkscape:connector-curvature="0"
           id="path922"
           style="fill:#ffe69f;fill-opacity:1;fill-rule:nonzero;stroke:none"
           d="m 0,0 c -1.58,1.794 -6.193,-8.716 -6.193,-8.716 0,0 -11.884,8.298 -13.704,6.967 -1.82,-1.33 7.742,-13.33 7.742,-13.33 0,0 -8.717,-7.568 -7.767,-9.38 0.95,-1.812 16.334,1.358 16.334,1.358 0,0 9.052,-7.422 10.7,-7.203 1.647,0.219 -1.566,10.624 -1.566,10.624 0,0 9.72,7.631 9.129,8.798 -0.591,1.167 -13.186,-0.301 -13.186,-0.301 0,0 -0.118,9.626 -1.489,11.183" /></g><g
         transform="matrix(0.59111252,0,0,0.59111252,329.051,574.43798)"
         id="g932"><path
           inkscape:connector-curvature="0"
           id="path934"
           style="fill:#ffe69f;fill-opacity:1;fill-rule:nonzero;stroke:none"
           d="m 0,0 c -1.128,2.109 -8.026,-7.072 -8.026,-7.072 0,0 -9.676,10.8 -11.752,9.921 -2.077,-0.88 4.49,-14.754 4.49,-14.754 0,0 -9.561,-5.589 -9.051,-7.571 0.511,-1.982 15.56,-2.202 15.56,-2.202 0,0 6.358,-10.635 8.012,-10.798 1.654,-0.164 1.666,12.04 1.666,12.04 0,0 11.212,5.208 10.904,6.48 -0.309,1.272 -12.911,2.724 -12.911,2.724 0,0 2.087,9.402 1.108,11.232" /></g><g
         transform="matrix(0.59111252,0,0,0.59111252,259.39265,420.03553)"
         id="g940"><path
           inkscape:connector-curvature="0"
           id="path942"
           style="fill:#ffe69f;fill-opacity:1;fill-rule:nonzero;stroke:none"
           d="m 0,0 c -1.735,1.029 -2.462,-10.883 -2.462,-10.883 0,0 -11.695,3.565 -12.809,2.024 -1.114,-1.541 9.681,-8.68 9.681,-8.68 0,0 -7.633,-11.33 -6.399,-12.537 1.233,-1.206 15.36,8.329 15.36,8.329 0,0 10.556,-6.366 11.821,-5.762 1.264,0.605 -5.382,10.883 -5.382,10.883 0,0 5.812,8.652 5.035,9.435 -0.778,0.783 -8.994,-2.999 -8.994,-2.999 0,0 -4.346,9.297 -5.851,10.19" /></g></g></g></svg>